midi.Pattern(format=1, resolution=960, tracks=\
[midi.Track(\
  [midi.TimeSignatureEvent(tick=0, data=[2, 2, 24, 8]),
   midi.KeySignatureEvent(tick=0, data=[253, 0]),
   midi.SetTempoEvent(tick=0, data=[5, 22, 21]),
   midi.TrackNameEvent(tick=0, text='Symphony No. 5', data=[83, 121, 109, 112, 104, 111, 110, 121, 32, 78, 111, 46, 32, 53]),
   midi.TextMetaEvent(tick=0, text='Ludwig van Beethoven', data=[76, 117, 100, 119, 105, 103, 32, 118, 97, 110, 32, 66, 101, 101, 116, 104, 111, 118, 101, 110]),
   midi.CopyrightMetaEvent(tick=0, text='OpenScore', data=[79, 112, 101, 110, 83, 99, 111, 114, 101]),
   midi.TimeSignatureEvent(tick=1920, data=[3, 2, 24, 8]),
   midi.TimeSignatureEvent(tick=2880, data=[2, 2, 24, 8]),
   midi.TimeSignatureEvent(tick=1920, data=[3, 2, 24, 8]),
   midi.TimeSignatureEvent(tick=2880, data=[2, 2, 24, 8]),
   midi.SetTempoEvent(tick=230400, data=[5, 22, 21]),
   midi.SetTempoEvent(tick=0, data=[7, 161, 32]),
   midi.SetTempoEvent(tick=0, data=[5, 22, 21]),
   midi.TimeSignatureEvent(tick=1920, data=[3, 2, 24, 8]),
   midi.TimeSignatureEvent(tick=2880, data=[2, 2, 24, 8]),
   midi.TimeSignatureEvent(tick=1920, data=[3, 2, 24, 8]),
   midi.TimeSignatureEvent(tick=2880, data=[2, 2, 24, 8]),
   midi.SetTempoEvent(tick=466560, data=[15, 66, 64]),
   midi.SetTempoEvent(tick=0, data=[11, 150, 197]),
   midi.SetTempoEvent(tick=49920, data=[15, 66, 64]),
   midi.SetTempoEvent(tick=7680, data=[7, 161, 32]),
   midi.SetTempoEvent(tick=0, data=[5, 22, 21]),
   midi.EndOfTrackEvent(tick=1, data=[])]),
 midi.Track(\
  [midi.ProgramChangeEvent(tick=0, channel=0, data=[73]),
   midi.ControlChangeEvent(tick=0, channel=0, data=[121, 0]),
   midi.ControlChangeEvent(tick=0, channel=0, data=[64, 0]),
   midi.ControlChangeEvent(tick=0, channel=0, data=[91, 52]),
   midi.ControlChangeEvent(tick=0, channel=0, data=[10, 70]),
   midi.ControlChangeEvent(tick=0, channel=0, data=[7, 127]),
   midi.TrackNameEvent(tick=0, text='Flute', data=[70, 108, 117, 116, 101]),
   midi.NoteOnEvent(tick=33120, channel=0, data=[91, 61]),
   midi.NoteOnEvent(tick=0, channel=0, data=[86, 61]),
   midi.NoteOffEvent(tick=480, channel=0, data=[91, 0]),
   midi.NoteOffEvent(tick=0, channel=0, data=[86, 0]),
   midi.NoteOnEvent(tick=0, channel=0, data=[91, 61]),
   midi.NoteOnEvent(tick=0, channel=0, data=[86, 61]),
   midi.NoteOffEvent(tick=480, channel=0, data=[91, 0]),
   midi.NoteOffEvent(tick=0, channel=0, data=[86, 0]),
   midi.NoteOnEvent(tick=0, channel=0, data=[89, 76]),
   midi.NoteOnEvent(tick=0, channel=0, data=[86, 61]),
   midi.NoteOffEvent(tick=480, channel=0, data=[89, 0]),
   midi.NoteOffEvent(tick=0, channel=0, data=[86, 0]),
   midi.NoteOnEvent(tick=0, channel=0, data=[87, 96]),
   midi.NoteOnEvent(tick=0, channel=0, data=[84, 99]),
   midi.NoteOffEvent(tick=960, channel=0, data=[87, 0]),
   midi.NoteOffEvent(tick=0, channel=0, data=[84, 0]),
   midi.NoteOnEvent(tick=960, channel=0, data=[84, 94]),
   midi.NoteOffEvent(tick=960, channel=0, data=[84, 0]),
   midi.NoteOnEvent(tick=960, channel=0, data=[91, 109]),
   midi.NoteOnEvent(tick=0, channel=0, data=[83, 102]),
   midi.NoteOffEvent(tick=960, channel=0, data=[91, 0]),
   midi.NoteOffEvent(tick=0, channel=0, data=[83, 0]),
   midi.NoteOnEvent(tick=3360, channel=0, data=[80, 110]),
   midi.NoteOffEvent(tick=480, channel=0, data=[80, 0]),
   midi.NoteOnEvent(tick=0, channel=0, data=[80, 111]),
   midi.NoteOffEvent(tick=480, channel=0, data=[80, 0]),
   midi.NoteOnEvent(tick=0, channel=0, data=[80, 111]),
   midi.NoteOffEvent(tick=480, channel=0, data=[80, 0]),
   midi.NoteOnEvent(tick=0, channel=0, data=[77, 111]),
   midi.NoteOffEvent(tick=3840, channel=0, data=[77, 0]),
   midi.NoteOnEvent(tick=26880, channel=0, data=[84, 104]),
   midi.NoteOffEvent(tick=960, channel=0, data=[84, 0]),
   midi.NoteOnEvent(tick=960, channel=0, data=[84, 104]),
   midi.NoteOffEvent(tick=960, channel=0, data=[84, 0]),
   midi.NoteOnEvent(tick=960, channel=0, data=[84, 104]),
   midi.NoteOffEvent(tick=960, channel=0, data=[84, 0]),
   midi.NoteOnEvent(tick=960, channel=0, data=[84, 104]),
   midi.NoteOffEvent(tick=960, channel=0, data=[84, 0]),
   midi.NoteOnEvent(tick=960, channel=0, data=[86, 106]),
   midi.NoteOnEvent(tick=0, channel=0, data=[83, 104]),
   midi.NoteOffEvent(tick=960, channel=0, data=[86, 0]),
   midi.NoteOffEvent(tick=0, channel=0, data=[83, 0]),
   midi.NoteOnEvent(tick=960, channel=0, data=[87, 105]),
   midi.NoteOnEvent(tick=0, channel=0, data=[84, 104]),
   midi.NoteOffEvent(tick=7680, channel=0, data=[87, 0]),
   midi.NoteOffEvent(tick=0, channel=0, data=[84, 0]),
   midi.NoteOnEvent(tick=0, channel=0, data=[89, 104]),
   midi.NoteOnEvent(tick=0, channel=0, data=[86, 104]),
   midi.NoteOffEvent(tick=6720, channel=0, data=[89, 0]),
   midi.NoteOffEvent(tick=0, channel=0, data=[86, 0]),
   midi.NoteOnEvent(tick=0, channel=0, data=[84, 98]),
   midi.NoteOnEvent(tick=0, channel=0, data=[87, 98]),
   midi.NoteOffEvent(tick=960, channel=0, data=[84, 0]),
   midi.NoteOffEvent(tick=0, channel=0, data=[87, 0]),
   midi.NoteOnEvent(tick=0, channel=0, data=[87, 120]),
   midi.NoteOnEvent(tick=0, channel=0, data=[84, 120]),
   midi.NoteOffEvent(tick=7680, channel=0, data=[87, 0]),
   midi.NoteOffEvent(tick=0, channel=0, data=[84, 0]),
   midi.NoteOnEvent(tick=0, channel=0, data=[90, 120]),
   midi.NoteOnEvent(tick=0, channel=0, data=[81, 120]),
   midi.NoteOffEvent(tick=960, channel=0, data=[90, 0]),
   midi.NoteOffEvent(tick=0, channel=0, data=[81, 0]),
   midi.NoteOnEvent(tick=2880, channel=0, data=[82, 117]),
   midi.NoteOffEvent(tick=960, channel=0, data=[82, 0]),
   midi.NoteOnEvent(tick=24000, channel=0, data=[82, 65]),
   midi.NoteOnEvent(tick=960, channel=0, data=[87, 63]),
   midi.NoteOffEvent(tick=19, channel=0, data=[82, 0]),
   midi.NoteOffEvent(tick=892, channel=0, data=[87, 0]),
   midi.NoteOnEvent(tick=49, channel=0, data=[86, 66]),
   midi.NoteOffEvent(tick=960, channel=0, data=[86, 0]),
   midi.NoteOnEvent(tick=0, channel=0, data=[87, 63]),
   midi.NoteOffEvent(tick=960, channel=0, data=[87, 0]),
   midi.NoteOnEvent(tick=0, channel=0, data=[89, 68]),
   midi.NoteOffEvent(tick=960, channel=0, data=[89, 0]),
   midi.NoteOnEvent(tick=0, channel=0, data=[84, 57]),
   midi.NoteOffEvent(tick=960, channel=0, data=[84, 0]),
   midi.NoteOnEvent(tick=0, channel=0, data=[84, 62]),
   midi.NoteOnEvent(tick=960, channel=0, data=[82, 56]),
   midi.NoteOffEvent(tick=19, channel=0, data=[84, 0]),
   midi.NoteOffEvent(tick=892, channel=0, data=[82, 0]),
   midi.NoteOnEvent(tick=30769, channel=0, data=[87, 89]),
   midi.NoteOffEvent(tick=960, channel=0, data=[87, 0]),
   midi.NoteOnEvent(tick=0, channel=0, data=[89, 85]),
   midi.NoteOffEvent(tick=960, channel=0, data=[89, 0]),
   midi.NoteOnEvent(tick=0, channel=0, data=[90, 91]),
   midi.NoteOffEvent(tick=960, channel=0, data=[90, 0]),
   midi.NoteOnEvent(tick=0, channel=0, data=[89, 84]),
   midi.NoteOffEvent(tick=960, channel=0, data=[89, 0]),
   midi.NoteOnEvent(tick=0, channel=0, data=[90, 91]),
   midi.NoteOffEvent(tick=960, channel=0, data=[90, 0]),
   midi.NoteOnEvent(tick=0, channel=0, data=[90, 85]),
   midi.NoteOffEvent(tick=960, channel=0, data=[90, 0]),
   midi.NoteOnEvent(tick=0, channel=0, data=[89, 118]),
   midi.NoteOnEvent(tick=0, channel=0, data=[82, 120]),
   midi.NoteOffEvent(tick=2880, channel=0, data=[89, 0]),
   midi.NoteOffEvent(tick=0, channel=0, data=[82, 0]),
   midi.NoteOnEvent(tick=0, channel=0, data=[89, 112]),
   midi.NoteOnEvent(tick=0, channel=0, data=[82, 113]),
   midi.NoteOffEvent(tick=960, channel=0, data=[89, 0]),
   midi.NoteOffEvent(tick=0, channel=0, data=[82, 0]),
   midi.NoteOnEvent(tick=0, channel=0, data=[91, 123]),
   midi.NoteOnEvent(tick=0, channel=0, data=[82, 120]),
   midi.NoteOffEvent(tick=960, channel=0, data=[91, 0]),
   midi.NoteOffEvent(tick=0, channel=0, data=[82, 0]),
   midi.NoteOnEvent(tick=960, channel=0, data=[89, 118]),
   midi.NoteOnEvent(tick=0, channel=0, data=[82, 120]),
   midi.NoteOffEvent(tick=960, channel=0, data=[89, 0]),
   midi.NoteOffEvent(tick=0, channel=0, data=[82, 0]),
   midi.NoteOnEvent(tick=960, channel=0, data=[87, 117]),
   midi.NoteOnEvent(tick=0, channel=0, data=[82, 120]),
   midi.NoteOffEvent(tick=960, channel=0, data=[87, 0]),
   midi.NoteOffEvent(tick=0, channel=0, data=[82, 0]),
   midi.NoteOnEvent(tick=960, channel=0, data=[87, 119]),
   midi.NoteOnEvent(tick=0, channel=0, data=[84, 122]),
   midi.NoteOffEvent(tick=960, channel=0, data=[87, 0]),
   midi.NoteOffEvent(tick=0, channel=0, data=[84, 0]),
   midi.NoteOnEvent(tick=960, channel=0, data=[87, 120]),
   midi.NoteOnEvent(tick=0, channel=0, data=[82, 119]),
   midi.NoteOffEvent(tick=960, channel=0, data=[87, 0]),
   midi.NoteOffEvent(tick=0, channel=0, data=[82, 0]),
   midi.NoteOnEvent(tick=960, channel=0, data=[86, 119]),
   midi.NoteOnEvent(tick=0, channel=0, data=[82, 119]),
   midi.NoteOffEvent(tick=960, channel=0, data=[86, 0]),
   midi.NoteOffEvent(tick=0, channel=0, data=[82, 0]),
   midi.NoteOnEvent(tick=960, channel=0, data=[89, 123]),
   midi.NoteOnEvent(tick=0, channel=0, data=[82, 120]),
   midi.NoteOffEvent(tick=3840, channel=0, data=[89, 0]),
   midi.NoteOffEvent(tick=0, channel=0, data=[82, 0]),
   midi.NoteOnEvent(tick=0, channel=0, data=[91, 121]),
   midi.NoteOnEvent(tick=0, channel=0, data=[82, 120]),
   midi.NoteOffEvent(tick=960, channel=0, data=[91, 0]),
   midi.NoteOffEvent(tick=0, channel=0, data=[82, 0]),
   midi.NoteOnEvent(tick=0, channel=0, data=[91, 114]),
   midi.NoteOnEvent(tick=0, channel=0, data=[82, 113]),
   midi.NoteOffEvent(tick=960, channel=0, data=[91, 0]),
   midi.NoteOffEvent(tick=0, channel=0, data=[82, 0]),
   midi.NoteOnEvent(tick=960, channel=0, data=[86, 108]),
   midi.NoteOnEvent(tick=0, channel=0, data=[82, 113]),
   midi.NoteOffEvent(tick=960, channel=0, data=[86, 0]),
   midi.NoteOffEvent(tick=0, channel=0, data=[82, 0]),
   midi.NoteOnEvent(tick=960, channel=0, data=[87, 112]),
   midi.NoteOnEvent(tick=0, channel=0, data=[82, 113]),
   midi.NoteOffEvent(tick=960, channel=0, data=[87, 0]),
   midi.NoteOffEvent(tick=0, channel=0, data=[82, 0]),
   midi.NoteOnEvent(tick=960, channel=0, data=[87, 113]),
   midi.NoteOnEvent(tick=0, channel=0, data=[80, 111]),
   midi.NoteOffEvent(tick=960, channel=0, data=[87, 0]),
   midi.NoteOffEvent(tick=0, channel=0, data=[80, 0]),
   midi.NoteOnEvent(tick=960, channel=0, data=[87, 113]),
   midi.NoteOnEvent(tick=0, channel=0, data=[82, 114]),
   midi.NoteOffEvent(tick=960, channel=0, data=[87, 0]),
   midi.NoteOffEvent(tick=0, channel=0, data=[82, 0]),
   midi.NoteOnEvent(tick=960, channel=0, data=[86, 112]),
   midi.NoteOnEvent(tick=0, channel=0, data=[82, 114]),
   midi.NoteOffEvent(tick=960, channel=0, data=[86, 0]),
   midi.NoteOffEvent(tick=0, channel=0, data=[82, 0]),
   midi.NoteOnEvent(tick=0, channel=0, data=[87, 121]),
   midi.NoteOnEvent(tick=0, channel=0, data=[82, 120]),
   midi.NoteOffEvent(tick=480, channel=0, data=[87, 0]),
   midi.NoteOffEvent(tick=0, channel=0, data=[82, 0]),
   midi.NoteOnEvent(tick=0, channel=0, data=[91, 122]),
   midi.NoteOffEvent(tick=480, channel=0, data=[91, 0]),
   midi.NoteOnEvent(tick=0, channel=0, data=[91, 121]),
   midi.NoteOffEvent(tick=480, channel=0, data=[91, 0]),
   midi.NoteOnEvent(tick=0, channel=0, data=[91, 120]),
   midi.NoteOffEvent(tick=480, channel=0, data=[91, 0]),
   midi.NoteOnEvent(tick=0, channel=0, data=[87, 110]),
   midi.NoteOffEvent(tick=480, channel=0, data=[87, 0]),
   midi.NoteOnEvent(tick=0, channel=0, data=[82, 96]),
   midi.NoteOffEvent(tick=480, channel=0, data=[82, 0]),
   midi.NoteOnEvent(tick=0, channel=0, data=[82, 96]),
   midi.NoteOffEvent(tick=480, channel=0, data=[82, 0]),
   midi.NoteOnEvent(tick=0, channel=0, data=[82, 97]),
   midi.NoteOffEvent(tick=480, channel=0, data=[82, 0]),
   midi.NoteOnEvent(tick=0, channel=0, data=[79, 102]),
   midi.NoteOffEvent(tick=480, channel=0, data=[79, 0]),
   midi.NoteOnEvent(tick=0, channel=0, data=[75, 96]),
   midi.NoteOffEvent(tick=480, channel=0, data=[75, 0]),
   midi.NoteOnEvent(tick=0, channel=0, data=[75, 96]),
   midi.NoteOffEvent(tick=480, channel=0, data=[75, 0]),
   midi.NoteOnEvent(tick=0, channel=0, data=[75, 96]),
   midi.NoteOffEvent(tick=480, channel=0, data=[75, 0]),
   midi.NoteOnEvent(tick=0, channel=0, data=[70, 102]),
   midi.NoteOffEvent(tick=2400, channel=0, data=[70, 0]),
   midi.NoteOnEvent(tick=0, channel=0, data=[91, 127]),
   midi.NoteOffEvent(tick=480, channel=0, data=[91, 0]),
   midi.NoteOnEvent(tick=0, channel=0, data=[91, 127]),
   midi.NoteOffEvent(tick=480, channel=0, data=[91, 0]),
   midi.NoteOnEvent(tick=0, channel=0, data=[91, 127]),
   midi.NoteOffEvent(tick=480, channel=0, data=[91, 0]),
   midi.NoteOnEvent(tick=0, channel=0, data=[87, 123]),
   midi.NoteOffEvent(tick=480, channel=0, data=[87, 0]),
   midi.NoteOnEvent(tick=0, channel=0, data=[82, 99]),
   midi.NoteOffEvent(tick=480, channel=0, data=[82, 0]),
   midi.NoteOnEvent(tick=0, channel=0, data=[82, 100]),
   midi.NoteOffEvent(tick=480, channel=0, data=[82, 0]),
   midi.NoteOnEvent(tick=0, channel=0, data=[82, 100]),
   midi.NoteOffEvent(tick=480, channel=0, data=[82, 0]),
   midi.NoteOnEvent(tick=0, channel=0, data=[79, 102]),
   midi.NoteOffEvent(tick=480, channel=0, data=[79, 0]),
   midi.NoteOnEvent(tick=0, channel=0, data=[75, 96]),
   midi.NoteOffEvent(tick=480, channel=0, data=[75, 0]),
   midi.NoteOnEvent(tick=0, channel=0, data=[75, 96]),
   midi.NoteOffEvent(tick=480, channel=0, data=[75, 0]),
   midi.NoteOnEvent(tick=0, channel=0, data=[75, 96]),
   midi.NoteOffEvent(tick=480, channel=0, data=[75, 0]),
   midi.NoteOnEvent(tick=0, channel=0, data=[70, 102]),
   midi.NoteOffEvent(tick=2880, channel=0, data=[70, 0]),
   midi.NoteOnEvent(tick=1440, channel=0, data=[82, 120]),
   midi.NoteOffEvent(tick=480, channel=0, data=[82, 0]),
   midi.NoteOnEvent(tick=0, channel=0, data=[82, 118]),
   midi.NoteOffEvent(tick=480, channel=0, data=[82, 0]),
   midi.NoteOnEvent(tick=0, channel=0, data=[82, 117]),
   midi.NoteOffEvent(tick=480, channel=0, data=[82, 0]),
   midi.NoteOnEvent(tick=0, channel=0, data=[82, 122]),
   midi.NoteOffEvent(tick=960, channel=0, data=[82, 0]),
   midi.NoteOnEvent(tick=1440, channel=0, data=[86, 120]),
   midi.NoteOnEvent(tick=0, channel=0, data=[77, 113]),
   midi.NoteOffEvent(tick=480, channel=0, data=[86, 0]),
   midi.NoteOffEvent(tick=0, channel=0, data=[77, 0]),
   midi.NoteOnEvent(tick=0, channel=0, data=[86, 119]),
   midi.NoteOnEvent(tick=0, channel=0, data=[77, 113]),
   midi.NoteOffEvent(tick=480, channel=0, data=[86, 0]),
   midi.NoteOffEvent(tick=0, channel=0, data=[77, 0]),
   midi.NoteOnEvent(tick=0, channel=0, data=[86, 118]),
   midi.NoteOnEvent(tick=0, channel=0, data=[77, 113]),
   midi.NoteOffEvent(tick=480, channel=0, data=[86, 0]),
   midi.NoteOffEvent(tick=0, channel=0, data=[77, 0]),
   midi.NoteOnEvent(tick=0, channel=0, data=[87, 127]),
   midi.NoteOnEvent(tick=0, channel=0, data=[79, 125]),
   midi.NoteOffEvent(tick=960, channel=0, data=[87, 0]),
   midi.NoteOffEvent(tick=0, channel=0, data=[79, 0]),
   midi.NoteOnEvent(tick=37920, channel=0, data=[91, 61]),
   midi.NoteOnEvent(tick=0, channel=0, data=[86, 61]),
   midi.NoteOffEvent(tick=480, channel=0, data=[91, 0]),
   midi.NoteOffEvent(tick=0, channel=0, data=[86, 0]),
   midi.NoteOnEvent(tick=0, channel=0, data=[91, 61]),
   midi.NoteOnEvent(tick=0, channel=0, data=[86, 61]),
   midi.NoteOffEvent(tick=480, channel=0, data=[91, 0]),
   midi.NoteOffEvent(tick=0, channel=0, data=[86, 0]),
   midi.NoteOnEvent(tick=0, channel=0, data=[89, 76]),
   midi.NoteOnEvent(tick=0, channel=0, data=[86, 61]),
   midi.NoteOffEvent(tick=480, channel=0, data=[89, 0]),
   midi.NoteOffEvent(tick=0, channel=0, data=[86, 0]),
   midi.NoteOnEvent(tick=0, channel=0, data=[87, 96]),
   midi.NoteOnEvent(tick=0, channel=0, data=[84, 99]),
   midi.NoteOffEvent(tick=960, channel=0, data=[87, 0]),
   midi.NoteOffEvent(tick=0, channel=0, data=[84, 0]),
   midi.NoteOnEvent(tick=960, channel=0, data=[84, 94]),
   midi.NoteOffEvent(tick=960, channel=0, data=[84, 0]),
   midi.NoteOnEvent(tick=960, channel=0, data=[91, 109]),
   midi.NoteOnEvent(tick=0, channel=0, data=[83, 102]),
   midi.NoteOffEvent(tick=960, channel=0, data=[91, 0]),
   midi.NoteOffEvent(tick=0, channel=0, data=[83, 0]),
   midi.NoteOnEvent(tick=3360, channel=0, data=[80, 110]),
   midi.NoteOffEvent(tick=480, channel=0, data=[80, 0]),
   midi.NoteOnEvent(tick=0, channel=0, data=[80, 111]),
   midi.NoteOffEvent(tick=480, channel=0, data=[80, 0]),
   midi.NoteOnEvent(tick=0, channel=0, data=[80, 111]),
   midi.NoteOffEvent(tick=480, channel=0, data=[80, 0]),
   midi.NoteOnEvent(tick=0, channel=0, data=[77, 111]),
   midi.NoteOffEvent(tick=3840, channel=0, data=[77, 0]),
   midi.NoteOnEvent(tick=26880, channel=0, data=[84, 104]),
   midi.NoteOffEvent(tick=960, channel=0, data=[84, 0]),
   midi.NoteOnEvent(tick=960, channel=0, data=[84, 104]),
   midi.NoteOffEvent(tick=960, channel=0, data=[84, 0]),
   midi.NoteOnEvent(tick=960, channel=0, data=[84, 104]),
   midi.NoteOffEvent(tick=960, channel=0, data=[84, 0]),
   midi.NoteOnEvent(tick=960, channel=0, data=[84, 104]),
   midi.NoteOffEvent(tick=960, channel=0, data=[84, 0]),
   midi.NoteOnEvent(tick=960, channel=0, data=[86, 106]),
   midi.NoteOnEvent(tick=0, channel=0, data=[83, 104]),
   midi.NoteOffEvent(tick=960, channel=0, data=[86, 0]),
   midi.NoteOffEvent(tick=0, channel=0, data=[83, 0]),
   midi.NoteOnEvent(tick=960, channel=0, data=[87, 105]),
   midi.NoteOnEvent(tick=0, channel=0, data=[84, 104]),
   midi.NoteOffEvent(tick=7680, channel=0, data=[87, 0]),
   midi.NoteOffEvent(tick=0, channel=0, data=[84, 0]),
   midi.NoteOnEvent(tick=0, channel=0, data=[89, 104]),
   midi.NoteOnEvent(tick=0, channel=0, data=[86, 104]),
   midi.NoteOffEvent(tick=6720, channel=0, data=[89, 0]),
   midi.NoteOffEvent(tick=0, channel=0, data=[86, 0]),
   midi.NoteOnEvent(tick=0, channel=0, data=[84, 98]),
   midi.NoteOnEvent(tick=0, channel=0, data=[87, 98]),
   midi.NoteOffEvent(tick=960, channel=0, data=[84, 0]),
   midi.NoteOffEvent(tick=0, channel=0, data=[87, 0]),
   midi.NoteOnEvent(tick=0, channel=0, data=[87, 120]),
   midi.NoteOnEvent(tick=0, channel=0, data=[84, 120]),
   midi.NoteOffEvent(tick=7680, channel=0, data=[87, 0]),
   midi.NoteOffEvent(tick=0, channel=0, data=[84, 0]),
   midi.NoteOnEvent(tick=0, channel=0, data=[90, 120]),
   midi.NoteOnEvent(tick=0, channel=0, data=[81, 120]),
   midi.NoteOffEvent(tick=960, channel=0, data=[90, 0]),
   midi.NoteOffEvent(tick=0, channel=0, data=[81, 0]),
   midi.NoteOnEvent(tick=2880, channel=0, data=[82, 117]),
   midi.NoteOffEvent(tick=960, channel=0, data=[82, 0]),
   midi.NoteOnEvent(tick=24000, channel=0, data=[82, 65]),
   midi.NoteOnEvent(tick=960, channel=0, data=[87, 63]),
   midi.NoteOffEvent(tick=19, channel=0, data=[82, 0]),
   midi.NoteOffEvent(tick=892, channel=0, data=[87, 0]),
   midi.NoteOnEvent(tick=49, channel=0, data=[86, 66]),
   midi.NoteOffEvent(tick=960, channel=0, data=[86, 0]),
   midi.NoteOnEvent(tick=0, channel=0, data=[87, 63]),
   midi.NoteOffEvent(tick=960, channel=0, data=[87, 0]),
   midi.NoteOnEvent(tick=0, channel=0, data=[89, 68]),
   midi.NoteOffEvent(tick=960, channel=0, data=[89, 0]),
   midi.NoteOnEvent(tick=0, channel=0, data=[84, 57]),
   midi.NoteOffEvent(tick=960, channel=0, data=[84, 0]),
   midi.NoteOnEvent(tick=0, channel=0, data=[84, 62]),
   midi.NoteOnEvent(tick=960, channel=0, data=[82, 56]),
   midi.NoteOffEvent(tick=19, channel=0, data=[84, 0]),
   midi.NoteOffEvent(tick=892, channel=0, data=[82, 0]),
   midi.NoteOnEvent(tick=30769, channel=0, data=[87, 89]),
   midi.NoteOffEvent(tick=960, channel=0, data=[87, 0]),
   midi.NoteOnEvent(tick=0, channel=0, data=[89, 85]),
   midi.NoteOffEvent(tick=960, channel=0, data=[89, 0]),
   midi.NoteOnEvent(tick=0, channel=0, data=[90, 91]),
   midi.NoteOffEvent(tick=960, channel=0, data=[90, 0]),
   midi.NoteOnEvent(tick=0, channel=0, data=[89, 84]),
   midi.NoteOffEvent(tick=960, channel=0, data=[89, 0]),
   midi.NoteOnEvent(tick=0, channel=0, data=[90, 91]),
   midi.NoteOffEvent(tick=960, channel=0, data=[90, 0]),
   midi.NoteOnEvent(tick=0, channel=0, data=[90, 85]),
   midi.NoteOffEvent(tick=960, channel=0, data=[90, 0]),
   midi.NoteOnEvent(tick=0, channel=0, data=[89, 118]),
   midi.NoteOnEvent(tick=0, channel=0, data=[82, 120]),
   midi.NoteOffEvent(tick=2880, channel=0, data=[89, 0]),
   midi.NoteOffEvent(tick=0, channel=0, data=[82, 0]),
   midi.NoteOnEvent(tick=0, channel=0, data=[89, 112]),
   midi.NoteOnEvent(tick=0, channel=0, data=[82, 113]),
   midi.NoteOffEvent(tick=960, channel=0, data=[89, 0]),
   midi.NoteOffEvent(tick=0, channel=0, data=[82, 0]),
   midi.NoteOnEvent(tick=0, channel=0, data=[91, 123]),
   midi.NoteOnEvent(tick=0, channel=0, data=[82, 120]),
   midi.NoteOffEvent(tick=960, channel=0, data=[91, 0]),
   midi.NoteOffEvent(tick=0, channel=0, data=[82, 0]),
   midi.NoteOnEvent(tick=960, channel=0, data=[89, 118]),
   midi.NoteOnEvent(tick=0, channel=0, data=[82, 120]),
   midi.NoteOffEvent(tick=960, channel=0, data=[89, 0]),
   midi.NoteOffEvent(tick=0, channel=0, data=[82, 0]),
   midi.NoteOnEvent(tick=960, channel=0, data=[87, 117]),
   midi.NoteOnEvent(tick=0, channel=0, data=[82, 120]),
   midi.NoteOffEvent(tick=960, channel=0, data=[87, 0]),
   midi.NoteOffEvent(tick=0, channel=0, data=[82, 0]),
   midi.NoteOnEvent(tick=960, channel=0, data=[87, 119]),
   midi.NoteOnEvent(tick=0, channel=0, data=[84, 122]),
   midi.NoteOffEvent(tick=960, channel=0, data=[87, 0]),
   midi.NoteOffEvent(tick=0, channel=0, data=[84, 0]),
   midi.NoteOnEvent(tick=960, channel=0, data=[87, 120]),
   midi.NoteOnEvent(tick=0, channel=0, data=[82, 119]),
   midi.NoteOffEvent(tick=960, channel=0, data=[87, 0]),
   midi.NoteOffEvent(tick=0, channel=0, data=[82, 0]),
   midi.NoteOnEvent(tick=960, channel=0, data=[86, 119]),
   midi.NoteOnEvent(tick=0, channel=0, data=[82, 119]),
   midi.NoteOffEvent(tick=960, channel=0, data=[86, 0]),
   midi.NoteOffEvent(tick=0, channel=0, data=[82, 0]),
   midi.NoteOnEvent(tick=960, channel=0, data=[89, 123]),
   midi.NoteOnEvent(tick=0, channel=0, data=[82, 120]),
   midi.NoteOffEvent(tick=3840, channel=0, data=[89, 0]),
   midi.NoteOffEvent(tick=0, channel=0, data=[82, 0]),
   midi.NoteOnEvent(tick=0, channel=0, data=[91, 121]),
   midi.NoteOnEvent(tick=0, channel=0, data=[82, 120]),
   midi.NoteOffEvent(tick=960, channel=0, data=[91, 0]),
   midi.NoteOffEvent(tick=0, channel=0, data=[82, 0]),
   midi.NoteOnEvent(tick=0, channel=0, data=[91, 114]),
   midi.NoteOnEvent(tick=0, channel=0, data=[82, 113]),
   midi.NoteOffEvent(tick=960, channel=0, data=[91, 0]),
   midi.NoteOffEvent(tick=0, channel=0, data=[82, 0]),
   midi.NoteOnEvent(tick=960, channel=0, data=[86, 108]),
   midi.NoteOnEvent(tick=0, channel=0, data=[82, 113]),
   midi.NoteOffEvent(tick=960, channel=0, data=[86, 0]),
   midi.NoteOffEvent(tick=0, channel=0, data=[82, 0]),
   midi.NoteOnEvent(tick=960, channel=0, data=[87, 112]),
   midi.NoteOnEvent(tick=0, channel=0, data=[82, 113]),
   midi.NoteOffEvent(tick=960, channel=0, data=[87, 0]),
   midi.NoteOffEvent(tick=0, channel=0, data=[82, 0]),
   midi.NoteOnEvent(tick=960, channel=0, data=[87, 113]),
   midi.NoteOnEvent(tick=0, channel=0, data=[80, 111]),
   midi.NoteOffEvent(tick=960, channel=0, data=[87, 0]),
   midi.NoteOffEvent(tick=0, channel=0, data=[80, 0]),
   midi.NoteOnEvent(tick=960, channel=0, data=[87, 113]),
   midi.NoteOnEvent(tick=0, channel=0, data=[82, 114]),
   midi.NoteOffEvent(tick=960, channel=0, data=[87, 0]),
   midi.NoteOffEvent(tick=0, channel=0, data=[82, 0]),
   midi.NoteOnEvent(tick=960, channel=0, data=[86, 112]),
   midi.NoteOnEvent(tick=0, channel=0, data=[82, 114]),
   midi.NoteOffEvent(tick=960, channel=0, data=[86, 0]),
   midi.NoteOffEvent(tick=0, channel=0, data=[82, 0]),
   midi.NoteOnEvent(tick=0, channel=0, data=[87, 121]),
   midi.NoteOnEvent(tick=0, channel=0, data=[82, 120]),
   midi.NoteOffEvent(tick=480, channel=0, data=[87, 0]),
   midi.NoteOffEvent(tick=0, channel=0, data=[82, 0]),
   midi.NoteOnEvent(tick=0, channel=0, data=[91, 122]),
   midi.NoteOffEvent(tick=480, channel=0, data=[91, 0]),
   midi.NoteOnEvent(tick=0, channel=0, data=[91, 121]),
   midi.NoteOffEvent(tick=480, channel=0, data=[91, 0]),
   midi.NoteOnEvent(tick=0, channel=0, data=[91, 120]),
   midi.NoteOffEvent(tick=480, channel=0, data=[91, 0]),
   midi.NoteOnEvent(tick=0, channel=0, data=[87, 110]),
   midi.NoteOffEvent(tick=480, channel=0, data=[87, 0]),
   midi.NoteOnEvent(tick=0, channel=0, data=[82, 96]),
   midi.NoteOffEvent(tick=480, channel=0, data=[82, 0]),
   midi.NoteOnEvent(tick=0, channel=0, data=[82, 96]),
   midi.NoteOffEvent(tick=480, channel=0, data=[82, 0]),
   midi.NoteOnEvent(tick=0, channel=0, data=[82, 97]),
   midi.NoteOffEvent(tick=480, channel=0, data=[82, 0]),
   midi.NoteOnEvent(tick=0, channel=0, data=[79, 102]),
   midi.NoteOffEvent(tick=480, channel=0, data=[79, 0]),
   midi.NoteOnEvent(tick=0, channel=0, data=[75, 96]),
   midi.NoteOffEvent(tick=480, channel=0, data=[75, 0]),
   midi.NoteOnEvent(tick=0, channel=0, data=[75, 96]),
   midi.NoteOffEvent(tick=480, channel=0, data=[75, 0]),
   midi.NoteOnEvent(tick=0, channel=0, data=[75, 96]),
   midi.NoteOffEvent(tick=480, channel=0, data=[75, 0]),
   midi.NoteOnEvent(tick=0, channel=0, data=[70, 102]),
   midi.NoteOffEvent(tick=2400, channel=0, data=[70, 0]),
   midi.NoteOnEvent(tick=0, channel=0, data=[91, 127]),
   midi.NoteOffEvent(tick=480, channel=0, data=[91, 0]),
   midi.NoteOnEvent(tick=0, channel=0, data=[91, 127]),
   midi.NoteOffEvent(tick=480, channel=0, data=[91, 0]),
   midi.NoteOnEvent(tick=0, channel=0, data=[91, 127]),
   midi.NoteOffEvent(tick=480, channel=0, data=[91, 0]),
   midi.NoteOnEvent(tick=0, channel=0, data=[87, 123]),
   midi.NoteOffEvent(tick=480, channel=0, data=[87, 0]),
   midi.NoteOnEvent(tick=0, channel=0, data=[82, 99]),
   midi.NoteOffEvent(tick=480, channel=0, data=[82, 0]),
   midi.NoteOnEvent(tick=0, channel=0, data=[82, 100]),
   midi.NoteOffEvent(tick=480, channel=0, data=[82, 0]),
   midi.NoteOnEvent(tick=0, channel=0, data=[82, 100]),
   midi.NoteOffEvent(tick=480, channel=0, data=[82, 0]),
   midi.NoteOnEvent(tick=0, channel=0, data=[79, 102]),
   midi.NoteOffEvent(tick=480, channel=0, data=[79, 0]),
   midi.NoteOnEvent(tick=0, channel=0, data=[75, 96]),
   midi.NoteOffEvent(tick=480, channel=0, data=[75, 0]),
   midi.NoteOnEvent(tick=0, channel=0, data=[75, 96]),
   midi.NoteOffEvent(tick=480, channel=0, data=[75, 0]),
   midi.NoteOnEvent(tick=0, channel=0, data=[75, 96]),
   midi.NoteOffEvent(tick=480, channel=0, data=[75, 0]),
   midi.NoteOnEvent(tick=0, channel=0, data=[70, 102]),
   midi.NoteOffEvent(tick=2880, channel=0, data=[70, 0]),
   midi.NoteOnEvent(tick=1440, channel=0, data=[82, 120]),
   midi.NoteOffEvent(tick=480, channel=0, data=[82, 0]),
   midi.NoteOnEvent(tick=0, channel=0, data=[82, 118]),
   midi.NoteOffEvent(tick=480, channel=0, data=[82, 0]),
   midi.NoteOnEvent(tick=0, channel=0, data=[82, 117]),
   midi.NoteOffEvent(tick=480, channel=0, data=[82, 0]),
   midi.NoteOnEvent(tick=0, channel=0, data=[82, 122]),
   midi.NoteOffEvent(tick=960, channel=0, data=[82, 0]),
   midi.NoteOnEvent(tick=1440, channel=0, data=[86, 120]),
   midi.NoteOnEvent(tick=0, channel=0, data=[77, 113]),
   midi.NoteOffEvent(tick=480, channel=0, data=[86, 0]),
   midi.NoteOffEvent(tick=0, channel=0, data=[77, 0]),
   midi.NoteOnEvent(tick=0, channel=0, data=[86, 119]),
   midi.NoteOnEvent(tick=0, channel=0, data=[77, 113]),
   midi.NoteOffEvent(tick=480, channel=0, data=[86, 0]),
   midi.NoteOffEvent(tick=0, channel=0, data=[77, 0]),
   midi.NoteOnEvent(tick=0, channel=0, data=[86, 118]),
   midi.NoteOnEvent(tick=0, channel=0, data=[77, 113]),
   midi.NoteOffEvent(tick=480, channel=0, data=[86, 0]),
   midi.NoteOffEvent(tick=0, channel=0, data=[77, 0]),
   midi.NoteOnEvent(tick=0, channel=0, data=[87, 127]),
   midi.NoteOnEvent(tick=0, channel=0, data=[79, 125]),
   midi.NoteOffEvent(tick=960, channel=0, data=[87, 0]),
   midi.NoteOffEvent(tick=0, channel=0, data=[79, 0]),
   midi.NoteOnEvent(tick=59040, channel=0, data=[86, 61]),
   midi.NoteOffEvent(tick=480, channel=0, data=[86, 0]),
   midi.NoteOnEvent(tick=0, channel=0, data=[86, 61]),
   midi.NoteOffEvent(tick=480, channel=0, data=[86, 0]),
   midi.NoteOnEvent(tick=0, channel=0, data=[84, 59]),
   midi.NoteOffEvent(tick=480, channel=0, data=[84, 0]),
   midi.NoteOnEvent(tick=0, channel=0, data=[82, 60]),
   midi.NoteOffEvent(tick=1920, channel=0, data=[82, 0]),
   midi.NoteOnEvent(tick=0, channel=0, data=[81, 61]),
   midi.NoteOffEvent(tick=480, channel=0, data=[81, 0]),
   midi.NoteOnEvent(tick=0, channel=0, data=[86, 65]),
   midi.NoteOffEvent(tick=480, channel=0, data=[86, 0]),
   midi.NoteOnEvent(tick=0, channel=0, data=[86, 65]),
   midi.NoteOffEvent(tick=480, channel=0, data=[86, 0]),
   midi.NoteOnEvent(tick=0, channel=0, data=[84, 60]),
   midi.NoteOffEvent(tick=480, channel=0, data=[84, 0]),
   midi.NoteOnEvent(tick=0, channel=0, data=[82, 59]),
   midi.NoteOffEvent(tick=1920, channel=0, data=[82, 0]),
   midi.NoteOnEvent(tick=0, channel=0, data=[81, 61]),
   midi.NoteOffEvent(tick=1920, channel=0, data=[81, 0]),
   midi.NoteOnEvent(tick=0, channel=0, data=[82, 64]),
   midi.NoteOffEvent(tick=2400, channel=0, data=[82, 0]),
   midi.NoteOnEvent(tick=0, channel=0, data=[79, 59]),
   midi.NoteOffEvent(tick=480, channel=0, data=[79, 0]),
   midi.NoteOnEvent(tick=0, channel=0, data=[81, 62]),
   midi.NoteOffEvent(tick=480, channel=0, data=[81, 0]),
   midi.NoteOnEvent(tick=0, channel=0, data=[82, 63]),
   midi.NoteOffEvent(tick=480, channel=0, data=[82, 0]),
   midi.NoteOnEvent(tick=0, channel=0, data=[84, 70]),
   midi.NoteOffEvent(tick=960, channel=0, data=[84, 0]),
   midi.NoteOnEvent(tick=1440, channel=0, data=[78, 57]),
   midi.NoteOffEvent(tick=480, channel=0, data=[78, 0]),
   midi.NoteOnEvent(tick=0, channel=0, data=[81, 62]),
   midi.NoteOffEvent(tick=480, channel=0, data=[81, 0]),
   midi.NoteOnEvent(tick=0, channel=0, data=[82, 63]),
   midi.NoteOffEvent(tick=480, channel=0, data=[82, 0]),
   midi.NoteOnEvent(tick=0, channel=0, data=[84, 71]),
   midi.NoteOffEvent(tick=960, channel=0, data=[84, 0]),
   midi.NoteOnEvent(tick=1440, channel=0, data=[81, 60]),
   midi.NoteOffEvent(tick=480, channel=0, data=[81, 0]),
   midi.NoteOnEvent(tick=0, channel=0, data=[82, 62]),
   midi.NoteOffEvent(tick=480, channel=0, data=[82, 0]),
   midi.NoteOnEvent(tick=0, channel=0, data=[84, 65]),
   midi.NoteOffEvent(tick=480, channel=0, data=[84, 0]),
   midi.NoteOnEvent(tick=0, channel=0, data=[86, 71]),
   midi.NoteOffEvent(tick=960, channel=0, data=[86, 0]),
   midi.NoteOnEvent(tick=1440, channel=0, data=[79, 56]),
   midi.NoteOffEvent(tick=480, channel=0, data=[79, 0]),
   midi.NoteOnEvent(tick=0, channel=0, data=[82, 61]),
   midi.NoteOffEvent(tick=480, channel=0, data=[82, 0]),
   midi.NoteOnEvent(tick=0, channel=0, data=[84, 64]),
   midi.NoteOffEvent(tick=480, channel=0, data=[84, 0]),
   midi.NoteOnEvent(tick=0, channel=0, data=[86, 71]),
   midi.NoteOffEvent(tick=960, channel=0, data=[86, 0]),
   midi.NoteOnEvent(tick=1440, channel=0, data=[82, 82]),
   midi.NoteOffEvent(tick=480, channel=0, data=[82, 0]),
   midi.NoteOnEvent(tick=0, channel=0, data=[84, 86]),
   midi.NoteOffEvent(tick=480, channel=0, data=[84, 0]),
   midi.NoteOnEvent(tick=0, channel=0, data=[86, 90]),
   midi.NoteOffEvent(tick=480, channel=0, data=[86, 0]),
   midi.NoteOnEvent(tick=0, channel=0, data=[87, 113]),
   midi.NoteOnEvent(tick=0, channel=0, data=[81, 104]),
   midi.NoteOffEvent(tick=3840, channel=0, data=[87, 0]),
   midi.NoteOffEvent(tick=0, channel=0, data=[81, 0]),
   midi.NoteOnEvent(tick=0, channel=0, data=[87, 105]),
   midi.NoteOnEvent(tick=0, channel=0, data=[81, 104]),
   midi.NoteOffEvent(tick=960, channel=0, data=[87, 0]),
   midi.NoteOffEvent(tick=0, channel=0, data=[81, 0]),
   midi.NoteOnEvent(tick=1440, channel=0, data=[88, 99]),
   midi.NoteOnEvent(tick=0, channel=0, data=[79, 97]),
   midi.NoteOffEvent(tick=480, channel=0, data=[88, 0]),
   midi.NoteOffEvent(tick=0, channel=0, data=[79, 0]),
   midi.NoteOnEvent(tick=0, channel=0, data=[88, 98]),
   midi.NoteOnEvent(tick=0, channel=0, data=[79, 97]),
   midi.NoteOffEvent(tick=480, channel=0, data=[88, 0]),
   midi.NoteOffEvent(tick=0, channel=0, data=[79, 0]),
   midi.NoteOnEvent(tick=0, channel=0, data=[88, 98]),
   midi.NoteOnEvent(tick=0, channel=0, data=[79, 97]),
   midi.NoteOffEvent(tick=480, channel=0, data=[88, 0]),
   midi.NoteOffEvent(tick=0, channel=0, data=[79, 0]),
   midi.NoteOnEvent(tick=0, channel=0, data=[88, 104]),
   midi.NoteOnEvent(tick=0, channel=0, data=[79, 103]),
   midi.NoteOffEvent(tick=3840, channel=0, data=[88, 0]),
   midi.NoteOffEvent(tick=0, channel=0, data=[79, 0]),
   midi.NoteOnEvent(tick=0, channel=0, data=[88, 104]),
   midi.NoteOnEvent(tick=0, channel=0, data=[79, 104]),
   midi.NoteOffEvent(tick=960, channel=0, data=[88, 0]),
   midi.NoteOffEvent(tick=0, channel=0, data=[79, 0]),
   midi.NoteOnEvent(tick=1440, channel=0, data=[86, 97]),
   midi.NoteOnEvent(tick=0, channel=0, data=[82, 100]),
   midi.NoteOffEvent(tick=480, channel=0, data=[86, 0]),
   midi.NoteOffEvent(tick=0, channel=0, data=[82, 0]),
   midi.NoteOnEvent(tick=0, channel=0, data=[86, 97]),
   midi.NoteOnEvent(tick=0, channel=0, data=[82, 99]),
   midi.NoteOffEvent(tick=480, channel=0, data=[86, 0]),
   midi.NoteOffEvent(tick=0, channel=0, data=[82, 0]),
   midi.NoteOnEvent(tick=0, channel=0, data=[86, 97]),
   midi.NoteOnEvent(tick=0, channel=0, data=[82, 99]),
   midi.NoteOffEvent(tick=480, channel=0, data=[86, 0]),
   midi.NoteOffEvent(tick=0, channel=0, data=[82, 0]),
   midi.NoteOnEvent(tick=0, channel=0, data=[86, 103]),
   midi.NoteOnEvent(tick=0, channel=0, data=[82, 105]),
   midi.NoteOffEvent(tick=960, channel=0, data=[86, 0]),
   midi.NoteOffEvent(tick=0, channel=0, data=[82, 0]),
   midi.NoteOnEvent(tick=1920, channel=0, data=[85, 96]),
   midi.NoteOnEvent(tick=0, channel=0, data=[73, 87]),
   midi.NoteOffEvent(tick=480, channel=0, data=[85, 0]),
   midi.NoteOffEvent(tick=0, channel=0, data=[73, 0]),
   midi.NoteOnEvent(tick=0, channel=0, data=[85, 97]),
   midi.NoteOnEvent(tick=0, channel=0, data=[73, 89]),
   midi.NoteOffEvent(tick=480, channel=0, data=[85, 0]),
   midi.NoteOffEvent(tick=0, channel=0, data=[73, 0]),
   midi.NoteOnEvent(tick=0, channel=0, data=[85, 103]),
   midi.NoteOnEvent(tick=0, channel=0, data=[73, 96]),
   midi.NoteOffEvent(tick=960, channel=0, data=[85, 0]),
   midi.NoteOffEvent(tick=0, channel=0, data=[73, 0]),
   midi.NoteOnEvent(tick=0, channel=0, data=[86, 100]),
   midi.NoteOnEvent(tick=0, channel=0, data=[74, 96]),
   midi.NoteOffEvent(tick=480, channel=0, data=[86, 0]),
   midi.NoteOffEvent(tick=0, channel=0, data=[74, 0]),
   midi.NoteOnEvent(tick=0, channel=0, data=[86, 99]),
   midi.NoteOnEvent(tick=0, channel=0, data=[74, 97]),
   midi.NoteOffEvent(tick=480, channel=0, data=[86, 0]),
   midi.NoteOffEvent(tick=0, channel=0, data=[74, 0]),
   midi.NoteOnEvent(tick=0, channel=0, data=[86, 105]),
   midi.NoteOnEvent(tick=0, channel=0, data=[74, 103]),
   midi.NoteOffEvent(tick=960, channel=0, data=[86, 0]),
   midi.NoteOffEvent(tick=0, channel=0, data=[74, 0]),
   midi.NoteOnEvent(tick=13440, channel=0, data=[86, 98]),
   midi.NoteOffEvent(tick=480, channel=0, data=[86, 0]),
   midi.NoteOnEvent(tick=0, channel=0, data=[86, 98]),
   midi.NoteOffEvent(tick=480, channel=0, data=[86, 0]),
   midi.NoteOnEvent(tick=0, channel=0, data=[91, 112]),
   midi.NoteOnEvent(tick=0, channel=0, data=[86, 104]),
   midi.NoteOffEvent(tick=960, channel=0, data=[91, 0]),
   midi.NoteOffEvent(tick=0, channel=0, data=[86, 0]),
   midi.NoteOnEvent(tick=13440, channel=0, data=[86, 98]),
   midi.NoteOnEvent(tick=0, channel=0, data=[83, 98]),
   midi.NoteOffEvent(tick=480, channel=0, data=[86, 0]),
   midi.NoteOffEvent(tick=0, channel=0, data=[83, 0]),
   midi.NoteOnEvent(tick=0, channel=0, data=[86, 98]),
   midi.NoteOnEvent(tick=0, channel=0, data=[83, 98]),
   midi.NoteOffEvent(tick=480, channel=0, data=[86, 0]),
   midi.NoteOffEvent(tick=0, channel=0, data=[83, 0]),
   midi.NoteOnEvent(tick=0, channel=0, data=[88, 107]),
   midi.NoteOnEvent(tick=0, channel=0, data=[84, 105]),
   midi.NoteOffEvent(tick=480, channel=0, data=[88, 0]),
   midi.NoteOffEvent(tick=0, channel=0, data=[84, 0]),
   midi.NoteOnEvent(tick=0, channel=0, data=[84, 106]),
   midi.NoteOffEvent(tick=480, channel=0, data=[84, 0]),
   midi.NoteOnEvent(tick=0, channel=0, data=[84, 107]),
   midi.NoteOffEvent(tick=480, channel=0, data=[84, 0]),
   midi.NoteOnEvent(tick=0, channel=0, data=[84, 108]),
   midi.NoteOffEvent(tick=480, channel=0, data=[84, 0]),
   midi.NoteOnEvent(tick=0, channel=0, data=[77, 102]),
   midi.NoteOffEvent(tick=1920, channel=0, data=[77, 0]),
   midi.NoteOnEvent(tick=0, channel=0, data=[79, 108]),
   midi.NoteOffEvent(tick=1920, channel=0, data=[79, 0]),
   midi.NoteOnEvent(tick=3840, channel=0, data=[77, 120]),
   midi.NoteOffEvent(tick=1920, channel=0, data=[77, 0]),
   midi.NoteOnEvent(tick=0, channel=0, data=[79, 121]),
   midi.NoteOffEvent(tick=1920, channel=0, data=[79, 0]),
   midi.NoteOnEvent(tick=3840, channel=0, data=[77, 120]),
   midi.NoteOffEvent(tick=1920, channel=0, data=[77, 0]),
   midi.NoteOnEvent(tick=0, channel=0, data=[78, 120]),
   midi.NoteOffEvent(tick=1920, channel=0, data=[78, 0]),
   midi.NoteOnEvent(tick=3840, channel=0, data=[81, 120]),
   midi.NoteOffEvent(tick=1920, channel=0, data=[81, 0]),
   midi.NoteOnEvent(tick=0, channel=0, data=[82, 121]),
   midi.NoteOffEvent(tick=1920, channel=0, data=[82, 0]),
   midi.NoteOnEvent(tick=1920, channel=0, data=[83, 76]),
   midi.NoteOffEvent(tick=1920, channel=0, data=[83, 0]),
   midi.NoteOnEvent(tick=1920, channel=0, data=[85, 76]),
   midi.NoteOffEvent(tick=1920, channel=0, data=[85, 0]),
   midi.NoteOnEvent(tick=1920, channel=0, data=[85, 65]),
   midi.NoteOffEvent(tick=1920, channel=0, data=[85, 0]),
   midi.NoteOnEvent(tick=1920, channel=0, data=[85, 65]),
   midi.NoteOffEvent(tick=1920, channel=0, data=[85, 0]),
   midi.NoteOnEvent(tick=1920, channel=0, data=[85, 65]),
   midi.NoteOffEvent(tick=1920, channel=0, data=[85, 0]),
   midi.NoteOnEvent(tick=1920, channel=0, data=[86, 42]),
   midi.NoteOffEvent(tick=1920, channel=0, data=[86, 0]),
   midi.NoteOnEvent(tick=1920, channel=0, data=[86, 42]),
   midi.NoteOffEvent(tick=1920, channel=0, data=[86, 0]),
   midi.NoteOnEvent(tick=1920, channel=0, data=[86, 42]),
   midi.NoteOffEvent(tick=1920, channel=0, data=[86, 0]),
   midi.NoteOnEvent(tick=1920, channel=0, data=[86, 42]),
   midi.NoteOffEvent(tick=1920, channel=0, data=[86, 0]),
   midi.NoteOnEvent(tick=480, channel=0, data=[86, 113]),
   midi.NoteOffEvent(tick=480, channel=0, data=[86, 0]),
   midi.NoteOnEvent(tick=0, channel=0, data=[86, 113]),
   midi.NoteOffEvent(tick=480, channel=0, data=[86, 0]),
   midi.NoteOnEvent(tick=0, channel=0, data=[86, 113]),
   midi.NoteOffEvent(tick=480, channel=0, data=[86, 0]),
   midi.NoteOnEvent(tick=0, channel=0, data=[86, 120]),
   midi.NoteOnEvent(tick=0, channel=0, data=[83, 120]),
   midi.NoteOffEvent(tick=1920, channel=0, data=[86, 0]),
   midi.NoteOffEvent(tick=0, channel=0, data=[83, 0]),
   midi.NoteOnEvent(tick=0, channel=0, data=[86, 120]),
   midi.NoteOnEvent(tick=0, channel=0, data=[84, 120]),
   midi.NoteOffEvent(tick=1920, channel=0, data=[86, 0]),
   midi.NoteOffEvent(tick=0, channel=0, data=[84, 0]),
   midi.NoteOnEvent(tick=0, channel=0, data=[86, 120]),
   midi.NoteOnEvent(tick=0, channel=0, data=[81, 117]),
   midi.NoteOffEvent(tick=3840, channel=0, data=[86, 0]),
   midi.NoteOffEvent(tick=0, channel=0, data=[81, 0]),
   midi.NoteOnEvent(tick=0, channel=0, data=[86, 42]),
   midi.NoteOffEvent(tick=1920, channel=0, data=[86, 0]),
   midi.NoteOnEvent(tick=1920, channel=0, data=[86, 42]),
   midi.NoteOffEvent(tick=1920, channel=0, data=[86, 0]),
   midi.NoteOnEvent(tick=1920, channel=0, data=[86, 42]),
   midi.NoteOffEvent(tick=1920, channel=0, data=[86, 0]),
   midi.NoteOnEvent(tick=1920, channel=0, data=[86, 42]),
   midi.NoteOffEvent(tick=1920, channel=0, data=[86, 0]),
   midi.NoteOnEvent(tick=2400, channel=0, data=[92, 115]),
   midi.NoteOnEvent(tick=0, channel=0, data=[80, 113]),
   midi.NoteOffEvent(tick=480, channel=0, data=[92, 0]),
   midi.NoteOffEvent(tick=0, channel=0, data=[80, 0]),
   midi.NoteOnEvent(tick=0, channel=0, data=[92, 114]),
   midi.NoteOnEvent(tick=0, channel=0, data=[80, 113]),
   midi.NoteOffEvent(tick=480, channel=0, data=[92, 0]),
   midi.NoteOffEvent(tick=0, channel=0, data=[80, 0]),
   midi.NoteOnEvent(tick=0, channel=0, data=[92, 114]),
   midi.NoteOnEvent(tick=0, channel=0, data=[80, 113]),
   midi.NoteOffEvent(tick=480, channel=0, data=[92, 0]),
   midi.NoteOffEvent(tick=0, channel=0, data=[80, 0]),
   midi.NoteOnEvent(tick=0, channel=0, data=[89, 112]),
   midi.NoteOnEvent(tick=0, channel=0, data=[77, 112]),
   midi.NoteOffEvent(tick=2400, channel=0, data=[89, 0]),
   midi.NoteOffEvent(tick=0, channel=0, data=[77, 0]),
   midi.NoteOnEvent(tick=0, channel=0, data=[92, 115]),
   midi.NoteOnEvent(tick=0, channel=0, data=[80, 115]),
   midi.NoteOffEvent(tick=480, channel=0, data=[92, 0]),
   midi.NoteOffEvent(tick=0, channel=0, data=[80, 0]),
   midi.NoteOnEvent(tick=0, channel=0, data=[92, 114]),
   midi.NoteOnEvent(tick=0, channel=0, data=[80, 114]),
   midi.NoteOffEvent(tick=480, channel=0, data=[92, 0]),
   midi.NoteOffEvent(tick=0, channel=0, data=[80, 0]),
   midi.NoteOnEvent(tick=0, channel=0, data=[92, 114]),
   midi.NoteOnEvent(tick=0, channel=0, data=[80, 114]),
   midi.NoteOffEvent(tick=480, channel=0, data=[92, 0]),
   midi.NoteOffEvent(tick=0, channel=0, data=[80, 0]),
   midi.NoteOnEvent(tick=0, channel=0, data=[89, 110]),
   midi.NoteOnEvent(tick=0, channel=0, data=[77, 110]),
   midi.NoteOffEvent(tick=2400, channel=0, data=[89, 0]),
   midi.NoteOffEvent(tick=0, channel=0, data=[77, 0]),
   midi.NoteOnEvent(tick=0, channel=0, data=[92, 115]),
   midi.NoteOnEvent(tick=0, channel=0, data=[80, 115]),
   midi.NoteOffEvent(tick=480, channel=0, data=[92, 0]),
   midi.NoteOffEvent(tick=0, channel=0, data=[80, 0]),
   midi.NoteOnEvent(tick=0, channel=0, data=[92, 115]),
   midi.NoteOnEvent(tick=0, channel=0, data=[80, 115]),
   midi.NoteOffEvent(tick=480, channel=0, data=[92, 0]),
   midi.NoteOffEvent(tick=0, channel=0, data=[80, 0]),
   midi.NoteOnEvent(tick=0, channel=0, data=[92, 114]),
   midi.NoteOnEvent(tick=0, channel=0, data=[80, 114]),
   midi.NoteOffEvent(tick=480, channel=0, data=[92, 0]),
   midi.NoteOffEvent(tick=0, channel=0, data=[80, 0]),
   midi.NoteOnEvent(tick=0, channel=0, data=[89, 110]),
   midi.NoteOnEvent(tick=0, channel=0, data=[77, 110]),
   midi.NoteOffEvent(tick=480, channel=0, data=[89, 0]),
   midi.NoteOffEvent(tick=0, channel=0, data=[77, 0]),
   midi.NoteOnEvent(tick=0, channel=0, data=[92, 117]),
   midi.NoteOnEvent(tick=0, channel=0, data=[80, 117]),
   midi.NoteOffEvent(tick=480, channel=0, data=[92, 0]),
   midi.NoteOffEvent(tick=0, channel=0, data=[80, 0]),
   midi.NoteOnEvent(tick=0, channel=0, data=[92, 116]),
   midi.NoteOnEvent(tick=0, channel=0, data=[80, 116]),
   midi.NoteOffEvent(tick=480, channel=0, data=[92, 0]),
   midi.NoteOffEvent(tick=0, channel=0, data=[80, 0]),
   midi.NoteOnEvent(tick=0, channel=0, data=[92, 116]),
   midi.NoteOnEvent(tick=0, channel=0, data=[80, 116]),
   midi.NoteOffEvent(tick=480, channel=0, data=[92, 0]),
   midi.NoteOffEvent(tick=0, channel=0, data=[80, 0]),
   midi.NoteOnEvent(tick=0, channel=0, data=[89, 108]),
   midi.NoteOnEvent(tick=0, channel=0, data=[77, 108]),
   midi.NoteOffEvent(tick=480, channel=0, data=[89, 0]),
   midi.NoteOffEvent(tick=0, channel=0, data=[77, 0]),
   midi.NoteOnEvent(tick=0, channel=0, data=[92, 118]),
   midi.NoteOnEvent(tick=0, channel=0, data=[80, 118]),
   midi.NoteOffEvent(tick=480, channel=0, data=[92, 0]),
   midi.NoteOffEvent(tick=0, channel=0, data=[80, 0]),
   midi.NoteOnEvent(tick=0, channel=0, data=[92, 117]),
   midi.NoteOnEvent(tick=0, channel=0, data=[80, 117]),
   midi.NoteOffEvent(tick=480, channel=0, data=[92, 0]),
   midi.NoteOffEvent(tick=0, channel=0, data=[80, 0]),
   midi.NoteOnEvent(tick=0, channel=0, data=[92, 116]),
   midi.NoteOnEvent(tick=0, channel=0, data=[80, 116]),
   midi.NoteOffEvent(tick=480, channel=0, data=[92, 0]),
   midi.NoteOffEvent(tick=0, channel=0, data=[80, 0]),
   midi.NoteOnEvent(tick=0, channel=0, data=[89, 107]),
   midi.NoteOnEvent(tick=0, channel=0, data=[77, 107]),
   midi.NoteOffEvent(tick=480, channel=0, data=[89, 0]),
   midi.NoteOffEvent(tick=0, channel=0, data=[77, 0]),
   midi.NoteOnEvent(tick=0, channel=0, data=[91, 113]),
   midi.NoteOnEvent(tick=0, channel=0, data=[79, 113]),
   midi.NoteOffEvent(tick=480, channel=0, data=[91, 0]),
   midi.NoteOffEvent(tick=0, channel=0, data=[79, 0]),
   midi.NoteOnEvent(tick=0, channel=0, data=[91, 113]),
   midi.NoteOnEvent(tick=0, channel=0, data=[79, 113]),
   midi.NoteOffEvent(tick=480, channel=0, data=[91, 0]),
   midi.NoteOffEvent(tick=0, channel=0, data=[79, 0]),
   midi.NoteOnEvent(tick=0, channel=0, data=[91, 113]),
   midi.NoteOnEvent(tick=0, channel=0, data=[79, 113]),
   midi.NoteOffEvent(tick=480, channel=0, data=[91, 0]),
   midi.NoteOffEvent(tick=0, channel=0, data=[79, 0]),
   midi.NoteOnEvent(tick=0, channel=0, data=[91, 120]),
   midi.NoteOnEvent(tick=0, channel=0, data=[87, 127]),
   midi.NoteOffEvent(tick=3840, channel=0, data=[91, 0]),
   midi.NoteOffEvent(tick=0, channel=0, data=[87, 0]),
   midi.NoteOnEvent(tick=2400, channel=0, data=[91, 113]),
   midi.NoteOnEvent(tick=0, channel=0, data=[89, 113]),
   midi.NoteOffEvent(tick=480, channel=0, data=[91, 0]),
   midi.NoteOffEvent(tick=0, channel=0, data=[89, 0]),
   midi.NoteOnEvent(tick=0, channel=0, data=[91, 113]),
   midi.NoteOnEvent(tick=0, channel=0, data=[89, 113]),
   midi.NoteOffEvent(tick=480, channel=0, data=[91, 0]),
   midi.NoteOffEvent(tick=0, channel=0, data=[89, 0]),
   midi.NoteOnEvent(tick=0, channel=0, data=[91, 113]),
   midi.NoteOnEvent(tick=0, channel=0, data=[89, 113]),
   midi.NoteOffEvent(tick=480, channel=0, data=[91, 0]),
   midi.NoteOffEvent(tick=0, channel=0, data=[89, 0]),
   midi.NoteOnEvent(tick=0, channel=0, data=[91, 120]),
   midi.NoteOnEvent(tick=0, channel=0, data=[86, 114]),
   midi.NoteOffEvent(tick=5760, channel=0, data=[91, 0]),
   midi.NoteOffEvent(tick=0, channel=0, data=[86, 0]),
   midi.NoteOnEvent(tick=17280, channel=0, data=[77, 65]),
   midi.NoteOffEvent(tick=3840, channel=0, data=[77, 0]),
   midi.NoteOnEvent(tick=0, channel=0, data=[75, 65]),
   midi.NoteOffEvent(tick=960, channel=0, data=[75, 0]),
   midi.NoteOnEvent(tick=6720, channel=0, data=[78, 89]),
   midi.NoteOnEvent(tick=0, channel=0, data=[84, 89]),
   midi.NoteOffEvent(tick=1920, channel=0, data=[78, 0]),
   midi.NoteOffEvent(tick=0, channel=0, data=[84, 0]),
   midi.NoteOnEvent(tick=0, channel=0, data=[79, 103]),
   midi.NoteOnEvent(tick=0, channel=0, data=[83, 103]),
   midi.NoteOffEvent(tick=960, channel=0, data=[79, 0]),
   midi.NoteOffEvent(tick=0, channel=0, data=[83, 0]),
   midi.NoteOnEvent(tick=37440, channel=0, data=[84, 104]),
   midi.NoteOffEvent(tick=960, channel=0, data=[84, 0]),
   midi.NoteOnEvent(tick=960, channel=0, data=[84, 104]),
   midi.NoteOffEvent(tick=960, channel=0, data=[84, 0]),
   midi.NoteOnEvent(tick=960, channel=0, data=[84, 104]),
   midi.NoteOffEvent(tick=960, channel=0, data=[84, 0]),
   midi.NoteOnEvent(tick=960, channel=0, data=[84, 104]),
   midi.NoteOffEvent(tick=960, channel=0, data=[84, 0]),
   midi.NoteOnEvent(tick=960, channel=0, data=[86, 106]),
   midi.NoteOnEvent(tick=0, channel=0, data=[83, 104]),
   midi.NoteOffEvent(tick=960, channel=0, data=[86, 0]),
   midi.NoteOffEvent(tick=0, channel=0, data=[83, 0]),
   midi.NoteOnEvent(tick=960, channel=0, data=[87, 105]),
   midi.NoteOnEvent(tick=0, channel=0, data=[84, 104]),
   midi.NoteOffEvent(tick=7680, channel=0, data=[87, 0]),
   midi.NoteOffEvent(tick=0, channel=0, data=[84, 0]),
   midi.NoteOnEvent(tick=0, channel=0, data=[89, 104]),
   midi.NoteOnEvent(tick=0, channel=0, data=[86, 104]),
   midi.NoteOffEvent(tick=6720, channel=0, data=[89, 0]),
   midi.NoteOffEvent(tick=0, channel=0, data=[86, 0]),
   midi.NoteOnEvent(tick=0, channel=0, data=[87, 98]),
   midi.NoteOnEvent(tick=0, channel=0, data=[84, 98]),
   midi.NoteOffEvent(tick=960, channel=0, data=[87, 0]),
   midi.NoteOffEvent(tick=0, channel=0, data=[84, 0]),
   midi.NoteOnEvent(tick=0, channel=0, data=[90, 122]),
   midi.NoteOnEvent(tick=0, channel=0, data=[84, 120]),
   midi.NoteOffEvent(tick=7680, channel=0, data=[90, 0]),
   midi.NoteOffEvent(tick=0, channel=0, data=[84, 0]),
   midi.NoteOnEvent(tick=0, channel=0, data=[90, 120]),
   midi.NoteOnEvent(tick=0, channel=0, data=[84, 120]),
   midi.NoteOffEvent(tick=960, channel=0, data=[90, 0]),
   midi.NoteOffEvent(tick=0, channel=0, data=[84, 0]),
   midi.NoteOnEvent(tick=2880, channel=0, data=[91, 120]),
   midi.NoteOnEvent(tick=0, channel=0, data=[79, 118]),
   midi.NoteOffEvent(tick=960, channel=0, data=[91, 0]),
   midi.NoteOffEvent(tick=0, channel=0, data=[79, 0]),
   midi.NoteOnEvent(tick=16320, channel=0, data=[79, 65]),
   midi.NoteOnEvent(tick=960, channel=0, data=[84, 63]),
   midi.NoteOffEvent(tick=19, channel=0, data=[79, 0]),
   midi.NoteOffEvent(tick=892, channel=0, data=[84, 0]),
   midi.NoteOnEvent(tick=49, channel=0, data=[83, 66]),
   midi.NoteOffEvent(tick=960, channel=0, data=[83, 0]),
   midi.NoteOnEvent(tick=0, channel=0, data=[84, 63]),
   midi.NoteOffEvent(tick=960, channel=0, data=[84, 0]),
   midi.NoteOnEvent(tick=0, channel=0, data=[86, 68]),
   midi.NoteOffEvent(tick=960, channel=0, data=[86, 0]),
   midi.NoteOnEvent(tick=0, channel=0, data=[81, 57]),
   midi.NoteOffEvent(tick=960, channel=0, data=[81, 0]),
   midi.NoteOnEvent(tick=0, channel=0, data=[81, 62]),
   midi.NoteOnEvent(tick=960, channel=0, data=[79, 56]),
   midi.NoteOffEvent(tick=19, channel=0, data=[81, 0]),
   midi.NoteOffEvent(tick=892, channel=0, data=[79, 0]),
   midi.NoteOnEvent(tick=7729, channel=0, data=[79, 65]),
   midi.NoteOnEvent(tick=960, channel=0, data=[84, 63]),
   midi.NoteOffEvent(tick=19, channel=0, data=[79, 0]),
   midi.NoteOffEvent(tick=892, channel=0, data=[84, 0]),
   midi.NoteOnEvent(tick=49, channel=0, data=[83, 66]),
   midi.NoteOffEvent(tick=960, channel=0, data=[83, 0]),
   midi.NoteOnEvent(tick=0, channel=0, data=[84, 63]),
   midi.NoteOffEvent(tick=960, channel=0, data=[84, 0]),
   midi.NoteOnEvent(tick=0, channel=0, data=[86, 68]),
   midi.NoteOffEvent(tick=960, channel=0, data=[86, 0]),
   midi.NoteOnEvent(tick=0, channel=0, data=[81, 57]),
   midi.NoteOffEvent(tick=960, channel=0, data=[81, 0]),
   midi.NoteOnEvent(tick=0, channel=0, data=[81, 62]),
   midi.NoteOnEvent(tick=960, channel=0, data=[79, 56]),
   midi.NoteOffEvent(tick=19, channel=0, data=[81, 0]),
   midi.NoteOffEvent(tick=892, channel=0, data=[79, 0]),
   midi.NoteOnEvent(tick=3889, channel=0, data=[82, 65]),
   midi.NoteOnEvent(tick=960, channel=0, data=[84, 62]),
   midi.NoteOffEvent(tick=19, channel=0, data=[82, 0]),
   midi.NoteOffEvent(tick=892, channel=0, data=[84, 0]),
   midi.NoteOnEvent(tick=49, channel=0, data=[82, 64]),
   midi.NoteOffEvent(tick=960, channel=0, data=[82, 0]),
   midi.NoteOnEvent(tick=0, channel=0, data=[81, 59]),
   midi.NoteOffEvent(tick=960, channel=0, data=[81, 0]),
   midi.NoteOnEvent(tick=3840, channel=0, data=[84, 65]),
   midi.NoteOnEvent(tick=960, channel=0, data=[86, 62]),
   midi.NoteOffEvent(tick=19, channel=0, data=[84, 0]),
   midi.NoteOffEvent(tick=892, channel=0, data=[86, 0]),
   midi.NoteOnEvent(tick=49, channel=0, data=[84, 64]),
   midi.NoteOffEvent(tick=960, channel=0, data=[84, 0]),
   midi.NoteOnEvent(tick=0, channel=0, data=[83, 59]),
   midi.NoteOffEvent(tick=960, channel=0, data=[83, 0]),
   midi.NoteOnEvent(tick=13440, channel=0, data=[92, 89]),
   midi.NoteOnEvent(tick=960, channel=0, data=[91, 83]),
   midi.NoteOffEvent(tick=19, channel=0, data=[92, 0]),
   midi.NoteOffEvent(tick=892, channel=0, data=[91, 0]),
   midi.NoteOnEvent(tick=49, channel=0, data=[90, 87]),
   midi.NoteOffEvent(tick=960, channel=0, data=[90, 0]),
   midi.NoteOnEvent(tick=0, channel=0, data=[91, 84]),
   midi.NoteOffEvent(tick=960, channel=0, data=[91, 0]),
   midi.NoteOnEvent(tick=0, channel=0, data=[93, 93]),
   midi.NoteOnEvent(tick=960, channel=0, data=[91, 83]),
   midi.NoteOffEvent(tick=19, channel=0, data=[93, 0]),
   midi.NoteOffEvent(tick=892, channel=0, data=[91, 0]),
   midi.NoteOnEvent(tick=49, channel=0, data=[90, 86]),
   midi.NoteOffEvent(tick=960, channel=0, data=[90, 0]),
   midi.NoteOnEvent(tick=0, channel=0, data=[91, 84]),
   midi.NoteOffEvent(tick=960, channel=0, data=[91, 0]),
   midi.NoteOnEvent(tick=0, channel=0, data=[93, 93]),
   midi.NoteOnEvent(tick=960, channel=0, data=[91, 83]),
   midi.NoteOffEvent(tick=19, channel=0, data=[93, 0]),
   midi.NoteOffEvent(tick=892, channel=0, data=[91, 0]),
   midi.NoteOnEvent(tick=49, channel=0, data=[90, 86]),
   midi.NoteOffEvent(tick=960, channel=0, data=[90, 0]),
   midi.NoteOnEvent(tick=0, channel=0, data=[91, 84]),
   midi.NoteOffEvent(tick=960, channel=0, data=[91, 0]),
   midi.NoteOnEvent(tick=0, channel=0, data=[90, 87]),
   midi.NoteOffEvent(tick=960, channel=0, data=[90, 0]),
   midi.NoteOnEvent(tick=0, channel=0, data=[91, 84]),
   midi.NoteOffEvent(tick=960, channel=0, data=[91, 0]),
   midi.NoteOnEvent(tick=0, channel=0, data=[90, 87]),
   midi.NoteOffEvent(tick=960, channel=0, data=[90, 0]),
   midi.NoteOnEvent(tick=0, channel=0, data=[91, 85]),
   midi.NoteOffEvent(tick=960, channel=0, data=[91, 0]),
   midi.NoteOnEvent(tick=0, channel=0, data=[91, 121]),
   midi.NoteOnEvent(tick=0, channel=0, data=[89, 120]),
   midi.NoteOffEvent(tick=2880, channel=0, data=[91, 0]),
   midi.NoteOffEvent(tick=0, channel=0, data=[89, 0]),
   midi.NoteOnEvent(tick=0, channel=0, data=[91, 113]),
   midi.NoteOnEvent(tick=0, channel=0, data=[89, 113]),
   midi.NoteOffEvent(tick=960, channel=0, data=[91, 0]),
   midi.NoteOffEvent(tick=0, channel=0, data=[89, 0]),
   midi.NoteOnEvent(tick=0, channel=0, data=[91, 120]),
   midi.NoteOnEvent(tick=0, channel=0, data=[88, 119]),
   midi.NoteOffEvent(tick=960, channel=0, data=[91, 0]),
   midi.NoteOffEvent(tick=0, channel=0, data=[88, 0]),
   midi.NoteOnEvent(tick=960, channel=0, data=[91, 120]),
   midi.NoteOnEvent(tick=0, channel=0, data=[83, 113]),
   midi.NoteOffEvent(tick=960, channel=0, data=[91, 0]),
   midi.NoteOffEvent(tick=0, channel=0, data=[83, 0]),
   midi.NoteOnEvent(tick=960, channel=0, data=[91, 120]),
   midi.NoteOnEvent(tick=0, channel=0, data=[84, 118]),
   midi.NoteOffEvent(tick=960, channel=0, data=[91, 0]),
   midi.NoteOffEvent(tick=0, channel=0, data=[84, 0]),
   midi.NoteOnEvent(tick=960, channel=0, data=[91, 120]),
   midi.NoteOnEvent(tick=0, channel=0, data=[84, 119]),
   midi.NoteOffEvent(tick=960, channel=0, data=[91, 0]),
   midi.NoteOffEvent(tick=0, channel=0, data=[84, 0]),
   midi.NoteOnEvent(tick=960, channel=0, data=[91, 120]),
   midi.NoteOnEvent(tick=0, channel=0, data=[88, 124]),
   midi.NoteOffEvent(tick=960, channel=0, data=[91, 0]),
   midi.NoteOffEvent(tick=0, channel=0, data=[88, 0]),
   midi.NoteOnEvent(tick=960, channel=0, data=[91, 120]),
   midi.NoteOnEvent(tick=0, channel=0, data=[83, 116]),
   midi.NoteOffEvent(tick=480, channel=0, data=[91, 0]),
   midi.NoteOnEvent(tick=0, channel=0, data=[90, 111]),
   midi.NoteOffEvent(tick=480, channel=0, data=[83, 0]),
   midi.NoteOffEvent(tick=0, channel=0, data=[90, 0]),
   midi.NoteOnEvent(tick=0, channel=0, data=[91, 114]),
   midi.NoteOffEvent(tick=480, channel=0, data=[91, 0]),
   midi.NoteOnEvent(tick=0, channel=0, data=[90, 111]),
   midi.NoteOffEvent(tick=480, channel=0, data=[90, 0]),
   midi.NoteOnEvent(tick=0, channel=0, data=[91, 122]),
   midi.NoteOnEvent(tick=0, channel=0, data=[89, 125]),
   midi.NoteOffEvent(tick=3840, channel=0, data=[91, 0]),
   midi.NoteOffEvent(tick=0, channel=0, data=[89, 0]),
   midi.NoteOnEvent(tick=0, channel=0, data=[91, 120]),
   midi.NoteOnEvent(tick=0, channel=0, data=[88, 120]),
   midi.NoteOffEvent(tick=960, channel=0, data=[91, 0]),
   midi.NoteOffEvent(tick=0, channel=0, data=[88, 0]),
   midi.NoteOnEvent(tick=0, channel=0, data=[91, 113]),
   midi.NoteOnEvent(tick=0, channel=0, data=[88, 113]),
   midi.NoteOffEvent(tick=960, channel=0, data=[91, 0]),
   midi.NoteOffEvent(tick=0, channel=0, data=[88, 0]),
   midi.NoteOnEvent(tick=960, channel=0, data=[91, 113]),
   midi.NoteOnEvent(tick=0, channel=0, data=[83, 107]),
   midi.NoteOffEvent(tick=960, channel=0, data=[91, 0]),
   midi.NoteOffEvent(tick=0, channel=0, data=[83, 0]),
   midi.NoteOnEvent(tick=960, channel=0, data=[91, 113]),
   midi.NoteOnEvent(tick=0, channel=0, data=[84, 112]),
   midi.NoteOffEvent(tick=960, channel=0, data=[91, 0]),
   midi.NoteOffEvent(tick=0, channel=0, data=[84, 0]),
   midi.NoteOnEvent(tick=960, channel=0, data=[89, 111]),
   midi.NoteOnEvent(tick=0, channel=0, data=[86, 115]),
   midi.NoteOffEvent(tick=960, channel=0, data=[89, 0]),
   midi.NoteOffEvent(tick=0, channel=0, data=[86, 0]),
   midi.NoteOnEvent(tick=960, channel=0, data=[91, 114]),
   midi.NoteOnEvent(tick=0, channel=0, data=[88, 116]),
   midi.NoteOffEvent(tick=960, channel=0, data=[91, 0]),
   midi.NoteOffEvent(tick=0, channel=0, data=[88, 0]),
   midi.NoteOnEvent(tick=960, channel=0, data=[91, 114]),
   midi.NoteOnEvent(tick=0, channel=0, data=[86, 112]),
   midi.NoteOffEvent(tick=960, channel=0, data=[91, 0]),
   midi.NoteOffEvent(tick=0, channel=0, data=[86, 0]),
   midi.NoteOnEvent(tick=0, channel=0, data=[84, 109]),
   midi.NoteOffEvent(tick=480, channel=0, data=[84, 0]),
   midi.NoteOnEvent(tick=0, channel=0, data=[88, 113]),
   midi.NoteOffEvent(tick=480, channel=0, data=[88, 0]),
   midi.NoteOnEvent(tick=0, channel=0, data=[88, 113]),
   midi.NoteOffEvent(tick=480, channel=0, data=[88, 0]),
   midi.NoteOnEvent(tick=0, channel=0, data=[88, 113]),
   midi.NoteOffEvent(tick=480, channel=0, data=[88, 0]),
   midi.NoteOnEvent(tick=0, channel=0, data=[84, 106]),
   midi.NoteOffEvent(tick=480, channel=0, data=[84, 0]),
   midi.NoteOnEvent(tick=0, channel=0, data=[79, 96]),
   midi.NoteOffEvent(tick=480, channel=0, data=[79, 0]),
   midi.NoteOnEvent(tick=0, channel=0, data=[79, 96]),
   midi.NoteOffEvent(tick=480, channel=0, data=[79, 0]),
   midi.NoteOnEvent(tick=0, channel=0, data=[79, 96]),
   midi.NoteOffEvent(tick=480, channel=0, data=[79, 0]),
   midi.NoteOnEvent(tick=0, channel=0, data=[76, 102]),
   midi.NoteOffEvent(tick=480, channel=0, data=[76, 0]),
   midi.NoteOnEvent(tick=0, channel=0, data=[72, 96]),
   midi.NoteOffEvent(tick=480, channel=0, data=[72, 0]),
   midi.NoteOnEvent(tick=0, channel=0, data=[72, 96]),
   midi.NoteOffEvent(tick=480, channel=0, data=[72, 0]),
   midi.NoteOnEvent(tick=0, channel=0, data=[72, 96]),
   midi.NoteOffEvent(tick=480, channel=0, data=[72, 0]),
   midi.NoteOnEvent(tick=0, channel=0, data=[67, 102]),
   midi.NoteOffEvent(tick=2400, channel=0, data=[67, 0]),
   midi.NoteOnEvent(tick=0, channel=0, data=[88, 127]),
   midi.NoteOffEvent(tick=480, channel=0, data=[88, 0]),
   midi.NoteOnEvent(tick=0, channel=0, data=[88, 127]),
   midi.NoteOffEvent(tick=480, channel=0, data=[88, 0]),
   midi.NoteOnEvent(tick=0, channel=0, data=[88, 127]),
   midi.NoteOffEvent(tick=480, channel=0, data=[88, 0]),
   midi.NoteOnEvent(tick=0, channel=0, data=[84, 123]),
   midi.NoteOffEvent(tick=480, channel=0, data=[84, 0]),
   midi.NoteOnEvent(tick=0, channel=0, data=[79, 99]),
   midi.NoteOffEvent(tick=480, channel=0, data=[79, 0]),
   midi.NoteOnEvent(tick=0, channel=0, data=[79, 100]),
   midi.NoteOffEvent(tick=480, channel=0, data=[79, 0]),
   midi.NoteOnEvent(tick=0, channel=0, data=[79, 100]),
   midi.NoteOffEvent(tick=480, channel=0, data=[79, 0]),
   midi.NoteOnEvent(tick=0, channel=0, data=[76, 102]),
   midi.NoteOffEvent(tick=480, channel=0, data=[76, 0]),
   midi.NoteOnEvent(tick=0, channel=0, data=[72, 96]),
   midi.NoteOffEvent(tick=480, channel=0, data=[72, 0]),
   midi.NoteOnEvent(tick=0, channel=0, data=[72, 96]),
   midi.NoteOffEvent(tick=480, channel=0, data=[72, 0]),
   midi.NoteOnEvent(tick=0, channel=0, data=[72, 96]),
   midi.NoteOffEvent(tick=480, channel=0, data=[72, 0]),
   midi.NoteOnEvent(tick=0, channel=0, data=[67, 102]),
   midi.NoteOffEvent(tick=480, channel=0, data=[67, 0]),
   midi.NoteOnEvent(tick=0, channel=0, data=[79, 127]),
   midi.NoteOnEvent(tick=0, channel=0, data=[74, 113]),
   midi.NoteOffEvent(tick=480, channel=0, data=[79, 0]),
   midi.NoteOffEvent(tick=0, channel=0, data=[74, 0]),
   midi.NoteOnEvent(tick=0, channel=0, data=[79, 127]),
   midi.NoteOnEvent(tick=0, channel=0, data=[74, 113]),
   midi.NoteOffEvent(tick=480, channel=0, data=[79, 0]),
   midi.NoteOffEvent(tick=0, channel=0, data=[74, 0]),
   midi.NoteOnEvent(tick=0, channel=0, data=[79, 127]),
   midi.NoteOnEvent(tick=0, channel=0, data=[74, 113]),
   midi.NoteOffEvent(tick=480, channel=0, data=[79, 0]),
   midi.NoteOffEvent(tick=0, channel=0, data=[74, 0]),
   midi.NoteOnEvent(tick=0, channel=0, data=[79, 127]),
   midi.NoteOnEvent(tick=0, channel=0, data=[76, 125]),
   midi.NoteOffEvent(tick=960, channel=0, data=[79, 0]),
   midi.NoteOffEvent(tick=0, channel=0, data=[76, 0]),
   midi.NoteOnEvent(tick=1440, channel=0, data=[79, 120]),
   midi.NoteOnEvent(tick=0, channel=0, data=[74, 112]),
   midi.NoteOffEvent(tick=480, channel=0, data=[79, 0]),
   midi.NoteOffEvent(tick=0, channel=0, data=[74, 0]),
   midi.NoteOnEvent(tick=0, channel=0, data=[79, 118]),
   midi.NoteOnEvent(tick=0, channel=0, data=[74, 112]),
   midi.NoteOffEvent(tick=480, channel=0, data=[79, 0]),
   midi.NoteOffEvent(tick=0, channel=0, data=[74, 0]),
   midi.NoteOnEvent(tick=0, channel=0, data=[79, 117]),
   midi.NoteOnEvent(tick=0, channel=0, data=[74, 112]),
   midi.NoteOffEvent(tick=480, channel=0, data=[79, 0]),
   midi.NoteOffEvent(tick=0, channel=0, data=[74, 0]),
   midi.NoteOnEvent(tick=0, channel=0, data=[79, 122]),
   midi.NoteOnEvent(tick=0, channel=0, data=[76, 126]),
   midi.NoteOffEvent(tick=960, channel=0, data=[79, 0]),
   midi.NoteOffEvent(tick=0, channel=0, data=[76, 0]),
   midi.NoteOnEvent(tick=1440, channel=0, data=[83, 120]),
   midi.NoteOnEvent(tick=0, channel=0, data=[74, 112]),
   midi.NoteOffEvent(tick=480, channel=0, data=[83, 0]),
   midi.NoteOffEvent(tick=0, channel=0, data=[74, 0]),
   midi.NoteOnEvent(tick=0, channel=0, data=[83, 119]),
   midi.NoteOnEvent(tick=0, channel=0, data=[74, 112]),
   midi.NoteOffEvent(tick=480, channel=0, data=[83, 0]),
   midi.NoteOffEvent(tick=0, channel=0, data=[74, 0]),
   midi.NoteOnEvent(tick=0, channel=0, data=[83, 118]),
   midi.NoteOnEvent(tick=0, channel=0, data=[74, 112]),
   midi.NoteOffEvent(tick=480, channel=0, data=[83, 0]),
   midi.NoteOffEvent(tick=0, channel=0, data=[74, 0]),
   midi.NoteOnEvent(tick=0, channel=0, data=[84, 127]),
   midi.NoteOnEvent(tick=0, channel=0, data=[76, 126]),
   midi.NoteOffEvent(tick=480, channel=0, data=[84, 0]),
   midi.NoteOffEvent(tick=0, channel=0, data=[76, 0]),
   midi.NoteOnEvent(tick=0, channel=0, data=[84, 119]),
   midi.NoteOnEvent(tick=0, channel=0, data=[72, 103]),
   midi.NoteOffEvent(tick=480, channel=0, data=[84, 0]),
   midi.NoteOffEvent(tick=0, channel=0, data=[72, 0]),
   midi.NoteOnEvent(tick=0, channel=0, data=[84, 118]),
   midi.NoteOnEvent(tick=0, channel=0, data=[72, 105]),
   midi.NoteOffEvent(tick=480, channel=0, data=[84, 0]),
   midi.NoteOffEvent(tick=0, channel=0, data=[72, 0]),
   midi.NoteOnEvent(tick=0, channel=0, data=[84, 117]),
   midi.NoteOnEvent(tick=0, channel=0, data=[72, 106]),
   midi.NoteOffEvent(tick=480, channel=0, data=[84, 0]),
   midi.NoteOffEvent(tick=0, channel=0, data=[72, 0]),
   midi.NoteOnEvent(tick=0, channel=0, data=[84, 123]),
   midi.NoteOnEvent(tick=0, channel=0, data=[72, 114]),
   midi.NoteOffEvent(tick=2400, channel=0, data=[84, 0]),
   midi.NoteOffEvent(tick=0, channel=0, data=[72, 0]),
   midi.NoteOnEvent(tick=0, channel=0, data=[84, 114]),
   midi.NoteOnEvent(tick=0, channel=0, data=[72, 111]),
   midi.NoteOffEvent(tick=480, channel=0, data=[84, 0]),
   midi.NoteOffEvent(tick=0, channel=0, data=[72, 0]),
   midi.NoteOnEvent(tick=0, channel=0, data=[84, 113]),
   midi.NoteOnEvent(tick=0, channel=0, data=[72, 112]),
   midi.NoteOffEvent(tick=480, channel=0, data=[84, 0]),
   midi.NoteOffEvent(tick=0, channel=0, data=[72, 0]),
   midi.NoteOnEvent(tick=0, channel=0, data=[84, 113]),
   midi.NoteOnEvent(tick=0, channel=0, data=[72, 112]),
   midi.NoteOffEvent(tick=480, channel=0, data=[84, 0]),
   midi.NoteOffEvent(tick=0, channel=0, data=[72, 0]),
   midi.NoteOnEvent(tick=0, channel=0, data=[84, 120]),
   midi.NoteOnEvent(tick=0, channel=0, data=[72, 119]),
   midi.NoteOffEvent(tick=2400, channel=0, data=[84, 0]),
   midi.NoteOffEvent(tick=0, channel=0, data=[72, 0]),
   midi.NoteOnEvent(tick=0, channel=0, data=[84, 113]),
   midi.NoteOnEvent(tick=0, channel=0, data=[72, 113]),
   midi.NoteOffEvent(tick=480, channel=0, data=[84, 0]),
   midi.NoteOffEvent(tick=0, channel=0, data=[72, 0]),
   midi.NoteOnEvent(tick=0, channel=0, data=[84, 113]),
   midi.NoteOnEvent(tick=0, channel=0, data=[72, 113]),
   midi.NoteOffEvent(tick=480, channel=0, data=[84, 0]),
   midi.NoteOffEvent(tick=0, channel=0, data=[72, 0]),
   midi.NoteOnEvent(tick=0, channel=0, data=[84, 113]),
   midi.NoteOnEvent(tick=0, channel=0, data=[72, 113]),
   midi.NoteOffEvent(tick=480, channel=0, data=[84, 0]),
   midi.NoteOffEvent(tick=0, channel=0, data=[72, 0]),
   midi.NoteOnEvent(tick=0, channel=0, data=[84, 120]),
   midi.NoteOnEvent(tick=0, channel=0, data=[72, 120]),
   midi.NoteOffEvent(tick=2400, channel=0, data=[84, 0]),
   midi.NoteOffEvent(tick=0, channel=0, data=[72, 0]),
   midi.NoteOnEvent(tick=0, channel=0, data=[84, 113]),
   midi.NoteOnEvent(tick=0, channel=0, data=[72, 113]),
   midi.NoteOffEvent(tick=480, channel=0, data=[84, 0]),
   midi.NoteOffEvent(tick=0, channel=0, data=[72, 0]),
   midi.NoteOnEvent(tick=0, channel=0, data=[84, 113]),
   midi.NoteOnEvent(tick=0, channel=0, data=[72, 113]),
   midi.NoteOffEvent(tick=480, channel=0, data=[84, 0]),
   midi.NoteOffEvent(tick=0, channel=0, data=[72, 0]),
   midi.NoteOnEvent(tick=0, channel=0, data=[84, 113]),
   midi.NoteOnEvent(tick=0, channel=0, data=[72, 113]),
   midi.NoteOffEvent(tick=480, channel=0, data=[84, 0]),
   midi.NoteOffEvent(tick=0, channel=0, data=[72, 0]),
   midi.NoteOnEvent(tick=0, channel=0, data=[84, 120]),
   midi.NoteOnEvent(tick=0, channel=0, data=[72, 120]),
   midi.NoteOffEvent(tick=1920, channel=0, data=[84, 0]),
   midi.NoteOffEvent(tick=0, channel=0, data=[72, 0]),
   midi.NoteOnEvent(tick=0, channel=0, data=[85, 122]),
   midi.NoteOnEvent(tick=0, channel=0, data=[80, 127]),
   midi.NoteOffEvent(tick=7680, channel=0, data=[85, 0]),
   midi.NoteOffEvent(tick=0, channel=0, data=[80, 0]),
   midi.NoteOnEvent(tick=0, channel=0, data=[85, 120]),
   midi.NoteOnEvent(tick=0, channel=0, data=[80, 120]),
   midi.NoteOffEvent(tick=960, channel=0, data=[85, 0]),
   midi.NoteOffEvent(tick=0, channel=0, data=[80, 0]),
   midi.NoteOnEvent(tick=7200, channel=0, data=[87, 113]),
   midi.NoteOnEvent(tick=0, channel=0, data=[84, 113]),
   midi.NoteOffEvent(tick=480, channel=0, data=[87, 0]),
   midi.NoteOffEvent(tick=0, channel=0, data=[84, 0]),
   midi.NoteOnEvent(tick=0, channel=0, data=[87, 113]),
   midi.NoteOnEvent(tick=0, channel=0, data=[84, 113]),
   midi.NoteOffEvent(tick=480, channel=0, data=[87, 0]),
   midi.NoteOffEvent(tick=0, channel=0, data=[84, 0]),
   midi.NoteOnEvent(tick=0, channel=0, data=[87, 113]),
   midi.NoteOnEvent(tick=0, channel=0, data=[84, 113]),
   midi.NoteOffEvent(tick=480, channel=0, data=[87, 0]),
   midi.NoteOffEvent(tick=0, channel=0, data=[84, 0]),
   midi.NoteOnEvent(tick=0, channel=0, data=[87, 120]),
   midi.NoteOnEvent(tick=0, channel=0, data=[84, 120]),
   midi.NoteOffEvent(tick=7680, channel=0, data=[87, 0]),
   midi.NoteOffEvent(tick=0, channel=0, data=[84, 0]),
   midi.NoteOnEvent(tick=0, channel=0, data=[87, 120]),
   midi.NoteOnEvent(tick=0, channel=0, data=[84, 120]),
   midi.NoteOffEvent(tick=960, channel=0, data=[87, 0]),
   midi.NoteOffEvent(tick=0, channel=0, data=[84, 0]),
   midi.NoteOnEvent(tick=1440, channel=0, data=[84, 111]),
   midi.NoteOffEvent(tick=480, channel=0, data=[84, 0]),
   midi.NoteOnEvent(tick=0, channel=0, data=[84, 112]),
   midi.NoteOffEvent(tick=480, channel=0, data=[84, 0]),
   midi.NoteOnEvent(tick=0, channel=0, data=[84, 112]),
   midi.NoteOffEvent(tick=480, channel=0, data=[84, 0]),
   midi.NoteOnEvent(tick=0, channel=0, data=[87, 127]),
   midi.NoteOffEvent(tick=960, channel=0, data=[87, 0]),
   midi.NoteOnEvent(tick=6720, channel=0, data=[89, 120]),
   midi.NoteOnEvent(tick=0, channel=0, data=[83, 120]),
   midi.NoteOffEvent(tick=3840, channel=0, data=[89, 0]),
   midi.NoteOffEvent(tick=0, channel=0, data=[83, 0]),
   midi.NoteOnEvent(tick=3840, channel=0, data=[89, 120]),
   midi.NoteOnEvent(tick=0, channel=0, data=[83, 120]),
   midi.NoteOffEvent(tick=3840, channel=0, data=[89, 0]),
   midi.NoteOffEvent(tick=0, channel=0, data=[83, 0]),
   midi.NoteOnEvent(tick=3840, channel=0, data=[87, 120]),
   midi.NoteOffEvent(tick=960, channel=0, data=[87, 0]),
   midi.NoteOnEvent(tick=0, channel=0, data=[89, 115]),
   midi.NoteOffEvent(tick=960, channel=0, data=[89, 0]),
   midi.NoteOnEvent(tick=0, channel=0, data=[86, 117]),
   midi.NoteOffEvent(tick=960, channel=0, data=[86, 0]),
   midi.NoteOnEvent(tick=0, channel=0, data=[87, 113]),
   midi.NoteOffEvent(tick=960, channel=0, data=[87, 0]),
   midi.NoteOnEvent(tick=0, channel=0, data=[84, 113]),
   midi.NoteOffEvent(tick=960, channel=0, data=[84, 0]),
   midi.NoteOnEvent(tick=0, channel=0, data=[86, 113]),
   midi.NoteOffEvent(tick=960, channel=0, data=[86, 0]),
   midi.NoteOnEvent(tick=0, channel=0, data=[82, 109]),
   midi.NoteOffEvent(tick=960, channel=0, data=[82, 0]),
   midi.NoteOnEvent(tick=0, channel=0, data=[84, 111]),
   midi.NoteOffEvent(tick=960, channel=0, data=[84, 0]),
   midi.NoteOnEvent(tick=0, channel=0, data=[80, 108]),
   midi.NoteOffEvent(tick=960, channel=0, data=[80, 0]),
   midi.NoteOnEvent(tick=0, channel=0, data=[82, 111]),
   midi.NoteOffEvent(tick=960, channel=0, data=[82, 0]),
   midi.NoteOnEvent(tick=0, channel=0, data=[79, 111]),
   midi.NoteOffEvent(tick=960, channel=0, data=[79, 0]),
   midi.NoteOnEvent(tick=0, channel=0, data=[80, 110]),
   midi.NoteOffEvent(tick=960, channel=0, data=[80, 0]),
   midi.NoteOnEvent(tick=0, channel=0, data=[77, 110]),
   midi.NoteOffEvent(tick=960, channel=0, data=[77, 0]),
   midi.NoteOnEvent(tick=0, channel=0, data=[79, 112]),
   midi.NoteOffEvent(tick=960, channel=0, data=[79, 0]),
   midi.NoteOnEvent(tick=0, channel=0, data=[79, 120]),
   midi.NoteOffEvent(tick=960, channel=0, data=[79, 0]),
   midi.NoteOnEvent(tick=0, channel=0, data=[79, 113]),
   midi.NoteOffEvent(tick=960, channel=0, data=[79, 0]),
   midi.NoteOnEvent(tick=0, channel=0, data=[79, 120]),
   midi.NoteOffEvent(tick=960, channel=0, data=[79, 0]),
   midi.NoteOnEvent(tick=0, channel=0, data=[79, 113]),
   midi.NoteOffEvent(tick=960, channel=0, data=[79, 0]),
   midi.NoteOnEvent(tick=0, channel=0, data=[79, 120]),
   midi.NoteOffEvent(tick=960, channel=0, data=[79, 0]),
   midi.NoteOnEvent(tick=0, channel=0, data=[84, 125]),
   midi.NoteOffEvent(tick=960, channel=0, data=[84, 0]),
   midi.NoteOnEvent(tick=0, channel=0, data=[84, 127]),
   midi.NoteOffEvent(tick=960, channel=0, data=[84, 0]),
   midi.NoteOnEvent(tick=0, channel=0, data=[84, 119]),
   midi.NoteOffEvent(tick=960, channel=0, data=[84, 0]),
   midi.NoteOnEvent(tick=0, channel=0, data=[84, 123]),
   midi.NoteOffEvent(tick=960, channel=0, data=[84, 0]),
   midi.NoteOnEvent(tick=0, channel=0, data=[89, 126]),
   midi.NoteOnEvent(tick=0, channel=0, data=[83, 113]),
   midi.NoteOffEvent(tick=960, channel=0, data=[89, 0]),
   midi.NoteOffEvent(tick=0, channel=0, data=[83, 0]),
   midi.NoteOnEvent(tick=0, channel=0, data=[89, 127]),
   midi.NoteOnEvent(tick=0, channel=0, data=[84, 121]),
   midi.NoteOffEvent(tick=960, channel=0, data=[89, 0]),
   midi.NoteOffEvent(tick=0, channel=0, data=[84, 0]),
   midi.NoteOnEvent(tick=0, channel=0, data=[89, 119]),
   midi.NoteOnEvent(tick=0, channel=0, data=[83, 112]),
   midi.NoteOffEvent(tick=960, channel=0, data=[89, 0]),
   midi.NoteOffEvent(tick=0, channel=0, data=[83, 0]),
   midi.NoteOnEvent(tick=0, channel=0, data=[89, 124]),
   midi.NoteOnEvent(tick=0, channel=0, data=[84, 121]),
   midi.NoteOffEvent(tick=960, channel=0, data=[89, 0]),
   midi.NoteOffEvent(tick=0, channel=0, data=[84, 0]),
   midi.NoteOnEvent(tick=0, channel=0, data=[89, 115]),
   midi.NoteOnEvent(tick=0, channel=0, data=[86, 118]),
   midi.NoteOffEvent(tick=960, channel=0, data=[89, 0]),
   midi.NoteOffEvent(tick=0, channel=0, data=[86, 0]),
   midi.NoteOnEvent(tick=0, channel=0, data=[87, 115]),
   midi.NoteOnEvent(tick=0, channel=0, data=[84, 119]),
   midi.NoteOffEvent(tick=3840, channel=0, data=[87, 0]),
   midi.NoteOffEvent(tick=0, channel=0, data=[84, 0]),
   midi.NoteOnEvent(tick=0, channel=0, data=[89, 120]),
   midi.NoteOnEvent(tick=0, channel=0, data=[84, 119]),
   midi.NoteOffEvent(tick=3840, channel=0, data=[89, 0]),
   midi.NoteOffEvent(tick=0, channel=0, data=[84, 0]),
   midi.NoteOnEvent(tick=0, channel=0, data=[91, 121]),
   midi.NoteOnEvent(tick=0, channel=0, data=[84, 120]),
   midi.NoteOffEvent(tick=3840, channel=0, data=[91, 0]),
   midi.NoteOffEvent(tick=0, channel=0, data=[84, 0]),
   midi.NoteOnEvent(tick=0, channel=0, data=[89, 119]),
   midi.NoteOnEvent(tick=0, channel=0, data=[84, 120]),
   midi.NoteOffEvent(tick=3840, channel=0, data=[89, 0]),
   midi.NoteOffEvent(tick=0, channel=0, data=[84, 0]),
   midi.NoteOnEvent(tick=0, channel=0, data=[89, 120]),
   midi.NoteOnEvent(tick=0, channel=0, data=[86, 121]),
   midi.NoteOffEvent(tick=1920, channel=0, data=[89, 0]),
   midi.NoteOffEvent(tick=0, channel=0, data=[86, 0]),
   midi.NoteOnEvent(tick=0, channel=0, data=[91, 121]),
   midi.NoteOnEvent(tick=0, channel=0, data=[86, 120]),
   midi.NoteOffEvent(tick=1920, channel=0, data=[91, 0]),
   midi.NoteOffEvent(tick=0, channel=0, data=[86, 0]),
   midi.NoteOnEvent(tick=0, channel=0, data=[91, 121]),
   midi.NoteOnEvent(tick=0, channel=0, data=[87, 121]),
   midi.NoteOffEvent(tick=480, channel=0, data=[91, 0]),
   midi.NoteOffEvent(tick=0, channel=0, data=[87, 0]),
   midi.NoteOnEvent(tick=1440, channel=0, data=[92, 121]),
   midi.NoteOnEvent(tick=0, channel=0, data=[87, 120]),
   midi.NoteOffEvent(tick=480, channel=0, data=[92, 0]),
   midi.NoteOffEvent(tick=0, channel=0, data=[87, 0]),
   midi.NoteOnEvent(tick=1440, channel=0, data=[92, 120]),
   midi.NoteOnEvent(tick=0, channel=0, data=[86, 119]),
   midi.NoteOffEvent(tick=480, channel=0, data=[92, 0]),
   midi.NoteOffEvent(tick=0, channel=0, data=[86, 0]),
   midi.NoteOnEvent(tick=1440, channel=0, data=[92, 120]),
   midi.NoteOnEvent(tick=0, channel=0, data=[86, 119]),
   midi.NoteOffEvent(tick=480, channel=0, data=[92, 0]),
   midi.NoteOffEvent(tick=0, channel=0, data=[86, 0]),
   midi.NoteOnEvent(tick=1440, channel=0, data=[91, 119]),
   midi.NoteOnEvent(tick=0, channel=0, data=[86, 120]),
   midi.NoteOffEvent(tick=480, channel=0, data=[91, 0]),
   midi.NoteOffEvent(tick=0, channel=0, data=[86, 0]),
   midi.NoteOnEvent(tick=1440, channel=0, data=[91, 119]),
   midi.NoteOnEvent(tick=0, channel=0, data=[86, 120]),
   midi.NoteOffEvent(tick=480, channel=0, data=[91, 0]),
   midi.NoteOffEvent(tick=0, channel=0, data=[86, 0]),
   midi.NoteOnEvent(tick=1440, channel=0, data=[84, 112]),
   midi.NoteOffEvent(tick=1920, channel=0, data=[84, 0]),
   midi.NoteOnEvent(tick=0, channel=0, data=[86, 119]),
   midi.NoteOffEvent(tick=480, channel=0, data=[86, 0]),
   midi.NoteOnEvent(tick=480, channel=0, data=[87, 114]),
   midi.NoteOffEvent(tick=480, channel=0, data=[87, 0]),
   midi.NoteOnEvent(tick=480, channel=0, data=[89, 125]),
   midi.NoteOnEvent(tick=960, channel=0, data=[86, 110]),
   midi.NoteOffEvent(tick=19, channel=0, data=[89, 0]),
   midi.NoteOffEvent(tick=892, channel=0, data=[86, 0]),
   midi.NoteOnEvent(tick=3889, channel=0, data=[89, 121]),
   midi.NoteOnEvent(tick=0, channel=0, data=[77, 120]),
   midi.NoteOffEvent(tick=480, channel=0, data=[89, 0]),
   midi.NoteOffEvent(tick=0, channel=0, data=[77, 0]),
   midi.NoteOnEvent(tick=480, channel=0, data=[91, 115]),
   midi.NoteOnEvent(tick=0, channel=0, data=[79, 115]),
   midi.NoteOffEvent(tick=480, channel=0, data=[91, 0]),
   midi.NoteOffEvent(tick=0, channel=0, data=[79, 0]),
   midi.NoteOnEvent(tick=480, channel=0, data=[92, 123]),
   midi.NoteOnEvent(tick=0, channel=0, data=[80, 123]),
   midi.NoteOnEvent(tick=960, channel=0, data=[89, 109]),
   midi.NoteOnEvent(tick=0, channel=0, data=[77, 109]),
   midi.NoteOffEvent(tick=38, channel=0, data=[92, 0]),
   midi.NoteOffEvent(tick=0, channel=0, data=[80, 0]),
   midi.NoteOffEvent(tick=825, channel=0, data=[89, 0]),
   midi.NoteOffEvent(tick=0, channel=0, data=[77, 0]),
   midi.NoteOnEvent(tick=3937, channel=0, data=[84, 117]),
   midi.NoteOnEvent(tick=0, channel=0, data=[81, 121]),
   midi.NoteOffEvent(tick=480, channel=0, data=[84, 0]),
   midi.NoteOffEvent(tick=0, channel=0, data=[81, 0]),
   midi.NoteOnEvent(tick=480, channel=0, data=[86, 114]),
   midi.NoteOnEvent(tick=0, channel=0, data=[83, 116]),
   midi.NoteOffEvent(tick=480, channel=0, data=[86, 0]),
   midi.NoteOffEvent(tick=0, channel=0, data=[83, 0]),
   midi.NoteOnEvent(tick=480, channel=0, data=[87, 122]),
   midi.NoteOnEvent(tick=0, channel=0, data=[84, 123]),
   midi.NoteOffEvent(tick=960, channel=0, data=[84, 0]),
   midi.NoteOnEvent(tick=0, channel=0, data=[84, 109]),
   midi.NoteOnEvent(tick=0, channel=0, data=[79, 106]),
   midi.NoteOffEvent(tick=38, channel=0, data=[87, 0]),
   midi.NoteOffEvent(tick=825, channel=0, data=[84, 0]),
   midi.NoteOffEvent(tick=0, channel=0, data=[79, 0]),
   midi.NoteOnEvent(tick=3937, channel=0, data=[84, 119]),
   midi.NoteOnEvent(tick=0, channel=0, data=[81, 120]),
   midi.NoteOffEvent(tick=480, channel=0, data=[84, 0]),
   midi.NoteOffEvent(tick=0, channel=0, data=[81, 0]),
   midi.NoteOnEvent(tick=480, channel=0, data=[86, 115]),
   midi.NoteOnEvent(tick=0, channel=0, data=[83, 115]),
   midi.NoteOffEvent(tick=480, channel=0, data=[86, 0]),
   midi.NoteOffEvent(tick=0, channel=0, data=[83, 0]),
   midi.NoteOnEvent(tick=480, channel=0, data=[87, 123]),
   midi.NoteOnEvent(tick=0, channel=0, data=[84, 123]),
   midi.NoteOnEvent(tick=960, channel=0, data=[86, 113]),
   midi.NoteOnEvent(tick=0, channel=0, data=[82, 111]),
   midi.NoteOffEvent(tick=38, channel=0, data=[87, 0]),
   midi.NoteOffEvent(tick=0, channel=0, data=[84, 0]),
   midi.NoteOffEvent(tick=825, channel=0, data=[86, 0]),
   midi.NoteOffEvent(tick=0, channel=0, data=[82, 0]),
   midi.NoteOnEvent(tick=97, channel=0, data=[84, 115]),
   midi.NoteOnEvent(tick=0, channel=0, data=[80, 114]),
   midi.NoteOffEvent(tick=960, channel=0, data=[84, 0]),
   midi.NoteOffEvent(tick=0, channel=0, data=[80, 0]),
   midi.NoteOnEvent(tick=0, channel=0, data=[82, 105]),
   midi.NoteOnEvent(tick=0, channel=0, data=[79, 106]),
   midi.NoteOffEvent(tick=960, channel=0, data=[82, 0]),
   midi.NoteOffEvent(tick=0, channel=0, data=[79, 0]),
   midi.NoteOnEvent(tick=0, channel=0, data=[80, 109]),
   midi.NoteOnEvent(tick=0, channel=0, data=[77, 110]),
   midi.NoteOffEvent(tick=960, channel=0, data=[80, 0]),
   midi.NoteOffEvent(tick=0, channel=0, data=[77, 0]),
   midi.NoteOnEvent(tick=0, channel=0, data=[79, 103]),
   midi.NoteOnEvent(tick=0, channel=0, data=[75, 102]),
   midi.NoteOffEvent(tick=960, channel=0, data=[79, 0]),
   midi.NoteOffEvent(tick=0, channel=0, data=[75, 0]),
   midi.NoteOnEvent(tick=1920, channel=0, data=[80, 103]),
   midi.NoteOnEvent(tick=0, channel=0, data=[77, 103]),
   midi.NoteOnEvent(tick=960, channel=0, data=[79, 96]),
   midi.NoteOnEvent(tick=0, channel=0, data=[75, 95]),
   midi.NoteOffEvent(tick=38, channel=0, data=[80, 0]),
   midi.NoteOffEvent(tick=0, channel=0, data=[77, 0]),
   midi.NoteOffEvent(tick=825, channel=0, data=[79, 0]),
   midi.NoteOffEvent(tick=0, channel=0, data=[75, 0]),
   midi.NoteOnEvent(tick=97, channel=0, data=[92, 119]),
   midi.NoteOnEvent(tick=0, channel=0, data=[89, 119]),
   midi.NoteOnEvent(tick=960, channel=0, data=[91, 109]),
   midi.NoteOnEvent(tick=0, channel=0, data=[87, 108]),
   midi.NoteOffEvent(tick=38, channel=0, data=[92, 0]),
   midi.NoteOffEvent(tick=0, channel=0, data=[89, 0]),
   midi.NoteOffEvent(tick=825, channel=0, data=[91, 0]),
   midi.NoteOffEvent(tick=0, channel=0, data=[87, 0]),
   midi.NoteOnEvent(tick=1057, channel=0, data=[84, 103]),
   midi.NoteOnEvent(tick=0, channel=0, data=[91, 103]),
   midi.NoteOffEvent(tick=960, channel=0, data=[84, 0]),
   midi.NoteOffEvent(tick=0, channel=0, data=[91, 0]),
   midi.NoteOnEvent(tick=960, channel=0, data=[86, 99]),
   midi.NoteOnEvent(tick=0, channel=0, data=[91, 99]),
   midi.NoteOffEvent(tick=960, channel=0, data=[86, 0]),
   midi.NoteOffEvent(tick=0, channel=0, data=[91, 0]),
   midi.NoteOnEvent(tick=5760, channel=0, data=[80, 103]),
   midi.NoteOnEvent(tick=960, channel=0, data=[79, 97]),
   midi.NoteOffEvent(tick=19, channel=0, data=[80, 0]),
   midi.NoteOffEvent(tick=892, channel=0, data=[79, 0]),
   midi.NoteOnEvent(tick=1969, channel=0, data=[92, 112]),
   midi.NoteOnEvent(tick=0, channel=0, data=[89, 104]),
   midi.NoteOnEvent(tick=960, channel=0, data=[91, 102]),
   midi.NoteOnEvent(tick=0, channel=0, data=[87, 96]),
   midi.NoteOffEvent(tick=38, channel=0, data=[92, 0]),
   midi.NoteOffEvent(tick=0, channel=0, data=[89, 0]),
   midi.NoteOffEvent(tick=825, channel=0, data=[91, 0]),
   midi.NoteOffEvent(tick=0, channel=0, data=[87, 0]),
   midi.NoteOnEvent(tick=1057, channel=0, data=[87, 99]),
   midi.NoteOnEvent(tick=0, channel=0, data=[91, 99]),
   midi.NoteOffEvent(tick=960, channel=0, data=[87, 0]),
   midi.NoteOffEvent(tick=0, channel=0, data=[91, 0]),
   midi.NoteOnEvent(tick=960, channel=0, data=[86, 98]),
   midi.NoteOnEvent(tick=0, channel=0, data=[91, 98]),
   midi.NoteOffEvent(tick=960, channel=0, data=[86, 0]),
   midi.NoteOffEvent(tick=0, channel=0, data=[91, 0]),
   midi.NoteOnEvent(tick=0, channel=0, data=[84, 93]),
   midi.NoteOffEvent(tick=960, channel=0, data=[84, 0]),
   midi.NoteOnEvent(tick=1440, channel=0, data=[91, 101]),
   midi.NoteOnEvent(tick=0, channel=0, data=[86, 98]),
   midi.NoteOffEvent(tick=480, channel=0, data=[91, 0]),
   midi.NoteOffEvent(tick=0, channel=0, data=[86, 0]),
   midi.NoteOnEvent(tick=0, channel=0, data=[91, 101]),
   midi.NoteOnEvent(tick=0, channel=0, data=[86, 98]),
   midi.NoteOffEvent(tick=480, channel=0, data=[91, 0]),
   midi.NoteOffEvent(tick=0, channel=0, data=[86, 0]),
   midi.NoteOnEvent(tick=0, channel=0, data=[91, 100]),
   midi.NoteOnEvent(tick=0, channel=0, data=[86, 98]),
   midi.NoteOffEvent(tick=480, channel=0, data=[91, 0]),
   midi.NoteOffEvent(tick=0, channel=0, data=[86, 0]),
   midi.NoteOnEvent(tick=0, channel=0, data=[91, 106]),
   midi.NoteOnEvent(tick=0, channel=0, data=[86, 104]),
   midi.NoteOffEvent(tick=2880, channel=0, data=[86, 0]),
   midi.NoteOnEvent(tick=0, channel=0, data=[87, 99]),
   midi.NoteOnEvent(tick=960, channel=0, data=[89, 108]),
   midi.NoteOffEvent(tick=19, channel=0, data=[87, 0]),
   midi.NoteOffEvent(tick=892, channel=0, data=[89, 0]),
   midi.NoteOnEvent(tick=49, channel=0, data=[86, 95]),
   midi.NoteOffEvent(tick=960, channel=0, data=[86, 0]),
   midi.NoteOnEvent(tick=0, channel=0, data=[87, 104]),
   midi.NoteOffEvent(tick=960, channel=0, data=[87, 0]),
   midi.NoteOnEvent(tick=0, channel=0, data=[89, 102]),
   midi.NoteOffEvent(tick=960, channel=0, data=[91, 0]),
   midi.NoteOffEvent(tick=0, channel=0, data=[89, 0]),
   midi.NoteOnEvent(tick=0, channel=0, data=[91, 104]),
   midi.NoteOnEvent(tick=0, channel=0, data=[87, 102]),
   midi.NoteOffEvent(tick=960, channel=0, data=[91, 0]),
   midi.NoteOffEvent(tick=0, channel=0, data=[87, 0]),
   midi.NoteOnEvent(tick=1440, channel=0, data=[91, 98]),
   midi.NoteOnEvent(tick=0, channel=0, data=[79, 88]),
   midi.NoteOffEvent(tick=480, channel=0, data=[91, 0]),
   midi.NoteOffEvent(tick=0, channel=0, data=[79, 0]),
   midi.NoteOnEvent(tick=0, channel=0, data=[91, 98]),
   midi.NoteOnEvent(tick=0, channel=0, data=[79, 89]),
   midi.NoteOffEvent(tick=480, channel=0, data=[91, 0]),
   midi.NoteOffEvent(tick=0, channel=0, data=[79, 0]),
   midi.NoteOnEvent(tick=0, channel=0, data=[91, 98]),
   midi.NoteOnEvent(tick=0, channel=0, data=[79, 91]),
   midi.NoteOffEvent(tick=480, channel=0, data=[91, 0]),
   midi.NoteOffEvent(tick=0, channel=0, data=[79, 0]),
   midi.NoteOnEvent(tick=0, channel=0, data=[91, 104]),
   midi.NoteOnEvent(tick=0, channel=0, data=[79, 98]),
   midi.NoteOffEvent(tick=480, channel=0, data=[91, 0]),
   midi.NoteOffEvent(tick=0, channel=0, data=[79, 0]),
   midi.NoteOnEvent(tick=0, channel=0, data=[91, 98]),
   midi.NoteOnEvent(tick=0, channel=0, data=[79, 94]),
   midi.NoteOffEvent(tick=480, channel=0, data=[91, 0]),
   midi.NoteOffEvent(tick=0, channel=0, data=[79, 0]),
   midi.NoteOnEvent(tick=0, channel=0, data=[91, 98]),
   midi.NoteOnEvent(tick=0, channel=0, data=[79, 95]),
   midi.NoteOffEvent(tick=480, channel=0, data=[91, 0]),
   midi.NoteOffEvent(tick=0, channel=0, data=[79, 0]),
   midi.NoteOnEvent(tick=0, channel=0, data=[91, 98]),
   midi.NoteOnEvent(tick=0, channel=0, data=[79, 96]),
   midi.NoteOffEvent(tick=480, channel=0, data=[91, 0]),
   midi.NoteOffEvent(tick=0, channel=0, data=[79, 0]),
   midi.NoteOnEvent(tick=0, channel=0, data=[91, 104]),
   midi.NoteOnEvent(tick=0, channel=0, data=[79, 102]),
   midi.NoteOffEvent(tick=480, channel=0, data=[91, 0]),
   midi.NoteOffEvent(tick=0, channel=0, data=[79, 0]),
   midi.NoteOnEvent(tick=0, channel=0, data=[91, 98]),
   midi.NoteOnEvent(tick=0, channel=0, data=[79, 97]),
   midi.NoteOffEvent(tick=480, channel=0, data=[91, 0]),
   midi.NoteOffEvent(tick=0, channel=0, data=[79, 0]),
   midi.NoteOnEvent(tick=0, channel=0, data=[91, 98]),
   midi.NoteOnEvent(tick=0, channel=0, data=[79, 97]),
   midi.NoteOffEvent(tick=480, channel=0, data=[91, 0]),
   midi.NoteOffEvent(tick=0, channel=0, data=[79, 0]),
   midi.NoteOnEvent(tick=0, channel=0, data=[91, 98]),
   midi.NoteOnEvent(tick=0, channel=0, data=[79, 98]),
   midi.NoteOffEvent(tick=480, channel=0, data=[91, 0]),
   midi.NoteOffEvent(tick=0, channel=0, data=[79, 0]),
   midi.NoteOnEvent(tick=0, channel=0, data=[91, 120]),
   midi.NoteOnEvent(tick=0, channel=0, data=[87, 127]),
   midi.NoteOffEvent(tick=3840, channel=0, data=[91, 0]),
   midi.NoteOffEvent(tick=0, channel=0, data=[87, 0]),
   midi.NoteOnEvent(tick=480, channel=0, data=[91, 113]),
   midi.NoteOnEvent(tick=0, channel=0, data=[89, 120]),
   midi.NoteOffEvent(tick=480, channel=0, data=[91, 0]),
   midi.NoteOffEvent(tick=0, channel=0, data=[89, 0]),
   midi.NoteOnEvent(tick=0, channel=0, data=[91, 113]),
   midi.NoteOnEvent(tick=0, channel=0, data=[89, 118]),
   midi.NoteOffEvent(tick=480, channel=0, data=[91, 0]),
   midi.NoteOffEvent(tick=0, channel=0, data=[89, 0]),
   midi.NoteOnEvent(tick=0, channel=0, data=[91, 113]),
   midi.NoteOnEvent(tick=0, channel=0, data=[89, 116]),
   midi.NoteOffEvent(tick=480, channel=0, data=[91, 0]),
   midi.NoteOffEvent(tick=0, channel=0, data=[89, 0]),
   midi.NoteOnEvent(tick=0, channel=0, data=[91, 120]),
   midi.NoteOnEvent(tick=0, channel=0, data=[86, 113]),
   midi.NoteOffEvent(tick=7680, channel=0, data=[91, 0]),
   midi.NoteOffEvent(tick=0, channel=0, data=[86, 0]),
   midi.NoteOnEvent(tick=15840, channel=0, data=[86, 113]),
   midi.NoteOffEvent(tick=480, channel=0, data=[86, 0]),
   midi.NoteOnEvent(tick=0, channel=0, data=[86, 113]),
   midi.NoteOffEvent(tick=480, channel=0, data=[86, 0]),
   midi.NoteOnEvent(tick=0, channel=0, data=[86, 113]),
   midi.NoteOffEvent(tick=480, channel=0, data=[86, 0]),
   midi.NoteOnEvent(tick=0, channel=0, data=[87, 122]),
   midi.NoteOffEvent(tick=960, channel=0, data=[87, 0]),
   midi.NoteOnEvent(tick=1440, channel=0, data=[86, 112]),
   midi.NoteOffEvent(tick=480, channel=0, data=[86, 0]),
   midi.NoteOnEvent(tick=0, channel=0, data=[86, 113]),
   midi.NoteOffEvent(tick=480, channel=0, data=[86, 0]),
   midi.NoteOnEvent(tick=0, channel=0, data=[86, 113]),
   midi.NoteOffEvent(tick=480, channel=0, data=[86, 0]),
   midi.NoteOnEvent(tick=0, channel=0, data=[87, 123]),
   midi.NoteOffEvent(tick=960, channel=0, data=[87, 0]),
   midi.NoteOnEvent(tick=1440, channel=0, data=[86, 112]),
   midi.NoteOffEvent(tick=480, channel=0, data=[86, 0]),
   midi.NoteOnEvent(tick=0, channel=0, data=[86, 113]),
   midi.NoteOffEvent(tick=480, channel=0, data=[86, 0]),
   midi.NoteOnEvent(tick=0, channel=0, data=[86, 113]),
   midi.NoteOffEvent(tick=480, channel=0, data=[86, 0]),
   midi.NoteOnEvent(tick=0, channel=0, data=[87, 123]),
   midi.NoteOffEvent(tick=960, channel=0, data=[87, 0]),
   midi.NoteOnEvent(tick=0, channel=0, data=[91, 126]),
   midi.NoteOffEvent(tick=960, channel=0, data=[91, 0]),
   midi.NoteOnEvent(tick=0, channel=0, data=[91, 127]),
   midi.NoteOffEvent(tick=960, channel=0, data=[91, 0]),
   midi.NoteOnEvent(tick=0, channel=0, data=[91, 120]),
   midi.NoteOffEvent(tick=960, channel=0, data=[91, 0]),
   midi.NoteOnEvent(tick=0, channel=0, data=[91, 124]),
   midi.NoteOffEvent(tick=960, channel=0, data=[91, 0]),
   midi.NoteOnEvent(tick=0, channel=0, data=[91, 116]),
   midi.NoteOffEvent(tick=960, channel=0, data=[91, 0]),
   midi.NoteOnEvent(tick=0, channel=0, data=[91, 121]),
   midi.NoteOffEvent(tick=960, channel=0, data=[91, 0]),
   midi.NoteOnEvent(tick=0, channel=0, data=[91, 113]),
   midi.NoteOffEvent(tick=960, channel=0, data=[91, 0]),
   midi.NoteOnEvent(tick=0, channel=0, data=[91, 120]),
   midi.NoteOffEvent(tick=960, channel=0, data=[91, 0]),
   midi.NoteOnEvent(tick=960, channel=0, data=[83, 106]),
   midi.NoteOffEvent(tick=960, channel=0, data=[83, 0]),
   midi.NoteOnEvent(tick=960, channel=0, data=[84, 115]),
   midi.NoteOffEvent(tick=960, channel=0, data=[84, 0]),
   midi.EndOfTrackEvent(tick=1, data=[])]),
 midi.Track(\
  [midi.ProgramChangeEvent(tick=0, channel=1, data=[68]),
   midi.ControlChangeEvent(tick=0, channel=1, data=[121, 0]),
   midi.ControlChangeEvent(tick=0, channel=1, data=[64, 0]),
   midi.ControlChangeEvent(tick=0, channel=1, data=[91, 55]),
   midi.ControlChangeEvent(tick=0, channel=1, data=[10, 54]),
   midi.ControlChangeEvent(tick=0, channel=1, data=[7, 95]),
   midi.TrackNameEvent(tick=0, text='Oboe', data=[79, 98, 111, 101]),
   midi.NoteOnEvent(tick=33120, channel=1, data=[79, 61]),
   midi.NoteOnEvent(tick=0, channel=1, data=[74, 61]),
   midi.NoteOffEvent(tick=480, channel=1, data=[79, 0]),
   midi.NoteOffEvent(tick=0, channel=1, data=[74, 0]),
   midi.NoteOnEvent(tick=0, channel=1, data=[79, 61]),
   midi.NoteOnEvent(tick=0, channel=1, data=[74, 61]),
   midi.NoteOffEvent(tick=480, channel=1, data=[79, 0]),
   midi.NoteOffEvent(tick=0, channel=1, data=[74, 0]),
   midi.NoteOnEvent(tick=0, channel=1, data=[77, 76]),
   midi.NoteOnEvent(tick=0, channel=1, data=[74, 61]),
   midi.NoteOffEvent(tick=480, channel=1, data=[77, 0]),
   midi.NoteOffEvent(tick=0, channel=1, data=[74, 0]),
   midi.NoteOnEvent(tick=0, channel=1, data=[75, 96]),
   midi.NoteOnEvent(tick=0, channel=1, data=[72, 99]),
   midi.NoteOffEvent(tick=960, channel=1, data=[75, 0]),
   midi.NoteOffEvent(tick=0, channel=1, data=[72, 0]),
   midi.NoteOnEvent(tick=960, channel=1, data=[78, 105]),
   midi.NoteOnEvent(tick=0, channel=1, data=[72, 101]),
   midi.NoteOffEvent(tick=960, channel=1, data=[78, 0]),
   midi.NoteOffEvent(tick=0, channel=1, data=[72, 0]),
   midi.NoteOnEvent(tick=960, channel=1, data=[79, 106]),
   midi.NoteOnEvent(tick=0, channel=1, data=[71, 101]),
   midi.NoteOffEvent(tick=960, channel=1, data=[79, 0]),
   midi.NoteOffEvent(tick=0, channel=1, data=[71, 0]),
   midi.NoteOnEvent(tick=3360, channel=1, data=[80, 113]),
   midi.NoteOffEvent(tick=480, channel=1, data=[80, 0]),
   midi.NoteOnEvent(tick=0, channel=1, data=[80, 113]),
   midi.NoteOffEvent(tick=480, channel=1, data=[80, 0]),
   midi.NoteOnEvent(tick=0, channel=1, data=[80, 113]),
   midi.NoteOffEvent(tick=480, channel=1, data=[80, 0]),
   midi.NoteOnEvent(tick=0, channel=1, data=[77, 112]),
   midi.NoteOffEvent(tick=3840, channel=1, data=[77, 0]),
   midi.NoteOnEvent(tick=13920, channel=1, data=[77, 61]),
   midi.NoteOffEvent(tick=480, channel=1, data=[77, 0]),
   midi.NoteOnEvent(tick=0, channel=1, data=[77, 61]),
   midi.NoteOffEvent(tick=480, channel=1, data=[77, 0]),
   midi.NoteOnEvent(tick=0, channel=1, data=[77, 61]),
   midi.NoteOffEvent(tick=480, channel=1, data=[77, 0]),
   midi.NoteOnEvent(tick=0, channel=1, data=[75, 62]),
   midi.NoteOffEvent(tick=960, channel=1, data=[75, 0]),
   midi.NoteOnEvent(tick=4800, channel=1, data=[79, 89]),
   midi.NoteOnEvent(tick=0, channel=1, data=[75, 89]),
   midi.NoteOffEvent(tick=2880, channel=1, data=[79, 0]),
   midi.NoteOffEvent(tick=0, channel=1, data=[75, 0]),
   midi.NoteOnEvent(tick=960, channel=1, data=[80, 104]),
   midi.NoteOnEvent(tick=0, channel=1, data=[77, 104]),
   midi.NoteOffEvent(tick=960, channel=1, data=[80, 0]),
   midi.NoteOffEvent(tick=0, channel=1, data=[77, 0]),
   midi.NoteOnEvent(tick=960, channel=1, data=[79, 103]),
   midi.NoteOnEvent(tick=0, channel=1, data=[76, 103]),
   midi.NoteOffEvent(tick=960, channel=1, data=[79, 0]),
   midi.NoteOffEvent(tick=0, channel=1, data=[76, 0]),
   midi.NoteOnEvent(tick=960, channel=1, data=[80, 104]),
   midi.NoteOnEvent(tick=0, channel=1, data=[77, 104]),
   midi.NoteOffEvent(tick=960, channel=1, data=[80, 0]),
   midi.NoteOffEvent(tick=0, channel=1, data=[77, 0]),
   midi.NoteOnEvent(tick=960, channel=1, data=[82, 106]),
   midi.NoteOnEvent(tick=0, channel=1, data=[79, 106]),
   midi.NoteOffEvent(tick=960, channel=1, data=[82, 0]),
   midi.NoteOffEvent(tick=0, channel=1, data=[79, 0]),
   midi.NoteOnEvent(tick=960, channel=1, data=[80, 103]),
   midi.NoteOnEvent(tick=0, channel=1, data=[77, 103]),
   midi.NoteOffEvent(tick=960, channel=1, data=[80, 0]),
   midi.NoteOffEvent(tick=0, channel=1, data=[77, 0]),
   midi.NoteOnEvent(tick=960, channel=1, data=[80, 103]),
   midi.NoteOnEvent(tick=0, channel=1, data=[77, 103]),
   midi.NoteOffEvent(tick=960, channel=1, data=[80, 0]),
   midi.NoteOffEvent(tick=0, channel=1, data=[77, 0]),
   midi.NoteOnEvent(tick=960, channel=1, data=[79, 102]),
   midi.NoteOnEvent(tick=0, channel=1, data=[75, 102]),
   midi.NoteOffEvent(tick=7680, channel=1, data=[79, 0]),
   midi.NoteOffEvent(tick=0, channel=1, data=[75, 0]),
   midi.NoteOnEvent(tick=0, channel=1, data=[79, 104]),
   midi.NoteOnEvent(tick=0, channel=1, data=[77, 104]),
   midi.NoteOffEvent(tick=6720, channel=1, data=[79, 0]),
   midi.NoteOffEvent(tick=0, channel=1, data=[77, 0]),
   midi.NoteOnEvent(tick=0, channel=1, data=[75, 98]),
   midi.NoteOnEvent(tick=0, channel=1, data=[79, 98]),
   midi.NoteOffEvent(tick=960, channel=1, data=[75, 0]),
   midi.NoteOffEvent(tick=0, channel=1, data=[79, 0]),
   midi.NoteOnEvent(tick=0, channel=1, data=[78, 119]),
   midi.NoteOnEvent(tick=0, channel=1, data=[75, 120]),
   midi.NoteOffEvent(tick=7680, channel=1, data=[78, 0]),
   midi.NoteOffEvent(tick=0, channel=1, data=[75, 0]),
   midi.NoteOnEvent(tick=0, channel=1, data=[78, 120]),
   midi.NoteOnEvent(tick=0, channel=1, data=[75, 120]),
   midi.NoteOffEvent(tick=960, channel=1, data=[78, 0]),
   midi.NoteOffEvent(tick=0, channel=1, data=[75, 0]),
   midi.NoteOnEvent(tick=2880, channel=1, data=[77, 119]),
   midi.NoteOnEvent(tick=0, channel=1, data=[70, 118]),
   midi.NoteOffEvent(tick=960, channel=1, data=[77, 0]),
   midi.NoteOffEvent(tick=0, channel=1, data=[70, 0]),
   midi.NoteOnEvent(tick=48960, channel=1, data=[84, 65]),
   midi.NoteOffEvent(tick=3840, channel=1, data=[84, 0]),
   midi.NoteOnEvent(tick=0, channel=1, data=[82, 75]),
   midi.NoteOffEvent(tick=3840, channel=1, data=[82, 0]),
   midi.NoteOnEvent(tick=0, channel=1, data=[81, 89]),
   midi.NoteOffEvent(tick=8640, channel=1, data=[81, 0]),
   midi.NoteOnEvent(tick=0, channel=1, data=[81, 84]),
   midi.NoteOffEvent(tick=960, channel=1, data=[81, 0]),
   midi.NoteOnEvent(tick=0, channel=1, data=[81, 89]),
   midi.NoteOffEvent(tick=960, channel=1, data=[81, 0]),
   midi.NoteOnEvent(tick=0, channel=1, data=[81, 84]),
   midi.NoteOffEvent(tick=960, channel=1, data=[81, 0]),
   midi.NoteOnEvent(tick=0, channel=1, data=[80, 118]),
   midi.NoteOnEvent(tick=0, channel=1, data=[77, 120]),
   midi.NoteOffEvent(tick=2880, channel=1, data=[80, 0]),
   midi.NoteOffEvent(tick=0, channel=1, data=[77, 0]),
   midi.NoteOnEvent(tick=0, channel=1, data=[80, 112]),
   midi.NoteOnEvent(tick=0, channel=1, data=[77, 113]),
   midi.NoteOffEvent(tick=960, channel=1, data=[80, 0]),
   midi.NoteOffEvent(tick=0, channel=1, data=[77, 0]),
   midi.NoteOnEvent(tick=0, channel=1, data=[79, 118]),
   midi.NoteOnEvent(tick=0, channel=1, data=[75, 117]),
   midi.NoteOffEvent(tick=960, channel=1, data=[79, 0]),
   midi.NoteOffEvent(tick=0, channel=1, data=[75, 0]),
   midi.NoteOnEvent(tick=960, channel=1, data=[80, 120]),
   midi.NoteOffEvent(tick=960, channel=1, data=[80, 0]),
   midi.NoteOnEvent(tick=960, channel=1, data=[82, 123]),
   midi.NoteOnEvent(tick=0, channel=1, data=[75, 119]),
   midi.NoteOffEvent(tick=960, channel=1, data=[82, 0]),
   midi.NoteOffEvent(tick=0, channel=1, data=[75, 0]),
   midi.NoteOnEvent(tick=960, channel=1, data=[84, 123]),
   midi.NoteOnEvent(tick=0, channel=1, data=[75, 120]),
   midi.NoteOffEvent(tick=960, channel=1, data=[84, 0]),
   midi.NoteOffEvent(tick=0, channel=1, data=[75, 0]),
   midi.NoteOnEvent(tick=960, channel=1, data=[79, 115]),
   midi.NoteOnEvent(tick=0, channel=1, data=[75, 120]),
   midi.NoteOffEvent(tick=960, channel=1, data=[79, 0]),
   midi.NoteOffEvent(tick=0, channel=1, data=[75, 0]),
   midi.NoteOnEvent(tick=960, channel=1, data=[77, 116]),
   midi.NoteOnEvent(tick=0, channel=1, data=[74, 119]),
   midi.NoteOffEvent(tick=960, channel=1, data=[77, 0]),
   midi.NoteOffEvent(tick=0, channel=1, data=[74, 0]),
   midi.NoteOnEvent(tick=960, channel=1, data=[80, 122]),
   midi.NoteOnEvent(tick=0, channel=1, data=[77, 123]),
   midi.NoteOffEvent(tick=3840, channel=1, data=[80, 0]),
   midi.NoteOffEvent(tick=0, channel=1, data=[77, 0]),
   midi.NoteOnEvent(tick=0, channel=1, data=[79, 120]),
   midi.NoteOnEvent(tick=0, channel=1, data=[75, 119]),
   midi.NoteOffEvent(tick=960, channel=1, data=[79, 0]),
   midi.NoteOffEvent(tick=0, channel=1, data=[75, 0]),
   midi.NoteOnEvent(tick=0, channel=1, data=[79, 113]),
   midi.NoteOnEvent(tick=0, channel=1, data=[75, 113]),
   midi.NoteOffEvent(tick=960, channel=1, data=[79, 0]),
   midi.NoteOffEvent(tick=0, channel=1, data=[75, 0]),
   midi.NoteOnEvent(tick=960, channel=1, data=[77, 111]),
   midi.NoteOnEvent(tick=0, channel=1, data=[74, 112]),
   midi.NoteOffEvent(tick=960, channel=1, data=[77, 0]),
   midi.NoteOffEvent(tick=0, channel=1, data=[74, 0]),
   midi.NoteOnEvent(tick=960, channel=1, data=[79, 114]),
   midi.NoteOnEvent(tick=0, channel=1, data=[75, 114]),
   midi.NoteOffEvent(tick=960, channel=1, data=[79, 0]),
   midi.NoteOffEvent(tick=0, channel=1, data=[75, 0]),
   midi.NoteOnEvent(tick=960, channel=1, data=[77, 111]),
   midi.NoteOnEvent(tick=0, channel=1, data=[75, 113]),
   midi.NoteOffEvent(tick=960, channel=1, data=[77, 0]),
   midi.NoteOffEvent(tick=0, channel=1, data=[75, 0]),
   midi.NoteOnEvent(tick=960, channel=1, data=[79, 114]),
   midi.NoteOnEvent(tick=0, channel=1, data=[75, 113]),
   midi.NoteOffEvent(tick=960, channel=1, data=[79, 0]),
   midi.NoteOffEvent(tick=0, channel=1, data=[75, 0]),
   midi.NoteOnEvent(tick=960, channel=1, data=[77, 112]),
   midi.NoteOnEvent(tick=0, channel=1, data=[74, 112]),
   midi.NoteOffEvent(tick=960, channel=1, data=[77, 0]),
   midi.NoteOffEvent(tick=0, channel=1, data=[74, 0]),
   midi.NoteOnEvent(tick=0, channel=1, data=[79, 122]),
   midi.NoteOnEvent(tick=0, channel=1, data=[75, 121]),
   midi.NoteOffEvent(tick=480, channel=1, data=[79, 0]),
   midi.NoteOffEvent(tick=0, channel=1, data=[75, 0]),
   midi.NoteOnEvent(tick=0, channel=1, data=[79, 115]),
   midi.NoteOffEvent(tick=480, channel=1, data=[79, 0]),
   midi.NoteOnEvent(tick=0, channel=1, data=[79, 114]),
   midi.NoteOffEvent(tick=480, channel=1, data=[79, 0]),
   midi.NoteOnEvent(tick=0, channel=1, data=[79, 114]),
   midi.NoteOffEvent(tick=480, channel=1, data=[79, 0]),
   midi.NoteOnEvent(tick=0, channel=1, data=[75, 106]),
   midi.NoteOffEvent(tick=480, channel=1, data=[75, 0]),
   midi.NoteOnEvent(tick=0, channel=1, data=[82, 127]),
   midi.NoteOffEvent(tick=480, channel=1, data=[82, 0]),
   midi.NoteOnEvent(tick=0, channel=1, data=[82, 126]),
   midi.NoteOffEvent(tick=480, channel=1, data=[82, 0]),
   midi.NoteOnEvent(tick=0, channel=1, data=[82, 125]),
   midi.NoteOffEvent(tick=480, channel=1, data=[82, 0]),
   midi.NoteOnEvent(tick=0, channel=1, data=[79, 115]),
   midi.NoteOffEvent(tick=480, channel=1, data=[79, 0]),
   midi.NoteOnEvent(tick=0, channel=1, data=[75, 96]),
   midi.NoteOffEvent(tick=480, channel=1, data=[75, 0]),
   midi.NoteOnEvent(tick=0, channel=1, data=[75, 97]),
   midi.NoteOffEvent(tick=480, channel=1, data=[75, 0]),
   midi.NoteOnEvent(tick=0, channel=1, data=[75, 98]),
   midi.NoteOffEvent(tick=480, channel=1, data=[75, 0]),
   midi.NoteOnEvent(tick=0, channel=1, data=[70, 102]),
   midi.NoteOffEvent(tick=2400, channel=1, data=[70, 0]),
   midi.NoteOnEvent(tick=0, channel=1, data=[79, 121]),
   midi.NoteOffEvent(tick=480, channel=1, data=[79, 0]),
   midi.NoteOnEvent(tick=0, channel=1, data=[79, 120]),
   midi.NoteOffEvent(tick=480, channel=1, data=[79, 0]),
   midi.NoteOnEvent(tick=0, channel=1, data=[79, 119]),
   midi.NoteOffEvent(tick=480, channel=1, data=[79, 0]),
   midi.NoteOnEvent(tick=0, channel=1, data=[75, 110]),
   midi.NoteOffEvent(tick=480, channel=1, data=[75, 0]),
   midi.NoteOnEvent(tick=0, channel=1, data=[82, 127]),
   midi.NoteOffEvent(tick=480, channel=1, data=[82, 0]),
   midi.NoteOnEvent(tick=0, channel=1, data=[82, 127]),
   midi.NoteOffEvent(tick=480, channel=1, data=[82, 0]),
   midi.NoteOnEvent(tick=0, channel=1, data=[82, 125]),
   midi.NoteOffEvent(tick=480, channel=1, data=[82, 0]),
   midi.NoteOnEvent(tick=0, channel=1, data=[79, 116]),
   midi.NoteOffEvent(tick=480, channel=1, data=[79, 0]),
   midi.NoteOnEvent(tick=0, channel=1, data=[75, 96]),
   midi.NoteOffEvent(tick=480, channel=1, data=[75, 0]),
   midi.NoteOnEvent(tick=0, channel=1, data=[75, 98]),
   midi.NoteOffEvent(tick=480, channel=1, data=[75, 0]),
   midi.NoteOnEvent(tick=0, channel=1, data=[75, 99]),
   midi.NoteOffEvent(tick=480, channel=1, data=[75, 0]),
   midi.NoteOnEvent(tick=0, channel=1, data=[70, 102]),
   midi.NoteOffEvent(tick=2880, channel=1, data=[70, 0]),
   midi.NoteOnEvent(tick=1440, channel=1, data=[77, 115]),
   midi.NoteOnEvent(tick=0, channel=1, data=[74, 113]),
   midi.NoteOffEvent(tick=480, channel=1, data=[77, 0]),
   midi.NoteOffEvent(tick=0, channel=1, data=[74, 0]),
   midi.NoteOnEvent(tick=0, channel=1, data=[77, 115]),
   midi.NoteOnEvent(tick=0, channel=1, data=[74, 113]),
   midi.NoteOffEvent(tick=480, channel=1, data=[77, 0]),
   midi.NoteOffEvent(tick=0, channel=1, data=[74, 0]),
   midi.NoteOnEvent(tick=0, channel=1, data=[77, 114]),
   midi.NoteOnEvent(tick=0, channel=1, data=[74, 113]),
   midi.NoteOffEvent(tick=480, channel=1, data=[77, 0]),
   midi.NoteOffEvent(tick=0, channel=1, data=[74, 0]),
   midi.NoteOnEvent(tick=0, channel=1, data=[79, 127]),
   midi.NoteOnEvent(tick=0, channel=1, data=[75, 122]),
   midi.NoteOffEvent(tick=960, channel=1, data=[79, 0]),
   midi.NoteOffEvent(tick=0, channel=1, data=[75, 0]),
   midi.NoteOnEvent(tick=1440, channel=1, data=[82, 120]),
   midi.NoteOnEvent(tick=0, channel=1, data=[77, 118]),
   midi.NoteOffEvent(tick=480, channel=1, data=[82, 0]),
   midi.NoteOffEvent(tick=0, channel=1, data=[77, 0]),
   midi.NoteOnEvent(tick=0, channel=1, data=[82, 119]),
   midi.NoteOnEvent(tick=0, channel=1, data=[77, 117]),
   midi.NoteOffEvent(tick=480, channel=1, data=[82, 0]),
   midi.NoteOffEvent(tick=0, channel=1, data=[77, 0]),
   midi.NoteOnEvent(tick=0, channel=1, data=[82, 118]),
   midi.NoteOnEvent(tick=0, channel=1, data=[77, 116]),
   midi.NoteOffEvent(tick=480, channel=1, data=[82, 0]),
   midi.NoteOffEvent(tick=0, channel=1, data=[77, 0]),
   midi.NoteOnEvent(tick=0, channel=1, data=[79, 113]),
   midi.NoteOnEvent(tick=0, channel=1, data=[75, 115]),
   midi.NoteOffEvent(tick=960, channel=1, data=[79, 0]),
   midi.NoteOffEvent(tick=0, channel=1, data=[75, 0]),
   midi.NoteOnEvent(tick=37920, channel=1, data=[79, 61]),
   midi.NoteOnEvent(tick=0, channel=1, data=[74, 61]),
   midi.NoteOffEvent(tick=480, channel=1, data=[79, 0]),
   midi.NoteOffEvent(tick=0, channel=1, data=[74, 0]),
   midi.NoteOnEvent(tick=0, channel=1, data=[79, 61]),
   midi.NoteOnEvent(tick=0, channel=1, data=[74, 61]),
   midi.NoteOffEvent(tick=480, channel=1, data=[79, 0]),
   midi.NoteOffEvent(tick=0, channel=1, data=[74, 0]),
   midi.NoteOnEvent(tick=0, channel=1, data=[77, 76]),
   midi.NoteOnEvent(tick=0, channel=1, data=[74, 61]),
   midi.NoteOffEvent(tick=480, channel=1, data=[77, 0]),
   midi.NoteOffEvent(tick=0, channel=1, data=[74, 0]),
   midi.NoteOnEvent(tick=0, channel=1, data=[75, 96]),
   midi.NoteOnEvent(tick=0, channel=1, data=[72, 99]),
   midi.NoteOffEvent(tick=960, channel=1, data=[75, 0]),
   midi.NoteOffEvent(tick=0, channel=1, data=[72, 0]),
   midi.NoteOnEvent(tick=960, channel=1, data=[78, 105]),
   midi.NoteOnEvent(tick=0, channel=1, data=[72, 101]),
   midi.NoteOffEvent(tick=960, channel=1, data=[78, 0]),
   midi.NoteOffEvent(tick=0, channel=1, data=[72, 0]),
   midi.NoteOnEvent(tick=960, channel=1, data=[79, 106]),
   midi.NoteOnEvent(tick=0, channel=1, data=[71, 101]),
   midi.NoteOffEvent(tick=960, channel=1, data=[79, 0]),
   midi.NoteOffEvent(tick=0, channel=1, data=[71, 0]),
   midi.NoteOnEvent(tick=3360, channel=1, data=[80, 113]),
   midi.NoteOffEvent(tick=480, channel=1, data=[80, 0]),
   midi.NoteOnEvent(tick=0, channel=1, data=[80, 113]),
   midi.NoteOffEvent(tick=480, channel=1, data=[80, 0]),
   midi.NoteOnEvent(tick=0, channel=1, data=[80, 113]),
   midi.NoteOffEvent(tick=480, channel=1, data=[80, 0]),
   midi.NoteOnEvent(tick=0, channel=1, data=[77, 112]),
   midi.NoteOffEvent(tick=3840, channel=1, data=[77, 0]),
   midi.NoteOnEvent(tick=13920, channel=1, data=[77, 61]),
   midi.NoteOffEvent(tick=480, channel=1, data=[77, 0]),
   midi.NoteOnEvent(tick=0, channel=1, data=[77, 61]),
   midi.NoteOffEvent(tick=480, channel=1, data=[77, 0]),
   midi.NoteOnEvent(tick=0, channel=1, data=[77, 61]),
   midi.NoteOffEvent(tick=480, channel=1, data=[77, 0]),
   midi.NoteOnEvent(tick=0, channel=1, data=[75, 62]),
   midi.NoteOffEvent(tick=960, channel=1, data=[75, 0]),
   midi.NoteOnEvent(tick=4800, channel=1, data=[79, 89]),
   midi.NoteOnEvent(tick=0, channel=1, data=[75, 89]),
   midi.NoteOffEvent(tick=2880, channel=1, data=[79, 0]),
   midi.NoteOffEvent(tick=0, channel=1, data=[75, 0]),
   midi.NoteOnEvent(tick=960, channel=1, data=[80, 104]),
   midi.NoteOnEvent(tick=0, channel=1, data=[77, 104]),
   midi.NoteOffEvent(tick=960, channel=1, data=[80, 0]),
   midi.NoteOffEvent(tick=0, channel=1, data=[77, 0]),
   midi.NoteOnEvent(tick=960, channel=1, data=[79, 103]),
   midi.NoteOnEvent(tick=0, channel=1, data=[76, 103]),
   midi.NoteOffEvent(tick=960, channel=1, data=[79, 0]),
   midi.NoteOffEvent(tick=0, channel=1, data=[76, 0]),
   midi.NoteOnEvent(tick=960, channel=1, data=[80, 104]),
   midi.NoteOnEvent(tick=0, channel=1, data=[77, 104]),
   midi.NoteOffEvent(tick=960, channel=1, data=[80, 0]),
   midi.NoteOffEvent(tick=0, channel=1, data=[77, 0]),
   midi.NoteOnEvent(tick=960, channel=1, data=[82, 106]),
   midi.NoteOnEvent(tick=0, channel=1, data=[79, 106]),
   midi.NoteOffEvent(tick=960, channel=1, data=[82, 0]),
   midi.NoteOffEvent(tick=0, channel=1, data=[79, 0]),
   midi.NoteOnEvent(tick=960, channel=1, data=[80, 103]),
   midi.NoteOnEvent(tick=0, channel=1, data=[77, 103]),
   midi.NoteOffEvent(tick=960, channel=1, data=[80, 0]),
   midi.NoteOffEvent(tick=0, channel=1, data=[77, 0]),
   midi.NoteOnEvent(tick=960, channel=1, data=[80, 103]),
   midi.NoteOnEvent(tick=0, channel=1, data=[77, 103]),
   midi.NoteOffEvent(tick=960, channel=1, data=[80, 0]),
   midi.NoteOffEvent(tick=0, channel=1, data=[77, 0]),
   midi.NoteOnEvent(tick=960, channel=1, data=[79, 102]),
   midi.NoteOnEvent(tick=0, channel=1, data=[75, 102]),
   midi.NoteOffEvent(tick=7680, channel=1, data=[79, 0]),
   midi.NoteOffEvent(tick=0, channel=1, data=[75, 0]),
   midi.NoteOnEvent(tick=0, channel=1, data=[79, 104]),
   midi.NoteOnEvent(tick=0, channel=1, data=[77, 104]),
   midi.NoteOffEvent(tick=6720, channel=1, data=[79, 0]),
   midi.NoteOffEvent(tick=0, channel=1, data=[77, 0]),
   midi.NoteOnEvent(tick=0, channel=1, data=[75, 98]),
   midi.NoteOnEvent(tick=0, channel=1, data=[79, 98]),
   midi.NoteOffEvent(tick=960, channel=1, data=[75, 0]),
   midi.NoteOffEvent(tick=0, channel=1, data=[79, 0]),
   midi.NoteOnEvent(tick=0, channel=1, data=[78, 119]),
   midi.NoteOnEvent(tick=0, channel=1, data=[75, 120]),
   midi.NoteOffEvent(tick=7680, channel=1, data=[78, 0]),
   midi.NoteOffEvent(tick=0, channel=1, data=[75, 0]),
   midi.NoteOnEvent(tick=0, channel=1, data=[78, 120]),
   midi.NoteOnEvent(tick=0, channel=1, data=[75, 120]),
   midi.NoteOffEvent(tick=960, channel=1, data=[78, 0]),
   midi.NoteOffEvent(tick=0, channel=1, data=[75, 0]),
   midi.NoteOnEvent(tick=2880, channel=1, data=[77, 119]),
   midi.NoteOnEvent(tick=0, channel=1, data=[70, 118]),
   midi.NoteOffEvent(tick=960, channel=1, data=[77, 0]),
   midi.NoteOffEvent(tick=0, channel=1, data=[70, 0]),
   midi.NoteOnEvent(tick=48960, channel=1, data=[84, 65]),
   midi.NoteOffEvent(tick=3840, channel=1, data=[84, 0]),
   midi.NoteOnEvent(tick=0, channel=1, data=[82, 75]),
   midi.NoteOffEvent(tick=3840, channel=1, data=[82, 0]),
   midi.NoteOnEvent(tick=0, channel=1, data=[81, 89]),
   midi.NoteOffEvent(tick=8640, channel=1, data=[81, 0]),
   midi.NoteOnEvent(tick=0, channel=1, data=[81, 84]),
   midi.NoteOffEvent(tick=960, channel=1, data=[81, 0]),
   midi.NoteOnEvent(tick=0, channel=1, data=[81, 89]),
   midi.NoteOffEvent(tick=960, channel=1, data=[81, 0]),
   midi.NoteOnEvent(tick=0, channel=1, data=[81, 84]),
   midi.NoteOffEvent(tick=960, channel=1, data=[81, 0]),
   midi.NoteOnEvent(tick=0, channel=1, data=[80, 118]),
   midi.NoteOnEvent(tick=0, channel=1, data=[77, 120]),
   midi.NoteOffEvent(tick=2880, channel=1, data=[80, 0]),
   midi.NoteOffEvent(tick=0, channel=1, data=[77, 0]),
   midi.NoteOnEvent(tick=0, channel=1, data=[80, 112]),
   midi.NoteOnEvent(tick=0, channel=1, data=[77, 113]),
   midi.NoteOffEvent(tick=960, channel=1, data=[80, 0]),
   midi.NoteOffEvent(tick=0, channel=1, data=[77, 0]),
   midi.NoteOnEvent(tick=0, channel=1, data=[79, 118]),
   midi.NoteOnEvent(tick=0, channel=1, data=[75, 117]),
   midi.NoteOffEvent(tick=960, channel=1, data=[79, 0]),
   midi.NoteOffEvent(tick=0, channel=1, data=[75, 0]),
   midi.NoteOnEvent(tick=960, channel=1, data=[80, 120]),
   midi.NoteOffEvent(tick=960, channel=1, data=[80, 0]),
   midi.NoteOnEvent(tick=960, channel=1, data=[82, 123]),
   midi.NoteOnEvent(tick=0, channel=1, data=[75, 119]),
   midi.NoteOffEvent(tick=960, channel=1, data=[82, 0]),
   midi.NoteOffEvent(tick=0, channel=1, data=[75, 0]),
   midi.NoteOnEvent(tick=960, channel=1, data=[84, 123]),
   midi.NoteOnEvent(tick=0, channel=1, data=[75, 120]),
   midi.NoteOffEvent(tick=960, channel=1, data=[84, 0]),
   midi.NoteOffEvent(tick=0, channel=1, data=[75, 0]),
   midi.NoteOnEvent(tick=960, channel=1, data=[79, 115]),
   midi.NoteOnEvent(tick=0, channel=1, data=[75, 120]),
   midi.NoteOffEvent(tick=960, channel=1, data=[79, 0]),
   midi.NoteOffEvent(tick=0, channel=1, data=[75, 0]),
   midi.NoteOnEvent(tick=960, channel=1, data=[77, 116]),
   midi.NoteOnEvent(tick=0, channel=1, data=[74, 119]),
   midi.NoteOffEvent(tick=960, channel=1, data=[77, 0]),
   midi.NoteOffEvent(tick=0, channel=1, data=[74, 0]),
   midi.NoteOnEvent(tick=960, channel=1, data=[80, 122]),
   midi.NoteOnEvent(tick=0, channel=1, data=[77, 123]),
   midi.NoteOffEvent(tick=3840, channel=1, data=[80, 0]),
   midi.NoteOffEvent(tick=0, channel=1, data=[77, 0]),
   midi.NoteOnEvent(tick=0, channel=1, data=[79, 120]),
   midi.NoteOnEvent(tick=0, channel=1, data=[75, 119]),
   midi.NoteOffEvent(tick=960, channel=1, data=[79, 0]),
   midi.NoteOffEvent(tick=0, channel=1, data=[75, 0]),
   midi.NoteOnEvent(tick=0, channel=1, data=[79, 113]),
   midi.NoteOnEvent(tick=0, channel=1, data=[75, 113]),
   midi.NoteOffEvent(tick=960, channel=1, data=[79, 0]),
   midi.NoteOffEvent(tick=0, channel=1, data=[75, 0]),
   midi.NoteOnEvent(tick=960, channel=1, data=[77, 111]),
   midi.NoteOnEvent(tick=0, channel=1, data=[74, 112]),
   midi.NoteOffEvent(tick=960, channel=1, data=[77, 0]),
   midi.NoteOffEvent(tick=0, channel=1, data=[74, 0]),
   midi.NoteOnEvent(tick=960, channel=1, data=[79, 114]),
   midi.NoteOnEvent(tick=0, channel=1, data=[75, 114]),
   midi.NoteOffEvent(tick=960, channel=1, data=[79, 0]),
   midi.NoteOffEvent(tick=0, channel=1, data=[75, 0]),
   midi.NoteOnEvent(tick=960, channel=1, data=[77, 111]),
   midi.NoteOnEvent(tick=0, channel=1, data=[75, 113]),
   midi.NoteOffEvent(tick=960, channel=1, data=[77, 0]),
   midi.NoteOffEvent(tick=0, channel=1, data=[75, 0]),
   midi.NoteOnEvent(tick=960, channel=1, data=[79, 114]),
   midi.NoteOnEvent(tick=0, channel=1, data=[75, 113]),
   midi.NoteOffEvent(tick=960, channel=1, data=[79, 0]),
   midi.NoteOffEvent(tick=0, channel=1, data=[75, 0]),
   midi.NoteOnEvent(tick=960, channel=1, data=[77, 112]),
   midi.NoteOnEvent(tick=0, channel=1, data=[74, 112]),
   midi.NoteOffEvent(tick=960, channel=1, data=[77, 0]),
   midi.NoteOffEvent(tick=0, channel=1, data=[74, 0]),
   midi.NoteOnEvent(tick=0, channel=1, data=[79, 122]),
   midi.NoteOnEvent(tick=0, channel=1, data=[75, 121]),
   midi.NoteOffEvent(tick=480, channel=1, data=[79, 0]),
   midi.NoteOffEvent(tick=0, channel=1, data=[75, 0]),
   midi.NoteOnEvent(tick=0, channel=1, data=[79, 115]),
   midi.NoteOffEvent(tick=480, channel=1, data=[79, 0]),
   midi.NoteOnEvent(tick=0, channel=1, data=[79, 114]),
   midi.NoteOffEvent(tick=480, channel=1, data=[79, 0]),
   midi.NoteOnEvent(tick=0, channel=1, data=[79, 114]),
   midi.NoteOffEvent(tick=480, channel=1, data=[79, 0]),
   midi.NoteOnEvent(tick=0, channel=1, data=[75, 106]),
   midi.NoteOffEvent(tick=480, channel=1, data=[75, 0]),
   midi.NoteOnEvent(tick=0, channel=1, data=[82, 127]),
   midi.NoteOffEvent(tick=480, channel=1, data=[82, 0]),
   midi.NoteOnEvent(tick=0, channel=1, data=[82, 126]),
   midi.NoteOffEvent(tick=480, channel=1, data=[82, 0]),
   midi.NoteOnEvent(tick=0, channel=1, data=[82, 125]),
   midi.NoteOffEvent(tick=480, channel=1, data=[82, 0]),
   midi.NoteOnEvent(tick=0, channel=1, data=[79, 115]),
   midi.NoteOffEvent(tick=480, channel=1, data=[79, 0]),
   midi.NoteOnEvent(tick=0, channel=1, data=[75, 96]),
   midi.NoteOffEvent(tick=480, channel=1, data=[75, 0]),
   midi.NoteOnEvent(tick=0, channel=1, data=[75, 97]),
   midi.NoteOffEvent(tick=480, channel=1, data=[75, 0]),
   midi.NoteOnEvent(tick=0, channel=1, data=[75, 98]),
   midi.NoteOffEvent(tick=480, channel=1, data=[75, 0]),
   midi.NoteOnEvent(tick=0, channel=1, data=[70, 102]),
   midi.NoteOffEvent(tick=2400, channel=1, data=[70, 0]),
   midi.NoteOnEvent(tick=0, channel=1, data=[79, 121]),
   midi.NoteOffEvent(tick=480, channel=1, data=[79, 0]),
   midi.NoteOnEvent(tick=0, channel=1, data=[79, 120]),
   midi.NoteOffEvent(tick=480, channel=1, data=[79, 0]),
   midi.NoteOnEvent(tick=0, channel=1, data=[79, 119]),
   midi.NoteOffEvent(tick=480, channel=1, data=[79, 0]),
   midi.NoteOnEvent(tick=0, channel=1, data=[75, 110]),
   midi.NoteOffEvent(tick=480, channel=1, data=[75, 0]),
   midi.NoteOnEvent(tick=0, channel=1, data=[82, 127]),
   midi.NoteOffEvent(tick=480, channel=1, data=[82, 0]),
   midi.NoteOnEvent(tick=0, channel=1, data=[82, 127]),
   midi.NoteOffEvent(tick=480, channel=1, data=[82, 0]),
   midi.NoteOnEvent(tick=0, channel=1, data=[82, 125]),
   midi.NoteOffEvent(tick=480, channel=1, data=[82, 0]),
   midi.NoteOnEvent(tick=0, channel=1, data=[79, 116]),
   midi.NoteOffEvent(tick=480, channel=1, data=[79, 0]),
   midi.NoteOnEvent(tick=0, channel=1, data=[75, 96]),
   midi.NoteOffEvent(tick=480, channel=1, data=[75, 0]),
   midi.NoteOnEvent(tick=0, channel=1, data=[75, 98]),
   midi.NoteOffEvent(tick=480, channel=1, data=[75, 0]),
   midi.NoteOnEvent(tick=0, channel=1, data=[75, 99]),
   midi.NoteOffEvent(tick=480, channel=1, data=[75, 0]),
   midi.NoteOnEvent(tick=0, channel=1, data=[70, 102]),
   midi.NoteOffEvent(tick=2880, channel=1, data=[70, 0]),
   midi.NoteOnEvent(tick=1440, channel=1, data=[77, 115]),
   midi.NoteOnEvent(tick=0, channel=1, data=[74, 113]),
   midi.NoteOffEvent(tick=480, channel=1, data=[77, 0]),
   midi.NoteOffEvent(tick=0, channel=1, data=[74, 0]),
   midi.NoteOnEvent(tick=0, channel=1, data=[77, 115]),
   midi.NoteOnEvent(tick=0, channel=1, data=[74, 113]),
   midi.NoteOffEvent(tick=480, channel=1, data=[77, 0]),
   midi.NoteOffEvent(tick=0, channel=1, data=[74, 0]),
   midi.NoteOnEvent(tick=0, channel=1, data=[77, 114]),
   midi.NoteOnEvent(tick=0, channel=1, data=[74, 113]),
   midi.NoteOffEvent(tick=480, channel=1, data=[77, 0]),
   midi.NoteOffEvent(tick=0, channel=1, data=[74, 0]),
   midi.NoteOnEvent(tick=0, channel=1, data=[79, 127]),
   midi.NoteOnEvent(tick=0, channel=1, data=[75, 122]),
   midi.NoteOffEvent(tick=960, channel=1, data=[79, 0]),
   midi.NoteOffEvent(tick=0, channel=1, data=[75, 0]),
   midi.NoteOnEvent(tick=1440, channel=1, data=[82, 120]),
   midi.NoteOnEvent(tick=0, channel=1, data=[77, 118]),
   midi.NoteOffEvent(tick=480, channel=1, data=[82, 0]),
   midi.NoteOffEvent(tick=0, channel=1, data=[77, 0]),
   midi.NoteOnEvent(tick=0, channel=1, data=[82, 119]),
   midi.NoteOnEvent(tick=0, channel=1, data=[77, 117]),
   midi.NoteOffEvent(tick=480, channel=1, data=[82, 0]),
   midi.NoteOffEvent(tick=0, channel=1, data=[77, 0]),
   midi.NoteOnEvent(tick=0, channel=1, data=[82, 118]),
   midi.NoteOnEvent(tick=0, channel=1, data=[77, 116]),
   midi.NoteOffEvent(tick=480, channel=1, data=[82, 0]),
   midi.NoteOffEvent(tick=0, channel=1, data=[77, 0]),
   midi.NoteOnEvent(tick=0, channel=1, data=[79, 113]),
   midi.NoteOnEvent(tick=0, channel=1, data=[75, 115]),
   midi.NoteOffEvent(tick=960, channel=1, data=[79, 0]),
   midi.NoteOffEvent(tick=0, channel=1, data=[75, 0]),
   midi.NoteOnEvent(tick=59040, channel=1, data=[78, 61]),
   midi.NoteOffEvent(tick=480, channel=1, data=[78, 0]),
   midi.NoteOnEvent(tick=0, channel=1, data=[78, 61]),
   midi.NoteOffEvent(tick=480, channel=1, data=[78, 0]),
   midi.NoteOnEvent(tick=0, channel=1, data=[81, 64]),
   midi.NoteOffEvent(tick=480, channel=1, data=[81, 0]),
   midi.NoteOnEvent(tick=0, channel=1, data=[79, 64]),
   midi.NoteOffEvent(tick=1920, channel=1, data=[79, 0]),
   midi.NoteOnEvent(tick=0, channel=1, data=[78, 63]),
   midi.NoteOffEvent(tick=480, channel=1, data=[78, 0]),
   midi.NoteOnEvent(tick=0, channel=1, data=[78, 60]),
   midi.NoteOffEvent(tick=480, channel=1, data=[78, 0]),
   midi.NoteOnEvent(tick=0, channel=1, data=[78, 60]),
   midi.NoteOffEvent(tick=480, channel=1, data=[78, 0]),
   midi.NoteOnEvent(tick=0, channel=1, data=[81, 66]),
   midi.NoteOffEvent(tick=480, channel=1, data=[81, 0]),
   midi.NoteOnEvent(tick=0, channel=1, data=[79, 65]),
   midi.NoteOffEvent(tick=1920, channel=1, data=[79, 0]),
   midi.NoteOnEvent(tick=0, channel=1, data=[78, 63]),
   midi.NoteOffEvent(tick=1920, channel=1, data=[78, 0]),
   midi.NoteOnEvent(tick=0, channel=1, data=[79, 65]),
   midi.NoteOffEvent(tick=2400, channel=1, data=[79, 0]),
   midi.NoteOnEvent(tick=1440, channel=1, data=[78, 64]),
   midi.NoteOnEvent(tick=0, channel=1, data=[72, 65]),
   midi.NoteOffEvent(tick=960, channel=1, data=[78, 0]),
   midi.NoteOffEvent(tick=0, channel=1, data=[72, 0]),
   midi.NoteOnEvent(tick=2880, channel=1, data=[78, 65]),
   midi.NoteOnEvent(tick=0, channel=1, data=[72, 65]),
   midi.NoteOffEvent(tick=960, channel=1, data=[78, 0]),
   midi.NoteOffEvent(tick=0, channel=1, data=[72, 0]),
   midi.NoteOnEvent(tick=2880, channel=1, data=[79, 65]),
   midi.NoteOnEvent(tick=0, channel=1, data=[67, 64]),
   midi.NoteOffEvent(tick=960, channel=1, data=[79, 0]),
   midi.NoteOffEvent(tick=0, channel=1, data=[67, 0]),
   midi.NoteOnEvent(tick=2880, channel=1, data=[79, 65]),
   midi.NoteOnEvent(tick=0, channel=1, data=[74, 66]),
   midi.NoteOffEvent(tick=960, channel=1, data=[79, 0]),
   midi.NoteOffEvent(tick=0, channel=1, data=[74, 0]),
   midi.NoteOnEvent(tick=1440, channel=1, data=[79, 84]),
   midi.NoteOffEvent(tick=480, channel=1, data=[79, 0]),
   midi.NoteOnEvent(tick=0, channel=1, data=[81, 86]),
   midi.NoteOffEvent(tick=480, channel=1, data=[81, 0]),
   midi.NoteOnEvent(tick=0, channel=1, data=[82, 87]),
   midi.NoteOffEvent(tick=480, channel=1, data=[82, 0]),
   midi.NoteOnEvent(tick=0, channel=1, data=[81, 105]),
   midi.NoteOnEvent(tick=0, channel=1, data=[78, 105]),
   midi.NoteOffEvent(tick=3840, channel=1, data=[81, 0]),
   midi.NoteOffEvent(tick=0, channel=1, data=[78, 0]),
   midi.NoteOnEvent(tick=0, channel=1, data=[81, 104]),
   midi.NoteOnEvent(tick=0, channel=1, data=[78, 104]),
   midi.NoteOffEvent(tick=960, channel=1, data=[81, 0]),
   midi.NoteOffEvent(tick=0, channel=1, data=[78, 0]),
   midi.NoteOnEvent(tick=1440, channel=1, data=[82, 98]),
   midi.NoteOnEvent(tick=0, channel=1, data=[79, 98]),
   midi.NoteOffEvent(tick=480, channel=1, data=[82, 0]),
   midi.NoteOffEvent(tick=0, channel=1, data=[79, 0]),
   midi.NoteOnEvent(tick=0, channel=1, data=[82, 98]),
   midi.NoteOnEvent(tick=0, channel=1, data=[79, 98]),
   midi.NoteOffEvent(tick=480, channel=1, data=[82, 0]),
   midi.NoteOffEvent(tick=0, channel=1, data=[79, 0]),
   midi.NoteOnEvent(tick=0, channel=1, data=[82, 98]),
   midi.NoteOnEvent(tick=0, channel=1, data=[79, 98]),
   midi.NoteOffEvent(tick=480, channel=1, data=[82, 0]),
   midi.NoteOffEvent(tick=0, channel=1, data=[79, 0]),
   midi.NoteOnEvent(tick=0, channel=1, data=[82, 104]),
   midi.NoteOnEvent(tick=0, channel=1, data=[79, 104]),
   midi.NoteOffEvent(tick=3840, channel=1, data=[82, 0]),
   midi.NoteOffEvent(tick=0, channel=1, data=[79, 0]),
   midi.NoteOnEvent(tick=0, channel=1, data=[82, 104]),
   midi.NoteOnEvent(tick=0, channel=1, data=[79, 104]),
   midi.NoteOffEvent(tick=960, channel=1, data=[82, 0]),
   midi.NoteOffEvent(tick=0, channel=1, data=[79, 0]),
   midi.NoteOnEvent(tick=1440, channel=1, data=[82, 98]),
   midi.NoteOnEvent(tick=0, channel=1, data=[79, 98]),
   midi.NoteOffEvent(tick=480, channel=1, data=[82, 0]),
   midi.NoteOffEvent(tick=0, channel=1, data=[79, 0]),
   midi.NoteOnEvent(tick=0, channel=1, data=[82, 98]),
   midi.NoteOnEvent(tick=0, channel=1, data=[79, 98]),
   midi.NoteOffEvent(tick=480, channel=1, data=[82, 0]),
   midi.NoteOffEvent(tick=0, channel=1, data=[79, 0]),
   midi.NoteOnEvent(tick=0, channel=1, data=[82, 98]),
   midi.NoteOnEvent(tick=0, channel=1, data=[79, 98]),
   midi.NoteOffEvent(tick=480, channel=1, data=[82, 0]),
   midi.NoteOffEvent(tick=0, channel=1, data=[79, 0]),
   midi.NoteOnEvent(tick=0, channel=1, data=[82, 104]),
   midi.NoteOnEvent(tick=0, channel=1, data=[79, 104]),
   midi.NoteOffEvent(tick=960, channel=1, data=[82, 0]),
   midi.NoteOffEvent(tick=0, channel=1, data=[79, 0]),
   midi.NoteOnEvent(tick=1920, channel=1, data=[82, 98]),
   midi.NoteOnEvent(tick=0, channel=1, data=[79, 98]),
   midi.NoteOffEvent(tick=480, channel=1, data=[82, 0]),
   midi.NoteOffEvent(tick=0, channel=1, data=[79, 0]),
   midi.NoteOnEvent(tick=0, channel=1, data=[82, 98]),
   midi.NoteOnEvent(tick=0, channel=1, data=[79, 98]),
   midi.NoteOffEvent(tick=480, channel=1, data=[82, 0]),
   midi.NoteOffEvent(tick=0, channel=1, data=[79, 0]),
   midi.NoteOnEvent(tick=0, channel=1, data=[82, 104]),
   midi.NoteOnEvent(tick=0, channel=1, data=[79, 104]),
   midi.NoteOffEvent(tick=960, channel=1, data=[82, 0]),
   midi.NoteOffEvent(tick=0, channel=1, data=[79, 0]),
   midi.NoteOnEvent(tick=0, channel=1, data=[81, 95]),
   midi.NoteOnEvent(tick=0, channel=1, data=[74, 87]),
   midi.NoteOffEvent(tick=480, channel=1, data=[81, 0]),
   midi.NoteOffEvent(tick=0, channel=1, data=[74, 0]),
   midi.NoteOnEvent(tick=0, channel=1, data=[81, 96]),
   midi.NoteOnEvent(tick=0, channel=1, data=[74, 88]),
   midi.NoteOffEvent(tick=480, channel=1, data=[81, 0]),
   midi.NoteOffEvent(tick=0, channel=1, data=[74, 0]),
   midi.NoteOnEvent(tick=0, channel=1, data=[81, 102]),
   midi.NoteOnEvent(tick=0, channel=1, data=[74, 95]),
   midi.NoteOffEvent(tick=960, channel=1, data=[81, 0]),
   midi.NoteOffEvent(tick=0, channel=1, data=[74, 0]),
   midi.NoteOnEvent(tick=11520, channel=1, data=[78, 98]),
   midi.NoteOffEvent(tick=480, channel=1, data=[78, 0]),
   midi.NoteOnEvent(tick=0, channel=1, data=[78, 98]),
   midi.NoteOffEvent(tick=480, channel=1, data=[78, 0]),
   midi.NoteOnEvent(tick=0, channel=1, data=[78, 104]),
   midi.NoteOffEvent(tick=960, channel=1, data=[78, 0]),
   midi.NoteOnEvent(tick=0, channel=1, data=[81, 103]),
   midi.NoteOnEvent(tick=0, channel=1, data=[78, 98]),
   midi.NoteOffEvent(tick=480, channel=1, data=[81, 0]),
   midi.NoteOffEvent(tick=0, channel=1, data=[78, 0]),
   midi.NoteOnEvent(tick=0, channel=1, data=[81, 103]),
   midi.NoteOnEvent(tick=0, channel=1, data=[78, 98]),
   midi.NoteOffEvent(tick=480, channel=1, data=[81, 0]),
   midi.NoteOffEvent(tick=0, channel=1, data=[78, 0]),
   midi.NoteOnEvent(tick=0, channel=1, data=[83, 114]),
   midi.NoteOnEvent(tick=0, channel=1, data=[79, 105]),
   midi.NoteOffEvent(tick=960, channel=1, data=[83, 0]),
   midi.NoteOffEvent(tick=0, channel=1, data=[79, 0]),
   midi.NoteOnEvent(tick=11520, channel=1, data=[77, 98]),
   midi.NoteOffEvent(tick=480, channel=1, data=[77, 0]),
   midi.NoteOnEvent(tick=0, channel=1, data=[77, 98]),
   midi.NoteOffEvent(tick=480, channel=1, data=[77, 0]),
   midi.NoteOnEvent(tick=0, channel=1, data=[77, 104]),
   midi.NoteOffEvent(tick=960, channel=1, data=[77, 0]),
   midi.NoteOnEvent(tick=1440, channel=1, data=[84, 123]),
   midi.NoteOnEvent(tick=0, channel=1, data=[72, 113]),
   midi.NoteOffEvent(tick=480, channel=1, data=[84, 0]),
   midi.NoteOffEvent(tick=0, channel=1, data=[72, 0]),
   midi.NoteOnEvent(tick=0, channel=1, data=[84, 121]),
   midi.NoteOnEvent(tick=0, channel=1, data=[72, 113]),
   midi.NoteOffEvent(tick=480, channel=1, data=[84, 0]),
   midi.NoteOffEvent(tick=0, channel=1, data=[72, 0]),
   midi.NoteOnEvent(tick=0, channel=1, data=[84, 120]),
   midi.NoteOnEvent(tick=0, channel=1, data=[72, 113]),
   midi.NoteOffEvent(tick=480, channel=1, data=[84, 0]),
   midi.NoteOffEvent(tick=0, channel=1, data=[72, 0]),
   midi.NoteOnEvent(tick=0, channel=1, data=[77, 105]),
   midi.NoteOffEvent(tick=1920, channel=1, data=[77, 0]),
   midi.NoteOnEvent(tick=0, channel=1, data=[79, 114]),
   midi.NoteOffEvent(tick=1920, channel=1, data=[79, 0]),
   midi.NoteOnEvent(tick=3840, channel=1, data=[77, 120]),
   midi.NoteOnEvent(tick=0, channel=1, data=[65, 120]),
   midi.NoteOffEvent(tick=1920, channel=1, data=[77, 0]),
   midi.NoteOffEvent(tick=0, channel=1, data=[65, 0]),
   midi.NoteOnEvent(tick=0, channel=1, data=[79, 121]),
   midi.NoteOnEvent(tick=0, channel=1, data=[67, 121]),
   midi.NoteOffEvent(tick=1920, channel=1, data=[79, 0]),
   midi.NoteOffEvent(tick=0, channel=1, data=[67, 0]),
   midi.NoteOnEvent(tick=3840, channel=1, data=[77, 120]),
   midi.NoteOnEvent(tick=0, channel=1, data=[65, 120]),
   midi.NoteOffEvent(tick=1920, channel=1, data=[77, 0]),
   midi.NoteOffEvent(tick=0, channel=1, data=[65, 0]),
   midi.NoteOnEvent(tick=0, channel=1, data=[78, 120]),
   midi.NoteOnEvent(tick=0, channel=1, data=[66, 120]),
   midi.NoteOffEvent(tick=1920, channel=1, data=[78, 0]),
   midi.NoteOffEvent(tick=0, channel=1, data=[66, 0]),
   midi.NoteOnEvent(tick=3840, channel=1, data=[81, 120]),
   midi.NoteOnEvent(tick=0, channel=1, data=[69, 120]),
   midi.NoteOffEvent(tick=1920, channel=1, data=[81, 0]),
   midi.NoteOffEvent(tick=0, channel=1, data=[69, 0]),
   midi.NoteOnEvent(tick=0, channel=1, data=[82, 121]),
   midi.NoteOnEvent(tick=0, channel=1, data=[70, 121]),
   midi.NoteOffEvent(tick=1920, channel=1, data=[82, 0]),
   midi.NoteOffEvent(tick=0, channel=1, data=[70, 0]),
   midi.NoteOnEvent(tick=13440, channel=1, data=[81, 65]),
   midi.NoteOffEvent(tick=1920, channel=1, data=[81, 0]),
   midi.NoteOnEvent(tick=1920, channel=1, data=[81, 65]),
   midi.NoteOffEvent(tick=1920, channel=1, data=[81, 0]),
   midi.NoteOnEvent(tick=1920, channel=1, data=[81, 42]),
   midi.NoteOffEvent(tick=1920, channel=1, data=[81, 0]),
   midi.NoteOnEvent(tick=1920, channel=1, data=[81, 42]),
   midi.NoteOffEvent(tick=1920, channel=1, data=[81, 0]),
   midi.NoteOnEvent(tick=1920, channel=1, data=[81, 42]),
   midi.NoteOffEvent(tick=1920, channel=1, data=[81, 0]),
   midi.NoteOnEvent(tick=1920, channel=1, data=[81, 42]),
   midi.NoteOffEvent(tick=1920, channel=1, data=[81, 0]),
   midi.NoteOnEvent(tick=480, channel=1, data=[86, 116]),
   midi.NoteOnEvent(tick=0, channel=1, data=[74, 113]),
   midi.NoteOffEvent(tick=480, channel=1, data=[86, 0]),
   midi.NoteOffEvent(tick=0, channel=1, data=[74, 0]),
   midi.NoteOnEvent(tick=0, channel=1, data=[86, 116]),
   midi.NoteOnEvent(tick=0, channel=1, data=[74, 113]),
   midi.NoteOffEvent(tick=480, channel=1, data=[86, 0]),
   midi.NoteOffEvent(tick=0, channel=1, data=[74, 0]),
   midi.NoteOnEvent(tick=0, channel=1, data=[86, 115]),
   midi.NoteOnEvent(tick=0, channel=1, data=[74, 113]),
   midi.NoteOffEvent(tick=480, channel=1, data=[86, 0]),
   midi.NoteOffEvent(tick=0, channel=1, data=[74, 0]),
   midi.NoteOnEvent(tick=0, channel=1, data=[83, 113]),
   midi.NoteOnEvent(tick=0, channel=1, data=[71, 112]),
   midi.NoteOffEvent(tick=1920, channel=1, data=[83, 0]),
   midi.NoteOffEvent(tick=0, channel=1, data=[71, 0]),
   midi.NoteOnEvent(tick=0, channel=1, data=[84, 118]),
   midi.NoteOnEvent(tick=0, channel=1, data=[72, 118]),
   midi.NoteOffEvent(tick=1920, channel=1, data=[84, 0]),
   midi.NoteOffEvent(tick=0, channel=1, data=[72, 0]),
   midi.NoteOnEvent(tick=0, channel=1, data=[81, 114]),
   midi.NoteOnEvent(tick=0, channel=1, data=[69, 114]),
   midi.NoteOffEvent(tick=3840, channel=1, data=[81, 0]),
   midi.NoteOffEvent(tick=0, channel=1, data=[69, 0]),
   midi.NoteOnEvent(tick=0, channel=1, data=[80, 41]),
   midi.NoteOffEvent(tick=1920, channel=1, data=[80, 0]),
   midi.NoteOnEvent(tick=1920, channel=1, data=[80, 42]),
   midi.NoteOffEvent(tick=1920, channel=1, data=[80, 0]),
   midi.NoteOnEvent(tick=1920, channel=1, data=[80, 42]),
   midi.NoteOffEvent(tick=1920, channel=1, data=[80, 0]),
   midi.NoteOnEvent(tick=1920, channel=1, data=[80, 42]),
   midi.NoteOffEvent(tick=1920, channel=1, data=[80, 0]),
   midi.NoteOnEvent(tick=2400, channel=1, data=[80, 113]),
   midi.NoteOffEvent(tick=480, channel=1, data=[80, 0]),
   midi.NoteOnEvent(tick=0, channel=1, data=[80, 113]),
   midi.NoteOffEvent(tick=480, channel=1, data=[80, 0]),
   midi.NoteOnEvent(tick=0, channel=1, data=[80, 113]),
   midi.NoteOffEvent(tick=480, channel=1, data=[80, 0]),
   midi.NoteOnEvent(tick=0, channel=1, data=[77, 112]),
   midi.NoteOffEvent(tick=2400, channel=1, data=[77, 0]),
   midi.NoteOnEvent(tick=0, channel=1, data=[80, 115]),
   midi.NoteOffEvent(tick=480, channel=1, data=[80, 0]),
   midi.NoteOnEvent(tick=0, channel=1, data=[80, 114]),
   midi.NoteOffEvent(tick=480, channel=1, data=[80, 0]),
   midi.NoteOnEvent(tick=0, channel=1, data=[80, 114]),
   midi.NoteOffEvent(tick=480, channel=1, data=[80, 0]),
   midi.NoteOnEvent(tick=0, channel=1, data=[77, 110]),
   midi.NoteOffEvent(tick=2400, channel=1, data=[77, 0]),
   midi.NoteOnEvent(tick=0, channel=1, data=[80, 115]),
   midi.NoteOffEvent(tick=480, channel=1, data=[80, 0]),
   midi.NoteOnEvent(tick=0, channel=1, data=[80, 115]),
   midi.NoteOffEvent(tick=480, channel=1, data=[80, 0]),
   midi.NoteOnEvent(tick=0, channel=1, data=[80, 114]),
   midi.NoteOffEvent(tick=480, channel=1, data=[80, 0]),
   midi.NoteOnEvent(tick=0, channel=1, data=[77, 110]),
   midi.NoteOffEvent(tick=480, channel=1, data=[77, 0]),
   midi.NoteOnEvent(tick=0, channel=1, data=[80, 117]),
   midi.NoteOffEvent(tick=480, channel=1, data=[80, 0]),
   midi.NoteOnEvent(tick=0, channel=1, data=[80, 116]),
   midi.NoteOffEvent(tick=480, channel=1, data=[80, 0]),
   midi.NoteOnEvent(tick=0, channel=1, data=[80, 116]),
   midi.NoteOffEvent(tick=480, channel=1, data=[80, 0]),
   midi.NoteOnEvent(tick=0, channel=1, data=[77, 108]),
   midi.NoteOffEvent(tick=480, channel=1, data=[77, 0]),
   midi.NoteOnEvent(tick=0, channel=1, data=[80, 118]),
   midi.NoteOffEvent(tick=480, channel=1, data=[80, 0]),
   midi.NoteOnEvent(tick=0, channel=1, data=[80, 117]),
   midi.NoteOffEvent(tick=480, channel=1, data=[80, 0]),
   midi.NoteOnEvent(tick=0, channel=1, data=[80, 116]),
   midi.NoteOffEvent(tick=480, channel=1, data=[80, 0]),
   midi.NoteOnEvent(tick=0, channel=1, data=[77, 107]),
   midi.NoteOnEvent(tick=0, channel=1, data=[65, 120]),
   midi.NoteOffEvent(tick=480, channel=1, data=[77, 0]),
   midi.NoteOffEvent(tick=0, channel=1, data=[65, 0]),
   midi.NoteOnEvent(tick=0, channel=1, data=[79, 113]),
   midi.NoteOnEvent(tick=0, channel=1, data=[67, 115]),
   midi.NoteOffEvent(tick=480, channel=1, data=[79, 0]),
   midi.NoteOffEvent(tick=0, channel=1, data=[67, 0]),
   midi.NoteOnEvent(tick=0, channel=1, data=[79, 113]),
   midi.NoteOnEvent(tick=0, channel=1, data=[67, 114]),
   midi.NoteOffEvent(tick=480, channel=1, data=[79, 0]),
   midi.NoteOffEvent(tick=0, channel=1, data=[67, 0]),
   midi.NoteOnEvent(tick=0, channel=1, data=[79, 113]),
   midi.NoteOnEvent(tick=0, channel=1, data=[67, 114]),
   midi.NoteOffEvent(tick=480, channel=1, data=[79, 0]),
   midi.NoteOffEvent(tick=0, channel=1, data=[67, 0]),
   midi.NoteOnEvent(tick=0, channel=1, data=[79, 120]),
   midi.NoteOnEvent(tick=0, channel=1, data=[75, 127]),
   midi.NoteOffEvent(tick=3840, channel=1, data=[79, 0]),
   midi.NoteOffEvent(tick=0, channel=1, data=[75, 0]),
   midi.NoteOnEvent(tick=2400, channel=1, data=[79, 113]),
   midi.NoteOnEvent(tick=0, channel=1, data=[77, 113]),
   midi.NoteOffEvent(tick=480, channel=1, data=[79, 0]),
   midi.NoteOffEvent(tick=0, channel=1, data=[77, 0]),
   midi.NoteOnEvent(tick=0, channel=1, data=[79, 113]),
   midi.NoteOnEvent(tick=0, channel=1, data=[77, 113]),
   midi.NoteOffEvent(tick=480, channel=1, data=[79, 0]),
   midi.NoteOffEvent(tick=0, channel=1, data=[77, 0]),
   midi.NoteOnEvent(tick=0, channel=1, data=[79, 113]),
   midi.NoteOnEvent(tick=0, channel=1, data=[77, 113]),
   midi.NoteOffEvent(tick=480, channel=1, data=[79, 0]),
   midi.NoteOffEvent(tick=0, channel=1, data=[77, 0]),
   midi.NoteOnEvent(tick=0, channel=1, data=[79, 120]),
   midi.NoteOnEvent(tick=0, channel=1, data=[74, 114]),
   midi.NoteOffEvent(tick=5760, channel=1, data=[79, 0]),
   midi.NoteOffEvent(tick=0, channel=1, data=[74, 0]),
   midi.NoteOnEvent(tick=3840, channel=1, data=[72, 65]),
   midi.NoteOffEvent(tick=7680, channel=1, data=[72, 0]),
   midi.NoteOnEvent(tick=0, channel=1, data=[74, 65]),
   midi.NoteOffEvent(tick=7680, channel=1, data=[74, 0]),
   midi.NoteOnEvent(tick=0, channel=1, data=[75, 65]),
   midi.NoteOffEvent(tick=1920, channel=1, data=[75, 0]),
   midi.NoteOnEvent(tick=0, channel=1, data=[74, 64]),
   midi.NoteOffEvent(tick=1920, channel=1, data=[74, 0]),
   midi.NoteOnEvent(tick=0, channel=1, data=[72, 64]),
   midi.NoteOffEvent(tick=1920, channel=1, data=[72, 0]),
   midi.NoteOnEvent(tick=0, channel=1, data=[71, 64]),
   midi.NoteOffEvent(tick=960, channel=1, data=[71, 0]),
   midi.NoteOnEvent(tick=0, channel=1, data=[72, 61]),
   midi.NoteOffEvent(tick=480, channel=1, data=[72, 0]),
   midi.NoteOnEvent(tick=0, channel=1, data=[74, 62]),
   midi.NoteOffEvent(tick=480, channel=1, data=[74, 0]),
   midi.NoteOnEvent(tick=0, channel=1, data=[75, 92]),
   midi.NoteOffEvent(tick=3840, channel=1, data=[75, 0]),
   midi.NoteOnEvent(tick=0, channel=1, data=[79, 104]),
   midi.NoteOffEvent(tick=3840, channel=1, data=[79, 0]),
   midi.NoteOnEvent(tick=0, channel=1, data=[77, 104]),
   midi.NoteOffEvent(tick=960, channel=1, data=[77, 0]),
   midi.NoteOnEvent(tick=0, channel=1, data=[75, 97]),
   midi.NoteOffEvent(tick=960, channel=1, data=[75, 0]),
   midi.NoteOnEvent(tick=0, channel=1, data=[74, 103]),
   midi.NoteOffEvent(tick=960, channel=1, data=[74, 0]),
   midi.NoteOnEvent(tick=0, channel=1, data=[75, 98]),
   midi.NoteOffEvent(tick=240, channel=1, data=[75, 0]),
   midi.NoteOnEvent(tick=0, channel=1, data=[74, 97]),
   midi.NoteOffEvent(tick=240, channel=1, data=[74, 0]),
   midi.NoteOnEvent(tick=0, channel=1, data=[72, 94]),
   midi.NoteOffEvent(tick=240, channel=1, data=[72, 0]),
   midi.NoteOnEvent(tick=0, channel=1, data=[74, 99]),
   midi.NoteOffEvent(tick=240, channel=1, data=[74, 0]),
   midi.NoteOnEvent(tick=0, channel=1, data=[77, 112]),
   midi.NoteOffEvent(tick=960, channel=1, data=[77, 0]),
   midi.NoteOnEvent(tick=0, channel=1, data=[75, 98]),
   midi.NoteOffEvent(tick=960, channel=1, data=[75, 0]),
   midi.NoteOnEvent(tick=0, channel=1, data=[74, 103]),
   midi.NoteOffEvent(tick=960, channel=1, data=[74, 0]),
   midi.NoteOnEvent(tick=2880, channel=1, data=[77, 65]),
   midi.NoteOnEvent(tick=0, channel=1, data=[74, 65]),
   midi.NoteOffEvent(tick=5760, channel=1, data=[77, 0]),
   midi.NoteOffEvent(tick=0, channel=1, data=[74, 0]),
   midi.NoteOnEvent(tick=0, channel=1, data=[75, 64]),
   midi.NoteOnEvent(tick=0, channel=1, data=[72, 64]),
   midi.NoteOffEvent(tick=960, channel=1, data=[75, 0]),
   midi.NoteOffEvent(tick=0, channel=1, data=[72, 0]),
   midi.NoteOnEvent(tick=2880, channel=1, data=[83, 91]),
   midi.NoteOffEvent(tick=3840, channel=1, data=[83, 0]),
   midi.NoteOnEvent(tick=0, channel=1, data=[84, 104]),
   midi.NoteOffEvent(tick=960, channel=1, data=[84, 0]),
   midi.NoteOnEvent(tick=2880, channel=1, data=[80, 102]),
   midi.NoteOnEvent(tick=0, channel=1, data=[77, 104]),
   midi.NoteOffEvent(tick=960, channel=1, data=[80, 0]),
   midi.NoteOffEvent(tick=0, channel=1, data=[77, 0]),
   midi.NoteOnEvent(tick=1440, channel=1, data=[79, 97]),
   midi.NoteOnEvent(tick=0, channel=1, data=[75, 97]),
   midi.NoteOffEvent(tick=480, channel=1, data=[79, 0]),
   midi.NoteOffEvent(tick=0, channel=1, data=[75, 0]),
   midi.NoteOnEvent(tick=0, channel=1, data=[79, 97]),
   midi.NoteOnEvent(tick=0, channel=1, data=[75, 97]),
   midi.NoteOffEvent(tick=480, channel=1, data=[79, 0]),
   midi.NoteOffEvent(tick=0, channel=1, data=[75, 0]),
   midi.NoteOnEvent(tick=0, channel=1, data=[79, 97]),
   midi.NoteOnEvent(tick=0, channel=1, data=[75, 97]),
   midi.NoteOffEvent(tick=480, channel=1, data=[79, 0]),
   midi.NoteOffEvent(tick=0, channel=1, data=[75, 0]),
   midi.NoteOnEvent(tick=0, channel=1, data=[79, 103]),
   midi.NoteOnEvent(tick=0, channel=1, data=[75, 103]),
   midi.NoteOffEvent(tick=960, channel=1, data=[79, 0]),
   midi.NoteOffEvent(tick=0, channel=1, data=[75, 0]),
   midi.NoteOnEvent(tick=960, channel=1, data=[80, 105]),
   midi.NoteOnEvent(tick=0, channel=1, data=[77, 107]),
   midi.NoteOffEvent(tick=960, channel=1, data=[80, 0]),
   midi.NoteOffEvent(tick=0, channel=1, data=[77, 0]),
   midi.NoteOnEvent(tick=960, channel=1, data=[79, 103]),
   midi.NoteOnEvent(tick=0, channel=1, data=[76, 104]),
   midi.NoteOffEvent(tick=960, channel=1, data=[79, 0]),
   midi.NoteOffEvent(tick=0, channel=1, data=[76, 0]),
   midi.NoteOnEvent(tick=960, channel=1, data=[80, 104]),
   midi.NoteOnEvent(tick=0, channel=1, data=[77, 105]),
   midi.NoteOffEvent(tick=960, channel=1, data=[80, 0]),
   midi.NoteOffEvent(tick=0, channel=1, data=[77, 0]),
   midi.NoteOnEvent(tick=960, channel=1, data=[82, 106]),
   midi.NoteOnEvent(tick=0, channel=1, data=[79, 106]),
   midi.NoteOffEvent(tick=960, channel=1, data=[82, 0]),
   midi.NoteOffEvent(tick=0, channel=1, data=[79, 0]),
   midi.NoteOnEvent(tick=960, channel=1, data=[80, 103]),
   midi.NoteOnEvent(tick=0, channel=1, data=[77, 103]),
   midi.NoteOffEvent(tick=960, channel=1, data=[80, 0]),
   midi.NoteOffEvent(tick=0, channel=1, data=[77, 0]),
   midi.NoteOnEvent(tick=960, channel=1, data=[80, 103]),
   midi.NoteOnEvent(tick=0, channel=1, data=[77, 103]),
   midi.NoteOffEvent(tick=960, channel=1, data=[80, 0]),
   midi.NoteOffEvent(tick=0, channel=1, data=[77, 0]),
   midi.NoteOnEvent(tick=960, channel=1, data=[79, 102]),
   midi.NoteOnEvent(tick=0, channel=1, data=[75, 102]),
   midi.NoteOffEvent(tick=7680, channel=1, data=[79, 0]),
   midi.NoteOffEvent(tick=0, channel=1, data=[75, 0]),
   midi.NoteOnEvent(tick=0, channel=1, data=[79, 104]),
   midi.NoteOnEvent(tick=0, channel=1, data=[77, 104]),
   midi.NoteOffEvent(tick=6720, channel=1, data=[79, 0]),
   midi.NoteOffEvent(tick=0, channel=1, data=[77, 0]),
   midi.NoteOnEvent(tick=0, channel=1, data=[79, 98]),
   midi.NoteOnEvent(tick=0, channel=1, data=[75, 98]),
   midi.NoteOffEvent(tick=960, channel=1, data=[79, 0]),
   midi.NoteOffEvent(tick=0, channel=1, data=[75, 0]),
   midi.NoteOnEvent(tick=0, channel=1, data=[81, 122]),
   midi.NoteOnEvent(tick=0, channel=1, data=[78, 122]),
   midi.NoteOffEvent(tick=7680, channel=1, data=[81, 0]),
   midi.NoteOffEvent(tick=0, channel=1, data=[78, 0]),
   midi.NoteOnEvent(tick=0, channel=1, data=[81, 120]),
   midi.NoteOnEvent(tick=0, channel=1, data=[78, 120]),
   midi.NoteOffEvent(tick=960, channel=1, data=[81, 0]),
   midi.NoteOffEvent(tick=0, channel=1, data=[78, 0]),
   midi.NoteOnEvent(tick=2880, channel=1, data=[79, 119]),
   midi.NoteOnEvent(tick=0, channel=1, data=[74, 118]),
   midi.NoteOffEvent(tick=960, channel=1, data=[79, 0]),
   midi.NoteOffEvent(tick=0, channel=1, data=[74, 0]),
   midi.NoteOnEvent(tick=16320, channel=1, data=[76, 65]),
   midi.NoteOnEvent(tick=0, channel=1, data=[72, 65]),
   midi.NoteOnEvent(tick=1920, channel=1, data=[77, 65]),
   midi.NoteOnEvent(tick=0, channel=1, data=[74, 65]),
   midi.NoteOffEvent(tick=75, channel=1, data=[76, 0]),
   midi.NoteOffEvent(tick=0, channel=1, data=[72, 0]),
   midi.NoteOffEvent(tick=1654, channel=1, data=[77, 0]),
   midi.NoteOffEvent(tick=0, channel=1, data=[74, 0]),
   midi.NoteOnEvent(tick=191, channel=1, data=[77, 65]),
   midi.NoteOnEvent(tick=0, channel=1, data=[71, 63]),
   midi.NoteOnEvent(tick=1920, channel=1, data=[76, 64]),
   midi.NoteOnEvent(tick=0, channel=1, data=[72, 65]),
   midi.NoteOffEvent(tick=75, channel=1, data=[77, 0]),
   midi.NoteOffEvent(tick=0, channel=1, data=[71, 0]),
   midi.NoteOffEvent(tick=1654, channel=1, data=[76, 0]),
   midi.NoteOffEvent(tick=0, channel=1, data=[72, 0]),
   midi.NoteOnEvent(tick=7871, channel=1, data=[76, 65]),
   midi.NoteOnEvent(tick=0, channel=1, data=[72, 65]),
   midi.NoteOnEvent(tick=1920, channel=1, data=[77, 65]),
   midi.NoteOnEvent(tick=0, channel=1, data=[74, 65]),
   midi.NoteOffEvent(tick=75, channel=1, data=[76, 0]),
   midi.NoteOffEvent(tick=0, channel=1, data=[72, 0]),
   midi.NoteOffEvent(tick=1654, channel=1, data=[77, 0]),
   midi.NoteOffEvent(tick=0, channel=1, data=[74, 0]),
   midi.NoteOnEvent(tick=191, channel=1, data=[77, 65]),
   midi.NoteOnEvent(tick=0, channel=1, data=[71, 63]),
   midi.NoteOnEvent(tick=1920, channel=1, data=[76, 64]),
   midi.NoteOnEvent(tick=0, channel=1, data=[72, 65]),
   midi.NoteOffEvent(tick=75, channel=1, data=[77, 0]),
   midi.NoteOffEvent(tick=0, channel=1, data=[71, 0]),
   midi.NoteOffEvent(tick=1654, channel=1, data=[76, 0]),
   midi.NoteOffEvent(tick=0, channel=1, data=[72, 0]),
   midi.NoteOnEvent(tick=44351, channel=1, data=[83, 120]),
   midi.NoteOnEvent(tick=0, channel=1, data=[79, 120]),
   midi.NoteOffEvent(tick=2880, channel=1, data=[83, 0]),
   midi.NoteOffEvent(tick=0, channel=1, data=[79, 0]),
   midi.NoteOnEvent(tick=0, channel=1, data=[86, 114]),
   midi.NoteOnEvent(tick=0, channel=1, data=[79, 113]),
   midi.NoteOffEvent(tick=960, channel=1, data=[86, 0]),
   midi.NoteOffEvent(tick=0, channel=1, data=[79, 0]),
   midi.NoteOnEvent(tick=0, channel=1, data=[84, 118]),
   midi.NoteOnEvent(tick=0, channel=1, data=[79, 120]),
   midi.NoteOffEvent(tick=960, channel=1, data=[84, 0]),
   midi.NoteOffEvent(tick=0, channel=1, data=[79, 0]),
   midi.NoteOnEvent(tick=960, channel=1, data=[79, 113]),
   midi.NoteOnEvent(tick=0, channel=1, data=[77, 117]),
   midi.NoteOffEvent(tick=960, channel=1, data=[79, 0]),
   midi.NoteOffEvent(tick=0, channel=1, data=[77, 0]),
   midi.NoteOnEvent(tick=960, channel=1, data=[79, 117]),
   midi.NoteOnEvent(tick=0, channel=1, data=[72, 113]),
   midi.NoteOffEvent(tick=960, channel=1, data=[79, 0]),
   midi.NoteOffEvent(tick=0, channel=1, data=[72, 0]),
   midi.NoteOnEvent(tick=960, channel=1, data=[84, 125]),
   midi.NoteOnEvent(tick=0, channel=1, data=[74, 119]),
   midi.NoteOffEvent(tick=960, channel=1, data=[84, 0]),
   midi.NoteOffEvent(tick=0, channel=1, data=[74, 0]),
   midi.NoteOnEvent(tick=960, channel=1, data=[84, 122]),
   midi.NoteOnEvent(tick=0, channel=1, data=[76, 122]),
   midi.NoteOffEvent(tick=960, channel=1, data=[84, 0]),
   midi.NoteOffEvent(tick=0, channel=1, data=[76, 0]),
   midi.NoteOnEvent(tick=960, channel=1, data=[83, 119]),
   midi.NoteOnEvent(tick=0, channel=1, data=[74, 119]),
   midi.NoteOffEvent(tick=960, channel=1, data=[83, 0]),
   midi.NoteOffEvent(tick=0, channel=1, data=[74, 0]),
   midi.NoteOnEvent(tick=960, channel=1, data=[86, 123]),
   midi.NoteOnEvent(tick=0, channel=1, data=[77, 123]),
   midi.NoteOffEvent(tick=3840, channel=1, data=[86, 0]),
   midi.NoteOffEvent(tick=0, channel=1, data=[77, 0]),
   midi.NoteOnEvent(tick=0, channel=1, data=[84, 119]),
   midi.NoteOnEvent(tick=0, channel=1, data=[76, 120]),
   midi.NoteOffEvent(tick=960, channel=1, data=[84, 0]),
   midi.NoteOffEvent(tick=0, channel=1, data=[76, 0]),
   midi.NoteOnEvent(tick=0, channel=1, data=[84, 113]),
   midi.NoteOnEvent(tick=0, channel=1, data=[76, 113]),
   midi.NoteOffEvent(tick=960, channel=1, data=[84, 0]),
   midi.NoteOffEvent(tick=0, channel=1, data=[76, 0]),
   midi.NoteOnEvent(tick=960, channel=1, data=[83, 112]),
   midi.NoteOnEvent(tick=0, channel=1, data=[74, 111]),
   midi.NoteOffEvent(tick=960, channel=1, data=[83, 0]),
   midi.NoteOffEvent(tick=0, channel=1, data=[74, 0]),
   midi.NoteOnEvent(tick=960, channel=1, data=[84, 114]),
   midi.NoteOnEvent(tick=0, channel=1, data=[76, 114]),
   midi.NoteOffEvent(tick=960, channel=1, data=[84, 0]),
   midi.NoteOffEvent(tick=0, channel=1, data=[76, 0]),
   midi.NoteOnEvent(tick=960, channel=1, data=[84, 113]),
   midi.NoteOnEvent(tick=0, channel=1, data=[74, 111]),
   midi.NoteOffEvent(tick=960, channel=1, data=[84, 0]),
   midi.NoteOffEvent(tick=0, channel=1, data=[74, 0]),
   midi.NoteOnEvent(tick=960, channel=1, data=[84, 113]),
   midi.NoteOnEvent(tick=0, channel=1, data=[76, 114]),
   midi.NoteOffEvent(tick=960, channel=1, data=[84, 0]),
   midi.NoteOffEvent(tick=0, channel=1, data=[76, 0]),
   midi.NoteOnEvent(tick=960, channel=1, data=[83, 112]),
   midi.NoteOnEvent(tick=0, channel=1, data=[74, 112]),
   midi.NoteOffEvent(tick=960, channel=1, data=[83, 0]),
   midi.NoteOffEvent(tick=0, channel=1, data=[74, 0]),
   midi.NoteOnEvent(tick=0, channel=1, data=[84, 121]),
   midi.NoteOnEvent(tick=0, channel=1, data=[76, 122]),
   midi.NoteOffEvent(tick=480, channel=1, data=[84, 0]),
   midi.NoteOffEvent(tick=0, channel=1, data=[76, 0]),
   midi.NoteOnEvent(tick=0, channel=1, data=[76, 99]),
   midi.NoteOffEvent(tick=480, channel=1, data=[76, 0]),
   midi.NoteOnEvent(tick=0, channel=1, data=[76, 100]),
   midi.NoteOffEvent(tick=480, channel=1, data=[76, 0]),
   midi.NoteOnEvent(tick=0, channel=1, data=[76, 101]),
   midi.NoteOffEvent(tick=480, channel=1, data=[76, 0]),
   midi.NoteOnEvent(tick=0, channel=1, data=[72, 102]),
   midi.NoteOffEvent(tick=480, channel=1, data=[72, 0]),
   midi.NoteOnEvent(tick=0, channel=1, data=[79, 121]),
   midi.NoteOffEvent(tick=480, channel=1, data=[79, 0]),
   midi.NoteOnEvent(tick=0, channel=1, data=[79, 120]),
   midi.NoteOffEvent(tick=480, channel=1, data=[79, 0]),
   midi.NoteOnEvent(tick=0, channel=1, data=[79, 119]),
   midi.NoteOffEvent(tick=480, channel=1, data=[79, 0]),
   midi.NoteOnEvent(tick=0, channel=1, data=[76, 110]),
   midi.NoteOffEvent(tick=480, channel=1, data=[76, 0]),
   midi.NoteOnEvent(tick=0, channel=1, data=[72, 96]),
   midi.NoteOffEvent(tick=480, channel=1, data=[72, 0]),
   midi.NoteOnEvent(tick=0, channel=1, data=[72, 96]),
   midi.NoteOffEvent(tick=480, channel=1, data=[72, 0]),
   midi.NoteOnEvent(tick=0, channel=1, data=[72, 97]),
   midi.NoteOffEvent(tick=480, channel=1, data=[72, 0]),
   midi.NoteOnEvent(tick=0, channel=1, data=[67, 102]),
   midi.NoteOffEvent(tick=2400, channel=1, data=[67, 0]),
   midi.NoteOnEvent(tick=0, channel=1, data=[76, 121]),
   midi.NoteOffEvent(tick=480, channel=1, data=[76, 0]),
   midi.NoteOnEvent(tick=0, channel=1, data=[76, 120]),
   midi.NoteOffEvent(tick=480, channel=1, data=[76, 0]),
   midi.NoteOnEvent(tick=0, channel=1, data=[76, 119]),
   midi.NoteOffEvent(tick=480, channel=1, data=[76, 0]),
   midi.NoteOnEvent(tick=0, channel=1, data=[72, 110]),
   midi.NoteOffEvent(tick=480, channel=1, data=[72, 0]),
   midi.NoteOnEvent(tick=0, channel=1, data=[79, 127]),
   midi.NoteOffEvent(tick=480, channel=1, data=[79, 0]),
   midi.NoteOnEvent(tick=0, channel=1, data=[79, 127]),
   midi.NoteOffEvent(tick=480, channel=1, data=[79, 0]),
   midi.NoteOnEvent(tick=0, channel=1, data=[79, 125]),
   midi.NoteOffEvent(tick=480, channel=1, data=[79, 0]),
   midi.NoteOnEvent(tick=0, channel=1, data=[76, 116]),
   midi.NoteOffEvent(tick=480, channel=1, data=[76, 0]),
   midi.NoteOnEvent(tick=0, channel=1, data=[72, 96]),
   midi.NoteOffEvent(tick=480, channel=1, data=[72, 0]),
   midi.NoteOnEvent(tick=0, channel=1, data=[72, 98]),
   midi.NoteOffEvent(tick=480, channel=1, data=[72, 0]),
   midi.NoteOnEvent(tick=0, channel=1, data=[72, 99]),
   midi.NoteOffEvent(tick=480, channel=1, data=[72, 0]),
   midi.NoteOnEvent(tick=0, channel=1, data=[67, 102]),
   midi.NoteOffEvent(tick=480, channel=1, data=[67, 0]),
   midi.NoteOnEvent(tick=0, channel=1, data=[74, 116]),
   midi.NoteOnEvent(tick=0, channel=1, data=[71, 113]),
   midi.NoteOffEvent(tick=480, channel=1, data=[74, 0]),
   midi.NoteOffEvent(tick=0, channel=1, data=[71, 0]),
   midi.NoteOnEvent(tick=0, channel=1, data=[74, 116]),
   midi.NoteOnEvent(tick=0, channel=1, data=[71, 113]),
   midi.NoteOffEvent(tick=480, channel=1, data=[74, 0]),
   midi.NoteOffEvent(tick=0, channel=1, data=[71, 0]),
   midi.NoteOnEvent(tick=0, channel=1, data=[74, 116]),
   midi.NoteOnEvent(tick=0, channel=1, data=[71, 113]),
   midi.NoteOffEvent(tick=480, channel=1, data=[74, 0]),
   midi.NoteOffEvent(tick=0, channel=1, data=[71, 0]),
   midi.NoteOnEvent(tick=0, channel=1, data=[76, 127]),
   midi.NoteOnEvent(tick=0, channel=1, data=[72, 122]),
   midi.NoteOffEvent(tick=960, channel=1, data=[76, 0]),
   midi.NoteOffEvent(tick=0, channel=1, data=[72, 0]),
   midi.NoteOnEvent(tick=1440, channel=1, data=[74, 114]),
   midi.NoteOnEvent(tick=0, channel=1, data=[71, 112]),
   midi.NoteOffEvent(tick=480, channel=1, data=[74, 0]),
   midi.NoteOffEvent(tick=0, channel=1, data=[71, 0]),
   midi.NoteOnEvent(tick=0, channel=1, data=[74, 114]),
   midi.NoteOnEvent(tick=0, channel=1, data=[71, 113]),
   midi.NoteOffEvent(tick=480, channel=1, data=[74, 0]),
   midi.NoteOffEvent(tick=0, channel=1, data=[71, 0]),
   midi.NoteOnEvent(tick=0, channel=1, data=[74, 114]),
   midi.NoteOnEvent(tick=0, channel=1, data=[71, 113]),
   midi.NoteOffEvent(tick=480, channel=1, data=[74, 0]),
   midi.NoteOffEvent(tick=0, channel=1, data=[71, 0]),
   midi.NoteOnEvent(tick=0, channel=1, data=[76, 127]),
   midi.NoteOnEvent(tick=0, channel=1, data=[72, 123]),
   midi.NoteOffEvent(tick=960, channel=1, data=[76, 0]),
   midi.NoteOffEvent(tick=0, channel=1, data=[72, 0]),
   midi.NoteOnEvent(tick=1440, channel=1, data=[79, 121]),
   midi.NoteOnEvent(tick=0, channel=1, data=[74, 118]),
   midi.NoteOffEvent(tick=480, channel=1, data=[79, 0]),
   midi.NoteOffEvent(tick=0, channel=1, data=[74, 0]),
   midi.NoteOnEvent(tick=0, channel=1, data=[79, 119]),
   midi.NoteOnEvent(tick=0, channel=1, data=[74, 117]),
   midi.NoteOffEvent(tick=480, channel=1, data=[79, 0]),
   midi.NoteOffEvent(tick=0, channel=1, data=[74, 0]),
   midi.NoteOnEvent(tick=0, channel=1, data=[79, 118]),
   midi.NoteOnEvent(tick=0, channel=1, data=[74, 116]),
   midi.NoteOffEvent(tick=480, channel=1, data=[79, 0]),
   midi.NoteOffEvent(tick=0, channel=1, data=[74, 0]),
   midi.NoteOnEvent(tick=0, channel=1, data=[79, 124]),
   midi.NoteOnEvent(tick=0, channel=1, data=[76, 127]),
   midi.NoteOffEvent(tick=480, channel=1, data=[79, 0]),
   midi.NoteOffEvent(tick=0, channel=1, data=[76, 0]),
   midi.NoteOnEvent(tick=0, channel=1, data=[84, 127]),
   midi.NoteOnEvent(tick=0, channel=1, data=[72, 106]),
   midi.NoteOffEvent(tick=480, channel=1, data=[84, 0]),
   midi.NoteOffEvent(tick=0, channel=1, data=[72, 0]),
   midi.NoteOnEvent(tick=0, channel=1, data=[84, 127]),
   midi.NoteOnEvent(tick=0, channel=1, data=[72, 106]),
   midi.NoteOffEvent(tick=480, channel=1, data=[84, 0]),
   midi.NoteOffEvent(tick=0, channel=1, data=[72, 0]),
   midi.NoteOnEvent(tick=0, channel=1, data=[84, 126]),
   midi.NoteOnEvent(tick=0, channel=1, data=[72, 107]),
   midi.NoteOffEvent(tick=480, channel=1, data=[84, 0]),
   midi.NoteOffEvent(tick=0, channel=1, data=[72, 0]),
   midi.NoteOnEvent(tick=0, channel=1, data=[84, 127]),
   midi.NoteOnEvent(tick=0, channel=1, data=[72, 114]),
   midi.NoteOffEvent(tick=2400, channel=1, data=[84, 0]),
   midi.NoteOffEvent(tick=0, channel=1, data=[72, 0]),
   midi.NoteOnEvent(tick=0, channel=1, data=[84, 117]),
   midi.NoteOnEvent(tick=0, channel=1, data=[72, 111]),
   midi.NoteOffEvent(tick=480, channel=1, data=[84, 0]),
   midi.NoteOffEvent(tick=0, channel=1, data=[72, 0]),
   midi.NoteOnEvent(tick=0, channel=1, data=[84, 116]),
   midi.NoteOnEvent(tick=0, channel=1, data=[72, 112]),
   midi.NoteOffEvent(tick=480, channel=1, data=[84, 0]),
   midi.NoteOffEvent(tick=0, channel=1, data=[72, 0]),
   midi.NoteOnEvent(tick=0, channel=1, data=[84, 115]),
   midi.NoteOnEvent(tick=0, channel=1, data=[72, 112]),
   midi.NoteOffEvent(tick=480, channel=1, data=[84, 0]),
   midi.NoteOffEvent(tick=0, channel=1, data=[72, 0]),
   midi.NoteOnEvent(tick=0, channel=1, data=[84, 121]),
   midi.NoteOnEvent(tick=0, channel=1, data=[72, 119]),
   midi.NoteOffEvent(tick=2400, channel=1, data=[84, 0]),
   midi.NoteOffEvent(tick=0, channel=1, data=[72, 0]),
   midi.NoteOnEvent(tick=0, channel=1, data=[84, 113]),
   midi.NoteOnEvent(tick=0, channel=1, data=[72, 113]),
   midi.NoteOffEvent(tick=480, channel=1, data=[84, 0]),
   midi.NoteOffEvent(tick=0, channel=1, data=[72, 0]),
   midi.NoteOnEvent(tick=0, channel=1, data=[84, 113]),
   midi.NoteOnEvent(tick=0, channel=1, data=[72, 113]),
   midi.NoteOffEvent(tick=480, channel=1, data=[84, 0]),
   midi.NoteOffEvent(tick=0, channel=1, data=[72, 0]),
   midi.NoteOnEvent(tick=0, channel=1, data=[84, 113]),
   midi.NoteOnEvent(tick=0, channel=1, data=[72, 113]),
   midi.NoteOffEvent(tick=480, channel=1, data=[84, 0]),
   midi.NoteOffEvent(tick=0, channel=1, data=[72, 0]),
   midi.NoteOnEvent(tick=0, channel=1, data=[84, 120]),
   midi.NoteOnEvent(tick=0, channel=1, data=[72, 120]),
   midi.NoteOffEvent(tick=2400, channel=1, data=[84, 0]),
   midi.NoteOffEvent(tick=0, channel=1, data=[72, 0]),
   midi.NoteOnEvent(tick=0, channel=1, data=[84, 113]),
   midi.NoteOnEvent(tick=0, channel=1, data=[72, 113]),
   midi.NoteOffEvent(tick=480, channel=1, data=[84, 0]),
   midi.NoteOffEvent(tick=0, channel=1, data=[72, 0]),
   midi.NoteOnEvent(tick=0, channel=1, data=[84, 113]),
   midi.NoteOnEvent(tick=0, channel=1, data=[72, 113]),
   midi.NoteOffEvent(tick=480, channel=1, data=[84, 0]),
   midi.NoteOffEvent(tick=0, channel=1, data=[72, 0]),
   midi.NoteOnEvent(tick=0, channel=1, data=[84, 113]),
   midi.NoteOnEvent(tick=0, channel=1, data=[72, 113]),
   midi.NoteOffEvent(tick=480, channel=1, data=[84, 0]),
   midi.NoteOffEvent(tick=0, channel=1, data=[72, 0]),
   midi.NoteOnEvent(tick=0, channel=1, data=[84, 120]),
   midi.NoteOnEvent(tick=0, channel=1, data=[72, 120]),
   midi.NoteOffEvent(tick=1920, channel=1, data=[84, 0]),
   midi.NoteOffEvent(tick=0, channel=1, data=[72, 0]),
   midi.NoteOnEvent(tick=0, channel=1, data=[85, 122]),
   midi.NoteOnEvent(tick=0, channel=1, data=[73, 122]),
   midi.NoteOffEvent(tick=960, channel=1, data=[85, 0]),
   midi.NoteOnEvent(tick=0, channel=1, data=[80, 103]),
   midi.NoteOffEvent(tick=6720, channel=1, data=[73, 0]),
   midi.NoteOffEvent(tick=0, channel=1, data=[80, 0]),
   midi.NoteOnEvent(tick=0, channel=1, data=[80, 120]),
   midi.NoteOnEvent(tick=0, channel=1, data=[73, 120]),
   midi.NoteOffEvent(tick=960, channel=1, data=[80, 0]),
   midi.NoteOffEvent(tick=0, channel=1, data=[73, 0]),
   midi.NoteOnEvent(tick=7200, channel=1, data=[81, 113]),
   midi.NoteOnEvent(tick=0, channel=1, data=[75, 113]),
   midi.NoteOffEvent(tick=480, channel=1, data=[81, 0]),
   midi.NoteOffEvent(tick=0, channel=1, data=[75, 0]),
   midi.NoteOnEvent(tick=0, channel=1, data=[81, 113]),
   midi.NoteOnEvent(tick=0, channel=1, data=[75, 113]),
   midi.NoteOffEvent(tick=480, channel=1, data=[81, 0]),
   midi.NoteOffEvent(tick=0, channel=1, data=[75, 0]),
   midi.NoteOnEvent(tick=0, channel=1, data=[81, 113]),
   midi.NoteOnEvent(tick=0, channel=1, data=[75, 113]),
   midi.NoteOffEvent(tick=480, channel=1, data=[81, 0]),
   midi.NoteOffEvent(tick=0, channel=1, data=[75, 0]),
   midi.NoteOnEvent(tick=0, channel=1, data=[81, 120]),
   midi.NoteOnEvent(tick=0, channel=1, data=[75, 120]),
   midi.NoteOffEvent(tick=7680, channel=1, data=[81, 0]),
   midi.NoteOffEvent(tick=0, channel=1, data=[75, 0]),
   midi.NoteOnEvent(tick=0, channel=1, data=[81, 120]),
   midi.NoteOnEvent(tick=0, channel=1, data=[75, 120]),
   midi.NoteOffEvent(tick=960, channel=1, data=[81, 0]),
   midi.NoteOffEvent(tick=0, channel=1, data=[75, 0]),
   midi.NoteOnEvent(tick=1440, channel=1, data=[72, 108]),
   midi.NoteOffEvent(tick=480, channel=1, data=[72, 0]),
   midi.NoteOnEvent(tick=0, channel=1, data=[72, 109]),
   midi.NoteOffEvent(tick=480, channel=1, data=[72, 0]),
   midi.NoteOnEvent(tick=0, channel=1, data=[72, 110]),
   midi.NoteOffEvent(tick=480, channel=1, data=[72, 0]),
   midi.NoteOnEvent(tick=0, channel=1, data=[75, 126]),
   midi.NoteOffEvent(tick=960, channel=1, data=[75, 0]),
   midi.NoteOnEvent(tick=6720, channel=1, data=[83, 120]),
   midi.NoteOnEvent(tick=0, channel=1, data=[77, 120]),
   midi.NoteOffEvent(tick=3840, channel=1, data=[83, 0]),
   midi.NoteOffEvent(tick=0, channel=1, data=[77, 0]),
   midi.NoteOnEvent(tick=3840, channel=1, data=[83, 120]),
   midi.NoteOnEvent(tick=0, channel=1, data=[77, 120]),
   midi.NoteOffEvent(tick=3840, channel=1, data=[83, 0]),
   midi.NoteOffEvent(tick=0, channel=1, data=[77, 0]),
   midi.NoteOnEvent(tick=7680, channel=1, data=[84, 120]),
   midi.NoteOnEvent(tick=0, channel=1, data=[72, 120]),
   midi.NoteOffEvent(tick=960, channel=1, data=[84, 0]),
   midi.NoteOffEvent(tick=0, channel=1, data=[72, 0]),
   midi.NoteOnEvent(tick=0, channel=1, data=[86, 115]),
   midi.NoteOnEvent(tick=0, channel=1, data=[74, 115]),
   midi.NoteOffEvent(tick=960, channel=1, data=[86, 0]),
   midi.NoteOffEvent(tick=0, channel=1, data=[74, 0]),
   midi.NoteOnEvent(tick=0, channel=1, data=[82, 115]),
   midi.NoteOnEvent(tick=0, channel=1, data=[70, 115]),
   midi.NoteOffEvent(tick=960, channel=1, data=[82, 0]),
   midi.NoteOffEvent(tick=0, channel=1, data=[70, 0]),
   midi.NoteOnEvent(tick=0, channel=1, data=[84, 113]),
   midi.NoteOnEvent(tick=0, channel=1, data=[72, 113]),
   midi.NoteOffEvent(tick=960, channel=1, data=[84, 0]),
   midi.NoteOffEvent(tick=0, channel=1, data=[72, 0]),
   midi.NoteOnEvent(tick=0, channel=1, data=[80, 111]),
   midi.NoteOnEvent(tick=0, channel=1, data=[68, 111]),
   midi.NoteOffEvent(tick=960, channel=1, data=[80, 0]),
   midi.NoteOffEvent(tick=0, channel=1, data=[68, 0]),
   midi.NoteOnEvent(tick=0, channel=1, data=[82, 112]),
   midi.NoteOnEvent(tick=0, channel=1, data=[70, 112]),
   midi.NoteOffEvent(tick=960, channel=1, data=[82, 0]),
   midi.NoteOffEvent(tick=0, channel=1, data=[70, 0]),
   midi.NoteOnEvent(tick=0, channel=1, data=[79, 111]),
   midi.NoteOnEvent(tick=0, channel=1, data=[67, 111]),
   midi.NoteOffEvent(tick=960, channel=1, data=[79, 0]),
   midi.NoteOffEvent(tick=0, channel=1, data=[67, 0]),
   midi.NoteOnEvent(tick=0, channel=1, data=[80, 110]),
   midi.NoteOffEvent(tick=960, channel=1, data=[80, 0]),
   midi.NoteOnEvent(tick=0, channel=1, data=[77, 110]),
   midi.NoteOffEvent(tick=960, channel=1, data=[77, 0]),
   midi.NoteOnEvent(tick=0, channel=1, data=[75, 102]),
   midi.NoteOffEvent(tick=960, channel=1, data=[75, 0]),
   midi.NoteOnEvent(tick=0, channel=1, data=[74, 109]),
   midi.NoteOffEvent(tick=960, channel=1, data=[74, 0]),
   midi.NoteOnEvent(tick=0, channel=1, data=[75, 109]),
   midi.NoteOffEvent(tick=960, channel=1, data=[75, 0]),
   midi.NoteOnEvent(tick=0, channel=1, data=[77, 123]),
   midi.NoteOffEvent(tick=960, channel=1, data=[77, 0]),
   midi.NoteOnEvent(tick=0, channel=1, data=[75, 111]),
   midi.NoteOffEvent(tick=960, channel=1, data=[75, 0]),
   midi.NoteOnEvent(tick=0, channel=1, data=[77, 124]),
   midi.NoteOffEvent(tick=960, channel=1, data=[77, 0]),
   midi.NoteOnEvent(tick=0, channel=1, data=[79, 121]),
   midi.NoteOffEvent(tick=960, channel=1, data=[79, 0]),
   midi.NoteOnEvent(tick=0, channel=1, data=[80, 127]),
   midi.NoteOffEvent(tick=960, channel=1, data=[80, 0]),
   midi.NoteOnEvent(tick=0, channel=1, data=[79, 116]),
   midi.NoteOffEvent(tick=960, channel=1, data=[79, 0]),
   midi.NoteOnEvent(tick=0, channel=1, data=[80, 124]),
   midi.NoteOffEvent(tick=960, channel=1, data=[80, 0]),
   midi.NoteOnEvent(tick=0, channel=1, data=[77, 108]),
   midi.NoteOnEvent(tick=0, channel=1, data=[71, 113]),
   midi.NoteOffEvent(tick=960, channel=1, data=[77, 0]),
   midi.NoteOffEvent(tick=0, channel=1, data=[71, 0]),
   midi.NoteOnEvent(tick=0, channel=1, data=[77, 116]),
   midi.NoteOnEvent(tick=0, channel=1, data=[72, 121]),
   midi.NoteOffEvent(tick=960, channel=1, data=[77, 0]),
   midi.NoteOffEvent(tick=0, channel=1, data=[72, 0]),
   midi.NoteOnEvent(tick=0, channel=1, data=[77, 110]),
   midi.NoteOnEvent(tick=0, channel=1, data=[71, 112]),
   midi.NoteOffEvent(tick=960, channel=1, data=[77, 0]),
   midi.NoteOffEvent(tick=0, channel=1, data=[71, 0]),
   midi.NoteOnEvent(tick=0, channel=1, data=[77, 118]),
   midi.NoteOnEvent(tick=0, channel=1, data=[72, 121]),
   midi.NoteOffEvent(tick=960, channel=1, data=[77, 0]),
   midi.NoteOffEvent(tick=0, channel=1, data=[72, 0]),
   midi.NoteOnEvent(tick=0, channel=1, data=[77, 112]),
   midi.NoteOnEvent(tick=0, channel=1, data=[74, 118]),
   midi.NoteOffEvent(tick=960, channel=1, data=[77, 0]),
   midi.NoteOffEvent(tick=0, channel=1, data=[74, 0]),
   midi.NoteOnEvent(tick=0, channel=1, data=[75, 114]),
   midi.NoteOnEvent(tick=0, channel=1, data=[72, 119]),
   midi.NoteOffEvent(tick=3840, channel=1, data=[75, 0]),
   midi.NoteOffEvent(tick=0, channel=1, data=[72, 0]),
   midi.NoteOnEvent(tick=0, channel=1, data=[77, 120]),
   midi.NoteOnEvent(tick=0, channel=1, data=[72, 119]),
   midi.NoteOffEvent(tick=3840, channel=1, data=[77, 0]),
   midi.NoteOffEvent(tick=0, channel=1, data=[72, 0]),
   midi.NoteOnEvent(tick=0, channel=1, data=[79, 121]),
   midi.NoteOnEvent(tick=0, channel=1, data=[72, 120]),
   midi.NoteOffEvent(tick=3840, channel=1, data=[79, 0]),
   midi.NoteOffEvent(tick=0, channel=1, data=[72, 0]),
   midi.NoteOnEvent(tick=0, channel=1, data=[80, 120]),
   midi.NoteOnEvent(tick=0, channel=1, data=[72, 120]),
   midi.NoteOffEvent(tick=1920, channel=1, data=[80, 0]),
   midi.NoteOnEvent(tick=0, channel=1, data=[77, 118]),
   midi.NoteOffEvent(tick=1920, channel=1, data=[72, 0]),
   midi.NoteOffEvent(tick=0, channel=1, data=[77, 0]),
   midi.NoteOnEvent(tick=0, channel=1, data=[77, 119]),
   midi.NoteOnEvent(tick=0, channel=1, data=[71, 119]),
   midi.NoteOffEvent(tick=1920, channel=1, data=[77, 0]),
   midi.NoteOffEvent(tick=0, channel=1, data=[71, 0]),
   midi.NoteOnEvent(tick=0, channel=1, data=[79, 122]),
   midi.NoteOnEvent(tick=0, channel=1, data=[74, 122]),
   midi.NoteOffEvent(tick=1920, channel=1, data=[79, 0]),
   midi.NoteOffEvent(tick=0, channel=1, data=[74, 0]),
   midi.NoteOnEvent(tick=0, channel=1, data=[79, 121]),
   midi.NoteOnEvent(tick=0, channel=1, data=[75, 122]),
   midi.NoteOffEvent(tick=480, channel=1, data=[79, 0]),
   midi.NoteOffEvent(tick=0, channel=1, data=[75, 0]),
   midi.NoteOnEvent(tick=1440, channel=1, data=[84, 126]),
   midi.NoteOnEvent(tick=0, channel=1, data=[75, 121]),
   midi.NoteOffEvent(tick=480, channel=1, data=[84, 0]),
   midi.NoteOffEvent(tick=0, channel=1, data=[75, 0]),
   midi.NoteOnEvent(tick=1440, channel=1, data=[84, 122]),
   midi.NoteOnEvent(tick=0, channel=1, data=[80, 126]),
   midi.NoteOffEvent(tick=480, channel=1, data=[84, 0]),
   midi.NoteOffEvent(tick=0, channel=1, data=[80, 0]),
   midi.NoteOnEvent(tick=1440, channel=1, data=[84, 120]),
   midi.NoteOnEvent(tick=0, channel=1, data=[80, 122]),
   midi.NoteOffEvent(tick=480, channel=1, data=[84, 0]),
   midi.NoteOffEvent(tick=0, channel=1, data=[80, 0]),
   midi.NoteOnEvent(tick=1440, channel=1, data=[84, 120]),
   midi.NoteOnEvent(tick=0, channel=1, data=[79, 119]),
   midi.NoteOffEvent(tick=480, channel=1, data=[84, 0]),
   midi.NoteOffEvent(tick=0, channel=1, data=[79, 0]),
   midi.NoteOnEvent(tick=1440, channel=1, data=[83, 119]),
   midi.NoteOnEvent(tick=0, channel=1, data=[79, 119]),
   midi.NoteOffEvent(tick=480, channel=1, data=[83, 0]),
   midi.NoteOffEvent(tick=0, channel=1, data=[79, 0]),
   midi.NoteOnEvent(tick=1440, channel=1, data=[84, 120]),
   midi.NoteOnEvent(tick=0, channel=1, data=[72, 112]),
   midi.NoteOffEvent(tick=1920, channel=1, data=[84, 0]),
   midi.NoteOffEvent(tick=0, channel=1, data=[72, 0]),
   midi.NoteOnEvent(tick=0, channel=1, data=[84, 120]),
   midi.NoteOnEvent(tick=0, channel=1, data=[72, 117]),
   midi.NoteOffEvent(tick=480, channel=1, data=[84, 0]),
   midi.NoteOffEvent(tick=0, channel=1, data=[72, 0]),
   midi.NoteOnEvent(tick=480, channel=1, data=[84, 113]),
   midi.NoteOnEvent(tick=0, channel=1, data=[72, 111]),
   midi.NoteOffEvent(tick=480, channel=1, data=[84, 0]),
   midi.NoteOffEvent(tick=0, channel=1, data=[72, 0]),
   midi.NoteOnEvent(tick=480, channel=1, data=[84, 120]),
   midi.NoteOnEvent(tick=0, channel=1, data=[72, 119]),
   midi.NoteOffEvent(tick=1920, channel=1, data=[84, 0]),
   midi.NoteOffEvent(tick=0, channel=1, data=[72, 0]),
   midi.NoteOnEvent(tick=3840, channel=1, data=[84, 120]),
   midi.NoteOnEvent(tick=0, channel=1, data=[72, 120]),
   midi.NoteOffEvent(tick=480, channel=1, data=[84, 0]),
   midi.NoteOffEvent(tick=0, channel=1, data=[72, 0]),
   midi.NoteOnEvent(tick=480, channel=1, data=[84, 113]),
   midi.NoteOnEvent(tick=0, channel=1, data=[72, 113]),
   midi.NoteOffEvent(tick=480, channel=1, data=[84, 0]),
   midi.NoteOffEvent(tick=0, channel=1, data=[72, 0]),
   midi.NoteOnEvent(tick=480, channel=1, data=[84, 120]),
   midi.NoteOnEvent(tick=0, channel=1, data=[72, 120]),
   midi.NoteOffEvent(tick=1920, channel=1, data=[84, 0]),
   midi.NoteOffEvent(tick=0, channel=1, data=[72, 0]),
   midi.NoteOnEvent(tick=3840, channel=1, data=[79, 119]),
   midi.NoteOnEvent(tick=0, channel=1, data=[67, 119]),
   midi.NoteOffEvent(tick=480, channel=1, data=[79, 0]),
   midi.NoteOffEvent(tick=0, channel=1, data=[67, 0]),
   midi.NoteOnEvent(tick=480, channel=1, data=[79, 113]),
   midi.NoteOnEvent(tick=0, channel=1, data=[67, 113]),
   midi.NoteOffEvent(tick=480, channel=1, data=[79, 0]),
   midi.NoteOffEvent(tick=0, channel=1, data=[67, 0]),
   midi.NoteOnEvent(tick=480, channel=1, data=[79, 120]),
   midi.NoteOnEvent(tick=0, channel=1, data=[67, 120]),
   midi.NoteOffEvent(tick=1920, channel=1, data=[79, 0]),
   midi.NoteOffEvent(tick=0, channel=1, data=[67, 0]),
   midi.NoteOnEvent(tick=3840, channel=1, data=[79, 120]),
   midi.NoteOnEvent(tick=0, channel=1, data=[67, 120]),
   midi.NoteOffEvent(tick=480, channel=1, data=[79, 0]),
   midi.NoteOffEvent(tick=0, channel=1, data=[67, 0]),
   midi.NoteOnEvent(tick=480, channel=1, data=[79, 113]),
   midi.NoteOnEvent(tick=0, channel=1, data=[67, 113]),
   midi.NoteOffEvent(tick=480, channel=1, data=[79, 0]),
   midi.NoteOffEvent(tick=0, channel=1, data=[67, 0]),
   midi.NoteOnEvent(tick=480, channel=1, data=[79, 120]),
   midi.NoteOnEvent(tick=0, channel=1, data=[67, 120]),
   midi.NoteOffEvent(tick=1920, channel=1, data=[79, 0]),
   midi.NoteOffEvent(tick=0, channel=1, data=[67, 0]),
   midi.NoteOnEvent(tick=0, channel=1, data=[84, 127]),
   midi.NoteOnEvent(tick=0, channel=1, data=[80, 127]),
   midi.NoteOnEvent(tick=960, channel=1, data=[82, 114]),
   midi.NoteOnEvent(tick=0, channel=1, data=[79, 124]),
   midi.NoteOffEvent(tick=38, channel=1, data=[84, 0]),
   midi.NoteOffEvent(tick=0, channel=1, data=[80, 0]),
   midi.NoteOffEvent(tick=825, channel=1, data=[82, 0]),
   midi.NoteOffEvent(tick=0, channel=1, data=[79, 0]),
   midi.NoteOnEvent(tick=97, channel=1, data=[80, 116]),
   midi.NoteOnEvent(tick=0, channel=1, data=[77, 123]),
   midi.NoteOffEvent(tick=960, channel=1, data=[80, 0]),
   midi.NoteOffEvent(tick=0, channel=1, data=[77, 0]),
   midi.NoteOnEvent(tick=0, channel=1, data=[79, 108]),
   midi.NoteOnEvent(tick=0, channel=1, data=[75, 110]),
   midi.NoteOffEvent(tick=960, channel=1, data=[79, 0]),
   midi.NoteOffEvent(tick=0, channel=1, data=[75, 0]),
   midi.NoteOnEvent(tick=1920, channel=1, data=[80, 103]),
   midi.NoteOnEvent(tick=0, channel=1, data=[77, 104]),
   midi.NoteOnEvent(tick=960, channel=1, data=[79, 96]),
   midi.NoteOnEvent(tick=0, channel=1, data=[75, 95]),
   midi.NoteOffEvent(tick=38, channel=1, data=[80, 0]),
   midi.NoteOffEvent(tick=0, channel=1, data=[77, 0]),
   midi.NoteOffEvent(tick=825, channel=1, data=[79, 0]),
   midi.NoteOffEvent(tick=0, channel=1, data=[75, 0]),
   midi.NoteOnEvent(tick=97, channel=1, data=[84, 111]),
   midi.NoteOnEvent(tick=0, channel=1, data=[77, 105]),
   midi.NoteOffEvent(tick=960, channel=1, data=[84, 0]),
   midi.NoteOnEvent(tick=0, channel=1, data=[84, 103]),
   midi.NoteOnEvent(tick=0, channel=1, data=[75, 95]),
   midi.NoteOffEvent(tick=19, channel=1, data=[77, 0]),
   midi.NoteOffEvent(tick=892, channel=1, data=[84, 0]),
   midi.NoteOffEvent(tick=0, channel=1, data=[75, 0]),
   midi.NoteOnEvent(tick=1009, channel=1, data=[75, 100]),
   midi.NoteOnEvent(tick=0, channel=1, data=[84, 100]),
   midi.NoteOffEvent(tick=960, channel=1, data=[75, 0]),
   midi.NoteOffEvent(tick=0, channel=1, data=[84, 0]),
   midi.NoteOnEvent(tick=960, channel=1, data=[74, 97]),
   midi.NoteOnEvent(tick=0, channel=1, data=[83, 97]),
   midi.NoteOffEvent(tick=960, channel=1, data=[74, 0]),
   midi.NoteOffEvent(tick=0, channel=1, data=[83, 0]),
   midi.NoteOnEvent(tick=5760, channel=1, data=[80, 104]),
   midi.NoteOnEvent(tick=0, channel=1, data=[77, 104]),
   midi.NoteOnEvent(tick=960, channel=1, data=[79, 97]),
   midi.NoteOnEvent(tick=0, channel=1, data=[75, 96]),
   midi.NoteOffEvent(tick=38, channel=1, data=[80, 0]),
   midi.NoteOffEvent(tick=0, channel=1, data=[77, 0]),
   midi.NoteOffEvent(tick=825, channel=1, data=[79, 0]),
   midi.NoteOffEvent(tick=0, channel=1, data=[75, 0]),
   midi.NoteOnEvent(tick=2017, channel=1, data=[84, 107]),
   midi.NoteOnEvent(tick=0, channel=1, data=[77, 104]),
   midi.NoteOffEvent(tick=960, channel=1, data=[84, 0]),
   midi.NoteOnEvent(tick=0, channel=1, data=[84, 100]),
   midi.NoteOnEvent(tick=0, channel=1, data=[75, 96]),
   midi.NoteOffEvent(tick=19, channel=1, data=[77, 0]),
   midi.NoteOffEvent(tick=892, channel=1, data=[84, 0]),
   midi.NoteOffEvent(tick=0, channel=1, data=[75, 0]),
   midi.NoteOnEvent(tick=1009, channel=1, data=[75, 98]),
   midi.NoteOnEvent(tick=0, channel=1, data=[84, 98]),
   midi.NoteOffEvent(tick=960, channel=1, data=[75, 0]),
   midi.NoteOffEvent(tick=0, channel=1, data=[84, 0]),
   midi.NoteOnEvent(tick=960, channel=1, data=[74, 97]),
   midi.NoteOnEvent(tick=0, channel=1, data=[83, 97]),
   midi.NoteOffEvent(tick=960, channel=1, data=[74, 0]),
   midi.NoteOffEvent(tick=0, channel=1, data=[83, 0]),
   midi.NoteOnEvent(tick=0, channel=1, data=[84, 104]),
   midi.NoteOnEvent(tick=0, channel=1, data=[75, 103]),
   midi.NoteOffEvent(tick=960, channel=1, data=[84, 0]),
   midi.NoteOffEvent(tick=0, channel=1, data=[75, 0]),
   midi.NoteOnEvent(tick=1440, channel=1, data=[83, 97]),
   midi.NoteOnEvent(tick=0, channel=1, data=[74, 97]),
   midi.NoteOffEvent(tick=480, channel=1, data=[83, 0]),
   midi.NoteOffEvent(tick=0, channel=1, data=[74, 0]),
   midi.NoteOnEvent(tick=0, channel=1, data=[83, 97]),
   midi.NoteOnEvent(tick=0, channel=1, data=[74, 97]),
   midi.NoteOffEvent(tick=480, channel=1, data=[83, 0]),
   midi.NoteOffEvent(tick=0, channel=1, data=[74, 0]),
   midi.NoteOnEvent(tick=0, channel=1, data=[83, 97]),
   midi.NoteOnEvent(tick=0, channel=1, data=[74, 97]),
   midi.NoteOffEvent(tick=480, channel=1, data=[83, 0]),
   midi.NoteOffEvent(tick=0, channel=1, data=[74, 0]),
   midi.NoteOnEvent(tick=0, channel=1, data=[83, 103]),
   midi.NoteOnEvent(tick=0, channel=1, data=[74, 103]),
   midi.NoteOffEvent(tick=2880, channel=1, data=[83, 0]),
   midi.NoteOffEvent(tick=0, channel=1, data=[74, 0]),
   midi.NoteOnEvent(tick=0, channel=1, data=[84, 99]),
   midi.NoteOnEvent(tick=0, channel=1, data=[75, 99]),
   midi.NoteOnEvent(tick=960, channel=1, data=[86, 108]),
   midi.NoteOnEvent(tick=0, channel=1, data=[77, 108]),
   midi.NoteOffEvent(tick=38, channel=1, data=[84, 0]),
   midi.NoteOffEvent(tick=0, channel=1, data=[75, 0]),
   midi.NoteOffEvent(tick=825, channel=1, data=[86, 0]),
   midi.NoteOffEvent(tick=0, channel=1, data=[77, 0]),
   midi.NoteOnEvent(tick=97, channel=1, data=[83, 95]),
   midi.NoteOnEvent(tick=0, channel=1, data=[74, 95]),
   midi.NoteOffEvent(tick=960, channel=1, data=[83, 0]),
   midi.NoteOffEvent(tick=0, channel=1, data=[74, 0]),
   midi.NoteOnEvent(tick=0, channel=1, data=[84, 104]),
   midi.NoteOnEvent(tick=0, channel=1, data=[75, 104]),
   midi.NoteOffEvent(tick=960, channel=1, data=[84, 0]),
   midi.NoteOffEvent(tick=0, channel=1, data=[75, 0]),
   midi.NoteOnEvent(tick=0, channel=1, data=[86, 102]),
   midi.NoteOnEvent(tick=0, channel=1, data=[77, 102]),
   midi.NoteOffEvent(tick=960, channel=1, data=[86, 0]),
   midi.NoteOffEvent(tick=0, channel=1, data=[77, 0]),
   midi.NoteOnEvent(tick=0, channel=1, data=[84, 102]),
   midi.NoteOnEvent(tick=0, channel=1, data=[75, 102]),
   midi.NoteOffEvent(tick=960, channel=1, data=[84, 0]),
   midi.NoteOffEvent(tick=0, channel=1, data=[75, 0]),
   midi.NoteOnEvent(tick=1440, channel=1, data=[79, 91]),
   midi.NoteOffEvent(tick=480, channel=1, data=[79, 0]),
   midi.NoteOnEvent(tick=0, channel=1, data=[79, 92]),
   midi.NoteOffEvent(tick=480, channel=1, data=[79, 0]),
   midi.NoteOnEvent(tick=0, channel=1, data=[79, 93]),
   midi.NoteOffEvent(tick=480, channel=1, data=[79, 0]),
   midi.NoteOnEvent(tick=0, channel=1, data=[79, 100]),
   midi.NoteOffEvent(tick=480, channel=1, data=[79, 0]),
   midi.NoteOnEvent(tick=0, channel=1, data=[79, 95]),
   midi.NoteOffEvent(tick=480, channel=1, data=[79, 0]),
   midi.NoteOnEvent(tick=0, channel=1, data=[79, 96]),
   midi.NoteOffEvent(tick=480, channel=1, data=[79, 0]),
   midi.NoteOnEvent(tick=0, channel=1, data=[79, 97]),
   midi.NoteOffEvent(tick=480, channel=1, data=[79, 0]),
   midi.NoteOnEvent(tick=0, channel=1, data=[79, 103]),
   midi.NoteOffEvent(tick=480, channel=1, data=[79, 0]),
   midi.NoteOnEvent(tick=0, channel=1, data=[79, 97]),
   midi.NoteOffEvent(tick=480, channel=1, data=[79, 0]),
   midi.NoteOnEvent(tick=0, channel=1, data=[79, 97]),
   midi.NoteOffEvent(tick=480, channel=1, data=[79, 0]),
   midi.NoteOnEvent(tick=0, channel=1, data=[79, 98]),
   midi.NoteOffEvent(tick=480, channel=1, data=[79, 0]),
   midi.NoteOnEvent(tick=0, channel=1, data=[79, 120]),
   midi.NoteOnEvent(tick=0, channel=1, data=[75, 120]),
   midi.NoteOffEvent(tick=3840, channel=1, data=[79, 0]),
   midi.NoteOffEvent(tick=0, channel=1, data=[75, 0]),
   midi.NoteOnEvent(tick=480, channel=1, data=[79, 113]),
   midi.NoteOnEvent(tick=0, channel=1, data=[77, 114]),
   midi.NoteOffEvent(tick=480, channel=1, data=[79, 0]),
   midi.NoteOffEvent(tick=0, channel=1, data=[77, 0]),
   midi.NoteOnEvent(tick=0, channel=1, data=[79, 113]),
   midi.NoteOnEvent(tick=0, channel=1, data=[77, 113]),
   midi.NoteOffEvent(tick=480, channel=1, data=[79, 0]),
   midi.NoteOffEvent(tick=0, channel=1, data=[77, 0]),
   midi.NoteOnEvent(tick=0, channel=1, data=[79, 113]),
   midi.NoteOnEvent(tick=0, channel=1, data=[77, 113]),
   midi.NoteOffEvent(tick=480, channel=1, data=[79, 0]),
   midi.NoteOffEvent(tick=0, channel=1, data=[77, 0]),
   midi.NoteOnEvent(tick=0, channel=1, data=[79, 120]),
   midi.NoteOnEvent(tick=0, channel=1, data=[74, 112]),
   midi.NoteOffEvent(tick=7680, channel=1, data=[79, 0]),
   midi.NoteOffEvent(tick=0, channel=1, data=[74, 0]),
   midi.NoteOnEvent(tick=6720, channel=1, data=[80, 61]),
   midi.NoteOnEvent(tick=960, channel=1, data=[79, 64]),
   midi.NoteOffEvent(tick=19, channel=1, data=[80, 0]),
   midi.NoteOffEvent(tick=1804, channel=1, data=[79, 0]),
   midi.NoteOnEvent(tick=4897, channel=1, data=[80, 61]),
   midi.NoteOnEvent(tick=960, channel=1, data=[79, 64]),
   midi.NoteOffEvent(tick=19, channel=1, data=[80, 0]),
   midi.NoteOffEvent(tick=435, channel=1, data=[79, 0]),
   midi.NoteOnEvent(tick=26, channel=1, data=[79, 112]),
   midi.NoteOnEvent(tick=0, channel=1, data=[74, 113]),
   midi.NoteOffEvent(tick=480, channel=1, data=[79, 0]),
   midi.NoteOffEvent(tick=0, channel=1, data=[74, 0]),
   midi.NoteOnEvent(tick=0, channel=1, data=[79, 112]),
   midi.NoteOnEvent(tick=0, channel=1, data=[74, 113]),
   midi.NoteOffEvent(tick=480, channel=1, data=[79, 0]),
   midi.NoteOffEvent(tick=0, channel=1, data=[74, 0]),
   midi.NoteOnEvent(tick=0, channel=1, data=[79, 112]),
   midi.NoteOnEvent(tick=0, channel=1, data=[74, 113]),
   midi.NoteOffEvent(tick=480, channel=1, data=[79, 0]),
   midi.NoteOffEvent(tick=0, channel=1, data=[74, 0]),
   midi.NoteOnEvent(tick=0, channel=1, data=[79, 119]),
   midi.NoteOnEvent(tick=0, channel=1, data=[75, 122]),
   midi.NoteOffEvent(tick=960, channel=1, data=[79, 0]),
   midi.NoteOffEvent(tick=0, channel=1, data=[75, 0]),
   midi.NoteOnEvent(tick=1440, channel=1, data=[83, 121]),
   midi.NoteOnEvent(tick=0, channel=1, data=[74, 112]),
   midi.NoteOffEvent(tick=480, channel=1, data=[83, 0]),
   midi.NoteOffEvent(tick=0, channel=1, data=[74, 0]),
   midi.NoteOnEvent(tick=0, channel=1, data=[83, 120]),
   midi.NoteOnEvent(tick=0, channel=1, data=[74, 113]),
   midi.NoteOffEvent(tick=480, channel=1, data=[83, 0]),
   midi.NoteOffEvent(tick=0, channel=1, data=[74, 0]),
   midi.NoteOnEvent(tick=0, channel=1, data=[83, 118]),
   midi.NoteOnEvent(tick=0, channel=1, data=[74, 113]),
   midi.NoteOffEvent(tick=480, channel=1, data=[83, 0]),
   midi.NoteOffEvent(tick=0, channel=1, data=[74, 0]),
   midi.NoteOnEvent(tick=0, channel=1, data=[84, 127]),
   midi.NoteOnEvent(tick=0, channel=1, data=[75, 123]),
   midi.NoteOffEvent(tick=960, channel=1, data=[84, 0]),
   midi.NoteOffEvent(tick=0, channel=1, data=[75, 0]),
   midi.NoteOnEvent(tick=1440, channel=1, data=[83, 113]),
   midi.NoteOnEvent(tick=0, channel=1, data=[74, 112]),
   midi.NoteOffEvent(tick=480, channel=1, data=[83, 0]),
   midi.NoteOffEvent(tick=0, channel=1, data=[74, 0]),
   midi.NoteOnEvent(tick=0, channel=1, data=[83, 113]),
   midi.NoteOnEvent(tick=0, channel=1, data=[74, 113]),
   midi.NoteOffEvent(tick=480, channel=1, data=[83, 0]),
   midi.NoteOffEvent(tick=0, channel=1, data=[74, 0]),
   midi.NoteOnEvent(tick=0, channel=1, data=[83, 113]),
   midi.NoteOnEvent(tick=0, channel=1, data=[74, 113]),
   midi.NoteOffEvent(tick=480, channel=1, data=[83, 0]),
   midi.NoteOffEvent(tick=0, channel=1, data=[74, 0]),
   midi.NoteOnEvent(tick=0, channel=1, data=[84, 123]),
   midi.NoteOnEvent(tick=0, channel=1, data=[75, 123]),
   midi.NoteOffEvent(tick=960, channel=1, data=[84, 0]),
   midi.NoteOffEvent(tick=0, channel=1, data=[75, 0]),
   midi.NoteOnEvent(tick=0, channel=1, data=[83, 112]),
   midi.NoteOnEvent(tick=0, channel=1, data=[74, 112]),
   midi.NoteOffEvent(tick=960, channel=1, data=[83, 0]),
   midi.NoteOffEvent(tick=0, channel=1, data=[74, 0]),
   midi.NoteOnEvent(tick=0, channel=1, data=[84, 122]),
   midi.NoteOnEvent(tick=0, channel=1, data=[75, 122]),
   midi.NoteOffEvent(tick=960, channel=1, data=[84, 0]),
   midi.NoteOffEvent(tick=0, channel=1, data=[75, 0]),
   midi.NoteOnEvent(tick=0, channel=1, data=[83, 112]),
   midi.NoteOnEvent(tick=0, channel=1, data=[74, 112]),
   midi.NoteOffEvent(tick=960, channel=1, data=[83, 0]),
   midi.NoteOffEvent(tick=0, channel=1, data=[74, 0]),
   midi.NoteOnEvent(tick=0, channel=1, data=[84, 122]),
   midi.NoteOnEvent(tick=0, channel=1, data=[75, 122]),
   midi.NoteOffEvent(tick=960, channel=1, data=[84, 0]),
   midi.NoteOffEvent(tick=0, channel=1, data=[75, 0]),
   midi.NoteOnEvent(tick=0, channel=1, data=[83, 112]),
   midi.NoteOnEvent(tick=0, channel=1, data=[74, 112]),
   midi.NoteOffEvent(tick=960, channel=1, data=[83, 0]),
   midi.NoteOffEvent(tick=0, channel=1, data=[74, 0]),
   midi.NoteOnEvent(tick=0, channel=1, data=[84, 122]),
   midi.NoteOnEvent(tick=0, channel=1, data=[75, 122]),
   midi.NoteOffEvent(tick=960, channel=1, data=[84, 0]),
   midi.NoteOffEvent(tick=0, channel=1, data=[75, 0]),
   midi.NoteOnEvent(tick=0, channel=1, data=[83, 112]),
   midi.NoteOnEvent(tick=0, channel=1, data=[74, 112]),
   midi.NoteOffEvent(tick=960, channel=1, data=[83, 0]),
   midi.NoteOffEvent(tick=0, channel=1, data=[74, 0]),
   midi.NoteOnEvent(tick=0, channel=1, data=[84, 121]),
   midi.NoteOnEvent(tick=0, channel=1, data=[75, 121]),
   midi.NoteOffEvent(tick=960, channel=1, data=[84, 0]),
   midi.NoteOffEvent(tick=0, channel=1, data=[75, 0]),
   midi.NoteOnEvent(tick=960, channel=1, data=[83, 119]),
   midi.NoteOnEvent(tick=0, channel=1, data=[74, 119]),
   midi.NoteOffEvent(tick=960, channel=1, data=[83, 0]),
   midi.NoteOffEvent(tick=0, channel=1, data=[74, 0]),
   midi.NoteOnEvent(tick=960, channel=1, data=[84, 121]),
   midi.NoteOnEvent(tick=0, channel=1, data=[75, 121]),
   midi.NoteOffEvent(tick=960, channel=1, data=[84, 0]),
   midi.NoteOffEvent(tick=0, channel=1, data=[75, 0]),
   midi.EndOfTrackEvent(tick=1, data=[])]),
 midi.Track(\
  [midi.ProgramChangeEvent(tick=0, channel=2, data=[71]),
   midi.ControlChangeEvent(tick=0, channel=2, data=[121, 0]),
   midi.ControlChangeEvent(tick=0, channel=2, data=[64, 0]),
   midi.ControlChangeEvent(tick=0, channel=2, data=[91, 57]),
   midi.ControlChangeEvent(tick=0, channel=2, data=[10, 60]),
   midi.ControlChangeEvent(tick=0, channel=2, data=[7, 95]),
   midi.TrackNameEvent(tick=0, text='Bb Clarinet', data=[66, 98, 32, 67, 108, 97, 114, 105, 110, 101, 116]),
   midi.NoteOnEvent(tick=480, channel=2, data=[67, 113]),
   midi.NoteOffEvent(tick=480, channel=2, data=[67, 0]),
   midi.NoteOnEvent(tick=0, channel=2, data=[67, 113]),
   midi.NoteOffEvent(tick=480, channel=2, data=[67, 0]),
   midi.NoteOnEvent(tick=0, channel=2, data=[67, 113]),
   midi.NoteOffEvent(tick=480, channel=2, data=[67, 0]),
   midi.NoteOnEvent(tick=0, channel=2, data=[63, 110]),
   midi.NoteOffEvent(tick=2880, channel=2, data=[63, 0]),
   midi.NoteOnEvent(tick=480, channel=2, data=[65, 112]),
   midi.NoteOffEvent(tick=480, channel=2, data=[65, 0]),
   midi.NoteOnEvent(tick=0, channel=2, data=[65, 112]),
   midi.NoteOffEvent(tick=480, channel=2, data=[65, 0]),
   midi.NoteOnEvent(tick=0, channel=2, data=[65, 113]),
   midi.NoteOffEvent(tick=480, channel=2, data=[65, 0]),
   midi.NoteOnEvent(tick=0, channel=2, data=[62, 110]),
   midi.NoteOffEvent(tick=2880, channel=2, data=[62, 0]),
   midi.NoteOnEvent(tick=23520, channel=2, data=[59, 61]),
   midi.NoteOnEvent(tick=0, channel=2, data=[55, 61]),
   midi.NoteOffEvent(tick=480, channel=2, data=[59, 0]),
   midi.NoteOffEvent(tick=0, channel=2, data=[55, 0]),
   midi.NoteOnEvent(tick=0, channel=2, data=[62, 62]),
   midi.NoteOnEvent(tick=0, channel=2, data=[59, 63]),
   midi.NoteOffEvent(tick=480, channel=2, data=[62, 0]),
   midi.NoteOffEvent(tick=0, channel=2, data=[59, 0]),
   midi.NoteOnEvent(tick=0, channel=2, data=[67, 86]),
   midi.NoteOnEvent(tick=0, channel=2, data=[62, 65]),
   midi.NoteOffEvent(tick=480, channel=2, data=[67, 0]),
   midi.NoteOffEvent(tick=0, channel=2, data=[62, 0]),
   midi.NoteOnEvent(tick=0, channel=2, data=[67, 113]),
   midi.NoteOnEvent(tick=0, channel=2, data=[63, 113]),
   midi.NoteOffEvent(tick=960, channel=2, data=[67, 0]),
   midi.NoteOffEvent(tick=0, channel=2, data=[63, 0]),
   midi.NoteOnEvent(tick=960, channel=2, data=[66, 107]),
   midi.NoteOnEvent(tick=0, channel=2, data=[60, 103]),
   midi.NoteOffEvent(tick=960, channel=2, data=[66, 0]),
   midi.NoteOffEvent(tick=0, channel=2, data=[60, 0]),
   midi.NoteOnEvent(tick=960, channel=2, data=[62, 99]),
   midi.NoteOnEvent(tick=0, channel=2, data=[59, 102]),
   midi.NoteOffEvent(tick=960, channel=2, data=[62, 0]),
   midi.NoteOffEvent(tick=0, channel=2, data=[59, 0]),
   midi.NoteOnEvent(tick=3360, channel=2, data=[68, 115]),
   midi.NoteOffEvent(tick=480, channel=2, data=[68, 0]),
   midi.NoteOnEvent(tick=0, channel=2, data=[68, 114]),
   midi.NoteOffEvent(tick=480, channel=2, data=[68, 0]),
   midi.NoteOnEvent(tick=0, channel=2, data=[68, 114]),
   midi.NoteOffEvent(tick=480, channel=2, data=[68, 0]),
   midi.NoteOnEvent(tick=0, channel=2, data=[65, 112]),
   midi.NoteOffEvent(tick=3840, channel=2, data=[65, 0]),
   midi.NoteOnEvent(tick=13920, channel=2, data=[74, 61]),
   midi.NoteOffEvent(tick=480, channel=2, data=[74, 0]),
   midi.NoteOnEvent(tick=0, channel=2, data=[74, 61]),
   midi.NoteOffEvent(tick=480, channel=2, data=[74, 0]),
   midi.NoteOnEvent(tick=0, channel=2, data=[74, 61]),
   midi.NoteOffEvent(tick=480, channel=2, data=[74, 0]),
   midi.NoteOnEvent(tick=0, channel=2, data=[72, 62]),
   midi.NoteOffEvent(tick=960, channel=2, data=[72, 0]),
   midi.NoteOnEvent(tick=8640, channel=2, data=[68, 104]),
   midi.NoteOnEvent(tick=0, channel=2, data=[65, 104]),
   midi.NoteOffEvent(tick=960, channel=2, data=[68, 0]),
   midi.NoteOffEvent(tick=0, channel=2, data=[65, 0]),
   midi.NoteOnEvent(tick=960, channel=2, data=[67, 103]),
   midi.NoteOnEvent(tick=0, channel=2, data=[64, 103]),
   midi.NoteOffEvent(tick=960, channel=2, data=[67, 0]),
   midi.NoteOffEvent(tick=0, channel=2, data=[64, 0]),
   midi.NoteOnEvent(tick=960, channel=2, data=[68, 104]),
   midi.NoteOnEvent(tick=0, channel=2, data=[65, 104]),
   midi.NoteOffEvent(tick=960, channel=2, data=[68, 0]),
   midi.NoteOffEvent(tick=0, channel=2, data=[65, 0]),
   midi.NoteOnEvent(tick=960, channel=2, data=[70, 106]),
   midi.NoteOnEvent(tick=0, channel=2, data=[67, 106]),
   midi.NoteOffEvent(tick=960, channel=2, data=[70, 0]),
   midi.NoteOffEvent(tick=0, channel=2, data=[67, 0]),
   midi.NoteOnEvent(tick=960, channel=2, data=[68, 103]),
   midi.NoteOnEvent(tick=0, channel=2, data=[65, 103]),
   midi.NoteOffEvent(tick=960, channel=2, data=[68, 0]),
   midi.NoteOffEvent(tick=0, channel=2, data=[65, 0]),
   midi.NoteOnEvent(tick=960, channel=2, data=[65, 100]),
   midi.NoteOnEvent(tick=0, channel=2, data=[62, 100]),
   midi.NoteOffEvent(tick=960, channel=2, data=[65, 0]),
   midi.NoteOffEvent(tick=0, channel=2, data=[62, 0]),
   midi.NoteOnEvent(tick=960, channel=2, data=[67, 104]),
   midi.NoteOnEvent(tick=0, channel=2, data=[63, 103]),
   midi.NoteOffEvent(tick=7680, channel=2, data=[67, 0]),
   midi.NoteOffEvent(tick=0, channel=2, data=[63, 0]),
   midi.NoteOnEvent(tick=0, channel=2, data=[65, 104]),
   midi.NoteOnEvent(tick=0, channel=2, data=[62, 104]),
   midi.NoteOffEvent(tick=6720, channel=2, data=[65, 0]),
   midi.NoteOffEvent(tick=0, channel=2, data=[62, 0]),
   midi.NoteOnEvent(tick=0, channel=2, data=[60, 98]),
   midi.NoteOnEvent(tick=0, channel=2, data=[63, 98]),
   midi.NoteOffEvent(tick=960, channel=2, data=[60, 0]),
   midi.NoteOffEvent(tick=0, channel=2, data=[63, 0]),
   midi.NoteOnEvent(tick=0, channel=2, data=[75, 127]),
   midi.NoteOnEvent(tick=0, channel=2, data=[66, 120]),
   midi.NoteOffEvent(tick=7680, channel=2, data=[75, 0]),
   midi.NoteOffEvent(tick=0, channel=2, data=[66, 0]),
   midi.NoteOnEvent(tick=0, channel=2, data=[75, 120]),
   midi.NoteOnEvent(tick=0, channel=2, data=[66, 120]),
   midi.NoteOffEvent(tick=960, channel=2, data=[75, 0]),
   midi.NoteOffEvent(tick=0, channel=2, data=[66, 0]),
   midi.NoteOnEvent(tick=2880, channel=2, data=[70, 118]),
   midi.NoteOffEvent(tick=960, channel=2, data=[70, 0]),
   midi.NoteOnEvent(tick=16320, channel=2, data=[70, 65]),
   midi.NoteOffEvent(tick=960, channel=2, data=[70, 0]),
   midi.NoteOnEvent(tick=0, channel=2, data=[75, 63]),
   midi.NoteOffEvent(tick=960, channel=2, data=[75, 0]),
   midi.NoteOnEvent(tick=0, channel=2, data=[74, 66]),
   midi.NoteOffEvent(tick=960, channel=2, data=[74, 0]),
   midi.NoteOnEvent(tick=0, channel=2, data=[75, 63]),
   midi.NoteOffEvent(tick=960, channel=2, data=[75, 0]),
   midi.NoteOnEvent(tick=0, channel=2, data=[77, 68]),
   midi.NoteOffEvent(tick=960, channel=2, data=[77, 0]),
   midi.NoteOnEvent(tick=0, channel=2, data=[72, 57]),
   midi.NoteOffEvent(tick=960, channel=2, data=[72, 0]),
   midi.NoteOnEvent(tick=0, channel=2, data=[72, 62]),
   midi.NoteOffEvent(tick=960, channel=2, data=[72, 0]),
   midi.NoteOnEvent(tick=0, channel=2, data=[70, 56]),
   midi.NoteOffEvent(tick=960, channel=2, data=[70, 0]),
   midi.NoteOnEvent(tick=23040, channel=2, data=[75, 65]),
   midi.NoteOnEvent(tick=0, channel=2, data=[72, 65]),
   midi.NoteOffEvent(tick=5760, channel=2, data=[75, 0]),
   midi.NoteOffEvent(tick=0, channel=2, data=[72, 0]),
   midi.NoteOnEvent(tick=0, channel=2, data=[75, 75]),
   midi.NoteOnEvent(tick=0, channel=2, data=[70, 64]),
   midi.NoteOffEvent(tick=3840, channel=2, data=[75, 0]),
   midi.NoteOffEvent(tick=0, channel=2, data=[70, 0]),
   midi.NoteOnEvent(tick=0, channel=2, data=[75, 89]),
   midi.NoteOnEvent(tick=0, channel=2, data=[69, 89]),
   midi.NoteOffEvent(tick=8640, channel=2, data=[75, 0]),
   midi.NoteOffEvent(tick=0, channel=2, data=[69, 0]),
   midi.NoteOnEvent(tick=0, channel=2, data=[75, 84]),
   midi.NoteOnEvent(tick=0, channel=2, data=[69, 84]),
   midi.NoteOffEvent(tick=960, channel=2, data=[75, 0]),
   midi.NoteOffEvent(tick=0, channel=2, data=[69, 0]),
   midi.NoteOnEvent(tick=0, channel=2, data=[75, 89]),
   midi.NoteOnEvent(tick=0, channel=2, data=[69, 89]),
   midi.NoteOffEvent(tick=960, channel=2, data=[75, 0]),
   midi.NoteOffEvent(tick=0, channel=2, data=[69, 0]),
   midi.NoteOnEvent(tick=0, channel=2, data=[75, 84]),
   midi.NoteOnEvent(tick=0, channel=2, data=[69, 84]),
   midi.NoteOffEvent(tick=960, channel=2, data=[75, 0]),
   midi.NoteOffEvent(tick=0, channel=2, data=[69, 0]),
   midi.NoteOnEvent(tick=0, channel=2, data=[70, 110]),
   midi.NoteOnEvent(tick=0, channel=2, data=[68, 118]),
   midi.NoteOffEvent(tick=2880, channel=2, data=[70, 0]),
   midi.NoteOffEvent(tick=0, channel=2, data=[68, 0]),
   midi.NoteOnEvent(tick=0, channel=2, data=[70, 110]),
   midi.NoteOnEvent(tick=0, channel=2, data=[65, 109]),
   midi.NoteOffEvent(tick=960, channel=2, data=[70, 0]),
   midi.NoteOffEvent(tick=0, channel=2, data=[65, 0]),
   midi.NoteOnEvent(tick=0, channel=2, data=[70, 118]),
   midi.NoteOnEvent(tick=0, channel=2, data=[67, 120]),
   midi.NoteOffEvent(tick=960, channel=2, data=[70, 0]),
   midi.NoteOffEvent(tick=0, channel=2, data=[67, 0]),
   midi.NoteOnEvent(tick=960, channel=2, data=[70, 119]),
   midi.NoteOnEvent(tick=0, channel=2, data=[68, 122]),
   midi.NoteOffEvent(tick=960, channel=2, data=[70, 0]),
   midi.NoteOffEvent(tick=0, channel=2, data=[68, 0]),
   midi.NoteOnEvent(tick=960, channel=2, data=[70, 120]),
   midi.NoteOnEvent(tick=0, channel=2, data=[67, 120]),
   midi.NoteOffEvent(tick=960, channel=2, data=[70, 0]),
   midi.NoteOffEvent(tick=0, channel=2, data=[67, 0]),
   midi.NoteOnEvent(tick=960, channel=2, data=[72, 122]),
   midi.NoteOnEvent(tick=0, channel=2, data=[65, 117]),
   midi.NoteOffEvent(tick=960, channel=2, data=[72, 0]),
   midi.NoteOffEvent(tick=0, channel=2, data=[65, 0]),
   midi.NoteOnEvent(tick=960, channel=2, data=[70, 119]),
   midi.NoteOnEvent(tick=0, channel=2, data=[67, 121]),
   midi.NoteOffEvent(tick=960, channel=2, data=[70, 0]),
   midi.NoteOffEvent(tick=0, channel=2, data=[67, 0]),
   midi.NoteOnEvent(tick=960, channel=2, data=[70, 119]),
   midi.NoteOnEvent(tick=0, channel=2, data=[65, 118]),
   midi.NoteOffEvent(tick=480, channel=2, data=[70, 0]),
   midi.NoteOffEvent(tick=0, channel=2, data=[65, 0]),
   midi.NoteOnEvent(tick=0, channel=2, data=[81, 127]),
   midi.NoteOnEvent(tick=0, channel=2, data=[69, 119]),
   midi.NoteOffEvent(tick=480, channel=2, data=[81, 0]),
   midi.NoteOffEvent(tick=0, channel=2, data=[69, 0]),
   midi.NoteOnEvent(tick=0, channel=2, data=[82, 127]),
   midi.NoteOnEvent(tick=0, channel=2, data=[70, 120]),
   midi.NoteOffEvent(tick=480, channel=2, data=[82, 0]),
   midi.NoteOffEvent(tick=0, channel=2, data=[70, 0]),
   midi.NoteOnEvent(tick=0, channel=2, data=[81, 125]),
   midi.NoteOnEvent(tick=0, channel=2, data=[69, 116]),
   midi.NoteOffEvent(tick=480, channel=2, data=[81, 0]),
   midi.NoteOffEvent(tick=0, channel=2, data=[69, 0]),
   midi.NoteOnEvent(tick=0, channel=2, data=[82, 127]),
   midi.NoteOnEvent(tick=0, channel=2, data=[70, 126]),
   midi.NoteOffEvent(tick=480, channel=2, data=[82, 0]),
   midi.NoteOffEvent(tick=0, channel=2, data=[70, 0]),
   midi.NoteOnEvent(tick=0, channel=2, data=[81, 121]),
   midi.NoteOnEvent(tick=0, channel=2, data=[69, 114]),
   midi.NoteOffEvent(tick=480, channel=2, data=[81, 0]),
   midi.NoteOffEvent(tick=0, channel=2, data=[69, 0]),
   midi.NoteOnEvent(tick=0, channel=2, data=[82, 124]),
   midi.NoteOnEvent(tick=0, channel=2, data=[70, 118]),
   midi.NoteOffEvent(tick=480, channel=2, data=[82, 0]),
   midi.NoteOffEvent(tick=0, channel=2, data=[70, 0]),
   midi.NoteOnEvent(tick=0, channel=2, data=[81, 117]),
   midi.NoteOnEvent(tick=0, channel=2, data=[69, 113]),
   midi.NoteOffEvent(tick=480, channel=2, data=[81, 0]),
   midi.NoteOffEvent(tick=0, channel=2, data=[69, 0]),
   midi.NoteOnEvent(tick=0, channel=2, data=[82, 127]),
   midi.NoteOnEvent(tick=0, channel=2, data=[70, 125]),
   midi.NoteOffEvent(tick=480, channel=2, data=[82, 0]),
   midi.NoteOffEvent(tick=0, channel=2, data=[70, 0]),
   midi.NoteOnEvent(tick=0, channel=2, data=[84, 126]),
   midi.NoteOnEvent(tick=0, channel=2, data=[72, 126]),
   midi.NoteOffEvent(tick=480, channel=2, data=[84, 0]),
   midi.NoteOffEvent(tick=0, channel=2, data=[72, 0]),
   midi.NoteOnEvent(tick=0, channel=2, data=[82, 116]),
   midi.NoteOnEvent(tick=0, channel=2, data=[70, 114]),
   midi.NoteOffEvent(tick=480, channel=2, data=[82, 0]),
   midi.NoteOffEvent(tick=0, channel=2, data=[70, 0]),
   midi.NoteOnEvent(tick=0, channel=2, data=[80, 104]),
   midi.NoteOnEvent(tick=0, channel=2, data=[68, 103]),
   midi.NoteOffEvent(tick=480, channel=2, data=[80, 0]),
   midi.NoteOffEvent(tick=0, channel=2, data=[68, 0]),
   midi.NoteOnEvent(tick=0, channel=2, data=[79, 107]),
   midi.NoteOnEvent(tick=0, channel=2, data=[67, 106]),
   midi.NoteOffEvent(tick=960, channel=2, data=[79, 0]),
   midi.NoteOffEvent(tick=0, channel=2, data=[67, 0]),
   midi.NoteOnEvent(tick=0, channel=2, data=[79, 103]),
   midi.NoteOnEvent(tick=0, channel=2, data=[67, 103]),
   midi.NoteOffEvent(tick=960, channel=2, data=[79, 0]),
   midi.NoteOffEvent(tick=0, channel=2, data=[67, 0]),
   midi.NoteOnEvent(tick=960, channel=2, data=[74, 99]),
   midi.NoteOnEvent(tick=0, channel=2, data=[65, 103]),
   midi.NoteOffEvent(tick=960, channel=2, data=[74, 0]),
   midi.NoteOffEvent(tick=0, channel=2, data=[65, 0]),
   midi.NoteOnEvent(tick=960, channel=2, data=[75, 109]),
   midi.NoteOnEvent(tick=0, channel=2, data=[67, 113]),
   midi.NoteOffEvent(tick=960, channel=2, data=[75, 0]),
   midi.NoteOffEvent(tick=0, channel=2, data=[67, 0]),
   midi.NoteOnEvent(tick=960, channel=2, data=[68, 105]),
   midi.NoteOnEvent(tick=0, channel=2, data=[65, 111]),
   midi.NoteOffEvent(tick=960, channel=2, data=[68, 0]),
   midi.NoteOffEvent(tick=0, channel=2, data=[65, 0]),
   midi.NoteOnEvent(tick=960, channel=2, data=[67, 109]),
   midi.NoteOnEvent(tick=0, channel=2, data=[63, 110]),
   midi.NoteOffEvent(tick=960, channel=2, data=[67, 0]),
   midi.NoteOffEvent(tick=0, channel=2, data=[63, 0]),
   midi.NoteOnEvent(tick=960, channel=2, data=[74, 119]),
   midi.NoteOnEvent(tick=0, channel=2, data=[65, 114]),
   midi.NoteOffEvent(tick=960, channel=2, data=[74, 0]),
   midi.NoteOffEvent(tick=0, channel=2, data=[65, 0]),
   midi.NoteOnEvent(tick=0, channel=2, data=[75, 126]),
   midi.NoteOnEvent(tick=0, channel=2, data=[67, 124]),
   midi.NoteOffEvent(tick=480, channel=2, data=[75, 0]),
   midi.NoteOffEvent(tick=0, channel=2, data=[67, 0]),
   midi.NoteOnEvent(tick=0, channel=2, data=[79, 125]),
   midi.NoteOffEvent(tick=480, channel=2, data=[79, 0]),
   midi.NoteOnEvent(tick=0, channel=2, data=[79, 124]),
   midi.NoteOffEvent(tick=480, channel=2, data=[79, 0]),
   midi.NoteOnEvent(tick=0, channel=2, data=[79, 122]),
   midi.NoteOffEvent(tick=480, channel=2, data=[79, 0]),
   midi.NoteOnEvent(tick=0, channel=2, data=[75, 112]),
   midi.NoteOffEvent(tick=480, channel=2, data=[75, 0]),
   midi.NoteOnEvent(tick=0, channel=2, data=[82, 127]),
   midi.NoteOnEvent(tick=0, channel=2, data=[70, 118]),
   midi.NoteOffEvent(tick=480, channel=2, data=[82, 0]),
   midi.NoteOffEvent(tick=0, channel=2, data=[70, 0]),
   midi.NoteOnEvent(tick=0, channel=2, data=[82, 127]),
   midi.NoteOnEvent(tick=0, channel=2, data=[70, 117]),
   midi.NoteOffEvent(tick=480, channel=2, data=[82, 0]),
   midi.NoteOffEvent(tick=0, channel=2, data=[70, 0]),
   midi.NoteOnEvent(tick=0, channel=2, data=[82, 126]),
   midi.NoteOnEvent(tick=0, channel=2, data=[70, 116]),
   midi.NoteOffEvent(tick=480, channel=2, data=[82, 0]),
   midi.NoteOffEvent(tick=0, channel=2, data=[70, 0]),
   midi.NoteOnEvent(tick=0, channel=2, data=[79, 118]),
   midi.NoteOnEvent(tick=0, channel=2, data=[67, 113]),
   midi.NoteOffEvent(tick=480, channel=2, data=[79, 0]),
   midi.NoteOffEvent(tick=0, channel=2, data=[67, 0]),
   midi.NoteOnEvent(tick=0, channel=2, data=[75, 96]),
   midi.NoteOnEvent(tick=0, channel=2, data=[63, 97]),
   midi.NoteOffEvent(tick=480, channel=2, data=[75, 0]),
   midi.NoteOffEvent(tick=0, channel=2, data=[63, 0]),
   midi.NoteOnEvent(tick=0, channel=2, data=[75, 97]),
   midi.NoteOnEvent(tick=0, channel=2, data=[63, 99]),
   midi.NoteOffEvent(tick=480, channel=2, data=[75, 0]),
   midi.NoteOffEvent(tick=0, channel=2, data=[63, 0]),
   midi.NoteOnEvent(tick=0, channel=2, data=[75, 99]),
   midi.NoteOnEvent(tick=0, channel=2, data=[63, 100]),
   midi.NoteOffEvent(tick=480, channel=2, data=[75, 0]),
   midi.NoteOffEvent(tick=0, channel=2, data=[63, 0]),
   midi.NoteOnEvent(tick=0, channel=2, data=[70, 102]),
   midi.NoteOnEvent(tick=0, channel=2, data=[58, 102]),
   midi.NoteOffEvent(tick=2400, channel=2, data=[70, 0]),
   midi.NoteOffEvent(tick=0, channel=2, data=[58, 0]),
   midi.NoteOnEvent(tick=0, channel=2, data=[79, 121]),
   midi.NoteOffEvent(tick=480, channel=2, data=[79, 0]),
   midi.NoteOnEvent(tick=0, channel=2, data=[79, 120]),
   midi.NoteOffEvent(tick=480, channel=2, data=[79, 0]),
   midi.NoteOnEvent(tick=0, channel=2, data=[79, 119]),
   midi.NoteOffEvent(tick=480, channel=2, data=[79, 0]),
   midi.NoteOnEvent(tick=0, channel=2, data=[75, 110]),
   midi.NoteOffEvent(tick=480, channel=2, data=[75, 0]),
   midi.NoteOnEvent(tick=0, channel=2, data=[82, 127]),
   midi.NoteOnEvent(tick=0, channel=2, data=[70, 120]),
   midi.NoteOffEvent(tick=480, channel=2, data=[82, 0]),
   midi.NoteOffEvent(tick=0, channel=2, data=[70, 0]),
   midi.NoteOnEvent(tick=0, channel=2, data=[82, 127]),
   midi.NoteOnEvent(tick=0, channel=2, data=[70, 118]),
   midi.NoteOffEvent(tick=480, channel=2, data=[82, 0]),
   midi.NoteOffEvent(tick=0, channel=2, data=[70, 0]),
   midi.NoteOnEvent(tick=0, channel=2, data=[82, 125]),
   midi.NoteOnEvent(tick=0, channel=2, data=[70, 117]),
   midi.NoteOffEvent(tick=480, channel=2, data=[82, 0]),
   midi.NoteOffEvent(tick=0, channel=2, data=[70, 0]),
   midi.NoteOnEvent(tick=0, channel=2, data=[79, 116]),
   midi.NoteOnEvent(tick=0, channel=2, data=[67, 114]),
   midi.NoteOffEvent(tick=480, channel=2, data=[79, 0]),
   midi.NoteOffEvent(tick=0, channel=2, data=[67, 0]),
   midi.NoteOnEvent(tick=0, channel=2, data=[75, 96]),
   midi.NoteOnEvent(tick=0, channel=2, data=[63, 98]),
   midi.NoteOffEvent(tick=480, channel=2, data=[75, 0]),
   midi.NoteOffEvent(tick=0, channel=2, data=[63, 0]),
   midi.NoteOnEvent(tick=0, channel=2, data=[75, 98]),
   midi.NoteOnEvent(tick=0, channel=2, data=[63, 99]),
   midi.NoteOffEvent(tick=480, channel=2, data=[75, 0]),
   midi.NoteOffEvent(tick=0, channel=2, data=[63, 0]),
   midi.NoteOnEvent(tick=0, channel=2, data=[75, 99]),
   midi.NoteOnEvent(tick=0, channel=2, data=[63, 100]),
   midi.NoteOffEvent(tick=480, channel=2, data=[75, 0]),
   midi.NoteOffEvent(tick=0, channel=2, data=[63, 0]),
   midi.NoteOnEvent(tick=0, channel=2, data=[70, 102]),
   midi.NoteOnEvent(tick=0, channel=2, data=[58, 102]),
   midi.NoteOffEvent(tick=2880, channel=2, data=[70, 0]),
   midi.NoteOffEvent(tick=0, channel=2, data=[58, 0]),
   midi.NoteOnEvent(tick=1440, channel=2, data=[74, 112]),
   midi.NoteOnEvent(tick=0, channel=2, data=[65, 115]),
   midi.NoteOffEvent(tick=480, channel=2, data=[74, 0]),
   midi.NoteOffEvent(tick=0, channel=2, data=[65, 0]),
   midi.NoteOnEvent(tick=0, channel=2, data=[74, 113]),
   midi.NoteOnEvent(tick=0, channel=2, data=[65, 115]),
   midi.NoteOffEvent(tick=480, channel=2, data=[74, 0]),
   midi.NoteOffEvent(tick=0, channel=2, data=[65, 0]),
   midi.NoteOnEvent(tick=0, channel=2, data=[74, 113]),
   midi.NoteOnEvent(tick=0, channel=2, data=[65, 114]),
   midi.NoteOffEvent(tick=480, channel=2, data=[74, 0]),
   midi.NoteOffEvent(tick=0, channel=2, data=[65, 0]),
   midi.NoteOnEvent(tick=0, channel=2, data=[75, 123]),
   midi.NoteOnEvent(tick=0, channel=2, data=[67, 127]),
   midi.NoteOffEvent(tick=960, channel=2, data=[75, 0]),
   midi.NoteOffEvent(tick=0, channel=2, data=[67, 0]),
   midi.NoteOnEvent(tick=1440, channel=2, data=[77, 118]),
   midi.NoteOnEvent(tick=0, channel=2, data=[74, 126]),
   midi.NoteOffEvent(tick=480, channel=2, data=[77, 0]),
   midi.NoteOffEvent(tick=0, channel=2, data=[74, 0]),
   midi.NoteOnEvent(tick=0, channel=2, data=[77, 117]),
   midi.NoteOnEvent(tick=0, channel=2, data=[74, 125]),
   midi.NoteOffEvent(tick=480, channel=2, data=[77, 0]),
   midi.NoteOffEvent(tick=0, channel=2, data=[74, 0]),
   midi.NoteOnEvent(tick=0, channel=2, data=[77, 116]),
   midi.NoteOnEvent(tick=0, channel=2, data=[74, 123]),
   midi.NoteOffEvent(tick=480, channel=2, data=[77, 0]),
   midi.NoteOffEvent(tick=0, channel=2, data=[74, 0]),
   midi.NoteOnEvent(tick=0, channel=2, data=[75, 115]),
   midi.NoteOnEvent(tick=0, channel=2, data=[67, 105]),
   midi.NoteOffEvent(tick=960, channel=2, data=[75, 0]),
   midi.NoteOffEvent(tick=0, channel=2, data=[67, 0]),
   midi.NoteOnEvent(tick=5280, channel=2, data=[67, 111]),
   midi.NoteOffEvent(tick=480, channel=2, data=[67, 0]),
   midi.NoteOnEvent(tick=0, channel=2, data=[67, 112]),
   midi.NoteOffEvent(tick=480, channel=2, data=[67, 0]),
   midi.NoteOnEvent(tick=0, channel=2, data=[67, 113]),
   midi.NoteOffEvent(tick=480, channel=2, data=[67, 0]),
   midi.NoteOnEvent(tick=0, channel=2, data=[63, 109]),
   midi.NoteOffEvent(tick=2880, channel=2, data=[63, 0]),
   midi.NoteOnEvent(tick=480, channel=2, data=[65, 112]),
   midi.NoteOffEvent(tick=480, channel=2, data=[65, 0]),
   midi.NoteOnEvent(tick=0, channel=2, data=[65, 112]),
   midi.NoteOffEvent(tick=480, channel=2, data=[65, 0]),
   midi.NoteOnEvent(tick=0, channel=2, data=[65, 113]),
   midi.NoteOffEvent(tick=480, channel=2, data=[65, 0]),
   midi.NoteOnEvent(tick=0, channel=2, data=[62, 110]),
   midi.NoteOffEvent(tick=2880, channel=2, data=[62, 0]),
   midi.NoteOnEvent(tick=23520, channel=2, data=[59, 61]),
   midi.NoteOnEvent(tick=0, channel=2, data=[55, 61]),
   midi.NoteOffEvent(tick=480, channel=2, data=[59, 0]),
   midi.NoteOffEvent(tick=0, channel=2, data=[55, 0]),
   midi.NoteOnEvent(tick=0, channel=2, data=[62, 62]),
   midi.NoteOnEvent(tick=0, channel=2, data=[59, 63]),
   midi.NoteOffEvent(tick=480, channel=2, data=[62, 0]),
   midi.NoteOffEvent(tick=0, channel=2, data=[59, 0]),
   midi.NoteOnEvent(tick=0, channel=2, data=[67, 86]),
   midi.NoteOnEvent(tick=0, channel=2, data=[62, 65]),
   midi.NoteOffEvent(tick=480, channel=2, data=[67, 0]),
   midi.NoteOffEvent(tick=0, channel=2, data=[62, 0]),
   midi.NoteOnEvent(tick=0, channel=2, data=[67, 113]),
   midi.NoteOnEvent(tick=0, channel=2, data=[63, 113]),
   midi.NoteOffEvent(tick=960, channel=2, data=[67, 0]),
   midi.NoteOffEvent(tick=0, channel=2, data=[63, 0]),
   midi.NoteOnEvent(tick=960, channel=2, data=[66, 107]),
   midi.NoteOnEvent(tick=0, channel=2, data=[60, 103]),
   midi.NoteOffEvent(tick=960, channel=2, data=[66, 0]),
   midi.NoteOffEvent(tick=0, channel=2, data=[60, 0]),
   midi.NoteOnEvent(tick=960, channel=2, data=[62, 99]),
   midi.NoteOnEvent(tick=0, channel=2, data=[59, 102]),
   midi.NoteOffEvent(tick=960, channel=2, data=[62, 0]),
   midi.NoteOffEvent(tick=0, channel=2, data=[59, 0]),
   midi.NoteOnEvent(tick=3360, channel=2, data=[68, 115]),
   midi.NoteOffEvent(tick=480, channel=2, data=[68, 0]),
   midi.NoteOnEvent(tick=0, channel=2, data=[68, 114]),
   midi.NoteOffEvent(tick=480, channel=2, data=[68, 0]),
   midi.NoteOnEvent(tick=0, channel=2, data=[68, 114]),
   midi.NoteOffEvent(tick=480, channel=2, data=[68, 0]),
   midi.NoteOnEvent(tick=0, channel=2, data=[65, 112]),
   midi.NoteOffEvent(tick=3840, channel=2, data=[65, 0]),
   midi.NoteOnEvent(tick=13920, channel=2, data=[74, 61]),
   midi.NoteOffEvent(tick=480, channel=2, data=[74, 0]),
   midi.NoteOnEvent(tick=0, channel=2, data=[74, 61]),
   midi.NoteOffEvent(tick=480, channel=2, data=[74, 0]),
   midi.NoteOnEvent(tick=0, channel=2, data=[74, 61]),
   midi.NoteOffEvent(tick=480, channel=2, data=[74, 0]),
   midi.NoteOnEvent(tick=0, channel=2, data=[72, 62]),
   midi.NoteOffEvent(tick=960, channel=2, data=[72, 0]),
   midi.NoteOnEvent(tick=8640, channel=2, data=[68, 104]),
   midi.NoteOnEvent(tick=0, channel=2, data=[65, 104]),
   midi.NoteOffEvent(tick=960, channel=2, data=[68, 0]),
   midi.NoteOffEvent(tick=0, channel=2, data=[65, 0]),
   midi.NoteOnEvent(tick=960, channel=2, data=[67, 103]),
   midi.NoteOnEvent(tick=0, channel=2, data=[64, 103]),
   midi.NoteOffEvent(tick=960, channel=2, data=[67, 0]),
   midi.NoteOffEvent(tick=0, channel=2, data=[64, 0]),
   midi.NoteOnEvent(tick=960, channel=2, data=[68, 104]),
   midi.NoteOnEvent(tick=0, channel=2, data=[65, 104]),
   midi.NoteOffEvent(tick=960, channel=2, data=[68, 0]),
   midi.NoteOffEvent(tick=0, channel=2, data=[65, 0]),
   midi.NoteOnEvent(tick=960, channel=2, data=[70, 106]),
   midi.NoteOnEvent(tick=0, channel=2, data=[67, 106]),
   midi.NoteOffEvent(tick=960, channel=2, data=[70, 0]),
   midi.NoteOffEvent(tick=0, channel=2, data=[67, 0]),
   midi.NoteOnEvent(tick=960, channel=2, data=[68, 103]),
   midi.NoteOnEvent(tick=0, channel=2, data=[65, 103]),
   midi.NoteOffEvent(tick=960, channel=2, data=[68, 0]),
   midi.NoteOffEvent(tick=0, channel=2, data=[65, 0]),
   midi.NoteOnEvent(tick=960, channel=2, data=[65, 100]),
   midi.NoteOnEvent(tick=0, channel=2, data=[62, 100]),
   midi.NoteOffEvent(tick=960, channel=2, data=[65, 0]),
   midi.NoteOffEvent(tick=0, channel=2, data=[62, 0]),
   midi.NoteOnEvent(tick=960, channel=2, data=[67, 104]),
   midi.NoteOnEvent(tick=0, channel=2, data=[63, 103]),
   midi.NoteOffEvent(tick=7680, channel=2, data=[67, 0]),
   midi.NoteOffEvent(tick=0, channel=2, data=[63, 0]),
   midi.NoteOnEvent(tick=0, channel=2, data=[65, 104]),
   midi.NoteOnEvent(tick=0, channel=2, data=[62, 104]),
   midi.NoteOffEvent(tick=6720, channel=2, data=[65, 0]),
   midi.NoteOffEvent(tick=0, channel=2, data=[62, 0]),
   midi.NoteOnEvent(tick=0, channel=2, data=[60, 98]),
   midi.NoteOnEvent(tick=0, channel=2, data=[63, 98]),
   midi.NoteOffEvent(tick=960, channel=2, data=[60, 0]),
   midi.NoteOffEvent(tick=0, channel=2, data=[63, 0]),
   midi.NoteOnEvent(tick=0, channel=2, data=[75, 127]),
   midi.NoteOnEvent(tick=0, channel=2, data=[66, 120]),
   midi.NoteOffEvent(tick=7680, channel=2, data=[75, 0]),
   midi.NoteOffEvent(tick=0, channel=2, data=[66, 0]),
   midi.NoteOnEvent(tick=0, channel=2, data=[75, 120]),
   midi.NoteOnEvent(tick=0, channel=2, data=[66, 120]),
   midi.NoteOffEvent(tick=960, channel=2, data=[75, 0]),
   midi.NoteOffEvent(tick=0, channel=2, data=[66, 0]),
   midi.NoteOnEvent(tick=2880, channel=2, data=[70, 118]),
   midi.NoteOffEvent(tick=960, channel=2, data=[70, 0]),
   midi.NoteOnEvent(tick=16320, channel=2, data=[70, 65]),
   midi.NoteOffEvent(tick=960, channel=2, data=[70, 0]),
   midi.NoteOnEvent(tick=0, channel=2, data=[75, 63]),
   midi.NoteOffEvent(tick=960, channel=2, data=[75, 0]),
   midi.NoteOnEvent(tick=0, channel=2, data=[74, 66]),
   midi.NoteOffEvent(tick=960, channel=2, data=[74, 0]),
   midi.NoteOnEvent(tick=0, channel=2, data=[75, 63]),
   midi.NoteOffEvent(tick=960, channel=2, data=[75, 0]),
   midi.NoteOnEvent(tick=0, channel=2, data=[77, 68]),
   midi.NoteOffEvent(tick=960, channel=2, data=[77, 0]),
   midi.NoteOnEvent(tick=0, channel=2, data=[72, 57]),
   midi.NoteOffEvent(tick=960, channel=2, data=[72, 0]),
   midi.NoteOnEvent(tick=0, channel=2, data=[72, 62]),
   midi.NoteOffEvent(tick=960, channel=2, data=[72, 0]),
   midi.NoteOnEvent(tick=0, channel=2, data=[70, 56]),
   midi.NoteOffEvent(tick=960, channel=2, data=[70, 0]),
   midi.NoteOnEvent(tick=23040, channel=2, data=[75, 65]),
   midi.NoteOnEvent(tick=0, channel=2, data=[72, 65]),
   midi.NoteOffEvent(tick=5760, channel=2, data=[75, 0]),
   midi.NoteOffEvent(tick=0, channel=2, data=[72, 0]),
   midi.NoteOnEvent(tick=0, channel=2, data=[75, 75]),
   midi.NoteOnEvent(tick=0, channel=2, data=[70, 64]),
   midi.NoteOffEvent(tick=3840, channel=2, data=[75, 0]),
   midi.NoteOffEvent(tick=0, channel=2, data=[70, 0]),
   midi.NoteOnEvent(tick=0, channel=2, data=[75, 89]),
   midi.NoteOnEvent(tick=0, channel=2, data=[69, 89]),
   midi.NoteOffEvent(tick=8640, channel=2, data=[75, 0]),
   midi.NoteOffEvent(tick=0, channel=2, data=[69, 0]),
   midi.NoteOnEvent(tick=0, channel=2, data=[75, 84]),
   midi.NoteOnEvent(tick=0, channel=2, data=[69, 84]),
   midi.NoteOffEvent(tick=960, channel=2, data=[75, 0]),
   midi.NoteOffEvent(tick=0, channel=2, data=[69, 0]),
   midi.NoteOnEvent(tick=0, channel=2, data=[75, 89]),
   midi.NoteOnEvent(tick=0, channel=2, data=[69, 89]),
   midi.NoteOffEvent(tick=960, channel=2, data=[75, 0]),
   midi.NoteOffEvent(tick=0, channel=2, data=[69, 0]),
   midi.NoteOnEvent(tick=0, channel=2, data=[75, 84]),
   midi.NoteOnEvent(tick=0, channel=2, data=[69, 84]),
   midi.NoteOffEvent(tick=960, channel=2, data=[75, 0]),
   midi.NoteOffEvent(tick=0, channel=2, data=[69, 0]),
   midi.NoteOnEvent(tick=0, channel=2, data=[70, 110]),
   midi.NoteOnEvent(tick=0, channel=2, data=[68, 118]),
   midi.NoteOffEvent(tick=2880, channel=2, data=[70, 0]),
   midi.NoteOffEvent(tick=0, channel=2, data=[68, 0]),
   midi.NoteOnEvent(tick=0, channel=2, data=[70, 110]),
   midi.NoteOnEvent(tick=0, channel=2, data=[65, 109]),
   midi.NoteOffEvent(tick=960, channel=2, data=[70, 0]),
   midi.NoteOffEvent(tick=0, channel=2, data=[65, 0]),
   midi.NoteOnEvent(tick=0, channel=2, data=[70, 118]),
   midi.NoteOnEvent(tick=0, channel=2, data=[67, 120]),
   midi.NoteOffEvent(tick=960, channel=2, data=[70, 0]),
   midi.NoteOffEvent(tick=0, channel=2, data=[67, 0]),
   midi.NoteOnEvent(tick=960, channel=2, data=[70, 119]),
   midi.NoteOnEvent(tick=0, channel=2, data=[68, 122]),
   midi.NoteOffEvent(tick=960, channel=2, data=[70, 0]),
   midi.NoteOffEvent(tick=0, channel=2, data=[68, 0]),
   midi.NoteOnEvent(tick=960, channel=2, data=[70, 120]),
   midi.NoteOnEvent(tick=0, channel=2, data=[67, 120]),
   midi.NoteOffEvent(tick=960, channel=2, data=[70, 0]),
   midi.NoteOffEvent(tick=0, channel=2, data=[67, 0]),
   midi.NoteOnEvent(tick=960, channel=2, data=[72, 122]),
   midi.NoteOnEvent(tick=0, channel=2, data=[65, 117]),
   midi.NoteOffEvent(tick=960, channel=2, data=[72, 0]),
   midi.NoteOffEvent(tick=0, channel=2, data=[65, 0]),
   midi.NoteOnEvent(tick=960, channel=2, data=[70, 119]),
   midi.NoteOnEvent(tick=0, channel=2, data=[67, 121]),
   midi.NoteOffEvent(tick=960, channel=2, data=[70, 0]),
   midi.NoteOffEvent(tick=0, channel=2, data=[67, 0]),
   midi.NoteOnEvent(tick=960, channel=2, data=[70, 119]),
   midi.NoteOnEvent(tick=0, channel=2, data=[65, 118]),
   midi.NoteOffEvent(tick=480, channel=2, data=[70, 0]),
   midi.NoteOffEvent(tick=0, channel=2, data=[65, 0]),
   midi.NoteOnEvent(tick=0, channel=2, data=[81, 127]),
   midi.NoteOnEvent(tick=0, channel=2, data=[69, 119]),
   midi.NoteOffEvent(tick=480, channel=2, data=[81, 0]),
   midi.NoteOffEvent(tick=0, channel=2, data=[69, 0]),
   midi.NoteOnEvent(tick=0, channel=2, data=[82, 127]),
   midi.NoteOnEvent(tick=0, channel=2, data=[70, 120]),
   midi.NoteOffEvent(tick=480, channel=2, data=[82, 0]),
   midi.NoteOffEvent(tick=0, channel=2, data=[70, 0]),
   midi.NoteOnEvent(tick=0, channel=2, data=[81, 125]),
   midi.NoteOnEvent(tick=0, channel=2, data=[69, 116]),
   midi.NoteOffEvent(tick=480, channel=2, data=[81, 0]),
   midi.NoteOffEvent(tick=0, channel=2, data=[69, 0]),
   midi.NoteOnEvent(tick=0, channel=2, data=[82, 127]),
   midi.NoteOnEvent(tick=0, channel=2, data=[70, 126]),
   midi.NoteOffEvent(tick=480, channel=2, data=[82, 0]),
   midi.NoteOffEvent(tick=0, channel=2, data=[70, 0]),
   midi.NoteOnEvent(tick=0, channel=2, data=[81, 121]),
   midi.NoteOnEvent(tick=0, channel=2, data=[69, 114]),
   midi.NoteOffEvent(tick=480, channel=2, data=[81, 0]),
   midi.NoteOffEvent(tick=0, channel=2, data=[69, 0]),
   midi.NoteOnEvent(tick=0, channel=2, data=[82, 124]),
   midi.NoteOnEvent(tick=0, channel=2, data=[70, 118]),
   midi.NoteOffEvent(tick=480, channel=2, data=[82, 0]),
   midi.NoteOffEvent(tick=0, channel=2, data=[70, 0]),
   midi.NoteOnEvent(tick=0, channel=2, data=[81, 117]),
   midi.NoteOnEvent(tick=0, channel=2, data=[69, 113]),
   midi.NoteOffEvent(tick=480, channel=2, data=[81, 0]),
   midi.NoteOffEvent(tick=0, channel=2, data=[69, 0]),
   midi.NoteOnEvent(tick=0, channel=2, data=[82, 127]),
   midi.NoteOnEvent(tick=0, channel=2, data=[70, 125]),
   midi.NoteOffEvent(tick=480, channel=2, data=[82, 0]),
   midi.NoteOffEvent(tick=0, channel=2, data=[70, 0]),
   midi.NoteOnEvent(tick=0, channel=2, data=[84, 126]),
   midi.NoteOnEvent(tick=0, channel=2, data=[72, 126]),
   midi.NoteOffEvent(tick=480, channel=2, data=[84, 0]),
   midi.NoteOffEvent(tick=0, channel=2, data=[72, 0]),
   midi.NoteOnEvent(tick=0, channel=2, data=[82, 116]),
   midi.NoteOnEvent(tick=0, channel=2, data=[70, 114]),
   midi.NoteOffEvent(tick=480, channel=2, data=[82, 0]),
   midi.NoteOffEvent(tick=0, channel=2, data=[70, 0]),
   midi.NoteOnEvent(tick=0, channel=2, data=[80, 104]),
   midi.NoteOnEvent(tick=0, channel=2, data=[68, 103]),
   midi.NoteOffEvent(tick=480, channel=2, data=[80, 0]),
   midi.NoteOffEvent(tick=0, channel=2, data=[68, 0]),
   midi.NoteOnEvent(tick=0, channel=2, data=[79, 107]),
   midi.NoteOnEvent(tick=0, channel=2, data=[67, 106]),
   midi.NoteOffEvent(tick=960, channel=2, data=[79, 0]),
   midi.NoteOffEvent(tick=0, channel=2, data=[67, 0]),
   midi.NoteOnEvent(tick=0, channel=2, data=[79, 103]),
   midi.NoteOnEvent(tick=0, channel=2, data=[67, 103]),
   midi.NoteOffEvent(tick=960, channel=2, data=[79, 0]),
   midi.NoteOffEvent(tick=0, channel=2, data=[67, 0]),
   midi.NoteOnEvent(tick=960, channel=2, data=[74, 99]),
   midi.NoteOnEvent(tick=0, channel=2, data=[65, 103]),
   midi.NoteOffEvent(tick=960, channel=2, data=[74, 0]),
   midi.NoteOffEvent(tick=0, channel=2, data=[65, 0]),
   midi.NoteOnEvent(tick=960, channel=2, data=[75, 109]),
   midi.NoteOnEvent(tick=0, channel=2, data=[67, 113]),
   midi.NoteOffEvent(tick=960, channel=2, data=[75, 0]),
   midi.NoteOffEvent(tick=0, channel=2, data=[67, 0]),
   midi.NoteOnEvent(tick=960, channel=2, data=[68, 105]),
   midi.NoteOnEvent(tick=0, channel=2, data=[65, 111]),
   midi.NoteOffEvent(tick=960, channel=2, data=[68, 0]),
   midi.NoteOffEvent(tick=0, channel=2, data=[65, 0]),
   midi.NoteOnEvent(tick=960, channel=2, data=[67, 109]),
   midi.NoteOnEvent(tick=0, channel=2, data=[63, 110]),
   midi.NoteOffEvent(tick=960, channel=2, data=[67, 0]),
   midi.NoteOffEvent(tick=0, channel=2, data=[63, 0]),
   midi.NoteOnEvent(tick=960, channel=2, data=[74, 119]),
   midi.NoteOnEvent(tick=0, channel=2, data=[65, 114]),
   midi.NoteOffEvent(tick=960, channel=2, data=[74, 0]),
   midi.NoteOffEvent(tick=0, channel=2, data=[65, 0]),
   midi.NoteOnEvent(tick=0, channel=2, data=[75, 126]),
   midi.NoteOnEvent(tick=0, channel=2, data=[67, 124]),
   midi.NoteOffEvent(tick=480, channel=2, data=[75, 0]),
   midi.NoteOffEvent(tick=0, channel=2, data=[67, 0]),
   midi.NoteOnEvent(tick=0, channel=2, data=[79, 125]),
   midi.NoteOffEvent(tick=480, channel=2, data=[79, 0]),
   midi.NoteOnEvent(tick=0, channel=2, data=[79, 124]),
   midi.NoteOffEvent(tick=480, channel=2, data=[79, 0]),
   midi.NoteOnEvent(tick=0, channel=2, data=[79, 122]),
   midi.NoteOffEvent(tick=480, channel=2, data=[79, 0]),
   midi.NoteOnEvent(tick=0, channel=2, data=[75, 112]),
   midi.NoteOffEvent(tick=480, channel=2, data=[75, 0]),
   midi.NoteOnEvent(tick=0, channel=2, data=[82, 127]),
   midi.NoteOnEvent(tick=0, channel=2, data=[70, 118]),
   midi.NoteOffEvent(tick=480, channel=2, data=[82, 0]),
   midi.NoteOffEvent(tick=0, channel=2, data=[70, 0]),
   midi.NoteOnEvent(tick=0, channel=2, data=[82, 127]),
   midi.NoteOnEvent(tick=0, channel=2, data=[70, 117]),
   midi.NoteOffEvent(tick=480, channel=2, data=[82, 0]),
   midi.NoteOffEvent(tick=0, channel=2, data=[70, 0]),
   midi.NoteOnEvent(tick=0, channel=2, data=[82, 126]),
   midi.NoteOnEvent(tick=0, channel=2, data=[70, 116]),
   midi.NoteOffEvent(tick=480, channel=2, data=[82, 0]),
   midi.NoteOffEvent(tick=0, channel=2, data=[70, 0]),
   midi.NoteOnEvent(tick=0, channel=2, data=[79, 118]),
   midi.NoteOnEvent(tick=0, channel=2, data=[67, 113]),
   midi.NoteOffEvent(tick=480, channel=2, data=[79, 0]),
   midi.NoteOffEvent(tick=0, channel=2, data=[67, 0]),
   midi.NoteOnEvent(tick=0, channel=2, data=[75, 96]),
   midi.NoteOnEvent(tick=0, channel=2, data=[63, 97]),
   midi.NoteOffEvent(tick=480, channel=2, data=[75, 0]),
   midi.NoteOffEvent(tick=0, channel=2, data=[63, 0]),
   midi.NoteOnEvent(tick=0, channel=2, data=[75, 98]),
   midi.NoteOnEvent(tick=0, channel=2, data=[63, 99]),
   midi.NoteOffEvent(tick=480, channel=2, data=[75, 0]),
   midi.NoteOffEvent(tick=0, channel=2, data=[63, 0]),
   midi.NoteOnEvent(tick=0, channel=2, data=[75, 99]),
   midi.NoteOnEvent(tick=0, channel=2, data=[63, 100]),
   midi.NoteOffEvent(tick=480, channel=2, data=[75, 0]),
   midi.NoteOffEvent(tick=0, channel=2, data=[63, 0]),
   midi.NoteOnEvent(tick=0, channel=2, data=[70, 102]),
   midi.NoteOnEvent(tick=0, channel=2, data=[58, 102]),
   midi.NoteOffEvent(tick=2400, channel=2, data=[70, 0]),
   midi.NoteOffEvent(tick=0, channel=2, data=[58, 0]),
   midi.NoteOnEvent(tick=0, channel=2, data=[79, 121]),
   midi.NoteOffEvent(tick=480, channel=2, data=[79, 0]),
   midi.NoteOnEvent(tick=0, channel=2, data=[79, 120]),
   midi.NoteOffEvent(tick=480, channel=2, data=[79, 0]),
   midi.NoteOnEvent(tick=0, channel=2, data=[79, 119]),
   midi.NoteOffEvent(tick=480, channel=2, data=[79, 0]),
   midi.NoteOnEvent(tick=0, channel=2, data=[75, 110]),
   midi.NoteOffEvent(tick=480, channel=2, data=[75, 0]),
   midi.NoteOnEvent(tick=0, channel=2, data=[82, 127]),
   midi.NoteOnEvent(tick=0, channel=2, data=[70, 120]),
   midi.NoteOffEvent(tick=480, channel=2, data=[82, 0]),
   midi.NoteOffEvent(tick=0, channel=2, data=[70, 0]),
   midi.NoteOnEvent(tick=0, channel=2, data=[82, 127]),
   midi.NoteOnEvent(tick=0, channel=2, data=[70, 118]),
   midi.NoteOffEvent(tick=480, channel=2, data=[82, 0]),
   midi.NoteOffEvent(tick=0, channel=2, data=[70, 0]),
   midi.NoteOnEvent(tick=0, channel=2, data=[82, 125]),
   midi.NoteOnEvent(tick=0, channel=2, data=[70, 117]),
   midi.NoteOffEvent(tick=480, channel=2, data=[82, 0]),
   midi.NoteOffEvent(tick=0, channel=2, data=[70, 0]),
   midi.NoteOnEvent(tick=0, channel=2, data=[79, 116]),
   midi.NoteOnEvent(tick=0, channel=2, data=[67, 114]),
   midi.NoteOffEvent(tick=480, channel=2, data=[79, 0]),
   midi.NoteOffEvent(tick=0, channel=2, data=[67, 0]),
   midi.NoteOnEvent(tick=0, channel=2, data=[75, 96]),
   midi.NoteOnEvent(tick=0, channel=2, data=[63, 98]),
   midi.NoteOffEvent(tick=480, channel=2, data=[75, 0]),
   midi.NoteOffEvent(tick=0, channel=2, data=[63, 0]),
   midi.NoteOnEvent(tick=0, channel=2, data=[75, 98]),
   midi.NoteOnEvent(tick=0, channel=2, data=[63, 99]),
   midi.NoteOffEvent(tick=480, channel=2, data=[75, 0]),
   midi.NoteOffEvent(tick=0, channel=2, data=[63, 0]),
   midi.NoteOnEvent(tick=0, channel=2, data=[75, 99]),
   midi.NoteOnEvent(tick=0, channel=2, data=[63, 100]),
   midi.NoteOffEvent(tick=480, channel=2, data=[75, 0]),
   midi.NoteOffEvent(tick=0, channel=2, data=[63, 0]),
   midi.NoteOnEvent(tick=0, channel=2, data=[70, 102]),
   midi.NoteOnEvent(tick=0, channel=2, data=[58, 102]),
   midi.NoteOffEvent(tick=2880, channel=2, data=[70, 0]),
   midi.NoteOffEvent(tick=0, channel=2, data=[58, 0]),
   midi.NoteOnEvent(tick=1440, channel=2, data=[74, 112]),
   midi.NoteOnEvent(tick=0, channel=2, data=[65, 115]),
   midi.NoteOffEvent(tick=480, channel=2, data=[74, 0]),
   midi.NoteOffEvent(tick=0, channel=2, data=[65, 0]),
   midi.NoteOnEvent(tick=0, channel=2, data=[74, 113]),
   midi.NoteOnEvent(tick=0, channel=2, data=[65, 115]),
   midi.NoteOffEvent(tick=480, channel=2, data=[74, 0]),
   midi.NoteOffEvent(tick=0, channel=2, data=[65, 0]),
   midi.NoteOnEvent(tick=0, channel=2, data=[74, 113]),
   midi.NoteOnEvent(tick=0, channel=2, data=[65, 114]),
   midi.NoteOffEvent(tick=480, channel=2, data=[74, 0]),
   midi.NoteOffEvent(tick=0, channel=2, data=[65, 0]),
   midi.NoteOnEvent(tick=0, channel=2, data=[75, 123]),
   midi.NoteOnEvent(tick=0, channel=2, data=[67, 127]),
   midi.NoteOffEvent(tick=960, channel=2, data=[75, 0]),
   midi.NoteOffEvent(tick=0, channel=2, data=[67, 0]),
   midi.NoteOnEvent(tick=1440, channel=2, data=[77, 118]),
   midi.NoteOnEvent(tick=0, channel=2, data=[74, 126]),
   midi.NoteOffEvent(tick=480, channel=2, data=[77, 0]),
   midi.NoteOffEvent(tick=0, channel=2, data=[74, 0]),
   midi.NoteOnEvent(tick=0, channel=2, data=[77, 117]),
   midi.NoteOnEvent(tick=0, channel=2, data=[74, 125]),
   midi.NoteOffEvent(tick=480, channel=2, data=[77, 0]),
   midi.NoteOffEvent(tick=0, channel=2, data=[74, 0]),
   midi.NoteOnEvent(tick=0, channel=2, data=[77, 116]),
   midi.NoteOnEvent(tick=0, channel=2, data=[74, 123]),
   midi.NoteOffEvent(tick=480, channel=2, data=[77, 0]),
   midi.NoteOffEvent(tick=0, channel=2, data=[74, 0]),
   midi.NoteOnEvent(tick=0, channel=2, data=[75, 115]),
   midi.NoteOnEvent(tick=0, channel=2, data=[67, 105]),
   midi.NoteOffEvent(tick=960, channel=2, data=[75, 0]),
   midi.NoteOffEvent(tick=0, channel=2, data=[67, 0]),
   midi.NoteOnEvent(tick=5280, channel=2, data=[70, 112]),
   midi.NoteOffEvent(tick=480, channel=2, data=[70, 0]),
   midi.NoteOnEvent(tick=0, channel=2, data=[70, 112]),
   midi.NoteOffEvent(tick=480, channel=2, data=[70, 0]),
   midi.NoteOnEvent(tick=0, channel=2, data=[70, 113]),
   midi.NoteOffEvent(tick=480, channel=2, data=[70, 0]),
   midi.NoteOnEvent(tick=0, channel=2, data=[67, 112]),
   midi.NoteOffEvent(tick=5760, channel=2, data=[67, 0]),
   midi.NoteOnEvent(tick=2400, channel=2, data=[73, 61]),
   midi.NoteOffEvent(tick=480, channel=2, data=[73, 0]),
   midi.NoteOnEvent(tick=0, channel=2, data=[73, 61]),
   midi.NoteOffEvent(tick=480, channel=2, data=[73, 0]),
   midi.NoteOnEvent(tick=0, channel=2, data=[73, 61]),
   midi.NoteOffEvent(tick=480, channel=2, data=[73, 0]),
   midi.NoteOnEvent(tick=0, channel=2, data=[72, 63]),
   midi.NoteOffEvent(tick=6240, channel=2, data=[72, 0]),
   midi.NoteOnEvent(tick=0, channel=2, data=[73, 61]),
   midi.NoteOffEvent(tick=480, channel=2, data=[73, 0]),
   midi.NoteOnEvent(tick=0, channel=2, data=[73, 61]),
   midi.NoteOffEvent(tick=480, channel=2, data=[73, 0]),
   midi.NoteOnEvent(tick=0, channel=2, data=[73, 61]),
   midi.NoteOffEvent(tick=480, channel=2, data=[73, 0]),
   midi.NoteOnEvent(tick=0, channel=2, data=[72, 63]),
   midi.NoteOffEvent(tick=5760, channel=2, data=[72, 0]),
   midi.NoteOnEvent(tick=0, channel=2, data=[72, 65]),
   midi.NoteOnEvent(tick=0, channel=2, data=[68, 65]),
   midi.NoteOnEvent(tick=1920, channel=2, data=[67, 64]),
   midi.NoteOffEvent(tick=38, channel=2, data=[68, 0]),
   midi.NoteOffEvent(tick=1785, channel=2, data=[67, 0]),
   midi.NoteOnEvent(tick=97, channel=2, data=[68, 65]),
   midi.NoteOffEvent(tick=1920, channel=2, data=[68, 0]),
   midi.NoteOnEvent(tick=0, channel=2, data=[67, 64]),
   midi.NoteOffEvent(tick=1920, channel=2, data=[67, 0]),
   midi.NoteOnEvent(tick=0, channel=2, data=[68, 65]),
   midi.NoteOffEvent(tick=525, channel=2, data=[72, 0]),
   midi.NoteOffEvent(tick=435, channel=2, data=[68, 0]),
   midi.NoteOnEvent(tick=6720, channel=2, data=[75, 65]),
   midi.NoteOnEvent(tick=0, channel=2, data=[72, 65]),
   midi.NoteOffEvent(tick=1920, channel=2, data=[75, 0]),
   midi.NoteOffEvent(tick=0, channel=2, data=[72, 0]),
   midi.NoteOnEvent(tick=0, channel=2, data=[74, 64]),
   midi.NoteOnEvent(tick=0, channel=2, data=[71, 64]),
   midi.NoteOffEvent(tick=1920, channel=2, data=[74, 0]),
   midi.NoteOffEvent(tick=0, channel=2, data=[71, 0]),
   midi.NoteOnEvent(tick=0, channel=2, data=[75, 65]),
   midi.NoteOnEvent(tick=0, channel=2, data=[72, 65]),
   midi.NoteOffEvent(tick=1920, channel=2, data=[75, 0]),
   midi.NoteOffEvent(tick=0, channel=2, data=[72, 0]),
   midi.NoteOnEvent(tick=0, channel=2, data=[74, 64]),
   midi.NoteOnEvent(tick=0, channel=2, data=[71, 64]),
   midi.NoteOffEvent(tick=1920, channel=2, data=[74, 0]),
   midi.NoteOffEvent(tick=0, channel=2, data=[71, 0]),
   midi.NoteOnEvent(tick=0, channel=2, data=[75, 65]),
   midi.NoteOnEvent(tick=0, channel=2, data=[72, 65]),
   midi.NoteOffEvent(tick=960, channel=2, data=[75, 0]),
   midi.NoteOffEvent(tick=0, channel=2, data=[72, 0]),
   midi.NoteOnEvent(tick=5280, channel=2, data=[74, 61]),
   midi.NoteOnEvent(tick=0, channel=2, data=[66, 61]),
   midi.NoteOffEvent(tick=480, channel=2, data=[74, 0]),
   midi.NoteOffEvent(tick=0, channel=2, data=[66, 0]),
   midi.NoteOnEvent(tick=0, channel=2, data=[74, 61]),
   midi.NoteOnEvent(tick=0, channel=2, data=[66, 61]),
   midi.NoteOffEvent(tick=480, channel=2, data=[74, 0]),
   midi.NoteOffEvent(tick=0, channel=2, data=[66, 0]),
   midi.NoteOnEvent(tick=0, channel=2, data=[72, 59]),
   midi.NoteOnEvent(tick=0, channel=2, data=[69, 64]),
   midi.NoteOffEvent(tick=480, channel=2, data=[72, 0]),
   midi.NoteOffEvent(tick=0, channel=2, data=[69, 0]),
   midi.NoteOnEvent(tick=0, channel=2, data=[70, 60]),
   midi.NoteOnEvent(tick=0, channel=2, data=[67, 64]),
   midi.NoteOffEvent(tick=1920, channel=2, data=[70, 0]),
   midi.NoteOffEvent(tick=0, channel=2, data=[67, 0]),
   midi.NoteOnEvent(tick=0, channel=2, data=[69, 61]),
   midi.NoteOnEvent(tick=0, channel=2, data=[66, 63]),
   midi.NoteOffEvent(tick=480, channel=2, data=[69, 0]),
   midi.NoteOffEvent(tick=0, channel=2, data=[66, 0]),
   midi.NoteOnEvent(tick=0, channel=2, data=[74, 65]),
   midi.NoteOnEvent(tick=0, channel=2, data=[66, 60]),
   midi.NoteOffEvent(tick=480, channel=2, data=[74, 0]),
   midi.NoteOffEvent(tick=0, channel=2, data=[66, 0]),
   midi.NoteOnEvent(tick=0, channel=2, data=[74, 65]),
   midi.NoteOnEvent(tick=0, channel=2, data=[66, 60]),
   midi.NoteOffEvent(tick=480, channel=2, data=[74, 0]),
   midi.NoteOffEvent(tick=0, channel=2, data=[66, 0]),
   midi.NoteOnEvent(tick=0, channel=2, data=[72, 60]),
   midi.NoteOnEvent(tick=0, channel=2, data=[69, 66]),
   midi.NoteOffEvent(tick=480, channel=2, data=[72, 0]),
   midi.NoteOffEvent(tick=0, channel=2, data=[69, 0]),
   midi.NoteOnEvent(tick=0, channel=2, data=[70, 59]),
   midi.NoteOnEvent(tick=0, channel=2, data=[67, 65]),
   midi.NoteOffEvent(tick=1920, channel=2, data=[70, 0]),
   midi.NoteOffEvent(tick=0, channel=2, data=[67, 0]),
   midi.NoteOnEvent(tick=0, channel=2, data=[69, 61]),
   midi.NoteOnEvent(tick=0, channel=2, data=[66, 63]),
   midi.NoteOffEvent(tick=1920, channel=2, data=[69, 0]),
   midi.NoteOffEvent(tick=0, channel=2, data=[66, 0]),
   midi.NoteOnEvent(tick=0, channel=2, data=[70, 64]),
   midi.NoteOnEvent(tick=0, channel=2, data=[67, 65]),
   midi.NoteOffEvent(tick=2400, channel=2, data=[70, 0]),
   midi.NoteOffEvent(tick=0, channel=2, data=[67, 0]),
   midi.NoteOnEvent(tick=0, channel=2, data=[67, 59]),
   midi.NoteOffEvent(tick=480, channel=2, data=[67, 0]),
   midi.NoteOnEvent(tick=0, channel=2, data=[69, 62]),
   midi.NoteOffEvent(tick=480, channel=2, data=[69, 0]),
   midi.NoteOnEvent(tick=0, channel=2, data=[70, 63]),
   midi.NoteOffEvent(tick=480, channel=2, data=[70, 0]),
   midi.NoteOnEvent(tick=0, channel=2, data=[72, 70]),
   midi.NoteOnEvent(tick=0, channel=2, data=[66, 64]),
   midi.NoteOffEvent(tick=960, channel=2, data=[72, 0]),
   midi.NoteOffEvent(tick=0, channel=2, data=[66, 0]),
   midi.NoteOnEvent(tick=1440, channel=2, data=[66, 57]),
   midi.NoteOffEvent(tick=480, channel=2, data=[66, 0]),
   midi.NoteOnEvent(tick=0, channel=2, data=[69, 62]),
   midi.NoteOffEvent(tick=480, channel=2, data=[69, 0]),
   midi.NoteOnEvent(tick=0, channel=2, data=[70, 63]),
   midi.NoteOffEvent(tick=480, channel=2, data=[70, 0]),
   midi.NoteOnEvent(tick=0, channel=2, data=[72, 71]),
   midi.NoteOnEvent(tick=0, channel=2, data=[66, 65]),
   midi.NoteOffEvent(tick=960, channel=2, data=[72, 0]),
   midi.NoteOffEvent(tick=0, channel=2, data=[66, 0]),
   midi.NoteOnEvent(tick=1440, channel=2, data=[69, 60]),
   midi.NoteOffEvent(tick=480, channel=2, data=[69, 0]),
   midi.NoteOnEvent(tick=0, channel=2, data=[70, 62]),
   midi.NoteOffEvent(tick=480, channel=2, data=[70, 0]),
   midi.NoteOnEvent(tick=0, channel=2, data=[72, 65]),
   midi.NoteOffEvent(tick=480, channel=2, data=[72, 0]),
   midi.NoteOnEvent(tick=0, channel=2, data=[74, 71]),
   midi.NoteOnEvent(tick=0, channel=2, data=[67, 65]),
   midi.NoteOffEvent(tick=960, channel=2, data=[74, 0]),
   midi.NoteOffEvent(tick=0, channel=2, data=[67, 0]),
   midi.NoteOnEvent(tick=1440, channel=2, data=[67, 56]),
   midi.NoteOffEvent(tick=480, channel=2, data=[67, 0]),
   midi.NoteOnEvent(tick=0, channel=2, data=[70, 61]),
   midi.NoteOffEvent(tick=480, channel=2, data=[70, 0]),
   midi.NoteOnEvent(tick=0, channel=2, data=[72, 64]),
   midi.NoteOffEvent(tick=480, channel=2, data=[72, 0]),
   midi.NoteOnEvent(tick=0, channel=2, data=[74, 71]),
   midi.NoteOnEvent(tick=0, channel=2, data=[67, 65]),
   midi.NoteOffEvent(tick=960, channel=2, data=[74, 0]),
   midi.NoteOffEvent(tick=0, channel=2, data=[67, 0]),
   midi.NoteOnEvent(tick=1440, channel=2, data=[70, 82]),
   midi.NoteOnEvent(tick=0, channel=2, data=[67, 84]),
   midi.NoteOffEvent(tick=480, channel=2, data=[70, 0]),
   midi.NoteOffEvent(tick=0, channel=2, data=[67, 0]),
   midi.NoteOnEvent(tick=0, channel=2, data=[72, 86]),
   midi.NoteOnEvent(tick=0, channel=2, data=[69, 86]),
   midi.NoteOffEvent(tick=480, channel=2, data=[72, 0]),
   midi.NoteOffEvent(tick=0, channel=2, data=[69, 0]),
   midi.NoteOnEvent(tick=0, channel=2, data=[74, 90]),
   midi.NoteOnEvent(tick=0, channel=2, data=[70, 87]),
   midi.NoteOffEvent(tick=480, channel=2, data=[74, 0]),
   midi.NoteOffEvent(tick=0, channel=2, data=[70, 0]),
   midi.NoteOnEvent(tick=0, channel=2, data=[69, 95]),
   midi.NoteOnEvent(tick=0, channel=2, data=[66, 97]),
   midi.NoteOffEvent(tick=3840, channel=2, data=[69, 0]),
   midi.NoteOffEvent(tick=0, channel=2, data=[66, 0]),
   midi.NoteOnEvent(tick=0, channel=2, data=[69, 102]),
   midi.NoteOnEvent(tick=0, channel=2, data=[66, 102]),
   midi.NoteOffEvent(tick=960, channel=2, data=[69, 0]),
   midi.NoteOffEvent(tick=0, channel=2, data=[66, 0]),
   midi.NoteOnEvent(tick=1440, channel=2, data=[70, 98]),
   midi.NoteOnEvent(tick=0, channel=2, data=[67, 98]),
   midi.NoteOffEvent(tick=480, channel=2, data=[70, 0]),
   midi.NoteOffEvent(tick=0, channel=2, data=[67, 0]),
   midi.NoteOnEvent(tick=0, channel=2, data=[70, 98]),
   midi.NoteOnEvent(tick=0, channel=2, data=[67, 98]),
   midi.NoteOffEvent(tick=480, channel=2, data=[70, 0]),
   midi.NoteOffEvent(tick=0, channel=2, data=[67, 0]),
   midi.NoteOnEvent(tick=0, channel=2, data=[70, 98]),
   midi.NoteOnEvent(tick=0, channel=2, data=[67, 98]),
   midi.NoteOffEvent(tick=480, channel=2, data=[70, 0]),
   midi.NoteOffEvent(tick=0, channel=2, data=[67, 0]),
   midi.NoteOnEvent(tick=0, channel=2, data=[70, 104]),
   midi.NoteOnEvent(tick=0, channel=2, data=[67, 104]),
   midi.NoteOffEvent(tick=3840, channel=2, data=[70, 0]),
   midi.NoteOffEvent(tick=0, channel=2, data=[67, 0]),
   midi.NoteOnEvent(tick=0, channel=2, data=[70, 104]),
   midi.NoteOnEvent(tick=0, channel=2, data=[67, 104]),
   midi.NoteOffEvent(tick=960, channel=2, data=[70, 0]),
   midi.NoteOffEvent(tick=0, channel=2, data=[67, 0]),
   midi.NoteOnEvent(tick=1440, channel=2, data=[70, 98]),
   midi.NoteOnEvent(tick=0, channel=2, data=[67, 98]),
   midi.NoteOffEvent(tick=480, channel=2, data=[70, 0]),
   midi.NoteOffEvent(tick=0, channel=2, data=[67, 0]),
   midi.NoteOnEvent(tick=0, channel=2, data=[70, 98]),
   midi.NoteOnEvent(tick=0, channel=2, data=[67, 98]),
   midi.NoteOffEvent(tick=480, channel=2, data=[70, 0]),
   midi.NoteOffEvent(tick=0, channel=2, data=[67, 0]),
   midi.NoteOnEvent(tick=0, channel=2, data=[70, 98]),
   midi.NoteOnEvent(tick=0, channel=2, data=[67, 98]),
   midi.NoteOffEvent(tick=480, channel=2, data=[70, 0]),
   midi.NoteOffEvent(tick=0, channel=2, data=[67, 0]),
   midi.NoteOnEvent(tick=0, channel=2, data=[70, 104]),
   midi.NoteOnEvent(tick=0, channel=2, data=[67, 104]),
   midi.NoteOffEvent(tick=960, channel=2, data=[70, 0]),
   midi.NoteOffEvent(tick=0, channel=2, data=[67, 0]),
   midi.NoteOnEvent(tick=1920, channel=2, data=[70, 98]),
   midi.NoteOnEvent(tick=0, channel=2, data=[67, 98]),
   midi.NoteOffEvent(tick=480, channel=2, data=[70, 0]),
   midi.NoteOffEvent(tick=0, channel=2, data=[67, 0]),
   midi.NoteOnEvent(tick=0, channel=2, data=[70, 98]),
   midi.NoteOnEvent(tick=0, channel=2, data=[67, 98]),
   midi.NoteOffEvent(tick=480, channel=2, data=[70, 0]),
   midi.NoteOffEvent(tick=0, channel=2, data=[67, 0]),
   midi.NoteOnEvent(tick=0, channel=2, data=[70, 104]),
   midi.NoteOnEvent(tick=0, channel=2, data=[67, 104]),
   midi.NoteOffEvent(tick=960, channel=2, data=[70, 0]),
   midi.NoteOffEvent(tick=0, channel=2, data=[67, 0]),
   midi.NoteOnEvent(tick=0, channel=2, data=[69, 95]),
   midi.NoteOnEvent(tick=0, channel=2, data=[62, 87]),
   midi.NoteOffEvent(tick=480, channel=2, data=[69, 0]),
   midi.NoteOffEvent(tick=0, channel=2, data=[62, 0]),
   midi.NoteOnEvent(tick=0, channel=2, data=[69, 96]),
   midi.NoteOnEvent(tick=0, channel=2, data=[62, 88]),
   midi.NoteOffEvent(tick=480, channel=2, data=[69, 0]),
   midi.NoteOffEvent(tick=0, channel=2, data=[62, 0]),
   midi.NoteOnEvent(tick=0, channel=2, data=[69, 102]),
   midi.NoteOnEvent(tick=0, channel=2, data=[62, 95]),
   midi.NoteOffEvent(tick=960, channel=2, data=[69, 0]),
   midi.NoteOffEvent(tick=0, channel=2, data=[62, 0]),
   midi.NoteOnEvent(tick=9600, channel=2, data=[72, 98]),
   midi.NoteOffEvent(tick=480, channel=2, data=[72, 0]),
   midi.NoteOnEvent(tick=0, channel=2, data=[72, 98]),
   midi.NoteOffEvent(tick=480, channel=2, data=[72, 0]),
   midi.NoteOnEvent(tick=0, channel=2, data=[72, 104]),
   midi.NoteOffEvent(tick=960, channel=2, data=[72, 0]),
   midi.NoteOnEvent(tick=1920, channel=2, data=[69, 95]),
   midi.NoteOnEvent(tick=0, channel=2, data=[66, 98]),
   midi.NoteOffEvent(tick=480, channel=2, data=[69, 0]),
   midi.NoteOffEvent(tick=0, channel=2, data=[66, 0]),
   midi.NoteOnEvent(tick=0, channel=2, data=[69, 95]),
   midi.NoteOnEvent(tick=0, channel=2, data=[66, 98]),
   midi.NoteOffEvent(tick=480, channel=2, data=[69, 0]),
   midi.NoteOffEvent(tick=0, channel=2, data=[66, 0]),
   midi.NoteOnEvent(tick=0, channel=2, data=[71, 106]),
   midi.NoteOnEvent(tick=0, channel=2, data=[67, 105]),
   midi.NoteOffEvent(tick=960, channel=2, data=[71, 0]),
   midi.NoteOffEvent(tick=0, channel=2, data=[67, 0]),
   midi.NoteOnEvent(tick=9600, channel=2, data=[71, 98]),
   midi.NoteOffEvent(tick=480, channel=2, data=[71, 0]),
   midi.NoteOnEvent(tick=0, channel=2, data=[71, 98]),
   midi.NoteOffEvent(tick=480, channel=2, data=[71, 0]),
   midi.NoteOnEvent(tick=0, channel=2, data=[71, 104]),
   midi.NoteOffEvent(tick=960, channel=2, data=[71, 0]),
   midi.NoteOnEvent(tick=1920, channel=2, data=[74, 101]),
   midi.NoteOnEvent(tick=0, channel=2, data=[71, 98]),
   midi.NoteOffEvent(tick=480, channel=2, data=[74, 0]),
   midi.NoteOffEvent(tick=0, channel=2, data=[71, 0]),
   midi.NoteOnEvent(tick=0, channel=2, data=[74, 100]),
   midi.NoteOnEvent(tick=0, channel=2, data=[71, 98]),
   midi.NoteOffEvent(tick=480, channel=2, data=[74, 0]),
   midi.NoteOffEvent(tick=0, channel=2, data=[71, 0]),
   midi.NoteOnEvent(tick=0, channel=2, data=[76, 110]),
   midi.NoteOnEvent(tick=0, channel=2, data=[72, 105]),
   midi.NoteOffEvent(tick=480, channel=2, data=[76, 0]),
   midi.NoteOffEvent(tick=0, channel=2, data=[72, 0]),
   midi.NoteOnEvent(tick=0, channel=2, data=[84, 127]),
   midi.NoteOnEvent(tick=0, channel=2, data=[72, 115]),
   midi.NoteOffEvent(tick=480, channel=2, data=[84, 0]),
   midi.NoteOffEvent(tick=0, channel=2, data=[72, 0]),
   midi.NoteOnEvent(tick=0, channel=2, data=[84, 127]),
   midi.NoteOnEvent(tick=0, channel=2, data=[72, 114]),
   midi.NoteOffEvent(tick=480, channel=2, data=[84, 0]),
   midi.NoteOffEvent(tick=0, channel=2, data=[72, 0]),
   midi.NoteOnEvent(tick=0, channel=2, data=[84, 127]),
   midi.NoteOnEvent(tick=0, channel=2, data=[72, 114]),
   midi.NoteOffEvent(tick=480, channel=2, data=[84, 0]),
   midi.NoteOffEvent(tick=0, channel=2, data=[72, 0]),
   midi.NoteOnEvent(tick=0, channel=2, data=[77, 108]),
   midi.NoteOnEvent(tick=0, channel=2, data=[65, 102]),
   midi.NoteOffEvent(tick=1920, channel=2, data=[77, 0]),
   midi.NoteOffEvent(tick=0, channel=2, data=[65, 0]),
   midi.NoteOnEvent(tick=0, channel=2, data=[79, 117]),
   midi.NoteOnEvent(tick=0, channel=2, data=[67, 110]),
   midi.NoteOffEvent(tick=1920, channel=2, data=[79, 0]),
   midi.NoteOffEvent(tick=0, channel=2, data=[67, 0]),
   midi.NoteOnEvent(tick=3840, channel=2, data=[77, 120]),
   midi.NoteOnEvent(tick=0, channel=2, data=[65, 120]),
   midi.NoteOffEvent(tick=1920, channel=2, data=[77, 0]),
   midi.NoteOffEvent(tick=0, channel=2, data=[65, 0]),
   midi.NoteOnEvent(tick=0, channel=2, data=[79, 121]),
   midi.NoteOnEvent(tick=0, channel=2, data=[67, 121]),
   midi.NoteOffEvent(tick=1920, channel=2, data=[79, 0]),
   midi.NoteOffEvent(tick=0, channel=2, data=[67, 0]),
   midi.NoteOnEvent(tick=3840, channel=2, data=[72, 119]),
   midi.NoteOnEvent(tick=0, channel=2, data=[68, 120]),
   midi.NoteOffEvent(tick=1920, channel=2, data=[72, 0]),
   midi.NoteOffEvent(tick=0, channel=2, data=[68, 0]),
   midi.NoteOnEvent(tick=0, channel=2, data=[73, 120]),
   midi.NoteOnEvent(tick=0, channel=2, data=[66, 118]),
   midi.NoteOffEvent(tick=1920, channel=2, data=[73, 0]),
   midi.NoteOffEvent(tick=0, channel=2, data=[66, 0]),
   midi.NoteOnEvent(tick=3840, channel=2, data=[75, 120]),
   midi.NoteOnEvent(tick=0, channel=2, data=[69, 120]),
   midi.NoteOffEvent(tick=1920, channel=2, data=[75, 0]),
   midi.NoteOffEvent(tick=0, channel=2, data=[69, 0]),
   midi.NoteOnEvent(tick=0, channel=2, data=[73, 119]),
   midi.NoteOnEvent(tick=0, channel=2, data=[70, 121]),
   midi.NoteOffEvent(tick=1920, channel=2, data=[73, 0]),
   midi.NoteOffEvent(tick=0, channel=2, data=[70, 0]),
   midi.NoteOnEvent(tick=1920, channel=2, data=[71, 75]),
   midi.NoteOffEvent(tick=1920, channel=2, data=[71, 0]),
   midi.NoteOnEvent(tick=1920, channel=2, data=[73, 76]),
   midi.NoteOnEvent(tick=0, channel=2, data=[68, 75]),
   midi.NoteOffEvent(tick=1920, channel=2, data=[73, 0]),
   midi.NoteOffEvent(tick=0, channel=2, data=[68, 0]),
   midi.NoteOnEvent(tick=1920, channel=2, data=[73, 65]),
   midi.NoteOnEvent(tick=0, channel=2, data=[69, 65]),
   midi.NoteOffEvent(tick=1920, channel=2, data=[73, 0]),
   midi.NoteOffEvent(tick=0, channel=2, data=[69, 0]),
   midi.NoteOnEvent(tick=1920, channel=2, data=[73, 65]),
   midi.NoteOnEvent(tick=0, channel=2, data=[69, 65]),
   midi.NoteOffEvent(tick=1920, channel=2, data=[73, 0]),
   midi.NoteOffEvent(tick=0, channel=2, data=[69, 0]),
   midi.NoteOnEvent(tick=1920, channel=2, data=[73, 65]),
   midi.NoteOnEvent(tick=0, channel=2, data=[69, 65]),
   midi.NoteOffEvent(tick=1920, channel=2, data=[73, 0]),
   midi.NoteOffEvent(tick=0, channel=2, data=[69, 0]),
   midi.NoteOnEvent(tick=1920, channel=2, data=[74, 42]),
   midi.NoteOnEvent(tick=0, channel=2, data=[69, 42]),
   midi.NoteOffEvent(tick=1920, channel=2, data=[74, 0]),
   midi.NoteOffEvent(tick=0, channel=2, data=[69, 0]),
   midi.NoteOnEvent(tick=1920, channel=2, data=[74, 42]),
   midi.NoteOnEvent(tick=0, channel=2, data=[69, 42]),
   midi.NoteOffEvent(tick=1920, channel=2, data=[74, 0]),
   midi.NoteOffEvent(tick=0, channel=2, data=[69, 0]),
   midi.NoteOnEvent(tick=1920, channel=2, data=[74, 42]),
   midi.NoteOnEvent(tick=0, channel=2, data=[69, 42]),
   midi.NoteOffEvent(tick=1920, channel=2, data=[74, 0]),
   midi.NoteOffEvent(tick=0, channel=2, data=[69, 0]),
   midi.NoteOnEvent(tick=1920, channel=2, data=[74, 42]),
   midi.NoteOnEvent(tick=0, channel=2, data=[69, 42]),
   midi.NoteOffEvent(tick=1920, channel=2, data=[74, 0]),
   midi.NoteOffEvent(tick=0, channel=2, data=[69, 0]),
   midi.NoteOnEvent(tick=480, channel=2, data=[74, 113]),
   midi.NoteOffEvent(tick=480, channel=2, data=[74, 0]),
   midi.NoteOnEvent(tick=0, channel=2, data=[74, 113]),
   midi.NoteOffEvent(tick=480, channel=2, data=[74, 0]),
   midi.NoteOnEvent(tick=0, channel=2, data=[74, 113]),
   midi.NoteOffEvent(tick=480, channel=2, data=[74, 0]),
   midi.NoteOnEvent(tick=0, channel=2, data=[71, 111]),
   midi.NoteOffEvent(tick=1920, channel=2, data=[71, 0]),
   midi.NoteOnEvent(tick=0, channel=2, data=[72, 117]),
   midi.NoteOffEvent(tick=1920, channel=2, data=[72, 0]),
   midi.NoteOnEvent(tick=0, channel=2, data=[69, 114]),
   midi.NoteOffEvent(tick=3840, channel=2, data=[69, 0]),
   midi.NoteOnEvent(tick=0, channel=2, data=[74, 42]),
   midi.NoteOnEvent(tick=0, channel=2, data=[68, 42]),
   midi.NoteOffEvent(tick=1920, channel=2, data=[74, 0]),
   midi.NoteOffEvent(tick=0, channel=2, data=[68, 0]),
   midi.NoteOnEvent(tick=1920, channel=2, data=[74, 42]),
   midi.NoteOnEvent(tick=0, channel=2, data=[68, 42]),
   midi.NoteOffEvent(tick=1920, channel=2, data=[74, 0]),
   midi.NoteOffEvent(tick=0, channel=2, data=[68, 0]),
   midi.NoteOnEvent(tick=1920, channel=2, data=[74, 42]),
   midi.NoteOnEvent(tick=0, channel=2, data=[68, 42]),
   midi.NoteOffEvent(tick=1920, channel=2, data=[74, 0]),
   midi.NoteOffEvent(tick=0, channel=2, data=[68, 0]),
   midi.NoteOnEvent(tick=1920, channel=2, data=[74, 42]),
   midi.NoteOnEvent(tick=0, channel=2, data=[68, 42]),
   midi.NoteOffEvent(tick=1920, channel=2, data=[74, 0]),
   midi.NoteOffEvent(tick=0, channel=2, data=[68, 0]),
   midi.NoteOnEvent(tick=2400, channel=2, data=[80, 115]),
   midi.NoteOnEvent(tick=0, channel=2, data=[68, 113]),
   midi.NoteOffEvent(tick=480, channel=2, data=[80, 0]),
   midi.NoteOffEvent(tick=0, channel=2, data=[68, 0]),
   midi.NoteOnEvent(tick=0, channel=2, data=[80, 114]),
   midi.NoteOnEvent(tick=0, channel=2, data=[68, 113]),
   midi.NoteOffEvent(tick=480, channel=2, data=[80, 0]),
   midi.NoteOffEvent(tick=0, channel=2, data=[68, 0]),
   midi.NoteOnEvent(tick=0, channel=2, data=[80, 114]),
   midi.NoteOnEvent(tick=0, channel=2, data=[68, 113]),
   midi.NoteOffEvent(tick=480, channel=2, data=[80, 0]),
   midi.NoteOffEvent(tick=0, channel=2, data=[68, 0]),
   midi.NoteOnEvent(tick=0, channel=2, data=[77, 112]),
   midi.NoteOnEvent(tick=0, channel=2, data=[65, 112]),
   midi.NoteOffEvent(tick=2400, channel=2, data=[77, 0]),
   midi.NoteOffEvent(tick=0, channel=2, data=[65, 0]),
   midi.NoteOnEvent(tick=0, channel=2, data=[80, 115]),
   midi.NoteOnEvent(tick=0, channel=2, data=[68, 115]),
   midi.NoteOffEvent(tick=480, channel=2, data=[80, 0]),
   midi.NoteOffEvent(tick=0, channel=2, data=[68, 0]),
   midi.NoteOnEvent(tick=0, channel=2, data=[80, 114]),
   midi.NoteOnEvent(tick=0, channel=2, data=[68, 114]),
   midi.NoteOffEvent(tick=480, channel=2, data=[80, 0]),
   midi.NoteOffEvent(tick=0, channel=2, data=[68, 0]),
   midi.NoteOnEvent(tick=0, channel=2, data=[80, 114]),
   midi.NoteOnEvent(tick=0, channel=2, data=[68, 114]),
   midi.NoteOffEvent(tick=480, channel=2, data=[80, 0]),
   midi.NoteOffEvent(tick=0, channel=2, data=[68, 0]),
   midi.NoteOnEvent(tick=0, channel=2, data=[77, 110]),
   midi.NoteOnEvent(tick=0, channel=2, data=[65, 110]),
   midi.NoteOffEvent(tick=2400, channel=2, data=[77, 0]),
   midi.NoteOffEvent(tick=0, channel=2, data=[65, 0]),
   midi.NoteOnEvent(tick=0, channel=2, data=[80, 115]),
   midi.NoteOnEvent(tick=0, channel=2, data=[68, 115]),
   midi.NoteOffEvent(tick=480, channel=2, data=[80, 0]),
   midi.NoteOffEvent(tick=0, channel=2, data=[68, 0]),
   midi.NoteOnEvent(tick=0, channel=2, data=[80, 115]),
   midi.NoteOnEvent(tick=0, channel=2, data=[68, 115]),
   midi.NoteOffEvent(tick=480, channel=2, data=[80, 0]),
   midi.NoteOffEvent(tick=0, channel=2, data=[68, 0]),
   midi.NoteOnEvent(tick=0, channel=2, data=[80, 114]),
   midi.NoteOnEvent(tick=0, channel=2, data=[68, 114]),
   midi.NoteOffEvent(tick=480, channel=2, data=[80, 0]),
   midi.NoteOffEvent(tick=0, channel=2, data=[68, 0]),
   midi.NoteOnEvent(tick=0, channel=2, data=[77, 110]),
   midi.NoteOnEvent(tick=0, channel=2, data=[65, 110]),
   midi.NoteOffEvent(tick=480, channel=2, data=[77, 0]),
   midi.NoteOffEvent(tick=0, channel=2, data=[65, 0]),
   midi.NoteOnEvent(tick=0, channel=2, data=[80, 117]),
   midi.NoteOnEvent(tick=0, channel=2, data=[68, 117]),
   midi.NoteOffEvent(tick=480, channel=2, data=[80, 0]),
   midi.NoteOffEvent(tick=0, channel=2, data=[68, 0]),
   midi.NoteOnEvent(tick=0, channel=2, data=[80, 116]),
   midi.NoteOnEvent(tick=0, channel=2, data=[68, 116]),
   midi.NoteOffEvent(tick=480, channel=2, data=[80, 0]),
   midi.NoteOffEvent(tick=0, channel=2, data=[68, 0]),
   midi.NoteOnEvent(tick=0, channel=2, data=[80, 116]),
   midi.NoteOnEvent(tick=0, channel=2, data=[68, 116]),
   midi.NoteOffEvent(tick=480, channel=2, data=[80, 0]),
   midi.NoteOffEvent(tick=0, channel=2, data=[68, 0]),
   midi.NoteOnEvent(tick=0, channel=2, data=[77, 108]),
   midi.NoteOnEvent(tick=0, channel=2, data=[65, 108]),
   midi.NoteOffEvent(tick=480, channel=2, data=[77, 0]),
   midi.NoteOffEvent(tick=0, channel=2, data=[65, 0]),
   midi.NoteOnEvent(tick=0, channel=2, data=[80, 118]),
   midi.NoteOnEvent(tick=0, channel=2, data=[68, 118]),
   midi.NoteOffEvent(tick=480, channel=2, data=[80, 0]),
   midi.NoteOffEvent(tick=0, channel=2, data=[68, 0]),
   midi.NoteOnEvent(tick=0, channel=2, data=[80, 117]),
   midi.NoteOnEvent(tick=0, channel=2, data=[68, 117]),
   midi.NoteOffEvent(tick=480, channel=2, data=[80, 0]),
   midi.NoteOffEvent(tick=0, channel=2, data=[68, 0]),
   midi.NoteOnEvent(tick=0, channel=2, data=[80, 116]),
   midi.NoteOnEvent(tick=0, channel=2, data=[68, 116]),
   midi.NoteOffEvent(tick=480, channel=2, data=[80, 0]),
   midi.NoteOffEvent(tick=0, channel=2, data=[68, 0]),
   midi.NoteOnEvent(tick=0, channel=2, data=[77, 107]),
   midi.NoteOnEvent(tick=0, channel=2, data=[65, 107]),
   midi.NoteOffEvent(tick=480, channel=2, data=[77, 0]),
   midi.NoteOffEvent(tick=0, channel=2, data=[65, 0]),
   midi.NoteOnEvent(tick=0, channel=2, data=[79, 113]),
   midi.NoteOnEvent(tick=0, channel=2, data=[67, 113]),
   midi.NoteOffEvent(tick=480, channel=2, data=[79, 0]),
   midi.NoteOffEvent(tick=0, channel=2, data=[67, 0]),
   midi.NoteOnEvent(tick=0, channel=2, data=[79, 113]),
   midi.NoteOnEvent(tick=0, channel=2, data=[67, 113]),
   midi.NoteOffEvent(tick=480, channel=2, data=[79, 0]),
   midi.NoteOffEvent(tick=0, channel=2, data=[67, 0]),
   midi.NoteOnEvent(tick=0, channel=2, data=[79, 113]),
   midi.NoteOnEvent(tick=0, channel=2, data=[67, 113]),
   midi.NoteOffEvent(tick=480, channel=2, data=[79, 0]),
   midi.NoteOffEvent(tick=0, channel=2, data=[67, 0]),
   midi.NoteOnEvent(tick=0, channel=2, data=[75, 109]),
   midi.NoteOnEvent(tick=0, channel=2, data=[63, 109]),
   midi.NoteOffEvent(tick=3840, channel=2, data=[75, 0]),
   midi.NoteOffEvent(tick=0, channel=2, data=[63, 0]),
   midi.NoteOnEvent(tick=2400, channel=2, data=[77, 113]),
   midi.NoteOnEvent(tick=0, channel=2, data=[65, 113]),
   midi.NoteOffEvent(tick=480, channel=2, data=[77, 0]),
   midi.NoteOffEvent(tick=0, channel=2, data=[65, 0]),
   midi.NoteOnEvent(tick=0, channel=2, data=[77, 113]),
   midi.NoteOnEvent(tick=0, channel=2, data=[65, 113]),
   midi.NoteOffEvent(tick=480, channel=2, data=[77, 0]),
   midi.NoteOffEvent(tick=0, channel=2, data=[65, 0]),
   midi.NoteOnEvent(tick=0, channel=2, data=[77, 113]),
   midi.NoteOnEvent(tick=0, channel=2, data=[65, 113]),
   midi.NoteOffEvent(tick=480, channel=2, data=[77, 0]),
   midi.NoteOffEvent(tick=0, channel=2, data=[65, 0]),
   midi.NoteOnEvent(tick=0, channel=2, data=[74, 114]),
   midi.NoteOnEvent(tick=0, channel=2, data=[62, 114]),
   midi.NoteOffEvent(tick=5760, channel=2, data=[74, 0]),
   midi.NoteOffEvent(tick=0, channel=2, data=[62, 0]),
   midi.NoteOnEvent(tick=7680, channel=2, data=[67, 65]),
   midi.NoteOnEvent(tick=0, channel=2, data=[63, 65]),
   midi.NoteOffEvent(tick=3840, channel=2, data=[67, 0]),
   midi.NoteOffEvent(tick=0, channel=2, data=[63, 0]),
   midi.NoteOnEvent(tick=0, channel=2, data=[67, 65]),
   midi.NoteOnEvent(tick=0, channel=2, data=[62, 65]),
   midi.NoteOffEvent(tick=960, channel=2, data=[67, 0]),
   midi.NoteOffEvent(tick=0, channel=2, data=[62, 0]),
   midi.NoteOnEvent(tick=2880, channel=2, data=[67, 65]),
   midi.NoteOnEvent(tick=0, channel=2, data=[62, 65]),
   midi.NoteOffEvent(tick=3840, channel=2, data=[67, 0]),
   midi.NoteOffEvent(tick=0, channel=2, data=[62, 0]),
   midi.NoteOnEvent(tick=0, channel=2, data=[67, 65]),
   midi.NoteOnEvent(tick=0, channel=2, data=[63, 65]),
   midi.NoteOffEvent(tick=960, channel=2, data=[67, 0]),
   midi.NoteOffEvent(tick=0, channel=2, data=[63, 0]),
   midi.NoteOnEvent(tick=8640, channel=2, data=[60, 89]),
   midi.NoteOnEvent(tick=0, channel=2, data=[66, 89]),
   midi.NoteOffEvent(tick=1920, channel=2, data=[60, 0]),
   midi.NoteOffEvent(tick=0, channel=2, data=[66, 0]),
   midi.NoteOnEvent(tick=0, channel=2, data=[59, 104]),
   midi.NoteOnEvent(tick=0, channel=2, data=[67, 104]),
   midi.NoteOffEvent(tick=960, channel=2, data=[59, 0]),
   midi.NoteOffEvent(tick=0, channel=2, data=[67, 0]),
   midi.NoteOnEvent(tick=22080, channel=2, data=[71, 89]),
   midi.NoteOffEvent(tick=3840, channel=2, data=[71, 0]),
   midi.NoteOnEvent(tick=0, channel=2, data=[72, 104]),
   midi.NoteOffEvent(tick=960, channel=2, data=[72, 0]),
   midi.NoteOnEvent(tick=8640, channel=2, data=[68, 104]),
   midi.NoteOnEvent(tick=0, channel=2, data=[65, 104]),
   midi.NoteOffEvent(tick=960, channel=2, data=[68, 0]),
   midi.NoteOffEvent(tick=0, channel=2, data=[65, 0]),
   midi.NoteOnEvent(tick=960, channel=2, data=[67, 103]),
   midi.NoteOnEvent(tick=0, channel=2, data=[64, 103]),
   midi.NoteOffEvent(tick=960, channel=2, data=[67, 0]),
   midi.NoteOffEvent(tick=0, channel=2, data=[64, 0]),
   midi.NoteOnEvent(tick=960, channel=2, data=[68, 104]),
   midi.NoteOnEvent(tick=0, channel=2, data=[65, 104]),
   midi.NoteOffEvent(tick=960, channel=2, data=[68, 0]),
   midi.NoteOffEvent(tick=0, channel=2, data=[65, 0]),
   midi.NoteOnEvent(tick=960, channel=2, data=[70, 106]),
   midi.NoteOnEvent(tick=0, channel=2, data=[67, 106]),
   midi.NoteOffEvent(tick=960, channel=2, data=[70, 0]),
   midi.NoteOffEvent(tick=0, channel=2, data=[67, 0]),
   midi.NoteOnEvent(tick=960, channel=2, data=[68, 103]),
   midi.NoteOnEvent(tick=0, channel=2, data=[65, 103]),
   midi.NoteOffEvent(tick=960, channel=2, data=[68, 0]),
   midi.NoteOffEvent(tick=0, channel=2, data=[65, 0]),
   midi.NoteOnEvent(tick=960, channel=2, data=[65, 100]),
   midi.NoteOnEvent(tick=0, channel=2, data=[62, 100]),
   midi.NoteOffEvent(tick=960, channel=2, data=[65, 0]),
   midi.NoteOffEvent(tick=0, channel=2, data=[62, 0]),
   midi.NoteOnEvent(tick=960, channel=2, data=[67, 104]),
   midi.NoteOnEvent(tick=0, channel=2, data=[63, 103]),
   midi.NoteOffEvent(tick=7680, channel=2, data=[67, 0]),
   midi.NoteOffEvent(tick=0, channel=2, data=[63, 0]),
   midi.NoteOnEvent(tick=0, channel=2, data=[65, 104]),
   midi.NoteOnEvent(tick=0, channel=2, data=[62, 104]),
   midi.NoteOffEvent(tick=6720, channel=2, data=[65, 0]),
   midi.NoteOffEvent(tick=0, channel=2, data=[62, 0]),
   midi.NoteOnEvent(tick=0, channel=2, data=[63, 98]),
   midi.NoteOnEvent(tick=0, channel=2, data=[60, 98]),
   midi.NoteOffEvent(tick=960, channel=2, data=[63, 0]),
   midi.NoteOffEvent(tick=0, channel=2, data=[60, 0]),
   midi.NoteOnEvent(tick=0, channel=2, data=[75, 127]),
   midi.NoteOnEvent(tick=0, channel=2, data=[66, 125]),
   midi.NoteOffEvent(tick=7680, channel=2, data=[75, 0]),
   midi.NoteOffEvent(tick=0, channel=2, data=[66, 0]),
   midi.NoteOnEvent(tick=0, channel=2, data=[75, 120]),
   midi.NoteOnEvent(tick=0, channel=2, data=[69, 120]),
   midi.NoteOffEvent(tick=960, channel=2, data=[75, 0]),
   midi.NoteOffEvent(tick=0, channel=2, data=[69, 0]),
   midi.NoteOnEvent(tick=2880, channel=2, data=[74, 119]),
   midi.NoteOnEvent(tick=0, channel=2, data=[71, 120]),
   midi.NoteOffEvent(tick=960, channel=2, data=[74, 0]),
   midi.NoteOffEvent(tick=0, channel=2, data=[71, 0]),
   midi.NoteOnEvent(tick=43200, channel=2, data=[70, 65]),
   midi.NoteOnEvent(tick=960, channel=2, data=[72, 62]),
   midi.NoteOffEvent(tick=19, channel=2, data=[70, 0]),
   midi.NoteOffEvent(tick=892, channel=2, data=[72, 0]),
   midi.NoteOnEvent(tick=49, channel=2, data=[70, 64]),
   midi.NoteOffEvent(tick=960, channel=2, data=[70, 0]),
   midi.NoteOnEvent(tick=0, channel=2, data=[69, 59]),
   midi.NoteOffEvent(tick=960, channel=2, data=[69, 0]),
   midi.NoteOnEvent(tick=3840, channel=2, data=[72, 65]),
   midi.NoteOnEvent(tick=960, channel=2, data=[74, 62]),
   midi.NoteOffEvent(tick=19, channel=2, data=[72, 0]),
   midi.NoteOffEvent(tick=892, channel=2, data=[74, 0]),
   midi.NoteOnEvent(tick=49, channel=2, data=[72, 64]),
   midi.NoteOffEvent(tick=960, channel=2, data=[72, 0]),
   midi.NoteOnEvent(tick=0, channel=2, data=[71, 59]),
   midi.NoteOffEvent(tick=960, channel=2, data=[71, 0]),
   midi.NoteOnEvent(tick=9600, channel=2, data=[80, 89]),
   midi.NoteOnEvent(tick=0, channel=2, data=[68, 89]),
   midi.NoteOffEvent(tick=960, channel=2, data=[80, 0]),
   midi.NoteOffEvent(tick=0, channel=2, data=[68, 0]),
   midi.NoteOnEvent(tick=0, channel=2, data=[79, 83]),
   midi.NoteOnEvent(tick=0, channel=2, data=[67, 83]),
   midi.NoteOffEvent(tick=960, channel=2, data=[79, 0]),
   midi.NoteOffEvent(tick=0, channel=2, data=[67, 0]),
   midi.NoteOnEvent(tick=0, channel=2, data=[77, 86]),
   midi.NoteOnEvent(tick=0, channel=2, data=[65, 86]),
   midi.NoteOffEvent(tick=960, channel=2, data=[77, 0]),
   midi.NoteOffEvent(tick=0, channel=2, data=[65, 0]),
   midi.NoteOnEvent(tick=0, channel=2, data=[79, 85]),
   midi.NoteOnEvent(tick=0, channel=2, data=[67, 85]),
   midi.NoteOffEvent(tick=960, channel=2, data=[79, 0]),
   midi.NoteOffEvent(tick=0, channel=2, data=[67, 0]),
   midi.NoteOnEvent(tick=0, channel=2, data=[80, 91]),
   midi.NoteOnEvent(tick=0, channel=2, data=[68, 91]),
   midi.NoteOffEvent(tick=960, channel=2, data=[80, 0]),
   midi.NoteOffEvent(tick=0, channel=2, data=[68, 0]),
   midi.NoteOnEvent(tick=0, channel=2, data=[79, 84]),
   midi.NoteOnEvent(tick=0, channel=2, data=[67, 84]),
   midi.NoteOffEvent(tick=960, channel=2, data=[79, 0]),
   midi.NoteOffEvent(tick=0, channel=2, data=[67, 0]),
   midi.NoteOnEvent(tick=0, channel=2, data=[78, 87]),
   midi.NoteOnEvent(tick=0, channel=2, data=[66, 87]),
   midi.NoteOffEvent(tick=960, channel=2, data=[78, 0]),
   midi.NoteOffEvent(tick=0, channel=2, data=[66, 0]),
   midi.NoteOnEvent(tick=0, channel=2, data=[79, 84]),
   midi.NoteOnEvent(tick=0, channel=2, data=[67, 84]),
   midi.NoteOffEvent(tick=960, channel=2, data=[79, 0]),
   midi.NoteOffEvent(tick=0, channel=2, data=[67, 0]),
   midi.NoteOnEvent(tick=0, channel=2, data=[81, 93]),
   midi.NoteOnEvent(tick=0, channel=2, data=[69, 93]),
   midi.NoteOffEvent(tick=960, channel=2, data=[81, 0]),
   midi.NoteOffEvent(tick=0, channel=2, data=[69, 0]),
   midi.NoteOnEvent(tick=0, channel=2, data=[79, 83]),
   midi.NoteOnEvent(tick=0, channel=2, data=[67, 83]),
   midi.NoteOffEvent(tick=960, channel=2, data=[79, 0]),
   midi.NoteOffEvent(tick=0, channel=2, data=[67, 0]),
   midi.NoteOnEvent(tick=0, channel=2, data=[78, 86]),
   midi.NoteOnEvent(tick=0, channel=2, data=[66, 86]),
   midi.NoteOffEvent(tick=960, channel=2, data=[78, 0]),
   midi.NoteOffEvent(tick=0, channel=2, data=[66, 0]),
   midi.NoteOnEvent(tick=0, channel=2, data=[79, 84]),
   midi.NoteOnEvent(tick=0, channel=2, data=[67, 84]),
   midi.NoteOffEvent(tick=960, channel=2, data=[79, 0]),
   midi.NoteOffEvent(tick=0, channel=2, data=[67, 0]),
   midi.NoteOnEvent(tick=0, channel=2, data=[81, 93]),
   midi.NoteOnEvent(tick=0, channel=2, data=[69, 93]),
   midi.NoteOffEvent(tick=960, channel=2, data=[81, 0]),
   midi.NoteOffEvent(tick=0, channel=2, data=[69, 0]),
   midi.NoteOnEvent(tick=0, channel=2, data=[79, 83]),
   midi.NoteOnEvent(tick=0, channel=2, data=[67, 83]),
   midi.NoteOffEvent(tick=960, channel=2, data=[79, 0]),
   midi.NoteOffEvent(tick=0, channel=2, data=[67, 0]),
   midi.NoteOnEvent(tick=0, channel=2, data=[78, 86]),
   midi.NoteOnEvent(tick=0, channel=2, data=[66, 86]),
   midi.NoteOffEvent(tick=960, channel=2, data=[78, 0]),
   midi.NoteOffEvent(tick=0, channel=2, data=[66, 0]),
   midi.NoteOnEvent(tick=0, channel=2, data=[79, 84]),
   midi.NoteOnEvent(tick=0, channel=2, data=[67, 84]),
   midi.NoteOffEvent(tick=960, channel=2, data=[79, 0]),
   midi.NoteOffEvent(tick=0, channel=2, data=[67, 0]),
   midi.NoteOnEvent(tick=0, channel=2, data=[78, 87]),
   midi.NoteOnEvent(tick=0, channel=2, data=[66, 87]),
   midi.NoteOffEvent(tick=960, channel=2, data=[78, 0]),
   midi.NoteOffEvent(tick=0, channel=2, data=[66, 0]),
   midi.NoteOnEvent(tick=0, channel=2, data=[79, 84]),
   midi.NoteOnEvent(tick=0, channel=2, data=[67, 84]),
   midi.NoteOffEvent(tick=960, channel=2, data=[79, 0]),
   midi.NoteOffEvent(tick=0, channel=2, data=[67, 0]),
   midi.NoteOnEvent(tick=0, channel=2, data=[78, 87]),
   midi.NoteOnEvent(tick=0, channel=2, data=[66, 87]),
   midi.NoteOffEvent(tick=960, channel=2, data=[78, 0]),
   midi.NoteOffEvent(tick=0, channel=2, data=[66, 0]),
   midi.NoteOnEvent(tick=0, channel=2, data=[79, 85]),
   midi.NoteOnEvent(tick=0, channel=2, data=[67, 85]),
   midi.NoteOffEvent(tick=960, channel=2, data=[79, 0]),
   midi.NoteOffEvent(tick=0, channel=2, data=[67, 0]),
   midi.NoteOnEvent(tick=0, channel=2, data=[79, 121]),
   midi.NoteOnEvent(tick=0, channel=2, data=[77, 127]),
   midi.NoteOffEvent(tick=2880, channel=2, data=[79, 0]),
   midi.NoteOffEvent(tick=0, channel=2, data=[77, 0]),
   midi.NoteOnEvent(tick=0, channel=2, data=[79, 113]),
   midi.NoteOnEvent(tick=0, channel=2, data=[74, 117]),
   midi.NoteOffEvent(tick=960, channel=2, data=[79, 0]),
   midi.NoteOffEvent(tick=0, channel=2, data=[74, 0]),
   midi.NoteOnEvent(tick=0, channel=2, data=[79, 120]),
   midi.NoteOnEvent(tick=0, channel=2, data=[76, 125]),
   midi.NoteOffEvent(tick=960, channel=2, data=[79, 0]),
   midi.NoteOffEvent(tick=0, channel=2, data=[76, 0]),
   midi.NoteOnEvent(tick=960, channel=2, data=[77, 117]),
   midi.NoteOnEvent(tick=0, channel=2, data=[71, 115]),
   midi.NoteOffEvent(tick=960, channel=2, data=[77, 0]),
   midi.NoteOffEvent(tick=0, channel=2, data=[71, 0]),
   midi.NoteOnEvent(tick=960, channel=2, data=[76, 117]),
   midi.NoteOnEvent(tick=0, channel=2, data=[72, 119]),
   midi.NoteOffEvent(tick=960, channel=2, data=[76, 0]),
   midi.NoteOffEvent(tick=0, channel=2, data=[72, 0]),
   midi.NoteOnEvent(tick=960, channel=2, data=[74, 117]),
   midi.NoteOnEvent(tick=0, channel=2, data=[72, 120]),
   midi.NoteOffEvent(tick=960, channel=2, data=[74, 0]),
   midi.NoteOffEvent(tick=0, channel=2, data=[72, 0]),
   midi.NoteOnEvent(tick=960, channel=2, data=[76, 121]),
   midi.NoteOnEvent(tick=0, channel=2, data=[72, 120]),
   midi.NoteOffEvent(tick=960, channel=2, data=[76, 0]),
   midi.NoteOffEvent(tick=0, channel=2, data=[72, 0]),
   midi.NoteOnEvent(tick=960, channel=2, data=[74, 118]),
   midi.NoteOnEvent(tick=0, channel=2, data=[71, 119]),
   midi.NoteOffEvent(tick=960, channel=2, data=[74, 0]),
   midi.NoteOffEvent(tick=0, channel=2, data=[71, 0]),
   midi.NoteOnEvent(tick=960, channel=2, data=[77, 122]),
   midi.NoteOnEvent(tick=0, channel=2, data=[74, 123]),
   midi.NoteOffEvent(tick=3840, channel=2, data=[77, 0]),
   midi.NoteOffEvent(tick=0, channel=2, data=[74, 0]),
   midi.NoteOnEvent(tick=0, channel=2, data=[76, 120]),
   midi.NoteOnEvent(tick=0, channel=2, data=[72, 119]),
   midi.NoteOffEvent(tick=960, channel=2, data=[76, 0]),
   midi.NoteOffEvent(tick=0, channel=2, data=[72, 0]),
   midi.NoteOnEvent(tick=0, channel=2, data=[76, 113]),
   midi.NoteOnEvent(tick=0, channel=2, data=[72, 113]),
   midi.NoteOffEvent(tick=960, channel=2, data=[76, 0]),
   midi.NoteOffEvent(tick=0, channel=2, data=[72, 0]),
   midi.NoteOnEvent(tick=960, channel=2, data=[74, 111]),
   midi.NoteOnEvent(tick=0, channel=2, data=[71, 112]),
   midi.NoteOffEvent(tick=960, channel=2, data=[74, 0]),
   midi.NoteOffEvent(tick=0, channel=2, data=[71, 0]),
   midi.NoteOnEvent(tick=960, channel=2, data=[76, 114]),
   midi.NoteOnEvent(tick=0, channel=2, data=[72, 114]),
   midi.NoteOffEvent(tick=960, channel=2, data=[76, 0]),
   midi.NoteOffEvent(tick=0, channel=2, data=[72, 0]),
   midi.NoteOnEvent(tick=960, channel=2, data=[74, 111]),
   midi.NoteOnEvent(tick=0, channel=2, data=[72, 113]),
   midi.NoteOffEvent(tick=960, channel=2, data=[74, 0]),
   midi.NoteOffEvent(tick=0, channel=2, data=[72, 0]),
   midi.NoteOnEvent(tick=960, channel=2, data=[76, 114]),
   midi.NoteOnEvent(tick=0, channel=2, data=[72, 113]),
   midi.NoteOffEvent(tick=960, channel=2, data=[76, 0]),
   midi.NoteOffEvent(tick=0, channel=2, data=[72, 0]),
   midi.NoteOnEvent(tick=960, channel=2, data=[74, 112]),
   midi.NoteOnEvent(tick=0, channel=2, data=[71, 112]),
   midi.NoteOffEvent(tick=960, channel=2, data=[74, 0]),
   midi.NoteOffEvent(tick=0, channel=2, data=[71, 0]),
   midi.NoteOnEvent(tick=0, channel=2, data=[72, 116]),
   midi.NoteOnEvent(tick=0, channel=2, data=[64, 108]),
   midi.NoteOffEvent(tick=480, channel=2, data=[72, 0]),
   midi.NoteOffEvent(tick=0, channel=2, data=[64, 0]),
   midi.NoteOnEvent(tick=0, channel=2, data=[76, 118]),
   midi.NoteOnEvent(tick=0, channel=2, data=[64, 104]),
   midi.NoteOffEvent(tick=480, channel=2, data=[76, 0]),
   midi.NoteOffEvent(tick=0, channel=2, data=[64, 0]),
   midi.NoteOnEvent(tick=0, channel=2, data=[76, 118]),
   midi.NoteOnEvent(tick=0, channel=2, data=[64, 105]),
   midi.NoteOffEvent(tick=480, channel=2, data=[76, 0]),
   midi.NoteOffEvent(tick=0, channel=2, data=[64, 0]),
   midi.NoteOnEvent(tick=0, channel=2, data=[76, 117]),
   midi.NoteOnEvent(tick=0, channel=2, data=[64, 107]),
   midi.NoteOffEvent(tick=480, channel=2, data=[76, 0]),
   midi.NoteOffEvent(tick=0, channel=2, data=[64, 0]),
   midi.NoteOnEvent(tick=0, channel=2, data=[72, 108]),
   midi.NoteOnEvent(tick=0, channel=2, data=[60, 103]),
   midi.NoteOffEvent(tick=480, channel=2, data=[72, 0]),
   midi.NoteOffEvent(tick=0, channel=2, data=[60, 0]),
   midi.NoteOnEvent(tick=0, channel=2, data=[79, 127]),
   midi.NoteOnEvent(tick=0, channel=2, data=[67, 125]),
   midi.NoteOffEvent(tick=480, channel=2, data=[79, 0]),
   midi.NoteOffEvent(tick=0, channel=2, data=[67, 0]),
   midi.NoteOnEvent(tick=0, channel=2, data=[79, 127]),
   midi.NoteOnEvent(tick=0, channel=2, data=[67, 124]),
   midi.NoteOffEvent(tick=480, channel=2, data=[79, 0]),
   midi.NoteOffEvent(tick=0, channel=2, data=[67, 0]),
   midi.NoteOnEvent(tick=0, channel=2, data=[79, 126]),
   midi.NoteOnEvent(tick=0, channel=2, data=[67, 122]),
   midi.NoteOffEvent(tick=480, channel=2, data=[79, 0]),
   midi.NoteOffEvent(tick=0, channel=2, data=[67, 0]),
   midi.NoteOnEvent(tick=0, channel=2, data=[76, 116]),
   midi.NoteOnEvent(tick=0, channel=2, data=[64, 113]),
   midi.NoteOffEvent(tick=480, channel=2, data=[76, 0]),
   midi.NoteOffEvent(tick=0, channel=2, data=[64, 0]),
   midi.NoteOnEvent(tick=0, channel=2, data=[72, 96]),
   midi.NoteOnEvent(tick=0, channel=2, data=[60, 96]),
   midi.NoteOffEvent(tick=480, channel=2, data=[72, 0]),
   midi.NoteOffEvent(tick=0, channel=2, data=[60, 0]),
   midi.NoteOnEvent(tick=0, channel=2, data=[72, 97]),
   midi.NoteOnEvent(tick=0, channel=2, data=[60, 96]),
   midi.NoteOffEvent(tick=480, channel=2, data=[72, 0]),
   midi.NoteOffEvent(tick=0, channel=2, data=[60, 0]),
   midi.NoteOnEvent(tick=0, channel=2, data=[72, 99]),
   midi.NoteOnEvent(tick=0, channel=2, data=[60, 98]),
   midi.NoteOffEvent(tick=480, channel=2, data=[72, 0]),
   midi.NoteOffEvent(tick=0, channel=2, data=[60, 0]),
   midi.NoteOnEvent(tick=0, channel=2, data=[67, 102]),
   midi.NoteOnEvent(tick=0, channel=2, data=[55, 102]),
   midi.NoteOffEvent(tick=2400, channel=2, data=[67, 0]),
   midi.NoteOffEvent(tick=0, channel=2, data=[55, 0]),
   midi.NoteOnEvent(tick=0, channel=2, data=[76, 121]),
   midi.NoteOnEvent(tick=0, channel=2, data=[64, 121]),
   midi.NoteOffEvent(tick=480, channel=2, data=[76, 0]),
   midi.NoteOffEvent(tick=0, channel=2, data=[64, 0]),
   midi.NoteOnEvent(tick=0, channel=2, data=[76, 120]),
   midi.NoteOnEvent(tick=0, channel=2, data=[64, 120]),
   midi.NoteOffEvent(tick=480, channel=2, data=[76, 0]),
   midi.NoteOffEvent(tick=0, channel=2, data=[64, 0]),
   midi.NoteOnEvent(tick=0, channel=2, data=[76, 119]),
   midi.NoteOnEvent(tick=0, channel=2, data=[64, 119]),
   midi.NoteOffEvent(tick=480, channel=2, data=[76, 0]),
   midi.NoteOffEvent(tick=0, channel=2, data=[64, 0]),
   midi.NoteOnEvent(tick=0, channel=2, data=[72, 110]),
   midi.NoteOnEvent(tick=0, channel=2, data=[60, 110]),
   midi.NoteOffEvent(tick=480, channel=2, data=[72, 0]),
   midi.NoteOffEvent(tick=0, channel=2, data=[60, 0]),
   midi.NoteOnEvent(tick=0, channel=2, data=[79, 127]),
   midi.NoteOnEvent(tick=0, channel=2, data=[67, 127]),
   midi.NoteOffEvent(tick=480, channel=2, data=[79, 0]),
   midi.NoteOffEvent(tick=0, channel=2, data=[67, 0]),
   midi.NoteOnEvent(tick=0, channel=2, data=[79, 127]),
   midi.NoteOnEvent(tick=0, channel=2, data=[67, 127]),
   midi.NoteOffEvent(tick=480, channel=2, data=[79, 0]),
   midi.NoteOffEvent(tick=0, channel=2, data=[67, 0]),
   midi.NoteOnEvent(tick=0, channel=2, data=[79, 125]),
   midi.NoteOnEvent(tick=0, channel=2, data=[67, 125]),
   midi.NoteOffEvent(tick=480, channel=2, data=[79, 0]),
   midi.NoteOffEvent(tick=0, channel=2, data=[67, 0]),
   midi.NoteOnEvent(tick=0, channel=2, data=[76, 116]),
   midi.NoteOnEvent(tick=0, channel=2, data=[64, 116]),
   midi.NoteOffEvent(tick=480, channel=2, data=[76, 0]),
   midi.NoteOffEvent(tick=0, channel=2, data=[64, 0]),
   midi.NoteOnEvent(tick=0, channel=2, data=[72, 96]),
   midi.NoteOnEvent(tick=0, channel=2, data=[60, 96]),
   midi.NoteOffEvent(tick=480, channel=2, data=[72, 0]),
   midi.NoteOffEvent(tick=0, channel=2, data=[60, 0]),
   midi.NoteOnEvent(tick=0, channel=2, data=[72, 98]),
   midi.NoteOnEvent(tick=0, channel=2, data=[60, 98]),
   midi.NoteOffEvent(tick=480, channel=2, data=[72, 0]),
   midi.NoteOffEvent(tick=0, channel=2, data=[60, 0]),
   midi.NoteOnEvent(tick=0, channel=2, data=[72, 99]),
   midi.NoteOnEvent(tick=0, channel=2, data=[60, 99]),
   midi.NoteOffEvent(tick=480, channel=2, data=[72, 0]),
   midi.NoteOffEvent(tick=0, channel=2, data=[60, 0]),
   midi.NoteOnEvent(tick=0, channel=2, data=[67, 102]),
   midi.NoteOnEvent(tick=0, channel=2, data=[55, 102]),
   midi.NoteOffEvent(tick=480, channel=2, data=[67, 0]),
   midi.NoteOffEvent(tick=0, channel=2, data=[55, 0]),
   midi.NoteOnEvent(tick=0, channel=2, data=[71, 101]),
   midi.NoteOnEvent(tick=0, channel=2, data=[67, 127]),
   midi.NoteOffEvent(tick=480, channel=2, data=[71, 0]),
   midi.NoteOffEvent(tick=0, channel=2, data=[67, 0]),
   midi.NoteOnEvent(tick=0, channel=2, data=[71, 103]),
   midi.NoteOnEvent(tick=0, channel=2, data=[67, 127]),
   midi.NoteOffEvent(tick=480, channel=2, data=[71, 0]),
   midi.NoteOffEvent(tick=0, channel=2, data=[67, 0]),
   midi.NoteOnEvent(tick=0, channel=2, data=[71, 105]),
   midi.NoteOnEvent(tick=0, channel=2, data=[67, 127]),
   midi.NoteOffEvent(tick=480, channel=2, data=[71, 0]),
   midi.NoteOffEvent(tick=0, channel=2, data=[67, 0]),
   midi.NoteOnEvent(tick=0, channel=2, data=[72, 119]),
   midi.NoteOnEvent(tick=0, channel=2, data=[67, 127]),
   midi.NoteOffEvent(tick=960, channel=2, data=[72, 0]),
   midi.NoteOffEvent(tick=0, channel=2, data=[67, 0]),
   midi.NoteOnEvent(tick=1440, channel=2, data=[71, 112]),
   midi.NoteOnEvent(tick=0, channel=2, data=[67, 120]),
   midi.NoteOffEvent(tick=480, channel=2, data=[71, 0]),
   midi.NoteOffEvent(tick=0, channel=2, data=[67, 0]),
   midi.NoteOnEvent(tick=0, channel=2, data=[71, 112]),
   midi.NoteOnEvent(tick=0, channel=2, data=[67, 118]),
   midi.NoteOffEvent(tick=480, channel=2, data=[71, 0]),
   midi.NoteOffEvent(tick=0, channel=2, data=[67, 0]),
   midi.NoteOnEvent(tick=0, channel=2, data=[71, 113]),
   midi.NoteOnEvent(tick=0, channel=2, data=[67, 117]),
   midi.NoteOffEvent(tick=480, channel=2, data=[71, 0]),
   midi.NoteOffEvent(tick=0, channel=2, data=[67, 0]),
   midi.NoteOnEvent(tick=0, channel=2, data=[72, 124]),
   midi.NoteOnEvent(tick=0, channel=2, data=[67, 122]),
   midi.NoteOffEvent(tick=960, channel=2, data=[72, 0]),
   midi.NoteOffEvent(tick=0, channel=2, data=[67, 0]),
   midi.NoteOnEvent(tick=1440, channel=2, data=[74, 118]),
   midi.NoteOnEvent(tick=0, channel=2, data=[71, 120]),
   midi.NoteOffEvent(tick=480, channel=2, data=[74, 0]),
   midi.NoteOffEvent(tick=0, channel=2, data=[71, 0]),
   midi.NoteOnEvent(tick=0, channel=2, data=[74, 117]),
   midi.NoteOnEvent(tick=0, channel=2, data=[71, 119]),
   midi.NoteOffEvent(tick=480, channel=2, data=[74, 0]),
   midi.NoteOffEvent(tick=0, channel=2, data=[71, 0]),
   midi.NoteOnEvent(tick=0, channel=2, data=[74, 116]),
   midi.NoteOnEvent(tick=0, channel=2, data=[71, 118]),
   midi.NoteOffEvent(tick=480, channel=2, data=[74, 0]),
   midi.NoteOffEvent(tick=0, channel=2, data=[71, 0]),
   midi.NoteOnEvent(tick=0, channel=2, data=[76, 127]),
   midi.NoteOnEvent(tick=0, channel=2, data=[72, 127]),
   midi.NoteOffEvent(tick=480, channel=2, data=[76, 0]),
   midi.NoteOffEvent(tick=0, channel=2, data=[72, 0]),
   midi.NoteOnEvent(tick=0, channel=2, data=[72, 106]),
   midi.NoteOnEvent(tick=0, channel=2, data=[60, 96]),
   midi.NoteOffEvent(tick=480, channel=2, data=[72, 0]),
   midi.NoteOffEvent(tick=0, channel=2, data=[60, 0]),
   midi.NoteOnEvent(tick=0, channel=2, data=[72, 106]),
   midi.NoteOnEvent(tick=0, channel=2, data=[60, 96]),
   midi.NoteOffEvent(tick=480, channel=2, data=[72, 0]),
   midi.NoteOffEvent(tick=0, channel=2, data=[60, 0]),
   midi.NoteOnEvent(tick=0, channel=2, data=[72, 107]),
   midi.NoteOnEvent(tick=0, channel=2, data=[60, 96]),
   midi.NoteOffEvent(tick=480, channel=2, data=[72, 0]),
   midi.NoteOffEvent(tick=0, channel=2, data=[60, 0]),
   midi.NoteOnEvent(tick=0, channel=2, data=[72, 114]),
   midi.NoteOnEvent(tick=0, channel=2, data=[60, 102]),
   midi.NoteOffEvent(tick=2400, channel=2, data=[72, 0]),
   midi.NoteOffEvent(tick=0, channel=2, data=[60, 0]),
   midi.NoteOnEvent(tick=0, channel=2, data=[72, 111]),
   midi.NoteOnEvent(tick=0, channel=2, data=[60, 105]),
   midi.NoteOffEvent(tick=480, channel=2, data=[72, 0]),
   midi.NoteOffEvent(tick=0, channel=2, data=[60, 0]),
   midi.NoteOnEvent(tick=0, channel=2, data=[72, 112]),
   midi.NoteOnEvent(tick=0, channel=2, data=[60, 107]),
   midi.NoteOffEvent(tick=480, channel=2, data=[72, 0]),
   midi.NoteOffEvent(tick=0, channel=2, data=[60, 0]),
   midi.NoteOnEvent(tick=0, channel=2, data=[72, 112]),
   midi.NoteOnEvent(tick=0, channel=2, data=[60, 109]),
   midi.NoteOffEvent(tick=480, channel=2, data=[72, 0]),
   midi.NoteOffEvent(tick=0, channel=2, data=[60, 0]),
   midi.NoteOnEvent(tick=0, channel=2, data=[72, 119]),
   midi.NoteOnEvent(tick=0, channel=2, data=[60, 117]),
   midi.NoteOffEvent(tick=2400, channel=2, data=[72, 0]),
   midi.NoteOffEvent(tick=0, channel=2, data=[60, 0]),
   midi.NoteOnEvent(tick=0, channel=2, data=[72, 113]),
   midi.NoteOnEvent(tick=0, channel=2, data=[60, 113]),
   midi.NoteOffEvent(tick=480, channel=2, data=[72, 0]),
   midi.NoteOffEvent(tick=0, channel=2, data=[60, 0]),
   midi.NoteOnEvent(tick=0, channel=2, data=[72, 113]),
   midi.NoteOnEvent(tick=0, channel=2, data=[60, 113]),
   midi.NoteOffEvent(tick=480, channel=2, data=[72, 0]),
   midi.NoteOffEvent(tick=0, channel=2, data=[60, 0]),
   midi.NoteOnEvent(tick=0, channel=2, data=[72, 113]),
   midi.NoteOnEvent(tick=0, channel=2, data=[60, 113]),
   midi.NoteOffEvent(tick=480, channel=2, data=[72, 0]),
   midi.NoteOffEvent(tick=0, channel=2, data=[60, 0]),
   midi.NoteOnEvent(tick=0, channel=2, data=[72, 120]),
   midi.NoteOnEvent(tick=0, channel=2, data=[60, 120]),
   midi.NoteOffEvent(tick=2400, channel=2, data=[72, 0]),
   midi.NoteOffEvent(tick=0, channel=2, data=[60, 0]),
   midi.NoteOnEvent(tick=0, channel=2, data=[72, 113]),
   midi.NoteOnEvent(tick=0, channel=2, data=[60, 113]),
   midi.NoteOffEvent(tick=480, channel=2, data=[72, 0]),
   midi.NoteOffEvent(tick=0, channel=2, data=[60, 0]),
   midi.NoteOnEvent(tick=0, channel=2, data=[72, 113]),
   midi.NoteOnEvent(tick=0, channel=2, data=[60, 113]),
   midi.NoteOffEvent(tick=480, channel=2, data=[72, 0]),
   midi.NoteOffEvent(tick=0, channel=2, data=[60, 0]),
   midi.NoteOnEvent(tick=0, channel=2, data=[72, 113]),
   midi.NoteOnEvent(tick=0, channel=2, data=[60, 113]),
   midi.NoteOffEvent(tick=480, channel=2, data=[72, 0]),
   midi.NoteOffEvent(tick=0, channel=2, data=[60, 0]),
   midi.NoteOnEvent(tick=0, channel=2, data=[72, 120]),
   midi.NoteOnEvent(tick=0, channel=2, data=[60, 120]),
   midi.NoteOffEvent(tick=1920, channel=2, data=[72, 0]),
   midi.NoteOffEvent(tick=0, channel=2, data=[60, 0]),
   midi.NoteOnEvent(tick=0, channel=2, data=[73, 122]),
   midi.NoteOnEvent(tick=0, channel=2, data=[68, 127]),
   midi.NoteOffEvent(tick=7680, channel=2, data=[73, 0]),
   midi.NoteOffEvent(tick=0, channel=2, data=[68, 0]),
   midi.NoteOnEvent(tick=0, channel=2, data=[73, 120]),
   midi.NoteOnEvent(tick=0, channel=2, data=[68, 120]),
   midi.NoteOffEvent(tick=960, channel=2, data=[73, 0]),
   midi.NoteOffEvent(tick=0, channel=2, data=[68, 0]),
   midi.NoteOnEvent(tick=1440, channel=2, data=[65, 109]),
   midi.NoteOffEvent(tick=480, channel=2, data=[65, 0]),
   midi.NoteOnEvent(tick=0, channel=2, data=[65, 109]),
   midi.NoteOffEvent(tick=480, channel=2, data=[65, 0]),
   midi.NoteOnEvent(tick=0, channel=2, data=[65, 110]),
   midi.NoteOffEvent(tick=480, channel=2, data=[65, 0]),
   midi.NoteOnEvent(tick=0, channel=2, data=[68, 126]),
   midi.NoteOffEvent(tick=960, channel=2, data=[68, 0]),
   midi.NoteOnEvent(tick=3360, channel=2, data=[72, 117]),
   midi.NoteOnEvent(tick=0, channel=2, data=[69, 113]),
   midi.NoteOffEvent(tick=480, channel=2, data=[72, 0]),
   midi.NoteOffEvent(tick=0, channel=2, data=[69, 0]),
   midi.NoteOnEvent(tick=0, channel=2, data=[72, 116]),
   midi.NoteOnEvent(tick=0, channel=2, data=[69, 113]),
   midi.NoteOffEvent(tick=480, channel=2, data=[72, 0]),
   midi.NoteOffEvent(tick=0, channel=2, data=[69, 0]),
   midi.NoteOnEvent(tick=0, channel=2, data=[72, 115]),
   midi.NoteOnEvent(tick=0, channel=2, data=[69, 113]),
   midi.NoteOffEvent(tick=480, channel=2, data=[72, 0]),
   midi.NoteOffEvent(tick=0, channel=2, data=[69, 0]),
   midi.NoteOnEvent(tick=0, channel=2, data=[72, 121]),
   midi.NoteOnEvent(tick=0, channel=2, data=[69, 120]),
   midi.NoteOffEvent(tick=7680, channel=2, data=[72, 0]),
   midi.NoteOffEvent(tick=0, channel=2, data=[69, 0]),
   midi.NoteOnEvent(tick=0, channel=2, data=[72, 120]),
   midi.NoteOnEvent(tick=0, channel=2, data=[69, 120]),
   midi.NoteOffEvent(tick=960, channel=2, data=[72, 0]),
   midi.NoteOffEvent(tick=0, channel=2, data=[69, 0]),
   midi.NoteOnEvent(tick=1440, channel=2, data=[72, 113]),
   midi.NoteOnEvent(tick=0, channel=2, data=[60, 108]),
   midi.NoteOffEvent(tick=480, channel=2, data=[72, 0]),
   midi.NoteOffEvent(tick=0, channel=2, data=[60, 0]),
   midi.NoteOnEvent(tick=0, channel=2, data=[72, 113]),
   midi.NoteOnEvent(tick=0, channel=2, data=[60, 109]),
   midi.NoteOffEvent(tick=480, channel=2, data=[72, 0]),
   midi.NoteOffEvent(tick=0, channel=2, data=[60, 0]),
   midi.NoteOnEvent(tick=0, channel=2, data=[72, 113]),
   midi.NoteOnEvent(tick=0, channel=2, data=[60, 110]),
   midi.NoteOffEvent(tick=480, channel=2, data=[72, 0]),
   midi.NoteOffEvent(tick=0, channel=2, data=[60, 0]),
   midi.NoteOnEvent(tick=0, channel=2, data=[75, 127]),
   midi.NoteOnEvent(tick=0, channel=2, data=[63, 126]),
   midi.NoteOffEvent(tick=960, channel=2, data=[75, 0]),
   midi.NoteOffEvent(tick=0, channel=2, data=[63, 0]),
   midi.NoteOnEvent(tick=6720, channel=2, data=[80, 120]),
   midi.NoteOnEvent(tick=0, channel=2, data=[71, 120]),
   midi.NoteOffEvent(tick=2880, channel=2, data=[80, 0]),
   midi.NoteOnEvent(tick=0, channel=2, data=[79, 113]),
   midi.NoteOffEvent(tick=960, channel=2, data=[71, 0]),
   midi.NoteOffEvent(tick=0, channel=2, data=[79, 0]),
   midi.NoteOnEvent(tick=3840, channel=2, data=[80, 120]),
   midi.NoteOnEvent(tick=0, channel=2, data=[71, 120]),
   midi.NoteOffEvent(tick=2880, channel=2, data=[80, 0]),
   midi.NoteOnEvent(tick=0, channel=2, data=[79, 113]),
   midi.NoteOffEvent(tick=960, channel=2, data=[71, 0]),
   midi.NoteOffEvent(tick=0, channel=2, data=[79, 0]),
   midi.NoteOnEvent(tick=3840, channel=2, data=[75, 119]),
   midi.NoteOffEvent(tick=960, channel=2, data=[75, 0]),
   midi.NoteOnEvent(tick=0, channel=2, data=[77, 114]),
   midi.NoteOffEvent(tick=960, channel=2, data=[77, 0]),
   midi.NoteOnEvent(tick=0, channel=2, data=[74, 116]),
   midi.NoteOffEvent(tick=960, channel=2, data=[74, 0]),
   midi.NoteOnEvent(tick=0, channel=2, data=[75, 113]),
   midi.NoteOffEvent(tick=960, channel=2, data=[75, 0]),
   midi.NoteOnEvent(tick=0, channel=2, data=[72, 113]),
   midi.NoteOffEvent(tick=960, channel=2, data=[72, 0]),
   midi.NoteOnEvent(tick=0, channel=2, data=[74, 113]),
   midi.NoteOffEvent(tick=960, channel=2, data=[74, 0]),
   midi.NoteOnEvent(tick=0, channel=2, data=[70, 109]),
   midi.NoteOffEvent(tick=960, channel=2, data=[70, 0]),
   midi.NoteOnEvent(tick=0, channel=2, data=[72, 111]),
   midi.NoteOffEvent(tick=960, channel=2, data=[72, 0]),
   midi.NoteOnEvent(tick=0, channel=2, data=[68, 108]),
   midi.NoteOffEvent(tick=960, channel=2, data=[68, 0]),
   midi.NoteOnEvent(tick=0, channel=2, data=[70, 111]),
   midi.NoteOffEvent(tick=960, channel=2, data=[70, 0]),
   midi.NoteOnEvent(tick=0, channel=2, data=[67, 111]),
   midi.NoteOffEvent(tick=960, channel=2, data=[67, 0]),
   midi.NoteOnEvent(tick=0, channel=2, data=[68, 110]),
   midi.NoteOffEvent(tick=960, channel=2, data=[68, 0]),
   midi.NoteOnEvent(tick=0, channel=2, data=[65, 110]),
   midi.NoteOffEvent(tick=960, channel=2, data=[65, 0]),
   midi.NoteOnEvent(tick=0, channel=2, data=[67, 112]),
   midi.NoteOnEvent(tick=0, channel=2, data=[63, 113]),
   midi.NoteOffEvent(tick=960, channel=2, data=[67, 0]),
   midi.NoteOffEvent(tick=0, channel=2, data=[63, 0]),
   midi.NoteOnEvent(tick=0, channel=2, data=[67, 120]),
   midi.NoteOnEvent(tick=0, channel=2, data=[62, 119]),
   midi.NoteOffEvent(tick=960, channel=2, data=[67, 0]),
   midi.NoteOffEvent(tick=0, channel=2, data=[62, 0]),
   midi.NoteOnEvent(tick=0, channel=2, data=[67, 113]),
   midi.NoteOnEvent(tick=0, channel=2, data=[63, 114]),
   midi.NoteOffEvent(tick=960, channel=2, data=[67, 0]),
   midi.NoteOffEvent(tick=0, channel=2, data=[63, 0]),
   midi.NoteOnEvent(tick=0, channel=2, data=[67, 120]),
   midi.NoteOnEvent(tick=0, channel=2, data=[65, 124]),
   midi.NoteOffEvent(tick=960, channel=2, data=[67, 0]),
   midi.NoteOffEvent(tick=0, channel=2, data=[65, 0]),
   midi.NoteOnEvent(tick=0, channel=2, data=[67, 113]),
   midi.NoteOnEvent(tick=0, channel=2, data=[63, 112]),
   midi.NoteOffEvent(tick=960, channel=2, data=[67, 0]),
   midi.NoteOffEvent(tick=0, channel=2, data=[63, 0]),
   midi.NoteOnEvent(tick=0, channel=2, data=[67, 120]),
   midi.NoteOnEvent(tick=0, channel=2, data=[65, 124]),
   midi.NoteOffEvent(tick=960, channel=2, data=[67, 0]),
   midi.NoteOffEvent(tick=0, channel=2, data=[65, 0]),
   midi.NoteOnEvent(tick=0, channel=2, data=[72, 125]),
   midi.NoteOnEvent(tick=0, channel=2, data=[67, 121]),
   midi.NoteOffEvent(tick=960, channel=2, data=[72, 0]),
   midi.NoteOffEvent(tick=0, channel=2, data=[67, 0]),
   midi.NoteOnEvent(tick=0, channel=2, data=[72, 127]),
   midi.NoteOnEvent(tick=0, channel=2, data=[68, 127]),
   midi.NoteOffEvent(tick=960, channel=2, data=[72, 0]),
   midi.NoteOffEvent(tick=0, channel=2, data=[68, 0]),
   midi.NoteOnEvent(tick=0, channel=2, data=[72, 119]),
   midi.NoteOnEvent(tick=0, channel=2, data=[67, 116]),
   midi.NoteOffEvent(tick=960, channel=2, data=[72, 0]),
   midi.NoteOffEvent(tick=0, channel=2, data=[67, 0]),
   midi.NoteOnEvent(tick=0, channel=2, data=[72, 123]),
   midi.NoteOnEvent(tick=0, channel=2, data=[68, 124]),
   midi.NoteOffEvent(tick=960, channel=2, data=[72, 0]),
   midi.NoteOffEvent(tick=0, channel=2, data=[68, 0]),
   midi.NoteOnEvent(tick=0, channel=2, data=[71, 112]),
   midi.NoteOnEvent(tick=0, channel=2, data=[59, 97]),
   midi.NoteOffEvent(tick=960, channel=2, data=[71, 0]),
   midi.NoteOffEvent(tick=0, channel=2, data=[59, 0]),
   midi.NoteOnEvent(tick=0, channel=2, data=[72, 122]),
   midi.NoteOnEvent(tick=0, channel=2, data=[60, 107]),
   midi.NoteOffEvent(tick=960, channel=2, data=[72, 0]),
   midi.NoteOffEvent(tick=0, channel=2, data=[60, 0]),
   midi.NoteOnEvent(tick=0, channel=2, data=[71, 111]),
   midi.NoteOnEvent(tick=0, channel=2, data=[59, 103]),
   midi.NoteOffEvent(tick=960, channel=2, data=[71, 0]),
   midi.NoteOffEvent(tick=0, channel=2, data=[59, 0]),
   midi.NoteOnEvent(tick=0, channel=2, data=[72, 121]),
   midi.NoteOnEvent(tick=0, channel=2, data=[60, 116]),
   midi.NoteOffEvent(tick=960, channel=2, data=[72, 0]),
   midi.NoteOffEvent(tick=0, channel=2, data=[60, 0]),
   midi.NoteOnEvent(tick=0, channel=2, data=[74, 119]),
   midi.NoteOnEvent(tick=0, channel=2, data=[62, 116]),
   midi.NoteOffEvent(tick=960, channel=2, data=[74, 0]),
   midi.NoteOffEvent(tick=0, channel=2, data=[62, 0]),
   midi.NoteOnEvent(tick=0, channel=2, data=[72, 119]),
   midi.NoteOnEvent(tick=0, channel=2, data=[63, 126]),
   midi.NoteOffEvent(tick=3840, channel=2, data=[72, 0]),
   midi.NoteOffEvent(tick=0, channel=2, data=[63, 0]),
   midi.NoteOnEvent(tick=0, channel=2, data=[72, 119]),
   midi.NoteOnEvent(tick=0, channel=2, data=[65, 122]),
   midi.NoteOffEvent(tick=3840, channel=2, data=[72, 0]),
   midi.NoteOffEvent(tick=0, channel=2, data=[65, 0]),
   midi.NoteOnEvent(tick=0, channel=2, data=[72, 120]),
   midi.NoteOnEvent(tick=0, channel=2, data=[67, 121]),
   midi.NoteOffEvent(tick=3840, channel=2, data=[72, 0]),
   midi.NoteOffEvent(tick=0, channel=2, data=[67, 0]),
   midi.NoteOnEvent(tick=0, channel=2, data=[72, 120]),
   midi.NoteOnEvent(tick=0, channel=2, data=[68, 120]),
   midi.NoteOffEvent(tick=1920, channel=2, data=[68, 0]),
   midi.NoteOnEvent(tick=0, channel=2, data=[65, 118]),
   midi.NoteOffEvent(tick=1920, channel=2, data=[72, 0]),
   midi.NoteOffEvent(tick=0, channel=2, data=[65, 0]),
   midi.NoteOnEvent(tick=0, channel=2, data=[71, 119]),
   midi.NoteOnEvent(tick=0, channel=2, data=[65, 119]),
   midi.NoteOffEvent(tick=1920, channel=2, data=[71, 0]),
   midi.NoteOffEvent(tick=0, channel=2, data=[65, 0]),
   midi.NoteOnEvent(tick=0, channel=2, data=[71, 120]),
   midi.NoteOnEvent(tick=0, channel=2, data=[67, 122]),
   midi.NoteOffEvent(tick=1920, channel=2, data=[71, 0]),
   midi.NoteOffEvent(tick=0, channel=2, data=[67, 0]),
   midi.NoteOnEvent(tick=0, channel=2, data=[72, 121]),
   midi.NoteOnEvent(tick=0, channel=2, data=[67, 121]),
   midi.NoteOffEvent(tick=480, channel=2, data=[72, 0]),
   midi.NoteOffEvent(tick=0, channel=2, data=[67, 0]),
   midi.NoteOnEvent(tick=1440, channel=2, data=[72, 120]),
   midi.NoteOnEvent(tick=0, channel=2, data=[68, 121]),
   midi.NoteOffEvent(tick=480, channel=2, data=[72, 0]),
   midi.NoteOffEvent(tick=0, channel=2, data=[68, 0]),
   midi.NoteOnEvent(tick=1440, channel=2, data=[72, 120]),
   midi.NoteOnEvent(tick=0, channel=2, data=[68, 120]),
   midi.NoteOffEvent(tick=480, channel=2, data=[72, 0]),
   midi.NoteOffEvent(tick=0, channel=2, data=[68, 0]),
   midi.NoteOnEvent(tick=1440, channel=2, data=[74, 122]),
   midi.NoteOnEvent(tick=0, channel=2, data=[72, 124]),
   midi.NoteOffEvent(tick=480, channel=2, data=[74, 0]),
   midi.NoteOffEvent(tick=0, channel=2, data=[72, 0]),
   midi.NoteOnEvent(tick=1440, channel=2, data=[74, 121]),
   midi.NoteOnEvent(tick=0, channel=2, data=[72, 122]),
   midi.NoteOffEvent(tick=480, channel=2, data=[74, 0]),
   midi.NoteOffEvent(tick=0, channel=2, data=[72, 0]),
   midi.NoteOnEvent(tick=1440, channel=2, data=[74, 120]),
   midi.NoteOnEvent(tick=0, channel=2, data=[71, 119]),
   midi.NoteOffEvent(tick=480, channel=2, data=[74, 0]),
   midi.NoteOffEvent(tick=0, channel=2, data=[71, 0]),
   midi.NoteOnEvent(tick=1440, channel=2, data=[72, 118]),
   midi.NoteOffEvent(tick=1920, channel=2, data=[72, 0]),
   midi.NoteOnEvent(tick=0, channel=2, data=[74, 121]),
   midi.NoteOffEvent(tick=480, channel=2, data=[74, 0]),
   midi.NoteOnEvent(tick=480, channel=2, data=[75, 115]),
   midi.NoteOffEvent(tick=480, channel=2, data=[75, 0]),
   midi.NoteOnEvent(tick=480, channel=2, data=[77, 126]),
   midi.NoteOnEvent(tick=960, channel=2, data=[74, 110]),
   midi.NoteOffEvent(tick=19, channel=2, data=[77, 0]),
   midi.NoteOffEvent(tick=892, channel=2, data=[74, 0]),
   midi.NoteOnEvent(tick=3889, channel=2, data=[77, 121]),
   midi.NoteOffEvent(tick=480, channel=2, data=[77, 0]),
   midi.NoteOnEvent(tick=480, channel=2, data=[79, 115]),
   midi.NoteOffEvent(tick=480, channel=2, data=[79, 0]),
   midi.NoteOnEvent(tick=480, channel=2, data=[80, 123]),
   midi.NoteOnEvent(tick=960, channel=2, data=[77, 109]),
   midi.NoteOffEvent(tick=19, channel=2, data=[80, 0]),
   midi.NoteOffEvent(tick=892, channel=2, data=[77, 0]),
   midi.NoteOnEvent(tick=3889, channel=2, data=[72, 117]),
   midi.NoteOnEvent(tick=0, channel=2, data=[69, 120]),
   midi.NoteOffEvent(tick=480, channel=2, data=[72, 0]),
   midi.NoteOffEvent(tick=0, channel=2, data=[69, 0]),
   midi.NoteOnEvent(tick=480, channel=2, data=[74, 114]),
   midi.NoteOnEvent(tick=0, channel=2, data=[71, 115]),
   midi.NoteOffEvent(tick=480, channel=2, data=[74, 0]),
   midi.NoteOffEvent(tick=0, channel=2, data=[71, 0]),
   midi.NoteOnEvent(tick=480, channel=2, data=[75, 122]),
   midi.NoteOnEvent(tick=0, channel=2, data=[72, 123]),
   midi.NoteOffEvent(tick=960, channel=2, data=[72, 0]),
   midi.NoteOnEvent(tick=0, channel=2, data=[72, 109]),
   midi.NoteOnEvent(tick=0, channel=2, data=[67, 106]),
   midi.NoteOffEvent(tick=38, channel=2, data=[75, 0]),
   midi.NoteOffEvent(tick=825, channel=2, data=[72, 0]),
   midi.NoteOffEvent(tick=0, channel=2, data=[67, 0]),
   midi.NoteOnEvent(tick=3937, channel=2, data=[72, 119]),
   midi.NoteOnEvent(tick=0, channel=2, data=[69, 120]),
   midi.NoteOffEvent(tick=480, channel=2, data=[72, 0]),
   midi.NoteOffEvent(tick=0, channel=2, data=[69, 0]),
   midi.NoteOnEvent(tick=480, channel=2, data=[74, 115]),
   midi.NoteOnEvent(tick=0, channel=2, data=[71, 115]),
   midi.NoteOffEvent(tick=480, channel=2, data=[74, 0]),
   midi.NoteOffEvent(tick=0, channel=2, data=[71, 0]),
   midi.NoteOnEvent(tick=480, channel=2, data=[75, 123]),
   midi.NoteOnEvent(tick=0, channel=2, data=[72, 123]),
   midi.NoteOnEvent(tick=960, channel=2, data=[74, 113]),
   midi.NoteOnEvent(tick=0, channel=2, data=[70, 111]),
   midi.NoteOffEvent(tick=38, channel=2, data=[75, 0]),
   midi.NoteOffEvent(tick=0, channel=2, data=[72, 0]),
   midi.NoteOffEvent(tick=825, channel=2, data=[74, 0]),
   midi.NoteOffEvent(tick=0, channel=2, data=[70, 0]),
   midi.NoteOnEvent(tick=97, channel=2, data=[72, 115]),
   midi.NoteOnEvent(tick=0, channel=2, data=[68, 114]),
   midi.NoteOffEvent(tick=960, channel=2, data=[72, 0]),
   midi.NoteOffEvent(tick=0, channel=2, data=[68, 0]),
   midi.NoteOnEvent(tick=0, channel=2, data=[70, 105]),
   midi.NoteOnEvent(tick=0, channel=2, data=[67, 106]),
   midi.NoteOffEvent(tick=960, channel=2, data=[70, 0]),
   midi.NoteOffEvent(tick=0, channel=2, data=[67, 0]),
   midi.NoteOnEvent(tick=0, channel=2, data=[68, 109]),
   midi.NoteOnEvent(tick=0, channel=2, data=[65, 110]),
   midi.NoteOffEvent(tick=960, channel=2, data=[68, 0]),
   midi.NoteOffEvent(tick=0, channel=2, data=[65, 0]),
   midi.NoteOnEvent(tick=0, channel=2, data=[67, 103]),
   midi.NoteOnEvent(tick=0, channel=2, data=[63, 102]),
   midi.NoteOffEvent(tick=960, channel=2, data=[67, 0]),
   midi.NoteOffEvent(tick=0, channel=2, data=[63, 0]),
   midi.NoteOnEvent(tick=1920, channel=2, data=[72, 124]),
   midi.NoteOnEvent(tick=0, channel=2, data=[60, 114]),
   midi.NoteOffEvent(tick=960, channel=2, data=[72, 0]),
   midi.NoteOffEvent(tick=0, channel=2, data=[60, 0]),
   midi.NoteOnEvent(tick=0, channel=2, data=[72, 116]),
   midi.NoteOnEvent(tick=0, channel=2, data=[60, 110]),
   midi.NoteOffEvent(tick=960, channel=2, data=[72, 0]),
   midi.NoteOffEvent(tick=0, channel=2, data=[60, 0]),
   midi.NoteOnEvent(tick=0, channel=2, data=[80, 127]),
   midi.NoteOnEvent(tick=0, channel=2, data=[77, 127]),
   midi.NoteOnEvent(tick=960, channel=2, data=[79, 122]),
   midi.NoteOnEvent(tick=0, channel=2, data=[75, 125]),
   midi.NoteOffEvent(tick=38, channel=2, data=[80, 0]),
   midi.NoteOffEvent(tick=0, channel=2, data=[77, 0]),
   midi.NoteOffEvent(tick=825, channel=2, data=[79, 0]),
   midi.NoteOffEvent(tick=0, channel=2, data=[75, 0]),
   midi.NoteOnEvent(tick=1057, channel=2, data=[72, 110]),
   midi.NoteOnEvent(tick=0, channel=2, data=[75, 110]),
   midi.NoteOffEvent(tick=960, channel=2, data=[72, 0]),
   midi.NoteOffEvent(tick=0, channel=2, data=[75, 0]),
   midi.NoteOnEvent(tick=960, channel=2, data=[71, 116]),
   midi.NoteOnEvent(tick=0, channel=2, data=[79, 116]),
   midi.NoteOffEvent(tick=960, channel=2, data=[71, 0]),
   midi.NoteOffEvent(tick=0, channel=2, data=[79, 0]),
   midi.NoteOnEvent(tick=5760, channel=2, data=[72, 119]),
   midi.NoteOnEvent(tick=0, channel=2, data=[60, 120]),
   midi.NoteOffEvent(tick=960, channel=2, data=[72, 0]),
   midi.NoteOffEvent(tick=0, channel=2, data=[60, 0]),
   midi.NoteOnEvent(tick=0, channel=2, data=[72, 113]),
   midi.NoteOnEvent(tick=0, channel=2, data=[60, 113]),
   midi.NoteOffEvent(tick=960, channel=2, data=[72, 0]),
   midi.NoteOffEvent(tick=0, channel=2, data=[60, 0]),
   midi.NoteOnEvent(tick=1920, channel=2, data=[68, 117]),
   midi.NoteOnEvent(tick=0, channel=2, data=[65, 124]),
   midi.NoteOnEvent(tick=960, channel=2, data=[67, 110]),
   midi.NoteOnEvent(tick=0, channel=2, data=[63, 113]),
   midi.NoteOffEvent(tick=38, channel=2, data=[68, 0]),
   midi.NoteOffEvent(tick=0, channel=2, data=[65, 0]),
   midi.NoteOffEvent(tick=825, channel=2, data=[67, 0]),
   midi.NoteOffEvent(tick=0, channel=2, data=[63, 0]),
   midi.NoteOnEvent(tick=1057, channel=2, data=[75, 125]),
   midi.NoteOnEvent(tick=0, channel=2, data=[79, 125]),
   midi.NoteOffEvent(tick=960, channel=2, data=[75, 0]),
   midi.NoteOffEvent(tick=0, channel=2, data=[79, 0]),
   midi.NoteOnEvent(tick=960, channel=2, data=[74, 119]),
   midi.NoteOnEvent(tick=0, channel=2, data=[79, 119]),
   midi.NoteOffEvent(tick=960, channel=2, data=[74, 0]),
   midi.NoteOffEvent(tick=0, channel=2, data=[79, 0]),
   midi.NoteOnEvent(tick=0, channel=2, data=[72, 112]),
   midi.NoteOffEvent(tick=960, channel=2, data=[72, 0]),
   midi.NoteOnEvent(tick=1440, channel=2, data=[74, 112]),
   midi.NoteOnEvent(tick=0, channel=2, data=[71, 113]),
   midi.NoteOffEvent(tick=480, channel=2, data=[74, 0]),
   midi.NoteOffEvent(tick=0, channel=2, data=[71, 0]),
   midi.NoteOnEvent(tick=0, channel=2, data=[74, 112]),
   midi.NoteOnEvent(tick=0, channel=2, data=[71, 113]),
   midi.NoteOffEvent(tick=480, channel=2, data=[74, 0]),
   midi.NoteOffEvent(tick=0, channel=2, data=[71, 0]),
   midi.NoteOnEvent(tick=0, channel=2, data=[74, 112]),
   midi.NoteOnEvent(tick=0, channel=2, data=[71, 113]),
   midi.NoteOffEvent(tick=480, channel=2, data=[74, 0]),
   midi.NoteOffEvent(tick=0, channel=2, data=[71, 0]),
   midi.NoteOnEvent(tick=0, channel=2, data=[74, 119]),
   midi.NoteOnEvent(tick=0, channel=2, data=[71, 120]),
   midi.NoteOffEvent(tick=2880, channel=2, data=[74, 0]),
   midi.NoteOffEvent(tick=0, channel=2, data=[71, 0]),
   midi.NoteOnEvent(tick=0, channel=2, data=[75, 115]),
   midi.NoteOnEvent(tick=0, channel=2, data=[72, 114]),
   midi.NoteOnEvent(tick=960, channel=2, data=[77, 125]),
   midi.NoteOnEvent(tick=0, channel=2, data=[74, 124]),
   midi.NoteOffEvent(tick=38, channel=2, data=[75, 0]),
   midi.NoteOffEvent(tick=0, channel=2, data=[72, 0]),
   midi.NoteOffEvent(tick=825, channel=2, data=[77, 0]),
   midi.NoteOffEvent(tick=0, channel=2, data=[74, 0]),
   midi.NoteOnEvent(tick=97, channel=2, data=[74, 110]),
   midi.NoteOnEvent(tick=0, channel=2, data=[71, 110]),
   midi.NoteOffEvent(tick=960, channel=2, data=[74, 0]),
   midi.NoteOffEvent(tick=0, channel=2, data=[71, 0]),
   midi.NoteOnEvent(tick=0, channel=2, data=[75, 120]),
   midi.NoteOnEvent(tick=0, channel=2, data=[72, 120]),
   midi.NoteOffEvent(tick=960, channel=2, data=[75, 0]),
   midi.NoteOffEvent(tick=0, channel=2, data=[72, 0]),
   midi.NoteOnEvent(tick=0, channel=2, data=[77, 117]),
   midi.NoteOnEvent(tick=0, channel=2, data=[74, 117]),
   midi.NoteOffEvent(tick=960, channel=2, data=[77, 0]),
   midi.NoteOffEvent(tick=0, channel=2, data=[74, 0]),
   midi.NoteOnEvent(tick=0, channel=2, data=[75, 118]),
   midi.NoteOnEvent(tick=0, channel=2, data=[72, 118]),
   midi.NoteOffEvent(tick=960, channel=2, data=[75, 0]),
   midi.NoteOffEvent(tick=0, channel=2, data=[72, 0]),
   midi.NoteOnEvent(tick=1440, channel=2, data=[79, 118]),
   midi.NoteOnEvent(tick=0, channel=2, data=[67, 105]),
   midi.NoteOffEvent(tick=480, channel=2, data=[79, 0]),
   midi.NoteOffEvent(tick=0, channel=2, data=[67, 0]),
   midi.NoteOnEvent(tick=0, channel=2, data=[79, 117]),
   midi.NoteOnEvent(tick=0, channel=2, data=[67, 107]),
   midi.NoteOffEvent(tick=480, channel=2, data=[79, 0]),
   midi.NoteOffEvent(tick=0, channel=2, data=[67, 0]),
   midi.NoteOnEvent(tick=0, channel=2, data=[79, 116]),
   midi.NoteOnEvent(tick=0, channel=2, data=[67, 108]),
   midi.NoteOffEvent(tick=480, channel=2, data=[79, 0]),
   midi.NoteOffEvent(tick=0, channel=2, data=[67, 0]),
   midi.NoteOnEvent(tick=0, channel=2, data=[79, 122]),
   midi.NoteOnEvent(tick=0, channel=2, data=[67, 116]),
   midi.NoteOffEvent(tick=480, channel=2, data=[79, 0]),
   midi.NoteOffEvent(tick=0, channel=2, data=[67, 0]),
   midi.NoteOnEvent(tick=0, channel=2, data=[79, 115]),
   midi.NoteOnEvent(tick=0, channel=2, data=[67, 110]),
   midi.NoteOffEvent(tick=480, channel=2, data=[79, 0]),
   midi.NoteOffEvent(tick=0, channel=2, data=[67, 0]),
   midi.NoteOnEvent(tick=0, channel=2, data=[79, 114]),
   midi.NoteOnEvent(tick=0, channel=2, data=[67, 111]),
   midi.NoteOffEvent(tick=480, channel=2, data=[79, 0]),
   midi.NoteOffEvent(tick=0, channel=2, data=[67, 0]),
   midi.NoteOnEvent(tick=0, channel=2, data=[79, 114]),
   midi.NoteOnEvent(tick=0, channel=2, data=[67, 112]),
   midi.NoteOffEvent(tick=480, channel=2, data=[79, 0]),
   midi.NoteOffEvent(tick=0, channel=2, data=[67, 0]),
   midi.NoteOnEvent(tick=0, channel=2, data=[79, 120]),
   midi.NoteOnEvent(tick=0, channel=2, data=[67, 119]),
   midi.NoteOffEvent(tick=480, channel=2, data=[79, 0]),
   midi.NoteOffEvent(tick=0, channel=2, data=[67, 0]),
   midi.NoteOnEvent(tick=0, channel=2, data=[79, 113]),
   midi.NoteOnEvent(tick=0, channel=2, data=[67, 112]),
   midi.NoteOffEvent(tick=480, channel=2, data=[79, 0]),
   midi.NoteOffEvent(tick=0, channel=2, data=[67, 0]),
   midi.NoteOnEvent(tick=0, channel=2, data=[79, 113]),
   midi.NoteOnEvent(tick=0, channel=2, data=[67, 113]),
   midi.NoteOffEvent(tick=480, channel=2, data=[79, 0]),
   midi.NoteOffEvent(tick=0, channel=2, data=[67, 0]),
   midi.NoteOnEvent(tick=0, channel=2, data=[79, 113]),
   midi.NoteOnEvent(tick=0, channel=2, data=[67, 113]),
   midi.NoteOffEvent(tick=480, channel=2, data=[79, 0]),
   midi.NoteOffEvent(tick=0, channel=2, data=[67, 0]),
   midi.NoteOnEvent(tick=0, channel=2, data=[75, 103]),
   midi.NoteOnEvent(tick=0, channel=2, data=[63, 102]),
   midi.NoteOffEvent(tick=3840, channel=2, data=[75, 0]),
   midi.NoteOffEvent(tick=0, channel=2, data=[63, 0]),
   midi.NoteOnEvent(tick=480, channel=2, data=[77, 112]),
   midi.NoteOnEvent(tick=0, channel=2, data=[65, 112]),
   midi.NoteOffEvent(tick=480, channel=2, data=[77, 0]),
   midi.NoteOffEvent(tick=0, channel=2, data=[65, 0]),
   midi.NoteOnEvent(tick=0, channel=2, data=[77, 113]),
   midi.NoteOnEvent(tick=0, channel=2, data=[65, 113]),
   midi.NoteOffEvent(tick=480, channel=2, data=[77, 0]),
   midi.NoteOffEvent(tick=0, channel=2, data=[65, 0]),
   midi.NoteOnEvent(tick=0, channel=2, data=[77, 113]),
   midi.NoteOnEvent(tick=0, channel=2, data=[65, 113]),
   midi.NoteOffEvent(tick=480, channel=2, data=[77, 0]),
   midi.NoteOffEvent(tick=0, channel=2, data=[65, 0]),
   midi.NoteOnEvent(tick=0, channel=2, data=[74, 111]),
   midi.NoteOnEvent(tick=0, channel=2, data=[62, 111]),
   midi.NoteOffEvent(tick=7680, channel=2, data=[74, 0]),
   midi.NoteOffEvent(tick=0, channel=2, data=[62, 0]),
   midi.NoteOnEvent(tick=2880, channel=2, data=[68, 61]),
   midi.NoteOffEvent(tick=960, channel=2, data=[68, 0]),
   midi.NoteOnEvent(tick=0, channel=2, data=[67, 64]),
   midi.NoteOffEvent(tick=960, channel=2, data=[67, 0]),
   midi.NoteOnEvent(tick=0, channel=2, data=[75, 67]),
   midi.NoteOffEvent(tick=960, channel=2, data=[75, 0]),
   midi.NoteOnEvent(tick=0, channel=2, data=[72, 66]),
   midi.NoteOffEvent(tick=2880, channel=2, data=[72, 0]),
   midi.NoteOnEvent(tick=1920, channel=2, data=[68, 60]),
   midi.NoteOnEvent(tick=960, channel=2, data=[67, 64]),
   midi.NoteOffEvent(tick=19, channel=2, data=[68, 0]),
   midi.NoteOffEvent(tick=892, channel=2, data=[67, 0]),
   midi.NoteOnEvent(tick=49, channel=2, data=[75, 67]),
   midi.NoteOffEvent(tick=960, channel=2, data=[75, 0]),
   midi.NoteOnEvent(tick=0, channel=2, data=[72, 66]),
   midi.NoteOffEvent(tick=2400, channel=2, data=[72, 0]),
   midi.NoteOnEvent(tick=0, channel=2, data=[74, 116]),
   midi.NoteOnEvent(tick=0, channel=2, data=[71, 113]),
   midi.NoteOffEvent(tick=480, channel=2, data=[74, 0]),
   midi.NoteOffEvent(tick=0, channel=2, data=[71, 0]),
   midi.NoteOnEvent(tick=0, channel=2, data=[74, 116]),
   midi.NoteOnEvent(tick=0, channel=2, data=[71, 113]),
   midi.NoteOffEvent(tick=480, channel=2, data=[74, 0]),
   midi.NoteOffEvent(tick=0, channel=2, data=[71, 0]),
   midi.NoteOnEvent(tick=0, channel=2, data=[74, 115]),
   midi.NoteOnEvent(tick=0, channel=2, data=[71, 113]),
   midi.NoteOffEvent(tick=480, channel=2, data=[74, 0]),
   midi.NoteOffEvent(tick=0, channel=2, data=[71, 0]),
   midi.NoteOnEvent(tick=0, channel=2, data=[75, 125]),
   midi.NoteOnEvent(tick=0, channel=2, data=[72, 122]),
   midi.NoteOffEvent(tick=960, channel=2, data=[75, 0]),
   midi.NoteOffEvent(tick=0, channel=2, data=[72, 0]),
   midi.NoteOnEvent(tick=1440, channel=2, data=[74, 113]),
   midi.NoteOnEvent(tick=0, channel=2, data=[71, 112]),
   midi.NoteOffEvent(tick=480, channel=2, data=[74, 0]),
   midi.NoteOffEvent(tick=0, channel=2, data=[71, 0]),
   midi.NoteOnEvent(tick=0, channel=2, data=[74, 113]),
   midi.NoteOnEvent(tick=0, channel=2, data=[71, 113]),
   midi.NoteOffEvent(tick=480, channel=2, data=[74, 0]),
   midi.NoteOffEvent(tick=0, channel=2, data=[71, 0]),
   midi.NoteOnEvent(tick=0, channel=2, data=[74, 113]),
   midi.NoteOnEvent(tick=0, channel=2, data=[71, 113]),
   midi.NoteOffEvent(tick=480, channel=2, data=[74, 0]),
   midi.NoteOffEvent(tick=0, channel=2, data=[71, 0]),
   midi.NoteOnEvent(tick=0, channel=2, data=[75, 123]),
   midi.NoteOnEvent(tick=0, channel=2, data=[72, 123]),
   midi.NoteOffEvent(tick=960, channel=2, data=[75, 0]),
   midi.NoteOffEvent(tick=0, channel=2, data=[72, 0]),
   midi.NoteOnEvent(tick=1440, channel=2, data=[74, 112]),
   midi.NoteOnEvent(tick=0, channel=2, data=[71, 112]),
   midi.NoteOffEvent(tick=480, channel=2, data=[74, 0]),
   midi.NoteOffEvent(tick=0, channel=2, data=[71, 0]),
   midi.NoteOnEvent(tick=0, channel=2, data=[74, 113]),
   midi.NoteOnEvent(tick=0, channel=2, data=[71, 113]),
   midi.NoteOffEvent(tick=480, channel=2, data=[74, 0]),
   midi.NoteOffEvent(tick=0, channel=2, data=[71, 0]),
   midi.NoteOnEvent(tick=0, channel=2, data=[74, 113]),
   midi.NoteOnEvent(tick=0, channel=2, data=[71, 113]),
   midi.NoteOffEvent(tick=480, channel=2, data=[74, 0]),
   midi.NoteOffEvent(tick=0, channel=2, data=[71, 0]),
   midi.NoteOnEvent(tick=0, channel=2, data=[75, 123]),
   midi.NoteOnEvent(tick=0, channel=2, data=[72, 123]),
   midi.NoteOffEvent(tick=960, channel=2, data=[75, 0]),
   midi.NoteOffEvent(tick=0, channel=2, data=[72, 0]),
   midi.NoteOnEvent(tick=0, channel=2, data=[74, 112]),
   midi.NoteOnEvent(tick=0, channel=2, data=[71, 112]),
   midi.NoteOffEvent(tick=960, channel=2, data=[74, 0]),
   midi.NoteOffEvent(tick=0, channel=2, data=[71, 0]),
   midi.NoteOnEvent(tick=0, channel=2, data=[75, 122]),
   midi.NoteOnEvent(tick=0, channel=2, data=[72, 122]),
   midi.NoteOffEvent(tick=960, channel=2, data=[75, 0]),
   midi.NoteOffEvent(tick=0, channel=2, data=[72, 0]),
   midi.NoteOnEvent(tick=0, channel=2, data=[74, 112]),
   midi.NoteOnEvent(tick=0, channel=2, data=[71, 112]),
   midi.NoteOffEvent(tick=960, channel=2, data=[74, 0]),
   midi.NoteOffEvent(tick=0, channel=2, data=[71, 0]),
   midi.NoteOnEvent(tick=0, channel=2, data=[75, 122]),
   midi.NoteOnEvent(tick=0, channel=2, data=[72, 122]),
   midi.NoteOffEvent(tick=960, channel=2, data=[75, 0]),
   midi.NoteOffEvent(tick=0, channel=2, data=[72, 0]),
   midi.NoteOnEvent(tick=0, channel=2, data=[74, 112]),
   midi.NoteOnEvent(tick=0, channel=2, data=[71, 112]),
   midi.NoteOffEvent(tick=960, channel=2, data=[74, 0]),
   midi.NoteOffEvent(tick=0, channel=2, data=[71, 0]),
   midi.NoteOnEvent(tick=0, channel=2, data=[75, 122]),
   midi.NoteOnEvent(tick=0, channel=2, data=[72, 122]),
   midi.NoteOffEvent(tick=960, channel=2, data=[75, 0]),
   midi.NoteOffEvent(tick=0, channel=2, data=[72, 0]),
   midi.NoteOnEvent(tick=0, channel=2, data=[74, 112]),
   midi.NoteOnEvent(tick=0, channel=2, data=[71, 112]),
   midi.NoteOffEvent(tick=960, channel=2, data=[74, 0]),
   midi.NoteOffEvent(tick=0, channel=2, data=[71, 0]),
   midi.NoteOnEvent(tick=0, channel=2, data=[75, 121]),
   midi.NoteOnEvent(tick=0, channel=2, data=[72, 121]),
   midi.NoteOffEvent(tick=960, channel=2, data=[75, 0]),
   midi.NoteOffEvent(tick=0, channel=2, data=[72, 0]),
   midi.NoteOnEvent(tick=960, channel=2, data=[74, 119]),
   midi.NoteOnEvent(tick=0, channel=2, data=[71, 119]),
   midi.NoteOffEvent(tick=960, channel=2, data=[74, 0]),
   midi.NoteOffEvent(tick=0, channel=2, data=[71, 0]),
   midi.NoteOnEvent(tick=960, channel=2, data=[72, 117]),
   midi.NoteOffEvent(tick=960, channel=2, data=[72, 0]),
   midi.EndOfTrackEvent(tick=1, data=[])]),
 midi.Track(\
  [midi.ProgramChangeEvent(tick=0, channel=3, data=[70]),
   midi.ControlChangeEvent(tick=0, channel=3, data=[121, 0]),
   midi.ControlChangeEvent(tick=0, channel=3, data=[64, 0]),
   midi.ControlChangeEvent(tick=0, channel=3, data=[91, 57]),
   midi.ControlChangeEvent(tick=0, channel=3, data=[10, 70]),
   midi.ControlChangeEvent(tick=0, channel=3, data=[7, 95]),
   midi.TrackNameEvent(tick=0, text='Bassoon', data=[66, 97, 115, 115, 111, 111, 110]),
   midi.NoteOnEvent(tick=11520, channel=3, data=[60, 65]),
   midi.NoteOffEvent(tick=7680, channel=3, data=[60, 0]),
   midi.NoteOnEvent(tick=0, channel=3, data=[59, 65]),
   midi.NoteOffEvent(tick=7680, channel=3, data=[59, 0]),
   midi.NoteOnEvent(tick=0, channel=3, data=[60, 65]),
   midi.NoteOffEvent(tick=1920, channel=3, data=[60, 0]),
   midi.NoteOnEvent(tick=0, channel=3, data=[59, 64]),
   midi.NoteOffEvent(tick=1920, channel=3, data=[59, 0]),
   midi.NoteOnEvent(tick=0, channel=3, data=[60, 65]),
   midi.NoteOffEvent(tick=1920, channel=3, data=[60, 0]),
   midi.NoteOnEvent(tick=0, channel=3, data=[59, 64]),
   midi.NoteOffEvent(tick=480, channel=3, data=[59, 0]),
   midi.NoteOnEvent(tick=0, channel=3, data=[59, 61]),
   midi.NoteOffEvent(tick=480, channel=3, data=[59, 0]),
   midi.NoteOnEvent(tick=0, channel=3, data=[59, 61]),
   midi.NoteOffEvent(tick=480, channel=3, data=[59, 0]),
   midi.NoteOnEvent(tick=0, channel=3, data=[59, 78]),
   midi.NoteOffEvent(tick=480, channel=3, data=[59, 0]),
   midi.NoteOnEvent(tick=0, channel=3, data=[60, 107]),
   midi.NoteOffEvent(tick=960, channel=3, data=[60, 0]),
   midi.NoteOnEvent(tick=960, channel=3, data=[44, 91]),
   midi.NoteOffEvent(tick=960, channel=3, data=[44, 0]),
   midi.NoteOnEvent(tick=960, channel=3, data=[43, 98]),
   midi.NoteOffEvent(tick=960, channel=3, data=[43, 0]),
   midi.NoteOnEvent(tick=3360, channel=3, data=[44, 113]),
   midi.NoteOffEvent(tick=480, channel=3, data=[44, 0]),
   midi.NoteOnEvent(tick=0, channel=3, data=[44, 113]),
   midi.NoteOffEvent(tick=480, channel=3, data=[44, 0]),
   midi.NoteOnEvent(tick=0, channel=3, data=[44, 113]),
   midi.NoteOffEvent(tick=480, channel=3, data=[44, 0]),
   midi.NoteOnEvent(tick=0, channel=3, data=[41, 116]),
   midi.NoteOffEvent(tick=3840, channel=3, data=[41, 0]),
   midi.NoteOnEvent(tick=21120, channel=3, data=[67, 89]),
   midi.NoteOnEvent(tick=0, channel=3, data=[63, 89]),
   midi.NoteOffEvent(tick=2880, channel=3, data=[67, 0]),
   midi.NoteOffEvent(tick=0, channel=3, data=[63, 0]),
   midi.NoteOnEvent(tick=960, channel=3, data=[59, 101]),
   midi.NoteOnEvent(tick=0, channel=3, data=[58, 102]),
   midi.NoteOffEvent(tick=960, channel=3, data=[59, 0]),
   midi.NoteOffEvent(tick=0, channel=3, data=[58, 0]),
   midi.NoteOnEvent(tick=960, channel=3, data=[58, 102]),
   midi.NoteOnEvent(tick=0, channel=3, data=[48, 99]),
   midi.NoteOffEvent(tick=960, channel=3, data=[58, 0]),
   midi.NoteOffEvent(tick=0, channel=3, data=[48, 0]),
   midi.NoteOnEvent(tick=960, channel=3, data=[56, 102]),
   midi.NoteOnEvent(tick=0, channel=3, data=[48, 102]),
   midi.NoteOffEvent(tick=960, channel=3, data=[56, 0]),
   midi.NoteOffEvent(tick=0, channel=3, data=[48, 0]),
   midi.NoteOnEvent(tick=960, channel=3, data=[52, 100]),
   midi.NoteOnEvent(tick=0, channel=3, data=[48, 103]),
   midi.NoteOffEvent(tick=960, channel=3, data=[52, 0]),
   midi.NoteOffEvent(tick=0, channel=3, data=[48, 0]),
   midi.NoteOnEvent(tick=960, channel=3, data=[53, 103]),
   midi.NoteOnEvent(tick=0, channel=3, data=[48, 104]),
   midi.NoteOffEvent(tick=960, channel=3, data=[53, 0]),
   midi.NoteOffEvent(tick=0, channel=3, data=[48, 0]),
   midi.NoteOnEvent(tick=960, channel=3, data=[60, 110]),
   midi.NoteOnEvent(tick=0, channel=3, data=[48, 104]),
   midi.NoteOffEvent(tick=960, channel=3, data=[60, 0]),
   midi.NoteOffEvent(tick=0, channel=3, data=[48, 0]),
   midi.NoteOnEvent(tick=960, channel=3, data=[51, 99]),
   midi.NoteOnEvent(tick=0, channel=3, data=[48, 104]),
   midi.NoteOffEvent(tick=7680, channel=3, data=[51, 0]),
   midi.NoteOffEvent(tick=0, channel=3, data=[48, 0]),
   midi.NoteOnEvent(tick=0, channel=3, data=[50, 104]),
   midi.NoteOnEvent(tick=0, channel=3, data=[47, 104]),
   midi.NoteOffEvent(tick=6720, channel=3, data=[50, 0]),
   midi.NoteOffEvent(tick=0, channel=3, data=[47, 0]),
   midi.NoteOnEvent(tick=0, channel=3, data=[48, 98]),
   midi.NoteOnEvent(tick=0, channel=3, data=[51, 98]),
   midi.NoteOffEvent(tick=960, channel=3, data=[48, 0]),
   midi.NoteOffEvent(tick=0, channel=3, data=[51, 0]),
   midi.NoteOnEvent(tick=0, channel=3, data=[57, 125]),
   midi.NoteOnEvent(tick=0, channel=3, data=[51, 120]),
   midi.NoteOffEvent(tick=7680, channel=3, data=[57, 0]),
   midi.NoteOffEvent(tick=0, channel=3, data=[51, 0]),
   midi.NoteOnEvent(tick=0, channel=3, data=[57, 120]),
   midi.NoteOnEvent(tick=0, channel=3, data=[51, 120]),
   midi.NoteOffEvent(tick=960, channel=3, data=[57, 0]),
   midi.NoteOffEvent(tick=0, channel=3, data=[51, 0]),
   midi.NoteOnEvent(tick=2880, channel=3, data=[53, 119]),
   midi.NoteOnEvent(tick=0, channel=3, data=[50, 120]),
   midi.NoteOffEvent(tick=960, channel=3, data=[53, 0]),
   midi.NoteOffEvent(tick=0, channel=3, data=[50, 0]),
   midi.NoteOnEvent(tick=16320, channel=3, data=[58, 65]),
   midi.NoteOnEvent(tick=0, channel=3, data=[55, 65]),
   midi.NoteOnEvent(tick=1920, channel=3, data=[56, 64]),
   midi.NoteOnEvent(tick=0, channel=3, data=[53, 64]),
   midi.NoteOffEvent(tick=75, channel=3, data=[58, 0]),
   midi.NoteOffEvent(tick=0, channel=3, data=[55, 0]),
   midi.NoteOffEvent(tick=1654, channel=3, data=[56, 0]),
   midi.NoteOffEvent(tick=0, channel=3, data=[53, 0]),
   midi.NoteOnEvent(tick=191, channel=3, data=[53, 63]),
   midi.NoteOnEvent(tick=0, channel=3, data=[46, 62]),
   midi.NoteOnEvent(tick=1920, channel=3, data=[55, 65]),
   midi.NoteOnEvent(tick=0, channel=3, data=[51, 66]),
   midi.NoteOffEvent(tick=75, channel=3, data=[53, 0]),
   midi.NoteOffEvent(tick=0, channel=3, data=[46, 0]),
   midi.NoteOffEvent(tick=1654, channel=3, data=[55, 0]),
   midi.NoteOffEvent(tick=0, channel=3, data=[51, 0]),
   midi.NoteOnEvent(tick=191, channel=3, data=[58, 67]),
   midi.NoteOnEvent(tick=0, channel=3, data=[55, 68]),
   midi.NoteOnEvent(tick=1920, channel=3, data=[56, 64]),
   midi.NoteOnEvent(tick=0, channel=3, data=[53, 65]),
   midi.NoteOffEvent(tick=75, channel=3, data=[58, 0]),
   midi.NoteOffEvent(tick=0, channel=3, data=[55, 0]),
   midi.NoteOffEvent(tick=1654, channel=3, data=[56, 0]),
   midi.NoteOffEvent(tick=0, channel=3, data=[53, 0]),
   midi.NoteOnEvent(tick=191, channel=3, data=[53, 63]),
   midi.NoteOnEvent(tick=0, channel=3, data=[46, 62]),
   midi.NoteOnEvent(tick=1920, channel=3, data=[55, 65]),
   midi.NoteOnEvent(tick=0, channel=3, data=[51, 66]),
   midi.NoteOffEvent(tick=75, channel=3, data=[53, 0]),
   midi.NoteOffEvent(tick=0, channel=3, data=[46, 0]),
   midi.NoteOffEvent(tick=1654, channel=3, data=[55, 0]),
   midi.NoteOffEvent(tick=0, channel=3, data=[51, 0]),
   midi.NoteOnEvent(tick=191, channel=3, data=[58, 67]),
   midi.NoteOnEvent(tick=0, channel=3, data=[55, 68]),
   midi.NoteOffEvent(tick=1920, channel=3, data=[55, 0]),
   midi.NoteOnEvent(tick=0, channel=3, data=[55, 64]),
   midi.NoteOnEvent(tick=0, channel=3, data=[52, 64]),
   midi.NoteOffEvent(tick=75, channel=3, data=[58, 0]),
   midi.NoteOffEvent(tick=1654, channel=3, data=[55, 0]),
   midi.NoteOffEvent(tick=0, channel=3, data=[52, 0]),
   midi.NoteOnEvent(tick=191, channel=3, data=[52, 63]),
   midi.NoteOnEvent(tick=0, channel=3, data=[48, 63]),
   midi.NoteOnEvent(tick=1920, channel=3, data=[56, 66]),
   midi.NoteOnEvent(tick=0, channel=3, data=[53, 66]),
   midi.NoteOffEvent(tick=75, channel=3, data=[52, 0]),
   midi.NoteOffEvent(tick=0, channel=3, data=[48, 0]),
   midi.NoteOffEvent(tick=1654, channel=3, data=[56, 0]),
   midi.NoteOffEvent(tick=0, channel=3, data=[53, 0]),
   midi.NoteOnEvent(tick=191, channel=3, data=[61, 68]),
   midi.NoteOnEvent(tick=0, channel=3, data=[56, 67]),
   midi.NoteOnEvent(tick=1920, channel=3, data=[58, 64]),
   midi.NoteOnEvent(tick=0, channel=3, data=[55, 65]),
   midi.NoteOffEvent(tick=75, channel=3, data=[61, 0]),
   midi.NoteOffEvent(tick=0, channel=3, data=[56, 0]),
   midi.NoteOffEvent(tick=1654, channel=3, data=[58, 0]),
   midi.NoteOffEvent(tick=0, channel=3, data=[55, 0]),
   midi.NoteOnEvent(tick=191, channel=3, data=[55, 62]),
   midi.NoteOnEvent(tick=0, channel=3, data=[51, 63]),
   midi.NoteOnEvent(tick=1920, channel=3, data=[60, 67]),
   midi.NoteOnEvent(tick=0, channel=3, data=[56, 67]),
   midi.NoteOffEvent(tick=75, channel=3, data=[55, 0]),
   midi.NoteOffEvent(tick=0, channel=3, data=[51, 0]),
   midi.NoteOffEvent(tick=1654, channel=3, data=[60, 0]),
   midi.NoteOffEvent(tick=0, channel=3, data=[56, 0]),
   midi.NoteOnEvent(tick=191, channel=3, data=[56, 63]),
   midi.NoteOnEvent(tick=0, channel=3, data=[44, 61]),
   midi.NoteOffEvent(tick=1920, channel=3, data=[56, 0]),
   midi.NoteOffEvent(tick=0, channel=3, data=[44, 0]),
   midi.NoteOnEvent(tick=0, channel=3, data=[57, 75]),
   midi.NoteOnEvent(tick=0, channel=3, data=[45, 63]),
   midi.NoteOffEvent(tick=3840, channel=3, data=[57, 0]),
   midi.NoteOffEvent(tick=0, channel=3, data=[45, 0]),
   midi.NoteOnEvent(tick=0, channel=3, data=[58, 76]),
   midi.NoteOnEvent(tick=0, channel=3, data=[46, 65]),
   midi.NoteOffEvent(tick=3840, channel=3, data=[58, 0]),
   midi.NoteOffEvent(tick=0, channel=3, data=[46, 0]),
   midi.NoteOnEvent(tick=0, channel=3, data=[59, 89]),
   midi.NoteOnEvent(tick=0, channel=3, data=[47, 89]),
   midi.NoteOffEvent(tick=3840, channel=3, data=[59, 0]),
   midi.NoteOffEvent(tick=0, channel=3, data=[47, 0]),
   midi.NoteOnEvent(tick=0, channel=3, data=[60, 89]),
   midi.NoteOnEvent(tick=0, channel=3, data=[48, 89]),
   midi.NoteOffEvent(tick=4800, channel=3, data=[60, 0]),
   midi.NoteOffEvent(tick=0, channel=3, data=[48, 0]),
   midi.NoteOnEvent(tick=0, channel=3, data=[60, 84]),
   midi.NoteOnEvent(tick=0, channel=3, data=[48, 84]),
   midi.NoteOffEvent(tick=960, channel=3, data=[60, 0]),
   midi.NoteOffEvent(tick=0, channel=3, data=[48, 0]),
   midi.NoteOnEvent(tick=0, channel=3, data=[60, 89]),
   midi.NoteOnEvent(tick=0, channel=3, data=[48, 89]),
   midi.NoteOffEvent(tick=960, channel=3, data=[60, 0]),
   midi.NoteOffEvent(tick=0, channel=3, data=[48, 0]),
   midi.NoteOnEvent(tick=0, channel=3, data=[60, 84]),
   midi.NoteOnEvent(tick=0, channel=3, data=[48, 84]),
   midi.NoteOffEvent(tick=960, channel=3, data=[60, 0]),
   midi.NoteOffEvent(tick=0, channel=3, data=[48, 0]),
   midi.NoteOnEvent(tick=0, channel=3, data=[62, 124]),
   midi.NoteOnEvent(tick=0, channel=3, data=[50, 123]),
   midi.NoteOffEvent(tick=2880, channel=3, data=[62, 0]),
   midi.NoteOffEvent(tick=0, channel=3, data=[50, 0]),
   midi.NoteOnEvent(tick=0, channel=3, data=[53, 105]),
   midi.NoteOnEvent(tick=0, channel=3, data=[50, 114]),
   midi.NoteOffEvent(tick=960, channel=3, data=[53, 0]),
   midi.NoteOffEvent(tick=0, channel=3, data=[50, 0]),
   midi.NoteOnEvent(tick=0, channel=3, data=[55, 117]),
   midi.NoteOnEvent(tick=0, channel=3, data=[51, 122]),
   midi.NoteOffEvent(tick=960, channel=3, data=[55, 0]),
   midi.NoteOffEvent(tick=0, channel=3, data=[51, 0]),
   midi.NoteOnEvent(tick=960, channel=3, data=[56, 121]),
   midi.NoteOnEvent(tick=0, channel=3, data=[53, 123]),
   midi.NoteOffEvent(tick=960, channel=3, data=[56, 0]),
   midi.NoteOffEvent(tick=0, channel=3, data=[53, 0]),
   midi.NoteOnEvent(tick=960, channel=3, data=[58, 123]),
   midi.NoteOnEvent(tick=0, channel=3, data=[55, 124]),
   midi.NoteOffEvent(tick=960, channel=3, data=[58, 0]),
   midi.NoteOffEvent(tick=0, channel=3, data=[55, 0]),
   midi.NoteOnEvent(tick=960, channel=3, data=[60, 123]),
   midi.NoteOnEvent(tick=0, channel=3, data=[56, 122]),
   midi.NoteOffEvent(tick=960, channel=3, data=[60, 0]),
   midi.NoteOffEvent(tick=0, channel=3, data=[56, 0]),
   midi.NoteOnEvent(tick=960, channel=3, data=[58, 119]),
   midi.NoteOffEvent(tick=960, channel=3, data=[58, 0]),
   midi.NoteOnEvent(tick=960, channel=3, data=[46, 111]),
   midi.NoteOffEvent(tick=960, channel=3, data=[46, 0]),
   midi.NoteOnEvent(tick=960, channel=3, data=[68, 127]),
   midi.NoteOnEvent(tick=0, channel=3, data=[65, 121]),
   midi.NoteOffEvent(tick=2880, channel=3, data=[68, 0]),
   midi.NoteOffEvent(tick=0, channel=3, data=[65, 0]),
   midi.NoteOnEvent(tick=0, channel=3, data=[65, 114]),
   midi.NoteOnEvent(tick=0, channel=3, data=[58, 110]),
   midi.NoteOffEvent(tick=960, channel=3, data=[65, 0]),
   midi.NoteOffEvent(tick=0, channel=3, data=[58, 0]),
   midi.NoteOnEvent(tick=0, channel=3, data=[67, 123]),
   midi.NoteOnEvent(tick=0, channel=3, data=[63, 123]),
   midi.NoteOffEvent(tick=960, channel=3, data=[67, 0]),
   midi.NoteOffEvent(tick=0, channel=3, data=[63, 0]),
   midi.NoteOnEvent(tick=0, channel=3, data=[67, 115]),
   midi.NoteOnEvent(tick=0, channel=3, data=[63, 116]),
   midi.NoteOffEvent(tick=960, channel=3, data=[67, 0]),
   midi.NoteOffEvent(tick=0, channel=3, data=[63, 0]),
   midi.NoteOnEvent(tick=960, channel=3, data=[62, 106]),
   midi.NoteOnEvent(tick=0, channel=3, data=[58, 107]),
   midi.NoteOffEvent(tick=960, channel=3, data=[62, 0]),
   midi.NoteOffEvent(tick=0, channel=3, data=[58, 0]),
   midi.NoteOnEvent(tick=960, channel=3, data=[63, 111]),
   midi.NoteOnEvent(tick=0, channel=3, data=[58, 110]),
   midi.NoteOffEvent(tick=960, channel=3, data=[63, 0]),
   midi.NoteOffEvent(tick=0, channel=3, data=[58, 0]),
   midi.NoteOnEvent(tick=960, channel=3, data=[60, 109]),
   midi.NoteOnEvent(tick=0, channel=3, data=[56, 110]),
   midi.NoteOffEvent(tick=960, channel=3, data=[60, 0]),
   midi.NoteOffEvent(tick=0, channel=3, data=[56, 0]),
   midi.NoteOnEvent(tick=960, channel=3, data=[58, 110]),
   midi.NoteOnEvent(tick=0, channel=3, data=[55, 111]),
   midi.NoteOffEvent(tick=960, channel=3, data=[58, 0]),
   midi.NoteOffEvent(tick=0, channel=3, data=[55, 0]),
   midi.NoteOnEvent(tick=960, channel=3, data=[58, 112]),
   midi.NoteOnEvent(tick=0, channel=3, data=[46, 107]),
   midi.NoteOffEvent(tick=960, channel=3, data=[58, 0]),
   midi.NoteOffEvent(tick=0, channel=3, data=[46, 0]),
   midi.NoteOnEvent(tick=0, channel=3, data=[63, 127]),
   midi.NoteOnEvent(tick=0, channel=3, data=[51, 121]),
   midi.NoteOffEvent(tick=480, channel=3, data=[63, 0]),
   midi.NoteOffEvent(tick=0, channel=3, data=[51, 0]),
   midi.NoteOnEvent(tick=0, channel=3, data=[67, 126]),
   midi.NoteOffEvent(tick=480, channel=3, data=[67, 0]),
   midi.NoteOnEvent(tick=0, channel=3, data=[67, 125]),
   midi.NoteOffEvent(tick=480, channel=3, data=[67, 0]),
   midi.NoteOnEvent(tick=0, channel=3, data=[67, 123]),
   midi.NoteOffEvent(tick=480, channel=3, data=[67, 0]),
   midi.NoteOnEvent(tick=0, channel=3, data=[63, 113]),
   midi.NoteOffEvent(tick=480, channel=3, data=[63, 0]),
   midi.NoteOnEvent(tick=0, channel=3, data=[58, 96]),
   midi.NoteOffEvent(tick=480, channel=3, data=[58, 0]),
   midi.NoteOnEvent(tick=0, channel=3, data=[58, 96]),
   midi.NoteOffEvent(tick=480, channel=3, data=[58, 0]),
   midi.NoteOnEvent(tick=0, channel=3, data=[58, 97]),
   midi.NoteOffEvent(tick=480, channel=3, data=[58, 0]),
   midi.NoteOnEvent(tick=0, channel=3, data=[55, 102]),
   midi.NoteOffEvent(tick=480, channel=3, data=[55, 0]),
   midi.NoteOnEvent(tick=0, channel=3, data=[51, 96]),
   midi.NoteOffEvent(tick=480, channel=3, data=[51, 0]),
   midi.NoteOnEvent(tick=0, channel=3, data=[51, 96]),
   midi.NoteOffEvent(tick=480, channel=3, data=[51, 0]),
   midi.NoteOnEvent(tick=0, channel=3, data=[51, 96]),
   midi.NoteOffEvent(tick=480, channel=3, data=[51, 0]),
   midi.NoteOnEvent(tick=0, channel=3, data=[46, 102]),
   midi.NoteOffEvent(tick=2400, channel=3, data=[46, 0]),
   midi.NoteOnEvent(tick=0, channel=3, data=[67, 127]),
   midi.NoteOffEvent(tick=480, channel=3, data=[67, 0]),
   midi.NoteOnEvent(tick=0, channel=3, data=[67, 127]),
   midi.NoteOffEvent(tick=480, channel=3, data=[67, 0]),
   midi.NoteOnEvent(tick=0, channel=3, data=[67, 127]),
   midi.NoteOffEvent(tick=480, channel=3, data=[67, 0]),
   midi.NoteOnEvent(tick=0, channel=3, data=[63, 123]),
   midi.NoteOffEvent(tick=480, channel=3, data=[63, 0]),
   midi.NoteOnEvent(tick=0, channel=3, data=[58, 99]),
   midi.NoteOffEvent(tick=480, channel=3, data=[58, 0]),
   midi.NoteOnEvent(tick=0, channel=3, data=[58, 100]),
   midi.NoteOffEvent(tick=480, channel=3, data=[58, 0]),
   midi.NoteOnEvent(tick=0, channel=3, data=[58, 100]),
   midi.NoteOffEvent(tick=480, channel=3, data=[58, 0]),
   midi.NoteOnEvent(tick=0, channel=3, data=[55, 102]),
   midi.NoteOffEvent(tick=480, channel=3, data=[55, 0]),
   midi.NoteOnEvent(tick=0, channel=3, data=[51, 96]),
   midi.NoteOffEvent(tick=480, channel=3, data=[51, 0]),
   midi.NoteOnEvent(tick=0, channel=3, data=[51, 96]),
   midi.NoteOffEvent(tick=480, channel=3, data=[51, 0]),
   midi.NoteOnEvent(tick=0, channel=3, data=[51, 96]),
   midi.NoteOffEvent(tick=480, channel=3, data=[51, 0]),
   midi.NoteOnEvent(tick=0, channel=3, data=[46, 102]),
   midi.NoteOffEvent(tick=2880, channel=3, data=[46, 0]),
   midi.NoteOnEvent(tick=1440, channel=3, data=[62, 122]),
   midi.NoteOnEvent(tick=0, channel=3, data=[58, 113]),
   midi.NoteOffEvent(tick=480, channel=3, data=[62, 0]),
   midi.NoteOffEvent(tick=0, channel=3, data=[58, 0]),
   midi.NoteOnEvent(tick=0, channel=3, data=[62, 120]),
   midi.NoteOnEvent(tick=0, channel=3, data=[58, 113]),
   midi.NoteOffEvent(tick=480, channel=3, data=[62, 0]),
   midi.NoteOffEvent(tick=0, channel=3, data=[58, 0]),
   midi.NoteOnEvent(tick=0, channel=3, data=[62, 118]),
   midi.NoteOnEvent(tick=0, channel=3, data=[58, 113]),
   midi.NoteOffEvent(tick=480, channel=3, data=[62, 0]),
   midi.NoteOffEvent(tick=0, channel=3, data=[58, 0]),
   midi.NoteOnEvent(tick=0, channel=3, data=[63, 126]),
   midi.NoteOnEvent(tick=0, channel=3, data=[58, 120]),
   midi.NoteOffEvent(tick=960, channel=3, data=[63, 0]),
   midi.NoteOffEvent(tick=0, channel=3, data=[58, 0]),
   midi.NoteOnEvent(tick=1440, channel=3, data=[46, 101]),
   midi.NoteOffEvent(tick=480, channel=3, data=[46, 0]),
   midi.NoteOnEvent(tick=0, channel=3, data=[46, 103]),
   midi.NoteOffEvent(tick=480, channel=3, data=[46, 0]),
   midi.NoteOnEvent(tick=0, channel=3, data=[46, 104]),
   midi.NoteOffEvent(tick=480, channel=3, data=[46, 0]),
   midi.NoteOnEvent(tick=0, channel=3, data=[51, 121]),
   midi.NoteOffEvent(tick=960, channel=3, data=[51, 0]),
   midi.NoteOnEvent(tick=16320, channel=3, data=[60, 65]),
   midi.NoteOffEvent(tick=7680, channel=3, data=[60, 0]),
   midi.NoteOnEvent(tick=0, channel=3, data=[59, 65]),
   midi.NoteOffEvent(tick=7680, channel=3, data=[59, 0]),
   midi.NoteOnEvent(tick=0, channel=3, data=[60, 65]),
   midi.NoteOffEvent(tick=1920, channel=3, data=[60, 0]),
   midi.NoteOnEvent(tick=0, channel=3, data=[59, 64]),
   midi.NoteOffEvent(tick=1920, channel=3, data=[59, 0]),
   midi.NoteOnEvent(tick=0, channel=3, data=[60, 65]),
   midi.NoteOffEvent(tick=1920, channel=3, data=[60, 0]),
   midi.NoteOnEvent(tick=0, channel=3, data=[59, 64]),
   midi.NoteOffEvent(tick=480, channel=3, data=[59, 0]),
   midi.NoteOnEvent(tick=0, channel=3, data=[59, 61]),
   midi.NoteOffEvent(tick=480, channel=3, data=[59, 0]),
   midi.NoteOnEvent(tick=0, channel=3, data=[59, 61]),
   midi.NoteOffEvent(tick=480, channel=3, data=[59, 0]),
   midi.NoteOnEvent(tick=0, channel=3, data=[59, 78]),
   midi.NoteOffEvent(tick=480, channel=3, data=[59, 0]),
   midi.NoteOnEvent(tick=0, channel=3, data=[60, 107]),
   midi.NoteOffEvent(tick=960, channel=3, data=[60, 0]),
   midi.NoteOnEvent(tick=960, channel=3, data=[44, 91]),
   midi.NoteOffEvent(tick=960, channel=3, data=[44, 0]),
   midi.NoteOnEvent(tick=960, channel=3, data=[43, 98]),
   midi.NoteOffEvent(tick=960, channel=3, data=[43, 0]),
   midi.NoteOnEvent(tick=3360, channel=3, data=[44, 113]),
   midi.NoteOffEvent(tick=480, channel=3, data=[44, 0]),
   midi.NoteOnEvent(tick=0, channel=3, data=[44, 113]),
   midi.NoteOffEvent(tick=480, channel=3, data=[44, 0]),
   midi.NoteOnEvent(tick=0, channel=3, data=[44, 113]),
   midi.NoteOffEvent(tick=480, channel=3, data=[44, 0]),
   midi.NoteOnEvent(tick=0, channel=3, data=[41, 116]),
   midi.NoteOffEvent(tick=3840, channel=3, data=[41, 0]),
   midi.NoteOnEvent(tick=21120, channel=3, data=[67, 89]),
   midi.NoteOnEvent(tick=0, channel=3, data=[63, 89]),
   midi.NoteOffEvent(tick=2880, channel=3, data=[67, 0]),
   midi.NoteOffEvent(tick=0, channel=3, data=[63, 0]),
   midi.NoteOnEvent(tick=960, channel=3, data=[59, 101]),
   midi.NoteOnEvent(tick=0, channel=3, data=[58, 102]),
   midi.NoteOffEvent(tick=960, channel=3, data=[59, 0]),
   midi.NoteOffEvent(tick=0, channel=3, data=[58, 0]),
   midi.NoteOnEvent(tick=960, channel=3, data=[58, 102]),
   midi.NoteOnEvent(tick=0, channel=3, data=[48, 99]),
   midi.NoteOffEvent(tick=960, channel=3, data=[58, 0]),
   midi.NoteOffEvent(tick=0, channel=3, data=[48, 0]),
   midi.NoteOnEvent(tick=960, channel=3, data=[56, 102]),
   midi.NoteOnEvent(tick=0, channel=3, data=[48, 102]),
   midi.NoteOffEvent(tick=960, channel=3, data=[56, 0]),
   midi.NoteOffEvent(tick=0, channel=3, data=[48, 0]),
   midi.NoteOnEvent(tick=960, channel=3, data=[52, 100]),
   midi.NoteOnEvent(tick=0, channel=3, data=[48, 103]),
   midi.NoteOffEvent(tick=960, channel=3, data=[52, 0]),
   midi.NoteOffEvent(tick=0, channel=3, data=[48, 0]),
   midi.NoteOnEvent(tick=960, channel=3, data=[53, 103]),
   midi.NoteOnEvent(tick=0, channel=3, data=[48, 104]),
   midi.NoteOffEvent(tick=960, channel=3, data=[53, 0]),
   midi.NoteOffEvent(tick=0, channel=3, data=[48, 0]),
   midi.NoteOnEvent(tick=960, channel=3, data=[60, 110]),
   midi.NoteOnEvent(tick=0, channel=3, data=[48, 104]),
   midi.NoteOffEvent(tick=960, channel=3, data=[60, 0]),
   midi.NoteOffEvent(tick=0, channel=3, data=[48, 0]),
   midi.NoteOnEvent(tick=960, channel=3, data=[51, 99]),
   midi.NoteOnEvent(tick=0, channel=3, data=[48, 104]),
   midi.NoteOffEvent(tick=7680, channel=3, data=[51, 0]),
   midi.NoteOffEvent(tick=0, channel=3, data=[48, 0]),
   midi.NoteOnEvent(tick=0, channel=3, data=[50, 104]),
   midi.NoteOnEvent(tick=0, channel=3, data=[47, 104]),
   midi.NoteOffEvent(tick=6720, channel=3, data=[50, 0]),
   midi.NoteOffEvent(tick=0, channel=3, data=[47, 0]),
   midi.NoteOnEvent(tick=0, channel=3, data=[48, 98]),
   midi.NoteOnEvent(tick=0, channel=3, data=[51, 98]),
   midi.NoteOffEvent(tick=960, channel=3, data=[48, 0]),
   midi.NoteOffEvent(tick=0, channel=3, data=[51, 0]),
   midi.NoteOnEvent(tick=0, channel=3, data=[57, 125]),
   midi.NoteOnEvent(tick=0, channel=3, data=[51, 120]),
   midi.NoteOffEvent(tick=7680, channel=3, data=[57, 0]),
   midi.NoteOffEvent(tick=0, channel=3, data=[51, 0]),
   midi.NoteOnEvent(tick=0, channel=3, data=[57, 120]),
   midi.NoteOnEvent(tick=0, channel=3, data=[51, 120]),
   midi.NoteOffEvent(tick=960, channel=3, data=[57, 0]),
   midi.NoteOffEvent(tick=0, channel=3, data=[51, 0]),
   midi.NoteOnEvent(tick=2880, channel=3, data=[53, 119]),
   midi.NoteOnEvent(tick=0, channel=3, data=[50, 120]),
   midi.NoteOffEvent(tick=960, channel=3, data=[53, 0]),
   midi.NoteOffEvent(tick=0, channel=3, data=[50, 0]),
   midi.NoteOnEvent(tick=16320, channel=3, data=[58, 65]),
   midi.NoteOnEvent(tick=0, channel=3, data=[55, 65]),
   midi.NoteOnEvent(tick=1920, channel=3, data=[56, 64]),
   midi.NoteOnEvent(tick=0, channel=3, data=[53, 64]),
   midi.NoteOffEvent(tick=75, channel=3, data=[58, 0]),
   midi.NoteOffEvent(tick=0, channel=3, data=[55, 0]),
   midi.NoteOffEvent(tick=1654, channel=3, data=[56, 0]),
   midi.NoteOffEvent(tick=0, channel=3, data=[53, 0]),
   midi.NoteOnEvent(tick=191, channel=3, data=[53, 63]),
   midi.NoteOnEvent(tick=0, channel=3, data=[46, 62]),
   midi.NoteOnEvent(tick=1920, channel=3, data=[55, 65]),
   midi.NoteOnEvent(tick=0, channel=3, data=[51, 66]),
   midi.NoteOffEvent(tick=75, channel=3, data=[53, 0]),
   midi.NoteOffEvent(tick=0, channel=3, data=[46, 0]),
   midi.NoteOffEvent(tick=1654, channel=3, data=[55, 0]),
   midi.NoteOffEvent(tick=0, channel=3, data=[51, 0]),
   midi.NoteOnEvent(tick=191, channel=3, data=[58, 67]),
   midi.NoteOnEvent(tick=0, channel=3, data=[55, 68]),
   midi.NoteOnEvent(tick=1920, channel=3, data=[56, 64]),
   midi.NoteOnEvent(tick=0, channel=3, data=[53, 65]),
   midi.NoteOffEvent(tick=75, channel=3, data=[58, 0]),
   midi.NoteOffEvent(tick=0, channel=3, data=[55, 0]),
   midi.NoteOffEvent(tick=1654, channel=3, data=[56, 0]),
   midi.NoteOffEvent(tick=0, channel=3, data=[53, 0]),
   midi.NoteOnEvent(tick=191, channel=3, data=[53, 63]),
   midi.NoteOnEvent(tick=0, channel=3, data=[46, 62]),
   midi.NoteOnEvent(tick=1920, channel=3, data=[55, 65]),
   midi.NoteOnEvent(tick=0, channel=3, data=[51, 66]),
   midi.NoteOffEvent(tick=75, channel=3, data=[53, 0]),
   midi.NoteOffEvent(tick=0, channel=3, data=[46, 0]),
   midi.NoteOffEvent(tick=1654, channel=3, data=[55, 0]),
   midi.NoteOffEvent(tick=0, channel=3, data=[51, 0]),
   midi.NoteOnEvent(tick=191, channel=3, data=[58, 67]),
   midi.NoteOnEvent(tick=0, channel=3, data=[55, 68]),
   midi.NoteOffEvent(tick=1920, channel=3, data=[55, 0]),
   midi.NoteOnEvent(tick=0, channel=3, data=[55, 64]),
   midi.NoteOnEvent(tick=0, channel=3, data=[52, 64]),
   midi.NoteOffEvent(tick=75, channel=3, data=[58, 0]),
   midi.NoteOffEvent(tick=1654, channel=3, data=[55, 0]),
   midi.NoteOffEvent(tick=0, channel=3, data=[52, 0]),
   midi.NoteOnEvent(tick=191, channel=3, data=[52, 63]),
   midi.NoteOnEvent(tick=0, channel=3, data=[48, 63]),
   midi.NoteOnEvent(tick=1920, channel=3, data=[56, 66]),
   midi.NoteOnEvent(tick=0, channel=3, data=[53, 66]),
   midi.NoteOffEvent(tick=75, channel=3, data=[52, 0]),
   midi.NoteOffEvent(tick=0, channel=3, data=[48, 0]),
   midi.NoteOffEvent(tick=1654, channel=3, data=[56, 0]),
   midi.NoteOffEvent(tick=0, channel=3, data=[53, 0]),
   midi.NoteOnEvent(tick=191, channel=3, data=[61, 68]),
   midi.NoteOnEvent(tick=0, channel=3, data=[56, 67]),
   midi.NoteOnEvent(tick=1920, channel=3, data=[58, 64]),
   midi.NoteOnEvent(tick=0, channel=3, data=[55, 65]),
   midi.NoteOffEvent(tick=75, channel=3, data=[61, 0]),
   midi.NoteOffEvent(tick=0, channel=3, data=[56, 0]),
   midi.NoteOffEvent(tick=1654, channel=3, data=[58, 0]),
   midi.NoteOffEvent(tick=0, channel=3, data=[55, 0]),
   midi.NoteOnEvent(tick=191, channel=3, data=[55, 62]),
   midi.NoteOnEvent(tick=0, channel=3, data=[51, 63]),
   midi.NoteOnEvent(tick=1920, channel=3, data=[60, 67]),
   midi.NoteOnEvent(tick=0, channel=3, data=[56, 67]),
   midi.NoteOffEvent(tick=75, channel=3, data=[55, 0]),
   midi.NoteOffEvent(tick=0, channel=3, data=[51, 0]),
   midi.NoteOffEvent(tick=1654, channel=3, data=[60, 0]),
   midi.NoteOffEvent(tick=0, channel=3, data=[56, 0]),
   midi.NoteOnEvent(tick=191, channel=3, data=[56, 63]),
   midi.NoteOnEvent(tick=0, channel=3, data=[44, 61]),
   midi.NoteOffEvent(tick=1920, channel=3, data=[56, 0]),
   midi.NoteOffEvent(tick=0, channel=3, data=[44, 0]),
   midi.NoteOnEvent(tick=0, channel=3, data=[57, 75]),
   midi.NoteOnEvent(tick=0, channel=3, data=[45, 63]),
   midi.NoteOffEvent(tick=3840, channel=3, data=[57, 0]),
   midi.NoteOffEvent(tick=0, channel=3, data=[45, 0]),
   midi.NoteOnEvent(tick=0, channel=3, data=[58, 76]),
   midi.NoteOnEvent(tick=0, channel=3, data=[46, 65]),
   midi.NoteOffEvent(tick=3840, channel=3, data=[58, 0]),
   midi.NoteOffEvent(tick=0, channel=3, data=[46, 0]),
   midi.NoteOnEvent(tick=0, channel=3, data=[59, 89]),
   midi.NoteOnEvent(tick=0, channel=3, data=[47, 89]),
   midi.NoteOffEvent(tick=3840, channel=3, data=[59, 0]),
   midi.NoteOffEvent(tick=0, channel=3, data=[47, 0]),
   midi.NoteOnEvent(tick=0, channel=3, data=[60, 89]),
   midi.NoteOnEvent(tick=0, channel=3, data=[48, 89]),
   midi.NoteOffEvent(tick=4800, channel=3, data=[60, 0]),
   midi.NoteOffEvent(tick=0, channel=3, data=[48, 0]),
   midi.NoteOnEvent(tick=0, channel=3, data=[60, 84]),
   midi.NoteOnEvent(tick=0, channel=3, data=[48, 84]),
   midi.NoteOffEvent(tick=960, channel=3, data=[60, 0]),
   midi.NoteOffEvent(tick=0, channel=3, data=[48, 0]),
   midi.NoteOnEvent(tick=0, channel=3, data=[60, 89]),
   midi.NoteOnEvent(tick=0, channel=3, data=[48, 89]),
   midi.NoteOffEvent(tick=960, channel=3, data=[60, 0]),
   midi.NoteOffEvent(tick=0, channel=3, data=[48, 0]),
   midi.NoteOnEvent(tick=0, channel=3, data=[60, 84]),
   midi.NoteOnEvent(tick=0, channel=3, data=[48, 84]),
   midi.NoteOffEvent(tick=960, channel=3, data=[60, 0]),
   midi.NoteOffEvent(tick=0, channel=3, data=[48, 0]),
   midi.NoteOnEvent(tick=0, channel=3, data=[62, 124]),
   midi.NoteOnEvent(tick=0, channel=3, data=[50, 123]),
   midi.NoteOffEvent(tick=2880, channel=3, data=[62, 0]),
   midi.NoteOffEvent(tick=0, channel=3, data=[50, 0]),
   midi.NoteOnEvent(tick=0, channel=3, data=[53, 105]),
   midi.NoteOnEvent(tick=0, channel=3, data=[50, 114]),
   midi.NoteOffEvent(tick=960, channel=3, data=[53, 0]),
   midi.NoteOffEvent(tick=0, channel=3, data=[50, 0]),
   midi.NoteOnEvent(tick=0, channel=3, data=[55, 117]),
   midi.NoteOnEvent(tick=0, channel=3, data=[51, 122]),
   midi.NoteOffEvent(tick=960, channel=3, data=[55, 0]),
   midi.NoteOffEvent(tick=0, channel=3, data=[51, 0]),
   midi.NoteOnEvent(tick=960, channel=3, data=[56, 121]),
   midi.NoteOnEvent(tick=0, channel=3, data=[53, 123]),
   midi.NoteOffEvent(tick=960, channel=3, data=[56, 0]),
   midi.NoteOffEvent(tick=0, channel=3, data=[53, 0]),
   midi.NoteOnEvent(tick=960, channel=3, data=[58, 123]),
   midi.NoteOnEvent(tick=0, channel=3, data=[55, 124]),
   midi.NoteOffEvent(tick=960, channel=3, data=[58, 0]),
   midi.NoteOffEvent(tick=0, channel=3, data=[55, 0]),
   midi.NoteOnEvent(tick=960, channel=3, data=[60, 123]),
   midi.NoteOnEvent(tick=0, channel=3, data=[56, 122]),
   midi.NoteOffEvent(tick=960, channel=3, data=[60, 0]),
   midi.NoteOffEvent(tick=0, channel=3, data=[56, 0]),
   midi.NoteOnEvent(tick=960, channel=3, data=[58, 119]),
   midi.NoteOffEvent(tick=960, channel=3, data=[58, 0]),
   midi.NoteOnEvent(tick=960, channel=3, data=[46, 111]),
   midi.NoteOffEvent(tick=960, channel=3, data=[46, 0]),
   midi.NoteOnEvent(tick=960, channel=3, data=[68, 127]),
   midi.NoteOnEvent(tick=0, channel=3, data=[65, 121]),
   midi.NoteOffEvent(tick=2880, channel=3, data=[68, 0]),
   midi.NoteOffEvent(tick=0, channel=3, data=[65, 0]),
   midi.NoteOnEvent(tick=0, channel=3, data=[65, 114]),
   midi.NoteOnEvent(tick=0, channel=3, data=[58, 110]),
   midi.NoteOffEvent(tick=960, channel=3, data=[65, 0]),
   midi.NoteOffEvent(tick=0, channel=3, data=[58, 0]),
   midi.NoteOnEvent(tick=0, channel=3, data=[67, 123]),
   midi.NoteOnEvent(tick=0, channel=3, data=[63, 123]),
   midi.NoteOffEvent(tick=960, channel=3, data=[67, 0]),
   midi.NoteOffEvent(tick=0, channel=3, data=[63, 0]),
   midi.NoteOnEvent(tick=0, channel=3, data=[67, 115]),
   midi.NoteOnEvent(tick=0, channel=3, data=[63, 116]),
   midi.NoteOffEvent(tick=960, channel=3, data=[67, 0]),
   midi.NoteOffEvent(tick=0, channel=3, data=[63, 0]),
   midi.NoteOnEvent(tick=960, channel=3, data=[62, 106]),
   midi.NoteOnEvent(tick=0, channel=3, data=[58, 107]),
   midi.NoteOffEvent(tick=960, channel=3, data=[62, 0]),
   midi.NoteOffEvent(tick=0, channel=3, data=[58, 0]),
   midi.NoteOnEvent(tick=960, channel=3, data=[63, 111]),
   midi.NoteOnEvent(tick=0, channel=3, data=[58, 110]),
   midi.NoteOffEvent(tick=960, channel=3, data=[63, 0]),
   midi.NoteOffEvent(tick=0, channel=3, data=[58, 0]),
   midi.NoteOnEvent(tick=960, channel=3, data=[60, 109]),
   midi.NoteOnEvent(tick=0, channel=3, data=[56, 110]),
   midi.NoteOffEvent(tick=960, channel=3, data=[60, 0]),
   midi.NoteOffEvent(tick=0, channel=3, data=[56, 0]),
   midi.NoteOnEvent(tick=960, channel=3, data=[58, 110]),
   midi.NoteOnEvent(tick=0, channel=3, data=[55, 111]),
   midi.NoteOffEvent(tick=960, channel=3, data=[58, 0]),
   midi.NoteOffEvent(tick=0, channel=3, data=[55, 0]),
   midi.NoteOnEvent(tick=960, channel=3, data=[58, 112]),
   midi.NoteOnEvent(tick=0, channel=3, data=[46, 107]),
   midi.NoteOffEvent(tick=960, channel=3, data=[58, 0]),
   midi.NoteOffEvent(tick=0, channel=3, data=[46, 0]),
   midi.NoteOnEvent(tick=0, channel=3, data=[63, 127]),
   midi.NoteOnEvent(tick=0, channel=3, data=[51, 121]),
   midi.NoteOffEvent(tick=480, channel=3, data=[63, 0]),
   midi.NoteOffEvent(tick=0, channel=3, data=[51, 0]),
   midi.NoteOnEvent(tick=0, channel=3, data=[67, 126]),
   midi.NoteOffEvent(tick=480, channel=3, data=[67, 0]),
   midi.NoteOnEvent(tick=0, channel=3, data=[67, 125]),
   midi.NoteOffEvent(tick=480, channel=3, data=[67, 0]),
   midi.NoteOnEvent(tick=0, channel=3, data=[67, 123]),
   midi.NoteOffEvent(tick=480, channel=3, data=[67, 0]),
   midi.NoteOnEvent(tick=0, channel=3, data=[63, 113]),
   midi.NoteOffEvent(tick=480, channel=3, data=[63, 0]),
   midi.NoteOnEvent(tick=0, channel=3, data=[58, 96]),
   midi.NoteOffEvent(tick=480, channel=3, data=[58, 0]),
   midi.NoteOnEvent(tick=0, channel=3, data=[58, 96]),
   midi.NoteOffEvent(tick=480, channel=3, data=[58, 0]),
   midi.NoteOnEvent(tick=0, channel=3, data=[58, 97]),
   midi.NoteOffEvent(tick=480, channel=3, data=[58, 0]),
   midi.NoteOnEvent(tick=0, channel=3, data=[55, 102]),
   midi.NoteOffEvent(tick=480, channel=3, data=[55, 0]),
   midi.NoteOnEvent(tick=0, channel=3, data=[51, 96]),
   midi.NoteOffEvent(tick=480, channel=3, data=[51, 0]),
   midi.NoteOnEvent(tick=0, channel=3, data=[51, 96]),
   midi.NoteOffEvent(tick=480, channel=3, data=[51, 0]),
   midi.NoteOnEvent(tick=0, channel=3, data=[51, 96]),
   midi.NoteOffEvent(tick=480, channel=3, data=[51, 0]),
   midi.NoteOnEvent(tick=0, channel=3, data=[46, 102]),
   midi.NoteOffEvent(tick=2400, channel=3, data=[46, 0]),
   midi.NoteOnEvent(tick=0, channel=3, data=[67, 127]),
   midi.NoteOffEvent(tick=480, channel=3, data=[67, 0]),
   midi.NoteOnEvent(tick=0, channel=3, data=[67, 127]),
   midi.NoteOffEvent(tick=480, channel=3, data=[67, 0]),
   midi.NoteOnEvent(tick=0, channel=3, data=[67, 127]),
   midi.NoteOffEvent(tick=480, channel=3, data=[67, 0]),
   midi.NoteOnEvent(tick=0, channel=3, data=[63, 123]),
   midi.NoteOffEvent(tick=480, channel=3, data=[63, 0]),
   midi.NoteOnEvent(tick=0, channel=3, data=[58, 99]),
   midi.NoteOffEvent(tick=480, channel=3, data=[58, 0]),
   midi.NoteOnEvent(tick=0, channel=3, data=[58, 100]),
   midi.NoteOffEvent(tick=480, channel=3, data=[58, 0]),
   midi.NoteOnEvent(tick=0, channel=3, data=[58, 100]),
   midi.NoteOffEvent(tick=480, channel=3, data=[58, 0]),
   midi.NoteOnEvent(tick=0, channel=3, data=[55, 102]),
   midi.NoteOffEvent(tick=480, channel=3, data=[55, 0]),
   midi.NoteOnEvent(tick=0, channel=3, data=[51, 96]),
   midi.NoteOffEvent(tick=480, channel=3, data=[51, 0]),
   midi.NoteOnEvent(tick=0, channel=3, data=[51, 96]),
   midi.NoteOffEvent(tick=480, channel=3, data=[51, 0]),
   midi.NoteOnEvent(tick=0, channel=3, data=[51, 96]),
   midi.NoteOffEvent(tick=480, channel=3, data=[51, 0]),
   midi.NoteOnEvent(tick=0, channel=3, data=[46, 102]),
   midi.NoteOffEvent(tick=2880, channel=3, data=[46, 0]),
   midi.NoteOnEvent(tick=1440, channel=3, data=[62, 122]),
   midi.NoteOnEvent(tick=0, channel=3, data=[58, 113]),
   midi.NoteOffEvent(tick=480, channel=3, data=[62, 0]),
   midi.NoteOffEvent(tick=0, channel=3, data=[58, 0]),
   midi.NoteOnEvent(tick=0, channel=3, data=[62, 120]),
   midi.NoteOnEvent(tick=0, channel=3, data=[58, 113]),
   midi.NoteOffEvent(tick=480, channel=3, data=[62, 0]),
   midi.NoteOffEvent(tick=0, channel=3, data=[58, 0]),
   midi.NoteOnEvent(tick=0, channel=3, data=[62, 118]),
   midi.NoteOnEvent(tick=0, channel=3, data=[58, 113]),
   midi.NoteOffEvent(tick=480, channel=3, data=[62, 0]),
   midi.NoteOffEvent(tick=0, channel=3, data=[58, 0]),
   midi.NoteOnEvent(tick=0, channel=3, data=[63, 126]),
   midi.NoteOnEvent(tick=0, channel=3, data=[58, 120]),
   midi.NoteOffEvent(tick=960, channel=3, data=[63, 0]),
   midi.NoteOffEvent(tick=0, channel=3, data=[58, 0]),
   midi.NoteOnEvent(tick=1440, channel=3, data=[46, 101]),
   midi.NoteOffEvent(tick=480, channel=3, data=[46, 0]),
   midi.NoteOnEvent(tick=0, channel=3, data=[46, 103]),
   midi.NoteOffEvent(tick=480, channel=3, data=[46, 0]),
   midi.NoteOnEvent(tick=0, channel=3, data=[46, 104]),
   midi.NoteOffEvent(tick=480, channel=3, data=[46, 0]),
   midi.NoteOnEvent(tick=0, channel=3, data=[51, 121]),
   midi.NoteOffEvent(tick=960, channel=3, data=[51, 0]),
   midi.NoteOnEvent(tick=6720, channel=3, data=[67, 120]),
   midi.NoteOffEvent(tick=5760, channel=3, data=[67, 0]),
   midi.NoteOnEvent(tick=1920, channel=3, data=[65, 65]),
   midi.NoteOnEvent(tick=0, channel=3, data=[53, 65]),
   midi.NoteOffEvent(tick=7680, channel=3, data=[65, 0]),
   midi.NoteOffEvent(tick=0, channel=3, data=[53, 0]),
   midi.NoteOnEvent(tick=0, channel=3, data=[64, 65]),
   midi.NoteOnEvent(tick=0, channel=3, data=[52, 65]),
   midi.NoteOffEvent(tick=7680, channel=3, data=[64, 0]),
   midi.NoteOffEvent(tick=0, channel=3, data=[52, 0]),
   midi.NoteOnEvent(tick=0, channel=3, data=[65, 65]),
   midi.NoteOnEvent(tick=0, channel=3, data=[53, 65]),
   midi.NoteOnEvent(tick=1920, channel=3, data=[64, 64]),
   midi.NoteOnEvent(tick=0, channel=3, data=[52, 64]),
   midi.NoteOffEvent(tick=75, channel=3, data=[65, 0]),
   midi.NoteOffEvent(tick=0, channel=3, data=[53, 0]),
   midi.NoteOffEvent(tick=1654, channel=3, data=[64, 0]),
   midi.NoteOffEvent(tick=0, channel=3, data=[52, 0]),
   midi.NoteOnEvent(tick=191, channel=3, data=[65, 65]),
   midi.NoteOnEvent(tick=0, channel=3, data=[53, 65]),
   midi.NoteOffEvent(tick=1920, channel=3, data=[65, 0]),
   midi.NoteOffEvent(tick=0, channel=3, data=[53, 0]),
   midi.NoteOnEvent(tick=0, channel=3, data=[64, 64]),
   midi.NoteOnEvent(tick=0, channel=3, data=[52, 64]),
   midi.NoteOffEvent(tick=1920, channel=3, data=[64, 0]),
   midi.NoteOffEvent(tick=0, channel=3, data=[52, 0]),
   midi.NoteOnEvent(tick=0, channel=3, data=[65, 65]),
   midi.NoteOnEvent(tick=0, channel=3, data=[53, 65]),
   midi.NoteOffEvent(tick=960, channel=3, data=[65, 0]),
   midi.NoteOffEvent(tick=0, channel=3, data=[53, 0]),
   midi.NoteOnEvent(tick=6720, channel=3, data=[63, 65]),
   midi.NoteOnEvent(tick=0, channel=3, data=[60, 65]),
   midi.NoteOffEvent(tick=1920, channel=3, data=[63, 0]),
   midi.NoteOffEvent(tick=0, channel=3, data=[60, 0]),
   midi.NoteOnEvent(tick=0, channel=3, data=[62, 64]),
   midi.NoteOnEvent(tick=0, channel=3, data=[59, 64]),
   midi.NoteOffEvent(tick=1920, channel=3, data=[62, 0]),
   midi.NoteOffEvent(tick=0, channel=3, data=[59, 0]),
   midi.NoteOnEvent(tick=0, channel=3, data=[63, 65]),
   midi.NoteOnEvent(tick=0, channel=3, data=[60, 65]),
   midi.NoteOffEvent(tick=1920, channel=3, data=[63, 0]),
   midi.NoteOffEvent(tick=0, channel=3, data=[60, 0]),
   midi.NoteOnEvent(tick=0, channel=3, data=[62, 64]),
   midi.NoteOnEvent(tick=0, channel=3, data=[59, 64]),
   midi.NoteOffEvent(tick=1920, channel=3, data=[62, 0]),
   midi.NoteOffEvent(tick=0, channel=3, data=[59, 0]),
   midi.NoteOnEvent(tick=0, channel=3, data=[63, 65]),
   midi.NoteOnEvent(tick=0, channel=3, data=[60, 65]),
   midi.NoteOffEvent(tick=960, channel=3, data=[63, 0]),
   midi.NoteOffEvent(tick=0, channel=3, data=[60, 0]),
   midi.NoteOnEvent(tick=1440, channel=3, data=[63, 61]),
   midi.NoteOffEvent(tick=480, channel=3, data=[63, 0]),
   midi.NoteOnEvent(tick=0, channel=3, data=[63, 61]),
   midi.NoteOffEvent(tick=480, channel=3, data=[63, 0]),
   midi.NoteOnEvent(tick=0, channel=3, data=[62, 60]),
   midi.NoteOffEvent(tick=480, channel=3, data=[62, 0]),
   midi.NoteOnEvent(tick=0, channel=3, data=[60, 60]),
   midi.NoteOffEvent(tick=480, channel=3, data=[60, 0]),
   midi.NoteOnEvent(tick=0, channel=3, data=[60, 57]),
   midi.NoteOffEvent(tick=480, channel=3, data=[60, 0]),
   midi.NoteOnEvent(tick=0, channel=3, data=[60, 58]),
   midi.NoteOffEvent(tick=480, channel=3, data=[60, 0]),
   midi.NoteOnEvent(tick=0, channel=3, data=[58, 54]),
   midi.NoteOffEvent(tick=480, channel=3, data=[58, 0]),
   midi.NoteOnEvent(tick=0, channel=3, data=[57, 57]),
   midi.NoteOnEvent(tick=0, channel=3, data=[56, 64]),
   midi.NoteOffEvent(tick=480, channel=3, data=[57, 0]),
   midi.NoteOffEvent(tick=0, channel=3, data=[56, 0]),
   midi.NoteOnEvent(tick=0, channel=3, data=[62, 67]),
   midi.NoteOnEvent(tick=0, channel=3, data=[54, 60]),
   midi.NoteOffEvent(tick=480, channel=3, data=[62, 0]),
   midi.NoteOffEvent(tick=0, channel=3, data=[54, 0]),
   midi.NoteOnEvent(tick=0, channel=3, data=[62, 66]),
   midi.NoteOnEvent(tick=0, channel=3, data=[54, 60]),
   midi.NoteOffEvent(tick=480, channel=3, data=[62, 0]),
   midi.NoteOffEvent(tick=0, channel=3, data=[54, 0]),
   midi.NoteOnEvent(tick=0, channel=3, data=[60, 60]),
   midi.NoteOnEvent(tick=0, channel=3, data=[56, 63]),
   midi.NoteOffEvent(tick=480, channel=3, data=[60, 0]),
   midi.NoteOffEvent(tick=0, channel=3, data=[56, 0]),
   midi.NoteOnEvent(tick=0, channel=3, data=[58, 58]),
   midi.NoteOnEvent(tick=0, channel=3, data=[55, 65]),
   midi.NoteOffEvent(tick=1920, channel=3, data=[58, 0]),
   midi.NoteOffEvent(tick=0, channel=3, data=[55, 0]),
   midi.NoteOnEvent(tick=0, channel=3, data=[57, 60]),
   midi.NoteOnEvent(tick=0, channel=3, data=[54, 63]),
   midi.NoteOffEvent(tick=480, channel=3, data=[57, 0]),
   midi.NoteOffEvent(tick=0, channel=3, data=[54, 0]),
   midi.NoteOnEvent(tick=0, channel=3, data=[62, 67]),
   midi.NoteOnEvent(tick=0, channel=3, data=[54, 60]),
   midi.NoteOffEvent(tick=480, channel=3, data=[62, 0]),
   midi.NoteOffEvent(tick=0, channel=3, data=[54, 0]),
   midi.NoteOnEvent(tick=0, channel=3, data=[62, 66]),
   midi.NoteOnEvent(tick=0, channel=3, data=[54, 60]),
   midi.NoteOffEvent(tick=480, channel=3, data=[62, 0]),
   midi.NoteOffEvent(tick=0, channel=3, data=[54, 0]),
   midi.NoteOnEvent(tick=0, channel=3, data=[60, 61]),
   midi.NoteOnEvent(tick=0, channel=3, data=[57, 66]),
   midi.NoteOffEvent(tick=480, channel=3, data=[60, 0]),
   midi.NoteOffEvent(tick=0, channel=3, data=[57, 0]),
   midi.NoteOnEvent(tick=0, channel=3, data=[58, 59]),
   midi.NoteOnEvent(tick=0, channel=3, data=[55, 65]),
   midi.NoteOffEvent(tick=1920, channel=3, data=[58, 0]),
   midi.NoteOffEvent(tick=0, channel=3, data=[55, 0]),
   midi.NoteOnEvent(tick=0, channel=3, data=[57, 61]),
   midi.NoteOnEvent(tick=0, channel=3, data=[54, 63]),
   midi.NoteOffEvent(tick=1920, channel=3, data=[57, 0]),
   midi.NoteOffEvent(tick=0, channel=3, data=[54, 0]),
   midi.NoteOnEvent(tick=0, channel=3, data=[58, 64]),
   midi.NoteOnEvent(tick=0, channel=3, data=[55, 65]),
   midi.NoteOffEvent(tick=960, channel=3, data=[58, 0]),
   midi.NoteOffEvent(tick=0, channel=3, data=[55, 0]),
   midi.NoteOnEvent(tick=960, channel=3, data=[43, 61]),
   midi.NoteOffEvent(tick=480, channel=3, data=[43, 0]),
   midi.NoteOnEvent(tick=0, channel=3, data=[55, 59]),
   midi.NoteOnEvent(tick=0, channel=3, data=[43, 58]),
   midi.NoteOffEvent(tick=480, channel=3, data=[55, 0]),
   midi.NoteOffEvent(tick=0, channel=3, data=[43, 0]),
   midi.NoteOnEvent(tick=0, channel=3, data=[57, 62]),
   midi.NoteOnEvent(tick=0, channel=3, data=[43, 59]),
   midi.NoteOffEvent(tick=480, channel=3, data=[57, 0]),
   midi.NoteOffEvent(tick=0, channel=3, data=[43, 0]),
   midi.NoteOnEvent(tick=0, channel=3, data=[58, 63]),
   midi.NoteOnEvent(tick=0, channel=3, data=[43, 59]),
   midi.NoteOffEvent(tick=480, channel=3, data=[58, 0]),
   midi.NoteOffEvent(tick=0, channel=3, data=[43, 0]),
   midi.NoteOnEvent(tick=0, channel=3, data=[60, 70]),
   midi.NoteOnEvent(tick=0, channel=3, data=[45, 65]),
   midi.NoteOffEvent(tick=960, channel=3, data=[60, 0]),
   midi.NoteOffEvent(tick=1440, channel=3, data=[45, 0]),
   midi.NoteOnEvent(tick=0, channel=3, data=[54, 57]),
   midi.NoteOnEvent(tick=0, channel=3, data=[45, 62]),
   midi.NoteOffEvent(tick=480, channel=3, data=[54, 0]),
   midi.NoteOffEvent(tick=0, channel=3, data=[45, 0]),
   midi.NoteOnEvent(tick=0, channel=3, data=[57, 62]),
   midi.NoteOnEvent(tick=0, channel=3, data=[45, 62]),
   midi.NoteOffEvent(tick=480, channel=3, data=[57, 0]),
   midi.NoteOffEvent(tick=0, channel=3, data=[45, 0]),
   midi.NoteOnEvent(tick=0, channel=3, data=[58, 63]),
   midi.NoteOnEvent(tick=0, channel=3, data=[45, 61]),
   midi.NoteOffEvent(tick=480, channel=3, data=[58, 0]),
   midi.NoteOffEvent(tick=0, channel=3, data=[45, 0]),
   midi.NoteOnEvent(tick=0, channel=3, data=[60, 71]),
   midi.NoteOnEvent(tick=0, channel=3, data=[45, 65]),
   midi.NoteOffEvent(tick=960, channel=3, data=[60, 0]),
   midi.NoteOffEvent(tick=1440, channel=3, data=[45, 0]),
   midi.NoteOnEvent(tick=0, channel=3, data=[57, 60]),
   midi.NoteOnEvent(tick=0, channel=3, data=[45, 61]),
   midi.NoteOffEvent(tick=480, channel=3, data=[57, 0]),
   midi.NoteOffEvent(tick=0, channel=3, data=[45, 0]),
   midi.NoteOnEvent(tick=0, channel=3, data=[58, 62]),
   midi.NoteOnEvent(tick=0, channel=3, data=[45, 61]),
   midi.NoteOffEvent(tick=480, channel=3, data=[58, 0]),
   midi.NoteOffEvent(tick=0, channel=3, data=[45, 0]),
   midi.NoteOnEvent(tick=0, channel=3, data=[60, 65]),
   midi.NoteOnEvent(tick=0, channel=3, data=[45, 61]),
   midi.NoteOffEvent(tick=480, channel=3, data=[60, 0]),
   midi.NoteOffEvent(tick=0, channel=3, data=[45, 0]),
   midi.NoteOnEvent(tick=0, channel=3, data=[62, 71]),
   midi.NoteOnEvent(tick=0, channel=3, data=[46, 66]),
   midi.NoteOffEvent(tick=960, channel=3, data=[62, 0]),
   midi.NoteOffEvent(tick=1440, channel=3, data=[46, 0]),
   midi.NoteOnEvent(tick=0, channel=3, data=[55, 56]),
   midi.NoteOnEvent(tick=0, channel=3, data=[46, 61]),
   midi.NoteOffEvent(tick=480, channel=3, data=[55, 0]),
   midi.NoteOffEvent(tick=0, channel=3, data=[46, 0]),
   midi.NoteOnEvent(tick=0, channel=3, data=[58, 61]),
   midi.NoteOnEvent(tick=0, channel=3, data=[46, 61]),
   midi.NoteOffEvent(tick=480, channel=3, data=[58, 0]),
   midi.NoteOffEvent(tick=0, channel=3, data=[46, 0]),
   midi.NoteOnEvent(tick=0, channel=3, data=[60, 64]),
   midi.NoteOnEvent(tick=0, channel=3, data=[46, 61]),
   midi.NoteOffEvent(tick=480, channel=3, data=[60, 0]),
   midi.NoteOffEvent(tick=0, channel=3, data=[46, 0]),
   midi.NoteOnEvent(tick=0, channel=3, data=[62, 71]),
   midi.NoteOnEvent(tick=0, channel=3, data=[46, 65]),
   midi.NoteOffEvent(tick=960, channel=3, data=[62, 0]),
   midi.NoteOffEvent(tick=0, channel=3, data=[46, 0]),
   midi.NoteOnEvent(tick=1440, channel=3, data=[58, 82]),
   midi.NoteOnEvent(tick=0, channel=3, data=[55, 94]),
   midi.NoteOffEvent(tick=480, channel=3, data=[58, 0]),
   midi.NoteOffEvent(tick=0, channel=3, data=[55, 0]),
   midi.NoteOnEvent(tick=0, channel=3, data=[60, 86]),
   midi.NoteOnEvent(tick=0, channel=3, data=[57, 95]),
   midi.NoteOffEvent(tick=480, channel=3, data=[60, 0]),
   midi.NoteOffEvent(tick=0, channel=3, data=[57, 0]),
   midi.NoteOnEvent(tick=0, channel=3, data=[62, 90]),
   midi.NoteOnEvent(tick=0, channel=3, data=[58, 95]),
   midi.NoteOffEvent(tick=480, channel=3, data=[62, 0]),
   midi.NoteOffEvent(tick=0, channel=3, data=[58, 0]),
   midi.NoteOnEvent(tick=0, channel=3, data=[57, 95]),
   midi.NoteOnEvent(tick=0, channel=3, data=[54, 104]),
   midi.NoteOffEvent(tick=3840, channel=3, data=[57, 0]),
   midi.NoteOffEvent(tick=0, channel=3, data=[54, 0]),
   midi.NoteOnEvent(tick=0, channel=3, data=[57, 102]),
   midi.NoteOnEvent(tick=0, channel=3, data=[54, 102]),
   midi.NoteOffEvent(tick=960, channel=3, data=[57, 0]),
   midi.NoteOffEvent(tick=0, channel=3, data=[54, 0]),
   midi.NoteOnEvent(tick=1440, channel=3, data=[61, 100]),
   midi.NoteOnEvent(tick=0, channel=3, data=[49, 95]),
   midi.NoteOffEvent(tick=480, channel=3, data=[61, 0]),
   midi.NoteOffEvent(tick=0, channel=3, data=[49, 0]),
   midi.NoteOnEvent(tick=0, channel=3, data=[61, 100]),
   midi.NoteOnEvent(tick=0, channel=3, data=[49, 96]),
   midi.NoteOffEvent(tick=480, channel=3, data=[61, 0]),
   midi.NoteOffEvent(tick=0, channel=3, data=[49, 0]),
   midi.NoteOnEvent(tick=0, channel=3, data=[61, 99]),
   midi.NoteOnEvent(tick=0, channel=3, data=[49, 96]),
   midi.NoteOffEvent(tick=480, channel=3, data=[61, 0]),
   midi.NoteOffEvent(tick=0, channel=3, data=[49, 0]),
   midi.NoteOnEvent(tick=0, channel=3, data=[61, 105]),
   midi.NoteOnEvent(tick=0, channel=3, data=[49, 103]),
   midi.NoteOffEvent(tick=3840, channel=3, data=[61, 0]),
   midi.NoteOffEvent(tick=0, channel=3, data=[49, 0]),
   midi.NoteOnEvent(tick=0, channel=3, data=[61, 104]),
   midi.NoteOnEvent(tick=0, channel=3, data=[49, 104]),
   midi.NoteOffEvent(tick=960, channel=3, data=[61, 0]),
   midi.NoteOffEvent(tick=0, channel=3, data=[49, 0]),
   midi.NoteOnEvent(tick=1440, channel=3, data=[62, 98]),
   midi.NoteOnEvent(tick=0, channel=3, data=[50, 98]),
   midi.NoteOffEvent(tick=480, channel=3, data=[62, 0]),
   midi.NoteOffEvent(tick=0, channel=3, data=[50, 0]),
   midi.NoteOnEvent(tick=0, channel=3, data=[62, 98]),
   midi.NoteOnEvent(tick=0, channel=3, data=[50, 98]),
   midi.NoteOffEvent(tick=480, channel=3, data=[62, 0]),
   midi.NoteOffEvent(tick=0, channel=3, data=[50, 0]),
   midi.NoteOnEvent(tick=0, channel=3, data=[62, 98]),
   midi.NoteOnEvent(tick=0, channel=3, data=[50, 98]),
   midi.NoteOffEvent(tick=480, channel=3, data=[62, 0]),
   midi.NoteOffEvent(tick=0, channel=3, data=[50, 0]),
   midi.NoteOnEvent(tick=0, channel=3, data=[62, 104]),
   midi.NoteOnEvent(tick=0, channel=3, data=[50, 104]),
   midi.NoteOffEvent(tick=960, channel=3, data=[62, 0]),
   midi.NoteOffEvent(tick=0, channel=3, data=[50, 0]),
   midi.NoteOnEvent(tick=1920, channel=3, data=[64, 100]),
   midi.NoteOnEvent(tick=0, channel=3, data=[52, 100]),
   midi.NoteOffEvent(tick=480, channel=3, data=[64, 0]),
   midi.NoteOffEvent(tick=0, channel=3, data=[52, 0]),
   midi.NoteOnEvent(tick=0, channel=3, data=[64, 100]),
   midi.NoteOnEvent(tick=0, channel=3, data=[52, 100]),
   midi.NoteOffEvent(tick=480, channel=3, data=[64, 0]),
   midi.NoteOffEvent(tick=0, channel=3, data=[52, 0]),
   midi.NoteOnEvent(tick=0, channel=3, data=[64, 105]),
   midi.NoteOnEvent(tick=0, channel=3, data=[52, 105]),
   midi.NoteOffEvent(tick=960, channel=3, data=[64, 0]),
   midi.NoteOffEvent(tick=0, channel=3, data=[52, 0]),
   midi.NoteOnEvent(tick=0, channel=3, data=[66, 103]),
   midi.NoteOnEvent(tick=0, channel=3, data=[54, 103]),
   midi.NoteOffEvent(tick=480, channel=3, data=[66, 0]),
   midi.NoteOffEvent(tick=0, channel=3, data=[54, 0]),
   midi.NoteOnEvent(tick=0, channel=3, data=[66, 102]),
   midi.NoteOnEvent(tick=0, channel=3, data=[54, 102]),
   midi.NoteOffEvent(tick=480, channel=3, data=[66, 0]),
   midi.NoteOffEvent(tick=0, channel=3, data=[54, 0]),
   midi.NoteOnEvent(tick=0, channel=3, data=[66, 108]),
   midi.NoteOnEvent(tick=0, channel=3, data=[54, 107]),
   midi.NoteOffEvent(tick=960, channel=3, data=[66, 0]),
   midi.NoteOffEvent(tick=0, channel=3, data=[54, 0]),
   midi.NoteOnEvent(tick=7680, channel=3, data=[66, 98]),
   midi.NoteOffEvent(tick=480, channel=3, data=[66, 0]),
   midi.NoteOnEvent(tick=0, channel=3, data=[66, 98]),
   midi.NoteOffEvent(tick=480, channel=3, data=[66, 0]),
   midi.NoteOnEvent(tick=0, channel=3, data=[66, 104]),
   midi.NoteOffEvent(tick=960, channel=3, data=[66, 0]),
   midi.NoteOnEvent(tick=3840, channel=3, data=[62, 96]),
   midi.NoteOnEvent(tick=0, channel=3, data=[50, 98]),
   midi.NoteOffEvent(tick=480, channel=3, data=[62, 0]),
   midi.NoteOffEvent(tick=0, channel=3, data=[50, 0]),
   midi.NoteOnEvent(tick=0, channel=3, data=[62, 97]),
   midi.NoteOnEvent(tick=0, channel=3, data=[50, 98]),
   midi.NoteOffEvent(tick=480, channel=3, data=[62, 0]),
   midi.NoteOffEvent(tick=0, channel=3, data=[50, 0]),
   midi.NoteOnEvent(tick=0, channel=3, data=[55, 92]),
   midi.NoteOnEvent(tick=0, channel=3, data=[43, 98]),
   midi.NoteOffEvent(tick=960, channel=3, data=[55, 0]),
   midi.NoteOffEvent(tick=0, channel=3, data=[43, 0]),
   midi.NoteOnEvent(tick=5760, channel=3, data=[59, 98]),
   midi.NoteOffEvent(tick=480, channel=3, data=[59, 0]),
   midi.NoteOnEvent(tick=0, channel=3, data=[59, 98]),
   midi.NoteOffEvent(tick=480, channel=3, data=[59, 0]),
   midi.NoteOnEvent(tick=0, channel=3, data=[59, 104]),
   midi.NoteOffEvent(tick=960, channel=3, data=[59, 0]),
   midi.NoteOnEvent(tick=7200, channel=3, data=[60, 113]),
   midi.NoteOffEvent(tick=480, channel=3, data=[60, 0]),
   midi.NoteOnEvent(tick=0, channel=3, data=[60, 113]),
   midi.NoteOffEvent(tick=480, channel=3, data=[60, 0]),
   midi.NoteOnEvent(tick=0, channel=3, data=[60, 113]),
   midi.NoteOffEvent(tick=480, channel=3, data=[60, 0]),
   midi.NoteOnEvent(tick=0, channel=3, data=[60, 120]),
   midi.NoteOnEvent(tick=0, channel=3, data=[56, 120]),
   midi.NoteOffEvent(tick=1920, channel=3, data=[60, 0]),
   midi.NoteOffEvent(tick=0, channel=3, data=[56, 0]),
   midi.NoteOnEvent(tick=0, channel=3, data=[61, 122]),
   midi.NoteOnEvent(tick=0, channel=3, data=[58, 121]),
   midi.NoteOffEvent(tick=1920, channel=3, data=[61, 0]),
   midi.NoteOffEvent(tick=0, channel=3, data=[58, 0]),
   midi.NoteOnEvent(tick=3840, channel=3, data=[60, 120]),
   midi.NoteOnEvent(tick=0, channel=3, data=[56, 120]),
   midi.NoteOffEvent(tick=1920, channel=3, data=[60, 0]),
   midi.NoteOffEvent(tick=0, channel=3, data=[56, 0]),
   midi.NoteOnEvent(tick=0, channel=3, data=[61, 120]),
   midi.NoteOnEvent(tick=0, channel=3, data=[58, 121]),
   midi.NoteOffEvent(tick=1920, channel=3, data=[61, 0]),
   midi.NoteOffEvent(tick=0, channel=3, data=[58, 0]),
   midi.NoteOnEvent(tick=3840, channel=3, data=[60, 120]),
   midi.NoteOnEvent(tick=0, channel=3, data=[56, 120]),
   midi.NoteOffEvent(tick=1920, channel=3, data=[60, 0]),
   midi.NoteOffEvent(tick=0, channel=3, data=[56, 0]),
   midi.NoteOnEvent(tick=0, channel=3, data=[61, 120]),
   midi.NoteOnEvent(tick=0, channel=3, data=[58, 121]),
   midi.NoteOffEvent(tick=1920, channel=3, data=[61, 0]),
   midi.NoteOffEvent(tick=0, channel=3, data=[58, 0]),
   midi.NoteOnEvent(tick=3840, channel=3, data=[63, 120]),
   midi.NoteOnEvent(tick=0, channel=3, data=[60, 120]),
   midi.NoteOffEvent(tick=1920, channel=3, data=[63, 0]),
   midi.NoteOffEvent(tick=0, channel=3, data=[60, 0]),
   midi.NoteOnEvent(tick=0, channel=3, data=[65, 121]),
   midi.NoteOnEvent(tick=0, channel=3, data=[61, 121]),
   midi.NoteOffEvent(tick=1920, channel=3, data=[65, 0]),
   midi.NoteOffEvent(tick=0, channel=3, data=[61, 0]),
   midi.NoteOnEvent(tick=1920, channel=3, data=[66, 76]),
   midi.NoteOnEvent(tick=0, channel=3, data=[63, 76]),
   midi.NoteOffEvent(tick=1920, channel=3, data=[66, 0]),
   midi.NoteOffEvent(tick=0, channel=3, data=[63, 0]),
   midi.NoteOnEvent(tick=1920, channel=3, data=[68, 76]),
   midi.NoteOnEvent(tick=0, channel=3, data=[65, 76]),
   midi.NoteOffEvent(tick=1920, channel=3, data=[68, 0]),
   midi.NoteOffEvent(tick=0, channel=3, data=[65, 0]),
   midi.NoteOnEvent(tick=1920, channel=3, data=[69, 65]),
   midi.NoteOnEvent(tick=0, channel=3, data=[66, 65]),
   midi.NoteOffEvent(tick=1920, channel=3, data=[69, 0]),
   midi.NoteOffEvent(tick=0, channel=3, data=[66, 0]),
   midi.NoteOnEvent(tick=1920, channel=3, data=[69, 65]),
   midi.NoteOnEvent(tick=0, channel=3, data=[66, 65]),
   midi.NoteOffEvent(tick=1920, channel=3, data=[69, 0]),
   midi.NoteOffEvent(tick=0, channel=3, data=[66, 0]),
   midi.NoteOnEvent(tick=1920, channel=3, data=[69, 65]),
   midi.NoteOnEvent(tick=0, channel=3, data=[66, 65]),
   midi.NoteOffEvent(tick=1920, channel=3, data=[69, 0]),
   midi.NoteOffEvent(tick=0, channel=3, data=[66, 0]),
   midi.NoteOnEvent(tick=1920, channel=3, data=[69, 42]),
   midi.NoteOnEvent(tick=0, channel=3, data=[66, 42]),
   midi.NoteOffEvent(tick=1920, channel=3, data=[69, 0]),
   midi.NoteOffEvent(tick=0, channel=3, data=[66, 0]),
   midi.NoteOnEvent(tick=1920, channel=3, data=[69, 42]),
   midi.NoteOnEvent(tick=0, channel=3, data=[66, 42]),
   midi.NoteOffEvent(tick=1920, channel=3, data=[69, 0]),
   midi.NoteOffEvent(tick=0, channel=3, data=[66, 0]),
   midi.NoteOnEvent(tick=1920, channel=3, data=[69, 42]),
   midi.NoteOnEvent(tick=0, channel=3, data=[66, 42]),
   midi.NoteOffEvent(tick=1920, channel=3, data=[69, 0]),
   midi.NoteOffEvent(tick=0, channel=3, data=[66, 0]),
   midi.NoteOnEvent(tick=1920, channel=3, data=[69, 42]),
   midi.NoteOnEvent(tick=0, channel=3, data=[66, 42]),
   midi.NoteOffEvent(tick=1920, channel=3, data=[69, 0]),
   midi.NoteOffEvent(tick=0, channel=3, data=[66, 0]),
   midi.NoteOnEvent(tick=480, channel=3, data=[62, 109]),
   midi.NoteOnEvent(tick=0, channel=3, data=[50, 107]),
   midi.NoteOffEvent(tick=480, channel=3, data=[62, 0]),
   midi.NoteOffEvent(tick=0, channel=3, data=[50, 0]),
   midi.NoteOnEvent(tick=0, channel=3, data=[62, 110]),
   midi.NoteOnEvent(tick=0, channel=3, data=[50, 108]),
   midi.NoteOffEvent(tick=480, channel=3, data=[62, 0]),
   midi.NoteOffEvent(tick=0, channel=3, data=[50, 0]),
   midi.NoteOnEvent(tick=0, channel=3, data=[62, 110]),
   midi.NoteOnEvent(tick=0, channel=3, data=[50, 109]),
   midi.NoteOffEvent(tick=480, channel=3, data=[62, 0]),
   midi.NoteOffEvent(tick=0, channel=3, data=[50, 0]),
   midi.NoteOnEvent(tick=0, channel=3, data=[59, 109]),
   midi.NoteOnEvent(tick=0, channel=3, data=[47, 112]),
   midi.NoteOffEvent(tick=1920, channel=3, data=[59, 0]),
   midi.NoteOffEvent(tick=0, channel=3, data=[47, 0]),
   midi.NoteOnEvent(tick=0, channel=3, data=[60, 116]),
   midi.NoteOnEvent(tick=0, channel=3, data=[48, 117]),
   midi.NoteOffEvent(tick=1920, channel=3, data=[60, 0]),
   midi.NoteOffEvent(tick=0, channel=3, data=[48, 0]),
   midi.NoteOnEvent(tick=0, channel=3, data=[57, 114]),
   midi.NoteOnEvent(tick=0, channel=3, data=[45, 116]),
   midi.NoteOffEvent(tick=3840, channel=3, data=[57, 0]),
   midi.NoteOffEvent(tick=0, channel=3, data=[45, 0]),
   midi.NoteOnEvent(tick=0, channel=3, data=[65, 43]),
   midi.NoteOnEvent(tick=0, channel=3, data=[59, 44]),
   midi.NoteOffEvent(tick=1920, channel=3, data=[65, 0]),
   midi.NoteOffEvent(tick=0, channel=3, data=[59, 0]),
   midi.NoteOnEvent(tick=1920, channel=3, data=[65, 42]),
   midi.NoteOnEvent(tick=0, channel=3, data=[59, 42]),
   midi.NoteOffEvent(tick=1920, channel=3, data=[65, 0]),
   midi.NoteOffEvent(tick=0, channel=3, data=[59, 0]),
   midi.NoteOnEvent(tick=1920, channel=3, data=[65, 42]),
   midi.NoteOnEvent(tick=0, channel=3, data=[59, 42]),
   midi.NoteOffEvent(tick=1920, channel=3, data=[65, 0]),
   midi.NoteOffEvent(tick=0, channel=3, data=[59, 0]),
   midi.NoteOnEvent(tick=1920, channel=3, data=[65, 42]),
   midi.NoteOnEvent(tick=0, channel=3, data=[59, 42]),
   midi.NoteOffEvent(tick=1920, channel=3, data=[65, 0]),
   midi.NoteOffEvent(tick=0, channel=3, data=[59, 0]),
   midi.NoteOnEvent(tick=480, channel=3, data=[56, 108]),
   midi.NoteOnEvent(tick=0, channel=3, data=[44, 109]),
   midi.NoteOffEvent(tick=480, channel=3, data=[56, 0]),
   midi.NoteOffEvent(tick=0, channel=3, data=[44, 0]),
   midi.NoteOnEvent(tick=0, channel=3, data=[56, 109]),
   midi.NoteOnEvent(tick=0, channel=3, data=[44, 110]),
   midi.NoteOffEvent(tick=480, channel=3, data=[56, 0]),
   midi.NoteOffEvent(tick=0, channel=3, data=[44, 0]),
   midi.NoteOnEvent(tick=0, channel=3, data=[56, 109]),
   midi.NoteOnEvent(tick=0, channel=3, data=[44, 110]),
   midi.NoteOffEvent(tick=480, channel=3, data=[56, 0]),
   midi.NoteOffEvent(tick=0, channel=3, data=[44, 0]),
   midi.NoteOnEvent(tick=0, channel=3, data=[53, 109]),
   midi.NoteOnEvent(tick=0, channel=3, data=[41, 114]),
   midi.NoteOffEvent(tick=2400, channel=3, data=[53, 0]),
   midi.NoteOffEvent(tick=0, channel=3, data=[41, 0]),
   midi.NoteOnEvent(tick=0, channel=3, data=[56, 114]),
   midi.NoteOnEvent(tick=0, channel=3, data=[44, 113]),
   midi.NoteOffEvent(tick=480, channel=3, data=[56, 0]),
   midi.NoteOffEvent(tick=0, channel=3, data=[44, 0]),
   midi.NoteOnEvent(tick=0, channel=3, data=[56, 114]),
   midi.NoteOnEvent(tick=0, channel=3, data=[44, 113]),
   midi.NoteOffEvent(tick=480, channel=3, data=[56, 0]),
   midi.NoteOffEvent(tick=0, channel=3, data=[44, 0]),
   midi.NoteOnEvent(tick=0, channel=3, data=[56, 114]),
   midi.NoteOnEvent(tick=0, channel=3, data=[44, 113]),
   midi.NoteOffEvent(tick=480, channel=3, data=[56, 0]),
   midi.NoteOffEvent(tick=0, channel=3, data=[44, 0]),
   midi.NoteOnEvent(tick=0, channel=3, data=[53, 111]),
   midi.NoteOnEvent(tick=0, channel=3, data=[41, 115]),
   midi.NoteOffEvent(tick=2400, channel=3, data=[53, 0]),
   midi.NoteOffEvent(tick=0, channel=3, data=[41, 0]),
   midi.NoteOnEvent(tick=0, channel=3, data=[56, 115]),
   midi.NoteOnEvent(tick=0, channel=3, data=[44, 114]),
   midi.NoteOffEvent(tick=480, channel=3, data=[56, 0]),
   midi.NoteOffEvent(tick=0, channel=3, data=[44, 0]),
   midi.NoteOnEvent(tick=0, channel=3, data=[56, 115]),
   midi.NoteOnEvent(tick=0, channel=3, data=[44, 114]),
   midi.NoteOffEvent(tick=480, channel=3, data=[56, 0]),
   midi.NoteOffEvent(tick=0, channel=3, data=[44, 0]),
   midi.NoteOnEvent(tick=0, channel=3, data=[56, 114]),
   midi.NoteOnEvent(tick=0, channel=3, data=[44, 114]),
   midi.NoteOffEvent(tick=480, channel=3, data=[56, 0]),
   midi.NoteOffEvent(tick=0, channel=3, data=[44, 0]),
   midi.NoteOnEvent(tick=0, channel=3, data=[53, 111]),
   midi.NoteOnEvent(tick=0, channel=3, data=[41, 115]),
   midi.NoteOffEvent(tick=480, channel=3, data=[53, 0]),
   midi.NoteOffEvent(tick=0, channel=3, data=[41, 0]),
   midi.NoteOnEvent(tick=0, channel=3, data=[56, 117]),
   midi.NoteOnEvent(tick=0, channel=3, data=[44, 115]),
   midi.NoteOffEvent(tick=480, channel=3, data=[56, 0]),
   midi.NoteOffEvent(tick=0, channel=3, data=[44, 0]),
   midi.NoteOnEvent(tick=0, channel=3, data=[56, 116]),
   midi.NoteOnEvent(tick=0, channel=3, data=[44, 115]),
   midi.NoteOffEvent(tick=480, channel=3, data=[56, 0]),
   midi.NoteOffEvent(tick=0, channel=3, data=[44, 0]),
   midi.NoteOnEvent(tick=0, channel=3, data=[56, 116]),
   midi.NoteOnEvent(tick=0, channel=3, data=[44, 114]),
   midi.NoteOffEvent(tick=480, channel=3, data=[56, 0]),
   midi.NoteOffEvent(tick=0, channel=3, data=[44, 0]),
   midi.NoteOnEvent(tick=0, channel=3, data=[53, 108]),
   midi.NoteOnEvent(tick=0, channel=3, data=[41, 114]),
   midi.NoteOffEvent(tick=480, channel=3, data=[53, 0]),
   midi.NoteOffEvent(tick=0, channel=3, data=[41, 0]),
   midi.NoteOnEvent(tick=0, channel=3, data=[56, 118]),
   midi.NoteOnEvent(tick=0, channel=3, data=[44, 115]),
   midi.NoteOffEvent(tick=480, channel=3, data=[56, 0]),
   midi.NoteOffEvent(tick=0, channel=3, data=[44, 0]),
   midi.NoteOnEvent(tick=0, channel=3, data=[56, 117]),
   midi.NoteOnEvent(tick=0, channel=3, data=[44, 115]),
   midi.NoteOffEvent(tick=480, channel=3, data=[56, 0]),
   midi.NoteOffEvent(tick=0, channel=3, data=[44, 0]),
   midi.NoteOnEvent(tick=0, channel=3, data=[56, 116]),
   midi.NoteOnEvent(tick=0, channel=3, data=[44, 115]),
   midi.NoteOffEvent(tick=480, channel=3, data=[56, 0]),
   midi.NoteOffEvent(tick=0, channel=3, data=[44, 0]),
   midi.NoteOnEvent(tick=0, channel=3, data=[53, 107]),
   midi.NoteOnEvent(tick=0, channel=3, data=[41, 113]),
   midi.NoteOffEvent(tick=480, channel=3, data=[53, 0]),
   midi.NoteOffEvent(tick=0, channel=3, data=[41, 0]),
   midi.NoteOnEvent(tick=0, channel=3, data=[56, 118]),
   midi.NoteOnEvent(tick=0, channel=3, data=[44, 116]),
   midi.NoteOffEvent(tick=480, channel=3, data=[56, 0]),
   midi.NoteOffEvent(tick=0, channel=3, data=[44, 0]),
   midi.NoteOnEvent(tick=0, channel=3, data=[56, 117]),
   midi.NoteOnEvent(tick=0, channel=3, data=[44, 115]),
   midi.NoteOffEvent(tick=480, channel=3, data=[56, 0]),
   midi.NoteOffEvent(tick=0, channel=3, data=[44, 0]),
   midi.NoteOnEvent(tick=0, channel=3, data=[56, 117]),
   midi.NoteOnEvent(tick=0, channel=3, data=[44, 115]),
   midi.NoteOffEvent(tick=480, channel=3, data=[56, 0]),
   midi.NoteOffEvent(tick=0, channel=3, data=[44, 0]),
   midi.NoteOnEvent(tick=0, channel=3, data=[53, 107]),
   midi.NoteOnEvent(tick=0, channel=3, data=[41, 113]),
   midi.NoteOffEvent(tick=480, channel=3, data=[53, 0]),
   midi.NoteOffEvent(tick=0, channel=3, data=[41, 0]),
   midi.NoteOnEvent(tick=0, channel=3, data=[55, 113]),
   midi.NoteOnEvent(tick=0, channel=3, data=[43, 113]),
   midi.NoteOffEvent(tick=480, channel=3, data=[55, 0]),
   midi.NoteOffEvent(tick=0, channel=3, data=[43, 0]),
   midi.NoteOnEvent(tick=0, channel=3, data=[55, 113]),
   midi.NoteOnEvent(tick=0, channel=3, data=[43, 113]),
   midi.NoteOffEvent(tick=480, channel=3, data=[55, 0]),
   midi.NoteOffEvent(tick=0, channel=3, data=[43, 0]),
   midi.NoteOnEvent(tick=0, channel=3, data=[55, 113]),
   midi.NoteOnEvent(tick=0, channel=3, data=[43, 113]),
   midi.NoteOffEvent(tick=480, channel=3, data=[55, 0]),
   midi.NoteOffEvent(tick=0, channel=3, data=[43, 0]),
   midi.NoteOnEvent(tick=0, channel=3, data=[51, 111]),
   midi.NoteOnEvent(tick=0, channel=3, data=[39, 114]),
   midi.NoteOffEvent(tick=3840, channel=3, data=[51, 0]),
   midi.NoteOffEvent(tick=0, channel=3, data=[39, 0]),
   midi.NoteOnEvent(tick=2400, channel=3, data=[53, 113]),
   midi.NoteOnEvent(tick=0, channel=3, data=[41, 113]),
   midi.NoteOffEvent(tick=480, channel=3, data=[53, 0]),
   midi.NoteOffEvent(tick=0, channel=3, data=[41, 0]),
   midi.NoteOnEvent(tick=0, channel=3, data=[53, 113]),
   midi.NoteOnEvent(tick=0, channel=3, data=[41, 113]),
   midi.NoteOffEvent(tick=480, channel=3, data=[53, 0]),
   midi.NoteOffEvent(tick=0, channel=3, data=[41, 0]),
   midi.NoteOnEvent(tick=0, channel=3, data=[53, 113]),
   midi.NoteOnEvent(tick=0, channel=3, data=[41, 113]),
   midi.NoteOffEvent(tick=480, channel=3, data=[53, 0]),
   midi.NoteOffEvent(tick=0, channel=3, data=[41, 0]),
   midi.NoteOnEvent(tick=0, channel=3, data=[50, 115]),
   midi.NoteOnEvent(tick=0, channel=3, data=[38, 117]),
   midi.NoteOffEvent(tick=5760, channel=3, data=[50, 0]),
   midi.NoteOffEvent(tick=0, channel=3, data=[38, 0]),
   midi.NoteOnEvent(tick=3840, channel=3, data=[60, 65]),
   midi.NoteOnEvent(tick=0, channel=3, data=[48, 65]),
   midi.NoteOffEvent(tick=4800, channel=3, data=[60, 0]),
   midi.NoteOffEvent(tick=0, channel=3, data=[48, 0]),
   midi.NoteOnEvent(tick=0, channel=3, data=[60, 61]),
   midi.NoteOnEvent(tick=0, channel=3, data=[48, 61]),
   midi.NoteOffEvent(tick=960, channel=3, data=[60, 0]),
   midi.NoteOffEvent(tick=0, channel=3, data=[48, 0]),
   midi.NoteOnEvent(tick=0, channel=3, data=[63, 66]),
   midi.NoteOnEvent(tick=0, channel=3, data=[51, 65]),
   midi.NoteOffEvent(tick=960, channel=3, data=[63, 0]),
   midi.NoteOffEvent(tick=0, channel=3, data=[51, 0]),
   midi.NoteOnEvent(tick=0, channel=3, data=[60, 60]),
   midi.NoteOnEvent(tick=0, channel=3, data=[48, 60]),
   midi.NoteOffEvent(tick=960, channel=3, data=[60, 0]),
   midi.NoteOffEvent(tick=0, channel=3, data=[48, 0]),
   midi.NoteOnEvent(tick=0, channel=3, data=[59, 64]),
   midi.NoteOnEvent(tick=0, channel=3, data=[47, 64]),
   midi.NoteOffEvent(tick=4800, channel=3, data=[59, 0]),
   midi.NoteOffEvent(tick=0, channel=3, data=[47, 0]),
   midi.NoteOnEvent(tick=0, channel=3, data=[55, 61]),
   midi.NoteOnEvent(tick=0, channel=3, data=[43, 61]),
   midi.NoteOffEvent(tick=960, channel=3, data=[55, 0]),
   midi.NoteOffEvent(tick=0, channel=3, data=[43, 0]),
   midi.NoteOnEvent(tick=0, channel=3, data=[59, 66]),
   midi.NoteOnEvent(tick=0, channel=3, data=[47, 65]),
   midi.NoteOffEvent(tick=960, channel=3, data=[59, 0]),
   midi.NoteOffEvent(tick=0, channel=3, data=[47, 0]),
   midi.NoteOnEvent(tick=0, channel=3, data=[55, 60]),
   midi.NoteOnEvent(tick=0, channel=3, data=[43, 60]),
   midi.NoteOffEvent(tick=960, channel=3, data=[55, 0]),
   midi.NoteOffEvent(tick=0, channel=3, data=[43, 0]),
   midi.NoteOnEvent(tick=0, channel=3, data=[60, 67]),
   midi.NoteOnEvent(tick=0, channel=3, data=[48, 66]),
   midi.NoteOffEvent(tick=1920, channel=3, data=[60, 0]),
   midi.NoteOffEvent(tick=0, channel=3, data=[48, 0]),
   midi.NoteOnEvent(tick=0, channel=3, data=[59, 65]),
   midi.NoteOnEvent(tick=0, channel=3, data=[47, 65]),
   midi.NoteOffEvent(tick=1920, channel=3, data=[59, 0]),
   midi.NoteOffEvent(tick=0, channel=3, data=[47, 0]),
   midi.NoteOnEvent(tick=0, channel=3, data=[60, 65]),
   midi.NoteOnEvent(tick=0, channel=3, data=[48, 65]),
   midi.NoteOffEvent(tick=1920, channel=3, data=[60, 0]),
   midi.NoteOffEvent(tick=0, channel=3, data=[48, 0]),
   midi.NoteOnEvent(tick=0, channel=3, data=[55, 64]),
   midi.NoteOnEvent(tick=0, channel=3, data=[43, 64]),
   midi.NoteOffEvent(tick=1920, channel=3, data=[55, 0]),
   midi.NoteOffEvent(tick=0, channel=3, data=[43, 0]),
   midi.NoteOnEvent(tick=0, channel=3, data=[60, 76]),
   midi.NoteOnEvent(tick=0, channel=3, data=[48, 76]),
   midi.NoteOffEvent(tick=1920, channel=3, data=[60, 0]),
   midi.NoteOffEvent(tick=0, channel=3, data=[48, 0]),
   midi.NoteOnEvent(tick=0, channel=3, data=[44, 88]),
   midi.NoteOnEvent(tick=0, channel=3, data=[56, 88]),
   midi.NoteOffEvent(tick=1920, channel=3, data=[44, 0]),
   midi.NoteOffEvent(tick=0, channel=3, data=[56, 0]),
   midi.NoteOnEvent(tick=0, channel=3, data=[43, 103]),
   midi.NoteOnEvent(tick=0, channel=3, data=[55, 103]),
   midi.NoteOffEvent(tick=960, channel=3, data=[43, 0]),
   midi.NoteOffEvent(tick=0, channel=3, data=[55, 0]),
   midi.NoteOnEvent(tick=20160, channel=3, data=[62, 89]),
   midi.NoteOffEvent(tick=5760, channel=3, data=[62, 0]),
   midi.NoteOnEvent(tick=0, channel=3, data=[60, 103]),
   midi.NoteOffEvent(tick=960, channel=3, data=[60, 0]),
   midi.NoteOnEvent(tick=1440, channel=3, data=[68, 101]),
   midi.NoteOnEvent(tick=0, channel=3, data=[65, 98]),
   midi.NoteOffEvent(tick=480, channel=3, data=[68, 0]),
   midi.NoteOffEvent(tick=0, channel=3, data=[65, 0]),
   midi.NoteOnEvent(tick=0, channel=3, data=[68, 101]),
   midi.NoteOnEvent(tick=0, channel=3, data=[65, 98]),
   midi.NoteOffEvent(tick=480, channel=3, data=[68, 0]),
   midi.NoteOffEvent(tick=0, channel=3, data=[65, 0]),
   midi.NoteOnEvent(tick=0, channel=3, data=[68, 100]),
   midi.NoteOnEvent(tick=0, channel=3, data=[65, 98]),
   midi.NoteOffEvent(tick=480, channel=3, data=[68, 0]),
   midi.NoteOffEvent(tick=0, channel=3, data=[65, 0]),
   midi.NoteOnEvent(tick=0, channel=3, data=[68, 106]),
   midi.NoteOnEvent(tick=0, channel=3, data=[65, 104]),
   midi.NoteOffEvent(tick=960, channel=3, data=[68, 0]),
   midi.NoteOffEvent(tick=0, channel=3, data=[65, 0]),
   midi.NoteOnEvent(tick=1440, channel=3, data=[67, 97]),
   midi.NoteOnEvent(tick=0, channel=3, data=[63, 95]),
   midi.NoteOffEvent(tick=480, channel=3, data=[67, 0]),
   midi.NoteOffEvent(tick=0, channel=3, data=[63, 0]),
   midi.NoteOnEvent(tick=0, channel=3, data=[67, 97]),
   midi.NoteOnEvent(tick=0, channel=3, data=[63, 95]),
   midi.NoteOffEvent(tick=480, channel=3, data=[67, 0]),
   midi.NoteOffEvent(tick=0, channel=3, data=[63, 0]),
   midi.NoteOnEvent(tick=0, channel=3, data=[67, 97]),
   midi.NoteOnEvent(tick=0, channel=3, data=[63, 96]),
   midi.NoteOffEvent(tick=480, channel=3, data=[67, 0]),
   midi.NoteOffEvent(tick=0, channel=3, data=[63, 0]),
   midi.NoteOnEvent(tick=0, channel=3, data=[67, 103]),
   midi.NoteOnEvent(tick=0, channel=3, data=[63, 102]),
   midi.NoteOffEvent(tick=960, channel=3, data=[67, 0]),
   midi.NoteOffEvent(tick=0, channel=3, data=[63, 0]),
   midi.NoteOnEvent(tick=960, channel=3, data=[59, 90]),
   midi.NoteOffEvent(tick=960, channel=3, data=[59, 0]),
   midi.NoteOnEvent(tick=960, channel=3, data=[58, 95]),
   midi.NoteOnEvent(tick=0, channel=3, data=[48, 96]),
   midi.NoteOffEvent(tick=960, channel=3, data=[58, 0]),
   midi.NoteOffEvent(tick=0, channel=3, data=[48, 0]),
   midi.NoteOnEvent(tick=960, channel=3, data=[56, 99]),
   midi.NoteOnEvent(tick=0, channel=3, data=[48, 102]),
   midi.NoteOffEvent(tick=960, channel=3, data=[56, 0]),
   midi.NoteOffEvent(tick=0, channel=3, data=[48, 0]),
   midi.NoteOnEvent(tick=960, channel=3, data=[52, 99]),
   midi.NoteOnEvent(tick=0, channel=3, data=[48, 104]),
   midi.NoteOffEvent(tick=960, channel=3, data=[52, 0]),
   midi.NoteOffEvent(tick=0, channel=3, data=[48, 0]),
   midi.NoteOnEvent(tick=960, channel=3, data=[53, 103]),
   midi.NoteOnEvent(tick=0, channel=3, data=[48, 104]),
   midi.NoteOffEvent(tick=960, channel=3, data=[53, 0]),
   midi.NoteOffEvent(tick=0, channel=3, data=[48, 0]),
   midi.NoteOnEvent(tick=960, channel=3, data=[60, 110]),
   midi.NoteOnEvent(tick=0, channel=3, data=[48, 104]),
   midi.NoteOffEvent(tick=960, channel=3, data=[60, 0]),
   midi.NoteOffEvent(tick=0, channel=3, data=[48, 0]),
   midi.NoteOnEvent(tick=960, channel=3, data=[51, 99]),
   midi.NoteOnEvent(tick=0, channel=3, data=[48, 104]),
   midi.NoteOffEvent(tick=7680, channel=3, data=[51, 0]),
   midi.NoteOffEvent(tick=0, channel=3, data=[48, 0]),
   midi.NoteOnEvent(tick=0, channel=3, data=[50, 104]),
   midi.NoteOnEvent(tick=0, channel=3, data=[47, 104]),
   midi.NoteOffEvent(tick=6720, channel=3, data=[50, 0]),
   midi.NoteOffEvent(tick=0, channel=3, data=[47, 0]),
   midi.NoteOnEvent(tick=0, channel=3, data=[51, 98]),
   midi.NoteOnEvent(tick=0, channel=3, data=[48, 98]),
   midi.NoteOffEvent(tick=960, channel=3, data=[51, 0]),
   midi.NoteOffEvent(tick=0, channel=3, data=[48, 0]),
   midi.NoteOnEvent(tick=0, channel=3, data=[63, 127]),
   midi.NoteOnEvent(tick=0, channel=3, data=[60, 127]),
   midi.NoteOffEvent(tick=7680, channel=3, data=[63, 0]),
   midi.NoteOffEvent(tick=0, channel=3, data=[60, 0]),
   midi.NoteOnEvent(tick=0, channel=3, data=[63, 120]),
   midi.NoteOnEvent(tick=0, channel=3, data=[60, 120]),
   midi.NoteOffEvent(tick=960, channel=3, data=[63, 0]),
   midi.NoteOffEvent(tick=0, channel=3, data=[60, 0]),
   midi.NoteOnEvent(tick=2880, channel=3, data=[62, 119]),
   midi.NoteOnEvent(tick=0, channel=3, data=[59, 119]),
   midi.NoteOffEvent(tick=960, channel=3, data=[62, 0]),
   midi.NoteOffEvent(tick=0, channel=3, data=[59, 0]),
   midi.NoteOnEvent(tick=1440, channel=3, data=[67, 116]),
   midi.NoteOffEvent(tick=480, channel=3, data=[67, 0]),
   midi.NoteOnEvent(tick=0, channel=3, data=[67, 115]),
   midi.NoteOffEvent(tick=480, channel=3, data=[67, 0]),
   midi.NoteOnEvent(tick=0, channel=3, data=[67, 115]),
   midi.NoteOffEvent(tick=480, channel=3, data=[67, 0]),
   midi.NoteOnEvent(tick=0, channel=3, data=[60, 90]),
   midi.NoteOffEvent(tick=1920, channel=3, data=[60, 0]),
   midi.NoteOnEvent(tick=0, channel=3, data=[62, 99]),
   midi.NoteOffEvent(tick=1920, channel=3, data=[62, 0]),
   midi.NoteOnEvent(tick=0, channel=3, data=[55, 58]),
   midi.NoteOffEvent(tick=9600, channel=3, data=[55, 0]),
   midi.NoteOnEvent(tick=0, channel=3, data=[67, 65]),
   midi.NoteOnEvent(tick=0, channel=3, data=[64, 65]),
   midi.NoteOnEvent(tick=1920, channel=3, data=[65, 64]),
   midi.NoteOnEvent(tick=0, channel=3, data=[62, 64]),
   midi.NoteOffEvent(tick=75, channel=3, data=[67, 0]),
   midi.NoteOffEvent(tick=0, channel=3, data=[64, 0]),
   midi.NoteOffEvent(tick=1654, channel=3, data=[65, 0]),
   midi.NoteOffEvent(tick=0, channel=3, data=[62, 0]),
   midi.NoteOnEvent(tick=191, channel=3, data=[62, 63]),
   midi.NoteOnEvent(tick=0, channel=3, data=[55, 61]),
   midi.NoteOnEvent(tick=1920, channel=3, data=[64, 65]),
   midi.NoteOnEvent(tick=0, channel=3, data=[60, 66]),
   midi.NoteOffEvent(tick=75, channel=3, data=[62, 0]),
   midi.NoteOffEvent(tick=0, channel=3, data=[55, 0]),
   midi.NoteOffEvent(tick=1654, channel=3, data=[64, 0]),
   midi.NoteOffEvent(tick=0, channel=3, data=[60, 0]),
   midi.NoteOnEvent(tick=191, channel=3, data=[55, 59]),
   midi.NoteOnEvent(tick=0, channel=3, data=[52, 61]),
   midi.NoteOnEvent(tick=1920, channel=3, data=[53, 62]),
   midi.NoteOnEvent(tick=0, channel=3, data=[50, 62]),
   midi.NoteOffEvent(tick=75, channel=3, data=[55, 0]),
   midi.NoteOffEvent(tick=0, channel=3, data=[52, 0]),
   midi.NoteOffEvent(tick=1654, channel=3, data=[53, 0]),
   midi.NoteOffEvent(tick=0, channel=3, data=[50, 0]),
   midi.NoteOnEvent(tick=191, channel=3, data=[50, 62]),
   midi.NoteOnEvent(tick=0, channel=3, data=[43, 62]),
   midi.NoteOnEvent(tick=1920, channel=3, data=[52, 65]),
   midi.NoteOnEvent(tick=0, channel=3, data=[48, 65]),
   midi.NoteOffEvent(tick=75, channel=3, data=[50, 0]),
   midi.NoteOffEvent(tick=0, channel=3, data=[43, 0]),
   midi.NoteOffEvent(tick=1654, channel=3, data=[52, 0]),
   midi.NoteOffEvent(tick=0, channel=3, data=[48, 0]),
   midi.NoteOnEvent(tick=191, channel=3, data=[67, 71]),
   midi.NoteOnEvent(tick=0, channel=3, data=[64, 71]),
   midi.NoteOnEvent(tick=1920, channel=3, data=[65, 67]),
   midi.NoteOnEvent(tick=0, channel=3, data=[62, 67]),
   midi.NoteOffEvent(tick=38, channel=3, data=[67, 0]),
   midi.NoteOffEvent(tick=0, channel=3, data=[64, 0]),
   midi.NoteOffEvent(tick=1785, channel=3, data=[65, 0]),
   midi.NoteOffEvent(tick=0, channel=3, data=[62, 0]),
   midi.NoteOnEvent(tick=97, channel=3, data=[62, 63]),
   midi.NoteOnEvent(tick=0, channel=3, data=[55, 61]),
   midi.NoteOnEvent(tick=1920, channel=3, data=[64, 65]),
   midi.NoteOnEvent(tick=0, channel=3, data=[60, 66]),
   midi.NoteOffEvent(tick=38, channel=3, data=[62, 0]),
   midi.NoteOffEvent(tick=0, channel=3, data=[55, 0]),
   midi.NoteOffEvent(tick=1785, channel=3, data=[64, 0]),
   midi.NoteOffEvent(tick=0, channel=3, data=[60, 0]),
   midi.NoteOnEvent(tick=97, channel=3, data=[58, 61]),
   midi.NoteOnEvent(tick=0, channel=3, data=[55, 62]),
   midi.NoteOffEvent(tick=1920, channel=3, data=[55, 0]),
   midi.NoteOnEvent(tick=0, channel=3, data=[55, 61]),
   midi.NoteOnEvent(tick=0, channel=3, data=[52, 62]),
   midi.NoteOffEvent(tick=38, channel=3, data=[58, 0]),
   midi.NoteOffEvent(tick=1785, channel=3, data=[55, 0]),
   midi.NoteOffEvent(tick=0, channel=3, data=[52, 0]),
   midi.NoteOnEvent(tick=97, channel=3, data=[52, 62]),
   midi.NoteOnEvent(tick=0, channel=3, data=[48, 62]),
   midi.NoteOnEvent(tick=1920, channel=3, data=[53, 64]),
   midi.NoteOffEvent(tick=38, channel=3, data=[52, 0]),
   midi.NoteOffEvent(tick=0, channel=3, data=[48, 0]),
   midi.NoteOffEvent(tick=1785, channel=3, data=[53, 0]),
   midi.NoteOnEvent(tick=97, channel=3, data=[60, 69]),
   midi.NoteOnEvent(tick=0, channel=3, data=[57, 67]),
   midi.NoteOffEvent(tick=1920, channel=3, data=[57, 0]),
   midi.NoteOnEvent(tick=0, channel=3, data=[57, 65]),
   midi.NoteOnEvent(tick=0, channel=3, data=[54, 64]),
   midi.NoteOffEvent(tick=38, channel=3, data=[60, 0]),
   midi.NoteOffEvent(tick=1785, channel=3, data=[57, 0]),
   midi.NoteOffEvent(tick=0, channel=3, data=[54, 0]),
   midi.NoteOnEvent(tick=97, channel=3, data=[54, 63]),
   midi.NoteOnEvent(tick=0, channel=3, data=[50, 63]),
   midi.NoteOnEvent(tick=1920, channel=3, data=[55, 64]),
   midi.NoteOffEvent(tick=38, channel=3, data=[54, 0]),
   midi.NoteOffEvent(tick=0, channel=3, data=[50, 0]),
   midi.NoteOffEvent(tick=1785, channel=3, data=[55, 0]),
   midi.NoteOnEvent(tick=97, channel=3, data=[56, 76]),
   midi.NoteOnEvent(tick=0, channel=3, data=[44, 74]),
   midi.NoteOffEvent(tick=5760, channel=3, data=[56, 0]),
   midi.NoteOffEvent(tick=0, channel=3, data=[44, 0]),
   midi.NoteOnEvent(tick=0, channel=3, data=[58, 76]),
   midi.NoteOnEvent(tick=0, channel=3, data=[46, 75]),
   midi.NoteOffEvent(tick=3840, channel=3, data=[58, 0]),
   midi.NoteOffEvent(tick=0, channel=3, data=[46, 0]),
   midi.NoteOnEvent(tick=0, channel=3, data=[62, 90]),
   midi.NoteOnEvent(tick=0, channel=3, data=[50, 90]),
   midi.NoteOffEvent(tick=7680, channel=3, data=[62, 0]),
   midi.NoteOffEvent(tick=0, channel=3, data=[50, 0]),
   midi.NoteOnEvent(tick=0, channel=3, data=[62, 89]),
   midi.NoteOnEvent(tick=0, channel=3, data=[50, 89]),
   midi.NoteOffEvent(tick=3840, channel=3, data=[62, 0]),
   midi.NoteOffEvent(tick=0, channel=3, data=[50, 0]),
   midi.NoteOnEvent(tick=0, channel=3, data=[62, 89]),
   midi.NoteOnEvent(tick=0, channel=3, data=[50, 89]),
   midi.NoteOffEvent(tick=7680, channel=3, data=[62, 0]),
   midi.NoteOffEvent(tick=0, channel=3, data=[50, 0]),
   midi.NoteOnEvent(tick=0, channel=3, data=[65, 120]),
   midi.NoteOnEvent(tick=0, channel=3, data=[62, 120]),
   midi.NoteOffEvent(tick=2880, channel=3, data=[65, 0]),
   midi.NoteOffEvent(tick=0, channel=3, data=[62, 0]),
   midi.NoteOnEvent(tick=0, channel=3, data=[65, 113]),
   midi.NoteOnEvent(tick=0, channel=3, data=[59, 112]),
   midi.NoteOffEvent(tick=960, channel=3, data=[65, 0]),
   midi.NoteOffEvent(tick=0, channel=3, data=[59, 0]),
   midi.NoteOnEvent(tick=0, channel=3, data=[64, 119]),
   midi.NoteOnEvent(tick=0, channel=3, data=[60, 120]),
   midi.NoteOffEvent(tick=960, channel=3, data=[64, 0]),
   midi.NoteOffEvent(tick=0, channel=3, data=[60, 0]),
   midi.NoteOnEvent(tick=960, channel=3, data=[65, 120]),
   midi.NoteOnEvent(tick=0, channel=3, data=[59, 119]),
   midi.NoteOffEvent(tick=960, channel=3, data=[65, 0]),
   midi.NoteOffEvent(tick=0, channel=3, data=[59, 0]),
   midi.NoteOnEvent(tick=960, channel=3, data=[64, 119]),
   midi.NoteOnEvent(tick=0, channel=3, data=[60, 121]),
   midi.NoteOffEvent(tick=960, channel=3, data=[64, 0]),
   midi.NoteOffEvent(tick=0, channel=3, data=[60, 0]),
   midi.NoteOnEvent(tick=960, channel=3, data=[65, 121]),
   midi.NoteOnEvent(tick=0, channel=3, data=[53, 113]),
   midi.NoteOffEvent(tick=960, channel=3, data=[65, 0]),
   midi.NoteOffEvent(tick=0, channel=3, data=[53, 0]),
   midi.NoteOnEvent(tick=960, channel=3, data=[67, 122]),
   midi.NoteOnEvent(tick=0, channel=3, data=[55, 119]),
   midi.NoteOffEvent(tick=960, channel=3, data=[67, 0]),
   midi.NoteOffEvent(tick=0, channel=3, data=[55, 0]),
   midi.NoteOnEvent(tick=960, channel=3, data=[55, 108]),
   midi.NoteOnEvent(tick=0, channel=3, data=[43, 113]),
   midi.NoteOffEvent(tick=960, channel=3, data=[55, 0]),
   midi.NoteOffEvent(tick=0, channel=3, data=[43, 0]),
   midi.NoteOnEvent(tick=960, channel=3, data=[50, 113]),
   midi.NoteOnEvent(tick=0, channel=3, data=[47, 119]),
   midi.NoteOffEvent(tick=3840, channel=3, data=[50, 0]),
   midi.NoteOffEvent(tick=0, channel=3, data=[47, 0]),
   midi.NoteOnEvent(tick=0, channel=3, data=[52, 120]),
   midi.NoteOnEvent(tick=0, channel=3, data=[48, 120]),
   midi.NoteOffEvent(tick=960, channel=3, data=[52, 0]),
   midi.NoteOffEvent(tick=0, channel=3, data=[48, 0]),
   midi.NoteOnEvent(tick=0, channel=3, data=[52, 113]),
   midi.NoteOnEvent(tick=0, channel=3, data=[48, 113]),
   midi.NoteOffEvent(tick=960, channel=3, data=[52, 0]),
   midi.NoteOffEvent(tick=0, channel=3, data=[48, 0]),
   midi.NoteOnEvent(tick=960, channel=3, data=[53, 114]),
   midi.NoteOnEvent(tick=0, channel=3, data=[50, 115]),
   midi.NoteOffEvent(tick=960, channel=3, data=[53, 0]),
   midi.NoteOffEvent(tick=0, channel=3, data=[50, 0]),
   midi.NoteOnEvent(tick=960, channel=3, data=[55, 116]),
   midi.NoteOnEvent(tick=0, channel=3, data=[52, 116]),
   midi.NoteOffEvent(tick=960, channel=3, data=[55, 0]),
   midi.NoteOffEvent(tick=0, channel=3, data=[52, 0]),
   midi.NoteOnEvent(tick=960, channel=3, data=[57, 116]),
   midi.NoteOnEvent(tick=0, channel=3, data=[53, 115]),
   midi.NoteOffEvent(tick=960, channel=3, data=[57, 0]),
   midi.NoteOffEvent(tick=0, channel=3, data=[53, 0]),
   midi.NoteOnEvent(tick=960, channel=3, data=[60, 117]),
   midi.NoteOnEvent(tick=0, channel=3, data=[55, 116]),
   midi.NoteOffEvent(tick=960, channel=3, data=[60, 0]),
   midi.NoteOffEvent(tick=0, channel=3, data=[55, 0]),
   midi.NoteOnEvent(tick=960, channel=3, data=[59, 114]),
   midi.NoteOnEvent(tick=0, channel=3, data=[55, 114]),
   midi.NoteOffEvent(tick=960, channel=3, data=[59, 0]),
   midi.NoteOffEvent(tick=0, channel=3, data=[55, 0]),
   midi.NoteOnEvent(tick=0, channel=3, data=[60, 122]),
   midi.NoteOnEvent(tick=0, channel=3, data=[55, 120]),
   midi.NoteOffEvent(tick=480, channel=3, data=[60, 0]),
   midi.NoteOffEvent(tick=0, channel=3, data=[55, 0]),
   midi.NoteOnEvent(tick=0, channel=3, data=[64, 123]),
   midi.NoteOnEvent(tick=0, channel=3, data=[52, 108]),
   midi.NoteOffEvent(tick=480, channel=3, data=[64, 0]),
   midi.NoteOffEvent(tick=0, channel=3, data=[52, 0]),
   midi.NoteOnEvent(tick=0, channel=3, data=[64, 121]),
   midi.NoteOnEvent(tick=0, channel=3, data=[52, 108]),
   midi.NoteOffEvent(tick=480, channel=3, data=[64, 0]),
   midi.NoteOffEvent(tick=0, channel=3, data=[52, 0]),
   midi.NoteOnEvent(tick=0, channel=3, data=[64, 120]),
   midi.NoteOnEvent(tick=0, channel=3, data=[52, 109]),
   midi.NoteOffEvent(tick=480, channel=3, data=[64, 0]),
   midi.NoteOffEvent(tick=0, channel=3, data=[52, 0]),
   midi.NoteOnEvent(tick=0, channel=3, data=[60, 110]),
   midi.NoteOnEvent(tick=0, channel=3, data=[48, 107]),
   midi.NoteOffEvent(tick=480, channel=3, data=[60, 0]),
   midi.NoteOffEvent(tick=0, channel=3, data=[48, 0]),
   midi.NoteOnEvent(tick=0, channel=3, data=[67, 127]),
   midi.NoteOnEvent(tick=0, channel=3, data=[55, 125]),
   midi.NoteOffEvent(tick=480, channel=3, data=[67, 0]),
   midi.NoteOffEvent(tick=0, channel=3, data=[55, 0]),
   midi.NoteOnEvent(tick=0, channel=3, data=[67, 127]),
   midi.NoteOnEvent(tick=0, channel=3, data=[55, 124]),
   midi.NoteOffEvent(tick=480, channel=3, data=[67, 0]),
   midi.NoteOffEvent(tick=0, channel=3, data=[55, 0]),
   midi.NoteOnEvent(tick=0, channel=3, data=[67, 126]),
   midi.NoteOnEvent(tick=0, channel=3, data=[55, 123]),
   midi.NoteOffEvent(tick=480, channel=3, data=[67, 0]),
   midi.NoteOffEvent(tick=0, channel=3, data=[55, 0]),
   midi.NoteOnEvent(tick=0, channel=3, data=[64, 117]),
   midi.NoteOnEvent(tick=0, channel=3, data=[52, 114]),
   midi.NoteOffEvent(tick=480, channel=3, data=[64, 0]),
   midi.NoteOffEvent(tick=0, channel=3, data=[52, 0]),
   midi.NoteOnEvent(tick=0, channel=3, data=[60, 96]),
   midi.NoteOnEvent(tick=0, channel=3, data=[48, 98]),
   midi.NoteOffEvent(tick=480, channel=3, data=[60, 0]),
   midi.NoteOffEvent(tick=0, channel=3, data=[48, 0]),
   midi.NoteOnEvent(tick=0, channel=3, data=[60, 97]),
   midi.NoteOnEvent(tick=0, channel=3, data=[48, 99]),
   midi.NoteOffEvent(tick=480, channel=3, data=[60, 0]),
   midi.NoteOffEvent(tick=0, channel=3, data=[48, 0]),
   midi.NoteOnEvent(tick=0, channel=3, data=[60, 99]),
   midi.NoteOnEvent(tick=0, channel=3, data=[48, 101]),
   midi.NoteOffEvent(tick=480, channel=3, data=[60, 0]),
   midi.NoteOffEvent(tick=0, channel=3, data=[48, 0]),
   midi.NoteOnEvent(tick=0, channel=3, data=[55, 102]),
   midi.NoteOnEvent(tick=0, channel=3, data=[43, 102]),
   midi.NoteOffEvent(tick=2400, channel=3, data=[55, 0]),
   midi.NoteOffEvent(tick=0, channel=3, data=[43, 0]),
   midi.NoteOnEvent(tick=0, channel=3, data=[64, 121]),
   midi.NoteOffEvent(tick=480, channel=3, data=[64, 0]),
   midi.NoteOnEvent(tick=0, channel=3, data=[64, 120]),
   midi.NoteOffEvent(tick=480, channel=3, data=[64, 0]),
   midi.NoteOnEvent(tick=0, channel=3, data=[64, 119]),
   midi.NoteOffEvent(tick=480, channel=3, data=[64, 0]),
   midi.NoteOnEvent(tick=0, channel=3, data=[60, 110]),
   midi.NoteOffEvent(tick=480, channel=3, data=[60, 0]),
   midi.NoteOnEvent(tick=0, channel=3, data=[67, 127]),
   midi.NoteOnEvent(tick=0, channel=3, data=[55, 120]),
   midi.NoteOffEvent(tick=480, channel=3, data=[67, 0]),
   midi.NoteOffEvent(tick=0, channel=3, data=[55, 0]),
   midi.NoteOnEvent(tick=0, channel=3, data=[67, 127]),
   midi.NoteOnEvent(tick=0, channel=3, data=[55, 118]),
   midi.NoteOffEvent(tick=480, channel=3, data=[67, 0]),
   midi.NoteOffEvent(tick=0, channel=3, data=[55, 0]),
   midi.NoteOnEvent(tick=0, channel=3, data=[67, 125]),
   midi.NoteOnEvent(tick=0, channel=3, data=[55, 117]),
   midi.NoteOffEvent(tick=480, channel=3, data=[67, 0]),
   midi.NoteOffEvent(tick=0, channel=3, data=[55, 0]),
   midi.NoteOnEvent(tick=0, channel=3, data=[64, 116]),
   midi.NoteOnEvent(tick=0, channel=3, data=[52, 115]),
   midi.NoteOffEvent(tick=480, channel=3, data=[64, 0]),
   midi.NoteOffEvent(tick=0, channel=3, data=[52, 0]),
   midi.NoteOnEvent(tick=0, channel=3, data=[60, 96]),
   midi.NoteOnEvent(tick=0, channel=3, data=[48, 101]),
   midi.NoteOffEvent(tick=480, channel=3, data=[60, 0]),
   midi.NoteOffEvent(tick=0, channel=3, data=[48, 0]),
   midi.NoteOnEvent(tick=0, channel=3, data=[60, 98]),
   midi.NoteOnEvent(tick=0, channel=3, data=[48, 102]),
   midi.NoteOffEvent(tick=480, channel=3, data=[60, 0]),
   midi.NoteOffEvent(tick=0, channel=3, data=[48, 0]),
   midi.NoteOnEvent(tick=0, channel=3, data=[60, 99]),
   midi.NoteOnEvent(tick=0, channel=3, data=[48, 103]),
   midi.NoteOffEvent(tick=480, channel=3, data=[60, 0]),
   midi.NoteOffEvent(tick=0, channel=3, data=[48, 0]),
   midi.NoteOnEvent(tick=0, channel=3, data=[55, 102]),
   midi.NoteOnEvent(tick=0, channel=3, data=[43, 105]),
   midi.NoteOffEvent(tick=480, channel=3, data=[55, 0]),
   midi.NoteOffEvent(tick=0, channel=3, data=[43, 0]),
   midi.NoteOnEvent(tick=0, channel=3, data=[62, 116]),
   midi.NoteOnEvent(tick=0, channel=3, data=[59, 127]),
   midi.NoteOffEvent(tick=480, channel=3, data=[62, 0]),
   midi.NoteOffEvent(tick=0, channel=3, data=[59, 0]),
   midi.NoteOnEvent(tick=0, channel=3, data=[62, 116]),
   midi.NoteOnEvent(tick=0, channel=3, data=[59, 127]),
   midi.NoteOffEvent(tick=480, channel=3, data=[62, 0]),
   midi.NoteOffEvent(tick=0, channel=3, data=[59, 0]),
   midi.NoteOnEvent(tick=0, channel=3, data=[62, 116]),
   midi.NoteOnEvent(tick=0, channel=3, data=[59, 127]),
   midi.NoteOffEvent(tick=480, channel=3, data=[62, 0]),
   midi.NoteOffEvent(tick=0, channel=3, data=[59, 0]),
   midi.NoteOnEvent(tick=0, channel=3, data=[64, 127]),
   midi.NoteOnEvent(tick=0, channel=3, data=[60, 127]),
   midi.NoteOffEvent(tick=960, channel=3, data=[64, 0]),
   midi.NoteOffEvent(tick=0, channel=3, data=[60, 0]),
   midi.NoteOnEvent(tick=1440, channel=3, data=[62, 114]),
   midi.NoteOnEvent(tick=0, channel=3, data=[59, 122]),
   midi.NoteOffEvent(tick=480, channel=3, data=[62, 0]),
   midi.NoteOffEvent(tick=0, channel=3, data=[59, 0]),
   midi.NoteOnEvent(tick=0, channel=3, data=[62, 114]),
   midi.NoteOnEvent(tick=0, channel=3, data=[59, 119]),
   midi.NoteOffEvent(tick=480, channel=3, data=[62, 0]),
   midi.NoteOffEvent(tick=0, channel=3, data=[59, 0]),
   midi.NoteOnEvent(tick=0, channel=3, data=[62, 114]),
   midi.NoteOnEvent(tick=0, channel=3, data=[59, 117]),
   midi.NoteOffEvent(tick=480, channel=3, data=[62, 0]),
   midi.NoteOffEvent(tick=0, channel=3, data=[59, 0]),
   midi.NoteOnEvent(tick=0, channel=3, data=[64, 127]),
   midi.NoteOnEvent(tick=0, channel=3, data=[60, 127]),
   midi.NoteOffEvent(tick=960, channel=3, data=[64, 0]),
   midi.NoteOffEvent(tick=0, channel=3, data=[60, 0]),
   midi.NoteOnEvent(tick=1440, channel=3, data=[62, 112]),
   midi.NoteOnEvent(tick=0, channel=3, data=[55, 105]),
   midi.NoteOffEvent(tick=480, channel=3, data=[62, 0]),
   midi.NoteOffEvent(tick=0, channel=3, data=[55, 0]),
   midi.NoteOnEvent(tick=0, channel=3, data=[62, 112]),
   midi.NoteOnEvent(tick=0, channel=3, data=[55, 107]),
   midi.NoteOffEvent(tick=480, channel=3, data=[62, 0]),
   midi.NoteOffEvent(tick=0, channel=3, data=[55, 0]),
   midi.NoteOnEvent(tick=0, channel=3, data=[62, 112]),
   midi.NoteOnEvent(tick=0, channel=3, data=[55, 108]),
   midi.NoteOffEvent(tick=480, channel=3, data=[62, 0]),
   midi.NoteOffEvent(tick=0, channel=3, data=[55, 0]),
   midi.NoteOnEvent(tick=0, channel=3, data=[60, 112]),
   midi.NoteOnEvent(tick=0, channel=3, data=[48, 103]),
   midi.NoteOffEvent(tick=480, channel=3, data=[60, 0]),
   midi.NoteOffEvent(tick=0, channel=3, data=[48, 0]),
   midi.NoteOnEvent(tick=0, channel=3, data=[60, 107]),
   midi.NoteOnEvent(tick=0, channel=3, data=[48, 99]),
   midi.NoteOffEvent(tick=480, channel=3, data=[60, 0]),
   midi.NoteOffEvent(tick=0, channel=3, data=[48, 0]),
   midi.NoteOnEvent(tick=0, channel=3, data=[60, 108]),
   midi.NoteOnEvent(tick=0, channel=3, data=[48, 101]),
   midi.NoteOffEvent(tick=480, channel=3, data=[60, 0]),
   midi.NoteOffEvent(tick=0, channel=3, data=[48, 0]),
   midi.NoteOnEvent(tick=0, channel=3, data=[60, 109]),
   midi.NoteOnEvent(tick=0, channel=3, data=[48, 102]),
   midi.NoteOffEvent(tick=480, channel=3, data=[60, 0]),
   midi.NoteOffEvent(tick=0, channel=3, data=[48, 0]),
   midi.NoteOnEvent(tick=0, channel=3, data=[60, 116]),
   midi.NoteOnEvent(tick=0, channel=3, data=[48, 110]),
   midi.NoteOffEvent(tick=2400, channel=3, data=[60, 0]),
   midi.NoteOffEvent(tick=0, channel=3, data=[48, 0]),
   midi.NoteOnEvent(tick=0, channel=3, data=[60, 112]),
   midi.NoteOnEvent(tick=0, channel=3, data=[48, 111]),
   midi.NoteOffEvent(tick=480, channel=3, data=[60, 0]),
   midi.NoteOffEvent(tick=0, channel=3, data=[48, 0]),
   midi.NoteOnEvent(tick=0, channel=3, data=[60, 112]),
   midi.NoteOnEvent(tick=0, channel=3, data=[48, 111]),
   midi.NoteOffEvent(tick=480, channel=3, data=[60, 0]),
   midi.NoteOffEvent(tick=0, channel=3, data=[48, 0]),
   midi.NoteOnEvent(tick=0, channel=3, data=[60, 113]),
   midi.NoteOnEvent(tick=0, channel=3, data=[48, 112]),
   midi.NoteOffEvent(tick=480, channel=3, data=[60, 0]),
   midi.NoteOffEvent(tick=0, channel=3, data=[48, 0]),
   midi.NoteOnEvent(tick=0, channel=3, data=[60, 119]),
   midi.NoteOnEvent(tick=0, channel=3, data=[48, 119]),
   midi.NoteOffEvent(tick=2400, channel=3, data=[60, 0]),
   midi.NoteOffEvent(tick=0, channel=3, data=[48, 0]),
   midi.NoteOnEvent(tick=0, channel=3, data=[60, 113]),
   midi.NoteOnEvent(tick=0, channel=3, data=[48, 113]),
   midi.NoteOffEvent(tick=480, channel=3, data=[60, 0]),
   midi.NoteOffEvent(tick=0, channel=3, data=[48, 0]),
   midi.NoteOnEvent(tick=0, channel=3, data=[60, 113]),
   midi.NoteOnEvent(tick=0, channel=3, data=[48, 113]),
   midi.NoteOffEvent(tick=480, channel=3, data=[60, 0]),
   midi.NoteOffEvent(tick=0, channel=3, data=[48, 0]),
   midi.NoteOnEvent(tick=0, channel=3, data=[60, 113]),
   midi.NoteOnEvent(tick=0, channel=3, data=[48, 113]),
   midi.NoteOffEvent(tick=480, channel=3, data=[60, 0]),
   midi.NoteOffEvent(tick=0, channel=3, data=[48, 0]),
   midi.NoteOnEvent(tick=0, channel=3, data=[60, 120]),
   midi.NoteOnEvent(tick=0, channel=3, data=[48, 120]),
   midi.NoteOffEvent(tick=2400, channel=3, data=[60, 0]),
   midi.NoteOffEvent(tick=0, channel=3, data=[48, 0]),
   midi.NoteOnEvent(tick=0, channel=3, data=[60, 113]),
   midi.NoteOnEvent(tick=0, channel=3, data=[48, 113]),
   midi.NoteOffEvent(tick=480, channel=3, data=[60, 0]),
   midi.NoteOffEvent(tick=0, channel=3, data=[48, 0]),
   midi.NoteOnEvent(tick=0, channel=3, data=[60, 113]),
   midi.NoteOnEvent(tick=0, channel=3, data=[48, 113]),
   midi.NoteOffEvent(tick=480, channel=3, data=[60, 0]),
   midi.NoteOffEvent(tick=0, channel=3, data=[48, 0]),
   midi.NoteOnEvent(tick=0, channel=3, data=[60, 113]),
   midi.NoteOnEvent(tick=0, channel=3, data=[48, 113]),
   midi.NoteOffEvent(tick=480, channel=3, data=[60, 0]),
   midi.NoteOffEvent(tick=0, channel=3, data=[48, 0]),
   midi.NoteOnEvent(tick=0, channel=3, data=[60, 120]),
   midi.NoteOnEvent(tick=0, channel=3, data=[48, 120]),
   midi.NoteOffEvent(tick=480, channel=3, data=[60, 0]),
   midi.NoteOffEvent(tick=0, channel=3, data=[48, 0]),
   midi.NoteOnEvent(tick=0, channel=3, data=[56, 100]),
   midi.NoteOnEvent(tick=0, channel=3, data=[53, 127]),
   midi.NoteOffEvent(tick=480, channel=3, data=[56, 0]),
   midi.NoteOffEvent(tick=0, channel=3, data=[53, 0]),
   midi.NoteOnEvent(tick=0, channel=3, data=[56, 101]),
   midi.NoteOnEvent(tick=0, channel=3, data=[53, 126]),
   midi.NoteOffEvent(tick=480, channel=3, data=[56, 0]),
   midi.NoteOffEvent(tick=0, channel=3, data=[53, 0]),
   midi.NoteOnEvent(tick=0, channel=3, data=[56, 102]),
   midi.NoteOnEvent(tick=0, channel=3, data=[53, 125]),
   midi.NoteOffEvent(tick=480, channel=3, data=[56, 0]),
   midi.NoteOffEvent(tick=0, channel=3, data=[53, 0]),
   midi.NoteOnEvent(tick=0, channel=3, data=[56, 110]),
   midi.NoteOnEvent(tick=0, channel=3, data=[53, 127]),
   midi.NoteOffEvent(tick=7680, channel=3, data=[56, 0]),
   midi.NoteOffEvent(tick=0, channel=3, data=[53, 0]),
   midi.NoteOnEvent(tick=0, channel=3, data=[56, 120]),
   midi.NoteOnEvent(tick=0, channel=3, data=[53, 120]),
   midi.NoteOffEvent(tick=960, channel=3, data=[56, 0]),
   midi.NoteOffEvent(tick=0, channel=3, data=[53, 0]),
   midi.NoteOnEvent(tick=1440, channel=3, data=[65, 118]),
   midi.NoteOffEvent(tick=480, channel=3, data=[65, 0]),
   midi.NoteOnEvent(tick=0, channel=3, data=[65, 117]),
   midi.NoteOffEvent(tick=480, channel=3, data=[65, 0]),
   midi.NoteOnEvent(tick=0, channel=3, data=[65, 116]),
   midi.NoteOffEvent(tick=480, channel=3, data=[65, 0]),
   midi.NoteOnEvent(tick=0, channel=3, data=[68, 127]),
   midi.NoteOffEvent(tick=960, channel=3, data=[68, 0]),
   midi.NoteOnEvent(tick=3360, channel=3, data=[57, 106]),
   midi.NoteOnEvent(tick=0, channel=3, data=[54, 113]),
   midi.NoteOffEvent(tick=480, channel=3, data=[57, 0]),
   midi.NoteOffEvent(tick=0, channel=3, data=[54, 0]),
   midi.NoteOnEvent(tick=0, channel=3, data=[57, 108]),
   midi.NoteOnEvent(tick=0, channel=3, data=[54, 113]),
   midi.NoteOffEvent(tick=480, channel=3, data=[57, 0]),
   midi.NoteOffEvent(tick=0, channel=3, data=[54, 0]),
   midi.NoteOnEvent(tick=0, channel=3, data=[57, 109]),
   midi.NoteOnEvent(tick=0, channel=3, data=[54, 113]),
   midi.NoteOffEvent(tick=480, channel=3, data=[57, 0]),
   midi.NoteOffEvent(tick=0, channel=3, data=[54, 0]),
   midi.NoteOnEvent(tick=0, channel=3, data=[57, 117]),
   midi.NoteOnEvent(tick=0, channel=3, data=[54, 120]),
   midi.NoteOffEvent(tick=7680, channel=3, data=[57, 0]),
   midi.NoteOffEvent(tick=0, channel=3, data=[54, 0]),
   midi.NoteOnEvent(tick=0, channel=3, data=[57, 120]),
   midi.NoteOnEvent(tick=0, channel=3, data=[54, 120]),
   midi.NoteOffEvent(tick=960, channel=3, data=[57, 0]),
   midi.NoteOffEvent(tick=0, channel=3, data=[54, 0]),
   midi.NoteOnEvent(tick=1440, channel=3, data=[60, 115]),
   midi.NoteOffEvent(tick=480, channel=3, data=[60, 0]),
   midi.NoteOnEvent(tick=0, channel=3, data=[60, 114]),
   midi.NoteOffEvent(tick=480, channel=3, data=[60, 0]),
   midi.NoteOnEvent(tick=0, channel=3, data=[60, 114]),
   midi.NoteOffEvent(tick=480, channel=3, data=[60, 0]),
   midi.NoteOnEvent(tick=0, channel=3, data=[63, 127]),
   midi.NoteOffEvent(tick=960, channel=3, data=[63, 0]),
   midi.NoteOnEvent(tick=1440, channel=3, data=[67, 107]),
   midi.NoteOffEvent(tick=480, channel=3, data=[67, 0]),
   midi.NoteOnEvent(tick=0, channel=3, data=[67, 106]),
   midi.NoteOffEvent(tick=480, channel=3, data=[67, 0]),
   midi.NoteOnEvent(tick=0, channel=3, data=[67, 104]),
   midi.NoteOffEvent(tick=480, channel=3, data=[67, 0]),
   midi.NoteOnEvent(tick=0, channel=3, data=[63, 97]),
   midi.NoteOffEvent(tick=1920, channel=3, data=[63, 0]),
   midi.NoteOnEvent(tick=0, channel=3, data=[65, 103]),
   midi.NoteOffEvent(tick=1920, channel=3, data=[65, 0]),
   midi.NoteOnEvent(tick=0, channel=3, data=[62, 99]),
   midi.NoteOffEvent(tick=2400, channel=3, data=[62, 0]),
   midi.NoteOnEvent(tick=0, channel=3, data=[67, 101]),
   midi.NoteOffEvent(tick=480, channel=3, data=[67, 0]),
   midi.NoteOnEvent(tick=0, channel=3, data=[67, 100]),
   midi.NoteOffEvent(tick=480, channel=3, data=[67, 0]),
   midi.NoteOnEvent(tick=0, channel=3, data=[67, 100]),
   midi.NoteOffEvent(tick=480, channel=3, data=[67, 0]),
   midi.NoteOnEvent(tick=0, channel=3, data=[63, 95]),
   midi.NoteOffEvent(tick=1920, channel=3, data=[63, 0]),
   midi.NoteOnEvent(tick=0, channel=3, data=[65, 103]),
   midi.NoteOffEvent(tick=1920, channel=3, data=[65, 0]),
   midi.NoteOnEvent(tick=0, channel=3, data=[62, 99]),
   midi.NoteOffEvent(tick=2400, channel=3, data=[62, 0]),
   midi.NoteOnEvent(tick=0, channel=3, data=[67, 101]),
   midi.NoteOffEvent(tick=480, channel=3, data=[67, 0]),
   midi.NoteOnEvent(tick=0, channel=3, data=[67, 100]),
   midi.NoteOffEvent(tick=480, channel=3, data=[67, 0]),
   midi.NoteOnEvent(tick=0, channel=3, data=[67, 100]),
   midi.NoteOffEvent(tick=480, channel=3, data=[67, 0]),
   midi.NoteOnEvent(tick=0, channel=3, data=[63, 95]),
   midi.NoteOffEvent(tick=960, channel=3, data=[63, 0]),
   midi.NoteOnEvent(tick=0, channel=3, data=[65, 96]),
   midi.NoteOffEvent(tick=960, channel=3, data=[65, 0]),
   midi.NoteOnEvent(tick=0, channel=3, data=[62, 95]),
   midi.NoteOffEvent(tick=960, channel=3, data=[62, 0]),
   midi.NoteOnEvent(tick=0, channel=3, data=[63, 94]),
   midi.NoteOffEvent(tick=960, channel=3, data=[63, 0]),
   midi.NoteOnEvent(tick=0, channel=3, data=[60, 93]),
   midi.NoteOffEvent(tick=960, channel=3, data=[60, 0]),
   midi.NoteOnEvent(tick=0, channel=3, data=[62, 96]),
   midi.NoteOffEvent(tick=960, channel=3, data=[62, 0]),
   midi.NoteOnEvent(tick=0, channel=3, data=[58, 93]),
   midi.NoteOffEvent(tick=960, channel=3, data=[58, 0]),
   midi.NoteOnEvent(tick=0, channel=3, data=[60, 96]),
   midi.NoteOffEvent(tick=960, channel=3, data=[60, 0]),
   midi.NoteOnEvent(tick=0, channel=3, data=[56, 94]),
   midi.NoteOffEvent(tick=960, channel=3, data=[56, 0]),
   midi.NoteOnEvent(tick=0, channel=3, data=[58, 96]),
   midi.NoteOffEvent(tick=960, channel=3, data=[58, 0]),
   midi.NoteOnEvent(tick=0, channel=3, data=[55, 96]),
   midi.NoteOffEvent(tick=960, channel=3, data=[55, 0]),
   midi.NoteOnEvent(tick=0, channel=3, data=[56, 95]),
   midi.NoteOffEvent(tick=960, channel=3, data=[56, 0]),
   midi.NoteOnEvent(tick=0, channel=3, data=[53, 96]),
   midi.NoteOffEvent(tick=960, channel=3, data=[53, 0]),
   midi.NoteOnEvent(tick=0, channel=3, data=[55, 97]),
   midi.NoteOffEvent(tick=960, channel=3, data=[55, 0]),
   midi.NoteOnEvent(tick=0, channel=3, data=[51, 96]),
   midi.NoteOffEvent(tick=960, channel=3, data=[51, 0]),
   midi.NoteOnEvent(tick=0, channel=3, data=[53, 96]),
   midi.NoteOffEvent(tick=960, channel=3, data=[53, 0]),
   midi.NoteOnEvent(tick=0, channel=3, data=[50, 98]),
   midi.NoteOffEvent(tick=960, channel=3, data=[50, 0]),
   midi.NoteOnEvent(tick=0, channel=3, data=[48, 91]),
   midi.NoteOffEvent(tick=960, channel=3, data=[48, 0]),
   midi.NoteOnEvent(tick=0, channel=3, data=[47, 98]),
   midi.NoteOffEvent(tick=960, channel=3, data=[47, 0]),
   midi.NoteOnEvent(tick=0, channel=3, data=[48, 96]),
   midi.NoteOffEvent(tick=960, channel=3, data=[48, 0]),
   midi.NoteOnEvent(tick=0, channel=3, data=[50, 106]),
   midi.NoteOffEvent(tick=960, channel=3, data=[50, 0]),
   midi.NoteOnEvent(tick=0, channel=3, data=[48, 96]),
   midi.NoteOffEvent(tick=960, channel=3, data=[48, 0]),
   midi.NoteOnEvent(tick=0, channel=3, data=[50, 106]),
   midi.NoteOffEvent(tick=960, channel=3, data=[50, 0]),
   midi.NoteOnEvent(tick=0, channel=3, data=[52, 104]),
   midi.NoteOffEvent(tick=960, channel=3, data=[52, 0]),
   midi.NoteOnEvent(tick=0, channel=3, data=[53, 110]),
   midi.NoteOffEvent(tick=960, channel=3, data=[53, 0]),
   midi.NoteOnEvent(tick=0, channel=3, data=[52, 100]),
   midi.NoteOffEvent(tick=960, channel=3, data=[52, 0]),
   midi.NoteOnEvent(tick=0, channel=3, data=[53, 107]),
   midi.NoteOffEvent(tick=960, channel=3, data=[53, 0]),
   midi.NoteOnEvent(tick=0, channel=3, data=[55, 104]),
   midi.NoteOffEvent(tick=960, channel=3, data=[55, 0]),
   midi.NoteOnEvent(tick=0, channel=3, data=[56, 110]),
   midi.NoteOnEvent(tick=0, channel=3, data=[44, 104]),
   midi.NoteOffEvent(tick=960, channel=3, data=[56, 0]),
   midi.NoteOffEvent(tick=0, channel=3, data=[44, 0]),
   midi.NoteOnEvent(tick=0, channel=3, data=[55, 100]),
   midi.NoteOnEvent(tick=0, channel=3, data=[43, 97]),
   midi.NoteOffEvent(tick=960, channel=3, data=[55, 0]),
   midi.NoteOffEvent(tick=0, channel=3, data=[43, 0]),
   midi.NoteOnEvent(tick=0, channel=3, data=[57, 109]),
   midi.NoteOnEvent(tick=0, channel=3, data=[45, 105]),
   midi.NoteOffEvent(tick=960, channel=3, data=[57, 0]),
   midi.NoteOffEvent(tick=0, channel=3, data=[45, 0]),
   midi.NoteOnEvent(tick=0, channel=3, data=[59, 106]),
   midi.NoteOnEvent(tick=0, channel=3, data=[47, 101]),
   midi.NoteOffEvent(tick=960, channel=3, data=[59, 0]),
   midi.NoteOffEvent(tick=0, channel=3, data=[47, 0]),
   midi.NoteOnEvent(tick=0, channel=3, data=[60, 111]),
   midi.NoteOnEvent(tick=0, channel=3, data=[48, 108]),
   midi.NoteOffEvent(tick=3840, channel=3, data=[60, 0]),
   midi.NoteOffEvent(tick=0, channel=3, data=[48, 0]),
   midi.NoteOnEvent(tick=0, channel=3, data=[56, 102]),
   midi.NoteOnEvent(tick=0, channel=3, data=[44, 103]),
   midi.NoteOffEvent(tick=3840, channel=3, data=[56, 0]),
   midi.NoteOffEvent(tick=0, channel=3, data=[44, 0]),
   midi.NoteOnEvent(tick=0, channel=3, data=[51, 102]),
   midi.NoteOnEvent(tick=0, channel=3, data=[39, 103]),
   midi.NoteOffEvent(tick=3840, channel=3, data=[51, 0]),
   midi.NoteOffEvent(tick=0, channel=3, data=[39, 0]),
   midi.NoteOnEvent(tick=0, channel=3, data=[53, 104]),
   midi.NoteOnEvent(tick=0, channel=3, data=[41, 104]),
   midi.NoteOffEvent(tick=1920, channel=3, data=[53, 0]),
   midi.NoteOffEvent(tick=0, channel=3, data=[41, 0]),
   midi.NoteOnEvent(tick=0, channel=3, data=[51, 103]),
   midi.NoteOnEvent(tick=0, channel=3, data=[39, 103]),
   midi.NoteOffEvent(tick=1920, channel=3, data=[51, 0]),
   midi.NoteOffEvent(tick=0, channel=3, data=[39, 0]),
   midi.NoteOnEvent(tick=0, channel=3, data=[50, 103]),
   midi.NoteOnEvent(tick=0, channel=3, data=[38, 103]),
   midi.NoteOffEvent(tick=1920, channel=3, data=[50, 0]),
   midi.NoteOffEvent(tick=0, channel=3, data=[38, 0]),
   midi.NoteOnEvent(tick=0, channel=3, data=[53, 106]),
   midi.NoteOnEvent(tick=0, channel=3, data=[41, 105]),
   midi.NoteOffEvent(tick=1920, channel=3, data=[53, 0]),
   midi.NoteOffEvent(tick=0, channel=3, data=[41, 0]),
   midi.NoteOnEvent(tick=0, channel=3, data=[51, 103]),
   midi.NoteOnEvent(tick=0, channel=3, data=[39, 103]),
   midi.NoteOffEvent(tick=480, channel=3, data=[51, 0]),
   midi.NoteOffEvent(tick=0, channel=3, data=[39, 0]),
   midi.NoteOnEvent(tick=1440, channel=3, data=[48, 101]),
   midi.NoteOnEvent(tick=0, channel=3, data=[36, 102]),
   midi.NoteOffEvent(tick=480, channel=3, data=[48, 0]),
   midi.NoteOffEvent(tick=0, channel=3, data=[36, 0]),
   midi.NoteOnEvent(tick=1440, channel=3, data=[53, 107]),
   midi.NoteOnEvent(tick=0, channel=3, data=[41, 105]),
   midi.NoteOffEvent(tick=480, channel=3, data=[53, 0]),
   midi.NoteOffEvent(tick=0, channel=3, data=[41, 0]),
   midi.NoteOnEvent(tick=1440, channel=3, data=[50, 103]),
   midi.NoteOnEvent(tick=0, channel=3, data=[38, 103]),
   midi.NoteOffEvent(tick=480, channel=3, data=[50, 0]),
   midi.NoteOffEvent(tick=0, channel=3, data=[38, 0]),
   midi.NoteOnEvent(tick=1440, channel=3, data=[55, 108]),
   midi.NoteOnEvent(tick=0, channel=3, data=[43, 106]),
   midi.NoteOffEvent(tick=480, channel=3, data=[55, 0]),
   midi.NoteOffEvent(tick=0, channel=3, data=[43, 0]),
   midi.NoteOnEvent(tick=1440, channel=3, data=[43, 99]),
   midi.NoteOffEvent(tick=480, channel=3, data=[43, 0]),
   midi.NoteOnEvent(tick=1440, channel=3, data=[60, 127]),
   midi.NoteOnEvent(tick=0, channel=3, data=[48, 122]),
   midi.NoteOffEvent(tick=1920, channel=3, data=[60, 0]),
   midi.NoteOffEvent(tick=0, channel=3, data=[48, 0]),
   midi.NoteOnEvent(tick=0, channel=3, data=[62, 126]),
   midi.NoteOnEvent(tick=0, channel=3, data=[50, 122]),
   midi.NoteOffEvent(tick=480, channel=3, data=[62, 0]),
   midi.NoteOffEvent(tick=0, channel=3, data=[50, 0]),
   midi.NoteOnEvent(tick=480, channel=3, data=[63, 118]),
   midi.NoteOnEvent(tick=0, channel=3, data=[51, 115]),
   midi.NoteOffEvent(tick=480, channel=3, data=[63, 0]),
   midi.NoteOffEvent(tick=0, channel=3, data=[51, 0]),
   midi.NoteOnEvent(tick=480, channel=3, data=[65, 127]),
   midi.NoteOnEvent(tick=0, channel=3, data=[53, 125]),
   midi.NoteOnEvent(tick=960, channel=3, data=[62, 111]),
   midi.NoteOnEvent(tick=0, channel=3, data=[50, 111]),
   midi.NoteOffEvent(tick=38, channel=3, data=[65, 0]),
   midi.NoteOffEvent(tick=0, channel=3, data=[53, 0]),
   midi.NoteOffEvent(tick=825, channel=3, data=[62, 0]),
   midi.NoteOffEvent(tick=0, channel=3, data=[50, 0]),
   midi.NoteOnEvent(tick=3937, channel=3, data=[65, 121]),
   midi.NoteOnEvent(tick=0, channel=3, data=[53, 121]),
   midi.NoteOffEvent(tick=480, channel=3, data=[65, 0]),
   midi.NoteOffEvent(tick=0, channel=3, data=[53, 0]),
   midi.NoteOnEvent(tick=480, channel=3, data=[67, 115]),
   midi.NoteOnEvent(tick=0, channel=3, data=[55, 115]),
   midi.NoteOffEvent(tick=480, channel=3, data=[67, 0]),
   midi.NoteOffEvent(tick=0, channel=3, data=[55, 0]),
   midi.NoteOnEvent(tick=480, channel=3, data=[68, 123]),
   midi.NoteOnEvent(tick=0, channel=3, data=[56, 123]),
   midi.NoteOnEvent(tick=960, channel=3, data=[65, 109]),
   midi.NoteOnEvent(tick=0, channel=3, data=[53, 110]),
   midi.NoteOffEvent(tick=38, channel=3, data=[68, 0]),
   midi.NoteOffEvent(tick=0, channel=3, data=[56, 0]),
   midi.NoteOffEvent(tick=825, channel=3, data=[65, 0]),
   midi.NoteOffEvent(tick=0, channel=3, data=[53, 0]),
   midi.NoteOnEvent(tick=3937, channel=3, data=[60, 117]),
   midi.NoteOnEvent(tick=0, channel=3, data=[57, 121]),
   midi.NoteOffEvent(tick=480, channel=3, data=[60, 0]),
   midi.NoteOffEvent(tick=0, channel=3, data=[57, 0]),
   midi.NoteOnEvent(tick=480, channel=3, data=[62, 114]),
   midi.NoteOnEvent(tick=0, channel=3, data=[59, 116]),
   midi.NoteOffEvent(tick=480, channel=3, data=[62, 0]),
   midi.NoteOffEvent(tick=0, channel=3, data=[59, 0]),
   midi.NoteOnEvent(tick=480, channel=3, data=[63, 122]),
   midi.NoteOnEvent(tick=0, channel=3, data=[60, 123]),
   midi.NoteOffEvent(tick=960, channel=3, data=[60, 0]),
   midi.NoteOnEvent(tick=0, channel=3, data=[60, 109]),
   midi.NoteOnEvent(tick=0, channel=3, data=[55, 106]),
   midi.NoteOffEvent(tick=38, channel=3, data=[63, 0]),
   midi.NoteOffEvent(tick=825, channel=3, data=[60, 0]),
   midi.NoteOffEvent(tick=0, channel=3, data=[55, 0]),
   midi.NoteOnEvent(tick=3937, channel=3, data=[60, 119]),
   midi.NoteOnEvent(tick=0, channel=3, data=[57, 120]),
   midi.NoteOffEvent(tick=480, channel=3, data=[60, 0]),
   midi.NoteOffEvent(tick=0, channel=3, data=[57, 0]),
   midi.NoteOnEvent(tick=480, channel=3, data=[62, 115]),
   midi.NoteOnEvent(tick=0, channel=3, data=[59, 115]),
   midi.NoteOffEvent(tick=480, channel=3, data=[62, 0]),
   midi.NoteOffEvent(tick=0, channel=3, data=[59, 0]),
   midi.NoteOnEvent(tick=480, channel=3, data=[63, 123]),
   midi.NoteOnEvent(tick=0, channel=3, data=[60, 123]),
   midi.NoteOnEvent(tick=960, channel=3, data=[62, 113]),
   midi.NoteOnEvent(tick=0, channel=3, data=[55, 106]),
   midi.NoteOffEvent(tick=38, channel=3, data=[63, 0]),
   midi.NoteOffEvent(tick=0, channel=3, data=[60, 0]),
   midi.NoteOffEvent(tick=825, channel=3, data=[62, 0]),
   midi.NoteOffEvent(tick=0, channel=3, data=[55, 0]),
   midi.NoteOnEvent(tick=97, channel=3, data=[60, 115]),
   midi.NoteOnEvent(tick=0, channel=3, data=[56, 116]),
   midi.NoteOffEvent(tick=960, channel=3, data=[60, 0]),
   midi.NoteOffEvent(tick=0, channel=3, data=[56, 0]),
   midi.NoteOnEvent(tick=0, channel=3, data=[58, 105]),
   midi.NoteOnEvent(tick=0, channel=3, data=[51, 101]),
   midi.NoteOffEvent(tick=960, channel=3, data=[58, 0]),
   midi.NoteOffEvent(tick=0, channel=3, data=[51, 0]),
   midi.NoteOnEvent(tick=0, channel=3, data=[56, 109]),
   midi.NoteOnEvent(tick=0, channel=3, data=[53, 115]),
   midi.NoteOffEvent(tick=960, channel=3, data=[56, 0]),
   midi.NoteOffEvent(tick=0, channel=3, data=[53, 0]),
   midi.NoteOnEvent(tick=0, channel=3, data=[55, 103]),
   midi.NoteOnEvent(tick=0, channel=3, data=[48, 102]),
   midi.NoteOffEvent(tick=960, channel=3, data=[55, 0]),
   midi.NoteOffEvent(tick=0, channel=3, data=[48, 0]),
   midi.NoteOnEvent(tick=1920, channel=3, data=[56, 103]),
   midi.NoteOnEvent(tick=0, channel=3, data=[53, 105]),
   midi.NoteOnEvent(tick=960, channel=3, data=[55, 96]),
   midi.NoteOnEvent(tick=0, channel=3, data=[48, 94]),
   midi.NoteOffEvent(tick=38, channel=3, data=[56, 0]),
   midi.NoteOffEvent(tick=0, channel=3, data=[53, 0]),
   midi.NoteOffEvent(tick=825, channel=3, data=[55, 0]),
   midi.NoteOffEvent(tick=0, channel=3, data=[48, 0]),
   midi.NoteOnEvent(tick=97, channel=3, data=[56, 104]),
   midi.NoteOnEvent(tick=0, channel=3, data=[53, 108]),
   midi.NoteOnEvent(tick=960, channel=3, data=[55, 97]),
   midi.NoteOnEvent(tick=0, channel=3, data=[51, 97]),
   midi.NoteOffEvent(tick=38, channel=3, data=[56, 0]),
   midi.NoteOffEvent(tick=0, channel=3, data=[53, 0]),
   midi.NoteOffEvent(tick=825, channel=3, data=[55, 0]),
   midi.NoteOffEvent(tick=0, channel=3, data=[51, 0]),
   midi.NoteOnEvent(tick=1057, channel=3, data=[60, 108]),
   midi.NoteOnEvent(tick=0, channel=3, data=[63, 108]),
   midi.NoteOffEvent(tick=960, channel=3, data=[60, 0]),
   midi.NoteOffEvent(tick=0, channel=3, data=[63, 0]),
   midi.NoteOnEvent(tick=960, channel=3, data=[59, 101]),
   midi.NoteOnEvent(tick=0, channel=3, data=[62, 101]),
   midi.NoteOffEvent(tick=960, channel=3, data=[59, 0]),
   midi.NoteOffEvent(tick=0, channel=3, data=[62, 0]),
   midi.NoteOnEvent(tick=5760, channel=3, data=[56, 103]),
   midi.NoteOnEvent(tick=0, channel=3, data=[53, 104]),
   midi.NoteOnEvent(tick=960, channel=3, data=[55, 97]),
   midi.NoteOnEvent(tick=0, channel=3, data=[51, 97]),
   midi.NoteOffEvent(tick=38, channel=3, data=[56, 0]),
   midi.NoteOffEvent(tick=0, channel=3, data=[53, 0]),
   midi.NoteOffEvent(tick=825, channel=3, data=[55, 0]),
   midi.NoteOffEvent(tick=0, channel=3, data=[51, 0]),
   midi.NoteOnEvent(tick=2017, channel=3, data=[56, 104]),
   midi.NoteOnEvent(tick=0, channel=3, data=[53, 104]),
   midi.NoteOnEvent(tick=960, channel=3, data=[55, 97]),
   midi.NoteOnEvent(tick=0, channel=3, data=[51, 96]),
   midi.NoteOffEvent(tick=38, channel=3, data=[56, 0]),
   midi.NoteOffEvent(tick=0, channel=3, data=[53, 0]),
   midi.NoteOffEvent(tick=825, channel=3, data=[55, 0]),
   midi.NoteOffEvent(tick=0, channel=3, data=[51, 0]),
   midi.NoteOnEvent(tick=1057, channel=3, data=[55, 103]),
   midi.NoteOnEvent(tick=0, channel=3, data=[60, 103]),
   midi.NoteOffEvent(tick=960, channel=3, data=[55, 0]),
   midi.NoteOffEvent(tick=0, channel=3, data=[60, 0]),
   midi.NoteOnEvent(tick=960, channel=3, data=[55, 99]),
   midi.NoteOnEvent(tick=0, channel=3, data=[59, 99]),
   midi.NoteOffEvent(tick=960, channel=3, data=[55, 0]),
   midi.NoteOffEvent(tick=0, channel=3, data=[59, 0]),
   midi.NoteOnEvent(tick=0, channel=3, data=[60, 106]),
   midi.NoteOnEvent(tick=0, channel=3, data=[48, 103]),
   midi.NoteOffEvent(tick=960, channel=3, data=[60, 0]),
   midi.NoteOffEvent(tick=0, channel=3, data=[48, 0]),
   midi.NoteOnEvent(tick=1440, channel=3, data=[65, 103]),
   midi.NoteOnEvent(tick=0, channel=3, data=[62, 104]),
   midi.NoteOffEvent(tick=480, channel=3, data=[65, 0]),
   midi.NoteOffEvent(tick=0, channel=3, data=[62, 0]),
   midi.NoteOnEvent(tick=0, channel=3, data=[65, 102]),
   midi.NoteOnEvent(tick=0, channel=3, data=[62, 103]),
   midi.NoteOffEvent(tick=480, channel=3, data=[65, 0]),
   midi.NoteOffEvent(tick=0, channel=3, data=[62, 0]),
   midi.NoteOnEvent(tick=0, channel=3, data=[65, 101]),
   midi.NoteOnEvent(tick=0, channel=3, data=[62, 102]),
   midi.NoteOffEvent(tick=480, channel=3, data=[65, 0]),
   midi.NoteOffEvent(tick=0, channel=3, data=[62, 0]),
   midi.NoteOnEvent(tick=0, channel=3, data=[65, 106]),
   midi.NoteOnEvent(tick=0, channel=3, data=[62, 107]),
   midi.NoteOffEvent(tick=2880, channel=3, data=[65, 0]),
   midi.NoteOffEvent(tick=0, channel=3, data=[62, 0]),
   midi.NoteOnEvent(tick=0, channel=3, data=[63, 96]),
   midi.NoteOnEvent(tick=0, channel=3, data=[60, 96]),
   midi.NoteOnEvent(tick=960, channel=3, data=[62, 100]),
   midi.NoteOnEvent(tick=0, channel=3, data=[59, 101]),
   midi.NoteOffEvent(tick=38, channel=3, data=[63, 0]),
   midi.NoteOffEvent(tick=0, channel=3, data=[60, 0]),
   midi.NoteOffEvent(tick=825, channel=3, data=[62, 0]),
   midi.NoteOffEvent(tick=0, channel=3, data=[59, 0]),
   midi.NoteOnEvent(tick=97, channel=3, data=[65, 101]),
   midi.NoteOnEvent(tick=0, channel=3, data=[62, 101]),
   midi.NoteOffEvent(tick=960, channel=3, data=[65, 0]),
   midi.NoteOffEvent(tick=0, channel=3, data=[62, 0]),
   midi.NoteOnEvent(tick=0, channel=3, data=[63, 102]),
   midi.NoteOnEvent(tick=0, channel=3, data=[60, 102]),
   midi.NoteOffEvent(tick=960, channel=3, data=[63, 0]),
   midi.NoteOffEvent(tick=0, channel=3, data=[60, 0]),
   midi.NoteOnEvent(tick=0, channel=3, data=[62, 95]),
   midi.NoteOnEvent(tick=0, channel=3, data=[59, 95]),
   midi.NoteOffEvent(tick=960, channel=3, data=[62, 0]),
   midi.NoteOffEvent(tick=0, channel=3, data=[59, 0]),
   midi.NoteOnEvent(tick=0, channel=3, data=[63, 104]),
   midi.NoteOnEvent(tick=0, channel=3, data=[60, 104]),
   midi.NoteOffEvent(tick=960, channel=3, data=[63, 0]),
   midi.NoteOffEvent(tick=0, channel=3, data=[60, 0]),
   midi.NoteOnEvent(tick=1440, channel=3, data=[55, 88]),
   midi.NoteOnEvent(tick=0, channel=3, data=[43, 90]),
   midi.NoteOffEvent(tick=480, channel=3, data=[55, 0]),
   midi.NoteOffEvent(tick=0, channel=3, data=[43, 0]),
   midi.NoteOnEvent(tick=0, channel=3, data=[55, 90]),
   midi.NoteOnEvent(tick=0, channel=3, data=[43, 92]),
   midi.NoteOffEvent(tick=480, channel=3, data=[55, 0]),
   midi.NoteOffEvent(tick=0, channel=3, data=[43, 0]),
   midi.NoteOnEvent(tick=0, channel=3, data=[55, 92]),
   midi.NoteOnEvent(tick=0, channel=3, data=[43, 93]),
   midi.NoteOffEvent(tick=480, channel=3, data=[55, 0]),
   midi.NoteOffEvent(tick=0, channel=3, data=[43, 0]),
   midi.NoteOnEvent(tick=0, channel=3, data=[55, 99]),
   midi.NoteOnEvent(tick=0, channel=3, data=[43, 100]),
   midi.NoteOffEvent(tick=480, channel=3, data=[55, 0]),
   midi.NoteOffEvent(tick=0, channel=3, data=[43, 0]),
   midi.NoteOnEvent(tick=0, channel=3, data=[55, 94]),
   midi.NoteOnEvent(tick=0, channel=3, data=[43, 95]),
   midi.NoteOffEvent(tick=480, channel=3, data=[55, 0]),
   midi.NoteOffEvent(tick=0, channel=3, data=[43, 0]),
   midi.NoteOnEvent(tick=0, channel=3, data=[55, 95]),
   midi.NoteOnEvent(tick=0, channel=3, data=[43, 96]),
   midi.NoteOffEvent(tick=480, channel=3, data=[55, 0]),
   midi.NoteOffEvent(tick=0, channel=3, data=[43, 0]),
   midi.NoteOnEvent(tick=0, channel=3, data=[55, 96]),
   midi.NoteOnEvent(tick=0, channel=3, data=[43, 96]),
   midi.NoteOffEvent(tick=480, channel=3, data=[55, 0]),
   midi.NoteOffEvent(tick=0, channel=3, data=[43, 0]),
   midi.NoteOnEvent(tick=0, channel=3, data=[55, 102]),
   midi.NoteOnEvent(tick=0, channel=3, data=[43, 103]),
   midi.NoteOffEvent(tick=480, channel=3, data=[55, 0]),
   midi.NoteOffEvent(tick=0, channel=3, data=[43, 0]),
   midi.NoteOnEvent(tick=0, channel=3, data=[55, 97]),
   midi.NoteOnEvent(tick=0, channel=3, data=[43, 97]),
   midi.NoteOffEvent(tick=480, channel=3, data=[55, 0]),
   midi.NoteOffEvent(tick=0, channel=3, data=[43, 0]),
   midi.NoteOnEvent(tick=0, channel=3, data=[55, 97]),
   midi.NoteOnEvent(tick=0, channel=3, data=[43, 97]),
   midi.NoteOffEvent(tick=480, channel=3, data=[55, 0]),
   midi.NoteOffEvent(tick=0, channel=3, data=[43, 0]),
   midi.NoteOnEvent(tick=0, channel=3, data=[55, 98]),
   midi.NoteOnEvent(tick=0, channel=3, data=[43, 98]),
   midi.NoteOffEvent(tick=480, channel=3, data=[55, 0]),
   midi.NoteOffEvent(tick=0, channel=3, data=[43, 0]),
   midi.NoteOnEvent(tick=0, channel=3, data=[51, 90]),
   midi.NoteOnEvent(tick=0, channel=3, data=[39, 94]),
   midi.NoteOffEvent(tick=3840, channel=3, data=[51, 0]),
   midi.NoteOffEvent(tick=0, channel=3, data=[39, 0]),
   midi.NoteOnEvent(tick=480, channel=3, data=[53, 97]),
   midi.NoteOnEvent(tick=0, channel=3, data=[41, 97]),
   midi.NoteOffEvent(tick=480, channel=3, data=[53, 0]),
   midi.NoteOffEvent(tick=0, channel=3, data=[41, 0]),
   midi.NoteOnEvent(tick=0, channel=3, data=[53, 97]),
   midi.NoteOnEvent(tick=0, channel=3, data=[41, 98]),
   midi.NoteOffEvent(tick=480, channel=3, data=[53, 0]),
   midi.NoteOffEvent(tick=0, channel=3, data=[41, 0]),
   midi.NoteOnEvent(tick=0, channel=3, data=[53, 98]),
   midi.NoteOnEvent(tick=0, channel=3, data=[41, 98]),
   midi.NoteOffEvent(tick=480, channel=3, data=[53, 0]),
   midi.NoteOffEvent(tick=0, channel=3, data=[41, 0]),
   midi.NoteOnEvent(tick=0, channel=3, data=[50, 98]),
   midi.NoteOnEvent(tick=0, channel=3, data=[38, 100]),
   midi.NoteOffEvent(tick=7680, channel=3, data=[50, 0]),
   midi.NoteOffEvent(tick=0, channel=3, data=[38, 0]),
   midi.NoteOnEvent(tick=960, channel=3, data=[67, 61]),
   midi.NoteOffEvent(tick=960, channel=3, data=[67, 0]),
   midi.NoteOnEvent(tick=0, channel=3, data=[63, 63]),
   midi.NoteOffEvent(tick=6720, channel=3, data=[63, 0]),
   midi.NoteOnEvent(tick=0, channel=3, data=[67, 61]),
   midi.NoteOnEvent(tick=960, channel=3, data=[63, 63]),
   midi.NoteOffEvent(tick=19, channel=3, data=[67, 0]),
   midi.NoteOffEvent(tick=5906, channel=3, data=[63, 0]),
   midi.NoteOnEvent(tick=315, channel=3, data=[62, 113]),
   midi.NoteOnEvent(tick=0, channel=3, data=[59, 113]),
   midi.NoteOffEvent(tick=480, channel=3, data=[62, 0]),
   midi.NoteOffEvent(tick=0, channel=3, data=[59, 0]),
   midi.NoteOnEvent(tick=0, channel=3, data=[62, 113]),
   midi.NoteOnEvent(tick=0, channel=3, data=[59, 113]),
   midi.NoteOffEvent(tick=480, channel=3, data=[62, 0]),
   midi.NoteOffEvent(tick=0, channel=3, data=[59, 0]),
   midi.NoteOnEvent(tick=0, channel=3, data=[62, 113]),
   midi.NoteOnEvent(tick=0, channel=3, data=[59, 113]),
   midi.NoteOffEvent(tick=480, channel=3, data=[62, 0]),
   midi.NoteOffEvent(tick=0, channel=3, data=[59, 0]),
   midi.NoteOnEvent(tick=0, channel=3, data=[63, 122]),
   midi.NoteOnEvent(tick=0, channel=3, data=[60, 122]),
   midi.NoteOffEvent(tick=960, channel=3, data=[63, 0]),
   midi.NoteOffEvent(tick=0, channel=3, data=[60, 0]),
   midi.NoteOnEvent(tick=1440, channel=3, data=[62, 112]),
   midi.NoteOnEvent(tick=0, channel=3, data=[59, 112]),
   midi.NoteOffEvent(tick=480, channel=3, data=[62, 0]),
   midi.NoteOffEvent(tick=0, channel=3, data=[59, 0]),
   midi.NoteOnEvent(tick=0, channel=3, data=[62, 113]),
   midi.NoteOnEvent(tick=0, channel=3, data=[59, 113]),
   midi.NoteOffEvent(tick=480, channel=3, data=[62, 0]),
   midi.NoteOffEvent(tick=0, channel=3, data=[59, 0]),
   midi.NoteOnEvent(tick=0, channel=3, data=[62, 113]),
   midi.NoteOnEvent(tick=0, channel=3, data=[59, 113]),
   midi.NoteOffEvent(tick=480, channel=3, data=[62, 0]),
   midi.NoteOffEvent(tick=0, channel=3, data=[59, 0]),
   midi.NoteOnEvent(tick=0, channel=3, data=[63, 123]),
   midi.NoteOnEvent(tick=0, channel=3, data=[60, 123]),
   midi.NoteOffEvent(tick=960, channel=3, data=[63, 0]),
   midi.NoteOffEvent(tick=0, channel=3, data=[60, 0]),
   midi.NoteOnEvent(tick=1440, channel=3, data=[62, 112]),
   midi.NoteOnEvent(tick=0, channel=3, data=[59, 112]),
   midi.NoteOffEvent(tick=480, channel=3, data=[62, 0]),
   midi.NoteOffEvent(tick=0, channel=3, data=[59, 0]),
   midi.NoteOnEvent(tick=0, channel=3, data=[62, 113]),
   midi.NoteOnEvent(tick=0, channel=3, data=[59, 113]),
   midi.NoteOffEvent(tick=480, channel=3, data=[62, 0]),
   midi.NoteOffEvent(tick=0, channel=3, data=[59, 0]),
   midi.NoteOnEvent(tick=0, channel=3, data=[62, 113]),
   midi.NoteOnEvent(tick=0, channel=3, data=[59, 113]),
   midi.NoteOffEvent(tick=480, channel=3, data=[62, 0]),
   midi.NoteOffEvent(tick=0, channel=3, data=[59, 0]),
   midi.NoteOnEvent(tick=0, channel=3, data=[63, 123]),
   midi.NoteOnEvent(tick=0, channel=3, data=[60, 123]),
   midi.NoteOffEvent(tick=960, channel=3, data=[63, 0]),
   midi.NoteOffEvent(tick=0, channel=3, data=[60, 0]),
   midi.NoteOnEvent(tick=0, channel=3, data=[62, 112]),
   midi.NoteOnEvent(tick=0, channel=3, data=[59, 112]),
   midi.NoteOffEvent(tick=960, channel=3, data=[62, 0]),
   midi.NoteOffEvent(tick=0, channel=3, data=[59, 0]),
   midi.NoteOnEvent(tick=0, channel=3, data=[63, 122]),
   midi.NoteOnEvent(tick=0, channel=3, data=[60, 122]),
   midi.NoteOffEvent(tick=960, channel=3, data=[63, 0]),
   midi.NoteOffEvent(tick=0, channel=3, data=[60, 0]),
   midi.NoteOnEvent(tick=0, channel=3, data=[62, 112]),
   midi.NoteOnEvent(tick=0, channel=3, data=[59, 112]),
   midi.NoteOffEvent(tick=960, channel=3, data=[62, 0]),
   midi.NoteOffEvent(tick=0, channel=3, data=[59, 0]),
   midi.NoteOnEvent(tick=0, channel=3, data=[63, 122]),
   midi.NoteOnEvent(tick=0, channel=3, data=[60, 122]),
   midi.NoteOffEvent(tick=960, channel=3, data=[63, 0]),
   midi.NoteOffEvent(tick=0, channel=3, data=[60, 0]),
   midi.NoteOnEvent(tick=0, channel=3, data=[62, 112]),
   midi.NoteOnEvent(tick=0, channel=3, data=[59, 112]),
   midi.NoteOffEvent(tick=960, channel=3, data=[62, 0]),
   midi.NoteOffEvent(tick=0, channel=3, data=[59, 0]),
   midi.NoteOnEvent(tick=0, channel=3, data=[63, 122]),
   midi.NoteOnEvent(tick=0, channel=3, data=[60, 122]),
   midi.NoteOffEvent(tick=960, channel=3, data=[63, 0]),
   midi.NoteOffEvent(tick=0, channel=3, data=[60, 0]),
   midi.NoteOnEvent(tick=0, channel=3, data=[62, 112]),
   midi.NoteOnEvent(tick=0, channel=3, data=[59, 112]),
   midi.NoteOffEvent(tick=960, channel=3, data=[62, 0]),
   midi.NoteOffEvent(tick=0, channel=3, data=[59, 0]),
   midi.NoteOnEvent(tick=0, channel=3, data=[63, 121]),
   midi.NoteOnEvent(tick=0, channel=3, data=[60, 121]),
   midi.NoteOffEvent(tick=960, channel=3, data=[63, 0]),
   midi.NoteOffEvent(tick=0, channel=3, data=[60, 0]),
   midi.NoteOnEvent(tick=960, channel=3, data=[59, 113]),
   midi.NoteOnEvent(tick=0, channel=3, data=[55, 111]),
   midi.NoteOffEvent(tick=960, channel=3, data=[59, 0]),
   midi.NoteOffEvent(tick=0, channel=3, data=[55, 0]),
   midi.NoteOnEvent(tick=960, channel=3, data=[60, 119]),
   midi.NoteOnEvent(tick=0, channel=3, data=[48, 111]),
   midi.NoteOffEvent(tick=960, channel=3, data=[60, 0]),
   midi.NoteOffEvent(tick=0, channel=3, data=[48, 0]),
   midi.EndOfTrackEvent(tick=1, data=[])]),
 midi.Track(\
  [midi.ProgramChangeEvent(tick=0, channel=4, data=[60]),
   midi.ControlChangeEvent(tick=0, channel=4, data=[121, 0]),
   midi.ControlChangeEvent(tick=0, channel=4, data=[64, 0]),
   midi.ControlChangeEvent(tick=0, channel=4, data=[91, 62]),
   midi.ControlChangeEvent(tick=0, channel=4, data=[10, 46]),
   midi.ControlChangeEvent(tick=0, channel=4, data=[7, 105]),
   midi.TrackNameEvent(tick=0, text='Horn in Eb', data=[72, 111, 114, 110, 32, 105, 110, 32, 69, 98]),
   midi.NoteOnEvent(tick=33120, channel=4, data=[67, 61]),
   midi.NoteOffEvent(tick=480, channel=4, data=[67, 0]),
   midi.NoteOnEvent(tick=0, channel=4, data=[67, 61]),
   midi.NoteOffEvent(tick=480, channel=4, data=[67, 0]),
   midi.NoteOnEvent(tick=0, channel=4, data=[67, 78]),
   midi.NoteOffEvent(tick=480, channel=4, data=[67, 0]),
   midi.NoteOnEvent(tick=0, channel=4, data=[67, 104]),
   midi.NoteOffEvent(tick=960, channel=4, data=[67, 0]),
   midi.NoteOnEvent(tick=960, channel=4, data=[63, 96]),
   midi.NoteOnEvent(tick=0, channel=4, data=[51, 104]),
   midi.NoteOffEvent(tick=960, channel=4, data=[63, 0]),
   midi.NoteOffEvent(tick=0, channel=4, data=[51, 0]),
   midi.NoteOnEvent(tick=960, channel=4, data=[67, 106]),
   midi.NoteOnEvent(tick=0, channel=4, data=[55, 106]),
   midi.NoteOffEvent(tick=960, channel=4, data=[67, 0]),
   midi.NoteOffEvent(tick=0, channel=4, data=[55, 0]),
   midi.NoteOnEvent(tick=3360, channel=4, data=[68, 114]),
   midi.NoteOffEvent(tick=480, channel=4, data=[68, 0]),
   midi.NoteOnEvent(tick=0, channel=4, data=[68, 113]),
   midi.NoteOffEvent(tick=480, channel=4, data=[68, 0]),
   midi.NoteOnEvent(tick=0, channel=4, data=[68, 113]),
   midi.NoteOffEvent(tick=480, channel=4, data=[68, 0]),
   midi.NoteOnEvent(tick=0, channel=4, data=[65, 112]),
   midi.NoteOffEvent(tick=3840, channel=4, data=[65, 0]),
   midi.NoteOnEvent(tick=13920, channel=4, data=[55, 61]),
   midi.NoteOnEvent(tick=0, channel=4, data=[67, 61]),
   midi.NoteOffEvent(tick=480, channel=4, data=[55, 0]),
   midi.NoteOffEvent(tick=0, channel=4, data=[67, 0]),
   midi.NoteOnEvent(tick=0, channel=4, data=[55, 61]),
   midi.NoteOnEvent(tick=0, channel=4, data=[67, 61]),
   midi.NoteOffEvent(tick=480, channel=4, data=[55, 0]),
   midi.NoteOffEvent(tick=0, channel=4, data=[67, 0]),
   midi.NoteOnEvent(tick=0, channel=4, data=[55, 61]),
   midi.NoteOnEvent(tick=0, channel=4, data=[67, 61]),
   midi.NoteOffEvent(tick=480, channel=4, data=[55, 0]),
   midi.NoteOffEvent(tick=0, channel=4, data=[67, 0]),
   midi.NoteOnEvent(tick=0, channel=4, data=[55, 65]),
   midi.NoteOnEvent(tick=0, channel=4, data=[67, 65]),
   midi.NoteOffEvent(tick=960, channel=4, data=[55, 0]),
   midi.NoteOffEvent(tick=0, channel=4, data=[67, 0]),
   midi.NoteOnEvent(tick=960, channel=4, data=[68, 66]),
   midi.NoteOnEvent(tick=0, channel=4, data=[65, 65]),
   midi.NoteOffEvent(tick=2880, channel=4, data=[68, 0]),
   midi.NoteOffEvent(tick=0, channel=4, data=[65, 0]),
   midi.NoteOnEvent(tick=14400, channel=4, data=[68, 104]),
   midi.NoteOnEvent(tick=0, channel=4, data=[65, 104]),
   midi.NoteOffEvent(tick=960, channel=4, data=[68, 0]),
   midi.NoteOffEvent(tick=0, channel=4, data=[65, 0]),
   midi.NoteOnEvent(tick=960, channel=4, data=[67, 103]),
   midi.NoteOnEvent(tick=0, channel=4, data=[63, 103]),
   midi.NoteOffEvent(tick=7680, channel=4, data=[67, 0]),
   midi.NoteOffEvent(tick=0, channel=4, data=[63, 0]),
   midi.NoteOnEvent(tick=0, channel=4, data=[67, 104]),
   midi.NoteOnEvent(tick=0, channel=4, data=[65, 104]),
   midi.NoteOffEvent(tick=6720, channel=4, data=[67, 0]),
   midi.NoteOffEvent(tick=0, channel=4, data=[65, 0]),
   midi.NoteOnEvent(tick=0, channel=4, data=[63, 98]),
   midi.NoteOnEvent(tick=0, channel=4, data=[67, 98]),
   midi.NoteOffEvent(tick=960, channel=4, data=[63, 0]),
   midi.NoteOffEvent(tick=0, channel=4, data=[67, 0]),
   midi.NoteOnEvent(tick=0, channel=4, data=[66, 119]),
   midi.NoteOnEvent(tick=0, channel=4, data=[63, 120]),
   midi.NoteOffEvent(tick=7680, channel=4, data=[66, 0]),
   midi.NoteOffEvent(tick=0, channel=4, data=[63, 0]),
   midi.NoteOnEvent(tick=0, channel=4, data=[66, 120]),
   midi.NoteOnEvent(tick=0, channel=4, data=[63, 120]),
   midi.NoteOffEvent(tick=960, channel=4, data=[66, 0]),
   midi.NoteOffEvent(tick=0, channel=4, data=[63, 0]),
   midi.NoteOnEvent(tick=2880, channel=4, data=[65, 119]),
   midi.NoteOnEvent(tick=0, channel=4, data=[58, 118]),
   midi.NoteOffEvent(tick=960, channel=4, data=[65, 0]),
   midi.NoteOffEvent(tick=0, channel=4, data=[58, 0]),
   midi.NoteOnEvent(tick=1440, channel=4, data=[70, 116]),
   midi.NoteOffEvent(tick=480, channel=4, data=[70, 0]),
   midi.NoteOnEvent(tick=0, channel=4, data=[70, 115]),
   midi.NoteOffEvent(tick=480, channel=4, data=[70, 0]),
   midi.NoteOnEvent(tick=0, channel=4, data=[70, 115]),
   midi.NoteOffEvent(tick=480, channel=4, data=[70, 0]),
   midi.NoteOnEvent(tick=0, channel=4, data=[63, 56]),
   midi.NoteOffEvent(tick=1920, channel=4, data=[63, 0]),
   midi.NoteOnEvent(tick=0, channel=4, data=[65, 99]),
   midi.NoteOffEvent(tick=1920, channel=4, data=[65, 0]),
   midi.NoteOnEvent(tick=0, channel=4, data=[58, 58]),
   midi.NoteOffEvent(tick=24960, channel=4, data=[58, 0]),
   midi.NoteOnEvent(tick=15360, channel=4, data=[63, 65]),
   midi.NoteOnEvent(tick=0, channel=4, data=[51, 65]),
   midi.NoteOffEvent(tick=18240, channel=4, data=[63, 0]),
   midi.NoteOffEvent(tick=0, channel=4, data=[51, 0]),
   midi.NoteOnEvent(tick=0, channel=4, data=[63, 84]),
   midi.NoteOnEvent(tick=0, channel=4, data=[51, 84]),
   midi.NoteOffEvent(tick=960, channel=4, data=[63, 0]),
   midi.NoteOffEvent(tick=0, channel=4, data=[51, 0]),
   midi.NoteOnEvent(tick=0, channel=4, data=[63, 89]),
   midi.NoteOnEvent(tick=0, channel=4, data=[51, 89]),
   midi.NoteOffEvent(tick=960, channel=4, data=[63, 0]),
   midi.NoteOffEvent(tick=0, channel=4, data=[51, 0]),
   midi.NoteOnEvent(tick=0, channel=4, data=[63, 84]),
   midi.NoteOnEvent(tick=0, channel=4, data=[51, 84]),
   midi.NoteOffEvent(tick=960, channel=4, data=[63, 0]),
   midi.NoteOffEvent(tick=0, channel=4, data=[51, 0]),
   midi.NoteOnEvent(tick=0, channel=4, data=[65, 124]),
   midi.NoteOnEvent(tick=0, channel=4, data=[58, 127]),
   midi.NoteOffEvent(tick=2880, channel=4, data=[65, 0]),
   midi.NoteOffEvent(tick=0, channel=4, data=[58, 0]),
   midi.NoteOnEvent(tick=0, channel=4, data=[58, 107]),
   midi.NoteOnEvent(tick=0, channel=4, data=[46, 108]),
   midi.NoteOffEvent(tick=960, channel=4, data=[58, 0]),
   midi.NoteOffEvent(tick=0, channel=4, data=[46, 0]),
   midi.NoteOnEvent(tick=0, channel=4, data=[58, 116]),
   midi.NoteOnEvent(tick=0, channel=4, data=[46, 116]),
   midi.NoteOffEvent(tick=960, channel=4, data=[58, 0]),
   midi.NoteOffEvent(tick=0, channel=4, data=[46, 0]),
   midi.NoteOnEvent(tick=960, channel=4, data=[58, 119]),
   midi.NoteOnEvent(tick=0, channel=4, data=[46, 119]),
   midi.NoteOffEvent(tick=960, channel=4, data=[58, 0]),
   midi.NoteOffEvent(tick=0, channel=4, data=[46, 0]),
   midi.NoteOnEvent(tick=960, channel=4, data=[58, 120]),
   midi.NoteOnEvent(tick=0, channel=4, data=[46, 120]),
   midi.NoteOffEvent(tick=960, channel=4, data=[58, 0]),
   midi.NoteOffEvent(tick=0, channel=4, data=[46, 0]),
   midi.NoteOnEvent(tick=960, channel=4, data=[63, 126]),
   midi.NoteOnEvent(tick=0, channel=4, data=[51, 125]),
   midi.NoteOffEvent(tick=960, channel=4, data=[63, 0]),
   midi.NoteOffEvent(tick=0, channel=4, data=[51, 0]),
   midi.NoteOnEvent(tick=960, channel=4, data=[67, 127]),
   midi.NoteOnEvent(tick=0, channel=4, data=[63, 127]),
   midi.NoteOffEvent(tick=960, channel=4, data=[67, 0]),
   midi.NoteOffEvent(tick=0, channel=4, data=[63, 0]),
   midi.NoteOnEvent(tick=960, channel=4, data=[65, 120]),
   midi.NoteOnEvent(tick=0, channel=4, data=[58, 120]),
   midi.NoteOffEvent(tick=960, channel=4, data=[65, 0]),
   midi.NoteOffEvent(tick=0, channel=4, data=[58, 0]),
   midi.NoteOnEvent(tick=0, channel=4, data=[58, 102]),
   midi.NoteOnEvent(tick=0, channel=4, data=[46, 103]),
   midi.NoteOffEvent(tick=5760, channel=4, data=[58, 0]),
   midi.NoteOffEvent(tick=0, channel=4, data=[46, 0]),
   midi.NoteOnEvent(tick=0, channel=4, data=[58, 113]),
   midi.NoteOnEvent(tick=0, channel=4, data=[46, 113]),
   midi.NoteOffEvent(tick=960, channel=4, data=[58, 0]),
   midi.NoteOffEvent(tick=0, channel=4, data=[46, 0]),
   midi.NoteOnEvent(tick=960, channel=4, data=[58, 113]),
   midi.NoteOnEvent(tick=0, channel=4, data=[46, 113]),
   midi.NoteOffEvent(tick=960, channel=4, data=[58, 0]),
   midi.NoteOffEvent(tick=0, channel=4, data=[46, 0]),
   midi.NoteOnEvent(tick=960, channel=4, data=[63, 118]),
   midi.NoteOnEvent(tick=0, channel=4, data=[51, 117]),
   midi.NoteOffEvent(tick=960, channel=4, data=[63, 0]),
   midi.NoteOffEvent(tick=0, channel=4, data=[51, 0]),
   midi.NoteOnEvent(tick=960, channel=4, data=[63, 115]),
   midi.NoteOnEvent(tick=0, channel=4, data=[51, 115]),
   midi.NoteOffEvent(tick=960, channel=4, data=[63, 0]),
   midi.NoteOffEvent(tick=0, channel=4, data=[51, 0]),
   midi.NoteOnEvent(tick=960, channel=4, data=[63, 114]),
   midi.NoteOnEvent(tick=0, channel=4, data=[51, 114]),
   midi.NoteOffEvent(tick=960, channel=4, data=[63, 0]),
   midi.NoteOffEvent(tick=0, channel=4, data=[51, 0]),
   midi.NoteOnEvent(tick=960, channel=4, data=[58, 108]),
   midi.NoteOnEvent(tick=0, channel=4, data=[46, 110]),
   midi.NoteOffEvent(tick=960, channel=4, data=[58, 0]),
   midi.NoteOffEvent(tick=0, channel=4, data=[46, 0]),
   midi.NoteOnEvent(tick=0, channel=4, data=[63, 124]),
   midi.NoteOnEvent(tick=0, channel=4, data=[51, 123]),
   midi.NoteOffEvent(tick=960, channel=4, data=[63, 0]),
   midi.NoteOffEvent(tick=0, channel=4, data=[51, 0]),
   midi.NoteOnEvent(tick=1440, channel=4, data=[70, 123]),
   midi.NoteOnEvent(tick=0, channel=4, data=[58, 123]),
   midi.NoteOffEvent(tick=480, channel=4, data=[70, 0]),
   midi.NoteOffEvent(tick=0, channel=4, data=[58, 0]),
   midi.NoteOnEvent(tick=0, channel=4, data=[70, 121]),
   midi.NoteOnEvent(tick=0, channel=4, data=[58, 121]),
   midi.NoteOffEvent(tick=480, channel=4, data=[70, 0]),
   midi.NoteOffEvent(tick=0, channel=4, data=[58, 0]),
   midi.NoteOnEvent(tick=0, channel=4, data=[70, 119]),
   midi.NoteOnEvent(tick=0, channel=4, data=[58, 119]),
   midi.NoteOffEvent(tick=480, channel=4, data=[70, 0]),
   midi.NoteOffEvent(tick=0, channel=4, data=[58, 0]),
   midi.NoteOnEvent(tick=0, channel=4, data=[67, 116]),
   midi.NoteOnEvent(tick=0, channel=4, data=[55, 116]),
   midi.NoteOffEvent(tick=480, channel=4, data=[67, 0]),
   midi.NoteOffEvent(tick=0, channel=4, data=[55, 0]),
   midi.NoteOnEvent(tick=0, channel=4, data=[63, 99]),
   midi.NoteOnEvent(tick=0, channel=4, data=[51, 100]),
   midi.NoteOffEvent(tick=480, channel=4, data=[63, 0]),
   midi.NoteOffEvent(tick=0, channel=4, data=[51, 0]),
   midi.NoteOnEvent(tick=0, channel=4, data=[63, 100]),
   midi.NoteOnEvent(tick=0, channel=4, data=[51, 101]),
   midi.NoteOffEvent(tick=480, channel=4, data=[63, 0]),
   midi.NoteOffEvent(tick=0, channel=4, data=[51, 0]),
   midi.NoteOnEvent(tick=0, channel=4, data=[63, 101]),
   midi.NoteOnEvent(tick=0, channel=4, data=[51, 102]),
   midi.NoteOffEvent(tick=480, channel=4, data=[63, 0]),
   midi.NoteOffEvent(tick=0, channel=4, data=[51, 0]),
   midi.NoteOnEvent(tick=0, channel=4, data=[58, 102]),
   midi.NoteOnEvent(tick=0, channel=4, data=[46, 102]),
   midi.NoteOffEvent(tick=2880, channel=4, data=[58, 0]),
   midi.NoteOffEvent(tick=0, channel=4, data=[46, 0]),
   midi.NoteOnEvent(tick=1440, channel=4, data=[70, 120]),
   midi.NoteOnEvent(tick=0, channel=4, data=[58, 120]),
   midi.NoteOffEvent(tick=480, channel=4, data=[70, 0]),
   midi.NoteOffEvent(tick=0, channel=4, data=[58, 0]),
   midi.NoteOnEvent(tick=0, channel=4, data=[70, 118]),
   midi.NoteOnEvent(tick=0, channel=4, data=[58, 118]),
   midi.NoteOffEvent(tick=480, channel=4, data=[70, 0]),
   midi.NoteOffEvent(tick=0, channel=4, data=[58, 0]),
   midi.NoteOnEvent(tick=0, channel=4, data=[70, 117]),
   midi.NoteOnEvent(tick=0, channel=4, data=[58, 117]),
   midi.NoteOffEvent(tick=480, channel=4, data=[70, 0]),
   midi.NoteOffEvent(tick=0, channel=4, data=[58, 0]),
   midi.NoteOnEvent(tick=0, channel=4, data=[67, 114]),
   midi.NoteOnEvent(tick=0, channel=4, data=[55, 114]),
   midi.NoteOffEvent(tick=480, channel=4, data=[67, 0]),
   midi.NoteOffEvent(tick=0, channel=4, data=[55, 0]),
   midi.NoteOnEvent(tick=0, channel=4, data=[63, 98]),
   midi.NoteOnEvent(tick=0, channel=4, data=[51, 100]),
   midi.NoteOffEvent(tick=480, channel=4, data=[63, 0]),
   midi.NoteOffEvent(tick=0, channel=4, data=[51, 0]),
   midi.NoteOnEvent(tick=0, channel=4, data=[63, 99]),
   midi.NoteOnEvent(tick=0, channel=4, data=[51, 101]),
   midi.NoteOffEvent(tick=480, channel=4, data=[63, 0]),
   midi.NoteOffEvent(tick=0, channel=4, data=[51, 0]),
   midi.NoteOnEvent(tick=0, channel=4, data=[63, 100]),
   midi.NoteOnEvent(tick=0, channel=4, data=[51, 102]),
   midi.NoteOffEvent(tick=480, channel=4, data=[63, 0]),
   midi.NoteOffEvent(tick=0, channel=4, data=[51, 0]),
   midi.NoteOnEvent(tick=0, channel=4, data=[58, 102]),
   midi.NoteOnEvent(tick=0, channel=4, data=[46, 103]),
   midi.NoteOffEvent(tick=2880, channel=4, data=[58, 0]),
   midi.NoteOffEvent(tick=0, channel=4, data=[46, 0]),
   midi.NoteOnEvent(tick=1440, channel=4, data=[58, 109]),
   midi.NoteOnEvent(tick=0, channel=4, data=[46, 110]),
   midi.NoteOffEvent(tick=480, channel=4, data=[58, 0]),
   midi.NoteOffEvent(tick=0, channel=4, data=[46, 0]),
   midi.NoteOnEvent(tick=0, channel=4, data=[58, 110]),
   midi.NoteOnEvent(tick=0, channel=4, data=[46, 111]),
   midi.NoteOffEvent(tick=480, channel=4, data=[58, 0]),
   midi.NoteOffEvent(tick=0, channel=4, data=[46, 0]),
   midi.NoteOnEvent(tick=0, channel=4, data=[58, 111]),
   midi.NoteOnEvent(tick=0, channel=4, data=[46, 112]),
   midi.NoteOffEvent(tick=480, channel=4, data=[58, 0]),
   midi.NoteOffEvent(tick=0, channel=4, data=[46, 0]),
   midi.NoteOnEvent(tick=0, channel=4, data=[63, 127]),
   midi.NoteOnEvent(tick=0, channel=4, data=[51, 127]),
   midi.NoteOffEvent(tick=960, channel=4, data=[63, 0]),
   midi.NoteOffEvent(tick=0, channel=4, data=[51, 0]),
   midi.NoteOnEvent(tick=1440, channel=4, data=[65, 122]),
   midi.NoteOnEvent(tick=0, channel=4, data=[58, 127]),
   midi.NoteOffEvent(tick=480, channel=4, data=[65, 0]),
   midi.NoteOffEvent(tick=0, channel=4, data=[58, 0]),
   midi.NoteOnEvent(tick=0, channel=4, data=[65, 121]),
   midi.NoteOnEvent(tick=0, channel=4, data=[58, 126]),
   midi.NoteOffEvent(tick=480, channel=4, data=[65, 0]),
   midi.NoteOffEvent(tick=0, channel=4, data=[58, 0]),
   midi.NoteOnEvent(tick=0, channel=4, data=[65, 119]),
   midi.NoteOnEvent(tick=0, channel=4, data=[58, 125]),
   midi.NoteOffEvent(tick=480, channel=4, data=[65, 0]),
   midi.NoteOffEvent(tick=0, channel=4, data=[58, 0]),
   midi.NoteOnEvent(tick=0, channel=4, data=[63, 118]),
   midi.NoteOnEvent(tick=0, channel=4, data=[51, 108]),
   midi.NoteOffEvent(tick=960, channel=4, data=[63, 0]),
   midi.NoteOffEvent(tick=0, channel=4, data=[51, 0]),
   midi.NoteOnEvent(tick=37920, channel=4, data=[67, 61]),
   midi.NoteOffEvent(tick=480, channel=4, data=[67, 0]),
   midi.NoteOnEvent(tick=0, channel=4, data=[67, 61]),
   midi.NoteOffEvent(tick=480, channel=4, data=[67, 0]),
   midi.NoteOnEvent(tick=0, channel=4, data=[67, 78]),
   midi.NoteOffEvent(tick=480, channel=4, data=[67, 0]),
   midi.NoteOnEvent(tick=0, channel=4, data=[67, 104]),
   midi.NoteOffEvent(tick=960, channel=4, data=[67, 0]),
   midi.NoteOnEvent(tick=960, channel=4, data=[63, 96]),
   midi.NoteOnEvent(tick=0, channel=4, data=[51, 104]),
   midi.NoteOffEvent(tick=960, channel=4, data=[63, 0]),
   midi.NoteOffEvent(tick=0, channel=4, data=[51, 0]),
   midi.NoteOnEvent(tick=960, channel=4, data=[67, 106]),
   midi.NoteOnEvent(tick=0, channel=4, data=[55, 106]),
   midi.NoteOffEvent(tick=960, channel=4, data=[67, 0]),
   midi.NoteOffEvent(tick=0, channel=4, data=[55, 0]),
   midi.NoteOnEvent(tick=3360, channel=4, data=[68, 114]),
   midi.NoteOffEvent(tick=480, channel=4, data=[68, 0]),
   midi.NoteOnEvent(tick=0, channel=4, data=[68, 113]),
   midi.NoteOffEvent(tick=480, channel=4, data=[68, 0]),
   midi.NoteOnEvent(tick=0, channel=4, data=[68, 113]),
   midi.NoteOffEvent(tick=480, channel=4, data=[68, 0]),
   midi.NoteOnEvent(tick=0, channel=4, data=[65, 112]),
   midi.NoteOffEvent(tick=3840, channel=4, data=[65, 0]),
   midi.NoteOnEvent(tick=13920, channel=4, data=[55, 61]),
   midi.NoteOnEvent(tick=0, channel=4, data=[67, 61]),
   midi.NoteOffEvent(tick=480, channel=4, data=[55, 0]),
   midi.NoteOffEvent(tick=0, channel=4, data=[67, 0]),
   midi.NoteOnEvent(tick=0, channel=4, data=[55, 61]),
   midi.NoteOnEvent(tick=0, channel=4, data=[67, 61]),
   midi.NoteOffEvent(tick=480, channel=4, data=[55, 0]),
   midi.NoteOffEvent(tick=0, channel=4, data=[67, 0]),
   midi.NoteOnEvent(tick=0, channel=4, data=[55, 61]),
   midi.NoteOnEvent(tick=0, channel=4, data=[67, 61]),
   midi.NoteOffEvent(tick=480, channel=4, data=[55, 0]),
   midi.NoteOffEvent(tick=0, channel=4, data=[67, 0]),
   midi.NoteOnEvent(tick=0, channel=4, data=[55, 65]),
   midi.NoteOnEvent(tick=0, channel=4, data=[67, 65]),
   midi.NoteOffEvent(tick=960, channel=4, data=[55, 0]),
   midi.NoteOffEvent(tick=0, channel=4, data=[67, 0]),
   midi.NoteOnEvent(tick=960, channel=4, data=[68, 66]),
   midi.NoteOnEvent(tick=0, channel=4, data=[65, 65]),
   midi.NoteOffEvent(tick=2880, channel=4, data=[68, 0]),
   midi.NoteOffEvent(tick=0, channel=4, data=[65, 0]),
   midi.NoteOnEvent(tick=14400, channel=4, data=[68, 104]),
   midi.NoteOnEvent(tick=0, channel=4, data=[65, 104]),
   midi.NoteOffEvent(tick=960, channel=4, data=[68, 0]),
   midi.NoteOffEvent(tick=0, channel=4, data=[65, 0]),
   midi.NoteOnEvent(tick=960, channel=4, data=[67, 103]),
   midi.NoteOnEvent(tick=0, channel=4, data=[63, 103]),
   midi.NoteOffEvent(tick=7680, channel=4, data=[67, 0]),
   midi.NoteOffEvent(tick=0, channel=4, data=[63, 0]),
   midi.NoteOnEvent(tick=0, channel=4, data=[67, 104]),
   midi.NoteOnEvent(tick=0, channel=4, data=[65, 104]),
   midi.NoteOffEvent(tick=6720, channel=4, data=[67, 0]),
   midi.NoteOffEvent(tick=0, channel=4, data=[65, 0]),
   midi.NoteOnEvent(tick=0, channel=4, data=[63, 98]),
   midi.NoteOnEvent(tick=0, channel=4, data=[67, 98]),
   midi.NoteOffEvent(tick=960, channel=4, data=[63, 0]),
   midi.NoteOffEvent(tick=0, channel=4, data=[67, 0]),
   midi.NoteOnEvent(tick=0, channel=4, data=[66, 119]),
   midi.NoteOnEvent(tick=0, channel=4, data=[63, 120]),
   midi.NoteOffEvent(tick=7680, channel=4, data=[66, 0]),
   midi.NoteOffEvent(tick=0, channel=4, data=[63, 0]),
   midi.NoteOnEvent(tick=0, channel=4, data=[66, 120]),
   midi.NoteOnEvent(tick=0, channel=4, data=[63, 120]),
   midi.NoteOffEvent(tick=960, channel=4, data=[66, 0]),
   midi.NoteOffEvent(tick=0, channel=4, data=[63, 0]),
   midi.NoteOnEvent(tick=2880, channel=4, data=[65, 119]),
   midi.NoteOnEvent(tick=0, channel=4, data=[58, 118]),
   midi.NoteOffEvent(tick=960, channel=4, data=[65, 0]),
   midi.NoteOffEvent(tick=0, channel=4, data=[58, 0]),
   midi.NoteOnEvent(tick=1440, channel=4, data=[70, 116]),
   midi.NoteOffEvent(tick=480, channel=4, data=[70, 0]),
   midi.NoteOnEvent(tick=0, channel=4, data=[70, 115]),
   midi.NoteOffEvent(tick=480, channel=4, data=[70, 0]),
   midi.NoteOnEvent(tick=0, channel=4, data=[70, 115]),
   midi.NoteOffEvent(tick=480, channel=4, data=[70, 0]),
   midi.NoteOnEvent(tick=0, channel=4, data=[63, 56]),
   midi.NoteOffEvent(tick=1920, channel=4, data=[63, 0]),
   midi.NoteOnEvent(tick=0, channel=4, data=[65, 99]),
   midi.NoteOffEvent(tick=1920, channel=4, data=[65, 0]),
   midi.NoteOnEvent(tick=0, channel=4, data=[58, 58]),
   midi.NoteOffEvent(tick=24960, channel=4, data=[58, 0]),
   midi.NoteOnEvent(tick=15360, channel=4, data=[63, 65]),
   midi.NoteOnEvent(tick=0, channel=4, data=[51, 65]),
   midi.NoteOffEvent(tick=18240, channel=4, data=[63, 0]),
   midi.NoteOffEvent(tick=0, channel=4, data=[51, 0]),
   midi.NoteOnEvent(tick=0, channel=4, data=[63, 84]),
   midi.NoteOnEvent(tick=0, channel=4, data=[51, 84]),
   midi.NoteOffEvent(tick=960, channel=4, data=[63, 0]),
   midi.NoteOffEvent(tick=0, channel=4, data=[51, 0]),
   midi.NoteOnEvent(tick=0, channel=4, data=[63, 89]),
   midi.NoteOnEvent(tick=0, channel=4, data=[51, 89]),
   midi.NoteOffEvent(tick=960, channel=4, data=[63, 0]),
   midi.NoteOffEvent(tick=0, channel=4, data=[51, 0]),
   midi.NoteOnEvent(tick=0, channel=4, data=[63, 84]),
   midi.NoteOnEvent(tick=0, channel=4, data=[51, 84]),
   midi.NoteOffEvent(tick=960, channel=4, data=[63, 0]),
   midi.NoteOffEvent(tick=0, channel=4, data=[51, 0]),
   midi.NoteOnEvent(tick=0, channel=4, data=[65, 124]),
   midi.NoteOnEvent(tick=0, channel=4, data=[58, 127]),
   midi.NoteOffEvent(tick=2880, channel=4, data=[65, 0]),
   midi.NoteOffEvent(tick=0, channel=4, data=[58, 0]),
   midi.NoteOnEvent(tick=0, channel=4, data=[58, 107]),
   midi.NoteOnEvent(tick=0, channel=4, data=[46, 108]),
   midi.NoteOffEvent(tick=960, channel=4, data=[58, 0]),
   midi.NoteOffEvent(tick=0, channel=4, data=[46, 0]),
   midi.NoteOnEvent(tick=0, channel=4, data=[58, 116]),
   midi.NoteOnEvent(tick=0, channel=4, data=[46, 116]),
   midi.NoteOffEvent(tick=960, channel=4, data=[58, 0]),
   midi.NoteOffEvent(tick=0, channel=4, data=[46, 0]),
   midi.NoteOnEvent(tick=960, channel=4, data=[58, 119]),
   midi.NoteOnEvent(tick=0, channel=4, data=[46, 119]),
   midi.NoteOffEvent(tick=960, channel=4, data=[58, 0]),
   midi.NoteOffEvent(tick=0, channel=4, data=[46, 0]),
   midi.NoteOnEvent(tick=960, channel=4, data=[58, 120]),
   midi.NoteOnEvent(tick=0, channel=4, data=[46, 120]),
   midi.NoteOffEvent(tick=960, channel=4, data=[58, 0]),
   midi.NoteOffEvent(tick=0, channel=4, data=[46, 0]),
   midi.NoteOnEvent(tick=960, channel=4, data=[63, 126]),
   midi.NoteOnEvent(tick=0, channel=4, data=[51, 125]),
   midi.NoteOffEvent(tick=960, channel=4, data=[63, 0]),
   midi.NoteOffEvent(tick=0, channel=4, data=[51, 0]),
   midi.NoteOnEvent(tick=960, channel=4, data=[67, 127]),
   midi.NoteOnEvent(tick=0, channel=4, data=[63, 127]),
   midi.NoteOffEvent(tick=960, channel=4, data=[67, 0]),
   midi.NoteOffEvent(tick=0, channel=4, data=[63, 0]),
   midi.NoteOnEvent(tick=960, channel=4, data=[65, 120]),
   midi.NoteOnEvent(tick=0, channel=4, data=[58, 120]),
   midi.NoteOffEvent(tick=960, channel=4, data=[65, 0]),
   midi.NoteOffEvent(tick=0, channel=4, data=[58, 0]),
   midi.NoteOnEvent(tick=0, channel=4, data=[58, 102]),
   midi.NoteOnEvent(tick=0, channel=4, data=[46, 103]),
   midi.NoteOffEvent(tick=5760, channel=4, data=[58, 0]),
   midi.NoteOffEvent(tick=0, channel=4, data=[46, 0]),
   midi.NoteOnEvent(tick=0, channel=4, data=[58, 113]),
   midi.NoteOnEvent(tick=0, channel=4, data=[46, 113]),
   midi.NoteOffEvent(tick=960, channel=4, data=[58, 0]),
   midi.NoteOffEvent(tick=0, channel=4, data=[46, 0]),
   midi.NoteOnEvent(tick=960, channel=4, data=[58, 113]),
   midi.NoteOnEvent(tick=0, channel=4, data=[46, 113]),
   midi.NoteOffEvent(tick=960, channel=4, data=[58, 0]),
   midi.NoteOffEvent(tick=0, channel=4, data=[46, 0]),
   midi.NoteOnEvent(tick=960, channel=4, data=[63, 118]),
   midi.NoteOnEvent(tick=0, channel=4, data=[51, 117]),
   midi.NoteOffEvent(tick=960, channel=4, data=[63, 0]),
   midi.NoteOffEvent(tick=0, channel=4, data=[51, 0]),
   midi.NoteOnEvent(tick=960, channel=4, data=[63, 115]),
   midi.NoteOnEvent(tick=0, channel=4, data=[51, 115]),
   midi.NoteOffEvent(tick=960, channel=4, data=[63, 0]),
   midi.NoteOffEvent(tick=0, channel=4, data=[51, 0]),
   midi.NoteOnEvent(tick=960, channel=4, data=[63, 114]),
   midi.NoteOnEvent(tick=0, channel=4, data=[51, 114]),
   midi.NoteOffEvent(tick=960, channel=4, data=[63, 0]),
   midi.NoteOffEvent(tick=0, channel=4, data=[51, 0]),
   midi.NoteOnEvent(tick=960, channel=4, data=[58, 108]),
   midi.NoteOnEvent(tick=0, channel=4, data=[46, 110]),
   midi.NoteOffEvent(tick=960, channel=4, data=[58, 0]),
   midi.NoteOffEvent(tick=0, channel=4, data=[46, 0]),
   midi.NoteOnEvent(tick=0, channel=4, data=[63, 124]),
   midi.NoteOnEvent(tick=0, channel=4, data=[51, 123]),
   midi.NoteOffEvent(tick=960, channel=4, data=[63, 0]),
   midi.NoteOffEvent(tick=0, channel=4, data=[51, 0]),
   midi.NoteOnEvent(tick=1440, channel=4, data=[70, 123]),
   midi.NoteOnEvent(tick=0, channel=4, data=[58, 123]),
   midi.NoteOffEvent(tick=480, channel=4, data=[70, 0]),
   midi.NoteOffEvent(tick=0, channel=4, data=[58, 0]),
   midi.NoteOnEvent(tick=0, channel=4, data=[70, 121]),
   midi.NoteOnEvent(tick=0, channel=4, data=[58, 121]),
   midi.NoteOffEvent(tick=480, channel=4, data=[70, 0]),
   midi.NoteOffEvent(tick=0, channel=4, data=[58, 0]),
   midi.NoteOnEvent(tick=0, channel=4, data=[70, 119]),
   midi.NoteOnEvent(tick=0, channel=4, data=[58, 119]),
   midi.NoteOffEvent(tick=480, channel=4, data=[70, 0]),
   midi.NoteOffEvent(tick=0, channel=4, data=[58, 0]),
   midi.NoteOnEvent(tick=0, channel=4, data=[67, 116]),
   midi.NoteOnEvent(tick=0, channel=4, data=[55, 116]),
   midi.NoteOffEvent(tick=480, channel=4, data=[67, 0]),
   midi.NoteOffEvent(tick=0, channel=4, data=[55, 0]),
   midi.NoteOnEvent(tick=0, channel=4, data=[63, 99]),
   midi.NoteOnEvent(tick=0, channel=4, data=[51, 100]),
   midi.NoteOffEvent(tick=480, channel=4, data=[63, 0]),
   midi.NoteOffEvent(tick=0, channel=4, data=[51, 0]),
   midi.NoteOnEvent(tick=0, channel=4, data=[63, 100]),
   midi.NoteOnEvent(tick=0, channel=4, data=[51, 101]),
   midi.NoteOffEvent(tick=480, channel=4, data=[63, 0]),
   midi.NoteOffEvent(tick=0, channel=4, data=[51, 0]),
   midi.NoteOnEvent(tick=0, channel=4, data=[63, 101]),
   midi.NoteOnEvent(tick=0, channel=4, data=[51, 102]),
   midi.NoteOffEvent(tick=480, channel=4, data=[63, 0]),
   midi.NoteOffEvent(tick=0, channel=4, data=[51, 0]),
   midi.NoteOnEvent(tick=0, channel=4, data=[58, 102]),
   midi.NoteOnEvent(tick=0, channel=4, data=[46, 102]),
   midi.NoteOffEvent(tick=2880, channel=4, data=[58, 0]),
   midi.NoteOffEvent(tick=0, channel=4, data=[46, 0]),
   midi.NoteOnEvent(tick=1440, channel=4, data=[70, 120]),
   midi.NoteOnEvent(tick=0, channel=4, data=[58, 120]),
   midi.NoteOffEvent(tick=480, channel=4, data=[70, 0]),
   midi.NoteOffEvent(tick=0, channel=4, data=[58, 0]),
   midi.NoteOnEvent(tick=0, channel=4, data=[70, 118]),
   midi.NoteOnEvent(tick=0, channel=4, data=[58, 118]),
   midi.NoteOffEvent(tick=480, channel=4, data=[70, 0]),
   midi.NoteOffEvent(tick=0, channel=4, data=[58, 0]),
   midi.NoteOnEvent(tick=0, channel=4, data=[70, 117]),
   midi.NoteOnEvent(tick=0, channel=4, data=[58, 117]),
   midi.NoteOffEvent(tick=480, channel=4, data=[70, 0]),
   midi.NoteOffEvent(tick=0, channel=4, data=[58, 0]),
   midi.NoteOnEvent(tick=0, channel=4, data=[67, 114]),
   midi.NoteOnEvent(tick=0, channel=4, data=[55, 114]),
   midi.NoteOffEvent(tick=480, channel=4, data=[67, 0]),
   midi.NoteOffEvent(tick=0, channel=4, data=[55, 0]),
   midi.NoteOnEvent(tick=0, channel=4, data=[63, 98]),
   midi.NoteOnEvent(tick=0, channel=4, data=[51, 100]),
   midi.NoteOffEvent(tick=480, channel=4, data=[63, 0]),
   midi.NoteOffEvent(tick=0, channel=4, data=[51, 0]),
   midi.NoteOnEvent(tick=0, channel=4, data=[63, 99]),
   midi.NoteOnEvent(tick=0, channel=4, data=[51, 101]),
   midi.NoteOffEvent(tick=480, channel=4, data=[63, 0]),
   midi.NoteOffEvent(tick=0, channel=4, data=[51, 0]),
   midi.NoteOnEvent(tick=0, channel=4, data=[63, 100]),
   midi.NoteOnEvent(tick=0, channel=4, data=[51, 102]),
   midi.NoteOffEvent(tick=480, channel=4, data=[63, 0]),
   midi.NoteOffEvent(tick=0, channel=4, data=[51, 0]),
   midi.NoteOnEvent(tick=0, channel=4, data=[58, 102]),
   midi.NoteOnEvent(tick=0, channel=4, data=[46, 103]),
   midi.NoteOffEvent(tick=2880, channel=4, data=[58, 0]),
   midi.NoteOffEvent(tick=0, channel=4, data=[46, 0]),
   midi.NoteOnEvent(tick=1440, channel=4, data=[58, 109]),
   midi.NoteOnEvent(tick=0, channel=4, data=[46, 110]),
   midi.NoteOffEvent(tick=480, channel=4, data=[58, 0]),
   midi.NoteOffEvent(tick=0, channel=4, data=[46, 0]),
   midi.NoteOnEvent(tick=0, channel=4, data=[58, 110]),
   midi.NoteOnEvent(tick=0, channel=4, data=[46, 111]),
   midi.NoteOffEvent(tick=480, channel=4, data=[58, 0]),
   midi.NoteOffEvent(tick=0, channel=4, data=[46, 0]),
   midi.NoteOnEvent(tick=0, channel=4, data=[58, 111]),
   midi.NoteOnEvent(tick=0, channel=4, data=[46, 112]),
   midi.NoteOffEvent(tick=480, channel=4, data=[58, 0]),
   midi.NoteOffEvent(tick=0, channel=4, data=[46, 0]),
   midi.NoteOnEvent(tick=0, channel=4, data=[63, 127]),
   midi.NoteOnEvent(tick=0, channel=4, data=[51, 127]),
   midi.NoteOffEvent(tick=960, channel=4, data=[63, 0]),
   midi.NoteOffEvent(tick=0, channel=4, data=[51, 0]),
   midi.NoteOnEvent(tick=1440, channel=4, data=[65, 122]),
   midi.NoteOnEvent(tick=0, channel=4, data=[58, 127]),
   midi.NoteOffEvent(tick=480, channel=4, data=[65, 0]),
   midi.NoteOffEvent(tick=0, channel=4, data=[58, 0]),
   midi.NoteOnEvent(tick=0, channel=4, data=[65, 121]),
   midi.NoteOnEvent(tick=0, channel=4, data=[58, 126]),
   midi.NoteOffEvent(tick=480, channel=4, data=[65, 0]),
   midi.NoteOffEvent(tick=0, channel=4, data=[58, 0]),
   midi.NoteOnEvent(tick=0, channel=4, data=[65, 119]),
   midi.NoteOnEvent(tick=0, channel=4, data=[58, 125]),
   midi.NoteOffEvent(tick=480, channel=4, data=[65, 0]),
   midi.NoteOffEvent(tick=0, channel=4, data=[58, 0]),
   midi.NoteOnEvent(tick=0, channel=4, data=[63, 118]),
   midi.NoteOnEvent(tick=0, channel=4, data=[51, 108]),
   midi.NoteOffEvent(tick=960, channel=4, data=[63, 0]),
   midi.NoteOffEvent(tick=0, channel=4, data=[51, 0]),
   midi.NoteOnEvent(tick=5280, channel=4, data=[70, 114]),
   midi.NoteOffEvent(tick=480, channel=4, data=[70, 0]),
   midi.NoteOnEvent(tick=0, channel=4, data=[70, 114]),
   midi.NoteOffEvent(tick=480, channel=4, data=[70, 0]),
   midi.NoteOnEvent(tick=0, channel=4, data=[70, 113]),
   midi.NoteOffEvent(tick=480, channel=4, data=[70, 0]),
   midi.NoteOnEvent(tick=0, channel=4, data=[67, 112]),
   midi.NoteOffEvent(tick=5760, channel=4, data=[67, 0]),
   midi.NoteOnEvent(tick=27840, channel=4, data=[63, 61]),
   midi.NoteOffEvent(tick=960, channel=4, data=[63, 0]),
   midi.NoteOnEvent(tick=0, channel=4, data=[65, 66]),
   midi.NoteOffEvent(tick=960, channel=4, data=[65, 0]),
   midi.NoteOnEvent(tick=0, channel=4, data=[66, 62]),
   midi.NoteOffEvent(tick=960, channel=4, data=[66, 0]),
   midi.NoteOnEvent(tick=0, channel=4, data=[67, 67]),
   midi.NoteOnEvent(tick=0, channel=4, data=[55, 65]),
   midi.NoteOffEvent(tick=10560, channel=4, data=[67, 0]),
   midi.NoteOffEvent(tick=0, channel=4, data=[55, 0]),
   midi.NoteOnEvent(tick=14880, channel=4, data=[67, 61]),
   midi.NoteOnEvent(tick=0, channel=4, data=[55, 61]),
   midi.NoteOffEvent(tick=480, channel=4, data=[67, 0]),
   midi.NoteOffEvent(tick=0, channel=4, data=[55, 0]),
   midi.NoteOnEvent(tick=0, channel=4, data=[67, 61]),
   midi.NoteOnEvent(tick=0, channel=4, data=[55, 61]),
   midi.NoteOffEvent(tick=480, channel=4, data=[67, 0]),
   midi.NoteOffEvent(tick=0, channel=4, data=[55, 0]),
   midi.NoteOnEvent(tick=0, channel=4, data=[67, 61]),
   midi.NoteOnEvent(tick=0, channel=4, data=[55, 61]),
   midi.NoteOffEvent(tick=480, channel=4, data=[67, 0]),
   midi.NoteOffEvent(tick=0, channel=4, data=[55, 0]),
   midi.NoteOnEvent(tick=0, channel=4, data=[67, 65]),
   midi.NoteOnEvent(tick=0, channel=4, data=[55, 65]),
   midi.NoteOffEvent(tick=960, channel=4, data=[67, 0]),
   midi.NoteOffEvent(tick=0, channel=4, data=[55, 0]),
   midi.NoteOnEvent(tick=1440, channel=4, data=[63, 57]),
   midi.NoteOnEvent(tick=0, channel=4, data=[51, 58]),
   midi.NoteOffEvent(tick=480, channel=4, data=[63, 0]),
   midi.NoteOffEvent(tick=0, channel=4, data=[51, 0]),
   midi.NoteOnEvent(tick=0, channel=4, data=[63, 58]),
   midi.NoteOnEvent(tick=0, channel=4, data=[51, 58]),
   midi.NoteOffEvent(tick=480, channel=4, data=[63, 0]),
   midi.NoteOffEvent(tick=0, channel=4, data=[51, 0]),
   midi.NoteOnEvent(tick=0, channel=4, data=[63, 58]),
   midi.NoteOnEvent(tick=0, channel=4, data=[51, 59]),
   midi.NoteOffEvent(tick=480, channel=4, data=[63, 0]),
   midi.NoteOffEvent(tick=0, channel=4, data=[51, 0]),
   midi.NoteOnEvent(tick=0, channel=4, data=[63, 63]),
   midi.NoteOnEvent(tick=0, channel=4, data=[51, 63]),
   midi.NoteOffEvent(tick=960, channel=4, data=[63, 0]),
   midi.NoteOffEvent(tick=0, channel=4, data=[51, 0]),
   midi.NoteOnEvent(tick=1440, channel=4, data=[63, 61]),
   midi.NoteOnEvent(tick=0, channel=4, data=[51, 61]),
   midi.NoteOffEvent(tick=480, channel=4, data=[63, 0]),
   midi.NoteOffEvent(tick=0, channel=4, data=[51, 0]),
   midi.NoteOnEvent(tick=0, channel=4, data=[63, 61]),
   midi.NoteOnEvent(tick=0, channel=4, data=[51, 61]),
   midi.NoteOffEvent(tick=480, channel=4, data=[63, 0]),
   midi.NoteOffEvent(tick=0, channel=4, data=[51, 0]),
   midi.NoteOnEvent(tick=0, channel=4, data=[63, 61]),
   midi.NoteOnEvent(tick=0, channel=4, data=[51, 61]),
   midi.NoteOffEvent(tick=480, channel=4, data=[63, 0]),
   midi.NoteOffEvent(tick=0, channel=4, data=[51, 0]),
   midi.NoteOnEvent(tick=0, channel=4, data=[63, 65]),
   midi.NoteOnEvent(tick=0, channel=4, data=[51, 65]),
   midi.NoteOffEvent(tick=960, channel=4, data=[63, 0]),
   midi.NoteOffEvent(tick=0, channel=4, data=[51, 0]),
   midi.NoteOnEvent(tick=1440, channel=4, data=[67, 65]),
   midi.NoteOnEvent(tick=0, channel=4, data=[55, 65]),
   midi.NoteOffEvent(tick=480, channel=4, data=[67, 0]),
   midi.NoteOffEvent(tick=0, channel=4, data=[55, 0]),
   midi.NoteOnEvent(tick=0, channel=4, data=[67, 64]),
   midi.NoteOnEvent(tick=0, channel=4, data=[55, 64]),
   midi.NoteOffEvent(tick=480, channel=4, data=[67, 0]),
   midi.NoteOffEvent(tick=0, channel=4, data=[55, 0]),
   midi.NoteOnEvent(tick=0, channel=4, data=[67, 64]),
   midi.NoteOnEvent(tick=0, channel=4, data=[55, 64]),
   midi.NoteOffEvent(tick=480, channel=4, data=[67, 0]),
   midi.NoteOffEvent(tick=0, channel=4, data=[55, 0]),
   midi.NoteOnEvent(tick=0, channel=4, data=[67, 67]),
   midi.NoteOnEvent(tick=0, channel=4, data=[55, 67]),
   midi.NoteOffEvent(tick=960, channel=4, data=[67, 0]),
   midi.NoteOffEvent(tick=0, channel=4, data=[55, 0]),
   midi.NoteOnEvent(tick=1440, channel=4, data=[67, 84]),
   midi.NoteOnEvent(tick=0, channel=4, data=[55, 84]),
   midi.NoteOffEvent(tick=480, channel=4, data=[67, 0]),
   midi.NoteOffEvent(tick=0, channel=4, data=[55, 0]),
   midi.NoteOnEvent(tick=0, channel=4, data=[67, 84]),
   midi.NoteOnEvent(tick=0, channel=4, data=[55, 84]),
   midi.NoteOffEvent(tick=480, channel=4, data=[67, 0]),
   midi.NoteOffEvent(tick=0, channel=4, data=[55, 0]),
   midi.NoteOnEvent(tick=0, channel=4, data=[67, 84]),
   midi.NoteOnEvent(tick=0, channel=4, data=[55, 84]),
   midi.NoteOffEvent(tick=480, channel=4, data=[67, 0]),
   midi.NoteOffEvent(tick=0, channel=4, data=[55, 0]),
   midi.NoteOnEvent(tick=0, channel=4, data=[67, 89]),
   midi.NoteOnEvent(tick=0, channel=4, data=[55, 89]),
   midi.NoteOffEvent(tick=960, channel=4, data=[67, 0]),
   midi.NoteOffEvent(tick=0, channel=4, data=[55, 0]),
   midi.NoteOnEvent(tick=0, channel=4, data=[67, 84]),
   midi.NoteOnEvent(tick=0, channel=4, data=[55, 84]),
   midi.NoteOffEvent(tick=960, channel=4, data=[67, 0]),
   midi.NoteOffEvent(tick=0, channel=4, data=[55, 0]),
   midi.NoteOnEvent(tick=0, channel=4, data=[63, 93]),
   midi.NoteOnEvent(tick=0, channel=4, data=[51, 94]),
   midi.NoteOffEvent(tick=3840, channel=4, data=[63, 0]),
   midi.NoteOffEvent(tick=0, channel=4, data=[51, 0]),
   midi.NoteOnEvent(tick=0, channel=4, data=[63, 102]),
   midi.NoteOnEvent(tick=0, channel=4, data=[51, 102]),
   midi.NoteOffEvent(tick=960, channel=4, data=[63, 0]),
   midi.NoteOffEvent(tick=0, channel=4, data=[51, 0]),
   midi.NoteOnEvent(tick=1440, channel=4, data=[67, 100]),
   midi.NoteOnEvent(tick=0, channel=4, data=[55, 100]),
   midi.NoteOffEvent(tick=480, channel=4, data=[67, 0]),
   midi.NoteOffEvent(tick=0, channel=4, data=[55, 0]),
   midi.NoteOnEvent(tick=0, channel=4, data=[67, 100]),
   midi.NoteOnEvent(tick=0, channel=4, data=[55, 100]),
   midi.NoteOffEvent(tick=480, channel=4, data=[67, 0]),
   midi.NoteOffEvent(tick=0, channel=4, data=[55, 0]),
   midi.NoteOnEvent(tick=0, channel=4, data=[67, 99]),
   midi.NoteOnEvent(tick=0, channel=4, data=[55, 99]),
   midi.NoteOffEvent(tick=480, channel=4, data=[67, 0]),
   midi.NoteOffEvent(tick=0, channel=4, data=[55, 0]),
   midi.NoteOnEvent(tick=0, channel=4, data=[67, 105]),
   midi.NoteOnEvent(tick=0, channel=4, data=[55, 105]),
   midi.NoteOffEvent(tick=3840, channel=4, data=[67, 0]),
   midi.NoteOffEvent(tick=0, channel=4, data=[55, 0]),
   midi.NoteOnEvent(tick=0, channel=4, data=[67, 104]),
   midi.NoteOnEvent(tick=0, channel=4, data=[55, 104]),
   midi.NoteOffEvent(tick=960, channel=4, data=[67, 0]),
   midi.NoteOffEvent(tick=0, channel=4, data=[55, 0]),
   midi.NoteOnEvent(tick=1440, channel=4, data=[67, 98]),
   midi.NoteOnEvent(tick=0, channel=4, data=[55, 98]),
   midi.NoteOffEvent(tick=480, channel=4, data=[67, 0]),
   midi.NoteOffEvent(tick=0, channel=4, data=[55, 0]),
   midi.NoteOnEvent(tick=0, channel=4, data=[67, 98]),
   midi.NoteOnEvent(tick=0, channel=4, data=[55, 98]),
   midi.NoteOffEvent(tick=480, channel=4, data=[67, 0]),
   midi.NoteOffEvent(tick=0, channel=4, data=[55, 0]),
   midi.NoteOnEvent(tick=0, channel=4, data=[67, 98]),
   midi.NoteOnEvent(tick=0, channel=4, data=[55, 98]),
   midi.NoteOffEvent(tick=480, channel=4, data=[67, 0]),
   midi.NoteOffEvent(tick=0, channel=4, data=[55, 0]),
   midi.NoteOnEvent(tick=0, channel=4, data=[67, 104]),
   midi.NoteOnEvent(tick=0, channel=4, data=[55, 104]),
   midi.NoteOffEvent(tick=960, channel=4, data=[67, 0]),
   midi.NoteOffEvent(tick=0, channel=4, data=[55, 0]),
   midi.NoteOnEvent(tick=28800, channel=4, data=[65, 98]),
   midi.NoteOffEvent(tick=480, channel=4, data=[65, 0]),
   midi.NoteOnEvent(tick=0, channel=4, data=[65, 98]),
   midi.NoteOffEvent(tick=480, channel=4, data=[65, 0]),
   midi.NoteOnEvent(tick=0, channel=4, data=[65, 104]),
   midi.NoteOffEvent(tick=960, channel=4, data=[65, 0]),
   midi.NoteOnEvent(tick=3840, channel=4, data=[67, 99]),
   midi.NoteOffEvent(tick=480, channel=4, data=[67, 0]),
   midi.NoteOnEvent(tick=0, channel=4, data=[67, 98]),
   midi.NoteOffEvent(tick=480, channel=4, data=[67, 0]),
   midi.NoteOnEvent(tick=0, channel=4, data=[67, 104]),
   midi.NoteOffEvent(tick=960, channel=4, data=[67, 0]),
   midi.NoteOnEvent(tick=960, channel=4, data=[65, 101]),
   midi.NoteOffEvent(tick=1920, channel=4, data=[65, 0]),
   midi.NoteOnEvent(tick=0, channel=4, data=[67, 105]),
   midi.NoteOffEvent(tick=1920, channel=4, data=[67, 0]),
   midi.NoteOnEvent(tick=3840, channel=4, data=[65, 103]),
   midi.NoteOffEvent(tick=1920, channel=4, data=[65, 0]),
   midi.NoteOnEvent(tick=0, channel=4, data=[67, 105]),
   midi.NoteOffEvent(tick=1920, channel=4, data=[67, 0]),
   midi.NoteOnEvent(tick=3840, channel=4, data=[65, 103]),
   midi.NoteOffEvent(tick=1920, channel=4, data=[65, 0]),
   midi.NoteOnEvent(tick=0, channel=4, data=[66, 104]),
   midi.NoteOffEvent(tick=1920, channel=4, data=[66, 0]),
   midi.NoteOnEvent(tick=3840, channel=4, data=[65, 104]),
   midi.NoteOffEvent(tick=1920, channel=4, data=[65, 0]),
   midi.NoteOnEvent(tick=0, channel=4, data=[65, 104]),
   midi.NoteOffEvent(tick=1920, channel=4, data=[65, 0]),
   midi.NoteOnEvent(tick=46080, channel=4, data=[68, 42]),
   midi.NoteOnEvent(tick=0, channel=4, data=[65, 42]),
   midi.NoteOffEvent(tick=1920, channel=4, data=[68, 0]),
   midi.NoteOffEvent(tick=0, channel=4, data=[65, 0]),
   midi.NoteOnEvent(tick=1920, channel=4, data=[68, 42]),
   midi.NoteOnEvent(tick=0, channel=4, data=[65, 42]),
   midi.NoteOffEvent(tick=1920, channel=4, data=[68, 0]),
   midi.NoteOffEvent(tick=0, channel=4, data=[65, 0]),
   midi.NoteOnEvent(tick=1920, channel=4, data=[68, 42]),
   midi.NoteOnEvent(tick=0, channel=4, data=[65, 42]),
   midi.NoteOffEvent(tick=1920, channel=4, data=[68, 0]),
   midi.NoteOffEvent(tick=0, channel=4, data=[65, 0]),
   midi.NoteOnEvent(tick=2400, channel=4, data=[68, 113]),
   midi.NoteOffEvent(tick=480, channel=4, data=[68, 0]),
   midi.NoteOnEvent(tick=0, channel=4, data=[68, 113]),
   midi.NoteOffEvent(tick=480, channel=4, data=[68, 0]),
   midi.NoteOnEvent(tick=0, channel=4, data=[68, 113]),
   midi.NoteOffEvent(tick=480, channel=4, data=[68, 0]),
   midi.NoteOnEvent(tick=0, channel=4, data=[65, 112]),
   midi.NoteOffEvent(tick=2400, channel=4, data=[65, 0]),
   midi.NoteOnEvent(tick=0, channel=4, data=[68, 115]),
   midi.NoteOffEvent(tick=480, channel=4, data=[68, 0]),
   midi.NoteOnEvent(tick=0, channel=4, data=[68, 114]),
   midi.NoteOffEvent(tick=480, channel=4, data=[68, 0]),
   midi.NoteOnEvent(tick=0, channel=4, data=[68, 114]),
   midi.NoteOffEvent(tick=480, channel=4, data=[68, 0]),
   midi.NoteOnEvent(tick=0, channel=4, data=[65, 110]),
   midi.NoteOffEvent(tick=2400, channel=4, data=[65, 0]),
   midi.NoteOnEvent(tick=0, channel=4, data=[68, 115]),
   midi.NoteOffEvent(tick=480, channel=4, data=[68, 0]),
   midi.NoteOnEvent(tick=0, channel=4, data=[68, 115]),
   midi.NoteOffEvent(tick=480, channel=4, data=[68, 0]),
   midi.NoteOnEvent(tick=0, channel=4, data=[68, 114]),
   midi.NoteOffEvent(tick=480, channel=4, data=[68, 0]),
   midi.NoteOnEvent(tick=0, channel=4, data=[65, 110]),
   midi.NoteOffEvent(tick=960, channel=4, data=[65, 0]),
   midi.NoteOnEvent(tick=0, channel=4, data=[68, 116]),
   midi.NoteOffEvent(tick=960, channel=4, data=[68, 0]),
   midi.NoteOnEvent(tick=0, channel=4, data=[65, 112]),
   midi.NoteOffEvent(tick=960, channel=4, data=[65, 0]),
   midi.NoteOnEvent(tick=0, channel=4, data=[68, 117]),
   midi.NoteOffEvent(tick=960, channel=4, data=[68, 0]),
   midi.NoteOnEvent(tick=0, channel=4, data=[65, 114]),
   midi.NoteOffEvent(tick=960, channel=4, data=[65, 0]),
   midi.NoteOnEvent(tick=0, channel=4, data=[68, 117]),
   midi.NoteOffEvent(tick=960, channel=4, data=[68, 0]),
   midi.NoteOnEvent(tick=0, channel=4, data=[65, 115]),
   midi.NoteOffEvent(tick=480, channel=4, data=[65, 0]),
   midi.NoteOnEvent(tick=0, channel=4, data=[67, 115]),
   midi.NoteOffEvent(tick=480, channel=4, data=[67, 0]),
   midi.NoteOnEvent(tick=0, channel=4, data=[67, 114]),
   midi.NoteOffEvent(tick=480, channel=4, data=[67, 0]),
   midi.NoteOnEvent(tick=0, channel=4, data=[67, 114]),
   midi.NoteOffEvent(tick=480, channel=4, data=[67, 0]),
   midi.NoteOnEvent(tick=0, channel=4, data=[63, 111]),
   midi.NoteOffEvent(tick=3840, channel=4, data=[63, 0]),
   midi.NoteOnEvent(tick=2400, channel=4, data=[67, 113]),
   midi.NoteOnEvent(tick=0, channel=4, data=[55, 113]),
   midi.NoteOffEvent(tick=480, channel=4, data=[67, 0]),
   midi.NoteOffEvent(tick=0, channel=4, data=[55, 0]),
   midi.NoteOnEvent(tick=0, channel=4, data=[67, 113]),
   midi.NoteOnEvent(tick=0, channel=4, data=[55, 113]),
   midi.NoteOffEvent(tick=480, channel=4, data=[67, 0]),
   midi.NoteOffEvent(tick=0, channel=4, data=[55, 0]),
   midi.NoteOnEvent(tick=0, channel=4, data=[67, 113]),
   midi.NoteOnEvent(tick=0, channel=4, data=[55, 113]),
   midi.NoteOffEvent(tick=480, channel=4, data=[67, 0]),
   midi.NoteOffEvent(tick=0, channel=4, data=[55, 0]),
   midi.NoteOnEvent(tick=0, channel=4, data=[67, 120]),
   midi.NoteOnEvent(tick=0, channel=4, data=[55, 120]),
   midi.NoteOffEvent(tick=5760, channel=4, data=[67, 0]),
   midi.NoteOffEvent(tick=0, channel=4, data=[55, 0]),
   midi.NoteOnEvent(tick=51840, channel=4, data=[65, 89]),
   midi.NoteOffEvent(tick=5760, channel=4, data=[65, 0]),
   midi.NoteOnEvent(tick=0, channel=4, data=[63, 103]),
   midi.NoteOffEvent(tick=960, channel=4, data=[63, 0]),
   midi.NoteOnEvent(tick=1440, channel=4, data=[68, 100]),
   midi.NoteOnEvent(tick=0, channel=4, data=[65, 98]),
   midi.NoteOffEvent(tick=480, channel=4, data=[68, 0]),
   midi.NoteOffEvent(tick=0, channel=4, data=[65, 0]),
   midi.NoteOnEvent(tick=0, channel=4, data=[68, 100]),
   midi.NoteOnEvent(tick=0, channel=4, data=[65, 98]),
   midi.NoteOffEvent(tick=480, channel=4, data=[68, 0]),
   midi.NoteOffEvent(tick=0, channel=4, data=[65, 0]),
   midi.NoteOnEvent(tick=0, channel=4, data=[68, 99]),
   midi.NoteOnEvent(tick=0, channel=4, data=[65, 98]),
   midi.NoteOffEvent(tick=480, channel=4, data=[68, 0]),
   midi.NoteOffEvent(tick=0, channel=4, data=[65, 0]),
   midi.NoteOnEvent(tick=0, channel=4, data=[68, 105]),
   midi.NoteOnEvent(tick=0, channel=4, data=[65, 104]),
   midi.NoteOffEvent(tick=960, channel=4, data=[68, 0]),
   midi.NoteOffEvent(tick=0, channel=4, data=[65, 0]),
   midi.NoteOnEvent(tick=1440, channel=4, data=[67, 97]),
   midi.NoteOnEvent(tick=0, channel=4, data=[63, 95]),
   midi.NoteOffEvent(tick=480, channel=4, data=[67, 0]),
   midi.NoteOffEvent(tick=0, channel=4, data=[63, 0]),
   midi.NoteOnEvent(tick=0, channel=4, data=[67, 97]),
   midi.NoteOnEvent(tick=0, channel=4, data=[63, 95]),
   midi.NoteOffEvent(tick=480, channel=4, data=[67, 0]),
   midi.NoteOffEvent(tick=0, channel=4, data=[63, 0]),
   midi.NoteOnEvent(tick=0, channel=4, data=[67, 97]),
   midi.NoteOnEvent(tick=0, channel=4, data=[63, 96]),
   midi.NoteOffEvent(tick=480, channel=4, data=[67, 0]),
   midi.NoteOffEvent(tick=0, channel=4, data=[63, 0]),
   midi.NoteOnEvent(tick=0, channel=4, data=[67, 103]),
   midi.NoteOnEvent(tick=0, channel=4, data=[63, 102]),
   midi.NoteOffEvent(tick=960, channel=4, data=[67, 0]),
   midi.NoteOffEvent(tick=0, channel=4, data=[63, 0]),
   midi.NoteOnEvent(tick=10560, channel=4, data=[68, 104]),
   midi.NoteOnEvent(tick=0, channel=4, data=[65, 104]),
   midi.NoteOffEvent(tick=960, channel=4, data=[68, 0]),
   midi.NoteOffEvent(tick=0, channel=4, data=[65, 0]),
   midi.NoteOnEvent(tick=960, channel=4, data=[67, 103]),
   midi.NoteOnEvent(tick=0, channel=4, data=[63, 103]),
   midi.NoteOffEvent(tick=7680, channel=4, data=[67, 0]),
   midi.NoteOffEvent(tick=0, channel=4, data=[63, 0]),
   midi.NoteOnEvent(tick=0, channel=4, data=[67, 104]),
   midi.NoteOnEvent(tick=0, channel=4, data=[65, 104]),
   midi.NoteOffEvent(tick=6720, channel=4, data=[67, 0]),
   midi.NoteOffEvent(tick=0, channel=4, data=[65, 0]),
   midi.NoteOnEvent(tick=0, channel=4, data=[67, 98]),
   midi.NoteOnEvent(tick=0, channel=4, data=[63, 98]),
   midi.NoteOffEvent(tick=960, channel=4, data=[67, 0]),
   midi.NoteOffEvent(tick=0, channel=4, data=[63, 0]),
   midi.NoteOnEvent(tick=0, channel=4, data=[63, 116]),
   midi.NoteOnEvent(tick=0, channel=4, data=[51, 111]),
   midi.NoteOffEvent(tick=7680, channel=4, data=[63, 0]),
   midi.NoteOffEvent(tick=0, channel=4, data=[51, 0]),
   midi.NoteOnEvent(tick=0, channel=4, data=[63, 120]),
   midi.NoteOnEvent(tick=0, channel=4, data=[51, 120]),
   midi.NoteOffEvent(tick=960, channel=4, data=[63, 0]),
   midi.NoteOffEvent(tick=0, channel=4, data=[51, 0]),
   midi.NoteOnEvent(tick=2880, channel=4, data=[67, 121]),
   midi.NoteOnEvent(tick=0, channel=4, data=[55, 121]),
   midi.NoteOffEvent(tick=960, channel=4, data=[67, 0]),
   midi.NoteOffEvent(tick=0, channel=4, data=[55, 0]),
   midi.NoteOnEvent(tick=8640, channel=4, data=[55, 65]),
   midi.NoteOffEvent(tick=30720, channel=4, data=[55, 0]),
   midi.NoteOnEvent(tick=37440, channel=4, data=[65, 84]),
   midi.NoteOffEvent(tick=960, channel=4, data=[65, 0]),
   midi.NoteOnEvent(tick=960, channel=4, data=[65, 84]),
   midi.NoteOffEvent(tick=960, channel=4, data=[65, 0]),
   midi.NoteOnEvent(tick=960, channel=4, data=[65, 84]),
   midi.NoteOffEvent(tick=960, channel=4, data=[65, 0]),
   midi.NoteOnEvent(tick=960, channel=4, data=[65, 84]),
   midi.NoteOffEvent(tick=960, channel=4, data=[65, 0]),
   midi.NoteOnEvent(tick=0, channel=4, data=[67, 123]),
   midi.NoteOffEvent(tick=2880, channel=4, data=[67, 0]),
   midi.NoteOnEvent(tick=0, channel=4, data=[67, 114]),
   midi.NoteOffEvent(tick=960, channel=4, data=[67, 0]),
   midi.NoteOnEvent(tick=0, channel=4, data=[67, 120]),
   midi.NoteOffEvent(tick=960, channel=4, data=[67, 0]),
   midi.NoteOnEvent(tick=960, channel=4, data=[67, 120]),
   midi.NoteOnEvent(tick=0, channel=4, data=[65, 120]),
   midi.NoteOffEvent(tick=960, channel=4, data=[67, 0]),
   midi.NoteOffEvent(tick=0, channel=4, data=[65, 0]),
   midi.NoteOnEvent(tick=960, channel=4, data=[67, 120]),
   midi.NoteOffEvent(tick=960, channel=4, data=[67, 0]),
   midi.NoteOnEvent(tick=960, channel=4, data=[65, 117]),
   midi.NoteOffEvent(tick=960, channel=4, data=[65, 0]),
   midi.NoteOnEvent(tick=960, channel=4, data=[67, 121]),
   midi.NoteOffEvent(tick=960, channel=4, data=[67, 0]),
   midi.NoteOnEvent(tick=960, channel=4, data=[67, 120]),
   midi.NoteOffEvent(tick=960, channel=4, data=[67, 0]),
   midi.NoteOnEvent(tick=960, channel=4, data=[67, 120]),
   midi.NoteOnEvent(tick=0, channel=4, data=[55, 120]),
   midi.NoteOffEvent(tick=3840, channel=4, data=[67, 0]),
   midi.NoteOffEvent(tick=0, channel=4, data=[55, 0]),
   midi.NoteOnEvent(tick=0, channel=4, data=[67, 120]),
   midi.NoteOnEvent(tick=0, channel=4, data=[55, 120]),
   midi.NoteOffEvent(tick=960, channel=4, data=[67, 0]),
   midi.NoteOffEvent(tick=0, channel=4, data=[55, 0]),
   midi.NoteOnEvent(tick=0, channel=4, data=[67, 113]),
   midi.NoteOnEvent(tick=0, channel=4, data=[55, 113]),
   midi.NoteOffEvent(tick=960, channel=4, data=[67, 0]),
   midi.NoteOffEvent(tick=0, channel=4, data=[55, 0]),
   midi.NoteOnEvent(tick=960, channel=4, data=[67, 113]),
   midi.NoteOnEvent(tick=0, channel=4, data=[55, 113]),
   midi.NoteOffEvent(tick=960, channel=4, data=[67, 0]),
   midi.NoteOffEvent(tick=0, channel=4, data=[55, 0]),
   midi.NoteOnEvent(tick=960, channel=4, data=[67, 113]),
   midi.NoteOnEvent(tick=0, channel=4, data=[55, 113]),
   midi.NoteOffEvent(tick=960, channel=4, data=[67, 0]),
   midi.NoteOffEvent(tick=0, channel=4, data=[55, 0]),
   midi.NoteOnEvent(tick=960, channel=4, data=[65, 111]),
   midi.NoteOffEvent(tick=960, channel=4, data=[65, 0]),
   midi.NoteOnEvent(tick=960, channel=4, data=[67, 114]),
   midi.NoteOffEvent(tick=960, channel=4, data=[67, 0]),
   midi.NoteOnEvent(tick=960, channel=4, data=[67, 114]),
   midi.NoteOffEvent(tick=960, channel=4, data=[67, 0]),
   midi.NoteOnEvent(tick=0, channel=4, data=[67, 120]),
   midi.NoteOffEvent(tick=960, channel=4, data=[67, 0]),
   midi.NoteOnEvent(tick=5280, channel=4, data=[67, 113]),
   midi.NoteOffEvent(tick=480, channel=4, data=[67, 0]),
   midi.NoteOnEvent(tick=0, channel=4, data=[67, 113]),
   midi.NoteOffEvent(tick=480, channel=4, data=[67, 0]),
   midi.NoteOnEvent(tick=0, channel=4, data=[67, 113]),
   midi.NoteOffEvent(tick=480, channel=4, data=[67, 0]),
   midi.NoteOnEvent(tick=0, channel=4, data=[67, 120]),
   midi.NoteOffEvent(tick=960, channel=4, data=[67, 0]),
   midi.NoteOnEvent(tick=5280, channel=4, data=[67, 113]),
   midi.NoteOffEvent(tick=480, channel=4, data=[67, 0]),
   midi.NoteOnEvent(tick=0, channel=4, data=[67, 113]),
   midi.NoteOffEvent(tick=480, channel=4, data=[67, 0]),
   midi.NoteOnEvent(tick=0, channel=4, data=[67, 113]),
   midi.NoteOffEvent(tick=480, channel=4, data=[67, 0]),
   midi.NoteOnEvent(tick=0, channel=4, data=[67, 120]),
   midi.NoteOffEvent(tick=960, channel=4, data=[67, 0]),
   midi.NoteOnEvent(tick=1440, channel=4, data=[67, 113]),
   midi.NoteOnEvent(tick=0, channel=4, data=[55, 113]),
   midi.NoteOffEvent(tick=480, channel=4, data=[67, 0]),
   midi.NoteOffEvent(tick=0, channel=4, data=[55, 0]),
   midi.NoteOnEvent(tick=0, channel=4, data=[67, 113]),
   midi.NoteOnEvent(tick=0, channel=4, data=[55, 113]),
   midi.NoteOffEvent(tick=480, channel=4, data=[67, 0]),
   midi.NoteOffEvent(tick=0, channel=4, data=[55, 0]),
   midi.NoteOnEvent(tick=0, channel=4, data=[67, 113]),
   midi.NoteOnEvent(tick=0, channel=4, data=[55, 113]),
   midi.NoteOffEvent(tick=480, channel=4, data=[67, 0]),
   midi.NoteOffEvent(tick=0, channel=4, data=[55, 0]),
   midi.NoteOnEvent(tick=0, channel=4, data=[67, 120]),
   midi.NoteOnEvent(tick=0, channel=4, data=[55, 120]),
   midi.NoteOffEvent(tick=960, channel=4, data=[67, 0]),
   midi.NoteOffEvent(tick=0, channel=4, data=[55, 0]),
   midi.NoteOnEvent(tick=1440, channel=4, data=[67, 113]),
   midi.NoteOnEvent(tick=0, channel=4, data=[55, 113]),
   midi.NoteOffEvent(tick=480, channel=4, data=[67, 0]),
   midi.NoteOffEvent(tick=0, channel=4, data=[55, 0]),
   midi.NoteOnEvent(tick=0, channel=4, data=[67, 113]),
   midi.NoteOnEvent(tick=0, channel=4, data=[55, 113]),
   midi.NoteOffEvent(tick=480, channel=4, data=[67, 0]),
   midi.NoteOffEvent(tick=0, channel=4, data=[55, 0]),
   midi.NoteOnEvent(tick=0, channel=4, data=[67, 113]),
   midi.NoteOnEvent(tick=0, channel=4, data=[55, 113]),
   midi.NoteOffEvent(tick=480, channel=4, data=[67, 0]),
   midi.NoteOffEvent(tick=0, channel=4, data=[55, 0]),
   midi.NoteOnEvent(tick=0, channel=4, data=[67, 120]),
   midi.NoteOffEvent(tick=960, channel=4, data=[67, 0]),
   midi.NoteOnEvent(tick=2880, channel=4, data=[65, 118]),
   midi.NoteOffEvent(tick=960, channel=4, data=[65, 0]),
   midi.NoteOnEvent(tick=2880, channel=4, data=[67, 120]),
   midi.NoteOffEvent(tick=960, channel=4, data=[67, 0]),
   midi.NoteOnEvent(tick=2880, channel=4, data=[68, 120]),
   midi.NoteOffEvent(tick=960, channel=4, data=[68, 0]),
   midi.NoteOnEvent(tick=2880, channel=4, data=[68, 120]),
   midi.NoteOnEvent(tick=0, channel=4, data=[65, 120]),
   midi.NoteOffEvent(tick=7680, channel=4, data=[68, 0]),
   midi.NoteOffEvent(tick=0, channel=4, data=[65, 0]),
   midi.NoteOnEvent(tick=0, channel=4, data=[68, 120]),
   midi.NoteOnEvent(tick=0, channel=4, data=[65, 120]),
   midi.NoteOffEvent(tick=960, channel=4, data=[68, 0]),
   midi.NoteOffEvent(tick=0, channel=4, data=[65, 0]),
   midi.NoteOnEvent(tick=1440, channel=4, data=[65, 111]),
   midi.NoteOffEvent(tick=480, channel=4, data=[65, 0]),
   midi.NoteOnEvent(tick=0, channel=4, data=[65, 112]),
   midi.NoteOffEvent(tick=480, channel=4, data=[65, 0]),
   midi.NoteOnEvent(tick=0, channel=4, data=[65, 112]),
   midi.NoteOffEvent(tick=480, channel=4, data=[65, 0]),
   midi.NoteOnEvent(tick=0, channel=4, data=[68, 127]),
   midi.NoteOffEvent(tick=960, channel=4, data=[68, 0]),
   midi.NoteOnEvent(tick=3360, channel=4, data=[63, 111]),
   midi.NoteOffEvent(tick=480, channel=4, data=[63, 0]),
   midi.NoteOnEvent(tick=0, channel=4, data=[63, 111]),
   midi.NoteOffEvent(tick=480, channel=4, data=[63, 0]),
   midi.NoteOnEvent(tick=0, channel=4, data=[63, 112]),
   midi.NoteOffEvent(tick=480, channel=4, data=[63, 0]),
   midi.NoteOnEvent(tick=0, channel=4, data=[63, 119]),
   midi.NoteOffEvent(tick=7680, channel=4, data=[63, 0]),
   midi.NoteOnEvent(tick=0, channel=4, data=[63, 120]),
   midi.NoteOffEvent(tick=960, channel=4, data=[63, 0]),
   midi.NoteOnEvent(tick=10560, channel=4, data=[68, 120]),
   midi.NoteOnEvent(tick=0, channel=4, data=[65, 120]),
   midi.NoteOffEvent(tick=2880, channel=4, data=[68, 0]),
   midi.NoteOffEvent(tick=0, channel=4, data=[65, 0]),
   midi.NoteOnEvent(tick=0, channel=4, data=[67, 113]),
   midi.NoteOffEvent(tick=960, channel=4, data=[67, 0]),
   midi.NoteOnEvent(tick=3840, channel=4, data=[68, 120]),
   midi.NoteOnEvent(tick=0, channel=4, data=[65, 120]),
   midi.NoteOffEvent(tick=2880, channel=4, data=[68, 0]),
   midi.NoteOffEvent(tick=0, channel=4, data=[65, 0]),
   midi.NoteOnEvent(tick=0, channel=4, data=[67, 113]),
   midi.NoteOffEvent(tick=960, channel=4, data=[67, 0]),
   midi.NoteOnEvent(tick=11520, channel=4, data=[68, 120]),
   midi.NoteOffEvent(tick=960, channel=4, data=[68, 0]),
   midi.NoteOnEvent(tick=0, channel=4, data=[70, 115]),
   midi.NoteOffEvent(tick=960, channel=4, data=[70, 0]),
   midi.NoteOnEvent(tick=0, channel=4, data=[67, 117]),
   midi.NoteOffEvent(tick=960, channel=4, data=[67, 0]),
   midi.NoteOnEvent(tick=0, channel=4, data=[68, 113]),
   midi.NoteOffEvent(tick=960, channel=4, data=[68, 0]),
   midi.NoteOnEvent(tick=0, channel=4, data=[65, 113]),
   midi.NoteOffEvent(tick=960, channel=4, data=[65, 0]),
   midi.NoteOnEvent(tick=1920, channel=4, data=[63, 109]),
   midi.NoteOffEvent(tick=960, channel=4, data=[63, 0]),
   midi.NoteOnEvent(tick=0, channel=4, data=[65, 120]),
   midi.NoteOffEvent(tick=960, channel=4, data=[65, 0]),
   midi.NoteOnEvent(tick=1920, channel=4, data=[67, 115]),
   midi.NoteOffEvent(tick=960, channel=4, data=[67, 0]),
   midi.NoteOnEvent(tick=0, channel=4, data=[68, 123]),
   midi.NoteOffEvent(tick=960, channel=4, data=[68, 0]),
   midi.NoteOnEvent(tick=0, channel=4, data=[67, 113]),
   midi.NoteOffEvent(tick=960, channel=4, data=[67, 0]),
   midi.NoteOnEvent(tick=0, channel=4, data=[68, 122]),
   midi.NoteOffEvent(tick=960, channel=4, data=[68, 0]),
   midi.NoteOnEvent(tick=0, channel=4, data=[67, 112]),
   midi.NoteOffEvent(tick=960, channel=4, data=[67, 0]),
   midi.NoteOnEvent(tick=960, channel=4, data=[67, 112]),
   midi.NoteOffEvent(tick=960, channel=4, data=[67, 0]),
   midi.NoteOnEvent(tick=0, channel=4, data=[67, 119]),
   midi.NoteOnEvent(tick=0, channel=4, data=[65, 120]),
   midi.NoteOffEvent(tick=960, channel=4, data=[67, 0]),
   midi.NoteOffEvent(tick=0, channel=4, data=[65, 0]),
   midi.NoteOnEvent(tick=0, channel=4, data=[67, 113]),
   midi.NoteOnEvent(tick=0, channel=4, data=[65, 113]),
   midi.NoteOffEvent(tick=960, channel=4, data=[67, 0]),
   midi.NoteOffEvent(tick=0, channel=4, data=[65, 0]),
   midi.NoteOnEvent(tick=0, channel=4, data=[63, 110]),
   midi.NoteOffEvent(tick=3840, channel=4, data=[63, 0]),
   midi.NoteOnEvent(tick=0, channel=4, data=[65, 120]),
   midi.NoteOffEvent(tick=3840, channel=4, data=[65, 0]),
   midi.NoteOnEvent(tick=0, channel=4, data=[67, 121]),
   midi.NoteOffEvent(tick=3840, channel=4, data=[67, 0]),
   midi.NoteOnEvent(tick=0, channel=4, data=[68, 120]),
   midi.NoteOffEvent(tick=1920, channel=4, data=[68, 0]),
   midi.NoteOnEvent(tick=0, channel=4, data=[65, 118]),
   midi.NoteOffEvent(tick=960, channel=4, data=[65, 0]),
   midi.NoteOnEvent(tick=0, channel=4, data=[65, 112]),
   midi.NoteOffEvent(tick=960, channel=4, data=[65, 0]),
   midi.NoteOnEvent(tick=0, channel=4, data=[65, 119]),
   midi.NoteOffEvent(tick=1920, channel=4, data=[65, 0]),
   midi.NoteOnEvent(tick=0, channel=4, data=[67, 123]),
   midi.NoteOffEvent(tick=1920, channel=4, data=[67, 0]),
   midi.NoteOnEvent(tick=0, channel=4, data=[67, 121]),
   midi.NoteOffEvent(tick=480, channel=4, data=[67, 0]),
   midi.NoteOnEvent(tick=1440, channel=4, data=[68, 121]),
   midi.NoteOffEvent(tick=480, channel=4, data=[68, 0]),
   midi.NoteOnEvent(tick=1440, channel=4, data=[68, 120]),
   midi.NoteOnEvent(tick=0, channel=4, data=[65, 120]),
   midi.NoteOffEvent(tick=480, channel=4, data=[68, 0]),
   midi.NoteOffEvent(tick=0, channel=4, data=[65, 0]),
   midi.NoteOnEvent(tick=1440, channel=4, data=[68, 120]),
   midi.NoteOnEvent(tick=0, channel=4, data=[65, 120]),
   midi.NoteOffEvent(tick=480, channel=4, data=[68, 0]),
   midi.NoteOffEvent(tick=0, channel=4, data=[65, 0]),
   midi.NoteOnEvent(tick=1440, channel=4, data=[67, 119]),
   midi.NoteOffEvent(tick=480, channel=4, data=[67, 0]),
   midi.NoteOnEvent(tick=1440, channel=4, data=[67, 119]),
   midi.NoteOffEvent(tick=480, channel=4, data=[67, 0]),
   midi.NoteOnEvent(tick=18720, channel=4, data=[67, 120]),
   midi.NoteOffEvent(tick=960, channel=4, data=[67, 0]),
   midi.NoteOnEvent(tick=0, channel=4, data=[67, 113]),
   midi.NoteOffEvent(tick=960, channel=4, data=[67, 0]),
   midi.NoteOnEvent(tick=0, channel=4, data=[67, 120]),
   midi.NoteOffEvent(tick=1920, channel=4, data=[67, 0]),
   midi.NoteOnEvent(tick=3840, channel=4, data=[67, 120]),
   midi.NoteOffEvent(tick=960, channel=4, data=[67, 0]),
   midi.NoteOnEvent(tick=0, channel=4, data=[67, 113]),
   midi.NoteOffEvent(tick=960, channel=4, data=[67, 0]),
   midi.NoteOnEvent(tick=0, channel=4, data=[67, 120]),
   midi.NoteOffEvent(tick=1920, channel=4, data=[67, 0]),
   midi.NoteOnEvent(tick=0, channel=4, data=[63, 114]),
   midi.NoteOffEvent(tick=960, channel=4, data=[63, 0]),
   midi.NoteOnEvent(tick=0, channel=4, data=[63, 109]),
   midi.NoteOffEvent(tick=960, channel=4, data=[63, 0]),
   midi.NoteOnEvent(tick=0, channel=4, data=[65, 121]),
   midi.NoteOffEvent(tick=960, channel=4, data=[65, 0]),
   midi.NoteOnEvent(tick=0, channel=4, data=[63, 110]),
   midi.NoteOnEvent(tick=0, channel=4, data=[51, 113]),
   midi.NoteOffEvent(tick=960, channel=4, data=[63, 0]),
   midi.NoteOffEvent(tick=0, channel=4, data=[51, 0]),
   midi.NoteOnEvent(tick=1920, channel=4, data=[68, 108]),
   midi.NoteOnEvent(tick=0, channel=4, data=[65, 109]),
   midi.NoteOnEvent(tick=960, channel=4, data=[67, 99]),
   midi.NoteOnEvent(tick=0, channel=4, data=[63, 100]),
   midi.NoteOffEvent(tick=38, channel=4, data=[68, 0]),
   midi.NoteOffEvent(tick=0, channel=4, data=[65, 0]),
   midi.NoteOffEvent(tick=825, channel=4, data=[67, 0]),
   midi.NoteOffEvent(tick=0, channel=4, data=[63, 0]),
   midi.NoteOnEvent(tick=97, channel=4, data=[68, 106]),
   midi.NoteOnEvent(tick=0, channel=4, data=[65, 107]),
   midi.NoteOnEvent(tick=960, channel=4, data=[67, 97]),
   midi.NoteOnEvent(tick=0, channel=4, data=[63, 97]),
   midi.NoteOffEvent(tick=38, channel=4, data=[68, 0]),
   midi.NoteOffEvent(tick=0, channel=4, data=[65, 0]),
   midi.NoteOffEvent(tick=825, channel=4, data=[67, 0]),
   midi.NoteOffEvent(tick=0, channel=4, data=[63, 0]),
   midi.NoteOnEvent(tick=1057, channel=4, data=[63, 92]),
   midi.NoteOffEvent(tick=960, channel=4, data=[63, 0]),
   midi.NoteOnEvent(tick=960, channel=4, data=[67, 100]),
   midi.NoteOffEvent(tick=960, channel=4, data=[67, 0]),
   midi.NoteOnEvent(tick=3840, channel=4, data=[68, 104]),
   midi.NoteOnEvent(tick=0, channel=4, data=[65, 104]),
   midi.NoteOnEvent(tick=960, channel=4, data=[67, 97]),
   midi.NoteOnEvent(tick=0, channel=4, data=[63, 96]),
   midi.NoteOffEvent(tick=38, channel=4, data=[68, 0]),
   midi.NoteOffEvent(tick=0, channel=4, data=[65, 0]),
   midi.NoteOffEvent(tick=825, channel=4, data=[67, 0]),
   midi.NoteOffEvent(tick=0, channel=4, data=[63, 0]),
   midi.NoteOnEvent(tick=97, channel=4, data=[68, 104]),
   midi.NoteOnEvent(tick=0, channel=4, data=[65, 105]),
   midi.NoteOnEvent(tick=960, channel=4, data=[67, 97]),
   midi.NoteOnEvent(tick=0, channel=4, data=[63, 96]),
   midi.NoteOffEvent(tick=38, channel=4, data=[68, 0]),
   midi.NoteOffEvent(tick=0, channel=4, data=[65, 0]),
   midi.NoteOffEvent(tick=825, channel=4, data=[67, 0]),
   midi.NoteOffEvent(tick=0, channel=4, data=[63, 0]),
   midi.NoteOnEvent(tick=97, channel=4, data=[68, 105]),
   midi.NoteOnEvent(tick=0, channel=4, data=[65, 106]),
   midi.NoteOnEvent(tick=960, channel=4, data=[67, 97]),
   midi.NoteOnEvent(tick=0, channel=4, data=[63, 95]),
   midi.NoteOffEvent(tick=38, channel=4, data=[68, 0]),
   midi.NoteOffEvent(tick=0, channel=4, data=[65, 0]),
   midi.NoteOffEvent(tick=825, channel=4, data=[67, 0]),
   midi.NoteOffEvent(tick=0, channel=4, data=[63, 0]),
   midi.NoteOnEvent(tick=97, channel=4, data=[68, 105]),
   midi.NoteOnEvent(tick=0, channel=4, data=[65, 106]),
   midi.NoteOnEvent(tick=960, channel=4, data=[67, 96]),
   midi.NoteOnEvent(tick=0, channel=4, data=[63, 95]),
   midi.NoteOffEvent(tick=38, channel=4, data=[68, 0]),
   midi.NoteOffEvent(tick=0, channel=4, data=[65, 0]),
   midi.NoteOffEvent(tick=825, channel=4, data=[67, 0]),
   midi.NoteOffEvent(tick=0, channel=4, data=[63, 0]),
   midi.NoteOnEvent(tick=1057, channel=4, data=[67, 97]),
   midi.NoteOffEvent(tick=960, channel=4, data=[67, 0]),
   midi.NoteOnEvent(tick=960, channel=4, data=[67, 98]),
   midi.NoteOffEvent(tick=960, channel=4, data=[67, 0]),
   midi.NoteOnEvent(tick=0, channel=4, data=[67, 104]),
   midi.NoteOnEvent(tick=0, channel=4, data=[63, 103]),
   midi.NoteOffEvent(tick=960, channel=4, data=[67, 0]),
   midi.NoteOffEvent(tick=0, channel=4, data=[63, 0]),
   midi.NoteOnEvent(tick=7680, channel=4, data=[67, 98]),
   midi.NoteOnEvent(tick=0, channel=4, data=[65, 98]),
   midi.NoteOffEvent(tick=960, channel=4, data=[67, 0]),
   midi.NoteOffEvent(tick=0, channel=4, data=[65, 0]),
   midi.NoteOnEvent(tick=0, channel=4, data=[67, 104]),
   midi.NoteOnEvent(tick=0, channel=4, data=[63, 102]),
   midi.NoteOffEvent(tick=960, channel=4, data=[67, 0]),
   midi.NoteOffEvent(tick=0, channel=4, data=[63, 0]),
   midi.NoteOnEvent(tick=0, channel=4, data=[67, 98]),
   midi.NoteOnEvent(tick=0, channel=4, data=[65, 99]),
   midi.NoteOffEvent(tick=960, channel=4, data=[67, 0]),
   midi.NoteOffEvent(tick=0, channel=4, data=[65, 0]),
   midi.NoteOnEvent(tick=0, channel=4, data=[63, 97]),
   midi.NoteOffEvent(tick=960, channel=4, data=[63, 0]),
   midi.NoteOnEvent(tick=1440, channel=4, data=[67, 100]),
   midi.NoteOffEvent(tick=480, channel=4, data=[67, 0]),
   midi.NoteOnEvent(tick=0, channel=4, data=[67, 99]),
   midi.NoteOffEvent(tick=480, channel=4, data=[67, 0]),
   midi.NoteOnEvent(tick=0, channel=4, data=[67, 99]),
   midi.NoteOffEvent(tick=480, channel=4, data=[67, 0]),
   midi.NoteOnEvent(tick=0, channel=4, data=[67, 105]),
   midi.NoteOffEvent(tick=480, channel=4, data=[67, 0]),
   midi.NoteOnEvent(tick=0, channel=4, data=[67, 99]),
   midi.NoteOffEvent(tick=480, channel=4, data=[67, 0]),
   midi.NoteOnEvent(tick=0, channel=4, data=[67, 98]),
   midi.NoteOffEvent(tick=480, channel=4, data=[67, 0]),
   midi.NoteOnEvent(tick=0, channel=4, data=[67, 98]),
   midi.NoteOffEvent(tick=480, channel=4, data=[67, 0]),
   midi.NoteOnEvent(tick=0, channel=4, data=[67, 104]),
   midi.NoteOffEvent(tick=480, channel=4, data=[67, 0]),
   midi.NoteOnEvent(tick=0, channel=4, data=[67, 98]),
   midi.NoteOffEvent(tick=480, channel=4, data=[67, 0]),
   midi.NoteOnEvent(tick=0, channel=4, data=[67, 98]),
   midi.NoteOffEvent(tick=480, channel=4, data=[67, 0]),
   midi.NoteOnEvent(tick=0, channel=4, data=[67, 98]),
   midi.NoteOffEvent(tick=480, channel=4, data=[67, 0]),
   midi.NoteOnEvent(tick=0, channel=4, data=[63, 103]),
   midi.NoteOffEvent(tick=3840, channel=4, data=[63, 0]),
   midi.NoteOnEvent(tick=480, channel=4, data=[67, 114]),
   midi.NoteOffEvent(tick=480, channel=4, data=[67, 0]),
   midi.NoteOnEvent(tick=0, channel=4, data=[67, 114]),
   midi.NoteOffEvent(tick=480, channel=4, data=[67, 0]),
   midi.NoteOnEvent(tick=0, channel=4, data=[67, 114]),
   midi.NoteOffEvent(tick=480, channel=4, data=[67, 0]),
   midi.NoteOnEvent(tick=0, channel=4, data=[67, 120]),
   midi.NoteOffEvent(tick=7680, channel=4, data=[67, 0]),
   midi.NoteOnEvent(tick=15840, channel=4, data=[67, 113]),
   midi.NoteOffEvent(tick=480, channel=4, data=[67, 0]),
   midi.NoteOnEvent(tick=0, channel=4, data=[67, 113]),
   midi.NoteOffEvent(tick=480, channel=4, data=[67, 0]),
   midi.NoteOnEvent(tick=0, channel=4, data=[67, 113]),
   midi.NoteOffEvent(tick=480, channel=4, data=[67, 0]),
   midi.NoteOnEvent(tick=0, channel=4, data=[67, 120]),
   midi.NoteOffEvent(tick=960, channel=4, data=[67, 0]),
   midi.NoteOnEvent(tick=1440, channel=4, data=[67, 113]),
   midi.NoteOffEvent(tick=480, channel=4, data=[67, 0]),
   midi.NoteOnEvent(tick=0, channel=4, data=[67, 113]),
   midi.NoteOffEvent(tick=480, channel=4, data=[67, 0]),
   midi.NoteOnEvent(tick=0, channel=4, data=[67, 113]),
   midi.NoteOffEvent(tick=480, channel=4, data=[67, 0]),
   midi.NoteOnEvent(tick=0, channel=4, data=[67, 120]),
   midi.NoteOffEvent(tick=960, channel=4, data=[67, 0]),
   midi.NoteOnEvent(tick=1440, channel=4, data=[67, 113]),
   midi.NoteOffEvent(tick=480, channel=4, data=[67, 0]),
   midi.NoteOnEvent(tick=0, channel=4, data=[67, 113]),
   midi.NoteOffEvent(tick=480, channel=4, data=[67, 0]),
   midi.NoteOnEvent(tick=0, channel=4, data=[67, 113]),
   midi.NoteOffEvent(tick=480, channel=4, data=[67, 0]),
   midi.NoteOnEvent(tick=0, channel=4, data=[67, 120]),
   midi.NoteOffEvent(tick=960, channel=4, data=[67, 0]),
   midi.NoteOnEvent(tick=0, channel=4, data=[67, 113]),
   midi.NoteOffEvent(tick=960, channel=4, data=[67, 0]),
   midi.NoteOnEvent(tick=0, channel=4, data=[67, 120]),
   midi.NoteOffEvent(tick=960, channel=4, data=[67, 0]),
   midi.NoteOnEvent(tick=0, channel=4, data=[67, 113]),
   midi.NoteOffEvent(tick=960, channel=4, data=[67, 0]),
   midi.NoteOnEvent(tick=0, channel=4, data=[67, 120]),
   midi.NoteOffEvent(tick=960, channel=4, data=[67, 0]),
   midi.NoteOnEvent(tick=0, channel=4, data=[67, 113]),
   midi.NoteOffEvent(tick=960, channel=4, data=[67, 0]),
   midi.NoteOnEvent(tick=0, channel=4, data=[67, 120]),
   midi.NoteOffEvent(tick=960, channel=4, data=[67, 0]),
   midi.NoteOnEvent(tick=0, channel=4, data=[67, 113]),
   midi.NoteOffEvent(tick=960, channel=4, data=[67, 0]),
   midi.NoteOnEvent(tick=0, channel=4, data=[67, 120]),
   midi.NoteOffEvent(tick=960, channel=4, data=[67, 0]),
   midi.NoteOnEvent(tick=960, channel=4, data=[67, 120]),
   midi.NoteOffEvent(tick=960, channel=4, data=[67, 0]),
   midi.NoteOnEvent(tick=960, channel=4, data=[67, 120]),
   midi.NoteOffEvent(tick=960, channel=4, data=[67, 0]),
   midi.EndOfTrackEvent(tick=1, data=[])]),
 midi.Track(\
  [midi.ProgramChangeEvent(tick=0, channel=5, data=[56]),
   midi.ControlChangeEvent(tick=0, channel=5, data=[121, 0]),
   midi.ControlChangeEvent(tick=0, channel=5, data=[64, 0]),
   midi.ControlChangeEvent(tick=0, channel=5, data=[91, 62]),
   midi.ControlChangeEvent(tick=0, channel=5, data=[10, 81]),
   midi.ControlChangeEvent(tick=0, channel=5, data=[7, 105]),
   midi.TrackNameEvent(tick=0, text='C Trumpet', data=[67, 32, 84, 114, 117, 109, 112, 101, 116]),
   midi.NoteOnEvent(tick=33120, channel=5, data=[55, 61]),
   midi.NoteOnEvent(tick=0, channel=5, data=[43, 61]),
   midi.NoteOffEvent(tick=480, channel=5, data=[55, 0]),
   midi.NoteOffEvent(tick=0, channel=5, data=[43, 0]),
   midi.NoteOnEvent(tick=0, channel=5, data=[55, 61]),
   midi.NoteOnEvent(tick=0, channel=5, data=[43, 61]),
   midi.NoteOffEvent(tick=480, channel=5, data=[55, 0]),
   midi.NoteOffEvent(tick=0, channel=5, data=[43, 0]),
   midi.NoteOnEvent(tick=0, channel=5, data=[55, 78]),
   midi.NoteOnEvent(tick=0, channel=5, data=[43, 61]),
   midi.NoteOffEvent(tick=480, channel=5, data=[55, 0]),
   midi.NoteOffEvent(tick=0, channel=5, data=[43, 0]),
   midi.NoteOnEvent(tick=0, channel=5, data=[60, 114]),
   midi.NoteOnEvent(tick=0, channel=5, data=[48, 112]),
   midi.NoteOffEvent(tick=960, channel=5, data=[60, 0]),
   midi.NoteOffEvent(tick=0, channel=5, data=[48, 0]),
   midi.NoteOnEvent(tick=960, channel=5, data=[60, 110]),
   midi.NoteOnEvent(tick=0, channel=5, data=[48, 108]),
   midi.NoteOffEvent(tick=960, channel=5, data=[60, 0]),
   midi.NoteOffEvent(tick=0, channel=5, data=[48, 0]),
   midi.NoteOnEvent(tick=960, channel=5, data=[55, 99]),
   midi.NoteOnEvent(tick=0, channel=5, data=[43, 102]),
   midi.NoteOffEvent(tick=960, channel=5, data=[55, 0]),
   midi.NoteOffEvent(tick=0, channel=5, data=[43, 0]),
   midi.NoteOnEvent(tick=43200, channel=5, data=[60, 104]),
   midi.NoteOnEvent(tick=0, channel=5, data=[48, 104]),
   midi.NoteOffEvent(tick=960, channel=5, data=[60, 0]),
   midi.NoteOffEvent(tick=0, channel=5, data=[48, 0]),
   midi.NoteOnEvent(tick=960, channel=5, data=[60, 104]),
   midi.NoteOnEvent(tick=0, channel=5, data=[48, 104]),
   midi.NoteOffEvent(tick=960, channel=5, data=[60, 0]),
   midi.NoteOffEvent(tick=0, channel=5, data=[48, 0]),
   midi.NoteOnEvent(tick=5760, channel=5, data=[60, 98]),
   midi.NoteOnEvent(tick=0, channel=5, data=[48, 98]),
   midi.NoteOffEvent(tick=480, channel=5, data=[60, 0]),
   midi.NoteOffEvent(tick=0, channel=5, data=[48, 0]),
   midi.NoteOnEvent(tick=0, channel=5, data=[60, 98]),
   midi.NoteOnEvent(tick=0, channel=5, data=[48, 98]),
   midi.NoteOffEvent(tick=480, channel=5, data=[60, 0]),
   midi.NoteOffEvent(tick=0, channel=5, data=[48, 0]),
   midi.NoteOnEvent(tick=0, channel=5, data=[55, 96]),
   midi.NoteOnEvent(tick=0, channel=5, data=[43, 100]),
   midi.NoteOffEvent(tick=960, channel=5, data=[55, 0]),
   midi.NoteOffEvent(tick=0, channel=5, data=[43, 0]),
   midi.NoteOnEvent(tick=5760, channel=5, data=[60, 98]),
   midi.NoteOnEvent(tick=0, channel=5, data=[48, 98]),
   midi.NoteOffEvent(tick=480, channel=5, data=[60, 0]),
   midi.NoteOffEvent(tick=0, channel=5, data=[48, 0]),
   midi.NoteOnEvent(tick=0, channel=5, data=[60, 98]),
   midi.NoteOnEvent(tick=0, channel=5, data=[48, 98]),
   midi.NoteOffEvent(tick=480, channel=5, data=[60, 0]),
   midi.NoteOffEvent(tick=0, channel=5, data=[48, 0]),
   midi.NoteOnEvent(tick=0, channel=5, data=[60, 120]),
   midi.NoteOnEvent(tick=0, channel=5, data=[48, 120]),
   midi.NoteOffEvent(tick=7680, channel=5, data=[60, 0]),
   midi.NoteOffEvent(tick=0, channel=5, data=[48, 0]),
   midi.NoteOnEvent(tick=0, channel=5, data=[60, 120]),
   midi.NoteOnEvent(tick=0, channel=5, data=[48, 120]),
   midi.NoteOffEvent(tick=960, channel=5, data=[60, 0]),
   midi.NoteOffEvent(tick=0, channel=5, data=[48, 0]),
   midi.NoteOnEvent(tick=72000, channel=5, data=[65, 120]),
   midi.NoteOffEvent(tick=2880, channel=5, data=[65, 0]),
   midi.NoteOnEvent(tick=2880, channel=5, data=[55, 103]),
   midi.NoteOnEvent(tick=0, channel=5, data=[43, 104]),
   midi.NoteOffEvent(tick=960, channel=5, data=[55, 0]),
   midi.NoteOffEvent(tick=0, channel=5, data=[43, 0]),
   midi.NoteOnEvent(tick=960, channel=5, data=[60, 106]),
   midi.NoteOnEvent(tick=0, channel=5, data=[48, 106]),
   midi.NoteOffEvent(tick=960, channel=5, data=[60, 0]),
   midi.NoteOffEvent(tick=0, channel=5, data=[48, 0]),
   midi.NoteOnEvent(tick=6720, channel=5, data=[65, 120]),
   midi.NoteOffEvent(tick=3840, channel=5, data=[65, 0]),
   midi.NoteOnEvent(tick=0, channel=5, data=[67, 120]),
   midi.NoteOffEvent(tick=960, channel=5, data=[67, 0]),
   midi.NoteOnEvent(tick=0, channel=5, data=[67, 113]),
   midi.NoteOnEvent(tick=0, channel=5, data=[55, 113]),
   midi.NoteOffEvent(tick=960, channel=5, data=[67, 0]),
   midi.NoteOffEvent(tick=0, channel=5, data=[55, 0]),
   midi.NoteOnEvent(tick=2880, channel=5, data=[55, 107]),
   midi.NoteOnEvent(tick=0, channel=5, data=[43, 111]),
   midi.NoteOffEvent(tick=960, channel=5, data=[55, 0]),
   midi.NoteOffEvent(tick=0, channel=5, data=[43, 0]),
   midi.NoteOnEvent(tick=960, channel=5, data=[60, 115]),
   midi.NoteOnEvent(tick=0, channel=5, data=[48, 115]),
   midi.NoteOffEvent(tick=960, channel=5, data=[60, 0]),
   midi.NoteOffEvent(tick=0, channel=5, data=[48, 0]),
   midi.NoteOnEvent(tick=65760, channel=5, data=[55, 61]),
   midi.NoteOnEvent(tick=0, channel=5, data=[43, 61]),
   midi.NoteOffEvent(tick=480, channel=5, data=[55, 0]),
   midi.NoteOffEvent(tick=0, channel=5, data=[43, 0]),
   midi.NoteOnEvent(tick=0, channel=5, data=[55, 61]),
   midi.NoteOnEvent(tick=0, channel=5, data=[43, 61]),
   midi.NoteOffEvent(tick=480, channel=5, data=[55, 0]),
   midi.NoteOffEvent(tick=0, channel=5, data=[43, 0]),
   midi.NoteOnEvent(tick=0, channel=5, data=[55, 78]),
   midi.NoteOnEvent(tick=0, channel=5, data=[43, 61]),
   midi.NoteOffEvent(tick=480, channel=5, data=[55, 0]),
   midi.NoteOffEvent(tick=0, channel=5, data=[43, 0]),
   midi.NoteOnEvent(tick=0, channel=5, data=[60, 114]),
   midi.NoteOnEvent(tick=0, channel=5, data=[48, 112]),
   midi.NoteOffEvent(tick=960, channel=5, data=[60, 0]),
   midi.NoteOffEvent(tick=0, channel=5, data=[48, 0]),
   midi.NoteOnEvent(tick=960, channel=5, data=[60, 110]),
   midi.NoteOnEvent(tick=0, channel=5, data=[48, 108]),
   midi.NoteOffEvent(tick=960, channel=5, data=[60, 0]),
   midi.NoteOffEvent(tick=0, channel=5, data=[48, 0]),
   midi.NoteOnEvent(tick=960, channel=5, data=[55, 99]),
   midi.NoteOnEvent(tick=0, channel=5, data=[43, 102]),
   midi.NoteOffEvent(tick=960, channel=5, data=[55, 0]),
   midi.NoteOffEvent(tick=0, channel=5, data=[43, 0]),
   midi.NoteOnEvent(tick=43200, channel=5, data=[60, 104]),
   midi.NoteOnEvent(tick=0, channel=5, data=[48, 104]),
   midi.NoteOffEvent(tick=960, channel=5, data=[60, 0]),
   midi.NoteOffEvent(tick=0, channel=5, data=[48, 0]),
   midi.NoteOnEvent(tick=960, channel=5, data=[60, 104]),
   midi.NoteOnEvent(tick=0, channel=5, data=[48, 104]),
   midi.NoteOffEvent(tick=960, channel=5, data=[60, 0]),
   midi.NoteOffEvent(tick=0, channel=5, data=[48, 0]),
   midi.NoteOnEvent(tick=5760, channel=5, data=[60, 98]),
   midi.NoteOnEvent(tick=0, channel=5, data=[48, 98]),
   midi.NoteOffEvent(tick=480, channel=5, data=[60, 0]),
   midi.NoteOffEvent(tick=0, channel=5, data=[48, 0]),
   midi.NoteOnEvent(tick=0, channel=5, data=[60, 98]),
   midi.NoteOnEvent(tick=0, channel=5, data=[48, 98]),
   midi.NoteOffEvent(tick=480, channel=5, data=[60, 0]),
   midi.NoteOffEvent(tick=0, channel=5, data=[48, 0]),
   midi.NoteOnEvent(tick=0, channel=5, data=[55, 96]),
   midi.NoteOnEvent(tick=0, channel=5, data=[43, 100]),
   midi.NoteOffEvent(tick=960, channel=5, data=[55, 0]),
   midi.NoteOffEvent(tick=0, channel=5, data=[43, 0]),
   midi.NoteOnEvent(tick=5760, channel=5, data=[60, 98]),
   midi.NoteOnEvent(tick=0, channel=5, data=[48, 98]),
   midi.NoteOffEvent(tick=480, channel=5, data=[60, 0]),
   midi.NoteOffEvent(tick=0, channel=5, data=[48, 0]),
   midi.NoteOnEvent(tick=0, channel=5, data=[60, 98]),
   midi.NoteOnEvent(tick=0, channel=5, data=[48, 98]),
   midi.NoteOffEvent(tick=480, channel=5, data=[60, 0]),
   midi.NoteOffEvent(tick=0, channel=5, data=[48, 0]),
   midi.NoteOnEvent(tick=0, channel=5, data=[60, 120]),
   midi.NoteOnEvent(tick=0, channel=5, data=[48, 120]),
   midi.NoteOffEvent(tick=7680, channel=5, data=[60, 0]),
   midi.NoteOffEvent(tick=0, channel=5, data=[48, 0]),
   midi.NoteOnEvent(tick=0, channel=5, data=[60, 120]),
   midi.NoteOnEvent(tick=0, channel=5, data=[48, 120]),
   midi.NoteOffEvent(tick=960, channel=5, data=[60, 0]),
   midi.NoteOffEvent(tick=0, channel=5, data=[48, 0]),
   midi.NoteOnEvent(tick=72000, channel=5, data=[65, 120]),
   midi.NoteOffEvent(tick=2880, channel=5, data=[65, 0]),
   midi.NoteOnEvent(tick=2880, channel=5, data=[55, 103]),
   midi.NoteOnEvent(tick=0, channel=5, data=[43, 104]),
   midi.NoteOffEvent(tick=960, channel=5, data=[55, 0]),
   midi.NoteOffEvent(tick=0, channel=5, data=[43, 0]),
   midi.NoteOnEvent(tick=960, channel=5, data=[60, 106]),
   midi.NoteOnEvent(tick=0, channel=5, data=[48, 106]),
   midi.NoteOffEvent(tick=960, channel=5, data=[60, 0]),
   midi.NoteOffEvent(tick=0, channel=5, data=[48, 0]),
   midi.NoteOnEvent(tick=6720, channel=5, data=[65, 120]),
   midi.NoteOffEvent(tick=3840, channel=5, data=[65, 0]),
   midi.NoteOnEvent(tick=0, channel=5, data=[67, 120]),
   midi.NoteOffEvent(tick=960, channel=5, data=[67, 0]),
   midi.NoteOnEvent(tick=0, channel=5, data=[67, 113]),
   midi.NoteOnEvent(tick=0, channel=5, data=[55, 113]),
   midi.NoteOffEvent(tick=960, channel=5, data=[67, 0]),
   midi.NoteOffEvent(tick=0, channel=5, data=[55, 0]),
   midi.NoteOnEvent(tick=2880, channel=5, data=[55, 107]),
   midi.NoteOnEvent(tick=0, channel=5, data=[43, 111]),
   midi.NoteOffEvent(tick=960, channel=5, data=[55, 0]),
   midi.NoteOffEvent(tick=0, channel=5, data=[43, 0]),
   midi.NoteOnEvent(tick=960, channel=5, data=[60, 115]),
   midi.NoteOnEvent(tick=0, channel=5, data=[48, 115]),
   midi.NoteOffEvent(tick=960, channel=5, data=[60, 0]),
   midi.NoteOffEvent(tick=0, channel=5, data=[48, 0]),
   midi.NoteOnEvent(tick=96000, channel=5, data=[55, 42]),
   midi.NoteOnEvent(tick=0, channel=5, data=[43, 42]),
   midi.NoteOffEvent(tick=960, channel=5, data=[55, 0]),
   midi.NoteOffEvent(tick=0, channel=5, data=[43, 0]),
   midi.NoteOnEvent(tick=2880, channel=5, data=[48, 41]),
   midi.NoteOffEvent(tick=960, channel=5, data=[48, 0]),
   midi.NoteOnEvent(tick=2880, channel=5, data=[48, 42]),
   midi.NoteOffEvent(tick=960, channel=5, data=[48, 0]),
   midi.NoteOnEvent(tick=2880, channel=5, data=[55, 43]),
   midi.NoteOnEvent(tick=0, channel=5, data=[43, 42]),
   midi.NoteOffEvent(tick=960, channel=5, data=[55, 0]),
   midi.NoteOffEvent(tick=0, channel=5, data=[43, 0]),
   midi.NoteOnEvent(tick=2880, channel=5, data=[55, 42]),
   midi.NoteOnEvent(tick=0, channel=5, data=[43, 42]),
   midi.NoteOffEvent(tick=960, channel=5, data=[55, 0]),
   midi.NoteOffEvent(tick=0, channel=5, data=[43, 0]),
   midi.NoteOnEvent(tick=2880, channel=5, data=[60, 105]),
   midi.NoteOnEvent(tick=0, channel=5, data=[48, 105]),
   midi.NoteOffEvent(tick=3840, channel=5, data=[60, 0]),
   midi.NoteOffEvent(tick=0, channel=5, data=[48, 0]),
   midi.NoteOnEvent(tick=0, channel=5, data=[60, 104]),
   midi.NoteOnEvent(tick=0, channel=5, data=[48, 104]),
   midi.NoteOffEvent(tick=960, channel=5, data=[60, 0]),
   midi.NoteOffEvent(tick=0, channel=5, data=[48, 0]),
   midi.NoteOnEvent(tick=1440, channel=5, data=[64, 100]),
   midi.NoteOnEvent(tick=0, channel=5, data=[52, 100]),
   midi.NoteOffEvent(tick=480, channel=5, data=[64, 0]),
   midi.NoteOffEvent(tick=0, channel=5, data=[52, 0]),
   midi.NoteOnEvent(tick=0, channel=5, data=[64, 100]),
   midi.NoteOnEvent(tick=0, channel=5, data=[52, 99]),
   midi.NoteOffEvent(tick=480, channel=5, data=[64, 0]),
   midi.NoteOffEvent(tick=0, channel=5, data=[52, 0]),
   midi.NoteOnEvent(tick=0, channel=5, data=[64, 99]),
   midi.NoteOnEvent(tick=0, channel=5, data=[52, 99]),
   midi.NoteOffEvent(tick=480, channel=5, data=[64, 0]),
   midi.NoteOffEvent(tick=0, channel=5, data=[52, 0]),
   midi.NoteOnEvent(tick=0, channel=5, data=[64, 105]),
   midi.NoteOnEvent(tick=0, channel=5, data=[52, 105]),
   midi.NoteOffEvent(tick=3840, channel=5, data=[64, 0]),
   midi.NoteOffEvent(tick=0, channel=5, data=[52, 0]),
   midi.NoteOnEvent(tick=0, channel=5, data=[64, 104]),
   midi.NoteOnEvent(tick=0, channel=5, data=[52, 104]),
   midi.NoteOffEvent(tick=960, channel=5, data=[64, 0]),
   midi.NoteOffEvent(tick=0, channel=5, data=[52, 0]),
   midi.NoteOnEvent(tick=1440, channel=5, data=[67, 100]),
   midi.NoteOnEvent(tick=0, channel=5, data=[55, 100]),
   midi.NoteOffEvent(tick=480, channel=5, data=[67, 0]),
   midi.NoteOffEvent(tick=0, channel=5, data=[55, 0]),
   midi.NoteOnEvent(tick=0, channel=5, data=[67, 99]),
   midi.NoteOnEvent(tick=0, channel=5, data=[55, 99]),
   midi.NoteOffEvent(tick=480, channel=5, data=[67, 0]),
   midi.NoteOffEvent(tick=0, channel=5, data=[55, 0]),
   midi.NoteOnEvent(tick=0, channel=5, data=[67, 99]),
   midi.NoteOnEvent(tick=0, channel=5, data=[55, 99]),
   midi.NoteOffEvent(tick=480, channel=5, data=[67, 0]),
   midi.NoteOffEvent(tick=0, channel=5, data=[55, 0]),
   midi.NoteOnEvent(tick=0, channel=5, data=[67, 105]),
   midi.NoteOnEvent(tick=0, channel=5, data=[55, 105]),
   midi.NoteOffEvent(tick=960, channel=5, data=[67, 0]),
   midi.NoteOffEvent(tick=0, channel=5, data=[55, 0]),
   midi.NoteOnEvent(tick=1920, channel=5, data=[67, 98]),
   midi.NoteOnEvent(tick=0, channel=5, data=[55, 98]),
   midi.NoteOffEvent(tick=480, channel=5, data=[67, 0]),
   midi.NoteOffEvent(tick=0, channel=5, data=[55, 0]),
   midi.NoteOnEvent(tick=0, channel=5, data=[67, 98]),
   midi.NoteOnEvent(tick=0, channel=5, data=[55, 98]),
   midi.NoteOffEvent(tick=480, channel=5, data=[67, 0]),
   midi.NoteOffEvent(tick=0, channel=5, data=[55, 0]),
   midi.NoteOnEvent(tick=0, channel=5, data=[67, 104]),
   midi.NoteOnEvent(tick=0, channel=5, data=[55, 104]),
   midi.NoteOffEvent(tick=960, channel=5, data=[67, 0]),
   midi.NoteOffEvent(tick=0, channel=5, data=[55, 0]),
   midi.NoteOnEvent(tick=960, channel=5, data=[62, 95]),
   midi.NoteOffEvent(tick=960, channel=5, data=[62, 0]),
   midi.NoteOnEvent(tick=5760, channel=5, data=[48, 97]),
   midi.NoteOffEvent(tick=480, channel=5, data=[48, 0]),
   midi.NoteOnEvent(tick=0, channel=5, data=[48, 98]),
   midi.NoteOffEvent(tick=480, channel=5, data=[48, 0]),
   midi.NoteOnEvent(tick=0, channel=5, data=[48, 104]),
   midi.NoteOffEvent(tick=960, channel=5, data=[48, 0]),
   midi.NoteOnEvent(tick=5760, channel=5, data=[62, 99]),
   midi.NoteOffEvent(tick=480, channel=5, data=[62, 0]),
   midi.NoteOnEvent(tick=0, channel=5, data=[62, 98]),
   midi.NoteOffEvent(tick=480, channel=5, data=[62, 0]),
   midi.NoteOnEvent(tick=0, channel=5, data=[62, 104]),
   midi.NoteOnEvent(tick=0, channel=5, data=[55, 104]),
   midi.NoteOffEvent(tick=960, channel=5, data=[62, 0]),
   midi.NoteOffEvent(tick=0, channel=5, data=[55, 0]),
   midi.NoteOnEvent(tick=13440, channel=5, data=[55, 98]),
   midi.NoteOnEvent(tick=0, channel=5, data=[43, 98]),
   midi.NoteOffEvent(tick=480, channel=5, data=[55, 0]),
   midi.NoteOffEvent(tick=0, channel=5, data=[43, 0]),
   midi.NoteOnEvent(tick=0, channel=5, data=[55, 98]),
   midi.NoteOnEvent(tick=0, channel=5, data=[43, 98]),
   midi.NoteOffEvent(tick=480, channel=5, data=[55, 0]),
   midi.NoteOffEvent(tick=0, channel=5, data=[43, 0]),
   midi.NoteOnEvent(tick=0, channel=5, data=[60, 112]),
   midi.NoteOnEvent(tick=0, channel=5, data=[48, 109]),
   midi.NoteOffEvent(tick=960, channel=5, data=[60, 0]),
   midi.NoteOffEvent(tick=0, channel=5, data=[48, 0]),
   midi.NoteOnEvent(tick=960, channel=5, data=[48, 94]),
   midi.NoteOffEvent(tick=1920, channel=5, data=[48, 0]),
   midi.NoteOnEvent(tick=0, channel=5, data=[48, 99]),
   midi.NoteOffEvent(tick=1920, channel=5, data=[48, 0]),
   midi.NoteOnEvent(tick=3840, channel=5, data=[48, 104]),
   midi.NoteOffEvent(tick=1920, channel=5, data=[48, 0]),
   midi.NoteOnEvent(tick=0, channel=5, data=[48, 104]),
   midi.NoteOffEvent(tick=1920, channel=5, data=[48, 0]),
   midi.NoteOnEvent(tick=50400, channel=5, data=[62, 113]),
   midi.NoteOffEvent(tick=480, channel=5, data=[62, 0]),
   midi.NoteOnEvent(tick=0, channel=5, data=[62, 113]),
   midi.NoteOffEvent(tick=480, channel=5, data=[62, 0]),
   midi.NoteOnEvent(tick=0, channel=5, data=[62, 113]),
   midi.NoteOffEvent(tick=480, channel=5, data=[62, 0]),
   midi.NoteOnEvent(tick=0, channel=5, data=[62, 120]),
   midi.NoteOffEvent(tick=1920, channel=5, data=[62, 0]),
   midi.NoteOnEvent(tick=0, channel=5, data=[62, 120]),
   midi.NoteOffEvent(tick=1920, channel=5, data=[62, 0]),
   midi.NoteOnEvent(tick=0, channel=5, data=[62, 120]),
   midi.NoteOffEvent(tick=3840, channel=5, data=[62, 0]),
   midi.NoteOnEvent(tick=29280, channel=5, data=[67, 113]),
   midi.NoteOnEvent(tick=0, channel=5, data=[55, 113]),
   midi.NoteOffEvent(tick=480, channel=5, data=[67, 0]),
   midi.NoteOffEvent(tick=0, channel=5, data=[55, 0]),
   midi.NoteOnEvent(tick=0, channel=5, data=[67, 113]),
   midi.NoteOnEvent(tick=0, channel=5, data=[55, 113]),
   midi.NoteOffEvent(tick=480, channel=5, data=[67, 0]),
   midi.NoteOffEvent(tick=0, channel=5, data=[55, 0]),
   midi.NoteOnEvent(tick=0, channel=5, data=[67, 113]),
   midi.NoteOnEvent(tick=0, channel=5, data=[55, 113]),
   midi.NoteOffEvent(tick=480, channel=5, data=[67, 0]),
   midi.NoteOffEvent(tick=0, channel=5, data=[55, 0]),
   midi.NoteOnEvent(tick=0, channel=5, data=[67, 120]),
   midi.NoteOnEvent(tick=0, channel=5, data=[55, 120]),
   midi.NoteOffEvent(tick=3840, channel=5, data=[67, 0]),
   midi.NoteOffEvent(tick=0, channel=5, data=[55, 0]),
   midi.NoteOnEvent(tick=2400, channel=5, data=[67, 113]),
   midi.NoteOnEvent(tick=0, channel=5, data=[55, 113]),
   midi.NoteOffEvent(tick=480, channel=5, data=[67, 0]),
   midi.NoteOffEvent(tick=0, channel=5, data=[55, 0]),
   midi.NoteOnEvent(tick=0, channel=5, data=[67, 113]),
   midi.NoteOnEvent(tick=0, channel=5, data=[55, 113]),
   midi.NoteOffEvent(tick=480, channel=5, data=[67, 0]),
   midi.NoteOffEvent(tick=0, channel=5, data=[55, 0]),
   midi.NoteOnEvent(tick=0, channel=5, data=[67, 113]),
   midi.NoteOnEvent(tick=0, channel=5, data=[55, 113]),
   midi.NoteOffEvent(tick=480, channel=5, data=[67, 0]),
   midi.NoteOffEvent(tick=0, channel=5, data=[55, 0]),
   midi.NoteOnEvent(tick=0, channel=5, data=[67, 120]),
   midi.NoteOnEvent(tick=0, channel=5, data=[55, 120]),
   midi.NoteOffEvent(tick=5760, channel=5, data=[67, 0]),
   midi.NoteOffEvent(tick=0, channel=5, data=[55, 0]),
   midi.NoteOnEvent(tick=28800, channel=5, data=[48, 89]),
   midi.NoteOnEvent(tick=0, channel=5, data=[60, 89]),
   midi.NoteOffEvent(tick=960, channel=5, data=[48, 0]),
   midi.NoteOffEvent(tick=0, channel=5, data=[60, 0]),
   midi.NoteOnEvent(tick=960, channel=5, data=[43, 103]),
   midi.NoteOnEvent(tick=0, channel=5, data=[55, 103]),
   midi.NoteOffEvent(tick=960, channel=5, data=[43, 0]),
   midi.NoteOffEvent(tick=0, channel=5, data=[55, 0]),
   midi.NoteOnEvent(tick=27840, channel=5, data=[60, 104]),
   midi.NoteOnEvent(tick=0, channel=5, data=[48, 104]),
   midi.NoteOffEvent(tick=960, channel=5, data=[60, 0]),
   midi.NoteOffEvent(tick=0, channel=5, data=[48, 0]),
   midi.NoteOnEvent(tick=2880, channel=5, data=[60, 104]),
   midi.NoteOnEvent(tick=0, channel=5, data=[48, 104]),
   midi.NoteOffEvent(tick=960, channel=5, data=[60, 0]),
   midi.NoteOffEvent(tick=0, channel=5, data=[48, 0]),
   midi.NoteOnEvent(tick=12480, channel=5, data=[60, 104]),
   midi.NoteOnEvent(tick=0, channel=5, data=[48, 104]),
   midi.NoteOffEvent(tick=960, channel=5, data=[60, 0]),
   midi.NoteOffEvent(tick=0, channel=5, data=[48, 0]),
   midi.NoteOnEvent(tick=960, channel=5, data=[60, 104]),
   midi.NoteOnEvent(tick=0, channel=5, data=[48, 104]),
   midi.NoteOffEvent(tick=960, channel=5, data=[60, 0]),
   midi.NoteOffEvent(tick=0, channel=5, data=[48, 0]),
   midi.NoteOnEvent(tick=5760, channel=5, data=[60, 98]),
   midi.NoteOnEvent(tick=0, channel=5, data=[48, 98]),
   midi.NoteOffEvent(tick=480, channel=5, data=[60, 0]),
   midi.NoteOffEvent(tick=0, channel=5, data=[48, 0]),
   midi.NoteOnEvent(tick=0, channel=5, data=[60, 98]),
   midi.NoteOnEvent(tick=0, channel=5, data=[48, 98]),
   midi.NoteOffEvent(tick=480, channel=5, data=[60, 0]),
   midi.NoteOffEvent(tick=0, channel=5, data=[48, 0]),
   midi.NoteOnEvent(tick=0, channel=5, data=[55, 96]),
   midi.NoteOnEvent(tick=0, channel=5, data=[43, 100]),
   midi.NoteOffEvent(tick=960, channel=5, data=[55, 0]),
   midi.NoteOffEvent(tick=0, channel=5, data=[43, 0]),
   midi.NoteOnEvent(tick=5760, channel=5, data=[60, 98]),
   midi.NoteOnEvent(tick=0, channel=5, data=[48, 98]),
   midi.NoteOffEvent(tick=480, channel=5, data=[60, 0]),
   midi.NoteOffEvent(tick=0, channel=5, data=[48, 0]),
   midi.NoteOnEvent(tick=0, channel=5, data=[60, 98]),
   midi.NoteOnEvent(tick=0, channel=5, data=[48, 98]),
   midi.NoteOffEvent(tick=480, channel=5, data=[60, 0]),
   midi.NoteOffEvent(tick=0, channel=5, data=[48, 0]),
   midi.NoteOnEvent(tick=0, channel=5, data=[60, 120]),
   midi.NoteOnEvent(tick=0, channel=5, data=[48, 120]),
   midi.NoteOffEvent(tick=7680, channel=5, data=[60, 0]),
   midi.NoteOffEvent(tick=0, channel=5, data=[48, 0]),
   midi.NoteOnEvent(tick=0, channel=5, data=[60, 120]),
   midi.NoteOnEvent(tick=0, channel=5, data=[48, 120]),
   midi.NoteOffEvent(tick=960, channel=5, data=[60, 0]),
   midi.NoteOffEvent(tick=0, channel=5, data=[48, 0]),
   midi.NoteOnEvent(tick=2880, channel=5, data=[55, 118]),
   midi.NoteOnEvent(tick=0, channel=5, data=[43, 119]),
   midi.NoteOffEvent(tick=960, channel=5, data=[55, 0]),
   midi.NoteOffEvent(tick=0, channel=5, data=[43, 0]),
   midi.NoteOnEvent(tick=83520, channel=5, data=[62, 120]),
   midi.NoteOnEvent(tick=0, channel=5, data=[55, 120]),
   midi.NoteOffEvent(tick=2880, channel=5, data=[62, 0]),
   midi.NoteOffEvent(tick=0, channel=5, data=[55, 0]),
   midi.NoteOnEvent(tick=0, channel=5, data=[62, 113]),
   midi.NoteOnEvent(tick=0, channel=5, data=[55, 113]),
   midi.NoteOffEvent(tick=960, channel=5, data=[62, 0]),
   midi.NoteOffEvent(tick=0, channel=5, data=[55, 0]),
   midi.NoteOnEvent(tick=0, channel=5, data=[60, 117]),
   midi.NoteOnEvent(tick=0, channel=5, data=[52, 117]),
   midi.NoteOffEvent(tick=960, channel=5, data=[60, 0]),
   midi.NoteOffEvent(tick=0, channel=5, data=[52, 0]),
   midi.NoteOnEvent(tick=960, channel=5, data=[55, 112]),
   midi.NoteOnEvent(tick=0, channel=5, data=[43, 113]),
   midi.NoteOffEvent(tick=960, channel=5, data=[55, 0]),
   midi.NoteOffEvent(tick=0, channel=5, data=[43, 0]),
   midi.NoteOnEvent(tick=960, channel=5, data=[60, 123]),
   midi.NoteOnEvent(tick=0, channel=5, data=[48, 120]),
   midi.NoteOffEvent(tick=960, channel=5, data=[60, 0]),
   midi.NoteOffEvent(tick=0, channel=5, data=[48, 0]),
   midi.NoteOnEvent(tick=960, channel=5, data=[60, 121]),
   midi.NoteOnEvent(tick=0, channel=5, data=[48, 120]),
   midi.NoteOffEvent(tick=960, channel=5, data=[60, 0]),
   midi.NoteOffEvent(tick=0, channel=5, data=[48, 0]),
   midi.NoteOnEvent(tick=960, channel=5, data=[60, 120]),
   midi.NoteOnEvent(tick=0, channel=5, data=[48, 120]),
   midi.NoteOffEvent(tick=960, channel=5, data=[60, 0]),
   midi.NoteOffEvent(tick=0, channel=5, data=[48, 0]),
   midi.NoteOnEvent(tick=960, channel=5, data=[55, 114]),
   midi.NoteOnEvent(tick=0, channel=5, data=[43, 117]),
   midi.NoteOffEvent(tick=960, channel=5, data=[55, 0]),
   midi.NoteOffEvent(tick=0, channel=5, data=[43, 0]),
   midi.NoteOnEvent(tick=960, channel=5, data=[62, 125]),
   midi.NoteOnEvent(tick=0, channel=5, data=[55, 127]),
   midi.NoteOffEvent(tick=3840, channel=5, data=[62, 0]),
   midi.NoteOffEvent(tick=0, channel=5, data=[55, 0]),
   midi.NoteOnEvent(tick=0, channel=5, data=[64, 122]),
   midi.NoteOnEvent(tick=0, channel=5, data=[60, 123]),
   midi.NoteOffEvent(tick=960, channel=5, data=[64, 0]),
   midi.NoteOffEvent(tick=0, channel=5, data=[60, 0]),
   midi.NoteOnEvent(tick=0, channel=5, data=[60, 110]),
   midi.NoteOnEvent(tick=0, channel=5, data=[48, 105]),
   midi.NoteOffEvent(tick=960, channel=5, data=[60, 0]),
   midi.NoteOffEvent(tick=0, channel=5, data=[48, 0]),
   midi.NoteOnEvent(tick=960, channel=5, data=[55, 106]),
   midi.NoteOnEvent(tick=0, channel=5, data=[43, 108]),
   midi.NoteOffEvent(tick=960, channel=5, data=[55, 0]),
   midi.NoteOffEvent(tick=0, channel=5, data=[43, 0]),
   midi.NoteOnEvent(tick=960, channel=5, data=[60, 115]),
   midi.NoteOnEvent(tick=0, channel=5, data=[48, 114]),
   midi.NoteOffEvent(tick=960, channel=5, data=[60, 0]),
   midi.NoteOffEvent(tick=0, channel=5, data=[48, 0]),
   midi.NoteOnEvent(tick=960, channel=5, data=[60, 114]),
   midi.NoteOnEvent(tick=0, channel=5, data=[48, 114]),
   midi.NoteOffEvent(tick=960, channel=5, data=[60, 0]),
   midi.NoteOffEvent(tick=0, channel=5, data=[48, 0]),
   midi.NoteOnEvent(tick=960, channel=5, data=[64, 118]),
   midi.NoteOnEvent(tick=0, channel=5, data=[60, 125]),
   midi.NoteOffEvent(tick=960, channel=5, data=[64, 0]),
   midi.NoteOffEvent(tick=0, channel=5, data=[60, 0]),
   midi.NoteOnEvent(tick=960, channel=5, data=[62, 113]),
   midi.NoteOnEvent(tick=0, channel=5, data=[55, 113]),
   midi.NoteOffEvent(tick=960, channel=5, data=[62, 0]),
   midi.NoteOffEvent(tick=0, channel=5, data=[55, 0]),
   midi.NoteOnEvent(tick=0, channel=5, data=[60, 116]),
   midi.NoteOnEvent(tick=0, channel=5, data=[52, 115]),
   midi.NoteOffEvent(tick=960, channel=5, data=[60, 0]),
   midi.NoteOffEvent(tick=0, channel=5, data=[52, 0]),
   midi.NoteOnEvent(tick=5280, channel=5, data=[55, 112]),
   midi.NoteOnEvent(tick=0, channel=5, data=[43, 113]),
   midi.NoteOffEvent(tick=480, channel=5, data=[55, 0]),
   midi.NoteOffEvent(tick=0, channel=5, data=[43, 0]),
   midi.NoteOnEvent(tick=0, channel=5, data=[55, 113]),
   midi.NoteOnEvent(tick=0, channel=5, data=[43, 113]),
   midi.NoteOffEvent(tick=480, channel=5, data=[55, 0]),
   midi.NoteOffEvent(tick=0, channel=5, data=[43, 0]),
   midi.NoteOnEvent(tick=0, channel=5, data=[55, 113]),
   midi.NoteOnEvent(tick=0, channel=5, data=[43, 113]),
   midi.NoteOffEvent(tick=480, channel=5, data=[55, 0]),
   midi.NoteOffEvent(tick=0, channel=5, data=[43, 0]),
   midi.NoteOnEvent(tick=0, channel=5, data=[60, 127]),
   midi.NoteOnEvent(tick=0, channel=5, data=[48, 127]),
   midi.NoteOffEvent(tick=960, channel=5, data=[60, 0]),
   midi.NoteOffEvent(tick=0, channel=5, data=[48, 0]),
   midi.NoteOnEvent(tick=5280, channel=5, data=[55, 113]),
   midi.NoteOnEvent(tick=0, channel=5, data=[43, 113]),
   midi.NoteOffEvent(tick=480, channel=5, data=[55, 0]),
   midi.NoteOffEvent(tick=0, channel=5, data=[43, 0]),
   midi.NoteOnEvent(tick=0, channel=5, data=[55, 113]),
   midi.NoteOnEvent(tick=0, channel=5, data=[43, 113]),
   midi.NoteOffEvent(tick=480, channel=5, data=[55, 0]),
   midi.NoteOffEvent(tick=0, channel=5, data=[43, 0]),
   midi.NoteOnEvent(tick=0, channel=5, data=[55, 113]),
   midi.NoteOnEvent(tick=0, channel=5, data=[43, 113]),
   midi.NoteOffEvent(tick=480, channel=5, data=[55, 0]),
   midi.NoteOffEvent(tick=0, channel=5, data=[43, 0]),
   midi.NoteOnEvent(tick=0, channel=5, data=[60, 127]),
   midi.NoteOnEvent(tick=0, channel=5, data=[48, 127]),
   midi.NoteOffEvent(tick=960, channel=5, data=[60, 0]),
   midi.NoteOffEvent(tick=0, channel=5, data=[48, 0]),
   midi.NoteOnEvent(tick=1440, channel=5, data=[55, 110]),
   midi.NoteOnEvent(tick=0, channel=5, data=[43, 112]),
   midi.NoteOffEvent(tick=480, channel=5, data=[55, 0]),
   midi.NoteOffEvent(tick=0, channel=5, data=[43, 0]),
   midi.NoteOnEvent(tick=0, channel=5, data=[55, 111]),
   midi.NoteOnEvent(tick=0, channel=5, data=[43, 112]),
   midi.NoteOffEvent(tick=480, channel=5, data=[55, 0]),
   midi.NoteOffEvent(tick=0, channel=5, data=[43, 0]),
   midi.NoteOnEvent(tick=0, channel=5, data=[55, 111]),
   midi.NoteOnEvent(tick=0, channel=5, data=[43, 112]),
   midi.NoteOffEvent(tick=480, channel=5, data=[55, 0]),
   midi.NoteOffEvent(tick=0, channel=5, data=[43, 0]),
   midi.NoteOnEvent(tick=0, channel=5, data=[60, 127]),
   midi.NoteOnEvent(tick=0, channel=5, data=[48, 127]),
   midi.NoteOffEvent(tick=960, channel=5, data=[60, 0]),
   midi.NoteOffEvent(tick=0, channel=5, data=[48, 0]),
   midi.NoteOnEvent(tick=1440, channel=5, data=[55, 110]),
   midi.NoteOnEvent(tick=0, channel=5, data=[43, 112]),
   midi.NoteOffEvent(tick=480, channel=5, data=[55, 0]),
   midi.NoteOffEvent(tick=0, channel=5, data=[43, 0]),
   midi.NoteOnEvent(tick=0, channel=5, data=[55, 111]),
   midi.NoteOnEvent(tick=0, channel=5, data=[43, 112]),
   midi.NoteOffEvent(tick=480, channel=5, data=[55, 0]),
   midi.NoteOffEvent(tick=0, channel=5, data=[43, 0]),
   midi.NoteOnEvent(tick=0, channel=5, data=[55, 111]),
   midi.NoteOnEvent(tick=0, channel=5, data=[43, 112]),
   midi.NoteOffEvent(tick=480, channel=5, data=[55, 0]),
   midi.NoteOffEvent(tick=0, channel=5, data=[43, 0]),
   midi.NoteOnEvent(tick=0, channel=5, data=[60, 127]),
   midi.NoteOnEvent(tick=0, channel=5, data=[48, 127]),
   midi.NoteOffEvent(tick=480, channel=5, data=[60, 0]),
   midi.NoteOffEvent(tick=0, channel=5, data=[48, 0]),
   midi.NoteOnEvent(tick=0, channel=5, data=[60, 125]),
   midi.NoteOnEvent(tick=0, channel=5, data=[48, 122]),
   midi.NoteOffEvent(tick=480, channel=5, data=[60, 0]),
   midi.NoteOffEvent(tick=0, channel=5, data=[48, 0]),
   midi.NoteOnEvent(tick=0, channel=5, data=[60, 124]),
   midi.NoteOnEvent(tick=0, channel=5, data=[48, 121]),
   midi.NoteOffEvent(tick=480, channel=5, data=[60, 0]),
   midi.NoteOffEvent(tick=0, channel=5, data=[48, 0]),
   midi.NoteOnEvent(tick=0, channel=5, data=[60, 122]),
   midi.NoteOnEvent(tick=0, channel=5, data=[48, 120]),
   midi.NoteOffEvent(tick=480, channel=5, data=[60, 0]),
   midi.NoteOffEvent(tick=0, channel=5, data=[48, 0]),
   midi.NoteOnEvent(tick=0, channel=5, data=[60, 127]),
   midi.NoteOnEvent(tick=0, channel=5, data=[48, 126]),
   midi.NoteOffEvent(tick=2400, channel=5, data=[60, 0]),
   midi.NoteOffEvent(tick=0, channel=5, data=[48, 0]),
   midi.NoteOnEvent(tick=0, channel=5, data=[60, 115]),
   midi.NoteOnEvent(tick=0, channel=5, data=[48, 115]),
   midi.NoteOffEvent(tick=480, channel=5, data=[60, 0]),
   midi.NoteOffEvent(tick=0, channel=5, data=[48, 0]),
   midi.NoteOnEvent(tick=0, channel=5, data=[60, 115]),
   midi.NoteOnEvent(tick=0, channel=5, data=[48, 114]),
   midi.NoteOffEvent(tick=480, channel=5, data=[60, 0]),
   midi.NoteOffEvent(tick=0, channel=5, data=[48, 0]),
   midi.NoteOnEvent(tick=0, channel=5, data=[60, 114]),
   midi.NoteOnEvent(tick=0, channel=5, data=[48, 114]),
   midi.NoteOffEvent(tick=480, channel=5, data=[60, 0]),
   midi.NoteOffEvent(tick=0, channel=5, data=[48, 0]),
   midi.NoteOnEvent(tick=0, channel=5, data=[60, 121]),
   midi.NoteOnEvent(tick=0, channel=5, data=[48, 120]),
   midi.NoteOffEvent(tick=2400, channel=5, data=[60, 0]),
   midi.NoteOffEvent(tick=0, channel=5, data=[48, 0]),
   midi.NoteOnEvent(tick=0, channel=5, data=[60, 113]),
   midi.NoteOnEvent(tick=0, channel=5, data=[48, 113]),
   midi.NoteOffEvent(tick=480, channel=5, data=[60, 0]),
   midi.NoteOffEvent(tick=0, channel=5, data=[48, 0]),
   midi.NoteOnEvent(tick=0, channel=5, data=[60, 113]),
   midi.NoteOnEvent(tick=0, channel=5, data=[48, 113]),
   midi.NoteOffEvent(tick=480, channel=5, data=[60, 0]),
   midi.NoteOffEvent(tick=0, channel=5, data=[48, 0]),
   midi.NoteOnEvent(tick=0, channel=5, data=[60, 113]),
   midi.NoteOnEvent(tick=0, channel=5, data=[48, 113]),
   midi.NoteOffEvent(tick=480, channel=5, data=[60, 0]),
   midi.NoteOffEvent(tick=0, channel=5, data=[48, 0]),
   midi.NoteOnEvent(tick=0, channel=5, data=[60, 120]),
   midi.NoteOnEvent(tick=0, channel=5, data=[48, 120]),
   midi.NoteOffEvent(tick=2400, channel=5, data=[60, 0]),
   midi.NoteOffEvent(tick=0, channel=5, data=[48, 0]),
   midi.NoteOnEvent(tick=0, channel=5, data=[60, 113]),
   midi.NoteOnEvent(tick=0, channel=5, data=[48, 113]),
   midi.NoteOffEvent(tick=480, channel=5, data=[60, 0]),
   midi.NoteOffEvent(tick=0, channel=5, data=[48, 0]),
   midi.NoteOnEvent(tick=0, channel=5, data=[60, 113]),
   midi.NoteOnEvent(tick=0, channel=5, data=[48, 113]),
   midi.NoteOffEvent(tick=480, channel=5, data=[60, 0]),
   midi.NoteOffEvent(tick=0, channel=5, data=[48, 0]),
   midi.NoteOnEvent(tick=0, channel=5, data=[60, 113]),
   midi.NoteOnEvent(tick=0, channel=5, data=[48, 113]),
   midi.NoteOffEvent(tick=480, channel=5, data=[60, 0]),
   midi.NoteOffEvent(tick=0, channel=5, data=[48, 0]),
   midi.NoteOnEvent(tick=0, channel=5, data=[60, 120]),
   midi.NoteOnEvent(tick=0, channel=5, data=[48, 120]),
   midi.NoteOffEvent(tick=1920, channel=5, data=[60, 0]),
   midi.NoteOffEvent(tick=0, channel=5, data=[48, 0]),
   midi.NoteOnEvent(tick=15840, channel=5, data=[60, 113]),
   midi.NoteOnEvent(tick=0, channel=5, data=[48, 113]),
   midi.NoteOffEvent(tick=480, channel=5, data=[60, 0]),
   midi.NoteOffEvent(tick=0, channel=5, data=[48, 0]),
   midi.NoteOnEvent(tick=0, channel=5, data=[60, 113]),
   midi.NoteOnEvent(tick=0, channel=5, data=[48, 113]),
   midi.NoteOffEvent(tick=480, channel=5, data=[60, 0]),
   midi.NoteOffEvent(tick=0, channel=5, data=[48, 0]),
   midi.NoteOnEvent(tick=0, channel=5, data=[60, 113]),
   midi.NoteOnEvent(tick=0, channel=5, data=[48, 113]),
   midi.NoteOffEvent(tick=480, channel=5, data=[60, 0]),
   midi.NoteOffEvent(tick=0, channel=5, data=[48, 0]),
   midi.NoteOnEvent(tick=0, channel=5, data=[60, 120]),
   midi.NoteOnEvent(tick=0, channel=5, data=[48, 120]),
   midi.NoteOffEvent(tick=7680, channel=5, data=[60, 0]),
   midi.NoteOffEvent(tick=0, channel=5, data=[48, 0]),
   midi.NoteOnEvent(tick=0, channel=5, data=[60, 120]),
   midi.NoteOnEvent(tick=0, channel=5, data=[48, 120]),
   midi.NoteOffEvent(tick=960, channel=5, data=[60, 0]),
   midi.NoteOffEvent(tick=0, channel=5, data=[48, 0]),
   midi.NoteOnEvent(tick=1440, channel=5, data=[60, 113]),
   midi.NoteOnEvent(tick=0, channel=5, data=[48, 113]),
   midi.NoteOffEvent(tick=480, channel=5, data=[60, 0]),
   midi.NoteOffEvent(tick=0, channel=5, data=[48, 0]),
   midi.NoteOnEvent(tick=0, channel=5, data=[60, 113]),
   midi.NoteOnEvent(tick=0, channel=5, data=[48, 113]),
   midi.NoteOffEvent(tick=480, channel=5, data=[60, 0]),
   midi.NoteOffEvent(tick=0, channel=5, data=[48, 0]),
   midi.NoteOnEvent(tick=0, channel=5, data=[60, 113]),
   midi.NoteOnEvent(tick=0, channel=5, data=[48, 113]),
   midi.NoteOffEvent(tick=480, channel=5, data=[60, 0]),
   midi.NoteOffEvent(tick=0, channel=5, data=[48, 0]),
   midi.NoteOnEvent(tick=0, channel=5, data=[60, 120]),
   midi.NoteOnEvent(tick=0, channel=5, data=[48, 120]),
   midi.NoteOffEvent(tick=960, channel=5, data=[60, 0]),
   midi.NoteOffEvent(tick=0, channel=5, data=[48, 0]),
   midi.NoteOnEvent(tick=2880, channel=5, data=[55, 115]),
   midi.NoteOnEvent(tick=0, channel=5, data=[43, 117]),
   midi.NoteOffEvent(tick=960, channel=5, data=[55, 0]),
   midi.NoteOffEvent(tick=0, channel=5, data=[43, 0]),
   midi.NoteOnEvent(tick=6720, channel=5, data=[55, 120]),
   midi.NoteOnEvent(tick=0, channel=5, data=[43, 120]),
   midi.NoteOffEvent(tick=960, channel=5, data=[55, 0]),
   midi.NoteOffEvent(tick=0, channel=5, data=[43, 0]),
   midi.NoteOnEvent(tick=23040, channel=5, data=[55, 113]),
   midi.NoteOnEvent(tick=0, channel=5, data=[43, 113]),
   midi.NoteOffEvent(tick=960, channel=5, data=[55, 0]),
   midi.NoteOffEvent(tick=0, channel=5, data=[43, 0]),
   midi.NoteOnEvent(tick=0, channel=5, data=[55, 120]),
   midi.NoteOnEvent(tick=0, channel=5, data=[43, 120]),
   midi.NoteOffEvent(tick=960, channel=5, data=[55, 0]),
   midi.NoteOffEvent(tick=0, channel=5, data=[43, 0]),
   midi.NoteOnEvent(tick=0, channel=5, data=[55, 113]),
   midi.NoteOnEvent(tick=0, channel=5, data=[43, 113]),
   midi.NoteOffEvent(tick=960, channel=5, data=[55, 0]),
   midi.NoteOffEvent(tick=0, channel=5, data=[43, 0]),
   midi.NoteOnEvent(tick=0, channel=5, data=[55, 120]),
   midi.NoteOnEvent(tick=0, channel=5, data=[43, 120]),
   midi.NoteOffEvent(tick=960, channel=5, data=[55, 0]),
   midi.NoteOffEvent(tick=0, channel=5, data=[43, 0]),
   midi.NoteOnEvent(tick=0, channel=5, data=[55, 113]),
   midi.NoteOnEvent(tick=0, channel=5, data=[43, 113]),
   midi.NoteOffEvent(tick=960, channel=5, data=[55, 0]),
   midi.NoteOffEvent(tick=0, channel=5, data=[43, 0]),
   midi.NoteOnEvent(tick=0, channel=5, data=[55, 120]),
   midi.NoteOnEvent(tick=0, channel=5, data=[43, 120]),
   midi.NoteOffEvent(tick=960, channel=5, data=[55, 0]),
   midi.NoteOffEvent(tick=0, channel=5, data=[43, 0]),
   midi.NoteOnEvent(tick=0, channel=5, data=[60, 125]),
   midi.NoteOnEvent(tick=0, channel=5, data=[48, 122]),
   midi.NoteOffEvent(tick=960, channel=5, data=[60, 0]),
   midi.NoteOffEvent(tick=0, channel=5, data=[48, 0]),
   midi.NoteOnEvent(tick=0, channel=5, data=[60, 127]),
   midi.NoteOnEvent(tick=0, channel=5, data=[48, 126]),
   midi.NoteOffEvent(tick=960, channel=5, data=[60, 0]),
   midi.NoteOffEvent(tick=0, channel=5, data=[48, 0]),
   midi.NoteOnEvent(tick=0, channel=5, data=[60, 119]),
   midi.NoteOnEvent(tick=0, channel=5, data=[48, 117]),
   midi.NoteOffEvent(tick=960, channel=5, data=[60, 0]),
   midi.NoteOffEvent(tick=0, channel=5, data=[48, 0]),
   midi.NoteOnEvent(tick=0, channel=5, data=[60, 123]),
   midi.NoteOnEvent(tick=0, channel=5, data=[48, 122]),
   midi.NoteOffEvent(tick=960, channel=5, data=[60, 0]),
   midi.NoteOffEvent(tick=0, channel=5, data=[48, 0]),
   midi.NoteOnEvent(tick=0, channel=5, data=[55, 102]),
   midi.NoteOnEvent(tick=0, channel=5, data=[43, 108]),
   midi.NoteOffEvent(tick=960, channel=5, data=[55, 0]),
   midi.NoteOffEvent(tick=0, channel=5, data=[43, 0]),
   midi.NoteOnEvent(tick=0, channel=5, data=[55, 111]),
   midi.NoteOnEvent(tick=0, channel=5, data=[43, 116]),
   midi.NoteOffEvent(tick=960, channel=5, data=[55, 0]),
   midi.NoteOffEvent(tick=0, channel=5, data=[43, 0]),
   midi.NoteOnEvent(tick=0, channel=5, data=[55, 108]),
   midi.NoteOnEvent(tick=0, channel=5, data=[43, 110]),
   midi.NoteOffEvent(tick=960, channel=5, data=[55, 0]),
   midi.NoteOffEvent(tick=0, channel=5, data=[43, 0]),
   midi.NoteOnEvent(tick=0, channel=5, data=[55, 116]),
   midi.NoteOnEvent(tick=0, channel=5, data=[43, 118]),
   midi.NoteOffEvent(tick=960, channel=5, data=[55, 0]),
   midi.NoteOffEvent(tick=0, channel=5, data=[43, 0]),
   midi.NoteOnEvent(tick=0, channel=5, data=[55, 111]),
   midi.NoteOnEvent(tick=0, channel=5, data=[43, 112]),
   midi.NoteOffEvent(tick=960, channel=5, data=[55, 0]),
   midi.NoteOffEvent(tick=0, channel=5, data=[43, 0]),
   midi.NoteOnEvent(tick=0, channel=5, data=[60, 127]),
   midi.NoteOnEvent(tick=0, channel=5, data=[48, 127]),
   midi.NoteOffEvent(tick=3840, channel=5, data=[60, 0]),
   midi.NoteOffEvent(tick=0, channel=5, data=[48, 0]),
   midi.NoteOnEvent(tick=0, channel=5, data=[60, 122]),
   midi.NoteOnEvent(tick=0, channel=5, data=[48, 121]),
   midi.NoteOffEvent(tick=3840, channel=5, data=[60, 0]),
   midi.NoteOffEvent(tick=0, channel=5, data=[48, 0]),
   midi.NoteOnEvent(tick=0, channel=5, data=[60, 120]),
   midi.NoteOnEvent(tick=0, channel=5, data=[48, 120]),
   midi.NoteOffEvent(tick=3840, channel=5, data=[60, 0]),
   midi.NoteOffEvent(tick=0, channel=5, data=[48, 0]),
   midi.NoteOnEvent(tick=0, channel=5, data=[60, 120]),
   midi.NoteOnEvent(tick=0, channel=5, data=[48, 120]),
   midi.NoteOffEvent(tick=3840, channel=5, data=[60, 0]),
   midi.NoteOffEvent(tick=0, channel=5, data=[48, 0]),
   midi.NoteOnEvent(tick=0, channel=5, data=[55, 118]),
   midi.NoteOnEvent(tick=0, channel=5, data=[43, 119]),
   midi.NoteOffEvent(tick=1920, channel=5, data=[55, 0]),
   midi.NoteOffEvent(tick=0, channel=5, data=[43, 0]),
   midi.NoteOnEvent(tick=0, channel=5, data=[55, 119]),
   midi.NoteOnEvent(tick=0, channel=5, data=[43, 120]),
   midi.NoteOffEvent(tick=1920, channel=5, data=[55, 0]),
   midi.NoteOffEvent(tick=0, channel=5, data=[43, 0]),
   midi.NoteOnEvent(tick=0, channel=5, data=[60, 125]),
   midi.NoteOnEvent(tick=0, channel=5, data=[48, 123]),
   midi.NoteOffEvent(tick=480, channel=5, data=[60, 0]),
   midi.NoteOffEvent(tick=0, channel=5, data=[48, 0]),
   midi.NoteOnEvent(tick=1440, channel=5, data=[60, 122]),
   midi.NoteOnEvent(tick=0, channel=5, data=[48, 121]),
   midi.NoteOffEvent(tick=480, channel=5, data=[60, 0]),
   midi.NoteOffEvent(tick=0, channel=5, data=[48, 0]),
   midi.NoteOnEvent(tick=1440, channel=5, data=[60, 120]),
   midi.NoteOnEvent(tick=0, channel=5, data=[48, 120]),
   midi.NoteOffEvent(tick=480, channel=5, data=[60, 0]),
   midi.NoteOffEvent(tick=0, channel=5, data=[48, 0]),
   midi.NoteOnEvent(tick=1440, channel=5, data=[60, 120]),
   midi.NoteOnEvent(tick=0, channel=5, data=[48, 120]),
   midi.NoteOffEvent(tick=480, channel=5, data=[60, 0]),
   midi.NoteOffEvent(tick=0, channel=5, data=[48, 0]),
   midi.NoteOnEvent(tick=1440, channel=5, data=[55, 114]),
   midi.NoteOnEvent(tick=0, channel=5, data=[43, 117]),
   midi.NoteOffEvent(tick=480, channel=5, data=[55, 0]),
   midi.NoteOffEvent(tick=0, channel=5, data=[43, 0]),
   midi.NoteOnEvent(tick=1440, channel=5, data=[55, 117]),
   midi.NoteOnEvent(tick=0, channel=5, data=[43, 119]),
   midi.NoteOffEvent(tick=480, channel=5, data=[55, 0]),
   midi.NoteOffEvent(tick=0, channel=5, data=[43, 0]),
   midi.NoteOnEvent(tick=1440, channel=5, data=[60, 125]),
   midi.NoteOnEvent(tick=0, channel=5, data=[48, 123]),
   midi.NoteOffEvent(tick=1920, channel=5, data=[60, 0]),
   midi.NoteOffEvent(tick=0, channel=5, data=[48, 0]),
   midi.NoteOnEvent(tick=0, channel=5, data=[60, 122]),
   midi.NoteOnEvent(tick=0, channel=5, data=[48, 121]),
   midi.NoteOffEvent(tick=960, channel=5, data=[60, 0]),
   midi.NoteOffEvent(tick=0, channel=5, data=[48, 0]),
   midi.NoteOnEvent(tick=0, channel=5, data=[60, 114]),
   midi.NoteOnEvent(tick=0, channel=5, data=[48, 114]),
   midi.NoteOffEvent(tick=960, channel=5, data=[60, 0]),
   midi.NoteOffEvent(tick=0, channel=5, data=[48, 0]),
   midi.NoteOnEvent(tick=0, channel=5, data=[60, 120]),
   midi.NoteOnEvent(tick=0, channel=5, data=[48, 120]),
   midi.NoteOffEvent(tick=1920, channel=5, data=[60, 0]),
   midi.NoteOffEvent(tick=0, channel=5, data=[48, 0]),
   midi.NoteOnEvent(tick=0, channel=5, data=[60, 120]),
   midi.NoteOnEvent(tick=0, channel=5, data=[48, 120]),
   midi.NoteOffEvent(tick=960, channel=5, data=[60, 0]),
   midi.NoteOffEvent(tick=0, channel=5, data=[48, 0]),
   midi.NoteOnEvent(tick=0, channel=5, data=[60, 113]),
   midi.NoteOnEvent(tick=0, channel=5, data=[48, 113]),
   midi.NoteOffEvent(tick=960, channel=5, data=[60, 0]),
   midi.NoteOffEvent(tick=0, channel=5, data=[48, 0]),
   midi.NoteOnEvent(tick=0, channel=5, data=[60, 120]),
   midi.NoteOnEvent(tick=0, channel=5, data=[48, 120]),
   midi.NoteOffEvent(tick=1920, channel=5, data=[60, 0]),
   midi.NoteOffEvent(tick=0, channel=5, data=[48, 0]),
   midi.NoteOnEvent(tick=0, channel=5, data=[60, 120]),
   midi.NoteOnEvent(tick=0, channel=5, data=[48, 120]),
   midi.NoteOffEvent(tick=960, channel=5, data=[60, 0]),
   midi.NoteOffEvent(tick=0, channel=5, data=[48, 0]),
   midi.NoteOnEvent(tick=0, channel=5, data=[60, 113]),
   midi.NoteOnEvent(tick=0, channel=5, data=[48, 113]),
   midi.NoteOffEvent(tick=960, channel=5, data=[60, 0]),
   midi.NoteOffEvent(tick=0, channel=5, data=[48, 0]),
   midi.NoteOnEvent(tick=0, channel=5, data=[60, 120]),
   midi.NoteOnEvent(tick=0, channel=5, data=[48, 120]),
   midi.NoteOffEvent(tick=1920, channel=5, data=[60, 0]),
   midi.NoteOffEvent(tick=0, channel=5, data=[48, 0]),
   midi.NoteOnEvent(tick=0, channel=5, data=[55, 112]),
   midi.NoteOnEvent(tick=0, channel=5, data=[43, 116]),
   midi.NoteOffEvent(tick=960, channel=5, data=[55, 0]),
   midi.NoteOffEvent(tick=0, channel=5, data=[43, 0]),
   midi.NoteOnEvent(tick=0, channel=5, data=[55, 108]),
   midi.NoteOnEvent(tick=0, channel=5, data=[43, 110]),
   midi.NoteOffEvent(tick=960, channel=5, data=[55, 0]),
   midi.NoteOffEvent(tick=0, channel=5, data=[43, 0]),
   midi.NoteOnEvent(tick=0, channel=5, data=[55, 116]),
   midi.NoteOnEvent(tick=0, channel=5, data=[43, 118]),
   midi.NoteOffEvent(tick=1920, channel=5, data=[55, 0]),
   midi.NoteOffEvent(tick=0, channel=5, data=[43, 0]),
   midi.NoteOnEvent(tick=0, channel=5, data=[55, 119]),
   midi.NoteOnEvent(tick=0, channel=5, data=[43, 119]),
   midi.NoteOffEvent(tick=960, channel=5, data=[55, 0]),
   midi.NoteOffEvent(tick=0, channel=5, data=[43, 0]),
   midi.NoteOnEvent(tick=0, channel=5, data=[55, 113]),
   midi.NoteOnEvent(tick=0, channel=5, data=[43, 113]),
   midi.NoteOffEvent(tick=960, channel=5, data=[55, 0]),
   midi.NoteOffEvent(tick=0, channel=5, data=[43, 0]),
   midi.NoteOnEvent(tick=0, channel=5, data=[55, 120]),
   midi.NoteOnEvent(tick=0, channel=5, data=[43, 120]),
   midi.NoteOffEvent(tick=1920, channel=5, data=[55, 0]),
   midi.NoteOffEvent(tick=0, channel=5, data=[43, 0]),
   midi.NoteOnEvent(tick=0, channel=5, data=[55, 120]),
   midi.NoteOnEvent(tick=0, channel=5, data=[43, 120]),
   midi.NoteOffEvent(tick=960, channel=5, data=[55, 0]),
   midi.NoteOffEvent(tick=0, channel=5, data=[43, 0]),
   midi.NoteOnEvent(tick=0, channel=5, data=[55, 113]),
   midi.NoteOnEvent(tick=0, channel=5, data=[43, 113]),
   midi.NoteOffEvent(tick=960, channel=5, data=[55, 0]),
   midi.NoteOffEvent(tick=0, channel=5, data=[43, 0]),
   midi.NoteOnEvent(tick=0, channel=5, data=[55, 120]),
   midi.NoteOnEvent(tick=0, channel=5, data=[43, 120]),
   midi.NoteOffEvent(tick=1920, channel=5, data=[55, 0]),
   midi.NoteOffEvent(tick=0, channel=5, data=[43, 0]),
   midi.NoteOnEvent(tick=0, channel=5, data=[55, 120]),
   midi.NoteOnEvent(tick=0, channel=5, data=[43, 120]),
   midi.NoteOffEvent(tick=960, channel=5, data=[55, 0]),
   midi.NoteOffEvent(tick=0, channel=5, data=[43, 0]),
   midi.NoteOnEvent(tick=0, channel=5, data=[55, 113]),
   midi.NoteOnEvent(tick=0, channel=5, data=[43, 113]),
   midi.NoteOffEvent(tick=960, channel=5, data=[55, 0]),
   midi.NoteOffEvent(tick=0, channel=5, data=[43, 0]),
   midi.NoteOnEvent(tick=0, channel=5, data=[55, 120]),
   midi.NoteOnEvent(tick=0, channel=5, data=[48, 127]),
   midi.NoteOffEvent(tick=960, channel=5, data=[55, 0]),
   midi.NoteOffEvent(tick=0, channel=5, data=[48, 0]),
   midi.NoteOnEvent(tick=4800, channel=5, data=[60, 121]),
   midi.NoteOnEvent(tick=0, channel=5, data=[48, 120]),
   midi.NoteOffEvent(tick=960, channel=5, data=[60, 0]),
   midi.NoteOffEvent(tick=0, channel=5, data=[48, 0]),
   midi.NoteOnEvent(tick=0, channel=5, data=[60, 113]),
   midi.NoteOnEvent(tick=0, channel=5, data=[48, 113]),
   midi.NoteOffEvent(tick=960, channel=5, data=[60, 0]),
   midi.NoteOffEvent(tick=0, channel=5, data=[48, 0]),
   midi.NoteOnEvent(tick=1920, channel=5, data=[60, 120]),
   midi.NoteOnEvent(tick=0, channel=5, data=[48, 120]),
   midi.NoteOffEvent(tick=960, channel=5, data=[60, 0]),
   midi.NoteOffEvent(tick=0, channel=5, data=[48, 0]),
   midi.NoteOnEvent(tick=0, channel=5, data=[60, 113]),
   midi.NoteOnEvent(tick=0, channel=5, data=[48, 113]),
   midi.NoteOffEvent(tick=960, channel=5, data=[60, 0]),
   midi.NoteOffEvent(tick=0, channel=5, data=[48, 0]),
   midi.NoteOnEvent(tick=960, channel=5, data=[43, 107]),
   midi.NoteOnEvent(tick=0, channel=5, data=[55, 107]),
   midi.NoteOffEvent(tick=960, channel=5, data=[43, 0]),
   midi.NoteOffEvent(tick=0, channel=5, data=[55, 0]),
   midi.NoteOnEvent(tick=960, channel=5, data=[43, 110]),
   midi.NoteOnEvent(tick=0, channel=5, data=[55, 110]),
   midi.NoteOffEvent(tick=960, channel=5, data=[43, 0]),
   midi.NoteOffEvent(tick=0, channel=5, data=[55, 0]),
   midi.NoteOnEvent(tick=3840, channel=5, data=[60, 121]),
   midi.NoteOnEvent(tick=0, channel=5, data=[48, 120]),
   midi.NoteOffEvent(tick=960, channel=5, data=[60, 0]),
   midi.NoteOffEvent(tick=0, channel=5, data=[48, 0]),
   midi.NoteOnEvent(tick=0, channel=5, data=[60, 114]),
   midi.NoteOnEvent(tick=0, channel=5, data=[48, 113]),
   midi.NoteOffEvent(tick=960, channel=5, data=[60, 0]),
   midi.NoteOffEvent(tick=0, channel=5, data=[48, 0]),
   midi.NoteOnEvent(tick=0, channel=5, data=[60, 120]),
   midi.NoteOnEvent(tick=0, channel=5, data=[48, 120]),
   midi.NoteOffEvent(tick=960, channel=5, data=[60, 0]),
   midi.NoteOffEvent(tick=0, channel=5, data=[48, 0]),
   midi.NoteOnEvent(tick=0, channel=5, data=[60, 113]),
   midi.NoteOnEvent(tick=0, channel=5, data=[48, 113]),
   midi.NoteOffEvent(tick=960, channel=5, data=[60, 0]),
   midi.NoteOffEvent(tick=0, channel=5, data=[48, 0]),
   midi.NoteOnEvent(tick=0, channel=5, data=[60, 120]),
   midi.NoteOnEvent(tick=0, channel=5, data=[48, 120]),
   midi.NoteOffEvent(tick=960, channel=5, data=[60, 0]),
   midi.NoteOffEvent(tick=0, channel=5, data=[48, 0]),
   midi.NoteOnEvent(tick=0, channel=5, data=[60, 113]),
   midi.NoteOnEvent(tick=0, channel=5, data=[48, 113]),
   midi.NoteOffEvent(tick=960, channel=5, data=[60, 0]),
   midi.NoteOffEvent(tick=0, channel=5, data=[48, 0]),
   midi.NoteOnEvent(tick=0, channel=5, data=[60, 120]),
   midi.NoteOnEvent(tick=0, channel=5, data=[48, 120]),
   midi.NoteOffEvent(tick=960, channel=5, data=[60, 0]),
   midi.NoteOffEvent(tick=0, channel=5, data=[48, 0]),
   midi.NoteOnEvent(tick=0, channel=5, data=[60, 113]),
   midi.NoteOnEvent(tick=0, channel=5, data=[48, 113]),
   midi.NoteOffEvent(tick=960, channel=5, data=[60, 0]),
   midi.NoteOffEvent(tick=0, channel=5, data=[48, 0]),
   midi.NoteOnEvent(tick=960, channel=5, data=[43, 104]),
   midi.NoteOnEvent(tick=0, channel=5, data=[55, 104]),
   midi.NoteOffEvent(tick=960, channel=5, data=[43, 0]),
   midi.NoteOffEvent(tick=0, channel=5, data=[55, 0]),
   midi.NoteOnEvent(tick=960, channel=5, data=[43, 110]),
   midi.NoteOnEvent(tick=0, channel=5, data=[55, 110]),
   midi.NoteOffEvent(tick=960, channel=5, data=[43, 0]),
   midi.NoteOffEvent(tick=0, channel=5, data=[55, 0]),
   midi.NoteOnEvent(tick=0, channel=5, data=[60, 126]),
   midi.NoteOnEvent(tick=0, channel=5, data=[48, 120]),
   midi.NoteOffEvent(tick=960, channel=5, data=[60, 0]),
   midi.NoteOffEvent(tick=0, channel=5, data=[48, 0]),
   midi.NoteOnEvent(tick=9120, channel=5, data=[55, 113]),
   midi.NoteOnEvent(tick=0, channel=5, data=[43, 113]),
   midi.NoteOffEvent(tick=480, channel=5, data=[55, 0]),
   midi.NoteOffEvent(tick=0, channel=5, data=[43, 0]),
   midi.NoteOnEvent(tick=0, channel=5, data=[55, 113]),
   midi.NoteOnEvent(tick=0, channel=5, data=[43, 113]),
   midi.NoteOffEvent(tick=480, channel=5, data=[55, 0]),
   midi.NoteOffEvent(tick=0, channel=5, data=[43, 0]),
   midi.NoteOnEvent(tick=0, channel=5, data=[55, 113]),
   midi.NoteOnEvent(tick=0, channel=5, data=[43, 113]),
   midi.NoteOffEvent(tick=480, channel=5, data=[55, 0]),
   midi.NoteOffEvent(tick=0, channel=5, data=[43, 0]),
   midi.NoteOnEvent(tick=0, channel=5, data=[60, 127]),
   midi.NoteOnEvent(tick=0, channel=5, data=[48, 127]),
   midi.NoteOffEvent(tick=960, channel=5, data=[60, 0]),
   midi.NoteOffEvent(tick=0, channel=5, data=[48, 0]),
   midi.NoteOnEvent(tick=5280, channel=5, data=[55, 113]),
   midi.NoteOnEvent(tick=0, channel=5, data=[43, 113]),
   midi.NoteOffEvent(tick=480, channel=5, data=[55, 0]),
   midi.NoteOffEvent(tick=0, channel=5, data=[43, 0]),
   midi.NoteOnEvent(tick=0, channel=5, data=[55, 113]),
   midi.NoteOnEvent(tick=0, channel=5, data=[43, 113]),
   midi.NoteOffEvent(tick=480, channel=5, data=[55, 0]),
   midi.NoteOffEvent(tick=0, channel=5, data=[43, 0]),
   midi.NoteOnEvent(tick=0, channel=5, data=[55, 113]),
   midi.NoteOnEvent(tick=0, channel=5, data=[43, 113]),
   midi.NoteOffEvent(tick=480, channel=5, data=[55, 0]),
   midi.NoteOffEvent(tick=0, channel=5, data=[43, 0]),
   midi.NoteOnEvent(tick=0, channel=5, data=[55, 120]),
   midi.NoteOnEvent(tick=0, channel=5, data=[43, 120]),
   midi.NoteOffEvent(tick=3840, channel=5, data=[55, 0]),
   midi.NoteOffEvent(tick=0, channel=5, data=[43, 0]),
   midi.NoteOnEvent(tick=480, channel=5, data=[55, 113]),
   midi.NoteOnEvent(tick=0, channel=5, data=[43, 113]),
   midi.NoteOffEvent(tick=480, channel=5, data=[55, 0]),
   midi.NoteOffEvent(tick=0, channel=5, data=[43, 0]),
   midi.NoteOnEvent(tick=0, channel=5, data=[55, 113]),
   midi.NoteOnEvent(tick=0, channel=5, data=[43, 113]),
   midi.NoteOffEvent(tick=480, channel=5, data=[55, 0]),
   midi.NoteOffEvent(tick=0, channel=5, data=[43, 0]),
   midi.NoteOnEvent(tick=0, channel=5, data=[55, 113]),
   midi.NoteOnEvent(tick=0, channel=5, data=[43, 113]),
   midi.NoteOffEvent(tick=480, channel=5, data=[55, 0]),
   midi.NoteOffEvent(tick=0, channel=5, data=[43, 0]),
   midi.NoteOnEvent(tick=0, channel=5, data=[55, 120]),
   midi.NoteOnEvent(tick=0, channel=5, data=[43, 120]),
   midi.NoteOffEvent(tick=7680, channel=5, data=[55, 0]),
   midi.NoteOffEvent(tick=0, channel=5, data=[43, 0]),
   midi.NoteOnEvent(tick=15840, channel=5, data=[55, 113]),
   midi.NoteOnEvent(tick=0, channel=5, data=[43, 113]),
   midi.NoteOffEvent(tick=480, channel=5, data=[55, 0]),
   midi.NoteOffEvent(tick=0, channel=5, data=[43, 0]),
   midi.NoteOnEvent(tick=0, channel=5, data=[55, 113]),
   midi.NoteOnEvent(tick=0, channel=5, data=[43, 113]),
   midi.NoteOffEvent(tick=480, channel=5, data=[55, 0]),
   midi.NoteOffEvent(tick=0, channel=5, data=[43, 0]),
   midi.NoteOnEvent(tick=0, channel=5, data=[55, 113]),
   midi.NoteOnEvent(tick=0, channel=5, data=[43, 113]),
   midi.NoteOffEvent(tick=480, channel=5, data=[55, 0]),
   midi.NoteOffEvent(tick=0, channel=5, data=[43, 0]),
   midi.NoteOnEvent(tick=0, channel=5, data=[60, 127]),
   midi.NoteOnEvent(tick=0, channel=5, data=[48, 127]),
   midi.NoteOffEvent(tick=960, channel=5, data=[60, 0]),
   midi.NoteOffEvent(tick=0, channel=5, data=[48, 0]),
   midi.NoteOnEvent(tick=1440, channel=5, data=[55, 110]),
   midi.NoteOnEvent(tick=0, channel=5, data=[43, 112]),
   midi.NoteOffEvent(tick=480, channel=5, data=[55, 0]),
   midi.NoteOffEvent(tick=0, channel=5, data=[43, 0]),
   midi.NoteOnEvent(tick=0, channel=5, data=[55, 111]),
   midi.NoteOnEvent(tick=0, channel=5, data=[43, 112]),
   midi.NoteOffEvent(tick=480, channel=5, data=[55, 0]),
   midi.NoteOffEvent(tick=0, channel=5, data=[43, 0]),
   midi.NoteOnEvent(tick=0, channel=5, data=[55, 111]),
   midi.NoteOnEvent(tick=0, channel=5, data=[43, 112]),
   midi.NoteOffEvent(tick=480, channel=5, data=[55, 0]),
   midi.NoteOffEvent(tick=0, channel=5, data=[43, 0]),
   midi.NoteOnEvent(tick=0, channel=5, data=[60, 127]),
   midi.NoteOnEvent(tick=0, channel=5, data=[48, 127]),
   midi.NoteOffEvent(tick=960, channel=5, data=[60, 0]),
   midi.NoteOffEvent(tick=0, channel=5, data=[48, 0]),
   midi.NoteOnEvent(tick=1440, channel=5, data=[55, 110]),
   midi.NoteOnEvent(tick=0, channel=5, data=[43, 112]),
   midi.NoteOffEvent(tick=480, channel=5, data=[55, 0]),
   midi.NoteOffEvent(tick=0, channel=5, data=[43, 0]),
   midi.NoteOnEvent(tick=0, channel=5, data=[55, 111]),
   midi.NoteOnEvent(tick=0, channel=5, data=[43, 112]),
   midi.NoteOffEvent(tick=480, channel=5, data=[55, 0]),
   midi.NoteOffEvent(tick=0, channel=5, data=[43, 0]),
   midi.NoteOnEvent(tick=0, channel=5, data=[55, 111]),
   midi.NoteOnEvent(tick=0, channel=5, data=[43, 112]),
   midi.NoteOffEvent(tick=480, channel=5, data=[55, 0]),
   midi.NoteOffEvent(tick=0, channel=5, data=[43, 0]),
   midi.NoteOnEvent(tick=0, channel=5, data=[60, 127]),
   midi.NoteOnEvent(tick=0, channel=5, data=[48, 127]),
   midi.NoteOffEvent(tick=960, channel=5, data=[60, 0]),
   midi.NoteOffEvent(tick=0, channel=5, data=[48, 0]),
   midi.NoteOnEvent(tick=0, channel=5, data=[55, 108]),
   midi.NoteOnEvent(tick=0, channel=5, data=[43, 111]),
   midi.NoteOffEvent(tick=960, channel=5, data=[55, 0]),
   midi.NoteOffEvent(tick=0, channel=5, data=[43, 0]),
   midi.NoteOnEvent(tick=0, channel=5, data=[60, 127]),
   midi.NoteOnEvent(tick=0, channel=5, data=[48, 127]),
   midi.NoteOffEvent(tick=960, channel=5, data=[60, 0]),
   midi.NoteOffEvent(tick=0, channel=5, data=[48, 0]),
   midi.NoteOnEvent(tick=0, channel=5, data=[55, 107]),
   midi.NoteOnEvent(tick=0, channel=5, data=[43, 110]),
   midi.NoteOffEvent(tick=960, channel=5, data=[55, 0]),
   midi.NoteOffEvent(tick=0, channel=5, data=[43, 0]),
   midi.NoteOnEvent(tick=0, channel=5, data=[60, 127]),
   midi.NoteOnEvent(tick=0, channel=5, data=[48, 127]),
   midi.NoteOffEvent(tick=960, channel=5, data=[60, 0]),
   midi.NoteOffEvent(tick=0, channel=5, data=[48, 0]),
   midi.NoteOnEvent(tick=0, channel=5, data=[55, 106]),
   midi.NoteOnEvent(tick=0, channel=5, data=[43, 109]),
   midi.NoteOffEvent(tick=960, channel=5, data=[55, 0]),
   midi.NoteOffEvent(tick=0, channel=5, data=[43, 0]),
   midi.NoteOnEvent(tick=0, channel=5, data=[60, 127]),
   midi.NoteOnEvent(tick=0, channel=5, data=[48, 126]),
   midi.NoteOffEvent(tick=960, channel=5, data=[60, 0]),
   midi.NoteOffEvent(tick=0, channel=5, data=[48, 0]),
   midi.NoteOnEvent(tick=0, channel=5, data=[55, 105]),
   midi.NoteOnEvent(tick=0, channel=5, data=[43, 109]),
   midi.NoteOffEvent(tick=960, channel=5, data=[55, 0]),
   midi.NoteOffEvent(tick=0, channel=5, data=[43, 0]),
   midi.NoteOnEvent(tick=0, channel=5, data=[60, 127]),
   midi.NoteOnEvent(tick=0, channel=5, data=[48, 125]),
   midi.NoteOffEvent(tick=960, channel=5, data=[60, 0]),
   midi.NoteOffEvent(tick=0, channel=5, data=[48, 0]),
   midi.NoteOnEvent(tick=960, channel=5, data=[55, 114]),
   midi.NoteOnEvent(tick=0, channel=5, data=[43, 117]),
   midi.NoteOffEvent(tick=960, channel=5, data=[55, 0]),
   midi.NoteOffEvent(tick=0, channel=5, data=[43, 0]),
   midi.NoteOnEvent(tick=960, channel=5, data=[48, 111]),
   midi.NoteOffEvent(tick=960, channel=5, data=[48, 0]),
   midi.EndOfTrackEvent(tick=1, data=[])]),
 midi.Track(\
  [midi.ProgramChangeEvent(tick=0, channel=6, data=[47]),
   midi.ControlChangeEvent(tick=0, channel=6, data=[121, 0]),
   midi.ControlChangeEvent(tick=0, channel=6, data=[64, 0]),
   midi.ControlChangeEvent(tick=0, channel=6, data=[91, 72]),
   midi.ControlChangeEvent(tick=0, channel=6, data=[10, 89]),
   midi.ControlChangeEvent(tick=0, channel=6, data=[7, 100]),
   midi.TrackNameEvent(tick=0, text='Timpani', data=[84, 105, 109, 112, 97, 110, 105]),
   midi.NoteOnEvent(tick=33120, channel=6, data=[43, 61]),
   midi.NoteOffEvent(tick=480, channel=6, data=[43, 0]),
   midi.NoteOnEvent(tick=0, channel=6, data=[43, 61]),
   midi.NoteOffEvent(tick=480, channel=6, data=[43, 0]),
   midi.NoteOnEvent(tick=0, channel=6, data=[43, 78]),
   midi.NoteOffEvent(tick=480, channel=6, data=[43, 0]),
   midi.NoteOnEvent(tick=0, channel=6, data=[48, 112]),
   midi.NoteOffEvent(tick=960, channel=6, data=[48, 0]),
   midi.NoteOnEvent(tick=960, channel=6, data=[48, 108]),
   midi.NoteOffEvent(tick=960, channel=6, data=[48, 0]),
   midi.NoteOnEvent(tick=960, channel=6, data=[43, 102]),
   midi.NoteOffEvent(tick=960, channel=6, data=[43, 0]),
   midi.NoteOnEvent(tick=43200, channel=6, data=[48, 104]),
   midi.NoteOffEvent(tick=960, channel=6, data=[48, 0]),
   midi.NoteOnEvent(tick=960, channel=6, data=[48, 104]),
   midi.NoteOffEvent(tick=960, channel=6, data=[48, 0]),
   midi.NoteOnEvent(tick=5760, channel=6, data=[48, 98]),
   midi.NoteOffEvent(tick=480, channel=6, data=[48, 0]),
   midi.NoteOnEvent(tick=0, channel=6, data=[48, 98]),
   midi.NoteOffEvent(tick=480, channel=6, data=[48, 0]),
   midi.NoteOnEvent(tick=0, channel=6, data=[43, 100]),
   midi.NoteOffEvent(tick=960, channel=6, data=[43, 0]),
   midi.NoteOnEvent(tick=5760, channel=6, data=[48, 98]),
   midi.NoteOffEvent(tick=480, channel=6, data=[48, 0]),
   midi.NoteOnEvent(tick=0, channel=6, data=[48, 98]),
   midi.NoteOffEvent(tick=480, channel=6, data=[48, 0]),
   midi.NoteOnEvent(tick=0, channel=6, data=[48, 120]),
   midi.NoteOffEvent(tick=480, channel=6, data=[48, 0]),
   midi.NoteOnEvent(tick=0, channel=6, data=[48, 113]),
   midi.NoteOffEvent(tick=480, channel=6, data=[48, 0]),
   midi.NoteOnEvent(tick=0, channel=6, data=[48, 113]),
   midi.NoteOffEvent(tick=480, channel=6, data=[48, 0]),
   midi.NoteOnEvent(tick=0, channel=6, data=[48, 113]),
   midi.NoteOffEvent(tick=480, channel=6, data=[48, 0]),
   midi.NoteOnEvent(tick=0, channel=6, data=[48, 120]),
   midi.NoteOffEvent(tick=480, channel=6, data=[48, 0]),
   midi.NoteOnEvent(tick=0, channel=6, data=[48, 113]),
   midi.NoteOffEvent(tick=480, channel=6, data=[48, 0]),
   midi.NoteOnEvent(tick=0, channel=6, data=[48, 113]),
   midi.NoteOffEvent(tick=480, channel=6, data=[48, 0]),
   midi.NoteOnEvent(tick=0, channel=6, data=[48, 113]),
   midi.NoteOffEvent(tick=480, channel=6, data=[48, 0]),
   midi.NoteOnEvent(tick=0, channel=6, data=[48, 120]),
   midi.NoteOffEvent(tick=480, channel=6, data=[48, 0]),
   midi.NoteOnEvent(tick=0, channel=6, data=[48, 113]),
   midi.NoteOffEvent(tick=480, channel=6, data=[48, 0]),
   midi.NoteOnEvent(tick=0, channel=6, data=[48, 113]),
   midi.NoteOffEvent(tick=480, channel=6, data=[48, 0]),
   midi.NoteOnEvent(tick=0, channel=6, data=[48, 113]),
   midi.NoteOffEvent(tick=480, channel=6, data=[48, 0]),
   midi.NoteOnEvent(tick=0, channel=6, data=[48, 120]),
   midi.NoteOffEvent(tick=480, channel=6, data=[48, 0]),
   midi.NoteOnEvent(tick=0, channel=6, data=[48, 113]),
   midi.NoteOffEvent(tick=480, channel=6, data=[48, 0]),
   midi.NoteOnEvent(tick=0, channel=6, data=[48, 113]),
   midi.NoteOffEvent(tick=480, channel=6, data=[48, 0]),
   midi.NoteOnEvent(tick=0, channel=6, data=[48, 113]),
   midi.NoteOffEvent(tick=480, channel=6, data=[48, 0]),
   midi.NoteOnEvent(tick=0, channel=6, data=[48, 120]),
   midi.NoteOffEvent(tick=960, channel=6, data=[48, 0]),
   midi.NoteOnEvent(tick=77760, channel=6, data=[43, 104]),
   midi.NoteOffEvent(tick=960, channel=6, data=[43, 0]),
   midi.NoteOnEvent(tick=960, channel=6, data=[48, 106]),
   midi.NoteOffEvent(tick=960, channel=6, data=[48, 0]),
   midi.NoteOnEvent(tick=11520, channel=6, data=[43, 98]),
   midi.NoteOffEvent(tick=960, channel=6, data=[43, 0]),
   midi.NoteOnEvent(tick=2880, channel=6, data=[43, 98]),
   midi.NoteOffEvent(tick=960, channel=6, data=[43, 0]),
   midi.NoteOnEvent(tick=960, channel=6, data=[48, 100]),
   midi.NoteOffEvent(tick=960, channel=6, data=[48, 0]),
   midi.NoteOnEvent(tick=65760, channel=6, data=[43, 61]),
   midi.NoteOffEvent(tick=480, channel=6, data=[43, 0]),
   midi.NoteOnEvent(tick=0, channel=6, data=[43, 61]),
   midi.NoteOffEvent(tick=480, channel=6, data=[43, 0]),
   midi.NoteOnEvent(tick=0, channel=6, data=[43, 78]),
   midi.NoteOffEvent(tick=480, channel=6, data=[43, 0]),
   midi.NoteOnEvent(tick=0, channel=6, data=[48, 112]),
   midi.NoteOffEvent(tick=960, channel=6, data=[48, 0]),
   midi.NoteOnEvent(tick=960, channel=6, data=[48, 108]),
   midi.NoteOffEvent(tick=960, channel=6, data=[48, 0]),
   midi.NoteOnEvent(tick=960, channel=6, data=[43, 102]),
   midi.NoteOffEvent(tick=960, channel=6, data=[43, 0]),
   midi.NoteOnEvent(tick=43200, channel=6, data=[48, 104]),
   midi.NoteOffEvent(tick=960, channel=6, data=[48, 0]),
   midi.NoteOnEvent(tick=960, channel=6, data=[48, 104]),
   midi.NoteOffEvent(tick=960, channel=6, data=[48, 0]),
   midi.NoteOnEvent(tick=5760, channel=6, data=[48, 98]),
   midi.NoteOffEvent(tick=480, channel=6, data=[48, 0]),
   midi.NoteOnEvent(tick=0, channel=6, data=[48, 98]),
   midi.NoteOffEvent(tick=480, channel=6, data=[48, 0]),
   midi.NoteOnEvent(tick=0, channel=6, data=[43, 100]),
   midi.NoteOffEvent(tick=960, channel=6, data=[43, 0]),
   midi.NoteOnEvent(tick=5760, channel=6, data=[48, 98]),
   midi.NoteOffEvent(tick=480, channel=6, data=[48, 0]),
   midi.NoteOnEvent(tick=0, channel=6, data=[48, 98]),
   midi.NoteOffEvent(tick=480, channel=6, data=[48, 0]),
   midi.NoteOnEvent(tick=0, channel=6, data=[48, 120]),
   midi.NoteOffEvent(tick=480, channel=6, data=[48, 0]),
   midi.NoteOnEvent(tick=0, channel=6, data=[48, 113]),
   midi.NoteOffEvent(tick=480, channel=6, data=[48, 0]),
   midi.NoteOnEvent(tick=0, channel=6, data=[48, 113]),
   midi.NoteOffEvent(tick=480, channel=6, data=[48, 0]),
   midi.NoteOnEvent(tick=0, channel=6, data=[48, 113]),
   midi.NoteOffEvent(tick=480, channel=6, data=[48, 0]),
   midi.NoteOnEvent(tick=0, channel=6, data=[48, 120]),
   midi.NoteOffEvent(tick=480, channel=6, data=[48, 0]),
   midi.NoteOnEvent(tick=0, channel=6, data=[48, 113]),
   midi.NoteOffEvent(tick=480, channel=6, data=[48, 0]),
   midi.NoteOnEvent(tick=0, channel=6, data=[48, 113]),
   midi.NoteOffEvent(tick=480, channel=6, data=[48, 0]),
   midi.NoteOnEvent(tick=0, channel=6, data=[48, 113]),
   midi.NoteOffEvent(tick=480, channel=6, data=[48, 0]),
   midi.NoteOnEvent(tick=0, channel=6, data=[48, 120]),
   midi.NoteOffEvent(tick=480, channel=6, data=[48, 0]),
   midi.NoteOnEvent(tick=0, channel=6, data=[48, 113]),
   midi.NoteOffEvent(tick=480, channel=6, data=[48, 0]),
   midi.NoteOnEvent(tick=0, channel=6, data=[48, 113]),
   midi.NoteOffEvent(tick=480, channel=6, data=[48, 0]),
   midi.NoteOnEvent(tick=0, channel=6, data=[48, 113]),
   midi.NoteOffEvent(tick=480, channel=6, data=[48, 0]),
   midi.NoteOnEvent(tick=0, channel=6, data=[48, 120]),
   midi.NoteOffEvent(tick=480, channel=6, data=[48, 0]),
   midi.NoteOnEvent(tick=0, channel=6, data=[48, 113]),
   midi.NoteOffEvent(tick=480, channel=6, data=[48, 0]),
   midi.NoteOnEvent(tick=0, channel=6, data=[48, 113]),
   midi.NoteOffEvent(tick=480, channel=6, data=[48, 0]),
   midi.NoteOnEvent(tick=0, channel=6, data=[48, 113]),
   midi.NoteOffEvent(tick=480, channel=6, data=[48, 0]),
   midi.NoteOnEvent(tick=0, channel=6, data=[48, 120]),
   midi.NoteOffEvent(tick=960, channel=6, data=[48, 0]),
   midi.NoteOnEvent(tick=77760, channel=6, data=[43, 104]),
   midi.NoteOffEvent(tick=960, channel=6, data=[43, 0]),
   midi.NoteOnEvent(tick=960, channel=6, data=[48, 106]),
   midi.NoteOffEvent(tick=960, channel=6, data=[48, 0]),
   midi.NoteOnEvent(tick=11520, channel=6, data=[43, 98]),
   midi.NoteOffEvent(tick=960, channel=6, data=[43, 0]),
   midi.NoteOnEvent(tick=2880, channel=6, data=[43, 98]),
   midi.NoteOffEvent(tick=960, channel=6, data=[43, 0]),
   midi.NoteOnEvent(tick=960, channel=6, data=[48, 100]),
   midi.NoteOffEvent(tick=960, channel=6, data=[48, 0]),
   midi.NoteOnEvent(tick=96000, channel=6, data=[43, 42]),
   midi.NoteOffEvent(tick=960, channel=6, data=[43, 0]),
   midi.NoteOnEvent(tick=2880, channel=6, data=[48, 42]),
   midi.NoteOffEvent(tick=960, channel=6, data=[48, 0]),
   midi.NoteOnEvent(tick=2880, channel=6, data=[48, 42]),
   midi.NoteOffEvent(tick=960, channel=6, data=[48, 0]),
   midi.NoteOnEvent(tick=2880, channel=6, data=[43, 41]),
   midi.NoteOffEvent(tick=960, channel=6, data=[43, 0]),
   midi.NoteOnEvent(tick=2880, channel=6, data=[43, 42]),
   midi.NoteOffEvent(tick=960, channel=6, data=[43, 0]),
   midi.NoteOnEvent(tick=2880, channel=6, data=[48, 105]),
   midi.NoteOffEvent(tick=480, channel=6, data=[48, 0]),
   midi.NoteOnEvent(tick=0, channel=6, data=[48, 99]),
   midi.NoteOffEvent(tick=480, channel=6, data=[48, 0]),
   midi.NoteOnEvent(tick=0, channel=6, data=[48, 98]),
   midi.NoteOffEvent(tick=480, channel=6, data=[48, 0]),
   midi.NoteOnEvent(tick=0, channel=6, data=[48, 98]),
   midi.NoteOffEvent(tick=480, channel=6, data=[48, 0]),
   midi.NoteOnEvent(tick=0, channel=6, data=[48, 104]),
   midi.NoteOffEvent(tick=480, channel=6, data=[48, 0]),
   midi.NoteOnEvent(tick=0, channel=6, data=[48, 98]),
   midi.NoteOffEvent(tick=480, channel=6, data=[48, 0]),
   midi.NoteOnEvent(tick=0, channel=6, data=[48, 98]),
   midi.NoteOffEvent(tick=480, channel=6, data=[48, 0]),
   midi.NoteOnEvent(tick=0, channel=6, data=[48, 98]),
   midi.NoteOffEvent(tick=480, channel=6, data=[48, 0]),
   midi.NoteOnEvent(tick=0, channel=6, data=[48, 104]),
   midi.NoteOffEvent(tick=960, channel=6, data=[48, 0]),
   midi.NoteOnEvent(tick=1440, channel=6, data=[43, 92]),
   midi.NoteOffEvent(tick=480, channel=6, data=[43, 0]),
   midi.NoteOnEvent(tick=0, channel=6, data=[43, 93]),
   midi.NoteOffEvent(tick=480, channel=6, data=[43, 0]),
   midi.NoteOnEvent(tick=0, channel=6, data=[43, 94]),
   midi.NoteOffEvent(tick=480, channel=6, data=[43, 0]),
   midi.NoteOnEvent(tick=0, channel=6, data=[43, 101]),
   midi.NoteOffEvent(tick=3840, channel=6, data=[43, 0]),
   midi.NoteOnEvent(tick=0, channel=6, data=[43, 104]),
   midi.NoteOffEvent(tick=960, channel=6, data=[43, 0]),
   midi.NoteOnEvent(tick=1440, channel=6, data=[43, 98]),
   midi.NoteOffEvent(tick=480, channel=6, data=[43, 0]),
   midi.NoteOnEvent(tick=0, channel=6, data=[43, 98]),
   midi.NoteOffEvent(tick=480, channel=6, data=[43, 0]),
   midi.NoteOnEvent(tick=0, channel=6, data=[43, 98]),
   midi.NoteOffEvent(tick=480, channel=6, data=[43, 0]),
   midi.NoteOnEvent(tick=0, channel=6, data=[43, 104]),
   midi.NoteOffEvent(tick=960, channel=6, data=[43, 0]),
   midi.NoteOnEvent(tick=1920, channel=6, data=[43, 98]),
   midi.NoteOffEvent(tick=480, channel=6, data=[43, 0]),
   midi.NoteOnEvent(tick=0, channel=6, data=[43, 98]),
   midi.NoteOffEvent(tick=480, channel=6, data=[43, 0]),
   midi.NoteOnEvent(tick=0, channel=6, data=[43, 104]),
   midi.NoteOffEvent(tick=960, channel=6, data=[43, 0]),
   midi.NoteOnEvent(tick=16320, channel=6, data=[43, 104]),
   midi.NoteOffEvent(tick=960, channel=6, data=[43, 0]),
   midi.NoteOnEvent(tick=13440, channel=6, data=[43, 98]),
   midi.NoteOffEvent(tick=480, channel=6, data=[43, 0]),
   midi.NoteOnEvent(tick=0, channel=6, data=[43, 98]),
   midi.NoteOffEvent(tick=480, channel=6, data=[43, 0]),
   midi.NoteOnEvent(tick=0, channel=6, data=[48, 109]),
   midi.NoteOffEvent(tick=960, channel=6, data=[48, 0]),
   midi.NoteOnEvent(tick=101280, channel=6, data=[43, 113]),
   midi.NoteOffEvent(tick=480, channel=6, data=[43, 0]),
   midi.NoteOnEvent(tick=0, channel=6, data=[43, 113]),
   midi.NoteOffEvent(tick=480, channel=6, data=[43, 0]),
   midi.NoteOnEvent(tick=0, channel=6, data=[43, 113]),
   midi.NoteOffEvent(tick=480, channel=6, data=[43, 0]),
   midi.NoteOnEvent(tick=0, channel=6, data=[43, 120]),
   midi.NoteOffEvent(tick=94, channel=6, data=[43, 0]),
   midi.NoteOnEvent(tick=26, channel=6, data=[43, 120]),
   midi.NoteOffEvent(tick=94, channel=6, data=[43, 0]),
   midi.NoteOnEvent(tick=26, channel=6, data=[43, 120]),
   midi.NoteOffEvent(tick=94, channel=6, data=[43, 0]),
   midi.NoteOnEvent(tick=26, channel=6, data=[43, 120]),
   midi.NoteOffEvent(tick=94, channel=6, data=[43, 0]),
   midi.NoteOnEvent(tick=26, channel=6, data=[43, 120]),
   midi.NoteOffEvent(tick=94, channel=6, data=[43, 0]),
   midi.NoteOnEvent(tick=26, channel=6, data=[43, 120]),
   midi.NoteOffEvent(tick=94, channel=6, data=[43, 0]),
   midi.NoteOnEvent(tick=26, channel=6, data=[43, 120]),
   midi.NoteOffEvent(tick=94, channel=6, data=[43, 0]),
   midi.NoteOnEvent(tick=26, channel=6, data=[43, 120]),
   midi.NoteOffEvent(tick=94, channel=6, data=[43, 0]),
   midi.NoteOnEvent(tick=26, channel=6, data=[43, 120]),
   midi.NoteOffEvent(tick=94, channel=6, data=[43, 0]),
   midi.NoteOnEvent(tick=26, channel=6, data=[43, 120]),
   midi.NoteOffEvent(tick=94, channel=6, data=[43, 0]),
   midi.NoteOnEvent(tick=26, channel=6, data=[43, 120]),
   midi.NoteOffEvent(tick=94, channel=6, data=[43, 0]),
   midi.NoteOnEvent(tick=26, channel=6, data=[43, 120]),
   midi.NoteOffEvent(tick=94, channel=6, data=[43, 0]),
   midi.NoteOnEvent(tick=26, channel=6, data=[43, 120]),
   midi.NoteOffEvent(tick=94, channel=6, data=[43, 0]),
   midi.NoteOnEvent(tick=26, channel=6, data=[43, 120]),
   midi.NoteOffEvent(tick=94, channel=6, data=[43, 0]),
   midi.NoteOnEvent(tick=26, channel=6, data=[43, 120]),
   midi.NoteOffEvent(tick=94, channel=6, data=[43, 0]),
   midi.NoteOnEvent(tick=26, channel=6, data=[43, 120]),
   midi.NoteOffEvent(tick=94, channel=6, data=[43, 0]),
   midi.NoteOnEvent(tick=26, channel=6, data=[43, 120]),
   midi.NoteOffEvent(tick=94, channel=6, data=[43, 0]),
   midi.NoteOnEvent(tick=26, channel=6, data=[43, 120]),
   midi.NoteOffEvent(tick=94, channel=6, data=[43, 0]),
   midi.NoteOnEvent(tick=26, channel=6, data=[43, 120]),
   midi.NoteOffEvent(tick=94, channel=6, data=[43, 0]),
   midi.NoteOnEvent(tick=26, channel=6, data=[43, 120]),
   midi.NoteOffEvent(tick=94, channel=6, data=[43, 0]),
   midi.NoteOnEvent(tick=26, channel=6, data=[43, 120]),
   midi.NoteOffEvent(tick=94, channel=6, data=[43, 0]),
   midi.NoteOnEvent(tick=26, channel=6, data=[43, 120]),
   midi.NoteOffEvent(tick=94, channel=6, data=[43, 0]),
   midi.NoteOnEvent(tick=26, channel=6, data=[43, 120]),
   midi.NoteOffEvent(tick=94, channel=6, data=[43, 0]),
   midi.NoteOnEvent(tick=26, channel=6, data=[43, 120]),
   midi.NoteOffEvent(tick=94, channel=6, data=[43, 0]),
   midi.NoteOnEvent(tick=26, channel=6, data=[43, 120]),
   midi.NoteOffEvent(tick=94, channel=6, data=[43, 0]),
   midi.NoteOnEvent(tick=26, channel=6, data=[43, 120]),
   midi.NoteOffEvent(tick=94, channel=6, data=[43, 0]),
   midi.NoteOnEvent(tick=26, channel=6, data=[43, 120]),
   midi.NoteOffEvent(tick=94, channel=6, data=[43, 0]),
   midi.NoteOnEvent(tick=26, channel=6, data=[43, 120]),
   midi.NoteOffEvent(tick=94, channel=6, data=[43, 0]),
   midi.NoteOnEvent(tick=26, channel=6, data=[43, 120]),
   midi.NoteOffEvent(tick=94, channel=6, data=[43, 0]),
   midi.NoteOnEvent(tick=26, channel=6, data=[43, 120]),
   midi.NoteOffEvent(tick=94, channel=6, data=[43, 0]),
   midi.NoteOnEvent(tick=26, channel=6, data=[43, 120]),
   midi.NoteOffEvent(tick=94, channel=6, data=[43, 0]),
   midi.NoteOnEvent(tick=26, channel=6, data=[43, 120]),
   midi.NoteOffEvent(tick=94, channel=6, data=[43, 0]),
   midi.NoteOnEvent(tick=2426, channel=6, data=[43, 113]),
   midi.NoteOffEvent(tick=480, channel=6, data=[43, 0]),
   midi.NoteOnEvent(tick=0, channel=6, data=[43, 113]),
   midi.NoteOffEvent(tick=480, channel=6, data=[43, 0]),
   midi.NoteOnEvent(tick=0, channel=6, data=[43, 113]),
   midi.NoteOffEvent(tick=480, channel=6, data=[43, 0]),
   midi.NoteOnEvent(tick=0, channel=6, data=[43, 120]),
   midi.NoteOffEvent(tick=94, channel=6, data=[43, 0]),
   midi.NoteOnEvent(tick=26, channel=6, data=[43, 120]),
   midi.NoteOffEvent(tick=94, channel=6, data=[43, 0]),
   midi.NoteOnEvent(tick=26, channel=6, data=[43, 120]),
   midi.NoteOffEvent(tick=94, channel=6, data=[43, 0]),
   midi.NoteOnEvent(tick=26, channel=6, data=[43, 120]),
   midi.NoteOffEvent(tick=94, channel=6, data=[43, 0]),
   midi.NoteOnEvent(tick=26, channel=6, data=[43, 120]),
   midi.NoteOffEvent(tick=94, channel=6, data=[43, 0]),
   midi.NoteOnEvent(tick=26, channel=6, data=[43, 120]),
   midi.NoteOffEvent(tick=94, channel=6, data=[43, 0]),
   midi.NoteOnEvent(tick=26, channel=6, data=[43, 120]),
   midi.NoteOffEvent(tick=94, channel=6, data=[43, 0]),
   midi.NoteOnEvent(tick=26, channel=6, data=[43, 120]),
   midi.NoteOffEvent(tick=94, channel=6, data=[43, 0]),
   midi.NoteOnEvent(tick=26, channel=6, data=[43, 120]),
   midi.NoteOffEvent(tick=94, channel=6, data=[43, 0]),
   midi.NoteOnEvent(tick=26, channel=6, data=[43, 120]),
   midi.NoteOffEvent(tick=94, channel=6, data=[43, 0]),
   midi.NoteOnEvent(tick=26, channel=6, data=[43, 120]),
   midi.NoteOffEvent(tick=94, channel=6, data=[43, 0]),
   midi.NoteOnEvent(tick=26, channel=6, data=[43, 120]),
   midi.NoteOffEvent(tick=94, channel=6, data=[43, 0]),
   midi.NoteOnEvent(tick=26, channel=6, data=[43, 120]),
   midi.NoteOffEvent(tick=94, channel=6, data=[43, 0]),
   midi.NoteOnEvent(tick=26, channel=6, data=[43, 120]),
   midi.NoteOffEvent(tick=94, channel=6, data=[43, 0]),
   midi.NoteOnEvent(tick=26, channel=6, data=[43, 120]),
   midi.NoteOffEvent(tick=94, channel=6, data=[43, 0]),
   midi.NoteOnEvent(tick=26, channel=6, data=[43, 120]),
   midi.NoteOffEvent(tick=94, channel=6, data=[43, 0]),
   midi.NoteOnEvent(tick=26, channel=6, data=[43, 120]),
   midi.NoteOffEvent(tick=94, channel=6, data=[43, 0]),
   midi.NoteOnEvent(tick=26, channel=6, data=[43, 120]),
   midi.NoteOffEvent(tick=94, channel=6, data=[43, 0]),
   midi.NoteOnEvent(tick=26, channel=6, data=[43, 120]),
   midi.NoteOffEvent(tick=94, channel=6, data=[43, 0]),
   midi.NoteOnEvent(tick=26, channel=6, data=[43, 120]),
   midi.NoteOffEvent(tick=94, channel=6, data=[43, 0]),
   midi.NoteOnEvent(tick=26, channel=6, data=[43, 120]),
   midi.NoteOffEvent(tick=94, channel=6, data=[43, 0]),
   midi.NoteOnEvent(tick=26, channel=6, data=[43, 120]),
   midi.NoteOffEvent(tick=94, channel=6, data=[43, 0]),
   midi.NoteOnEvent(tick=26, channel=6, data=[43, 120]),
   midi.NoteOffEvent(tick=94, channel=6, data=[43, 0]),
   midi.NoteOnEvent(tick=26, channel=6, data=[43, 120]),
   midi.NoteOffEvent(tick=94, channel=6, data=[43, 0]),
   midi.NoteOnEvent(tick=26, channel=6, data=[43, 120]),
   midi.NoteOffEvent(tick=94, channel=6, data=[43, 0]),
   midi.NoteOnEvent(tick=26, channel=6, data=[43, 120]),
   midi.NoteOffEvent(tick=94, channel=6, data=[43, 0]),
   midi.NoteOnEvent(tick=26, channel=6, data=[43, 120]),
   midi.NoteOffEvent(tick=94, channel=6, data=[43, 0]),
   midi.NoteOnEvent(tick=26, channel=6, data=[43, 120]),
   midi.NoteOffEvent(tick=94, channel=6, data=[43, 0]),
   midi.NoteOnEvent(tick=26, channel=6, data=[43, 120]),
   midi.NoteOffEvent(tick=94, channel=6, data=[43, 0]),
   midi.NoteOnEvent(tick=26, channel=6, data=[43, 120]),
   midi.NoteOffEvent(tick=94, channel=6, data=[43, 0]),
   midi.NoteOnEvent(tick=26, channel=6, data=[43, 120]),
   midi.NoteOffEvent(tick=94, channel=6, data=[43, 0]),
   midi.NoteOnEvent(tick=26, channel=6, data=[43, 120]),
   midi.NoteOffEvent(tick=94, channel=6, data=[43, 0]),
   midi.NoteOnEvent(tick=26, channel=6, data=[43, 120]),
   midi.NoteOffEvent(tick=94, channel=6, data=[43, 0]),
   midi.NoteOnEvent(tick=26, channel=6, data=[43, 120]),
   midi.NoteOffEvent(tick=94, channel=6, data=[43, 0]),
   midi.NoteOnEvent(tick=26, channel=6, data=[43, 120]),
   midi.NoteOffEvent(tick=94, channel=6, data=[43, 0]),
   midi.NoteOnEvent(tick=26, channel=6, data=[43, 120]),
   midi.NoteOffEvent(tick=94, channel=6, data=[43, 0]),
   midi.NoteOnEvent(tick=26, channel=6, data=[43, 120]),
   midi.NoteOffEvent(tick=94, channel=6, data=[43, 0]),
   midi.NoteOnEvent(tick=26, channel=6, data=[43, 120]),
   midi.NoteOffEvent(tick=94, channel=6, data=[43, 0]),
   midi.NoteOnEvent(tick=26, channel=6, data=[43, 120]),
   midi.NoteOffEvent(tick=94, channel=6, data=[43, 0]),
   midi.NoteOnEvent(tick=26, channel=6, data=[43, 120]),
   midi.NoteOffEvent(tick=94, channel=6, data=[43, 0]),
   midi.NoteOnEvent(tick=26, channel=6, data=[43, 120]),
   midi.NoteOffEvent(tick=94, channel=6, data=[43, 0]),
   midi.NoteOnEvent(tick=26, channel=6, data=[43, 120]),
   midi.NoteOffEvent(tick=94, channel=6, data=[43, 0]),
   midi.NoteOnEvent(tick=26, channel=6, data=[43, 120]),
   midi.NoteOffEvent(tick=94, channel=6, data=[43, 0]),
   midi.NoteOnEvent(tick=26, channel=6, data=[43, 120]),
   midi.NoteOffEvent(tick=94, channel=6, data=[43, 0]),
   midi.NoteOnEvent(tick=26, channel=6, data=[43, 120]),
   midi.NoteOffEvent(tick=94, channel=6, data=[43, 0]),
   midi.NoteOnEvent(tick=26, channel=6, data=[43, 120]),
   midi.NoteOffEvent(tick=94, channel=6, data=[43, 0]),
   midi.NoteOnEvent(tick=26, channel=6, data=[43, 120]),
   midi.NoteOffEvent(tick=94, channel=6, data=[43, 0]),
   midi.NoteOnEvent(tick=26, channel=6, data=[43, 120]),
   midi.NoteOffEvent(tick=94, channel=6, data=[43, 0]),
   midi.NoteOnEvent(tick=28826, channel=6, data=[48, 89]),
   midi.NoteOffEvent(tick=960, channel=6, data=[48, 0]),
   midi.NoteOnEvent(tick=960, channel=6, data=[43, 103]),
   midi.NoteOffEvent(tick=960, channel=6, data=[43, 0]),
   midi.NoteOnEvent(tick=27840, channel=6, data=[48, 104]),
   midi.NoteOffEvent(tick=960, channel=6, data=[48, 0]),
   midi.NoteOnEvent(tick=2880, channel=6, data=[48, 104]),
   midi.NoteOffEvent(tick=960, channel=6, data=[48, 0]),
   midi.NoteOnEvent(tick=12480, channel=6, data=[48, 104]),
   midi.NoteOffEvent(tick=960, channel=6, data=[48, 0]),
   midi.NoteOnEvent(tick=960, channel=6, data=[48, 104]),
   midi.NoteOffEvent(tick=960, channel=6, data=[48, 0]),
   midi.NoteOnEvent(tick=5760, channel=6, data=[48, 98]),
   midi.NoteOffEvent(tick=480, channel=6, data=[48, 0]),
   midi.NoteOnEvent(tick=0, channel=6, data=[48, 98]),
   midi.NoteOffEvent(tick=480, channel=6, data=[48, 0]),
   midi.NoteOnEvent(tick=0, channel=6, data=[43, 100]),
   midi.NoteOffEvent(tick=960, channel=6, data=[43, 0]),
   midi.NoteOnEvent(tick=5760, channel=6, data=[48, 98]),
   midi.NoteOffEvent(tick=480, channel=6, data=[48, 0]),
   midi.NoteOnEvent(tick=0, channel=6, data=[48, 98]),
   midi.NoteOffEvent(tick=480, channel=6, data=[48, 0]),
   midi.NoteOnEvent(tick=0, channel=6, data=[48, 120]),
   midi.NoteOffEvent(tick=480, channel=6, data=[48, 0]),
   midi.NoteOnEvent(tick=0, channel=6, data=[48, 113]),
   midi.NoteOffEvent(tick=480, channel=6, data=[48, 0]),
   midi.NoteOnEvent(tick=0, channel=6, data=[48, 113]),
   midi.NoteOffEvent(tick=480, channel=6, data=[48, 0]),
   midi.NoteOnEvent(tick=0, channel=6, data=[48, 113]),
   midi.NoteOffEvent(tick=480, channel=6, data=[48, 0]),
   midi.NoteOnEvent(tick=0, channel=6, data=[48, 120]),
   midi.NoteOffEvent(tick=480, channel=6, data=[48, 0]),
   midi.NoteOnEvent(tick=0, channel=6, data=[48, 113]),
   midi.NoteOffEvent(tick=480, channel=6, data=[48, 0]),
   midi.NoteOnEvent(tick=0, channel=6, data=[48, 113]),
   midi.NoteOffEvent(tick=480, channel=6, data=[48, 0]),
   midi.NoteOnEvent(tick=0, channel=6, data=[48, 113]),
   midi.NoteOffEvent(tick=480, channel=6, data=[48, 0]),
   midi.NoteOnEvent(tick=0, channel=6, data=[48, 120]),
   midi.NoteOffEvent(tick=480, channel=6, data=[48, 0]),
   midi.NoteOnEvent(tick=0, channel=6, data=[48, 113]),
   midi.NoteOffEvent(tick=480, channel=6, data=[48, 0]),
   midi.NoteOnEvent(tick=0, channel=6, data=[48, 113]),
   midi.NoteOffEvent(tick=480, channel=6, data=[48, 0]),
   midi.NoteOnEvent(tick=0, channel=6, data=[48, 113]),
   midi.NoteOffEvent(tick=480, channel=6, data=[48, 0]),
   midi.NoteOnEvent(tick=0, channel=6, data=[48, 120]),
   midi.NoteOffEvent(tick=480, channel=6, data=[48, 0]),
   midi.NoteOnEvent(tick=0, channel=6, data=[48, 113]),
   midi.NoteOffEvent(tick=480, channel=6, data=[48, 0]),
   midi.NoteOnEvent(tick=0, channel=6, data=[48, 113]),
   midi.NoteOffEvent(tick=480, channel=6, data=[48, 0]),
   midi.NoteOnEvent(tick=0, channel=6, data=[48, 113]),
   midi.NoteOffEvent(tick=480, channel=6, data=[48, 0]),
   midi.NoteOnEvent(tick=0, channel=6, data=[48, 120]),
   midi.NoteOffEvent(tick=960, channel=6, data=[48, 0]),
   midi.NoteOnEvent(tick=2880, channel=6, data=[43, 117]),
   midi.NoteOffEvent(tick=960, channel=6, data=[43, 0]),
   midi.NoteOnEvent(tick=20640, channel=6, data=[43, 61]),
   midi.NoteOffEvent(tick=480, channel=6, data=[43, 0]),
   midi.NoteOnEvent(tick=0, channel=6, data=[43, 61]),
   midi.NoteOffEvent(tick=480, channel=6, data=[43, 0]),
   midi.NoteOnEvent(tick=0, channel=6, data=[43, 61]),
   midi.NoteOffEvent(tick=480, channel=6, data=[43, 0]),
   midi.NoteOnEvent(tick=0, channel=6, data=[48, 70]),
   midi.NoteOffEvent(tick=960, channel=6, data=[48, 0]),
   midi.NoteOnEvent(tick=12960, channel=6, data=[43, 61]),
   midi.NoteOffEvent(tick=480, channel=6, data=[43, 0]),
   midi.NoteOnEvent(tick=0, channel=6, data=[43, 61]),
   midi.NoteOffEvent(tick=480, channel=6, data=[43, 0]),
   midi.NoteOnEvent(tick=0, channel=6, data=[43, 61]),
   midi.NoteOffEvent(tick=480, channel=6, data=[43, 0]),
   midi.NoteOnEvent(tick=0, channel=6, data=[48, 70]),
   midi.NoteOffEvent(tick=960, channel=6, data=[48, 0]),
   midi.NoteOnEvent(tick=45120, channel=6, data=[43, 120]),
   midi.NoteOffEvent(tick=2880, channel=6, data=[43, 0]),
   midi.NoteOnEvent(tick=0, channel=6, data=[43, 113]),
   midi.NoteOffEvent(tick=960, channel=6, data=[43, 0]),
   midi.NoteOnEvent(tick=0, channel=6, data=[48, 124]),
   midi.NoteOffEvent(tick=960, channel=6, data=[48, 0]),
   midi.NoteOnEvent(tick=960, channel=6, data=[43, 118]),
   midi.NoteOffEvent(tick=960, channel=6, data=[43, 0]),
   midi.NoteOnEvent(tick=960, channel=6, data=[48, 123]),
   midi.NoteOffEvent(tick=960, channel=6, data=[48, 0]),
   midi.NoteOnEvent(tick=960, channel=6, data=[48, 121]),
   midi.NoteOffEvent(tick=960, channel=6, data=[48, 0]),
   midi.NoteOnEvent(tick=960, channel=6, data=[43, 117]),
   midi.NoteOffEvent(tick=960, channel=6, data=[43, 0]),
   midi.NoteOnEvent(tick=960, channel=6, data=[43, 119]),
   midi.NoteOffEvent(tick=960, channel=6, data=[43, 0]),
   midi.NoteOnEvent(tick=960, channel=6, data=[43, 119]),
   midi.NoteOffEvent(tick=3840, channel=6, data=[43, 0]),
   midi.NoteOnEvent(tick=0, channel=6, data=[48, 121]),
   midi.NoteOffEvent(tick=960, channel=6, data=[48, 0]),
   midi.NoteOnEvent(tick=0, channel=6, data=[48, 114]),
   midi.NoteOffEvent(tick=960, channel=6, data=[48, 0]),
   midi.NoteOnEvent(tick=960, channel=6, data=[43, 110]),
   midi.NoteOffEvent(tick=960, channel=6, data=[43, 0]),
   midi.NoteOnEvent(tick=960, channel=6, data=[48, 115]),
   midi.NoteOffEvent(tick=960, channel=6, data=[48, 0]),
   midi.NoteOnEvent(tick=960, channel=6, data=[48, 114]),
   midi.NoteOffEvent(tick=960, channel=6, data=[48, 0]),
   midi.NoteOnEvent(tick=960, channel=6, data=[43, 111]),
   midi.NoteOffEvent(tick=960, channel=6, data=[43, 0]),
   midi.NoteOnEvent(tick=960, channel=6, data=[43, 112]),
   midi.NoteOffEvent(tick=960, channel=6, data=[43, 0]),
   midi.NoteOnEvent(tick=0, channel=6, data=[48, 125]),
   midi.NoteOffEvent(tick=960, channel=6, data=[48, 0]),
   midi.NoteOnEvent(tick=5280, channel=6, data=[43, 113]),
   midi.NoteOffEvent(tick=480, channel=6, data=[43, 0]),
   midi.NoteOnEvent(tick=0, channel=6, data=[43, 113]),
   midi.NoteOffEvent(tick=480, channel=6, data=[43, 0]),
   midi.NoteOnEvent(tick=0, channel=6, data=[43, 113]),
   midi.NoteOffEvent(tick=480, channel=6, data=[43, 0]),
   midi.NoteOnEvent(tick=0, channel=6, data=[48, 127]),
   midi.NoteOffEvent(tick=960, channel=6, data=[48, 0]),
   midi.NoteOnEvent(tick=5280, channel=6, data=[43, 113]),
   midi.NoteOffEvent(tick=480, channel=6, data=[43, 0]),
   midi.NoteOnEvent(tick=0, channel=6, data=[43, 113]),
   midi.NoteOffEvent(tick=480, channel=6, data=[43, 0]),
   midi.NoteOnEvent(tick=0, channel=6, data=[43, 113]),
   midi.NoteOffEvent(tick=480, channel=6, data=[43, 0]),
   midi.NoteOnEvent(tick=0, channel=6, data=[48, 127]),
   midi.NoteOffEvent(tick=960, channel=6, data=[48, 0]),
   midi.NoteOnEvent(tick=1440, channel=6, data=[43, 112]),
   midi.NoteOffEvent(tick=480, channel=6, data=[43, 0]),
   midi.NoteOnEvent(tick=0, channel=6, data=[43, 112]),
   midi.NoteOffEvent(tick=480, channel=6, data=[43, 0]),
   midi.NoteOnEvent(tick=0, channel=6, data=[43, 112]),
   midi.NoteOffEvent(tick=480, channel=6, data=[43, 0]),
   midi.NoteOnEvent(tick=0, channel=6, data=[48, 127]),
   midi.NoteOffEvent(tick=960, channel=6, data=[48, 0]),
   midi.NoteOnEvent(tick=1440, channel=6, data=[43, 112]),
   midi.NoteOffEvent(tick=480, channel=6, data=[43, 0]),
   midi.NoteOnEvent(tick=0, channel=6, data=[43, 112]),
   midi.NoteOffEvent(tick=480, channel=6, data=[43, 0]),
   midi.NoteOnEvent(tick=0, channel=6, data=[43, 112]),
   midi.NoteOffEvent(tick=480, channel=6, data=[43, 0]),
   midi.NoteOnEvent(tick=0, channel=6, data=[48, 127]),
   midi.NoteOffEvent(tick=480, channel=6, data=[48, 0]),
   midi.NoteOnEvent(tick=0, channel=6, data=[48, 122]),
   midi.NoteOffEvent(tick=480, channel=6, data=[48, 0]),
   midi.NoteOnEvent(tick=0, channel=6, data=[48, 121]),
   midi.NoteOffEvent(tick=480, channel=6, data=[48, 0]),
   midi.NoteOnEvent(tick=0, channel=6, data=[48, 120]),
   midi.NoteOffEvent(tick=480, channel=6, data=[48, 0]),
   midi.NoteOnEvent(tick=0, channel=6, data=[48, 126]),
   midi.NoteOffEvent(tick=960, channel=6, data=[48, 0]),
   midi.NoteOnEvent(tick=1440, channel=6, data=[48, 115]),
   midi.NoteOffEvent(tick=480, channel=6, data=[48, 0]),
   midi.NoteOnEvent(tick=0, channel=6, data=[48, 114]),
   midi.NoteOffEvent(tick=480, channel=6, data=[48, 0]),
   midi.NoteOnEvent(tick=0, channel=6, data=[48, 114]),
   midi.NoteOffEvent(tick=480, channel=6, data=[48, 0]),
   midi.NoteOnEvent(tick=0, channel=6, data=[48, 120]),
   midi.NoteOffEvent(tick=960, channel=6, data=[48, 0]),
   midi.NoteOnEvent(tick=1440, channel=6, data=[48, 113]),
   midi.NoteOffEvent(tick=480, channel=6, data=[48, 0]),
   midi.NoteOnEvent(tick=0, channel=6, data=[48, 113]),
   midi.NoteOffEvent(tick=480, channel=6, data=[48, 0]),
   midi.NoteOnEvent(tick=0, channel=6, data=[48, 113]),
   midi.NoteOffEvent(tick=480, channel=6, data=[48, 0]),
   midi.NoteOnEvent(tick=0, channel=6, data=[48, 120]),
   midi.NoteOffEvent(tick=960, channel=6, data=[48, 0]),
   midi.NoteOnEvent(tick=1440, channel=6, data=[48, 113]),
   midi.NoteOffEvent(tick=480, channel=6, data=[48, 0]),
   midi.NoteOnEvent(tick=0, channel=6, data=[48, 113]),
   midi.NoteOffEvent(tick=480, channel=6, data=[48, 0]),
   midi.NoteOnEvent(tick=0, channel=6, data=[48, 113]),
   midi.NoteOffEvent(tick=480, channel=6, data=[48, 0]),
   midi.NoteOnEvent(tick=0, channel=6, data=[48, 120]),
   midi.NoteOffEvent(tick=960, channel=6, data=[48, 0]),
   midi.NoteOnEvent(tick=16800, channel=6, data=[48, 113]),
   midi.NoteOffEvent(tick=480, channel=6, data=[48, 0]),
   midi.NoteOnEvent(tick=0, channel=6, data=[48, 113]),
   midi.NoteOffEvent(tick=480, channel=6, data=[48, 0]),
   midi.NoteOnEvent(tick=0, channel=6, data=[48, 113]),
   midi.NoteOffEvent(tick=480, channel=6, data=[48, 0]),
   midi.NoteOnEvent(tick=0, channel=6, data=[48, 120]),
   midi.NoteOffEvent(tick=480, channel=6, data=[48, 0]),
   midi.NoteOnEvent(tick=0, channel=6, data=[48, 113]),
   midi.NoteOffEvent(tick=480, channel=6, data=[48, 0]),
   midi.NoteOnEvent(tick=0, channel=6, data=[48, 113]),
   midi.NoteOffEvent(tick=480, channel=6, data=[48, 0]),
   midi.NoteOnEvent(tick=0, channel=6, data=[48, 113]),
   midi.NoteOffEvent(tick=480, channel=6, data=[48, 0]),
   midi.NoteOnEvent(tick=0, channel=6, data=[48, 120]),
   midi.NoteOffEvent(tick=480, channel=6, data=[48, 0]),
   midi.NoteOnEvent(tick=0, channel=6, data=[48, 113]),
   midi.NoteOffEvent(tick=480, channel=6, data=[48, 0]),
   midi.NoteOnEvent(tick=0, channel=6, data=[48, 113]),
   midi.NoteOffEvent(tick=480, channel=6, data=[48, 0]),
   midi.NoteOnEvent(tick=0, channel=6, data=[48, 113]),
   midi.NoteOffEvent(tick=480, channel=6, data=[48, 0]),
   midi.NoteOnEvent(tick=0, channel=6, data=[48, 120]),
   midi.NoteOffEvent(tick=480, channel=6, data=[48, 0]),
   midi.NoteOnEvent(tick=0, channel=6, data=[48, 113]),
   midi.NoteOffEvent(tick=480, channel=6, data=[48, 0]),
   midi.NoteOnEvent(tick=0, channel=6, data=[48, 113]),
   midi.NoteOffEvent(tick=480, channel=6, data=[48, 0]),
   midi.NoteOnEvent(tick=0, channel=6, data=[48, 113]),
   midi.NoteOffEvent(tick=480, channel=6, data=[48, 0]),
   midi.NoteOnEvent(tick=0, channel=6, data=[48, 120]),
   midi.NoteOffEvent(tick=480, channel=6, data=[48, 0]),
   midi.NoteOnEvent(tick=0, channel=6, data=[48, 113]),
   midi.NoteOffEvent(tick=480, channel=6, data=[48, 0]),
   midi.NoteOnEvent(tick=0, channel=6, data=[48, 113]),
   midi.NoteOffEvent(tick=480, channel=6, data=[48, 0]),
   midi.NoteOnEvent(tick=0, channel=6, data=[48, 113]),
   midi.NoteOffEvent(tick=480, channel=6, data=[48, 0]),
   midi.NoteOnEvent(tick=0, channel=6, data=[48, 120]),
   midi.NoteOffEvent(tick=960, channel=6, data=[48, 0]),
   midi.NoteOnEvent(tick=1440, channel=6, data=[48, 113]),
   midi.NoteOffEvent(tick=480, channel=6, data=[48, 0]),
   midi.NoteOnEvent(tick=0, channel=6, data=[48, 113]),
   midi.NoteOffEvent(tick=480, channel=6, data=[48, 0]),
   midi.NoteOnEvent(tick=0, channel=6, data=[48, 113]),
   midi.NoteOffEvent(tick=480, channel=6, data=[48, 0]),
   midi.NoteOnEvent(tick=0, channel=6, data=[48, 120]),
   midi.NoteOffEvent(tick=960, channel=6, data=[48, 0]),
   midi.NoteOnEvent(tick=2880, channel=6, data=[43, 117]),
   midi.NoteOffEvent(tick=960, channel=6, data=[43, 0]),
   midi.NoteOnEvent(tick=6720, channel=6, data=[43, 120]),
   midi.NoteOffEvent(tick=960, channel=6, data=[43, 0]),
   midi.NoteOnEvent(tick=23040, channel=6, data=[43, 113]),
   midi.NoteOffEvent(tick=960, channel=6, data=[43, 0]),
   midi.NoteOnEvent(tick=0, channel=6, data=[43, 120]),
   midi.NoteOffEvent(tick=960, channel=6, data=[43, 0]),
   midi.NoteOnEvent(tick=0, channel=6, data=[43, 113]),
   midi.NoteOffEvent(tick=960, channel=6, data=[43, 0]),
   midi.NoteOnEvent(tick=0, channel=6, data=[43, 120]),
   midi.NoteOffEvent(tick=960, channel=6, data=[43, 0]),
   midi.NoteOnEvent(tick=0, channel=6, data=[43, 113]),
   midi.NoteOffEvent(tick=960, channel=6, data=[43, 0]),
   midi.NoteOnEvent(tick=0, channel=6, data=[43, 120]),
   midi.NoteOffEvent(tick=960, channel=6, data=[43, 0]),
   midi.NoteOnEvent(tick=0, channel=6, data=[48, 122]),
   midi.NoteOffEvent(tick=960, channel=6, data=[48, 0]),
   midi.NoteOnEvent(tick=0, channel=6, data=[48, 126]),
   midi.NoteOffEvent(tick=960, channel=6, data=[48, 0]),
   midi.NoteOnEvent(tick=0, channel=6, data=[48, 117]),
   midi.NoteOffEvent(tick=960, channel=6, data=[48, 0]),
   midi.NoteOnEvent(tick=0, channel=6, data=[48, 122]),
   midi.NoteOffEvent(tick=960, channel=6, data=[48, 0]),
   midi.NoteOnEvent(tick=0, channel=6, data=[43, 108]),
   midi.NoteOffEvent(tick=960, channel=6, data=[43, 0]),
   midi.NoteOnEvent(tick=0, channel=6, data=[43, 116]),
   midi.NoteOffEvent(tick=960, channel=6, data=[43, 0]),
   midi.NoteOnEvent(tick=0, channel=6, data=[43, 110]),
   midi.NoteOffEvent(tick=960, channel=6, data=[43, 0]),
   midi.NoteOnEvent(tick=0, channel=6, data=[43, 118]),
   midi.NoteOffEvent(tick=960, channel=6, data=[43, 0]),
   midi.NoteOnEvent(tick=0, channel=6, data=[43, 112]),
   midi.NoteOffEvent(tick=960, channel=6, data=[43, 0]),
   midi.NoteOnEvent(tick=0, channel=6, data=[48, 127]),
   midi.NoteOffEvent(tick=480, channel=6, data=[48, 0]),
   midi.NoteOnEvent(tick=0, channel=6, data=[48, 120]),
   midi.NoteOffEvent(tick=480, channel=6, data=[48, 0]),
   midi.NoteOnEvent(tick=0, channel=6, data=[48, 119]),
   midi.NoteOffEvent(tick=480, channel=6, data=[48, 0]),
   midi.NoteOnEvent(tick=0, channel=6, data=[48, 118]),
   midi.NoteOffEvent(tick=480, channel=6, data=[48, 0]),
   midi.NoteOnEvent(tick=0, channel=6, data=[48, 124]),
   midi.NoteOffEvent(tick=960, channel=6, data=[48, 0]),
   midi.NoteOnEvent(tick=960, channel=6, data=[48, 121]),
   midi.NoteOffEvent(tick=480, channel=6, data=[48, 0]),
   midi.NoteOnEvent(tick=0, channel=6, data=[48, 114]),
   midi.NoteOffEvent(tick=480, channel=6, data=[48, 0]),
   midi.NoteOnEvent(tick=0, channel=6, data=[48, 114]),
   midi.NoteOffEvent(tick=480, channel=6, data=[48, 0]),
   midi.NoteOnEvent(tick=0, channel=6, data=[48, 113]),
   midi.NoteOffEvent(tick=480, channel=6, data=[48, 0]),
   midi.NoteOnEvent(tick=0, channel=6, data=[48, 120]),
   midi.NoteOffEvent(tick=960, channel=6, data=[48, 0]),
   midi.NoteOnEvent(tick=960, channel=6, data=[48, 120]),
   midi.NoteOffEvent(tick=480, channel=6, data=[48, 0]),
   midi.NoteOnEvent(tick=0, channel=6, data=[48, 113]),
   midi.NoteOffEvent(tick=480, channel=6, data=[48, 0]),
   midi.NoteOnEvent(tick=0, channel=6, data=[48, 113]),
   midi.NoteOffEvent(tick=480, channel=6, data=[48, 0]),
   midi.NoteOnEvent(tick=0, channel=6, data=[48, 113]),
   midi.NoteOffEvent(tick=480, channel=6, data=[48, 0]),
   midi.NoteOnEvent(tick=0, channel=6, data=[48, 120]),
   midi.NoteOffEvent(tick=960, channel=6, data=[48, 0]),
   midi.NoteOnEvent(tick=960, channel=6, data=[48, 120]),
   midi.NoteOffEvent(tick=480, channel=6, data=[48, 0]),
   midi.NoteOnEvent(tick=0, channel=6, data=[48, 113]),
   midi.NoteOffEvent(tick=480, channel=6, data=[48, 0]),
   midi.NoteOnEvent(tick=0, channel=6, data=[48, 113]),
   midi.NoteOffEvent(tick=480, channel=6, data=[48, 0]),
   midi.NoteOnEvent(tick=0, channel=6, data=[48, 113]),
   midi.NoteOffEvent(tick=480, channel=6, data=[48, 0]),
   midi.NoteOnEvent(tick=0, channel=6, data=[48, 120]),
   midi.NoteOffEvent(tick=960, channel=6, data=[48, 0]),
   midi.NoteOnEvent(tick=960, channel=6, data=[43, 113]),
   midi.NoteOffEvent(tick=480, channel=6, data=[43, 0]),
   midi.NoteOnEvent(tick=0, channel=6, data=[43, 108]),
   midi.NoteOffEvent(tick=480, channel=6, data=[43, 0]),
   midi.NoteOnEvent(tick=0, channel=6, data=[43, 109]),
   midi.NoteOffEvent(tick=480, channel=6, data=[43, 0]),
   midi.NoteOnEvent(tick=0, channel=6, data=[43, 110]),
   midi.NoteOffEvent(tick=480, channel=6, data=[43, 0]),
   midi.NoteOnEvent(tick=0, channel=6, data=[43, 117]),
   midi.NoteOffEvent(tick=960, channel=6, data=[43, 0]),
   midi.NoteOnEvent(tick=960, channel=6, data=[48, 127]),
   midi.NoteOffEvent(tick=480, channel=6, data=[48, 0]),
   midi.NoteOnEvent(tick=1440, channel=6, data=[48, 124]),
   midi.NoteOffEvent(tick=480, channel=6, data=[48, 0]),
   midi.NoteOnEvent(tick=1440, channel=6, data=[48, 121]),
   midi.NoteOffEvent(tick=480, channel=6, data=[48, 0]),
   midi.NoteOnEvent(tick=1440, channel=6, data=[48, 120]),
   midi.NoteOffEvent(tick=480, channel=6, data=[48, 0]),
   midi.NoteOnEvent(tick=1440, channel=6, data=[43, 117]),
   midi.NoteOffEvent(tick=480, channel=6, data=[43, 0]),
   midi.NoteOnEvent(tick=1440, channel=6, data=[43, 119]),
   midi.NoteOffEvent(tick=480, channel=6, data=[43, 0]),
   midi.NoteOnEvent(tick=1440, channel=6, data=[48, 123]),
   midi.NoteOffEvent(tick=480, channel=6, data=[48, 0]),
   midi.NoteOnEvent(tick=1440, channel=6, data=[48, 121]),
   midi.NoteOffEvent(tick=960, channel=6, data=[48, 0]),
   midi.NoteOnEvent(tick=0, channel=6, data=[48, 114]),
   midi.NoteOffEvent(tick=960, channel=6, data=[48, 0]),
   midi.NoteOnEvent(tick=0, channel=6, data=[48, 120]),
   midi.NoteOffEvent(tick=960, channel=6, data=[48, 0]),
   midi.NoteOnEvent(tick=960, channel=6, data=[48, 120]),
   midi.NoteOffEvent(tick=960, channel=6, data=[48, 0]),
   midi.NoteOnEvent(tick=0, channel=6, data=[48, 113]),
   midi.NoteOffEvent(tick=960, channel=6, data=[48, 0]),
   midi.NoteOnEvent(tick=0, channel=6, data=[48, 120]),
   midi.NoteOffEvent(tick=960, channel=6, data=[48, 0]),
   midi.NoteOnEvent(tick=960, channel=6, data=[48, 120]),
   midi.NoteOffEvent(tick=960, channel=6, data=[48, 0]),
   midi.NoteOnEvent(tick=0, channel=6, data=[48, 113]),
   midi.NoteOffEvent(tick=960, channel=6, data=[48, 0]),
   midi.NoteOnEvent(tick=0, channel=6, data=[48, 120]),
   midi.NoteOffEvent(tick=960, channel=6, data=[48, 0]),
   midi.NoteOnEvent(tick=960, channel=6, data=[43, 116]),
   midi.NoteOffEvent(tick=960, channel=6, data=[43, 0]),
   midi.NoteOnEvent(tick=0, channel=6, data=[43, 110]),
   midi.NoteOffEvent(tick=960, channel=6, data=[43, 0]),
   midi.NoteOnEvent(tick=0, channel=6, data=[43, 118]),
   midi.NoteOffEvent(tick=960, channel=6, data=[43, 0]),
   midi.NoteOnEvent(tick=4800, channel=6, data=[43, 120]),
   midi.NoteOffEvent(tick=960, channel=6, data=[43, 0]),
   midi.NoteOnEvent(tick=0, channel=6, data=[43, 113]),
   midi.NoteOffEvent(tick=960, channel=6, data=[43, 0]),
   midi.NoteOnEvent(tick=0, channel=6, data=[43, 120]),
   midi.NoteOffEvent(tick=960, channel=6, data=[43, 0]),
   midi.NoteOnEvent(tick=8640, channel=6, data=[48, 120]),
   midi.NoteOffEvent(tick=960, channel=6, data=[48, 0]),
   midi.NoteOnEvent(tick=0, channel=6, data=[48, 113]),
   midi.NoteOffEvent(tick=960, channel=6, data=[48, 0]),
   midi.NoteOnEvent(tick=1920, channel=6, data=[48, 120]),
   midi.NoteOffEvent(tick=960, channel=6, data=[48, 0]),
   midi.NoteOnEvent(tick=0, channel=6, data=[48, 113]),
   midi.NoteOffEvent(tick=960, channel=6, data=[48, 0]),
   midi.NoteOnEvent(tick=960, channel=6, data=[43, 110]),
   midi.NoteOffEvent(tick=960, channel=6, data=[43, 0]),
   midi.NoteOnEvent(tick=960, channel=6, data=[43, 112]),
   midi.NoteOffEvent(tick=960, channel=6, data=[43, 0]),
   midi.NoteOnEvent(tick=3840, channel=6, data=[48, 121]),
   midi.NoteOffEvent(tick=960, channel=6, data=[48, 0]),
   midi.NoteOnEvent(tick=0, channel=6, data=[48, 113]),
   midi.NoteOffEvent(tick=960, channel=6, data=[48, 0]),
   midi.NoteOnEvent(tick=0, channel=6, data=[48, 120]),
   midi.NoteOffEvent(tick=960, channel=6, data=[48, 0]),
   midi.NoteOnEvent(tick=0, channel=6, data=[48, 113]),
   midi.NoteOffEvent(tick=960, channel=6, data=[48, 0]),
   midi.NoteOnEvent(tick=0, channel=6, data=[48, 120]),
   midi.NoteOffEvent(tick=960, channel=6, data=[48, 0]),
   midi.NoteOnEvent(tick=0, channel=6, data=[48, 113]),
   midi.NoteOffEvent(tick=960, channel=6, data=[48, 0]),
   midi.NoteOnEvent(tick=0, channel=6, data=[48, 120]),
   midi.NoteOffEvent(tick=960, channel=6, data=[48, 0]),
   midi.NoteOnEvent(tick=0, channel=6, data=[48, 113]),
   midi.NoteOffEvent(tick=960, channel=6, data=[48, 0]),
   midi.NoteOnEvent(tick=960, channel=6, data=[43, 109]),
   midi.NoteOffEvent(tick=960, channel=6, data=[43, 0]),
   midi.NoteOnEvent(tick=960, channel=6, data=[43, 111]),
   midi.NoteOffEvent(tick=960, channel=6, data=[43, 0]),
   midi.NoteOnEvent(tick=0, channel=6, data=[48, 125]),
   midi.NoteOffEvent(tick=960, channel=6, data=[48, 0]),
   midi.NoteOnEvent(tick=9120, channel=6, data=[43, 113]),
   midi.NoteOffEvent(tick=480, channel=6, data=[43, 0]),
   midi.NoteOnEvent(tick=0, channel=6, data=[43, 113]),
   midi.NoteOffEvent(tick=480, channel=6, data=[43, 0]),
   midi.NoteOnEvent(tick=0, channel=6, data=[43, 113]),
   midi.NoteOffEvent(tick=480, channel=6, data=[43, 0]),
   midi.NoteOnEvent(tick=0, channel=6, data=[48, 127]),
   midi.NoteOffEvent(tick=960, channel=6, data=[48, 0]),
   midi.NoteOnEvent(tick=5280, channel=6, data=[43, 113]),
   midi.NoteOffEvent(tick=480, channel=6, data=[43, 0]),
   midi.NoteOnEvent(tick=0, channel=6, data=[43, 113]),
   midi.NoteOffEvent(tick=480, channel=6, data=[43, 0]),
   midi.NoteOnEvent(tick=0, channel=6, data=[43, 113]),
   midi.NoteOffEvent(tick=480, channel=6, data=[43, 0]),
   midi.NoteOnEvent(tick=0, channel=6, data=[43, 120]),
   midi.NoteOffEvent(tick=94, channel=6, data=[43, 0]),
   midi.NoteOnEvent(tick=26, channel=6, data=[43, 120]),
   midi.NoteOffEvent(tick=94, channel=6, data=[43, 0]),
   midi.NoteOnEvent(tick=26, channel=6, data=[43, 120]),
   midi.NoteOffEvent(tick=94, channel=6, data=[43, 0]),
   midi.NoteOnEvent(tick=26, channel=6, data=[43, 120]),
   midi.NoteOffEvent(tick=94, channel=6, data=[43, 0]),
   midi.NoteOnEvent(tick=26, channel=6, data=[43, 120]),
   midi.NoteOffEvent(tick=94, channel=6, data=[43, 0]),
   midi.NoteOnEvent(tick=26, channel=6, data=[43, 120]),
   midi.NoteOffEvent(tick=94, channel=6, data=[43, 0]),
   midi.NoteOnEvent(tick=26, channel=6, data=[43, 120]),
   midi.NoteOffEvent(tick=94, channel=6, data=[43, 0]),
   midi.NoteOnEvent(tick=26, channel=6, data=[43, 120]),
   midi.NoteOffEvent(tick=94, channel=6, data=[43, 0]),
   midi.NoteOnEvent(tick=26, channel=6, data=[43, 120]),
   midi.NoteOffEvent(tick=94, channel=6, data=[43, 0]),
   midi.NoteOnEvent(tick=26, channel=6, data=[43, 120]),
   midi.NoteOffEvent(tick=94, channel=6, data=[43, 0]),
   midi.NoteOnEvent(tick=26, channel=6, data=[43, 120]),
   midi.NoteOffEvent(tick=94, channel=6, data=[43, 0]),
   midi.NoteOnEvent(tick=26, channel=6, data=[43, 120]),
   midi.NoteOffEvent(tick=94, channel=6, data=[43, 0]),
   midi.NoteOnEvent(tick=26, channel=6, data=[43, 120]),
   midi.NoteOffEvent(tick=94, channel=6, data=[43, 0]),
   midi.NoteOnEvent(tick=26, channel=6, data=[43, 120]),
   midi.NoteOffEvent(tick=94, channel=6, data=[43, 0]),
   midi.NoteOnEvent(tick=26, channel=6, data=[43, 120]),
   midi.NoteOffEvent(tick=94, channel=6, data=[43, 0]),
   midi.NoteOnEvent(tick=26, channel=6, data=[43, 120]),
   midi.NoteOffEvent(tick=94, channel=6, data=[43, 0]),
   midi.NoteOnEvent(tick=26, channel=6, data=[43, 120]),
   midi.NoteOffEvent(tick=960, channel=6, data=[43, 0]),
   midi.NoteOnEvent(tick=1440, channel=6, data=[43, 113]),
   midi.NoteOffEvent(tick=480, channel=6, data=[43, 0]),
   midi.NoteOnEvent(tick=0, channel=6, data=[43, 113]),
   midi.NoteOffEvent(tick=480, channel=6, data=[43, 0]),
   midi.NoteOnEvent(tick=0, channel=6, data=[43, 113]),
   midi.NoteOffEvent(tick=480, channel=6, data=[43, 0]),
   midi.NoteOnEvent(tick=0, channel=6, data=[43, 120]),
   midi.NoteOffEvent(tick=94, channel=6, data=[43, 0]),
   midi.NoteOnEvent(tick=26, channel=6, data=[43, 120]),
   midi.NoteOffEvent(tick=94, channel=6, data=[43, 0]),
   midi.NoteOnEvent(tick=26, channel=6, data=[43, 120]),
   midi.NoteOffEvent(tick=94, channel=6, data=[43, 0]),
   midi.NoteOnEvent(tick=26, channel=6, data=[43, 120]),
   midi.NoteOffEvent(tick=94, channel=6, data=[43, 0]),
   midi.NoteOnEvent(tick=26, channel=6, data=[43, 120]),
   midi.NoteOffEvent(tick=94, channel=6, data=[43, 0]),
   midi.NoteOnEvent(tick=26, channel=6, data=[43, 120]),
   midi.NoteOffEvent(tick=94, channel=6, data=[43, 0]),
   midi.NoteOnEvent(tick=26, channel=6, data=[43, 120]),
   midi.NoteOffEvent(tick=94, channel=6, data=[43, 0]),
   midi.NoteOnEvent(tick=26, channel=6, data=[43, 120]),
   midi.NoteOffEvent(tick=94, channel=6, data=[43, 0]),
   midi.NoteOnEvent(tick=26, channel=6, data=[43, 120]),
   midi.NoteOffEvent(tick=94, channel=6, data=[43, 0]),
   midi.NoteOnEvent(tick=26, channel=6, data=[43, 120]),
   midi.NoteOffEvent(tick=94, channel=6, data=[43, 0]),
   midi.NoteOnEvent(tick=26, channel=6, data=[43, 120]),
   midi.NoteOffEvent(tick=94, channel=6, data=[43, 0]),
   midi.NoteOnEvent(tick=26, channel=6, data=[43, 120]),
   midi.NoteOffEvent(tick=94, channel=6, data=[43, 0]),
   midi.NoteOnEvent(tick=26, channel=6, data=[43, 120]),
   midi.NoteOffEvent(tick=94, channel=6, data=[43, 0]),
   midi.NoteOnEvent(tick=26, channel=6, data=[43, 120]),
   midi.NoteOffEvent(tick=94, channel=6, data=[43, 0]),
   midi.NoteOnEvent(tick=26, channel=6, data=[43, 120]),
   midi.NoteOffEvent(tick=94, channel=6, data=[43, 0]),
   midi.NoteOnEvent(tick=26, channel=6, data=[43, 120]),
   midi.NoteOffEvent(tick=94, channel=6, data=[43, 0]),
   midi.NoteOnEvent(tick=26, channel=6, data=[43, 120]),
   midi.NoteOffEvent(tick=94, channel=6, data=[43, 0]),
   midi.NoteOnEvent(tick=26, channel=6, data=[43, 120]),
   midi.NoteOffEvent(tick=94, channel=6, data=[43, 0]),
   midi.NoteOnEvent(tick=26, channel=6, data=[43, 120]),
   midi.NoteOffEvent(tick=94, channel=6, data=[43, 0]),
   midi.NoteOnEvent(tick=26, channel=6, data=[43, 120]),
   midi.NoteOffEvent(tick=94, channel=6, data=[43, 0]),
   midi.NoteOnEvent(tick=26, channel=6, data=[43, 120]),
   midi.NoteOffEvent(tick=94, channel=6, data=[43, 0]),
   midi.NoteOnEvent(tick=26, channel=6, data=[43, 120]),
   midi.NoteOffEvent(tick=94, channel=6, data=[43, 0]),
   midi.NoteOnEvent(tick=26, channel=6, data=[43, 120]),
   midi.NoteOffEvent(tick=94, channel=6, data=[43, 0]),
   midi.NoteOnEvent(tick=26, channel=6, data=[43, 120]),
   midi.NoteOffEvent(tick=94, channel=6, data=[43, 0]),
   midi.NoteOnEvent(tick=26, channel=6, data=[43, 120]),
   midi.NoteOffEvent(tick=94, channel=6, data=[43, 0]),
   midi.NoteOnEvent(tick=26, channel=6, data=[43, 120]),
   midi.NoteOffEvent(tick=94, channel=6, data=[43, 0]),
   midi.NoteOnEvent(tick=26, channel=6, data=[43, 120]),
   midi.NoteOffEvent(tick=94, channel=6, data=[43, 0]),
   midi.NoteOnEvent(tick=26, channel=6, data=[43, 120]),
   midi.NoteOffEvent(tick=94, channel=6, data=[43, 0]),
   midi.NoteOnEvent(tick=26, channel=6, data=[43, 120]),
   midi.NoteOffEvent(tick=94, channel=6, data=[43, 0]),
   midi.NoteOnEvent(tick=26, channel=6, data=[43, 120]),
   midi.NoteOffEvent(tick=94, channel=6, data=[43, 0]),
   midi.NoteOnEvent(tick=26, channel=6, data=[43, 120]),
   midi.NoteOffEvent(tick=94, channel=6, data=[43, 0]),
   midi.NoteOnEvent(tick=26, channel=6, data=[43, 120]),
   midi.NoteOffEvent(tick=94, channel=6, data=[43, 0]),
   midi.NoteOnEvent(tick=26, channel=6, data=[43, 120]),
   midi.NoteOffEvent(tick=94, channel=6, data=[43, 0]),
   midi.NoteOnEvent(tick=26, channel=6, data=[43, 120]),
   midi.NoteOffEvent(tick=94, channel=6, data=[43, 0]),
   midi.NoteOnEvent(tick=26, channel=6, data=[43, 120]),
   midi.NoteOffEvent(tick=94, channel=6, data=[43, 0]),
   midi.NoteOnEvent(tick=26, channel=6, data=[43, 120]),
   midi.NoteOffEvent(tick=94, channel=6, data=[43, 0]),
   midi.NoteOnEvent(tick=26, channel=6, data=[43, 120]),
   midi.NoteOffEvent(tick=94, channel=6, data=[43, 0]),
   midi.NoteOnEvent(tick=26, channel=6, data=[43, 120]),
   midi.NoteOffEvent(tick=94, channel=6, data=[43, 0]),
   midi.NoteOnEvent(tick=26, channel=6, data=[43, 120]),
   midi.NoteOffEvent(tick=94, channel=6, data=[43, 0]),
   midi.NoteOnEvent(tick=26, channel=6, data=[43, 120]),
   midi.NoteOffEvent(tick=94, channel=6, data=[43, 0]),
   midi.NoteOnEvent(tick=26, channel=6, data=[43, 120]),
   midi.NoteOffEvent(tick=94, channel=6, data=[43, 0]),
   midi.NoteOnEvent(tick=26, channel=6, data=[43, 120]),
   midi.NoteOffEvent(tick=94, channel=6, data=[43, 0]),
   midi.NoteOnEvent(tick=26, channel=6, data=[43, 120]),
   midi.NoteOffEvent(tick=94, channel=6, data=[43, 0]),
   midi.NoteOnEvent(tick=26, channel=6, data=[43, 120]),
   midi.NoteOffEvent(tick=94, channel=6, data=[43, 0]),
   midi.NoteOnEvent(tick=26, channel=6, data=[43, 120]),
   midi.NoteOffEvent(tick=94, channel=6, data=[43, 0]),
   midi.NoteOnEvent(tick=26, channel=6, data=[43, 120]),
   midi.NoteOffEvent(tick=94, channel=6, data=[43, 0]),
   midi.NoteOnEvent(tick=26, channel=6, data=[43, 120]),
   midi.NoteOffEvent(tick=94, channel=6, data=[43, 0]),
   midi.NoteOnEvent(tick=26, channel=6, data=[43, 120]),
   midi.NoteOffEvent(tick=94, channel=6, data=[43, 0]),
   midi.NoteOnEvent(tick=26, channel=6, data=[43, 120]),
   midi.NoteOffEvent(tick=960, channel=6, data=[43, 0]),
   midi.NoteOnEvent(tick=16800, channel=6, data=[43, 113]),
   midi.NoteOffEvent(tick=480, channel=6, data=[43, 0]),
   midi.NoteOnEvent(tick=0, channel=6, data=[43, 113]),
   midi.NoteOffEvent(tick=480, channel=6, data=[43, 0]),
   midi.NoteOnEvent(tick=0, channel=6, data=[43, 113]),
   midi.NoteOffEvent(tick=480, channel=6, data=[43, 0]),
   midi.NoteOnEvent(tick=0, channel=6, data=[48, 127]),
   midi.NoteOffEvent(tick=960, channel=6, data=[48, 0]),
   midi.NoteOnEvent(tick=1440, channel=6, data=[43, 112]),
   midi.NoteOffEvent(tick=480, channel=6, data=[43, 0]),
   midi.NoteOnEvent(tick=0, channel=6, data=[43, 112]),
   midi.NoteOffEvent(tick=480, channel=6, data=[43, 0]),
   midi.NoteOnEvent(tick=0, channel=6, data=[43, 112]),
   midi.NoteOffEvent(tick=480, channel=6, data=[43, 0]),
   midi.NoteOnEvent(tick=0, channel=6, data=[48, 127]),
   midi.NoteOffEvent(tick=960, channel=6, data=[48, 0]),
   midi.NoteOnEvent(tick=1440, channel=6, data=[43, 112]),
   midi.NoteOffEvent(tick=480, channel=6, data=[43, 0]),
   midi.NoteOnEvent(tick=0, channel=6, data=[43, 112]),
   midi.NoteOffEvent(tick=480, channel=6, data=[43, 0]),
   midi.NoteOnEvent(tick=0, channel=6, data=[43, 112]),
   midi.NoteOffEvent(tick=480, channel=6, data=[43, 0]),
   midi.NoteOnEvent(tick=0, channel=6, data=[48, 127]),
   midi.NoteOffEvent(tick=960, channel=6, data=[48, 0]),
   midi.NoteOnEvent(tick=0, channel=6, data=[43, 111]),
   midi.NoteOffEvent(tick=960, channel=6, data=[43, 0]),
   midi.NoteOnEvent(tick=0, channel=6, data=[48, 127]),
   midi.NoteOffEvent(tick=960, channel=6, data=[48, 0]),
   midi.NoteOnEvent(tick=0, channel=6, data=[43, 110]),
   midi.NoteOffEvent(tick=960, channel=6, data=[43, 0]),
   midi.NoteOnEvent(tick=0, channel=6, data=[48, 127]),
   midi.NoteOffEvent(tick=960, channel=6, data=[48, 0]),
   midi.NoteOnEvent(tick=0, channel=6, data=[43, 109]),
   midi.NoteOffEvent(tick=960, channel=6, data=[43, 0]),
   midi.NoteOnEvent(tick=0, channel=6, data=[48, 126]),
   midi.NoteOffEvent(tick=960, channel=6, data=[48, 0]),
   midi.NoteOnEvent(tick=0, channel=6, data=[43, 109]),
   midi.NoteOffEvent(tick=960, channel=6, data=[43, 0]),
   midi.NoteOnEvent(tick=0, channel=6, data=[48, 125]),
   midi.NoteOffEvent(tick=960, channel=6, data=[48, 0]),
   midi.NoteOnEvent(tick=960, channel=6, data=[43, 117]),
   midi.NoteOffEvent(tick=960, channel=6, data=[43, 0]),
   midi.NoteOnEvent(tick=960, channel=6, data=[48, 123]),
   midi.NoteOffEvent(tick=960, channel=6, data=[48, 0]),
   midi.EndOfTrackEvent(tick=1, data=[])]),
 midi.Track(\
  [midi.ProgramChangeEvent(tick=0, channel=7, data=[48]),
   midi.ControlChangeEvent(tick=0, channel=7, data=[121, 0]),
   midi.ControlChangeEvent(tick=0, channel=7, data=[64, 0]),
   midi.ControlChangeEvent(tick=0, channel=7, data=[91, 48]),
   midi.ControlChangeEvent(tick=0, channel=7, data=[10, 32]),
   midi.ControlChangeEvent(tick=0, channel=7, data=[7, 100]),
   midi.TrackNameEvent(tick=0, text='Violin I', data=[86, 105, 111, 108, 105, 110, 32, 73]),
   midi.NoteOnEvent(tick=480, channel=7, data=[67, 113]),
   midi.NoteOffEvent(tick=480, channel=7, data=[67, 0]),
   midi.NoteOnEvent(tick=0, channel=7, data=[67, 113]),
   midi.NoteOffEvent(tick=480, channel=7, data=[67, 0]),
   midi.NoteOnEvent(tick=0, channel=7, data=[67, 113]),
   midi.NoteOffEvent(tick=480, channel=7, data=[67, 0]),
   midi.NoteOnEvent(tick=0, channel=7, data=[63, 110]),
   midi.NoteOffEvent(tick=2880, channel=7, data=[63, 0]),
   midi.NoteOnEvent(tick=480, channel=7, data=[65, 112]),
   midi.NoteOffEvent(tick=480, channel=7, data=[65, 0]),
   midi.NoteOnEvent(tick=0, channel=7, data=[65, 112]),
   midi.NoteOffEvent(tick=480, channel=7, data=[65, 0]),
   midi.NoteOnEvent(tick=0, channel=7, data=[65, 113]),
   midi.NoteOffEvent(tick=480, channel=7, data=[65, 0]),
   midi.NoteOnEvent(tick=0, channel=7, data=[62, 110]),
   midi.NoteOffEvent(tick=2880, channel=7, data=[62, 0]),
   midi.NoteOnEvent(tick=4320, channel=7, data=[75, 61]),
   midi.NoteOffEvent(tick=480, channel=7, data=[75, 0]),
   midi.NoteOnEvent(tick=0, channel=7, data=[75, 61]),
   midi.NoteOffEvent(tick=480, channel=7, data=[75, 0]),
   midi.NoteOnEvent(tick=0, channel=7, data=[75, 61]),
   midi.NoteOffEvent(tick=480, channel=7, data=[75, 0]),
   midi.NoteOnEvent(tick=0, channel=7, data=[72, 60]),
   midi.NoteOffEvent(tick=2880, channel=7, data=[72, 0]),
   midi.NoteOnEvent(tick=3360, channel=7, data=[77, 61]),
   midi.NoteOffEvent(tick=480, channel=7, data=[77, 0]),
   midi.NoteOnEvent(tick=0, channel=7, data=[77, 61]),
   midi.NoteOffEvent(tick=480, channel=7, data=[77, 0]),
   midi.NoteOnEvent(tick=0, channel=7, data=[77, 61]),
   midi.NoteOffEvent(tick=480, channel=7, data=[77, 0]),
   midi.NoteOnEvent(tick=0, channel=7, data=[74, 60]),
   midi.NoteOffEvent(tick=2400, channel=7, data=[74, 0]),
   midi.NoteOnEvent(tick=0, channel=7, data=[79, 64]),
   midi.NoteOffEvent(tick=480, channel=7, data=[79, 0]),
   midi.NoteOnEvent(tick=0, channel=7, data=[79, 63]),
   midi.NoteOffEvent(tick=480, channel=7, data=[79, 0]),
   midi.NoteOnEvent(tick=0, channel=7, data=[77, 60]),
   midi.NoteOffEvent(tick=480, channel=7, data=[77, 0]),
   midi.NoteOnEvent(tick=0, channel=7, data=[75, 60]),
   midi.NoteOffEvent(tick=1920, channel=7, data=[75, 0]),
   midi.NoteOnEvent(tick=0, channel=7, data=[74, 61]),
   midi.NoteOffEvent(tick=480, channel=7, data=[74, 0]),
   midi.NoteOnEvent(tick=0, channel=7, data=[79, 65]),
   midi.NoteOffEvent(tick=480, channel=7, data=[79, 0]),
   midi.NoteOnEvent(tick=0, channel=7, data=[79, 65]),
   midi.NoteOffEvent(tick=480, channel=7, data=[79, 0]),
   midi.NoteOnEvent(tick=0, channel=7, data=[77, 60]),
   midi.NoteOffEvent(tick=480, channel=7, data=[77, 0]),
   midi.NoteOnEvent(tick=0, channel=7, data=[75, 59]),
   midi.NoteOffEvent(tick=1920, channel=7, data=[75, 0]),
   midi.NoteOnEvent(tick=0, channel=7, data=[74, 61]),
   midi.NoteOffEvent(tick=480, channel=7, data=[74, 0]),
   midi.NoteOnEvent(tick=0, channel=7, data=[79, 66]),
   midi.NoteOffEvent(tick=480, channel=7, data=[79, 0]),
   midi.NoteOnEvent(tick=0, channel=7, data=[79, 65]),
   midi.NoteOffEvent(tick=480, channel=7, data=[79, 0]),
   midi.NoteOnEvent(tick=0, channel=7, data=[77, 78]),
   midi.NoteOffEvent(tick=480, channel=7, data=[77, 0]),
   midi.NoteOnEvent(tick=0, channel=7, data=[75, 95]),
   midi.NoteOffEvent(tick=960, channel=7, data=[75, 0]),
   midi.NoteOnEvent(tick=960, channel=7, data=[56, 94]),
   midi.NoteOnEvent(tick=229, channel=7, data=[66, 94]),
   midi.NoteOnEvent(tick=229, channel=7, data=[72, 94]),
   midi.NoteOffEvent(tick=502, channel=7, data=[56, 0]),
   midi.NoteOffEvent(tick=0, channel=7, data=[66, 0]),
   midi.NoteOffEvent(tick=0, channel=7, data=[72, 0]),
   midi.NoteOnEvent(tick=960, channel=7, data=[55, 109]),
   midi.NoteOnEvent(tick=229, channel=7, data=[62, 109]),
   midi.NoteOnEvent(tick=229, channel=7, data=[71, 109]),
   midi.NoteOnEvent(tick=228, channel=7, data=[79, 109]),
   midi.NoteOffEvent(tick=3154, channel=7, data=[55, 0]),
   midi.NoteOffEvent(tick=0, channel=7, data=[62, 0]),
   midi.NoteOffEvent(tick=0, channel=7, data=[71, 0]),
   midi.NoteOffEvent(tick=0, channel=7, data=[79, 0]),
   midi.NoteOnEvent(tick=480, channel=7, data=[68, 109]),
   midi.NoteOffEvent(tick=480, channel=7, data=[68, 0]),
   midi.NoteOnEvent(tick=0, channel=7, data=[68, 110]),
   midi.NoteOffEvent(tick=480, channel=7, data=[68, 0]),
   midi.NoteOnEvent(tick=0, channel=7, data=[68, 110]),
   midi.NoteOffEvent(tick=480, channel=7, data=[68, 0]),
   midi.NoteOnEvent(tick=0, channel=7, data=[65, 110]),
   midi.NoteOffEvent(tick=3840, channel=7, data=[65, 0]),
   midi.NoteOnEvent(tick=480, channel=7, data=[68, 61]),
   midi.NoteOffEvent(tick=480, channel=7, data=[68, 0]),
   midi.NoteOnEvent(tick=0, channel=7, data=[68, 61]),
   midi.NoteOffEvent(tick=480, channel=7, data=[68, 0]),
   midi.NoteOnEvent(tick=0, channel=7, data=[68, 61]),
   midi.NoteOffEvent(tick=480, channel=7, data=[68, 0]),
   midi.NoteOnEvent(tick=0, channel=7, data=[65, 60]),
   midi.NoteOffEvent(tick=5760, channel=7, data=[65, 0]),
   midi.NoteOnEvent(tick=0, channel=7, data=[63, 64]),
   midi.NoteOffEvent(tick=480, channel=7, data=[63, 0]),
   midi.NoteOnEvent(tick=0, channel=7, data=[68, 64]),
   midi.NoteOffEvent(tick=480, channel=7, data=[68, 0]),
   midi.NoteOnEvent(tick=0, channel=7, data=[68, 63]),
   midi.NoteOffEvent(tick=480, channel=7, data=[68, 0]),
   midi.NoteOnEvent(tick=0, channel=7, data=[68, 63]),
   midi.NoteOffEvent(tick=480, channel=7, data=[68, 0]),
   midi.NoteOnEvent(tick=0, channel=7, data=[65, 61]),
   midi.NoteOffEvent(tick=5760, channel=7, data=[65, 0]),
   midi.NoteOnEvent(tick=0, channel=7, data=[63, 64]),
   midi.NoteOffEvent(tick=480, channel=7, data=[63, 0]),
   midi.NoteOnEvent(tick=0, channel=7, data=[67, 63]),
   midi.NoteOffEvent(tick=480, channel=7, data=[67, 0]),
   midi.NoteOnEvent(tick=0, channel=7, data=[72, 67]),
   midi.NoteOffEvent(tick=480, channel=7, data=[72, 0]),
   midi.NoteOnEvent(tick=0, channel=7, data=[72, 67]),
   midi.NoteOffEvent(tick=480, channel=7, data=[72, 0]),
   midi.NoteOnEvent(tick=0, channel=7, data=[72, 96]),
   midi.NoteOffEvent(tick=1920, channel=7, data=[72, 0]),
   midi.NoteOnEvent(tick=0, channel=7, data=[71, 91]),
   midi.NoteOffEvent(tick=480, channel=7, data=[71, 0]),
   midi.NoteOnEvent(tick=0, channel=7, data=[71, 85]),
   midi.NoteOffEvent(tick=480, channel=7, data=[71, 0]),
   midi.NoteOnEvent(tick=0, channel=7, data=[71, 85]),
   midi.NoteOffEvent(tick=480, channel=7, data=[71, 0]),
   midi.NoteOnEvent(tick=0, channel=7, data=[74, 93]),
   midi.NoteOffEvent(tick=480, channel=7, data=[74, 0]),
   midi.NoteOnEvent(tick=0, channel=7, data=[74, 97]),
   midi.NoteOffEvent(tick=1920, channel=7, data=[74, 0]),
   midi.NoteOnEvent(tick=0, channel=7, data=[72, 88]),
   midi.NoteOffEvent(tick=480, channel=7, data=[72, 0]),
   midi.NoteOnEvent(tick=0, channel=7, data=[72, 83]),
   midi.NoteOffEvent(tick=480, channel=7, data=[72, 0]),
   midi.NoteOnEvent(tick=0, channel=7, data=[72, 83]),
   midi.NoteOffEvent(tick=480, channel=7, data=[72, 0]),
   midi.NoteOnEvent(tick=0, channel=7, data=[75, 92]),
   midi.NoteOffEvent(tick=480, channel=7, data=[75, 0]),
   midi.NoteOnEvent(tick=0, channel=7, data=[75, 112]),
   midi.NoteOnEvent(tick=480, channel=7, data=[74, 100]),
   midi.NoteOffEvent(tick=8, channel=7, data=[75, 0]),
   midi.NoteOffEvent(tick=446, channel=7, data=[74, 0]),
   midi.NoteOnEvent(tick=26, channel=7, data=[74, 100]),
   midi.NoteOffEvent(tick=240, channel=7, data=[74, 0]),
   midi.NoteOnEvent(tick=240, channel=7, data=[77, 109]),
   midi.NoteOffEvent(tick=240, channel=7, data=[77, 0]),
   midi.NoteOnEvent(tick=240, channel=7, data=[77, 114]),
   midi.NoteOnEvent(tick=480, channel=7, data=[76, 103]),
   midi.NoteOffEvent(tick=8, channel=7, data=[77, 0]),
   midi.NoteOffEvent(tick=446, channel=7, data=[76, 0]),
   midi.NoteOnEvent(tick=26, channel=7, data=[76, 102]),
   midi.NoteOffEvent(tick=240, channel=7, data=[76, 0]),
   midi.NoteOnEvent(tick=240, channel=7, data=[79, 109]),
   midi.NoteOffEvent(tick=240, channel=7, data=[79, 0]),
   midi.NoteOnEvent(tick=240, channel=7, data=[79, 115]),
   midi.NoteOnEvent(tick=480, channel=7, data=[77, 100]),
   midi.NoteOffEvent(tick=8, channel=7, data=[79, 0]),
   midi.NoteOffEvent(tick=446, channel=7, data=[77, 0]),
   midi.NoteOnEvent(tick=26, channel=7, data=[77, 99]),
   midi.NoteOffEvent(tick=240, channel=7, data=[77, 0]),
   midi.NoteOnEvent(tick=240, channel=7, data=[80, 108]),
   midi.NoteOffEvent(tick=240, channel=7, data=[80, 0]),
   midi.NoteOnEvent(tick=240, channel=7, data=[80, 113]),
   midi.NoteOnEvent(tick=480, channel=7, data=[79, 101]),
   midi.NoteOffEvent(tick=8, channel=7, data=[80, 0]),
   midi.NoteOffEvent(tick=446, channel=7, data=[79, 0]),
   midi.NoteOnEvent(tick=26, channel=7, data=[79, 100]),
   midi.NoteOffEvent(tick=240, channel=7, data=[79, 0]),
   midi.NoteOnEvent(tick=240, channel=7, data=[82, 108]),
   midi.NoteOffEvent(tick=240, channel=7, data=[82, 0]),
   midi.NoteOnEvent(tick=240, channel=7, data=[82, 113]),
   midi.NoteOnEvent(tick=480, channel=7, data=[80, 99]),
   midi.NoteOffEvent(tick=8, channel=7, data=[82, 0]),
   midi.NoteOffEvent(tick=446, channel=7, data=[80, 0]),
   midi.NoteOnEvent(tick=26, channel=7, data=[80, 98]),
   midi.NoteOffEvent(tick=240, channel=7, data=[80, 0]),
   midi.NoteOnEvent(tick=240, channel=7, data=[84, 109]),
   midi.NoteOffEvent(tick=240, channel=7, data=[84, 0]),
   midi.NoteOnEvent(tick=240, channel=7, data=[84, 114]),
   midi.NoteOnEvent(tick=480, channel=7, data=[83, 103]),
   midi.NoteOffEvent(tick=8, channel=7, data=[84, 0]),
   midi.NoteOffEvent(tick=446, channel=7, data=[83, 0]),
   midi.NoteOnEvent(tick=26, channel=7, data=[83, 102]),
   midi.NoteOffEvent(tick=240, channel=7, data=[83, 0]),
   midi.NoteOnEvent(tick=240, channel=7, data=[86, 109]),
   midi.NoteOffEvent(tick=240, channel=7, data=[86, 0]),
   midi.NoteOnEvent(tick=240, channel=7, data=[84, 108]),
   midi.NoteOffEvent(tick=480, channel=7, data=[84, 0]),
   midi.NoteOnEvent(tick=0, channel=7, data=[87, 109]),
   midi.NoteOffEvent(tick=480, channel=7, data=[87, 0]),
   midi.NoteOnEvent(tick=0, channel=7, data=[87, 108]),
   midi.NoteOffEvent(tick=480, channel=7, data=[87, 0]),
   midi.NoteOnEvent(tick=0, channel=7, data=[87, 106]),
   midi.NoteOffEvent(tick=480, channel=7, data=[87, 0]),
   midi.NoteOnEvent(tick=0, channel=7, data=[84, 98]),
   midi.NoteOffEvent(tick=480, channel=7, data=[84, 0]),
   midi.NoteOnEvent(tick=0, channel=7, data=[79, 83]),
   midi.NoteOffEvent(tick=480, channel=7, data=[79, 0]),
   midi.NoteOnEvent(tick=0, channel=7, data=[79, 83]),
   midi.NoteOffEvent(tick=480, channel=7, data=[79, 0]),
   midi.NoteOnEvent(tick=0, channel=7, data=[79, 84]),
   midi.NoteOffEvent(tick=480, channel=7, data=[79, 0]),
   midi.NoteOnEvent(tick=0, channel=7, data=[75, 88]),
   midi.NoteOffEvent(tick=480, channel=7, data=[75, 0]),
   midi.NoteOnEvent(tick=0, channel=7, data=[72, 83]),
   midi.NoteOffEvent(tick=480, channel=7, data=[72, 0]),
   midi.NoteOnEvent(tick=0, channel=7, data=[67, 83]),
   midi.NoteOffEvent(tick=480, channel=7, data=[67, 0]),
   midi.NoteOnEvent(tick=0, channel=7, data=[67, 83]),
   midi.NoteOffEvent(tick=480, channel=7, data=[67, 0]),
   midi.NoteOnEvent(tick=0, channel=7, data=[63, 88]),
   midi.NoteOffEvent(tick=480, channel=7, data=[63, 0]),
   midi.NoteOnEvent(tick=0, channel=7, data=[60, 83]),
   midi.NoteOffEvent(tick=480, channel=7, data=[60, 0]),
   midi.NoteOnEvent(tick=0, channel=7, data=[60, 83]),
   midi.NoteOffEvent(tick=480, channel=7, data=[60, 0]),
   midi.NoteOnEvent(tick=0, channel=7, data=[60, 83]),
   midi.NoteOffEvent(tick=480, channel=7, data=[60, 0]),
   midi.NoteOnEvent(tick=0, channel=7, data=[59, 88]),
   midi.NoteOffEvent(tick=480, channel=7, data=[59, 0]),
   midi.NoteOnEvent(tick=0, channel=7, data=[89, 112]),
   midi.NoteOffEvent(tick=480, channel=7, data=[89, 0]),
   midi.NoteOnEvent(tick=0, channel=7, data=[86, 112]),
   midi.NoteOffEvent(tick=480, channel=7, data=[86, 0]),
   midi.NoteOnEvent(tick=0, channel=7, data=[86, 112]),
   midi.NoteOffEvent(tick=480, channel=7, data=[86, 0]),
   midi.NoteOnEvent(tick=0, channel=7, data=[83, 119]),
   midi.NoteOffEvent(tick=480, channel=7, data=[83, 0]),
   midi.NoteOnEvent(tick=0, channel=7, data=[79, 105]),
   midi.NoteOffEvent(tick=480, channel=7, data=[79, 0]),
   midi.NoteOnEvent(tick=0, channel=7, data=[77, 96]),
   midi.NoteOffEvent(tick=480, channel=7, data=[77, 0]),
   midi.NoteOnEvent(tick=0, channel=7, data=[77, 95]),
   midi.NoteOffEvent(tick=480, channel=7, data=[77, 0]),
   midi.NoteOnEvent(tick=0, channel=7, data=[74, 91]),
   midi.NoteOffEvent(tick=480, channel=7, data=[74, 0]),
   midi.NoteOnEvent(tick=0, channel=7, data=[71, 83]),
   midi.NoteOffEvent(tick=480, channel=7, data=[71, 0]),
   midi.NoteOnEvent(tick=0, channel=7, data=[67, 83]),
   midi.NoteOffEvent(tick=480, channel=7, data=[67, 0]),
   midi.NoteOnEvent(tick=0, channel=7, data=[65, 83]),
   midi.NoteOffEvent(tick=480, channel=7, data=[65, 0]),
   midi.NoteOnEvent(tick=0, channel=7, data=[62, 88]),
   midi.NoteOffEvent(tick=480, channel=7, data=[62, 0]),
   midi.NoteOnEvent(tick=0, channel=7, data=[59, 83]),
   midi.NoteOffEvent(tick=480, channel=7, data=[59, 0]),
   midi.NoteOnEvent(tick=0, channel=7, data=[60, 83]),
   midi.NoteOffEvent(tick=480, channel=7, data=[60, 0]),
   midi.NoteOnEvent(tick=0, channel=7, data=[60, 83]),
   midi.NoteOffEvent(tick=480, channel=7, data=[60, 0]),
   midi.NoteOnEvent(tick=0, channel=7, data=[60, 102]),
   midi.NoteOffEvent(tick=480, channel=7, data=[60, 0]),
   midi.NoteOnEvent(tick=0, channel=7, data=[87, 127]),
   midi.NoteOffEvent(tick=480, channel=7, data=[87, 0]),
   midi.NoteOnEvent(tick=0, channel=7, data=[87, 127]),
   midi.NoteOffEvent(tick=480, channel=7, data=[87, 0]),
   midi.NoteOnEvent(tick=0, channel=7, data=[87, 127]),
   midi.NoteOffEvent(tick=480, channel=7, data=[87, 0]),
   midi.NoteOnEvent(tick=0, channel=7, data=[84, 127]),
   midi.NoteOffEvent(tick=480, channel=7, data=[84, 0]),
   midi.NoteOnEvent(tick=0, channel=7, data=[81, 126]),
   midi.NoteOffEvent(tick=480, channel=7, data=[81, 0]),
   midi.NoteOnEvent(tick=0, channel=7, data=[81, 123]),
   midi.NoteOffEvent(tick=480, channel=7, data=[81, 0]),
   midi.NoteOnEvent(tick=0, channel=7, data=[81, 120]),
   midi.NoteOffEvent(tick=480, channel=7, data=[81, 0]),
   midi.NoteOnEvent(tick=0, channel=7, data=[78, 110]),
   midi.NoteOffEvent(tick=480, channel=7, data=[78, 0]),
   midi.NoteOnEvent(tick=0, channel=7, data=[75, 96]),
   midi.NoteOffEvent(tick=480, channel=7, data=[75, 0]),
   midi.NoteOnEvent(tick=0, channel=7, data=[75, 97]),
   midi.NoteOffEvent(tick=480, channel=7, data=[75, 0]),
   midi.NoteOnEvent(tick=0, channel=7, data=[75, 98]),
   midi.NoteOffEvent(tick=480, channel=7, data=[75, 0]),
   midi.NoteOnEvent(tick=0, channel=7, data=[72, 102]),
   midi.NoteOffEvent(tick=480, channel=7, data=[72, 0]),
   midi.NoteOnEvent(tick=0, channel=7, data=[57, 96]),
   midi.NoteOnEvent(tick=0, channel=7, data=[69, 96]),
   midi.NoteOffEvent(tick=480, channel=7, data=[57, 0]),
   midi.NoteOffEvent(tick=0, channel=7, data=[69, 0]),
   midi.NoteOnEvent(tick=0, channel=7, data=[57, 96]),
   midi.NoteOnEvent(tick=0, channel=7, data=[69, 96]),
   midi.NoteOffEvent(tick=480, channel=7, data=[57, 0]),
   midi.NoteOffEvent(tick=0, channel=7, data=[69, 0]),
   midi.NoteOnEvent(tick=0, channel=7, data=[57, 96]),
   midi.NoteOnEvent(tick=0, channel=7, data=[69, 96]),
   midi.NoteOffEvent(tick=480, channel=7, data=[57, 0]),
   midi.NoteOffEvent(tick=0, channel=7, data=[69, 0]),
   midi.NoteOnEvent(tick=0, channel=7, data=[57, 102]),
   midi.NoteOnEvent(tick=0, channel=7, data=[69, 102]),
   midi.NoteOffEvent(tick=960, channel=7, data=[57, 0]),
   midi.NoteOffEvent(tick=0, channel=7, data=[69, 0]),
   midi.NoteOnEvent(tick=2880, channel=7, data=[58, 120]),
   midi.NoteOnEvent(tick=0, channel=7, data=[65, 120]),
   midi.NoteOnEvent(tick=0, channel=7, data=[70, 120]),
   midi.NoteOffEvent(tick=960, channel=7, data=[58, 0]),
   midi.NoteOffEvent(tick=0, channel=7, data=[65, 0]),
   midi.NoteOffEvent(tick=0, channel=7, data=[70, 0]),
   midi.NoteOnEvent(tick=8640, channel=7, data=[70, 65]),
   midi.NoteOffEvent(tick=960, channel=7, data=[70, 0]),
   midi.NoteOnEvent(tick=0, channel=7, data=[75, 63]),
   midi.NoteOffEvent(tick=960, channel=7, data=[75, 0]),
   midi.NoteOnEvent(tick=0, channel=7, data=[74, 66]),
   midi.NoteOffEvent(tick=960, channel=7, data=[74, 0]),
   midi.NoteOnEvent(tick=0, channel=7, data=[75, 63]),
   midi.NoteOffEvent(tick=960, channel=7, data=[75, 0]),
   midi.NoteOnEvent(tick=0, channel=7, data=[77, 68]),
   midi.NoteOffEvent(tick=960, channel=7, data=[77, 0]),
   midi.NoteOnEvent(tick=0, channel=7, data=[72, 57]),
   midi.NoteOffEvent(tick=960, channel=7, data=[72, 0]),
   midi.NoteOnEvent(tick=0, channel=7, data=[72, 62]),
   midi.NoteOnEvent(tick=960, channel=7, data=[70, 56]),
   midi.NoteOffEvent(tick=19, channel=7, data=[72, 0]),
   midi.NoteOffEvent(tick=892, channel=7, data=[70, 0]),
   midi.NoteOnEvent(tick=7729, channel=7, data=[70, 65]),
   midi.NoteOnEvent(tick=960, channel=7, data=[75, 63]),
   midi.NoteOffEvent(tick=19, channel=7, data=[70, 0]),
   midi.NoteOffEvent(tick=892, channel=7, data=[75, 0]),
   midi.NoteOnEvent(tick=49, channel=7, data=[74, 66]),
   midi.NoteOffEvent(tick=960, channel=7, data=[74, 0]),
   midi.NoteOnEvent(tick=0, channel=7, data=[75, 63]),
   midi.NoteOffEvent(tick=960, channel=7, data=[75, 0]),
   midi.NoteOnEvent(tick=0, channel=7, data=[77, 68]),
   midi.NoteOffEvent(tick=960, channel=7, data=[77, 0]),
   midi.NoteOnEvent(tick=0, channel=7, data=[72, 57]),
   midi.NoteOffEvent(tick=960, channel=7, data=[72, 0]),
   midi.NoteOnEvent(tick=0, channel=7, data=[72, 62]),
   midi.NoteOnEvent(tick=960, channel=7, data=[70, 56]),
   midi.NoteOffEvent(tick=19, channel=7, data=[72, 0]),
   midi.NoteOffEvent(tick=892, channel=7, data=[70, 0]),
   midi.NoteOnEvent(tick=49, channel=7, data=[70, 61]),
   midi.NoteOnEvent(tick=960, channel=7, data=[72, 62]),
   midi.NoteOffEvent(tick=19, channel=7, data=[70, 0]),
   midi.NoteOffEvent(tick=892, channel=7, data=[72, 0]),
   midi.NoteOnEvent(tick=49, channel=7, data=[73, 67]),
   midi.NoteOffEvent(tick=960, channel=7, data=[73, 0]),
   midi.NoteOnEvent(tick=0, channel=7, data=[72, 61]),
   midi.NoteOffEvent(tick=960, channel=7, data=[72, 0]),
   midi.NoteOnEvent(tick=0, channel=7, data=[70, 62]),
   midi.NoteOnEvent(tick=960, channel=7, data=[72, 62]),
   midi.NoteOffEvent(tick=19, channel=7, data=[70, 0]),
   midi.NoteOffEvent(tick=892, channel=7, data=[72, 0]),
   midi.NoteOnEvent(tick=49, channel=7, data=[70, 62]),
   midi.NoteOffEvent(tick=960, channel=7, data=[70, 0]),
   midi.NoteOnEvent(tick=0, channel=7, data=[68, 57]),
   midi.NoteOffEvent(tick=960, channel=7, data=[68, 0]),
   midi.NoteOnEvent(tick=0, channel=7, data=[73, 69]),
   midi.NoteOnEvent(tick=960, channel=7, data=[75, 67]),
   midi.NoteOffEvent(tick=19, channel=7, data=[73, 0]),
   midi.NoteOffEvent(tick=892, channel=7, data=[75, 0]),
   midi.NoteOnEvent(tick=49, channel=7, data=[77, 71]),
   midi.NoteOffEvent(tick=960, channel=7, data=[77, 0]),
   midi.NoteOnEvent(tick=0, channel=7, data=[75, 63]),
   midi.NoteOffEvent(tick=960, channel=7, data=[75, 0]),
   midi.NoteOnEvent(tick=0, channel=7, data=[73, 63]),
   midi.NoteOnEvent(tick=960, channel=7, data=[75, 62]),
   midi.NoteOffEvent(tick=19, channel=7, data=[73, 0]),
   midi.NoteOffEvent(tick=892, channel=7, data=[75, 0]),
   midi.NoteOnEvent(tick=49, channel=7, data=[73, 62]),
   midi.NoteOffEvent(tick=960, channel=7, data=[73, 0]),
   midi.NoteOnEvent(tick=0, channel=7, data=[72, 58]),
   midi.NoteOffEvent(tick=960, channel=7, data=[72, 0]),
   midi.NoteOnEvent(tick=0, channel=7, data=[75, 67]),
   midi.NoteOnEvent(tick=960, channel=7, data=[77, 65]),
   midi.NoteOffEvent(tick=19, channel=7, data=[75, 0]),
   midi.NoteOffEvent(tick=892, channel=7, data=[77, 0]),
   midi.NoteOnEvent(tick=49, channel=7, data=[78, 69]),
   midi.NoteOffEvent(tick=960, channel=7, data=[78, 0]),
   midi.NoteOnEvent(tick=0, channel=7, data=[77, 68]),
   midi.NoteOffEvent(tick=960, channel=7, data=[77, 0]),
   midi.NoteOnEvent(tick=0, channel=7, data=[75, 73]),
   midi.NoteOffEvent(tick=960, channel=7, data=[75, 0]),
   midi.NoteOnEvent(tick=0, channel=7, data=[77, 73]),
   midi.NoteOffEvent(tick=960, channel=7, data=[77, 0]),
   midi.NoteOnEvent(tick=0, channel=7, data=[78, 78]),
   midi.NoteOnEvent(tick=960, channel=7, data=[77, 71]),
   midi.NoteOffEvent(tick=19, channel=7, data=[78, 0]),
   midi.NoteOffEvent(tick=892, channel=7, data=[77, 0]),
   midi.NoteOnEvent(tick=49, channel=7, data=[75, 72]),
   midi.NoteOffEvent(tick=960, channel=7, data=[75, 0]),
   midi.NoteOnEvent(tick=0, channel=7, data=[77, 72]),
   midi.NoteOffEvent(tick=960, channel=7, data=[77, 0]),
   midi.NoteOnEvent(tick=0, channel=7, data=[78, 92]),
   midi.NoteOnEvent(tick=960, channel=7, data=[77, 84]),
   midi.NoteOffEvent(tick=19, channel=7, data=[78, 0]),
   midi.NoteOffEvent(tick=892, channel=7, data=[77, 0]),
   midi.NoteOnEvent(tick=49, channel=7, data=[75, 85]),
   midi.NoteOffEvent(tick=960, channel=7, data=[75, 0]),
   midi.NoteOnEvent(tick=0, channel=7, data=[77, 85]),
   midi.NoteOffEvent(tick=960, channel=7, data=[77, 0]),
   midi.NoteOnEvent(tick=0, channel=7, data=[78, 92]),
   midi.NoteOnEvent(tick=960, channel=7, data=[77, 84]),
   midi.NoteOffEvent(tick=19, channel=7, data=[78, 0]),
   midi.NoteOffEvent(tick=892, channel=7, data=[77, 0]),
   midi.NoteOnEvent(tick=49, channel=7, data=[75, 85]),
   midi.NoteOffEvent(tick=960, channel=7, data=[75, 0]),
   midi.NoteOnEvent(tick=0, channel=7, data=[77, 85]),
   midi.NoteOffEvent(tick=960, channel=7, data=[77, 0]),
   midi.NoteOnEvent(tick=0, channel=7, data=[78, 92]),
   midi.NoteOnEvent(tick=960, channel=7, data=[77, 84]),
   midi.NoteOffEvent(tick=19, channel=7, data=[78, 0]),
   midi.NoteOffEvent(tick=892, channel=7, data=[77, 0]),
   midi.NoteOnEvent(tick=49, channel=7, data=[78, 91]),
   midi.NoteOnEvent(tick=960, channel=7, data=[81, 91]),
   midi.NoteOffEvent(tick=19, channel=7, data=[78, 0]),
   midi.NoteOffEvent(tick=892, channel=7, data=[81, 0]),
   midi.NoteOnEvent(tick=49, channel=7, data=[82, 127]),
   midi.NoteOnEvent(tick=0, channel=7, data=[70, 120]),
   midi.NoteOffEvent(tick=2400, channel=7, data=[82, 0]),
   midi.NoteOffEvent(tick=0, channel=7, data=[70, 0]),
   midi.NoteOnEvent(tick=0, channel=7, data=[84, 119]),
   midi.NoteOffEvent(tick=480, channel=7, data=[84, 0]),
   midi.NoteOnEvent(tick=0, channel=7, data=[82, 113]),
   midi.NoteOffEvent(tick=480, channel=7, data=[82, 0]),
   midi.NoteOnEvent(tick=0, channel=7, data=[80, 108]),
   midi.NoteOffEvent(tick=480, channel=7, data=[80, 0]),
   midi.NoteOnEvent(tick=0, channel=7, data=[80, 115]),
   midi.NoteOnEvent(tick=480, channel=7, data=[79, 105]),
   midi.NoteOffEvent(tick=8, channel=7, data=[80, 0]),
   midi.NoteOffEvent(tick=446, channel=7, data=[79, 0]),
   midi.NoteOnEvent(tick=26, channel=7, data=[77, 100]),
   midi.NoteOffEvent(tick=240, channel=7, data=[77, 0]),
   midi.NoteOnEvent(tick=240, channel=7, data=[75, 98]),
   midi.NoteOffEvent(tick=240, channel=7, data=[75, 0]),
   midi.NoteOnEvent(tick=240, channel=7, data=[75, 105]),
   midi.NoteOnEvent(tick=480, channel=7, data=[74, 99]),
   midi.NoteOffEvent(tick=8, channel=7, data=[75, 0]),
   midi.NoteOffEvent(tick=446, channel=7, data=[74, 0]),
   midi.NoteOnEvent(tick=26, channel=7, data=[72, 96]),
   midi.NoteOffEvent(tick=240, channel=7, data=[72, 0]),
   midi.NoteOnEvent(tick=240, channel=7, data=[74, 102]),
   midi.NoteOffEvent(tick=240, channel=7, data=[74, 0]),
   midi.NoteOnEvent(tick=240, channel=7, data=[77, 121]),
   midi.NoteOnEvent(tick=480, channel=7, data=[75, 107]),
   midi.NoteOffEvent(tick=8, channel=7, data=[77, 0]),
   midi.NoteOffEvent(tick=446, channel=7, data=[75, 0]),
   midi.NoteOnEvent(tick=26, channel=7, data=[70, 96]),
   midi.NoteOffEvent(tick=240, channel=7, data=[70, 0]),
   midi.NoteOnEvent(tick=240, channel=7, data=[67, 96]),
   midi.NoteOffEvent(tick=240, channel=7, data=[67, 0]),
   midi.NoteOnEvent(tick=240, channel=7, data=[74, 117]),
   midi.NoteOnEvent(tick=480, channel=7, data=[72, 104]),
   midi.NoteOffEvent(tick=8, channel=7, data=[74, 0]),
   midi.NoteOffEvent(tick=446, channel=7, data=[72, 0]),
   midi.NoteOnEvent(tick=26, channel=7, data=[68, 96]),
   midi.NoteOffEvent(tick=240, channel=7, data=[68, 0]),
   midi.NoteOnEvent(tick=240, channel=7, data=[65, 96]),
   midi.NoteOffEvent(tick=240, channel=7, data=[65, 0]),
   midi.NoteOnEvent(tick=240, channel=7, data=[72, 118]),
   midi.NoteOnEvent(tick=480, channel=7, data=[70, 105]),
   midi.NoteOffEvent(tick=8, channel=7, data=[72, 0]),
   midi.NoteOffEvent(tick=446, channel=7, data=[70, 0]),
   midi.NoteOnEvent(tick=26, channel=7, data=[67, 98]),
   midi.NoteOffEvent(tick=240, channel=7, data=[67, 0]),
   midi.NoteOnEvent(tick=240, channel=7, data=[63, 96]),
   midi.NoteOffEvent(tick=240, channel=7, data=[63, 0]),
   midi.NoteOnEvent(tick=240, channel=7, data=[58, 102]),
   midi.NoteOffEvent(tick=480, channel=7, data=[58, 0]),
   midi.NoteOnEvent(tick=0, channel=7, data=[81, 127]),
   midi.NoteOnEvent(tick=480, channel=7, data=[82, 127]),
   midi.NoteOffEvent(tick=8, channel=7, data=[81, 0]),
   midi.NoteOffEvent(tick=446, channel=7, data=[82, 0]),
   midi.NoteOnEvent(tick=26, channel=7, data=[81, 127]),
   midi.NoteOffEvent(tick=480, channel=7, data=[81, 0]),
   midi.NoteOnEvent(tick=0, channel=7, data=[82, 127]),
   midi.NoteOffEvent(tick=480, channel=7, data=[82, 0]),
   midi.NoteOnEvent(tick=0, channel=7, data=[81, 127]),
   midi.NoteOffEvent(tick=480, channel=7, data=[81, 0]),
   midi.NoteOnEvent(tick=0, channel=7, data=[82, 127]),
   midi.NoteOffEvent(tick=480, channel=7, data=[82, 0]),
   midi.NoteOnEvent(tick=0, channel=7, data=[81, 122]),
   midi.NoteOffEvent(tick=480, channel=7, data=[81, 0]),
   midi.NoteOnEvent(tick=0, channel=7, data=[82, 127]),
   midi.NoteOffEvent(tick=240, channel=7, data=[82, 0]),
   midi.NoteOnEvent(tick=240, channel=7, data=[84, 127]),
   midi.NoteOffEvent(tick=240, channel=7, data=[84, 0]),
   midi.NoteOnEvent(tick=240, channel=7, data=[82, 119]),
   midi.NoteOffEvent(tick=240, channel=7, data=[82, 0]),
   midi.NoteOnEvent(tick=240, channel=7, data=[80, 111]),
   midi.NoteOffEvent(tick=240, channel=7, data=[80, 0]),
   midi.NoteOnEvent(tick=240, channel=7, data=[80, 117]),
   midi.NoteOnEvent(tick=480, channel=7, data=[79, 107]),
   midi.NoteOffEvent(tick=8, channel=7, data=[80, 0]),
   midi.NoteOffEvent(tick=446, channel=7, data=[79, 0]),
   midi.NoteOnEvent(tick=26, channel=7, data=[77, 101]),
   midi.NoteOffEvent(tick=240, channel=7, data=[77, 0]),
   midi.NoteOnEvent(tick=240, channel=7, data=[75, 98]),
   midi.NoteOffEvent(tick=240, channel=7, data=[75, 0]),
   midi.NoteOnEvent(tick=240, channel=7, data=[75, 106]),
   midi.NoteOnEvent(tick=480, channel=7, data=[74, 100]),
   midi.NoteOffEvent(tick=8, channel=7, data=[75, 0]),
   midi.NoteOffEvent(tick=446, channel=7, data=[74, 0]),
   midi.NoteOnEvent(tick=26, channel=7, data=[72, 97]),
   midi.NoteOffEvent(tick=240, channel=7, data=[72, 0]),
   midi.NoteOnEvent(tick=240, channel=7, data=[74, 104]),
   midi.NoteOffEvent(tick=240, channel=7, data=[74, 0]),
   midi.NoteOnEvent(tick=240, channel=7, data=[77, 122]),
   midi.NoteOnEvent(tick=480, channel=7, data=[75, 108]),
   midi.NoteOffEvent(tick=8, channel=7, data=[77, 0]),
   midi.NoteOffEvent(tick=446, channel=7, data=[75, 0]),
   midi.NoteOnEvent(tick=26, channel=7, data=[70, 96]),
   midi.NoteOffEvent(tick=240, channel=7, data=[70, 0]),
   midi.NoteOnEvent(tick=240, channel=7, data=[67, 96]),
   midi.NoteOffEvent(tick=240, channel=7, data=[67, 0]),
   midi.NoteOnEvent(tick=240, channel=7, data=[74, 118]),
   midi.NoteOnEvent(tick=480, channel=7, data=[72, 105]),
   midi.NoteOffEvent(tick=8, channel=7, data=[74, 0]),
   midi.NoteOffEvent(tick=446, channel=7, data=[72, 0]),
   midi.NoteOnEvent(tick=26, channel=7, data=[68, 96]),
   midi.NoteOffEvent(tick=240, channel=7, data=[68, 0]),
   midi.NoteOnEvent(tick=240, channel=7, data=[65, 96]),
   midi.NoteOffEvent(tick=240, channel=7, data=[65, 0]),
   midi.NoteOnEvent(tick=240, channel=7, data=[72, 118]),
   midi.NoteOnEvent(tick=480, channel=7, data=[70, 105]),
   midi.NoteOffEvent(tick=8, channel=7, data=[72, 0]),
   midi.NoteOffEvent(tick=446, channel=7, data=[70, 0]),
   midi.NoteOnEvent(tick=26, channel=7, data=[67, 98]),
   midi.NoteOffEvent(tick=240, channel=7, data=[67, 0]),
   midi.NoteOnEvent(tick=240, channel=7, data=[63, 96]),
   midi.NoteOffEvent(tick=240, channel=7, data=[63, 0]),
   midi.NoteOnEvent(tick=240, channel=7, data=[58, 102]),
   midi.NoteOffEvent(tick=480, channel=7, data=[58, 0]),
   midi.NoteOnEvent(tick=0, channel=7, data=[70, 123]),
   midi.NoteOffEvent(tick=480, channel=7, data=[70, 0]),
   midi.NoteOnEvent(tick=0, channel=7, data=[82, 127]),
   midi.NoteOffEvent(tick=480, channel=7, data=[82, 0]),
   midi.NoteOnEvent(tick=0, channel=7, data=[82, 127]),
   midi.NoteOffEvent(tick=480, channel=7, data=[82, 0]),
   midi.NoteOnEvent(tick=0, channel=7, data=[75, 127]),
   midi.NoteOffEvent(tick=6240, channel=7, data=[75, 0]),
   midi.NoteOnEvent(tick=0, channel=7, data=[77, 113]),
   midi.NoteOffEvent(tick=480, channel=7, data=[77, 0]),
   midi.NoteOnEvent(tick=0, channel=7, data=[77, 113]),
   midi.NoteOffEvent(tick=480, channel=7, data=[77, 0]),
   midi.NoteOnEvent(tick=0, channel=7, data=[77, 113]),
   midi.NoteOffEvent(tick=480, channel=7, data=[77, 0]),
   midi.NoteOnEvent(tick=0, channel=7, data=[79, 125]),
   midi.NoteOffEvent(tick=6240, channel=7, data=[79, 0]),
   midi.NoteOnEvent(tick=0, channel=7, data=[82, 114]),
   midi.NoteOnEvent(tick=0, channel=7, data=[70, 113]),
   midi.NoteOffEvent(tick=480, channel=7, data=[82, 0]),
   midi.NoteOffEvent(tick=0, channel=7, data=[70, 0]),
   midi.NoteOnEvent(tick=0, channel=7, data=[82, 113]),
   midi.NoteOnEvent(tick=0, channel=7, data=[70, 113]),
   midi.NoteOffEvent(tick=480, channel=7, data=[82, 0]),
   midi.NoteOffEvent(tick=0, channel=7, data=[70, 0]),
   midi.NoteOnEvent(tick=0, channel=7, data=[82, 113]),
   midi.NoteOnEvent(tick=0, channel=7, data=[70, 113]),
   midi.NoteOffEvent(tick=480, channel=7, data=[82, 0]),
   midi.NoteOffEvent(tick=0, channel=7, data=[70, 0]),
   midi.NoteOnEvent(tick=0, channel=7, data=[82, 120]),
   midi.NoteOnEvent(tick=0, channel=7, data=[70, 120]),
   midi.NoteOffEvent(tick=960, channel=7, data=[82, 0]),
   midi.NoteOffEvent(tick=0, channel=7, data=[70, 0]),
   midi.NoteOnEvent(tick=1440, channel=7, data=[82, 113]),
   midi.NoteOnEvent(tick=0, channel=7, data=[70, 113]),
   midi.NoteOffEvent(tick=480, channel=7, data=[82, 0]),
   midi.NoteOffEvent(tick=0, channel=7, data=[70, 0]),
   midi.NoteOnEvent(tick=0, channel=7, data=[82, 113]),
   midi.NoteOnEvent(tick=0, channel=7, data=[70, 113]),
   midi.NoteOffEvent(tick=480, channel=7, data=[82, 0]),
   midi.NoteOffEvent(tick=0, channel=7, data=[70, 0]),
   midi.NoteOnEvent(tick=0, channel=7, data=[82, 113]),
   midi.NoteOnEvent(tick=0, channel=7, data=[70, 113]),
   midi.NoteOffEvent(tick=480, channel=7, data=[82, 0]),
   midi.NoteOffEvent(tick=0, channel=7, data=[70, 0]),
   midi.NoteOnEvent(tick=0, channel=7, data=[82, 120]),
   midi.NoteOnEvent(tick=0, channel=7, data=[70, 120]),
   midi.NoteOffEvent(tick=960, channel=7, data=[82, 0]),
   midi.NoteOffEvent(tick=0, channel=7, data=[70, 0]),
   midi.NoteOnEvent(tick=1440, channel=7, data=[86, 120]),
   midi.NoteOnEvent(tick=0, channel=7, data=[77, 125]),
   midi.NoteOffEvent(tick=480, channel=7, data=[86, 0]),
   midi.NoteOffEvent(tick=0, channel=7, data=[77, 0]),
   midi.NoteOnEvent(tick=0, channel=7, data=[86, 119]),
   midi.NoteOnEvent(tick=0, channel=7, data=[77, 123]),
   midi.NoteOffEvent(tick=480, channel=7, data=[86, 0]),
   midi.NoteOffEvent(tick=0, channel=7, data=[77, 0]),
   midi.NoteOnEvent(tick=0, channel=7, data=[86, 118]),
   midi.NoteOnEvent(tick=0, channel=7, data=[77, 121]),
   midi.NoteOffEvent(tick=480, channel=7, data=[86, 0]),
   midi.NoteOffEvent(tick=0, channel=7, data=[77, 0]),
   midi.NoteOnEvent(tick=0, channel=7, data=[87, 127]),
   midi.NoteOnEvent(tick=0, channel=7, data=[79, 127]),
   midi.NoteOffEvent(tick=960, channel=7, data=[87, 0]),
   midi.NoteOffEvent(tick=0, channel=7, data=[79, 0]),
   midi.NoteOnEvent(tick=5280, channel=7, data=[67, 111]),
   midi.NoteOffEvent(tick=480, channel=7, data=[67, 0]),
   midi.NoteOnEvent(tick=0, channel=7, data=[67, 112]),
   midi.NoteOffEvent(tick=480, channel=7, data=[67, 0]),
   midi.NoteOnEvent(tick=0, channel=7, data=[67, 113]),
   midi.NoteOffEvent(tick=480, channel=7, data=[67, 0]),
   midi.NoteOnEvent(tick=0, channel=7, data=[63, 109]),
   midi.NoteOffEvent(tick=2880, channel=7, data=[63, 0]),
   midi.NoteOnEvent(tick=480, channel=7, data=[65, 112]),
   midi.NoteOffEvent(tick=480, channel=7, data=[65, 0]),
   midi.NoteOnEvent(tick=0, channel=7, data=[65, 112]),
   midi.NoteOffEvent(tick=480, channel=7, data=[65, 0]),
   midi.NoteOnEvent(tick=0, channel=7, data=[65, 113]),
   midi.NoteOffEvent(tick=480, channel=7, data=[65, 0]),
   midi.NoteOnEvent(tick=0, channel=7, data=[62, 110]),
   midi.NoteOffEvent(tick=2880, channel=7, data=[62, 0]),
   midi.NoteOnEvent(tick=4320, channel=7, data=[75, 61]),
   midi.NoteOffEvent(tick=480, channel=7, data=[75, 0]),
   midi.NoteOnEvent(tick=0, channel=7, data=[75, 61]),
   midi.NoteOffEvent(tick=480, channel=7, data=[75, 0]),
   midi.NoteOnEvent(tick=0, channel=7, data=[75, 61]),
   midi.NoteOffEvent(tick=480, channel=7, data=[75, 0]),
   midi.NoteOnEvent(tick=0, channel=7, data=[72, 60]),
   midi.NoteOffEvent(tick=2880, channel=7, data=[72, 0]),
   midi.NoteOnEvent(tick=3360, channel=7, data=[77, 61]),
   midi.NoteOffEvent(tick=480, channel=7, data=[77, 0]),
   midi.NoteOnEvent(tick=0, channel=7, data=[77, 61]),
   midi.NoteOffEvent(tick=480, channel=7, data=[77, 0]),
   midi.NoteOnEvent(tick=0, channel=7, data=[77, 61]),
   midi.NoteOffEvent(tick=480, channel=7, data=[77, 0]),
   midi.NoteOnEvent(tick=0, channel=7, data=[74, 60]),
   midi.NoteOffEvent(tick=2400, channel=7, data=[74, 0]),
   midi.NoteOnEvent(tick=0, channel=7, data=[79, 64]),
   midi.NoteOffEvent(tick=480, channel=7, data=[79, 0]),
   midi.NoteOnEvent(tick=0, channel=7, data=[79, 63]),
   midi.NoteOffEvent(tick=480, channel=7, data=[79, 0]),
   midi.NoteOnEvent(tick=0, channel=7, data=[77, 60]),
   midi.NoteOffEvent(tick=480, channel=7, data=[77, 0]),
   midi.NoteOnEvent(tick=0, channel=7, data=[75, 60]),
   midi.NoteOffEvent(tick=1920, channel=7, data=[75, 0]),
   midi.NoteOnEvent(tick=0, channel=7, data=[74, 61]),
   midi.NoteOffEvent(tick=480, channel=7, data=[74, 0]),
   midi.NoteOnEvent(tick=0, channel=7, data=[79, 65]),
   midi.NoteOffEvent(tick=480, channel=7, data=[79, 0]),
   midi.NoteOnEvent(tick=0, channel=7, data=[79, 65]),
   midi.NoteOffEvent(tick=480, channel=7, data=[79, 0]),
   midi.NoteOnEvent(tick=0, channel=7, data=[77, 60]),
   midi.NoteOffEvent(tick=480, channel=7, data=[77, 0]),
   midi.NoteOnEvent(tick=0, channel=7, data=[75, 59]),
   midi.NoteOffEvent(tick=1920, channel=7, data=[75, 0]),
   midi.NoteOnEvent(tick=0, channel=7, data=[74, 61]),
   midi.NoteOffEvent(tick=480, channel=7, data=[74, 0]),
   midi.NoteOnEvent(tick=0, channel=7, data=[79, 66]),
   midi.NoteOffEvent(tick=480, channel=7, data=[79, 0]),
   midi.NoteOnEvent(tick=0, channel=7, data=[79, 65]),
   midi.NoteOffEvent(tick=480, channel=7, data=[79, 0]),
   midi.NoteOnEvent(tick=0, channel=7, data=[77, 78]),
   midi.NoteOffEvent(tick=480, channel=7, data=[77, 0]),
   midi.NoteOnEvent(tick=0, channel=7, data=[75, 95]),
   midi.NoteOffEvent(tick=960, channel=7, data=[75, 0]),
   midi.NoteOnEvent(tick=960, channel=7, data=[56, 94]),
   midi.NoteOnEvent(tick=229, channel=7, data=[66, 94]),
   midi.NoteOnEvent(tick=229, channel=7, data=[72, 94]),
   midi.NoteOffEvent(tick=502, channel=7, data=[56, 0]),
   midi.NoteOffEvent(tick=0, channel=7, data=[66, 0]),
   midi.NoteOffEvent(tick=0, channel=7, data=[72, 0]),
   midi.NoteOnEvent(tick=960, channel=7, data=[55, 109]),
   midi.NoteOnEvent(tick=229, channel=7, data=[62, 109]),
   midi.NoteOnEvent(tick=229, channel=7, data=[71, 109]),
   midi.NoteOnEvent(tick=228, channel=7, data=[79, 109]),
   midi.NoteOffEvent(tick=3154, channel=7, data=[55, 0]),
   midi.NoteOffEvent(tick=0, channel=7, data=[62, 0]),
   midi.NoteOffEvent(tick=0, channel=7, data=[71, 0]),
   midi.NoteOffEvent(tick=0, channel=7, data=[79, 0]),
   midi.NoteOnEvent(tick=480, channel=7, data=[68, 109]),
   midi.NoteOffEvent(tick=480, channel=7, data=[68, 0]),
   midi.NoteOnEvent(tick=0, channel=7, data=[68, 110]),
   midi.NoteOffEvent(tick=480, channel=7, data=[68, 0]),
   midi.NoteOnEvent(tick=0, channel=7, data=[68, 110]),
   midi.NoteOffEvent(tick=480, channel=7, data=[68, 0]),
   midi.NoteOnEvent(tick=0, channel=7, data=[65, 110]),
   midi.NoteOffEvent(tick=3840, channel=7, data=[65, 0]),
   midi.NoteOnEvent(tick=480, channel=7, data=[68, 61]),
   midi.NoteOffEvent(tick=480, channel=7, data=[68, 0]),
   midi.NoteOnEvent(tick=0, channel=7, data=[68, 61]),
   midi.NoteOffEvent(tick=480, channel=7, data=[68, 0]),
   midi.NoteOnEvent(tick=0, channel=7, data=[68, 61]),
   midi.NoteOffEvent(tick=480, channel=7, data=[68, 0]),
   midi.NoteOnEvent(tick=0, channel=7, data=[65, 60]),
   midi.NoteOffEvent(tick=5760, channel=7, data=[65, 0]),
   midi.NoteOnEvent(tick=0, channel=7, data=[63, 64]),
   midi.NoteOffEvent(tick=480, channel=7, data=[63, 0]),
   midi.NoteOnEvent(tick=0, channel=7, data=[68, 64]),
   midi.NoteOffEvent(tick=480, channel=7, data=[68, 0]),
   midi.NoteOnEvent(tick=0, channel=7, data=[68, 63]),
   midi.NoteOffEvent(tick=480, channel=7, data=[68, 0]),
   midi.NoteOnEvent(tick=0, channel=7, data=[68, 63]),
   midi.NoteOffEvent(tick=480, channel=7, data=[68, 0]),
   midi.NoteOnEvent(tick=0, channel=7, data=[65, 61]),
   midi.NoteOffEvent(tick=5760, channel=7, data=[65, 0]),
   midi.NoteOnEvent(tick=0, channel=7, data=[63, 64]),
   midi.NoteOffEvent(tick=480, channel=7, data=[63, 0]),
   midi.NoteOnEvent(tick=0, channel=7, data=[67, 63]),
   midi.NoteOffEvent(tick=480, channel=7, data=[67, 0]),
   midi.NoteOnEvent(tick=0, channel=7, data=[72, 67]),
   midi.NoteOffEvent(tick=480, channel=7, data=[72, 0]),
   midi.NoteOnEvent(tick=0, channel=7, data=[72, 67]),
   midi.NoteOffEvent(tick=480, channel=7, data=[72, 0]),
   midi.NoteOnEvent(tick=0, channel=7, data=[72, 96]),
   midi.NoteOffEvent(tick=1920, channel=7, data=[72, 0]),
   midi.NoteOnEvent(tick=0, channel=7, data=[71, 91]),
   midi.NoteOffEvent(tick=480, channel=7, data=[71, 0]),
   midi.NoteOnEvent(tick=0, channel=7, data=[71, 85]),
   midi.NoteOffEvent(tick=480, channel=7, data=[71, 0]),
   midi.NoteOnEvent(tick=0, channel=7, data=[71, 85]),
   midi.NoteOffEvent(tick=480, channel=7, data=[71, 0]),
   midi.NoteOnEvent(tick=0, channel=7, data=[74, 93]),
   midi.NoteOffEvent(tick=480, channel=7, data=[74, 0]),
   midi.NoteOnEvent(tick=0, channel=7, data=[74, 97]),
   midi.NoteOffEvent(tick=1920, channel=7, data=[74, 0]),
   midi.NoteOnEvent(tick=0, channel=7, data=[72, 88]),
   midi.NoteOffEvent(tick=480, channel=7, data=[72, 0]),
   midi.NoteOnEvent(tick=0, channel=7, data=[72, 83]),
   midi.NoteOffEvent(tick=480, channel=7, data=[72, 0]),
   midi.NoteOnEvent(tick=0, channel=7, data=[72, 83]),
   midi.NoteOffEvent(tick=480, channel=7, data=[72, 0]),
   midi.NoteOnEvent(tick=0, channel=7, data=[75, 92]),
   midi.NoteOffEvent(tick=480, channel=7, data=[75, 0]),
   midi.NoteOnEvent(tick=0, channel=7, data=[75, 112]),
   midi.NoteOnEvent(tick=480, channel=7, data=[74, 100]),
   midi.NoteOffEvent(tick=8, channel=7, data=[75, 0]),
   midi.NoteOffEvent(tick=446, channel=7, data=[74, 0]),
   midi.NoteOnEvent(tick=26, channel=7, data=[74, 100]),
   midi.NoteOffEvent(tick=240, channel=7, data=[74, 0]),
   midi.NoteOnEvent(tick=240, channel=7, data=[77, 109]),
   midi.NoteOffEvent(tick=240, channel=7, data=[77, 0]),
   midi.NoteOnEvent(tick=240, channel=7, data=[77, 114]),
   midi.NoteOnEvent(tick=480, channel=7, data=[76, 103]),
   midi.NoteOffEvent(tick=8, channel=7, data=[77, 0]),
   midi.NoteOffEvent(tick=446, channel=7, data=[76, 0]),
   midi.NoteOnEvent(tick=26, channel=7, data=[76, 102]),
   midi.NoteOffEvent(tick=240, channel=7, data=[76, 0]),
   midi.NoteOnEvent(tick=240, channel=7, data=[79, 109]),
   midi.NoteOffEvent(tick=240, channel=7, data=[79, 0]),
   midi.NoteOnEvent(tick=240, channel=7, data=[79, 115]),
   midi.NoteOnEvent(tick=480, channel=7, data=[77, 100]),
   midi.NoteOffEvent(tick=8, channel=7, data=[79, 0]),
   midi.NoteOffEvent(tick=446, channel=7, data=[77, 0]),
   midi.NoteOnEvent(tick=26, channel=7, data=[77, 99]),
   midi.NoteOffEvent(tick=240, channel=7, data=[77, 0]),
   midi.NoteOnEvent(tick=240, channel=7, data=[80, 108]),
   midi.NoteOffEvent(tick=240, channel=7, data=[80, 0]),
   midi.NoteOnEvent(tick=240, channel=7, data=[80, 112]),
   midi.NoteOnEvent(tick=480, channel=7, data=[79, 101]),
   midi.NoteOffEvent(tick=8, channel=7, data=[80, 0]),
   midi.NoteOffEvent(tick=446, channel=7, data=[79, 0]),
   midi.NoteOnEvent(tick=26, channel=7, data=[79, 100]),
   midi.NoteOffEvent(tick=240, channel=7, data=[79, 0]),
   midi.NoteOnEvent(tick=240, channel=7, data=[82, 108]),
   midi.NoteOffEvent(tick=240, channel=7, data=[82, 0]),
   midi.NoteOnEvent(tick=240, channel=7, data=[82, 113]),
   midi.NoteOnEvent(tick=480, channel=7, data=[80, 99]),
   midi.NoteOffEvent(tick=8, channel=7, data=[82, 0]),
   midi.NoteOffEvent(tick=446, channel=7, data=[80, 0]),
   midi.NoteOnEvent(tick=26, channel=7, data=[80, 98]),
   midi.NoteOffEvent(tick=240, channel=7, data=[80, 0]),
   midi.NoteOnEvent(tick=240, channel=7, data=[84, 109]),
   midi.NoteOffEvent(tick=240, channel=7, data=[84, 0]),
   midi.NoteOnEvent(tick=240, channel=7, data=[84, 114]),
   midi.NoteOnEvent(tick=480, channel=7, data=[83, 103]),
   midi.NoteOffEvent(tick=8, channel=7, data=[84, 0]),
   midi.NoteOffEvent(tick=446, channel=7, data=[83, 0]),
   midi.NoteOnEvent(tick=26, channel=7, data=[83, 102]),
   midi.NoteOffEvent(tick=240, channel=7, data=[83, 0]),
   midi.NoteOnEvent(tick=240, channel=7, data=[86, 109]),
   midi.NoteOffEvent(tick=240, channel=7, data=[86, 0]),
   midi.NoteOnEvent(tick=240, channel=7, data=[84, 108]),
   midi.NoteOffEvent(tick=480, channel=7, data=[84, 0]),
   midi.NoteOnEvent(tick=0, channel=7, data=[87, 109]),
   midi.NoteOffEvent(tick=480, channel=7, data=[87, 0]),
   midi.NoteOnEvent(tick=0, channel=7, data=[87, 108]),
   midi.NoteOffEvent(tick=480, channel=7, data=[87, 0]),
   midi.NoteOnEvent(tick=0, channel=7, data=[87, 106]),
   midi.NoteOffEvent(tick=480, channel=7, data=[87, 0]),
   midi.NoteOnEvent(tick=0, channel=7, data=[84, 98]),
   midi.NoteOffEvent(tick=480, channel=7, data=[84, 0]),
   midi.NoteOnEvent(tick=0, channel=7, data=[79, 83]),
   midi.NoteOffEvent(tick=480, channel=7, data=[79, 0]),
   midi.NoteOnEvent(tick=0, channel=7, data=[79, 83]),
   midi.NoteOffEvent(tick=480, channel=7, data=[79, 0]),
   midi.NoteOnEvent(tick=0, channel=7, data=[79, 84]),
   midi.NoteOffEvent(tick=480, channel=7, data=[79, 0]),
   midi.NoteOnEvent(tick=0, channel=7, data=[75, 88]),
   midi.NoteOffEvent(tick=480, channel=7, data=[75, 0]),
   midi.NoteOnEvent(tick=0, channel=7, data=[72, 83]),
   midi.NoteOffEvent(tick=480, channel=7, data=[72, 0]),
   midi.NoteOnEvent(tick=0, channel=7, data=[67, 83]),
   midi.NoteOffEvent(tick=480, channel=7, data=[67, 0]),
   midi.NoteOnEvent(tick=0, channel=7, data=[67, 83]),
   midi.NoteOffEvent(tick=480, channel=7, data=[67, 0]),
   midi.NoteOnEvent(tick=0, channel=7, data=[63, 88]),
   midi.NoteOffEvent(tick=480, channel=7, data=[63, 0]),
   midi.NoteOnEvent(tick=0, channel=7, data=[60, 83]),
   midi.NoteOffEvent(tick=480, channel=7, data=[60, 0]),
   midi.NoteOnEvent(tick=0, channel=7, data=[60, 83]),
   midi.NoteOffEvent(tick=480, channel=7, data=[60, 0]),
   midi.NoteOnEvent(tick=0, channel=7, data=[60, 83]),
   midi.NoteOffEvent(tick=480, channel=7, data=[60, 0]),
   midi.NoteOnEvent(tick=0, channel=7, data=[59, 88]),
   midi.NoteOffEvent(tick=480, channel=7, data=[59, 0]),
   midi.NoteOnEvent(tick=0, channel=7, data=[89, 112]),
   midi.NoteOffEvent(tick=480, channel=7, data=[89, 0]),
   midi.NoteOnEvent(tick=0, channel=7, data=[86, 112]),
   midi.NoteOffEvent(tick=480, channel=7, data=[86, 0]),
   midi.NoteOnEvent(tick=0, channel=7, data=[86, 112]),
   midi.NoteOffEvent(tick=480, channel=7, data=[86, 0]),
   midi.NoteOnEvent(tick=0, channel=7, data=[83, 119]),
   midi.NoteOffEvent(tick=480, channel=7, data=[83, 0]),
   midi.NoteOnEvent(tick=0, channel=7, data=[79, 105]),
   midi.NoteOffEvent(tick=480, channel=7, data=[79, 0]),
   midi.NoteOnEvent(tick=0, channel=7, data=[77, 96]),
   midi.NoteOffEvent(tick=480, channel=7, data=[77, 0]),
   midi.NoteOnEvent(tick=0, channel=7, data=[77, 95]),
   midi.NoteOffEvent(tick=480, channel=7, data=[77, 0]),
   midi.NoteOnEvent(tick=0, channel=7, data=[74, 91]),
   midi.NoteOffEvent(tick=480, channel=7, data=[74, 0]),
   midi.NoteOnEvent(tick=0, channel=7, data=[71, 83]),
   midi.NoteOffEvent(tick=480, channel=7, data=[71, 0]),
   midi.NoteOnEvent(tick=0, channel=7, data=[67, 83]),
   midi.NoteOffEvent(tick=480, channel=7, data=[67, 0]),
   midi.NoteOnEvent(tick=0, channel=7, data=[65, 83]),
   midi.NoteOffEvent(tick=480, channel=7, data=[65, 0]),
   midi.NoteOnEvent(tick=0, channel=7, data=[62, 88]),
   midi.NoteOffEvent(tick=480, channel=7, data=[62, 0]),
   midi.NoteOnEvent(tick=0, channel=7, data=[59, 83]),
   midi.NoteOffEvent(tick=480, channel=7, data=[59, 0]),
   midi.NoteOnEvent(tick=0, channel=7, data=[60, 83]),
   midi.NoteOffEvent(tick=480, channel=7, data=[60, 0]),
   midi.NoteOnEvent(tick=0, channel=7, data=[60, 83]),
   midi.NoteOffEvent(tick=480, channel=7, data=[60, 0]),
   midi.NoteOnEvent(tick=0, channel=7, data=[60, 102]),
   midi.NoteOffEvent(tick=480, channel=7, data=[60, 0]),
   midi.NoteOnEvent(tick=0, channel=7, data=[87, 127]),
   midi.NoteOffEvent(tick=480, channel=7, data=[87, 0]),
   midi.NoteOnEvent(tick=0, channel=7, data=[87, 127]),
   midi.NoteOffEvent(tick=480, channel=7, data=[87, 0]),
   midi.NoteOnEvent(tick=0, channel=7, data=[87, 127]),
   midi.NoteOffEvent(tick=480, channel=7, data=[87, 0]),
   midi.NoteOnEvent(tick=0, channel=7, data=[84, 127]),
   midi.NoteOffEvent(tick=480, channel=7, data=[84, 0]),
   midi.NoteOnEvent(tick=0, channel=7, data=[81, 126]),
   midi.NoteOffEvent(tick=480, channel=7, data=[81, 0]),
   midi.NoteOnEvent(tick=0, channel=7, data=[81, 123]),
   midi.NoteOffEvent(tick=480, channel=7, data=[81, 0]),
   midi.NoteOnEvent(tick=0, channel=7, data=[81, 120]),
   midi.NoteOffEvent(tick=480, channel=7, data=[81, 0]),
   midi.NoteOnEvent(tick=0, channel=7, data=[78, 110]),
   midi.NoteOffEvent(tick=480, channel=7, data=[78, 0]),
   midi.NoteOnEvent(tick=0, channel=7, data=[75, 96]),
   midi.NoteOffEvent(tick=480, channel=7, data=[75, 0]),
   midi.NoteOnEvent(tick=0, channel=7, data=[75, 97]),
   midi.NoteOffEvent(tick=480, channel=7, data=[75, 0]),
   midi.NoteOnEvent(tick=0, channel=7, data=[75, 98]),
   midi.NoteOffEvent(tick=480, channel=7, data=[75, 0]),
   midi.NoteOnEvent(tick=0, channel=7, data=[72, 102]),
   midi.NoteOffEvent(tick=480, channel=7, data=[72, 0]),
   midi.NoteOnEvent(tick=0, channel=7, data=[57, 96]),
   midi.NoteOnEvent(tick=0, channel=7, data=[69, 96]),
   midi.NoteOffEvent(tick=480, channel=7, data=[57, 0]),
   midi.NoteOffEvent(tick=0, channel=7, data=[69, 0]),
   midi.NoteOnEvent(tick=0, channel=7, data=[57, 96]),
   midi.NoteOnEvent(tick=0, channel=7, data=[69, 96]),
   midi.NoteOffEvent(tick=480, channel=7, data=[57, 0]),
   midi.NoteOffEvent(tick=0, channel=7, data=[69, 0]),
   midi.NoteOnEvent(tick=0, channel=7, data=[57, 96]),
   midi.NoteOnEvent(tick=0, channel=7, data=[69, 96]),
   midi.NoteOffEvent(tick=480, channel=7, data=[57, 0]),
   midi.NoteOffEvent(tick=0, channel=7, data=[69, 0]),
   midi.NoteOnEvent(tick=0, channel=7, data=[57, 102]),
   midi.NoteOnEvent(tick=0, channel=7, data=[69, 102]),
   midi.NoteOffEvent(tick=960, channel=7, data=[57, 0]),
   midi.NoteOffEvent(tick=0, channel=7, data=[69, 0]),
   midi.NoteOnEvent(tick=2880, channel=7, data=[58, 120]),
   midi.NoteOnEvent(tick=0, channel=7, data=[65, 120]),
   midi.NoteOnEvent(tick=0, channel=7, data=[70, 120]),
   midi.NoteOffEvent(tick=960, channel=7, data=[58, 0]),
   midi.NoteOffEvent(tick=0, channel=7, data=[65, 0]),
   midi.NoteOffEvent(tick=0, channel=7, data=[70, 0]),
   midi.NoteOnEvent(tick=8640, channel=7, data=[70, 65]),
   midi.NoteOffEvent(tick=960, channel=7, data=[70, 0]),
   midi.NoteOnEvent(tick=0, channel=7, data=[75, 63]),
   midi.NoteOffEvent(tick=960, channel=7, data=[75, 0]),
   midi.NoteOnEvent(tick=0, channel=7, data=[74, 66]),
   midi.NoteOffEvent(tick=960, channel=7, data=[74, 0]),
   midi.NoteOnEvent(tick=0, channel=7, data=[75, 63]),
   midi.NoteOffEvent(tick=960, channel=7, data=[75, 0]),
   midi.NoteOnEvent(tick=0, channel=7, data=[77, 68]),
   midi.NoteOffEvent(tick=960, channel=7, data=[77, 0]),
   midi.NoteOnEvent(tick=0, channel=7, data=[72, 57]),
   midi.NoteOffEvent(tick=960, channel=7, data=[72, 0]),
   midi.NoteOnEvent(tick=0, channel=7, data=[72, 62]),
   midi.NoteOnEvent(tick=960, channel=7, data=[70, 56]),
   midi.NoteOffEvent(tick=19, channel=7, data=[72, 0]),
   midi.NoteOffEvent(tick=892, channel=7, data=[70, 0]),
   midi.NoteOnEvent(tick=7729, channel=7, data=[70, 65]),
   midi.NoteOnEvent(tick=960, channel=7, data=[75, 63]),
   midi.NoteOffEvent(tick=19, channel=7, data=[70, 0]),
   midi.NoteOffEvent(tick=892, channel=7, data=[75, 0]),
   midi.NoteOnEvent(tick=49, channel=7, data=[74, 66]),
   midi.NoteOffEvent(tick=960, channel=7, data=[74, 0]),
   midi.NoteOnEvent(tick=0, channel=7, data=[75, 63]),
   midi.NoteOffEvent(tick=960, channel=7, data=[75, 0]),
   midi.NoteOnEvent(tick=0, channel=7, data=[77, 68]),
   midi.NoteOffEvent(tick=960, channel=7, data=[77, 0]),
   midi.NoteOnEvent(tick=0, channel=7, data=[72, 57]),
   midi.NoteOffEvent(tick=960, channel=7, data=[72, 0]),
   midi.NoteOnEvent(tick=0, channel=7, data=[72, 62]),
   midi.NoteOnEvent(tick=960, channel=7, data=[70, 56]),
   midi.NoteOffEvent(tick=19, channel=7, data=[72, 0]),
   midi.NoteOffEvent(tick=892, channel=7, data=[70, 0]),
   midi.NoteOnEvent(tick=49, channel=7, data=[70, 61]),
   midi.NoteOnEvent(tick=960, channel=7, data=[72, 62]),
   midi.NoteOffEvent(tick=19, channel=7, data=[70, 0]),
   midi.NoteOffEvent(tick=892, channel=7, data=[72, 0]),
   midi.NoteOnEvent(tick=49, channel=7, data=[73, 67]),
   midi.NoteOffEvent(tick=960, channel=7, data=[73, 0]),
   midi.NoteOnEvent(tick=0, channel=7, data=[72, 61]),
   midi.NoteOffEvent(tick=960, channel=7, data=[72, 0]),
   midi.NoteOnEvent(tick=0, channel=7, data=[70, 62]),
   midi.NoteOnEvent(tick=960, channel=7, data=[72, 62]),
   midi.NoteOffEvent(tick=19, channel=7, data=[70, 0]),
   midi.NoteOffEvent(tick=892, channel=7, data=[72, 0]),
   midi.NoteOnEvent(tick=49, channel=7, data=[70, 62]),
   midi.NoteOffEvent(tick=960, channel=7, data=[70, 0]),
   midi.NoteOnEvent(tick=0, channel=7, data=[68, 57]),
   midi.NoteOffEvent(tick=960, channel=7, data=[68, 0]),
   midi.NoteOnEvent(tick=0, channel=7, data=[73, 69]),
   midi.NoteOnEvent(tick=960, channel=7, data=[75, 67]),
   midi.NoteOffEvent(tick=19, channel=7, data=[73, 0]),
   midi.NoteOffEvent(tick=892, channel=7, data=[75, 0]),
   midi.NoteOnEvent(tick=49, channel=7, data=[77, 71]),
   midi.NoteOffEvent(tick=960, channel=7, data=[77, 0]),
   midi.NoteOnEvent(tick=0, channel=7, data=[75, 63]),
   midi.NoteOffEvent(tick=960, channel=7, data=[75, 0]),
   midi.NoteOnEvent(tick=0, channel=7, data=[73, 63]),
   midi.NoteOnEvent(tick=960, channel=7, data=[75, 62]),
   midi.NoteOffEvent(tick=19, channel=7, data=[73, 0]),
   midi.NoteOffEvent(tick=892, channel=7, data=[75, 0]),
   midi.NoteOnEvent(tick=49, channel=7, data=[73, 62]),
   midi.NoteOffEvent(tick=960, channel=7, data=[73, 0]),
   midi.NoteOnEvent(tick=0, channel=7, data=[72, 58]),
   midi.NoteOffEvent(tick=960, channel=7, data=[72, 0]),
   midi.NoteOnEvent(tick=0, channel=7, data=[75, 67]),
   midi.NoteOnEvent(tick=960, channel=7, data=[77, 65]),
   midi.NoteOffEvent(tick=19, channel=7, data=[75, 0]),
   midi.NoteOffEvent(tick=892, channel=7, data=[77, 0]),
   midi.NoteOnEvent(tick=49, channel=7, data=[78, 69]),
   midi.NoteOffEvent(tick=960, channel=7, data=[78, 0]),
   midi.NoteOnEvent(tick=0, channel=7, data=[77, 68]),
   midi.NoteOffEvent(tick=960, channel=7, data=[77, 0]),
   midi.NoteOnEvent(tick=0, channel=7, data=[75, 73]),
   midi.NoteOffEvent(tick=960, channel=7, data=[75, 0]),
   midi.NoteOnEvent(tick=0, channel=7, data=[77, 73]),
   midi.NoteOffEvent(tick=960, channel=7, data=[77, 0]),
   midi.NoteOnEvent(tick=0, channel=7, data=[78, 78]),
   midi.NoteOnEvent(tick=960, channel=7, data=[77, 71]),
   midi.NoteOffEvent(tick=19, channel=7, data=[78, 0]),
   midi.NoteOffEvent(tick=892, channel=7, data=[77, 0]),
   midi.NoteOnEvent(tick=49, channel=7, data=[75, 72]),
   midi.NoteOffEvent(tick=960, channel=7, data=[75, 0]),
   midi.NoteOnEvent(tick=0, channel=7, data=[77, 72]),
   midi.NoteOffEvent(tick=960, channel=7, data=[77, 0]),
   midi.NoteOnEvent(tick=0, channel=7, data=[78, 92]),
   midi.NoteOnEvent(tick=960, channel=7, data=[77, 84]),
   midi.NoteOffEvent(tick=19, channel=7, data=[78, 0]),
   midi.NoteOffEvent(tick=892, channel=7, data=[77, 0]),
   midi.NoteOnEvent(tick=49, channel=7, data=[75, 85]),
   midi.NoteOffEvent(tick=960, channel=7, data=[75, 0]),
   midi.NoteOnEvent(tick=0, channel=7, data=[77, 85]),
   midi.NoteOffEvent(tick=960, channel=7, data=[77, 0]),
   midi.NoteOnEvent(tick=0, channel=7, data=[78, 92]),
   midi.NoteOnEvent(tick=960, channel=7, data=[77, 84]),
   midi.NoteOffEvent(tick=19, channel=7, data=[78, 0]),
   midi.NoteOffEvent(tick=892, channel=7, data=[77, 0]),
   midi.NoteOnEvent(tick=49, channel=7, data=[75, 85]),
   midi.NoteOffEvent(tick=960, channel=7, data=[75, 0]),
   midi.NoteOnEvent(tick=0, channel=7, data=[77, 85]),
   midi.NoteOffEvent(tick=960, channel=7, data=[77, 0]),
   midi.NoteOnEvent(tick=0, channel=7, data=[78, 92]),
   midi.NoteOnEvent(tick=960, channel=7, data=[77, 84]),
   midi.NoteOffEvent(tick=19, channel=7, data=[78, 0]),
   midi.NoteOffEvent(tick=892, channel=7, data=[77, 0]),
   midi.NoteOnEvent(tick=49, channel=7, data=[78, 91]),
   midi.NoteOnEvent(tick=960, channel=7, data=[81, 91]),
   midi.NoteOffEvent(tick=19, channel=7, data=[78, 0]),
   midi.NoteOffEvent(tick=892, channel=7, data=[81, 0]),
   midi.NoteOnEvent(tick=49, channel=7, data=[82, 127]),
   midi.NoteOnEvent(tick=0, channel=7, data=[70, 120]),
   midi.NoteOffEvent(tick=2400, channel=7, data=[82, 0]),
   midi.NoteOffEvent(tick=0, channel=7, data=[70, 0]),
   midi.NoteOnEvent(tick=0, channel=7, data=[84, 119]),
   midi.NoteOffEvent(tick=480, channel=7, data=[84, 0]),
   midi.NoteOnEvent(tick=0, channel=7, data=[82, 113]),
   midi.NoteOffEvent(tick=480, channel=7, data=[82, 0]),
   midi.NoteOnEvent(tick=0, channel=7, data=[80, 108]),
   midi.NoteOffEvent(tick=480, channel=7, data=[80, 0]),
   midi.NoteOnEvent(tick=0, channel=7, data=[80, 115]),
   midi.NoteOnEvent(tick=480, channel=7, data=[79, 105]),
   midi.NoteOffEvent(tick=8, channel=7, data=[80, 0]),
   midi.NoteOffEvent(tick=446, channel=7, data=[79, 0]),
   midi.NoteOnEvent(tick=26, channel=7, data=[77, 100]),
   midi.NoteOffEvent(tick=240, channel=7, data=[77, 0]),
   midi.NoteOnEvent(tick=240, channel=7, data=[75, 98]),
   midi.NoteOffEvent(tick=240, channel=7, data=[75, 0]),
   midi.NoteOnEvent(tick=240, channel=7, data=[75, 105]),
   midi.NoteOnEvent(tick=480, channel=7, data=[74, 99]),
   midi.NoteOffEvent(tick=8, channel=7, data=[75, 0]),
   midi.NoteOffEvent(tick=446, channel=7, data=[74, 0]),
   midi.NoteOnEvent(tick=26, channel=7, data=[72, 96]),
   midi.NoteOffEvent(tick=240, channel=7, data=[72, 0]),
   midi.NoteOnEvent(tick=240, channel=7, data=[74, 102]),
   midi.NoteOffEvent(tick=240, channel=7, data=[74, 0]),
   midi.NoteOnEvent(tick=240, channel=7, data=[77, 121]),
   midi.NoteOnEvent(tick=480, channel=7, data=[75, 107]),
   midi.NoteOffEvent(tick=8, channel=7, data=[77, 0]),
   midi.NoteOffEvent(tick=446, channel=7, data=[75, 0]),
   midi.NoteOnEvent(tick=26, channel=7, data=[70, 96]),
   midi.NoteOffEvent(tick=240, channel=7, data=[70, 0]),
   midi.NoteOnEvent(tick=240, channel=7, data=[67, 96]),
   midi.NoteOffEvent(tick=240, channel=7, data=[67, 0]),
   midi.NoteOnEvent(tick=240, channel=7, data=[74, 117]),
   midi.NoteOnEvent(tick=480, channel=7, data=[72, 104]),
   midi.NoteOffEvent(tick=8, channel=7, data=[74, 0]),
   midi.NoteOffEvent(tick=446, channel=7, data=[72, 0]),
   midi.NoteOnEvent(tick=26, channel=7, data=[68, 96]),
   midi.NoteOffEvent(tick=240, channel=7, data=[68, 0]),
   midi.NoteOnEvent(tick=240, channel=7, data=[65, 96]),
   midi.NoteOffEvent(tick=240, channel=7, data=[65, 0]),
   midi.NoteOnEvent(tick=240, channel=7, data=[72, 118]),
   midi.NoteOnEvent(tick=480, channel=7, data=[70, 105]),
   midi.NoteOffEvent(tick=8, channel=7, data=[72, 0]),
   midi.NoteOffEvent(tick=446, channel=7, data=[70, 0]),
   midi.NoteOnEvent(tick=26, channel=7, data=[67, 98]),
   midi.NoteOffEvent(tick=240, channel=7, data=[67, 0]),
   midi.NoteOnEvent(tick=240, channel=7, data=[63, 96]),
   midi.NoteOffEvent(tick=240, channel=7, data=[63, 0]),
   midi.NoteOnEvent(tick=240, channel=7, data=[58, 102]),
   midi.NoteOffEvent(tick=480, channel=7, data=[58, 0]),
   midi.NoteOnEvent(tick=0, channel=7, data=[81, 127]),
   midi.NoteOnEvent(tick=480, channel=7, data=[82, 127]),
   midi.NoteOffEvent(tick=8, channel=7, data=[81, 0]),
   midi.NoteOffEvent(tick=446, channel=7, data=[82, 0]),
   midi.NoteOnEvent(tick=26, channel=7, data=[81, 127]),
   midi.NoteOffEvent(tick=480, channel=7, data=[81, 0]),
   midi.NoteOnEvent(tick=0, channel=7, data=[82, 127]),
   midi.NoteOffEvent(tick=480, channel=7, data=[82, 0]),
   midi.NoteOnEvent(tick=0, channel=7, data=[81, 127]),
   midi.NoteOffEvent(tick=480, channel=7, data=[81, 0]),
   midi.NoteOnEvent(tick=0, channel=7, data=[82, 127]),
   midi.NoteOffEvent(tick=480, channel=7, data=[82, 0]),
   midi.NoteOnEvent(tick=0, channel=7, data=[81, 122]),
   midi.NoteOffEvent(tick=480, channel=7, data=[81, 0]),
   midi.NoteOnEvent(tick=0, channel=7, data=[82, 127]),
   midi.NoteOffEvent(tick=240, channel=7, data=[82, 0]),
   midi.NoteOnEvent(tick=240, channel=7, data=[84, 127]),
   midi.NoteOffEvent(tick=240, channel=7, data=[84, 0]),
   midi.NoteOnEvent(tick=240, channel=7, data=[82, 119]),
   midi.NoteOffEvent(tick=240, channel=7, data=[82, 0]),
   midi.NoteOnEvent(tick=240, channel=7, data=[80, 111]),
   midi.NoteOffEvent(tick=240, channel=7, data=[80, 0]),
   midi.NoteOnEvent(tick=240, channel=7, data=[80, 117]),
   midi.NoteOnEvent(tick=480, channel=7, data=[79, 107]),
   midi.NoteOffEvent(tick=8, channel=7, data=[80, 0]),
   midi.NoteOffEvent(tick=446, channel=7, data=[79, 0]),
   midi.NoteOnEvent(tick=26, channel=7, data=[77, 101]),
   midi.NoteOffEvent(tick=240, channel=7, data=[77, 0]),
   midi.NoteOnEvent(tick=240, channel=7, data=[75, 98]),
   midi.NoteOffEvent(tick=240, channel=7, data=[75, 0]),
   midi.NoteOnEvent(tick=240, channel=7, data=[75, 106]),
   midi.NoteOnEvent(tick=480, channel=7, data=[74, 100]),
   midi.NoteOffEvent(tick=8, channel=7, data=[75, 0]),
   midi.NoteOffEvent(tick=446, channel=7, data=[74, 0]),
   midi.NoteOnEvent(tick=26, channel=7, data=[72, 97]),
   midi.NoteOffEvent(tick=240, channel=7, data=[72, 0]),
   midi.NoteOnEvent(tick=240, channel=7, data=[74, 104]),
   midi.NoteOffEvent(tick=240, channel=7, data=[74, 0]),
   midi.NoteOnEvent(tick=240, channel=7, data=[77, 122]),
   midi.NoteOnEvent(tick=480, channel=7, data=[75, 108]),
   midi.NoteOffEvent(tick=8, channel=7, data=[77, 0]),
   midi.NoteOffEvent(tick=446, channel=7, data=[75, 0]),
   midi.NoteOnEvent(tick=26, channel=7, data=[70, 96]),
   midi.NoteOffEvent(tick=240, channel=7, data=[70, 0]),
   midi.NoteOnEvent(tick=240, channel=7, data=[67, 96]),
   midi.NoteOffEvent(tick=240, channel=7, data=[67, 0]),
   midi.NoteOnEvent(tick=240, channel=7, data=[74, 118]),
   midi.NoteOnEvent(tick=480, channel=7, data=[72, 105]),
   midi.NoteOffEvent(tick=8, channel=7, data=[74, 0]),
   midi.NoteOffEvent(tick=446, channel=7, data=[72, 0]),
   midi.NoteOnEvent(tick=26, channel=7, data=[68, 96]),
   midi.NoteOffEvent(tick=240, channel=7, data=[68, 0]),
   midi.NoteOnEvent(tick=240, channel=7, data=[65, 96]),
   midi.NoteOffEvent(tick=240, channel=7, data=[65, 0]),
   midi.NoteOnEvent(tick=240, channel=7, data=[72, 118]),
   midi.NoteOnEvent(tick=480, channel=7, data=[70, 105]),
   midi.NoteOffEvent(tick=8, channel=7, data=[72, 0]),
   midi.NoteOffEvent(tick=446, channel=7, data=[70, 0]),
   midi.NoteOnEvent(tick=26, channel=7, data=[67, 98]),
   midi.NoteOffEvent(tick=240, channel=7, data=[67, 0]),
   midi.NoteOnEvent(tick=240, channel=7, data=[63, 96]),
   midi.NoteOffEvent(tick=240, channel=7, data=[63, 0]),
   midi.NoteOnEvent(tick=240, channel=7, data=[58, 102]),
   midi.NoteOffEvent(tick=480, channel=7, data=[58, 0]),
   midi.NoteOnEvent(tick=0, channel=7, data=[70, 123]),
   midi.NoteOffEvent(tick=480, channel=7, data=[70, 0]),
   midi.NoteOnEvent(tick=0, channel=7, data=[82, 127]),
   midi.NoteOffEvent(tick=480, channel=7, data=[82, 0]),
   midi.NoteOnEvent(tick=0, channel=7, data=[82, 127]),
   midi.NoteOffEvent(tick=480, channel=7, data=[82, 0]),
   midi.NoteOnEvent(tick=0, channel=7, data=[75, 127]),
   midi.NoteOffEvent(tick=6240, channel=7, data=[75, 0]),
   midi.NoteOnEvent(tick=0, channel=7, data=[77, 113]),
   midi.NoteOffEvent(tick=480, channel=7, data=[77, 0]),
   midi.NoteOnEvent(tick=0, channel=7, data=[77, 113]),
   midi.NoteOffEvent(tick=480, channel=7, data=[77, 0]),
   midi.NoteOnEvent(tick=0, channel=7, data=[77, 113]),
   midi.NoteOffEvent(tick=480, channel=7, data=[77, 0]),
   midi.NoteOnEvent(tick=0, channel=7, data=[79, 125]),
   midi.NoteOffEvent(tick=6240, channel=7, data=[79, 0]),
   midi.NoteOnEvent(tick=0, channel=7, data=[82, 114]),
   midi.NoteOnEvent(tick=0, channel=7, data=[70, 113]),
   midi.NoteOffEvent(tick=480, channel=7, data=[82, 0]),
   midi.NoteOffEvent(tick=0, channel=7, data=[70, 0]),
   midi.NoteOnEvent(tick=0, channel=7, data=[82, 113]),
   midi.NoteOnEvent(tick=0, channel=7, data=[70, 113]),
   midi.NoteOffEvent(tick=480, channel=7, data=[82, 0]),
   midi.NoteOffEvent(tick=0, channel=7, data=[70, 0]),
   midi.NoteOnEvent(tick=0, channel=7, data=[82, 113]),
   midi.NoteOnEvent(tick=0, channel=7, data=[70, 113]),
   midi.NoteOffEvent(tick=480, channel=7, data=[82, 0]),
   midi.NoteOffEvent(tick=0, channel=7, data=[70, 0]),
   midi.NoteOnEvent(tick=0, channel=7, data=[82, 120]),
   midi.NoteOnEvent(tick=0, channel=7, data=[70, 120]),
   midi.NoteOffEvent(tick=960, channel=7, data=[82, 0]),
   midi.NoteOffEvent(tick=0, channel=7, data=[70, 0]),
   midi.NoteOnEvent(tick=1440, channel=7, data=[82, 113]),
   midi.NoteOnEvent(tick=0, channel=7, data=[70, 113]),
   midi.NoteOffEvent(tick=480, channel=7, data=[82, 0]),
   midi.NoteOffEvent(tick=0, channel=7, data=[70, 0]),
   midi.NoteOnEvent(tick=0, channel=7, data=[82, 113]),
   midi.NoteOnEvent(tick=0, channel=7, data=[70, 113]),
   midi.NoteOffEvent(tick=480, channel=7, data=[82, 0]),
   midi.NoteOffEvent(tick=0, channel=7, data=[70, 0]),
   midi.NoteOnEvent(tick=0, channel=7, data=[82, 113]),
   midi.NoteOnEvent(tick=0, channel=7, data=[70, 113]),
   midi.NoteOffEvent(tick=480, channel=7, data=[82, 0]),
   midi.NoteOffEvent(tick=0, channel=7, data=[70, 0]),
   midi.NoteOnEvent(tick=0, channel=7, data=[82, 120]),
   midi.NoteOnEvent(tick=0, channel=7, data=[70, 120]),
   midi.NoteOffEvent(tick=960, channel=7, data=[82, 0]),
   midi.NoteOffEvent(tick=0, channel=7, data=[70, 0]),
   midi.NoteOnEvent(tick=1440, channel=7, data=[86, 120]),
   midi.NoteOnEvent(tick=0, channel=7, data=[77, 125]),
   midi.NoteOffEvent(tick=480, channel=7, data=[86, 0]),
   midi.NoteOffEvent(tick=0, channel=7, data=[77, 0]),
   midi.NoteOnEvent(tick=0, channel=7, data=[86, 119]),
   midi.NoteOnEvent(tick=0, channel=7, data=[77, 123]),
   midi.NoteOffEvent(tick=480, channel=7, data=[86, 0]),
   midi.NoteOffEvent(tick=0, channel=7, data=[77, 0]),
   midi.NoteOnEvent(tick=0, channel=7, data=[86, 118]),
   midi.NoteOnEvent(tick=0, channel=7, data=[77, 121]),
   midi.NoteOffEvent(tick=480, channel=7, data=[86, 0]),
   midi.NoteOffEvent(tick=0, channel=7, data=[77, 0]),
   midi.NoteOnEvent(tick=0, channel=7, data=[87, 127]),
   midi.NoteOnEvent(tick=0, channel=7, data=[79, 127]),
   midi.NoteOffEvent(tick=960, channel=7, data=[87, 0]),
   midi.NoteOffEvent(tick=0, channel=7, data=[79, 0]),
   midi.NoteOnEvent(tick=7200, channel=7, data=[61, 113]),
   midi.NoteOffEvent(tick=480, channel=7, data=[61, 0]),
   midi.NoteOnEvent(tick=0, channel=7, data=[61, 113]),
   midi.NoteOffEvent(tick=480, channel=7, data=[61, 0]),
   midi.NoteOnEvent(tick=0, channel=7, data=[61, 113]),
   midi.NoteOffEvent(tick=480, channel=7, data=[61, 0]),
   midi.NoteOnEvent(tick=0, channel=7, data=[60, 117]),
   midi.NoteOffEvent(tick=3840, channel=7, data=[60, 0]),
   midi.NoteOnEvent(tick=4320, channel=7, data=[80, 61]),
   midi.NoteOffEvent(tick=480, channel=7, data=[80, 0]),
   midi.NoteOnEvent(tick=0, channel=7, data=[80, 61]),
   midi.NoteOffEvent(tick=480, channel=7, data=[80, 0]),
   midi.NoteOnEvent(tick=0, channel=7, data=[80, 61]),
   midi.NoteOffEvent(tick=480, channel=7, data=[80, 0]),
   midi.NoteOnEvent(tick=0, channel=7, data=[77, 60]),
   midi.NoteOffEvent(tick=2880, channel=7, data=[77, 0]),
   midi.NoteOnEvent(tick=3360, channel=7, data=[82, 61]),
   midi.NoteOffEvent(tick=480, channel=7, data=[82, 0]),
   midi.NoteOnEvent(tick=0, channel=7, data=[82, 61]),
   midi.NoteOffEvent(tick=480, channel=7, data=[82, 0]),
   midi.NoteOnEvent(tick=0, channel=7, data=[82, 61]),
   midi.NoteOffEvent(tick=480, channel=7, data=[82, 0]),
   midi.NoteOnEvent(tick=0, channel=7, data=[79, 60]),
   midi.NoteOffEvent(tick=2400, channel=7, data=[79, 0]),
   midi.NoteOnEvent(tick=0, channel=7, data=[84, 64]),
   midi.NoteOffEvent(tick=480, channel=7, data=[84, 0]),
   midi.NoteOnEvent(tick=0, channel=7, data=[84, 63]),
   midi.NoteOffEvent(tick=480, channel=7, data=[84, 0]),
   midi.NoteOnEvent(tick=0, channel=7, data=[82, 60]),
   midi.NoteOffEvent(tick=480, channel=7, data=[82, 0]),
   midi.NoteOnEvent(tick=0, channel=7, data=[80, 60]),
   midi.NoteOnEvent(tick=1920, channel=7, data=[79, 61]),
   midi.NoteOffEvent(tick=38, channel=7, data=[80, 0]),
   midi.NoteOffEvent(tick=416, channel=7, data=[79, 0]),
   midi.NoteOnEvent(tick=26, channel=7, data=[84, 65]),
   midi.NoteOffEvent(tick=480, channel=7, data=[84, 0]),
   midi.NoteOnEvent(tick=0, channel=7, data=[84, 65]),
   midi.NoteOffEvent(tick=480, channel=7, data=[84, 0]),
   midi.NoteOnEvent(tick=0, channel=7, data=[82, 60]),
   midi.NoteOffEvent(tick=480, channel=7, data=[82, 0]),
   midi.NoteOnEvent(tick=0, channel=7, data=[80, 59]),
   midi.NoteOnEvent(tick=1920, channel=7, data=[79, 61]),
   midi.NoteOffEvent(tick=38, channel=7, data=[80, 0]),
   midi.NoteOffEvent(tick=416, channel=7, data=[79, 0]),
   midi.NoteOnEvent(tick=26, channel=7, data=[84, 66]),
   midi.NoteOffEvent(tick=480, channel=7, data=[84, 0]),
   midi.NoteOnEvent(tick=0, channel=7, data=[84, 65]),
   midi.NoteOffEvent(tick=480, channel=7, data=[84, 0]),
   midi.NoteOnEvent(tick=0, channel=7, data=[82, 60]),
   midi.NoteOffEvent(tick=480, channel=7, data=[82, 0]),
   midi.NoteOnEvent(tick=0, channel=7, data=[80, 59]),
   midi.NoteOffEvent(tick=480, channel=7, data=[80, 0]),
   midi.NoteOnEvent(tick=0, channel=7, data=[80, 57]),
   midi.NoteOffEvent(tick=480, channel=7, data=[80, 0]),
   midi.NoteOnEvent(tick=0, channel=7, data=[80, 57]),
   midi.NoteOffEvent(tick=480, channel=7, data=[80, 0]),
   midi.NoteOnEvent(tick=0, channel=7, data=[79, 55]),
   midi.NoteOffEvent(tick=480, channel=7, data=[79, 0]),
   midi.NoteOnEvent(tick=0, channel=7, data=[77, 56]),
   midi.NoteOffEvent(tick=480, channel=7, data=[77, 0]),
   midi.NoteOnEvent(tick=0, channel=7, data=[77, 54]),
   midi.NoteOffEvent(tick=480, channel=7, data=[77, 0]),
   midi.NoteOnEvent(tick=0, channel=7, data=[77, 54]),
   midi.NoteOffEvent(tick=480, channel=7, data=[77, 0]),
   midi.NoteOnEvent(tick=0, channel=7, data=[75, 52]),
   midi.NoteOffEvent(tick=480, channel=7, data=[75, 0]),
   midi.NoteOnEvent(tick=0, channel=7, data=[74, 55]),
   midi.NoteOffEvent(tick=480, channel=7, data=[74, 0]),
   midi.NoteOnEvent(tick=0, channel=7, data=[74, 53]),
   midi.NoteOffEvent(tick=480, channel=7, data=[74, 0]),
   midi.NoteOnEvent(tick=0, channel=7, data=[74, 54]),
   midi.NoteOffEvent(tick=480, channel=7, data=[74, 0]),
   midi.NoteOnEvent(tick=0, channel=7, data=[72, 52]),
   midi.NoteOffEvent(tick=480, channel=7, data=[72, 0]),
   midi.NoteOnEvent(tick=0, channel=7, data=[71, 55]),
   midi.NoteOffEvent(tick=960, channel=7, data=[71, 0]),
   midi.NoteOnEvent(tick=1440, channel=7, data=[75, 63]),
   midi.NoteOffEvent(tick=480, channel=7, data=[75, 0]),
   midi.NoteOnEvent(tick=0, channel=7, data=[75, 63]),
   midi.NoteOffEvent(tick=480, channel=7, data=[75, 0]),
   midi.NoteOnEvent(tick=0, channel=7, data=[77, 66]),
   midi.NoteOffEvent(tick=480, channel=7, data=[77, 0]),
   midi.NoteOnEvent(tick=0, channel=7, data=[79, 72]),
   midi.NoteOffEvent(tick=2400, channel=7, data=[79, 0]),
   midi.NoteOnEvent(tick=0, channel=7, data=[75, 60]),
   midi.NoteOffEvent(tick=480, channel=7, data=[75, 0]),
   midi.NoteOnEvent(tick=0, channel=7, data=[75, 60]),
   midi.NoteOffEvent(tick=480, channel=7, data=[75, 0]),
   midi.NoteOnEvent(tick=0, channel=7, data=[77, 63]),
   midi.NoteOffEvent(tick=480, channel=7, data=[77, 0]),
   midi.NoteOnEvent(tick=0, channel=7, data=[79, 70]),
   midi.NoteOffEvent(tick=3840, channel=7, data=[79, 0]),
   midi.NoteOnEvent(tick=0, channel=7, data=[80, 66]),
   midi.NoteOffEvent(tick=960, channel=7, data=[80, 0]),
   midi.NoteOnEvent(tick=0, channel=7, data=[82, 63]),
   midi.NoteOffEvent(tick=960, channel=7, data=[82, 0]),
   midi.NoteOnEvent(tick=0, channel=7, data=[84, 68]),
   midi.NoteOffEvent(tick=960, channel=7, data=[84, 0]),
   midi.NoteOnEvent(tick=0, channel=7, data=[85, 64]),
   midi.NoteOffEvent(tick=960, channel=7, data=[85, 0]),
   midi.NoteOnEvent(tick=0, channel=7, data=[86, 68]),
   midi.NoteOnEvent(tick=0, channel=7, data=[74, 65]),
   midi.NoteOffEvent(tick=10080, channel=7, data=[86, 0]),
   midi.NoteOffEvent(tick=0, channel=7, data=[74, 0]),
   midi.NoteOnEvent(tick=0, channel=7, data=[79, 61]),
   midi.NoteOffEvent(tick=480, channel=7, data=[79, 0]),
   midi.NoteOnEvent(tick=0, channel=7, data=[79, 61]),
   midi.NoteOffEvent(tick=480, channel=7, data=[79, 0]),
   midi.NoteOnEvent(tick=0, channel=7, data=[81, 63]),
   midi.NoteOffEvent(tick=480, channel=7, data=[81, 0]),
   midi.NoteOnEvent(tick=0, channel=7, data=[82, 68]),
   midi.NoteOffEvent(tick=960, channel=7, data=[82, 0]),
   midi.NoteOnEvent(tick=1440, channel=7, data=[78, 59]),
   midi.NoteOffEvent(tick=480, channel=7, data=[78, 0]),
   midi.NoteOnEvent(tick=0, channel=7, data=[81, 63]),
   midi.NoteOffEvent(tick=480, channel=7, data=[81, 0]),
   midi.NoteOnEvent(tick=0, channel=7, data=[82, 64]),
   midi.NoteOffEvent(tick=480, channel=7, data=[82, 0]),
   midi.NoteOnEvent(tick=0, channel=7, data=[84, 71]),
   midi.NoteOffEvent(tick=960, channel=7, data=[84, 0]),
   midi.NoteOnEvent(tick=1440, channel=7, data=[78, 57]),
   midi.NoteOffEvent(tick=480, channel=7, data=[78, 0]),
   midi.NoteOnEvent(tick=0, channel=7, data=[81, 62]),
   midi.NoteOffEvent(tick=480, channel=7, data=[81, 0]),
   midi.NoteOnEvent(tick=0, channel=7, data=[82, 63]),
   midi.NoteOffEvent(tick=480, channel=7, data=[82, 0]),
   midi.NoteOnEvent(tick=0, channel=7, data=[84, 71]),
   midi.NoteOffEvent(tick=960, channel=7, data=[84, 0]),
   midi.NoteOnEvent(tick=1440, channel=7, data=[79, 58]),
   midi.NoteOffEvent(tick=480, channel=7, data=[79, 0]),
   midi.NoteOnEvent(tick=0, channel=7, data=[82, 63]),
   midi.NoteOffEvent(tick=480, channel=7, data=[82, 0]),
   midi.NoteOnEvent(tick=0, channel=7, data=[84, 66]),
   midi.NoteOffEvent(tick=480, channel=7, data=[84, 0]),
   midi.NoteOnEvent(tick=0, channel=7, data=[86, 72]),
   midi.NoteOffEvent(tick=960, channel=7, data=[86, 0]),
   midi.NoteOnEvent(tick=1440, channel=7, data=[79, 78]),
   midi.NoteOffEvent(tick=480, channel=7, data=[79, 0]),
   midi.NoteOnEvent(tick=0, channel=7, data=[82, 84]),
   midi.NoteOffEvent(tick=480, channel=7, data=[82, 0]),
   midi.NoteOnEvent(tick=0, channel=7, data=[84, 89]),
   midi.NoteOffEvent(tick=480, channel=7, data=[84, 0]),
   midi.NoteOnEvent(tick=0, channel=7, data=[86, 98]),
   midi.NoteOffEvent(tick=480, channel=7, data=[86, 0]),
   midi.NoteOnEvent(tick=0, channel=7, data=[82, 81]),
   midi.NoteOffEvent(tick=480, channel=7, data=[82, 0]),
   midi.NoteOnEvent(tick=0, channel=7, data=[84, 87]),
   midi.NoteOffEvent(tick=480, channel=7, data=[84, 0]),
   midi.NoteOnEvent(tick=0, channel=7, data=[86, 93]),
   midi.NoteOffEvent(tick=480, channel=7, data=[86, 0]),
   midi.NoteOnEvent(tick=0, channel=7, data=[87, 116]),
   midi.NoteOnEvent(tick=0, channel=7, data=[75, 104]),
   midi.NoteOffEvent(tick=480, channel=7, data=[87, 0]),
   midi.NoteOffEvent(tick=0, channel=7, data=[75, 0]),
   midi.NoteOnEvent(tick=0, channel=7, data=[87, 108]),
   midi.NoteOnEvent(tick=0, channel=7, data=[75, 98]),
   midi.NoteOffEvent(tick=480, channel=7, data=[87, 0]),
   midi.NoteOffEvent(tick=0, channel=7, data=[75, 0]),
   midi.NoteOnEvent(tick=0, channel=7, data=[87, 107]),
   midi.NoteOnEvent(tick=0, channel=7, data=[75, 98]),
   midi.NoteOffEvent(tick=480, channel=7, data=[87, 0]),
   midi.NoteOffEvent(tick=0, channel=7, data=[75, 0]),
   midi.NoteOnEvent(tick=0, channel=7, data=[87, 105]),
   midi.NoteOnEvent(tick=0, channel=7, data=[75, 98]),
   midi.NoteOffEvent(tick=480, channel=7, data=[87, 0]),
   midi.NoteOffEvent(tick=0, channel=7, data=[75, 0]),
   midi.NoteOnEvent(tick=0, channel=7, data=[87, 110]),
   midi.NoteOnEvent(tick=0, channel=7, data=[75, 104]),
   midi.NoteOffEvent(tick=480, channel=7, data=[87, 0]),
   midi.NoteOffEvent(tick=0, channel=7, data=[75, 0]),
   midi.NoteOnEvent(tick=0, channel=7, data=[87, 103]),
   midi.NoteOnEvent(tick=0, channel=7, data=[75, 98]),
   midi.NoteOffEvent(tick=480, channel=7, data=[87, 0]),
   midi.NoteOffEvent(tick=0, channel=7, data=[75, 0]),
   midi.NoteOnEvent(tick=0, channel=7, data=[87, 102]),
   midi.NoteOnEvent(tick=0, channel=7, data=[75, 98]),
   midi.NoteOffEvent(tick=480, channel=7, data=[87, 0]),
   midi.NoteOffEvent(tick=0, channel=7, data=[75, 0]),
   midi.NoteOnEvent(tick=0, channel=7, data=[87, 101]),
   midi.NoteOnEvent(tick=0, channel=7, data=[75, 98]),
   midi.NoteOffEvent(tick=480, channel=7, data=[87, 0]),
   midi.NoteOffEvent(tick=0, channel=7, data=[75, 0]),
   midi.NoteOnEvent(tick=0, channel=7, data=[87, 106]),
   midi.NoteOnEvent(tick=0, channel=7, data=[75, 104]),
   midi.NoteOffEvent(tick=960, channel=7, data=[87, 0]),
   midi.NoteOffEvent(tick=0, channel=7, data=[75, 0]),
   midi.NoteOnEvent(tick=1440, channel=7, data=[88, 100]),
   midi.NoteOnEvent(tick=0, channel=7, data=[76, 100]),
   midi.NoteOffEvent(tick=480, channel=7, data=[88, 0]),
   midi.NoteOffEvent(tick=0, channel=7, data=[76, 0]),
   midi.NoteOnEvent(tick=0, channel=7, data=[88, 100]),
   midi.NoteOnEvent(tick=0, channel=7, data=[76, 100]),
   midi.NoteOffEvent(tick=480, channel=7, data=[88, 0]),
   midi.NoteOffEvent(tick=0, channel=7, data=[76, 0]),
   midi.NoteOnEvent(tick=0, channel=7, data=[88, 99]),
   midi.NoteOnEvent(tick=0, channel=7, data=[76, 99]),
   midi.NoteOffEvent(tick=480, channel=7, data=[88, 0]),
   midi.NoteOffEvent(tick=0, channel=7, data=[76, 0]),
   midi.NoteOnEvent(tick=0, channel=7, data=[88, 105]),
   midi.NoteOnEvent(tick=0, channel=7, data=[76, 105]),
   midi.NoteOffEvent(tick=480, channel=7, data=[88, 0]),
   midi.NoteOffEvent(tick=0, channel=7, data=[76, 0]),
   midi.NoteOnEvent(tick=0, channel=7, data=[88, 99]),
   midi.NoteOnEvent(tick=0, channel=7, data=[76, 99]),
   midi.NoteOffEvent(tick=480, channel=7, data=[88, 0]),
   midi.NoteOffEvent(tick=0, channel=7, data=[76, 0]),
   midi.NoteOnEvent(tick=0, channel=7, data=[88, 98]),
   midi.NoteOnEvent(tick=0, channel=7, data=[76, 98]),
   midi.NoteOffEvent(tick=480, channel=7, data=[88, 0]),
   midi.NoteOffEvent(tick=0, channel=7, data=[76, 0]),
   midi.NoteOnEvent(tick=0, channel=7, data=[88, 98]),
   midi.NoteOnEvent(tick=0, channel=7, data=[76, 98]),
   midi.NoteOffEvent(tick=480, channel=7, data=[88, 0]),
   midi.NoteOffEvent(tick=0, channel=7, data=[76, 0]),
   midi.NoteOnEvent(tick=0, channel=7, data=[88, 104]),
   midi.NoteOnEvent(tick=0, channel=7, data=[76, 104]),
   midi.NoteOffEvent(tick=480, channel=7, data=[88, 0]),
   midi.NoteOffEvent(tick=0, channel=7, data=[76, 0]),
   midi.NoteOnEvent(tick=0, channel=7, data=[88, 98]),
   midi.NoteOnEvent(tick=0, channel=7, data=[76, 98]),
   midi.NoteOffEvent(tick=480, channel=7, data=[88, 0]),
   midi.NoteOffEvent(tick=0, channel=7, data=[76, 0]),
   midi.NoteOnEvent(tick=0, channel=7, data=[88, 98]),
   midi.NoteOnEvent(tick=0, channel=7, data=[76, 98]),
   midi.NoteOffEvent(tick=480, channel=7, data=[88, 0]),
   midi.NoteOffEvent(tick=0, channel=7, data=[76, 0]),
   midi.NoteOnEvent(tick=0, channel=7, data=[88, 98]),
   midi.NoteOnEvent(tick=0, channel=7, data=[76, 98]),
   midi.NoteOffEvent(tick=480, channel=7, data=[88, 0]),
   midi.NoteOffEvent(tick=0, channel=7, data=[76, 0]),
   midi.NoteOnEvent(tick=0, channel=7, data=[88, 104]),
   midi.NoteOnEvent(tick=0, channel=7, data=[76, 104]),
   midi.NoteOffEvent(tick=960, channel=7, data=[88, 0]),
   midi.NoteOffEvent(tick=0, channel=7, data=[76, 0]),
   midi.NoteOnEvent(tick=1440, channel=7, data=[86, 93]),
   midi.NoteOnEvent(tick=0, channel=7, data=[74, 93]),
   midi.NoteOffEvent(tick=480, channel=7, data=[86, 0]),
   midi.NoteOffEvent(tick=0, channel=7, data=[74, 0]),
   midi.NoteOnEvent(tick=0, channel=7, data=[86, 94]),
   midi.NoteOnEvent(tick=0, channel=7, data=[74, 94]),
   midi.NoteOffEvent(tick=480, channel=7, data=[86, 0]),
   midi.NoteOffEvent(tick=0, channel=7, data=[74, 0]),
   midi.NoteOnEvent(tick=0, channel=7, data=[86, 95]),
   midi.NoteOnEvent(tick=0, channel=7, data=[74, 95]),
   midi.NoteOffEvent(tick=480, channel=7, data=[86, 0]),
   midi.NoteOffEvent(tick=0, channel=7, data=[74, 0]),
   midi.NoteOnEvent(tick=0, channel=7, data=[86, 101]),
   midi.NoteOnEvent(tick=0, channel=7, data=[74, 101]),
   midi.NoteOffEvent(tick=960, channel=7, data=[86, 0]),
   midi.NoteOffEvent(tick=0, channel=7, data=[74, 0]),
   midi.NoteOnEvent(tick=1920, channel=7, data=[85, 96]),
   midi.NoteOffEvent(tick=480, channel=7, data=[85, 0]),
   midi.NoteOnEvent(tick=0, channel=7, data=[85, 97]),
   midi.NoteOffEvent(tick=480, channel=7, data=[85, 0]),
   midi.NoteOnEvent(tick=0, channel=7, data=[85, 103]),
   midi.NoteOffEvent(tick=960, channel=7, data=[85, 0]),
   midi.NoteOnEvent(tick=0, channel=7, data=[86, 100]),
   midi.NoteOffEvent(tick=480, channel=7, data=[86, 0]),
   midi.NoteOnEvent(tick=0, channel=7, data=[86, 99]),
   midi.NoteOffEvent(tick=480, channel=7, data=[86, 0]),
   midi.NoteOnEvent(tick=0, channel=7, data=[86, 105]),
   midi.NoteOffEvent(tick=480, channel=7, data=[86, 0]),
   midi.NoteOnEvent(tick=0, channel=7, data=[86, 114]),
   midi.NoteOffEvent(tick=480, channel=7, data=[86, 0]),
   midi.NoteOnEvent(tick=0, channel=7, data=[86, 114]),
   midi.NoteOffEvent(tick=480, channel=7, data=[86, 0]),
   midi.NoteOnEvent(tick=0, channel=7, data=[86, 114]),
   midi.NoteOffEvent(tick=480, channel=7, data=[86, 0]),
   midi.NoteOnEvent(tick=0, channel=7, data=[79, 88]),
   midi.NoteOffEvent(tick=1920, channel=7, data=[79, 0]),
   midi.NoteOnEvent(tick=0, channel=7, data=[81, 94]),
   midi.NoteOffEvent(tick=1920, channel=7, data=[81, 0]),
   midi.NoteOnEvent(tick=0, channel=7, data=[74, 57]),
   midi.NoteOffEvent(tick=6720, channel=7, data=[74, 0]),
   midi.NoteOnEvent(tick=0, channel=7, data=[78, 61]),
   midi.NoteOffEvent(tick=480, channel=7, data=[78, 0]),
   midi.NoteOnEvent(tick=0, channel=7, data=[78, 61]),
   midi.NoteOffEvent(tick=480, channel=7, data=[78, 0]),
   midi.NoteOnEvent(tick=0, channel=7, data=[81, 68]),
   midi.NoteOffEvent(tick=960, channel=7, data=[81, 0]),
   midi.NoteOnEvent(tick=0, channel=7, data=[86, 68]),
   midi.NoteOffEvent(tick=480, channel=7, data=[86, 0]),
   midi.NoteOnEvent(tick=0, channel=7, data=[86, 67]),
   midi.NoteOffEvent(tick=480, channel=7, data=[86, 0]),
   midi.NoteOnEvent(tick=0, channel=7, data=[83, 65]),
   midi.NoteOffEvent(tick=480, channel=7, data=[83, 0]),
   midi.NoteOnEvent(tick=0, channel=7, data=[79, 54]),
   midi.NoteOffEvent(tick=480, channel=7, data=[79, 0]),
   midi.NoteOnEvent(tick=0, channel=7, data=[79, 54]),
   midi.NoteOffEvent(tick=480, channel=7, data=[79, 0]),
   midi.NoteOnEvent(tick=0, channel=7, data=[79, 55]),
   midi.NoteOffEvent(tick=480, channel=7, data=[79, 0]),
   midi.NoteOnEvent(tick=0, channel=7, data=[72, 88]),
   midi.NoteOffEvent(tick=1920, channel=7, data=[72, 0]),
   midi.NoteOnEvent(tick=0, channel=7, data=[74, 92]),
   midi.NoteOffEvent(tick=1920, channel=7, data=[74, 0]),
   midi.NoteOnEvent(tick=0, channel=7, data=[67, 57]),
   midi.NoteOffEvent(tick=6720, channel=7, data=[67, 0]),
   midi.NoteOnEvent(tick=0, channel=7, data=[71, 61]),
   midi.NoteOffEvent(tick=480, channel=7, data=[71, 0]),
   midi.NoteOnEvent(tick=0, channel=7, data=[71, 61]),
   midi.NoteOffEvent(tick=480, channel=7, data=[71, 0]),
   midi.NoteOnEvent(tick=0, channel=7, data=[74, 68]),
   midi.NoteOffEvent(tick=960, channel=7, data=[74, 0]),
   midi.NoteOnEvent(tick=0, channel=7, data=[79, 68]),
   midi.NoteOffEvent(tick=480, channel=7, data=[79, 0]),
   midi.NoteOnEvent(tick=0, channel=7, data=[79, 67]),
   midi.NoteOffEvent(tick=480, channel=7, data=[79, 0]),
   midi.NoteOnEvent(tick=0, channel=7, data=[76, 65]),
   midi.NoteOffEvent(tick=960, channel=7, data=[76, 0]),
   midi.NoteOnEvent(tick=4800, channel=7, data=[55, 63]),
   midi.NoteOnEvent(tick=0, channel=7, data=[64, 63]),
   midi.NoteOffEvent(tick=1920, channel=7, data=[55, 0]),
   midi.NoteOffEvent(tick=0, channel=7, data=[64, 0]),
   midi.NoteOnEvent(tick=0, channel=7, data=[65, 65]),
   midi.NoteOnEvent(tick=0, channel=7, data=[56, 65]),
   midi.NoteOffEvent(tick=1920, channel=7, data=[65, 0]),
   midi.NoteOffEvent(tick=0, channel=7, data=[56, 0]),
   midi.NoteOnEvent(tick=3840, channel=7, data=[64, 65]),
   midi.NoteOnEvent(tick=0, channel=7, data=[55, 65]),
   midi.NoteOffEvent(tick=1920, channel=7, data=[64, 0]),
   midi.NoteOffEvent(tick=0, channel=7, data=[55, 0]),
   midi.NoteOnEvent(tick=0, channel=7, data=[65, 65]),
   midi.NoteOnEvent(tick=0, channel=7, data=[56, 65]),
   midi.NoteOffEvent(tick=1920, channel=7, data=[65, 0]),
   midi.NoteOffEvent(tick=0, channel=7, data=[56, 0]),
   midi.NoteOnEvent(tick=3840, channel=7, data=[66, 65]),
   midi.NoteOffEvent(tick=1920, channel=7, data=[66, 0]),
   midi.NoteOnEvent(tick=0, channel=7, data=[69, 66]),
   midi.NoteOffEvent(tick=1920, channel=7, data=[69, 0]),
   midi.NoteOnEvent(tick=3840, channel=7, data=[70, 65]),
   midi.NoteOffEvent(tick=1920, channel=7, data=[70, 0]),
   midi.NoteOnEvent(tick=1920, channel=7, data=[71, 76]),
   midi.NoteOffEvent(tick=1920, channel=7, data=[71, 0]),
   midi.NoteOnEvent(tick=1920, channel=7, data=[73, 76]),
   midi.NoteOffEvent(tick=1920, channel=7, data=[73, 0]),
   midi.NoteOnEvent(tick=1920, channel=7, data=[61, 62]),
   midi.NoteOffEvent(tick=1920, channel=7, data=[61, 0]),
   midi.NoteOnEvent(tick=1920, channel=7, data=[61, 65]),
   midi.NoteOffEvent(tick=1920, channel=7, data=[61, 0]),
   midi.NoteOnEvent(tick=1920, channel=7, data=[61, 65]),
   midi.NoteOffEvent(tick=1920, channel=7, data=[61, 0]),
   midi.NoteOnEvent(tick=1920, channel=7, data=[62, 42]),
   midi.NoteOffEvent(tick=1920, channel=7, data=[62, 0]),
   midi.NoteOnEvent(tick=1920, channel=7, data=[62, 42]),
   midi.NoteOffEvent(tick=1920, channel=7, data=[62, 0]),
   midi.NoteOnEvent(tick=1920, channel=7, data=[62, 42]),
   midi.NoteOffEvent(tick=1920, channel=7, data=[62, 0]),
   midi.NoteOnEvent(tick=1920, channel=7, data=[62, 120]),
   midi.NoteOffEvent(tick=480, channel=7, data=[62, 0]),
   midi.NoteOnEvent(tick=0, channel=7, data=[74, 126]),
   midi.NoteOffEvent(tick=480, channel=7, data=[74, 0]),
   midi.NoteOnEvent(tick=0, channel=7, data=[74, 125]),
   midi.NoteOffEvent(tick=480, channel=7, data=[74, 0]),
   midi.NoteOnEvent(tick=0, channel=7, data=[74, 123]),
   midi.NoteOffEvent(tick=480, channel=7, data=[74, 0]),
   midi.NoteOnEvent(tick=0, channel=7, data=[71, 119]),
   midi.NoteOffEvent(tick=1920, channel=7, data=[71, 0]),
   midi.NoteOnEvent(tick=0, channel=7, data=[72, 121]),
   midi.NoteOffEvent(tick=1920, channel=7, data=[72, 0]),
   midi.NoteOnEvent(tick=0, channel=7, data=[69, 115]),
   midi.NoteOffEvent(tick=3840, channel=7, data=[69, 0]),
   midi.NoteOnEvent(tick=1920, channel=7, data=[62, 41]),
   midi.NoteOffEvent(tick=1920, channel=7, data=[62, 0]),
   midi.NoteOnEvent(tick=1920, channel=7, data=[62, 42]),
   midi.NoteOffEvent(tick=1920, channel=7, data=[62, 0]),
   midi.NoteOnEvent(tick=1920, channel=7, data=[62, 42]),
   midi.NoteOffEvent(tick=1920, channel=7, data=[62, 0]),
   midi.NoteOnEvent(tick=1920, channel=7, data=[62, 104]),
   midi.NoteOffEvent(tick=960, channel=7, data=[62, 0]),
   midi.NoteOnEvent(tick=1440, channel=7, data=[80, 120]),
   midi.NoteOffEvent(tick=480, channel=7, data=[80, 0]),
   midi.NoteOnEvent(tick=0, channel=7, data=[80, 119]),
   midi.NoteOffEvent(tick=480, channel=7, data=[80, 0]),
   midi.NoteOnEvent(tick=0, channel=7, data=[80, 118]),
   midi.NoteOffEvent(tick=480, channel=7, data=[80, 0]),
   midi.NoteOnEvent(tick=0, channel=7, data=[77, 116]),
   midi.NoteOffEvent(tick=2400, channel=7, data=[77, 0]),
   midi.NoteOnEvent(tick=0, channel=7, data=[80, 116]),
   midi.NoteOffEvent(tick=480, channel=7, data=[80, 0]),
   midi.NoteOnEvent(tick=0, channel=7, data=[80, 115]),
   midi.NoteOffEvent(tick=480, channel=7, data=[80, 0]),
   midi.NoteOnEvent(tick=0, channel=7, data=[80, 115]),
   midi.NoteOffEvent(tick=480, channel=7, data=[80, 0]),
   midi.NoteOnEvent(tick=0, channel=7, data=[77, 110]),
   midi.NoteOffEvent(tick=2400, channel=7, data=[77, 0]),
   midi.NoteOnEvent(tick=0, channel=7, data=[80, 115]),
   midi.NoteOffEvent(tick=480, channel=7, data=[80, 0]),
   midi.NoteOnEvent(tick=0, channel=7, data=[80, 115]),
   midi.NoteOffEvent(tick=480, channel=7, data=[80, 0]),
   midi.NoteOnEvent(tick=0, channel=7, data=[80, 114]),
   midi.NoteOffEvent(tick=480, channel=7, data=[80, 0]),
   midi.NoteOnEvent(tick=0, channel=7, data=[77, 110]),
   midi.NoteOffEvent(tick=480, channel=7, data=[77, 0]),
   midi.NoteOnEvent(tick=0, channel=7, data=[80, 117]),
   midi.NoteOffEvent(tick=480, channel=7, data=[80, 0]),
   midi.NoteOnEvent(tick=0, channel=7, data=[80, 116]),
   midi.NoteOffEvent(tick=480, channel=7, data=[80, 0]),
   midi.NoteOnEvent(tick=0, channel=7, data=[80, 116]),
   midi.NoteOffEvent(tick=480, channel=7, data=[80, 0]),
   midi.NoteOnEvent(tick=0, channel=7, data=[77, 108]),
   midi.NoteOffEvent(tick=480, channel=7, data=[77, 0]),
   midi.NoteOnEvent(tick=0, channel=7, data=[80, 118]),
   midi.NoteOffEvent(tick=480, channel=7, data=[80, 0]),
   midi.NoteOnEvent(tick=0, channel=7, data=[80, 117]),
   midi.NoteOffEvent(tick=480, channel=7, data=[80, 0]),
   midi.NoteOnEvent(tick=0, channel=7, data=[80, 116]),
   midi.NoteOffEvent(tick=480, channel=7, data=[80, 0]),
   midi.NoteOnEvent(tick=0, channel=7, data=[77, 107]),
   midi.NoteOffEvent(tick=480, channel=7, data=[77, 0]),
   midi.NoteOnEvent(tick=0, channel=7, data=[79, 113]),
   midi.NoteOffEvent(tick=480, channel=7, data=[79, 0]),
   midi.NoteOnEvent(tick=0, channel=7, data=[79, 113]),
   midi.NoteOffEvent(tick=480, channel=7, data=[79, 0]),
   midi.NoteOnEvent(tick=0, channel=7, data=[79, 113]),
   midi.NoteOffEvent(tick=480, channel=7, data=[79, 0]),
   midi.NoteOnEvent(tick=0, channel=7, data=[75, 109]),
   midi.NoteOffEvent(tick=3840, channel=7, data=[75, 0]),
   midi.NoteOnEvent(tick=2400, channel=7, data=[77, 113]),
   midi.NoteOffEvent(tick=480, channel=7, data=[77, 0]),
   midi.NoteOnEvent(tick=0, channel=7, data=[77, 113]),
   midi.NoteOffEvent(tick=480, channel=7, data=[77, 0]),
   midi.NoteOnEvent(tick=0, channel=7, data=[77, 113]),
   midi.NoteOffEvent(tick=480, channel=7, data=[77, 0]),
   midi.NoteOnEvent(tick=0, channel=7, data=[74, 114]),
   midi.NoteOffEvent(tick=5760, channel=7, data=[74, 0]),
   midi.NoteOnEvent(tick=4320, channel=7, data=[68, 61]),
   midi.NoteOffEvent(tick=480, channel=7, data=[68, 0]),
   midi.NoteOnEvent(tick=0, channel=7, data=[68, 61]),
   midi.NoteOffEvent(tick=480, channel=7, data=[68, 0]),
   midi.NoteOnEvent(tick=0, channel=7, data=[68, 61]),
   midi.NoteOffEvent(tick=480, channel=7, data=[68, 0]),
   midi.NoteOnEvent(tick=0, channel=7, data=[67, 64]),
   midi.NoteOffEvent(tick=480, channel=7, data=[67, 0]),
   midi.NoteOnEvent(tick=0, channel=7, data=[75, 68]),
   midi.NoteOffEvent(tick=480, channel=7, data=[75, 0]),
   midi.NoteOnEvent(tick=0, channel=7, data=[75, 66]),
   midi.NoteOffEvent(tick=480, channel=7, data=[75, 0]),
   midi.NoteOnEvent(tick=0, channel=7, data=[75, 64]),
   midi.NoteOffEvent(tick=480, channel=7, data=[75, 0]),
   midi.NoteOnEvent(tick=0, channel=7, data=[72, 63]),
   midi.NoteOffEvent(tick=960, channel=7, data=[72, 0]),
   midi.NoteOnEvent(tick=3360, channel=7, data=[68, 61]),
   midi.NoteOffEvent(tick=480, channel=7, data=[68, 0]),
   midi.NoteOnEvent(tick=0, channel=7, data=[68, 61]),
   midi.NoteOffEvent(tick=480, channel=7, data=[68, 0]),
   midi.NoteOnEvent(tick=0, channel=7, data=[68, 61]),
   midi.NoteOffEvent(tick=480, channel=7, data=[68, 0]),
   midi.NoteOnEvent(tick=0, channel=7, data=[67, 64]),
   midi.NoteOffEvent(tick=480, channel=7, data=[67, 0]),
   midi.NoteOnEvent(tick=0, channel=7, data=[77, 69]),
   midi.NoteOffEvent(tick=480, channel=7, data=[77, 0]),
   midi.NoteOnEvent(tick=0, channel=7, data=[77, 67]),
   midi.NoteOffEvent(tick=480, channel=7, data=[77, 0]),
   midi.NoteOnEvent(tick=0, channel=7, data=[77, 65]),
   midi.NoteOffEvent(tick=480, channel=7, data=[77, 0]),
   midi.NoteOnEvent(tick=0, channel=7, data=[74, 63]),
   midi.NoteOffEvent(tick=2400, channel=7, data=[74, 0]),
   midi.NoteOnEvent(tick=0, channel=7, data=[79, 61]),
   midi.NoteOffEvent(tick=480, channel=7, data=[79, 0]),
   midi.NoteOnEvent(tick=0, channel=7, data=[79, 61]),
   midi.NoteOffEvent(tick=480, channel=7, data=[79, 0]),
   midi.NoteOnEvent(tick=0, channel=7, data=[77, 60]),
   midi.NoteOffEvent(tick=480, channel=7, data=[77, 0]),
   midi.NoteOnEvent(tick=0, channel=7, data=[75, 62]),
   midi.NoteOffEvent(tick=1920, channel=7, data=[75, 0]),
   midi.NoteOnEvent(tick=0, channel=7, data=[74, 64]),
   midi.NoteOffEvent(tick=480, channel=7, data=[74, 0]),
   midi.NoteOnEvent(tick=0, channel=7, data=[79, 63]),
   midi.NoteOffEvent(tick=480, channel=7, data=[79, 0]),
   midi.NoteOnEvent(tick=0, channel=7, data=[79, 63]),
   midi.NoteOffEvent(tick=480, channel=7, data=[79, 0]),
   midi.NoteOnEvent(tick=0, channel=7, data=[77, 60]),
   midi.NoteOffEvent(tick=480, channel=7, data=[77, 0]),
   midi.NoteOnEvent(tick=0, channel=7, data=[75, 62]),
   midi.NoteOffEvent(tick=1920, channel=7, data=[75, 0]),
   midi.NoteOnEvent(tick=0, channel=7, data=[74, 64]),
   midi.NoteOffEvent(tick=480, channel=7, data=[74, 0]),
   midi.NoteOnEvent(tick=0, channel=7, data=[79, 63]),
   midi.NoteOffEvent(tick=480, channel=7, data=[79, 0]),
   midi.NoteOnEvent(tick=0, channel=7, data=[79, 63]),
   midi.NoteOffEvent(tick=480, channel=7, data=[79, 0]),
   midi.NoteOnEvent(tick=0, channel=7, data=[77, 60]),
   midi.NoteOffEvent(tick=480, channel=7, data=[77, 0]),
   midi.NoteOnEvent(tick=0, channel=7, data=[75, 72]),
   midi.NoteOffEvent(tick=960, channel=7, data=[75, 0]),
   midi.NoteOnEvent(tick=960, channel=7, data=[56, 87]),
   midi.NoteOnEvent(tick=0, channel=7, data=[66, 87]),
   midi.NoteOnEvent(tick=0, channel=7, data=[72, 87]),
   midi.NoteOffEvent(tick=960, channel=7, data=[56, 0]),
   midi.NoteOffEvent(tick=0, channel=7, data=[66, 0]),
   midi.NoteOffEvent(tick=0, channel=7, data=[72, 0]),
   midi.NoteOnEvent(tick=960, channel=7, data=[55, 122]),
   midi.NoteOnEvent(tick=0, channel=7, data=[62, 122]),
   midi.NoteOnEvent(tick=0, channel=7, data=[71, 122]),
   midi.NoteOnEvent(tick=0, channel=7, data=[79, 122]),
   midi.NoteOffEvent(tick=960, channel=7, data=[55, 0]),
   midi.NoteOffEvent(tick=0, channel=7, data=[62, 0]),
   midi.NoteOffEvent(tick=0, channel=7, data=[71, 0]),
   midi.NoteOffEvent(tick=0, channel=7, data=[79, 0]),
   midi.NoteOnEvent(tick=11040, channel=7, data=[68, 61]),
   midi.NoteOffEvent(tick=480, channel=7, data=[68, 0]),
   midi.NoteOnEvent(tick=0, channel=7, data=[68, 61]),
   midi.NoteOffEvent(tick=480, channel=7, data=[68, 0]),
   midi.NoteOnEvent(tick=0, channel=7, data=[68, 61]),
   midi.NoteOffEvent(tick=480, channel=7, data=[68, 0]),
   midi.NoteOnEvent(tick=0, channel=7, data=[65, 60]),
   midi.NoteOffEvent(tick=5760, channel=7, data=[65, 0]),
   midi.NoteOnEvent(tick=0, channel=7, data=[63, 64]),
   midi.NoteOffEvent(tick=480, channel=7, data=[63, 0]),
   midi.NoteOnEvent(tick=0, channel=7, data=[68, 64]),
   midi.NoteOffEvent(tick=480, channel=7, data=[68, 0]),
   midi.NoteOnEvent(tick=0, channel=7, data=[68, 63]),
   midi.NoteOffEvent(tick=480, channel=7, data=[68, 0]),
   midi.NoteOnEvent(tick=0, channel=7, data=[68, 63]),
   midi.NoteOffEvent(tick=480, channel=7, data=[68, 0]),
   midi.NoteOnEvent(tick=0, channel=7, data=[65, 61]),
   midi.NoteOffEvent(tick=480, channel=7, data=[65, 0]),
   midi.NoteOnEvent(tick=0, channel=7, data=[62, 54]),
   midi.NoteOffEvent(tick=480, channel=7, data=[62, 0]),
   midi.NoteOnEvent(tick=0, channel=7, data=[62, 54]),
   midi.NoteOffEvent(tick=480, channel=7, data=[62, 0]),
   midi.NoteOnEvent(tick=0, channel=7, data=[62, 55]),
   midi.NoteOffEvent(tick=480, channel=7, data=[62, 0]),
   midi.NoteOnEvent(tick=0, channel=7, data=[59, 76]),
   midi.NoteOffEvent(tick=480, channel=7, data=[59, 0]),
   midi.NoteOnEvent(tick=0, channel=7, data=[56, 71]),
   midi.NoteOffEvent(tick=480, channel=7, data=[56, 0]),
   midi.NoteOnEvent(tick=0, channel=7, data=[56, 71]),
   midi.NoteOffEvent(tick=480, channel=7, data=[56, 0]),
   midi.NoteOnEvent(tick=0, channel=7, data=[56, 71]),
   midi.NoteOffEvent(tick=480, channel=7, data=[56, 0]),
   midi.NoteOnEvent(tick=0, channel=7, data=[55, 76]),
   midi.NoteOffEvent(tick=480, channel=7, data=[55, 0]),
   midi.NoteOnEvent(tick=0, channel=7, data=[71, 96]),
   midi.NoteOffEvent(tick=480, channel=7, data=[71, 0]),
   midi.NoteOnEvent(tick=0, channel=7, data=[71, 96]),
   midi.NoteOffEvent(tick=480, channel=7, data=[71, 0]),
   midi.NoteOnEvent(tick=0, channel=7, data=[71, 96]),
   midi.NoteOffEvent(tick=480, channel=7, data=[71, 0]),
   midi.NoteOnEvent(tick=0, channel=7, data=[72, 119]),
   midi.NoteOffEvent(tick=480, channel=7, data=[72, 0]),
   midi.NoteOnEvent(tick=0, channel=7, data=[67, 107]),
   midi.NoteOffEvent(tick=480, channel=7, data=[67, 0]),
   midi.NoteOnEvent(tick=0, channel=7, data=[72, 112]),
   midi.NoteOffEvent(tick=480, channel=7, data=[72, 0]),
   midi.NoteOnEvent(tick=0, channel=7, data=[72, 112]),
   midi.NoteOffEvent(tick=480, channel=7, data=[72, 0]),
   midi.NoteOnEvent(tick=0, channel=7, data=[72, 118]),
   midi.NoteOffEvent(tick=1920, channel=7, data=[72, 0]),
   midi.NoteOnEvent(tick=0, channel=7, data=[71, 106]),
   midi.NoteOffEvent(tick=480, channel=7, data=[71, 0]),
   midi.NoteOnEvent(tick=0, channel=7, data=[71, 99]),
   midi.NoteOffEvent(tick=480, channel=7, data=[71, 0]),
   midi.NoteOnEvent(tick=0, channel=7, data=[71, 98]),
   midi.NoteOffEvent(tick=480, channel=7, data=[71, 0]),
   midi.NoteOnEvent(tick=0, channel=7, data=[74, 108]),
   midi.NoteOffEvent(tick=480, channel=7, data=[74, 0]),
   midi.NoteOnEvent(tick=0, channel=7, data=[74, 113]),
   midi.NoteOffEvent(tick=1920, channel=7, data=[74, 0]),
   midi.NoteOnEvent(tick=0, channel=7, data=[72, 103]),
   midi.NoteOffEvent(tick=480, channel=7, data=[72, 0]),
   midi.NoteOnEvent(tick=0, channel=7, data=[72, 97]),
   midi.NoteOffEvent(tick=480, channel=7, data=[72, 0]),
   midi.NoteOnEvent(tick=0, channel=7, data=[72, 97]),
   midi.NoteOffEvent(tick=480, channel=7, data=[72, 0]),
   midi.NoteOnEvent(tick=0, channel=7, data=[75, 107]),
   midi.NoteOffEvent(tick=480, channel=7, data=[75, 0]),
   midi.NoteOnEvent(tick=0, channel=7, data=[75, 112]),
   midi.NoteOnEvent(tick=480, channel=7, data=[74, 100]),
   midi.NoteOffEvent(tick=8, channel=7, data=[75, 0]),
   midi.NoteOffEvent(tick=446, channel=7, data=[74, 0]),
   midi.NoteOnEvent(tick=26, channel=7, data=[74, 100]),
   midi.NoteOffEvent(tick=240, channel=7, data=[74, 0]),
   midi.NoteOnEvent(tick=240, channel=7, data=[77, 109]),
   midi.NoteOffEvent(tick=240, channel=7, data=[77, 0]),
   midi.NoteOnEvent(tick=240, channel=7, data=[77, 114]),
   midi.NoteOnEvent(tick=480, channel=7, data=[76, 103]),
   midi.NoteOffEvent(tick=8, channel=7, data=[77, 0]),
   midi.NoteOffEvent(tick=446, channel=7, data=[76, 0]),
   midi.NoteOnEvent(tick=26, channel=7, data=[76, 102]),
   midi.NoteOffEvent(tick=240, channel=7, data=[76, 0]),
   midi.NoteOnEvent(tick=240, channel=7, data=[79, 109]),
   midi.NoteOffEvent(tick=240, channel=7, data=[79, 0]),
   midi.NoteOnEvent(tick=240, channel=7, data=[79, 115]),
   midi.NoteOnEvent(tick=480, channel=7, data=[77, 100]),
   midi.NoteOffEvent(tick=8, channel=7, data=[79, 0]),
   midi.NoteOffEvent(tick=446, channel=7, data=[77, 0]),
   midi.NoteOnEvent(tick=26, channel=7, data=[77, 99]),
   midi.NoteOffEvent(tick=240, channel=7, data=[77, 0]),
   midi.NoteOnEvent(tick=240, channel=7, data=[80, 108]),
   midi.NoteOffEvent(tick=240, channel=7, data=[80, 0]),
   midi.NoteOnEvent(tick=240, channel=7, data=[80, 113]),
   midi.NoteOnEvent(tick=480, channel=7, data=[79, 101]),
   midi.NoteOffEvent(tick=8, channel=7, data=[80, 0]),
   midi.NoteOffEvent(tick=446, channel=7, data=[79, 0]),
   midi.NoteOnEvent(tick=26, channel=7, data=[79, 100]),
   midi.NoteOffEvent(tick=240, channel=7, data=[79, 0]),
   midi.NoteOnEvent(tick=240, channel=7, data=[82, 108]),
   midi.NoteOffEvent(tick=240, channel=7, data=[82, 0]),
   midi.NoteOnEvent(tick=240, channel=7, data=[82, 113]),
   midi.NoteOnEvent(tick=480, channel=7, data=[80, 99]),
   midi.NoteOffEvent(tick=8, channel=7, data=[82, 0]),
   midi.NoteOffEvent(tick=446, channel=7, data=[80, 0]),
   midi.NoteOnEvent(tick=26, channel=7, data=[80, 98]),
   midi.NoteOffEvent(tick=240, channel=7, data=[80, 0]),
   midi.NoteOnEvent(tick=240, channel=7, data=[84, 109]),
   midi.NoteOffEvent(tick=240, channel=7, data=[84, 0]),
   midi.NoteOnEvent(tick=240, channel=7, data=[84, 114]),
   midi.NoteOnEvent(tick=480, channel=7, data=[83, 103]),
   midi.NoteOffEvent(tick=8, channel=7, data=[84, 0]),
   midi.NoteOffEvent(tick=446, channel=7, data=[83, 0]),
   midi.NoteOnEvent(tick=26, channel=7, data=[83, 102]),
   midi.NoteOffEvent(tick=240, channel=7, data=[83, 0]),
   midi.NoteOnEvent(tick=240, channel=7, data=[86, 109]),
   midi.NoteOffEvent(tick=240, channel=7, data=[86, 0]),
   midi.NoteOnEvent(tick=240, channel=7, data=[84, 108]),
   midi.NoteOffEvent(tick=480, channel=7, data=[84, 0]),
   midi.NoteOnEvent(tick=0, channel=7, data=[87, 109]),
   midi.NoteOffEvent(tick=480, channel=7, data=[87, 0]),
   midi.NoteOnEvent(tick=0, channel=7, data=[87, 108]),
   midi.NoteOffEvent(tick=480, channel=7, data=[87, 0]),
   midi.NoteOnEvent(tick=0, channel=7, data=[87, 106]),
   midi.NoteOffEvent(tick=480, channel=7, data=[87, 0]),
   midi.NoteOnEvent(tick=0, channel=7, data=[84, 98]),
   midi.NoteOffEvent(tick=480, channel=7, data=[84, 0]),
   midi.NoteOnEvent(tick=0, channel=7, data=[79, 83]),
   midi.NoteOffEvent(tick=480, channel=7, data=[79, 0]),
   midi.NoteOnEvent(tick=0, channel=7, data=[79, 83]),
   midi.NoteOffEvent(tick=480, channel=7, data=[79, 0]),
   midi.NoteOnEvent(tick=0, channel=7, data=[79, 84]),
   midi.NoteOffEvent(tick=480, channel=7, data=[79, 0]),
   midi.NoteOnEvent(tick=0, channel=7, data=[75, 88]),
   midi.NoteOffEvent(tick=480, channel=7, data=[75, 0]),
   midi.NoteOnEvent(tick=0, channel=7, data=[72, 83]),
   midi.NoteOffEvent(tick=480, channel=7, data=[72, 0]),
   midi.NoteOnEvent(tick=0, channel=7, data=[67, 83]),
   midi.NoteOffEvent(tick=480, channel=7, data=[67, 0]),
   midi.NoteOnEvent(tick=0, channel=7, data=[67, 83]),
   midi.NoteOffEvent(tick=480, channel=7, data=[67, 0]),
   midi.NoteOnEvent(tick=0, channel=7, data=[63, 88]),
   midi.NoteOffEvent(tick=480, channel=7, data=[63, 0]),
   midi.NoteOnEvent(tick=0, channel=7, data=[60, 83]),
   midi.NoteOffEvent(tick=480, channel=7, data=[60, 0]),
   midi.NoteOnEvent(tick=0, channel=7, data=[60, 83]),
   midi.NoteOffEvent(tick=480, channel=7, data=[60, 0]),
   midi.NoteOnEvent(tick=0, channel=7, data=[60, 83]),
   midi.NoteOffEvent(tick=480, channel=7, data=[60, 0]),
   midi.NoteOnEvent(tick=0, channel=7, data=[59, 88]),
   midi.NoteOffEvent(tick=480, channel=7, data=[59, 0]),
   midi.NoteOnEvent(tick=0, channel=7, data=[89, 112]),
   midi.NoteOffEvent(tick=480, channel=7, data=[89, 0]),
   midi.NoteOnEvent(tick=0, channel=7, data=[86, 112]),
   midi.NoteOffEvent(tick=480, channel=7, data=[86, 0]),
   midi.NoteOnEvent(tick=0, channel=7, data=[86, 112]),
   midi.NoteOffEvent(tick=480, channel=7, data=[86, 0]),
   midi.NoteOnEvent(tick=0, channel=7, data=[83, 119]),
   midi.NoteOffEvent(tick=480, channel=7, data=[83, 0]),
   midi.NoteOnEvent(tick=0, channel=7, data=[79, 105]),
   midi.NoteOffEvent(tick=480, channel=7, data=[79, 0]),
   midi.NoteOnEvent(tick=0, channel=7, data=[77, 96]),
   midi.NoteOffEvent(tick=480, channel=7, data=[77, 0]),
   midi.NoteOnEvent(tick=0, channel=7, data=[77, 95]),
   midi.NoteOffEvent(tick=480, channel=7, data=[77, 0]),
   midi.NoteOnEvent(tick=0, channel=7, data=[74, 91]),
   midi.NoteOffEvent(tick=480, channel=7, data=[74, 0]),
   midi.NoteOnEvent(tick=0, channel=7, data=[71, 83]),
   midi.NoteOffEvent(tick=480, channel=7, data=[71, 0]),
   midi.NoteOnEvent(tick=0, channel=7, data=[67, 83]),
   midi.NoteOffEvent(tick=480, channel=7, data=[67, 0]),
   midi.NoteOnEvent(tick=0, channel=7, data=[65, 83]),
   midi.NoteOffEvent(tick=480, channel=7, data=[65, 0]),
   midi.NoteOnEvent(tick=0, channel=7, data=[62, 88]),
   midi.NoteOffEvent(tick=480, channel=7, data=[62, 0]),
   midi.NoteOnEvent(tick=0, channel=7, data=[59, 83]),
   midi.NoteOffEvent(tick=480, channel=7, data=[59, 0]),
   midi.NoteOnEvent(tick=0, channel=7, data=[60, 83]),
   midi.NoteOffEvent(tick=480, channel=7, data=[60, 0]),
   midi.NoteOnEvent(tick=0, channel=7, data=[60, 83]),
   midi.NoteOffEvent(tick=480, channel=7, data=[60, 0]),
   midi.NoteOnEvent(tick=0, channel=7, data=[60, 102]),
   midi.NoteOffEvent(tick=480, channel=7, data=[60, 0]),
   midi.NoteOnEvent(tick=0, channel=7, data=[87, 127]),
   midi.NoteOffEvent(tick=480, channel=7, data=[87, 0]),
   midi.NoteOnEvent(tick=0, channel=7, data=[87, 127]),
   midi.NoteOffEvent(tick=480, channel=7, data=[87, 0]),
   midi.NoteOnEvent(tick=0, channel=7, data=[87, 127]),
   midi.NoteOffEvent(tick=480, channel=7, data=[87, 0]),
   midi.NoteOnEvent(tick=0, channel=7, data=[84, 127]),
   midi.NoteOffEvent(tick=480, channel=7, data=[84, 0]),
   midi.NoteOnEvent(tick=0, channel=7, data=[81, 126]),
   midi.NoteOffEvent(tick=480, channel=7, data=[81, 0]),
   midi.NoteOnEvent(tick=0, channel=7, data=[81, 123]),
   midi.NoteOffEvent(tick=480, channel=7, data=[81, 0]),
   midi.NoteOnEvent(tick=0, channel=7, data=[81, 120]),
   midi.NoteOffEvent(tick=480, channel=7, data=[81, 0]),
   midi.NoteOnEvent(tick=0, channel=7, data=[78, 110]),
   midi.NoteOffEvent(tick=480, channel=7, data=[78, 0]),
   midi.NoteOnEvent(tick=0, channel=7, data=[75, 96]),
   midi.NoteOffEvent(tick=480, channel=7, data=[75, 0]),
   midi.NoteOnEvent(tick=0, channel=7, data=[75, 97]),
   midi.NoteOffEvent(tick=480, channel=7, data=[75, 0]),
   midi.NoteOnEvent(tick=0, channel=7, data=[75, 98]),
   midi.NoteOffEvent(tick=480, channel=7, data=[75, 0]),
   midi.NoteOnEvent(tick=0, channel=7, data=[72, 102]),
   midi.NoteOffEvent(tick=480, channel=7, data=[72, 0]),
   midi.NoteOnEvent(tick=0, channel=7, data=[69, 96]),
   midi.NoteOffEvent(tick=480, channel=7, data=[69, 0]),
   midi.NoteOnEvent(tick=0, channel=7, data=[69, 96]),
   midi.NoteOffEvent(tick=480, channel=7, data=[69, 0]),
   midi.NoteOnEvent(tick=0, channel=7, data=[69, 96]),
   midi.NoteOffEvent(tick=480, channel=7, data=[69, 0]),
   midi.NoteOnEvent(tick=0, channel=7, data=[66, 102]),
   midi.NoteOffEvent(tick=960, channel=7, data=[66, 0]),
   midi.NoteOnEvent(tick=2880, channel=7, data=[67, 117]),
   midi.NoteOnEvent(tick=0, channel=7, data=[55, 120]),
   midi.NoteOffEvent(tick=960, channel=7, data=[67, 0]),
   midi.NoteOffEvent(tick=0, channel=7, data=[55, 0]),
   midi.NoteOnEvent(tick=8640, channel=7, data=[67, 65]),
   midi.NoteOnEvent(tick=960, channel=7, data=[72, 63]),
   midi.NoteOffEvent(tick=19, channel=7, data=[67, 0]),
   midi.NoteOffEvent(tick=892, channel=7, data=[72, 0]),
   midi.NoteOnEvent(tick=49, channel=7, data=[71, 66]),
   midi.NoteOffEvent(tick=960, channel=7, data=[71, 0]),
   midi.NoteOnEvent(tick=0, channel=7, data=[72, 63]),
   midi.NoteOffEvent(tick=960, channel=7, data=[72, 0]),
   midi.NoteOnEvent(tick=0, channel=7, data=[74, 68]),
   midi.NoteOffEvent(tick=960, channel=7, data=[74, 0]),
   midi.NoteOnEvent(tick=0, channel=7, data=[69, 57]),
   midi.NoteOffEvent(tick=960, channel=7, data=[69, 0]),
   midi.NoteOnEvent(tick=0, channel=7, data=[69, 62]),
   midi.NoteOnEvent(tick=960, channel=7, data=[67, 56]),
   midi.NoteOffEvent(tick=19, channel=7, data=[69, 0]),
   midi.NoteOffEvent(tick=892, channel=7, data=[67, 0]),
   midi.NoteOnEvent(tick=7729, channel=7, data=[67, 65]),
   midi.NoteOnEvent(tick=960, channel=7, data=[72, 63]),
   midi.NoteOffEvent(tick=19, channel=7, data=[67, 0]),
   midi.NoteOffEvent(tick=892, channel=7, data=[72, 0]),
   midi.NoteOnEvent(tick=49, channel=7, data=[71, 66]),
   midi.NoteOffEvent(tick=960, channel=7, data=[71, 0]),
   midi.NoteOnEvent(tick=0, channel=7, data=[72, 63]),
   midi.NoteOffEvent(tick=960, channel=7, data=[72, 0]),
   midi.NoteOnEvent(tick=0, channel=7, data=[74, 68]),
   midi.NoteOffEvent(tick=960, channel=7, data=[74, 0]),
   midi.NoteOnEvent(tick=0, channel=7, data=[69, 57]),
   midi.NoteOffEvent(tick=960, channel=7, data=[69, 0]),
   midi.NoteOnEvent(tick=0, channel=7, data=[69, 62]),
   midi.NoteOnEvent(tick=960, channel=7, data=[67, 56]),
   midi.NoteOffEvent(tick=19, channel=7, data=[69, 0]),
   midi.NoteOffEvent(tick=892, channel=7, data=[67, 0]),
   midi.NoteOnEvent(tick=7729, channel=7, data=[70, 65]),
   midi.NoteOnEvent(tick=960, channel=7, data=[72, 62]),
   midi.NoteOffEvent(tick=19, channel=7, data=[70, 0]),
   midi.NoteOffEvent(tick=892, channel=7, data=[72, 0]),
   midi.NoteOnEvent(tick=49, channel=7, data=[73, 66]),
   midi.NoteOffEvent(tick=960, channel=7, data=[73, 0]),
   midi.NoteOnEvent(tick=0, channel=7, data=[72, 61]),
   midi.NoteOffEvent(tick=960, channel=7, data=[72, 0]),
   midi.NoteOnEvent(tick=3840, channel=7, data=[72, 65]),
   midi.NoteOnEvent(tick=960, channel=7, data=[74, 62]),
   midi.NoteOffEvent(tick=19, channel=7, data=[72, 0]),
   midi.NoteOffEvent(tick=892, channel=7, data=[74, 0]),
   midi.NoteOnEvent(tick=49, channel=7, data=[75, 66]),
   midi.NoteOffEvent(tick=960, channel=7, data=[75, 0]),
   midi.NoteOnEvent(tick=0, channel=7, data=[74, 61]),
   midi.NoteOffEvent(tick=960, channel=7, data=[74, 0]),
   midi.NoteOnEvent(tick=3840, channel=7, data=[77, 65]),
   midi.NoteOnEvent(tick=960, channel=7, data=[79, 62]),
   midi.NoteOffEvent(tick=19, channel=7, data=[77, 0]),
   midi.NoteOffEvent(tick=892, channel=7, data=[79, 0]),
   midi.NoteOnEvent(tick=49, channel=7, data=[80, 77]),
   midi.NoteOffEvent(tick=960, channel=7, data=[80, 0]),
   midi.NoteOnEvent(tick=0, channel=7, data=[79, 71]),
   midi.NoteOffEvent(tick=960, channel=7, data=[79, 0]),
   midi.NoteOnEvent(tick=0, channel=7, data=[77, 72]),
   midi.NoteOffEvent(tick=960, channel=7, data=[77, 0]),
   midi.NoteOnEvent(tick=0, channel=7, data=[79, 72]),
   midi.NoteOffEvent(tick=960, channel=7, data=[79, 0]),
   midi.NoteOnEvent(tick=0, channel=7, data=[80, 78]),
   midi.NoteOnEvent(tick=960, channel=7, data=[79, 71]),
   midi.NoteOffEvent(tick=19, channel=7, data=[80, 0]),
   midi.NoteOffEvent(tick=892, channel=7, data=[79, 0]),
   midi.NoteOnEvent(tick=49, channel=7, data=[77, 72]),
   midi.NoteOffEvent(tick=960, channel=7, data=[77, 0]),
   midi.NoteOnEvent(tick=0, channel=7, data=[79, 72]),
   midi.NoteOffEvent(tick=960, channel=7, data=[79, 0]),
   midi.NoteOnEvent(tick=0, channel=7, data=[80, 92]),
   midi.NoteOnEvent(tick=960, channel=7, data=[79, 84]),
   midi.NoteOffEvent(tick=19, channel=7, data=[80, 0]),
   midi.NoteOffEvent(tick=892, channel=7, data=[79, 0]),
   midi.NoteOnEvent(tick=49, channel=7, data=[77, 85]),
   midi.NoteOffEvent(tick=960, channel=7, data=[77, 0]),
   midi.NoteOnEvent(tick=0, channel=7, data=[79, 85]),
   midi.NoteOffEvent(tick=960, channel=7, data=[79, 0]),
   midi.NoteOnEvent(tick=0, channel=7, data=[80, 92]),
   midi.NoteOnEvent(tick=960, channel=7, data=[79, 84]),
   midi.NoteOffEvent(tick=19, channel=7, data=[80, 0]),
   midi.NoteOffEvent(tick=892, channel=7, data=[79, 0]),
   midi.NoteOnEvent(tick=49, channel=7, data=[78, 87]),
   midi.NoteOffEvent(tick=960, channel=7, data=[78, 0]),
   midi.NoteOnEvent(tick=0, channel=7, data=[79, 84]),
   midi.NoteOffEvent(tick=960, channel=7, data=[79, 0]),
   midi.NoteOnEvent(tick=0, channel=7, data=[81, 93]),
   midi.NoteOnEvent(tick=960, channel=7, data=[79, 83]),
   midi.NoteOffEvent(tick=19, channel=7, data=[81, 0]),
   midi.NoteOffEvent(tick=892, channel=7, data=[79, 0]),
   midi.NoteOnEvent(tick=49, channel=7, data=[78, 86]),
   midi.NoteOffEvent(tick=960, channel=7, data=[78, 0]),
   midi.NoteOnEvent(tick=0, channel=7, data=[79, 84]),
   midi.NoteOffEvent(tick=960, channel=7, data=[79, 0]),
   midi.NoteOnEvent(tick=0, channel=7, data=[81, 108]),
   midi.NoteOnEvent(tick=960, channel=7, data=[79, 96]),
   midi.NoteOffEvent(tick=19, channel=7, data=[81, 0]),
   midi.NoteOffEvent(tick=892, channel=7, data=[79, 0]),
   midi.NoteOnEvent(tick=49, channel=7, data=[78, 100]),
   midi.NoteOffEvent(tick=960, channel=7, data=[78, 0]),
   midi.NoteOnEvent(tick=0, channel=7, data=[79, 98]),
   midi.NoteOffEvent(tick=960, channel=7, data=[79, 0]),
   midi.NoteOnEvent(tick=0, channel=7, data=[78, 101]),
   midi.NoteOffEvent(tick=960, channel=7, data=[78, 0]),
   midi.NoteOnEvent(tick=0, channel=7, data=[79, 99]),
   midi.NoteOffEvent(tick=960, channel=7, data=[79, 0]),
   midi.NoteOnEvent(tick=0, channel=7, data=[78, 102]),
   midi.NoteOffEvent(tick=960, channel=7, data=[78, 0]),
   midi.NoteOnEvent(tick=0, channel=7, data=[79, 99]),
   midi.NoteOffEvent(tick=960, channel=7, data=[79, 0]),
   midi.NoteOnEvent(tick=0, channel=7, data=[79, 121]),
   midi.NoteOffEvent(tick=2400, channel=7, data=[79, 0]),
   midi.NoteOnEvent(tick=0, channel=7, data=[81, 116]),
   midi.NoteOffEvent(tick=240, channel=7, data=[81, 0]),
   midi.NoteOnEvent(tick=240, channel=7, data=[79, 113]),
   midi.NoteOffEvent(tick=240, channel=7, data=[79, 0]),
   midi.NoteOnEvent(tick=240, channel=7, data=[77, 110]),
   midi.NoteOffEvent(tick=240, channel=7, data=[77, 0]),
   midi.NoteOnEvent(tick=240, channel=7, data=[77, 117]),
   midi.NoteOnEvent(tick=480, channel=7, data=[76, 109]),
   midi.NoteOffEvent(tick=8, channel=7, data=[77, 0]),
   midi.NoteOffEvent(tick=446, channel=7, data=[76, 0]),
   midi.NoteOnEvent(tick=26, channel=7, data=[74, 105]),
   midi.NoteOffEvent(tick=240, channel=7, data=[74, 0]),
   midi.NoteOnEvent(tick=240, channel=7, data=[72, 101]),
   midi.NoteOffEvent(tick=240, channel=7, data=[72, 0]),
   midi.NoteOnEvent(tick=240, channel=7, data=[72, 109]),
   midi.NoteOnEvent(tick=480, channel=7, data=[71, 102]),
   midi.NoteOffEvent(tick=8, channel=7, data=[72, 0]),
   midi.NoteOffEvent(tick=446, channel=7, data=[71, 0]),
   midi.NoteOnEvent(tick=26, channel=7, data=[69, 99]),
   midi.NoteOffEvent(tick=240, channel=7, data=[69, 0]),
   midi.NoteOnEvent(tick=240, channel=7, data=[71, 106]),
   midi.NoteOffEvent(tick=240, channel=7, data=[71, 0]),
   midi.NoteOnEvent(tick=240, channel=7, data=[74, 123]),
   midi.NoteOnEvent(tick=480, channel=7, data=[72, 109]),
   midi.NoteOffEvent(tick=8, channel=7, data=[74, 0]),
   midi.NoteOffEvent(tick=446, channel=7, data=[72, 0]),
   midi.NoteOnEvent(tick=26, channel=7, data=[67, 96]),
   midi.NoteOffEvent(tick=240, channel=7, data=[67, 0]),
   midi.NoteOnEvent(tick=240, channel=7, data=[64, 96]),
   midi.NoteOffEvent(tick=240, channel=7, data=[64, 0]),
   midi.NoteOnEvent(tick=240, channel=7, data=[71, 118]),
   midi.NoteOnEvent(tick=480, channel=7, data=[69, 105]),
   midi.NoteOffEvent(tick=8, channel=7, data=[71, 0]),
   midi.NoteOffEvent(tick=446, channel=7, data=[69, 0]),
   midi.NoteOnEvent(tick=26, channel=7, data=[65, 96]),
   midi.NoteOffEvent(tick=240, channel=7, data=[65, 0]),
   midi.NoteOnEvent(tick=240, channel=7, data=[62, 96]),
   midi.NoteOffEvent(tick=240, channel=7, data=[62, 0]),
   midi.NoteOnEvent(tick=240, channel=7, data=[69, 118]),
   midi.NoteOnEvent(tick=480, channel=7, data=[67, 105]),
   midi.NoteOffEvent(tick=8, channel=7, data=[69, 0]),
   midi.NoteOffEvent(tick=446, channel=7, data=[67, 0]),
   midi.NoteOnEvent(tick=26, channel=7, data=[64, 98]),
   midi.NoteOffEvent(tick=240, channel=7, data=[64, 0]),
   midi.NoteOnEvent(tick=240, channel=7, data=[60, 96]),
   midi.NoteOffEvent(tick=240, channel=7, data=[60, 0]),
   midi.NoteOnEvent(tick=240, channel=7, data=[55, 102]),
   midi.NoteOffEvent(tick=240, channel=7, data=[55, 0]),
   midi.NoteOnEvent(tick=240, channel=7, data=[78, 127]),
   midi.NoteOnEvent(tick=480, channel=7, data=[79, 127]),
   midi.NoteOffEvent(tick=8, channel=7, data=[78, 0]),
   midi.NoteOffEvent(tick=446, channel=7, data=[79, 0]),
   midi.NoteOnEvent(tick=26, channel=7, data=[78, 127]),
   midi.NoteOffEvent(tick=480, channel=7, data=[78, 0]),
   midi.NoteOnEvent(tick=0, channel=7, data=[79, 127]),
   midi.NoteOffEvent(tick=480, channel=7, data=[79, 0]),
   midi.NoteOnEvent(tick=0, channel=7, data=[78, 125]),
   midi.NoteOffEvent(tick=480, channel=7, data=[78, 0]),
   midi.NoteOnEvent(tick=0, channel=7, data=[79, 125]),
   midi.NoteOffEvent(tick=480, channel=7, data=[79, 0]),
   midi.NoteOnEvent(tick=0, channel=7, data=[78, 119]),
   midi.NoteOffEvent(tick=480, channel=7, data=[78, 0]),
   midi.NoteOnEvent(tick=0, channel=7, data=[79, 127]),
   midi.NoteOffEvent(tick=240, channel=7, data=[79, 0]),
   midi.NoteOnEvent(tick=240, channel=7, data=[81, 126]),
   midi.NoteOffEvent(tick=240, channel=7, data=[81, 0]),
   midi.NoteOnEvent(tick=240, channel=7, data=[79, 118]),
   midi.NoteOffEvent(tick=240, channel=7, data=[79, 0]),
   midi.NoteOnEvent(tick=240, channel=7, data=[77, 109]),
   midi.NoteOffEvent(tick=240, channel=7, data=[77, 0]),
   midi.NoteOnEvent(tick=240, channel=7, data=[77, 116]),
   midi.NoteOnEvent(tick=480, channel=7, data=[76, 106]),
   midi.NoteOffEvent(tick=8, channel=7, data=[77, 0]),
   midi.NoteOffEvent(tick=446, channel=7, data=[76, 0]),
   midi.NoteOnEvent(tick=26, channel=7, data=[74, 101]),
   midi.NoteOffEvent(tick=240, channel=7, data=[74, 0]),
   midi.NoteOnEvent(tick=240, channel=7, data=[72, 98]),
   midi.NoteOffEvent(tick=240, channel=7, data=[72, 0]),
   midi.NoteOnEvent(tick=240, channel=7, data=[72, 106]),
   midi.NoteOnEvent(tick=480, channel=7, data=[71, 100]),
   midi.NoteOffEvent(tick=8, channel=7, data=[72, 0]),
   midi.NoteOffEvent(tick=446, channel=7, data=[71, 0]),
   midi.NoteOnEvent(tick=26, channel=7, data=[69, 97]),
   midi.NoteOffEvent(tick=240, channel=7, data=[69, 0]),
   midi.NoteOnEvent(tick=240, channel=7, data=[71, 104]),
   midi.NoteOffEvent(tick=240, channel=7, data=[71, 0]),
   midi.NoteOnEvent(tick=240, channel=7, data=[74, 122]),
   midi.NoteOnEvent(tick=480, channel=7, data=[72, 108]),
   midi.NoteOffEvent(tick=8, channel=7, data=[74, 0]),
   midi.NoteOffEvent(tick=446, channel=7, data=[72, 0]),
   midi.NoteOnEvent(tick=26, channel=7, data=[67, 96]),
   midi.NoteOffEvent(tick=240, channel=7, data=[67, 0]),
   midi.NoteOnEvent(tick=240, channel=7, data=[64, 96]),
   midi.NoteOffEvent(tick=240, channel=7, data=[64, 0]),
   midi.NoteOnEvent(tick=240, channel=7, data=[71, 118]),
   midi.NoteOnEvent(tick=480, channel=7, data=[69, 105]),
   midi.NoteOffEvent(tick=8, channel=7, data=[71, 0]),
   midi.NoteOffEvent(tick=446, channel=7, data=[69, 0]),
   midi.NoteOnEvent(tick=26, channel=7, data=[65, 96]),
   midi.NoteOffEvent(tick=240, channel=7, data=[65, 0]),
   midi.NoteOnEvent(tick=240, channel=7, data=[62, 96]),
   midi.NoteOffEvent(tick=240, channel=7, data=[62, 0]),
   midi.NoteOnEvent(tick=240, channel=7, data=[69, 118]),
   midi.NoteOnEvent(tick=480, channel=7, data=[67, 105]),
   midi.NoteOffEvent(tick=8, channel=7, data=[69, 0]),
   midi.NoteOffEvent(tick=446, channel=7, data=[67, 0]),
   midi.NoteOnEvent(tick=26, channel=7, data=[64, 98]),
   midi.NoteOffEvent(tick=240, channel=7, data=[64, 0]),
   midi.NoteOnEvent(tick=240, channel=7, data=[60, 96]),
   midi.NoteOffEvent(tick=240, channel=7, data=[60, 0]),
   midi.NoteOnEvent(tick=240, channel=7, data=[55, 102]),
   midi.NoteOffEvent(tick=480, channel=7, data=[55, 0]),
   midi.NoteOnEvent(tick=0, channel=7, data=[67, 123]),
   midi.NoteOffEvent(tick=480, channel=7, data=[67, 0]),
   midi.NoteOnEvent(tick=0, channel=7, data=[79, 127]),
   midi.NoteOffEvent(tick=480, channel=7, data=[79, 0]),
   midi.NoteOnEvent(tick=0, channel=7, data=[79, 127]),
   midi.NoteOffEvent(tick=480, channel=7, data=[79, 0]),
   midi.NoteOnEvent(tick=0, channel=7, data=[72, 127]),
   midi.NoteOffEvent(tick=6240, channel=7, data=[72, 0]),
   midi.NoteOnEvent(tick=0, channel=7, data=[74, 113]),
   midi.NoteOffEvent(tick=480, channel=7, data=[74, 0]),
   midi.NoteOnEvent(tick=0, channel=7, data=[74, 113]),
   midi.NoteOffEvent(tick=480, channel=7, data=[74, 0]),
   midi.NoteOnEvent(tick=0, channel=7, data=[74, 113]),
   midi.NoteOffEvent(tick=480, channel=7, data=[74, 0]),
   midi.NoteOnEvent(tick=0, channel=7, data=[76, 125]),
   midi.NoteOffEvent(tick=6240, channel=7, data=[76, 0]),
   midi.NoteOnEvent(tick=0, channel=7, data=[79, 114]),
   midi.NoteOffEvent(tick=480, channel=7, data=[79, 0]),
   midi.NoteOnEvent(tick=0, channel=7, data=[79, 113]),
   midi.NoteOffEvent(tick=480, channel=7, data=[79, 0]),
   midi.NoteOnEvent(tick=0, channel=7, data=[79, 113]),
   midi.NoteOffEvent(tick=480, channel=7, data=[79, 0]),
   midi.NoteOnEvent(tick=0, channel=7, data=[79, 120]),
   midi.NoteOffEvent(tick=960, channel=7, data=[79, 0]),
   midi.NoteOnEvent(tick=1440, channel=7, data=[79, 113]),
   midi.NoteOffEvent(tick=480, channel=7, data=[79, 0]),
   midi.NoteOnEvent(tick=0, channel=7, data=[79, 113]),
   midi.NoteOffEvent(tick=480, channel=7, data=[79, 0]),
   midi.NoteOnEvent(tick=0, channel=7, data=[79, 113]),
   midi.NoteOffEvent(tick=480, channel=7, data=[79, 0]),
   midi.NoteOnEvent(tick=0, channel=7, data=[79, 120]),
   midi.NoteOffEvent(tick=960, channel=7, data=[79, 0]),
   midi.NoteOnEvent(tick=1440, channel=7, data=[83, 120]),
   midi.NoteOnEvent(tick=0, channel=7, data=[74, 113]),
   midi.NoteOffEvent(tick=480, channel=7, data=[83, 0]),
   midi.NoteOffEvent(tick=0, channel=7, data=[74, 0]),
   midi.NoteOnEvent(tick=0, channel=7, data=[83, 119]),
   midi.NoteOnEvent(tick=0, channel=7, data=[74, 113]),
   midi.NoteOffEvent(tick=480, channel=7, data=[83, 0]),
   midi.NoteOffEvent(tick=0, channel=7, data=[74, 0]),
   midi.NoteOnEvent(tick=0, channel=7, data=[83, 118]),
   midi.NoteOnEvent(tick=0, channel=7, data=[74, 113]),
   midi.NoteOffEvent(tick=480, channel=7, data=[83, 0]),
   midi.NoteOffEvent(tick=0, channel=7, data=[74, 0]),
   midi.NoteOnEvent(tick=0, channel=7, data=[84, 110]),
   midi.NoteOffEvent(tick=2400, channel=7, data=[84, 0]),
   midi.NoteOnEvent(tick=0, channel=7, data=[84, 100]),
   midi.NoteOffEvent(tick=480, channel=7, data=[84, 0]),
   midi.NoteOnEvent(tick=0, channel=7, data=[84, 99]),
   midi.NoteOffEvent(tick=480, channel=7, data=[84, 0]),
   midi.NoteOnEvent(tick=0, channel=7, data=[84, 99]),
   midi.NoteOffEvent(tick=480, channel=7, data=[84, 0]),
   midi.NoteOnEvent(tick=0, channel=7, data=[84, 104]),
   midi.NoteOffEvent(tick=2400, channel=7, data=[84, 0]),
   midi.NoteOnEvent(tick=0, channel=7, data=[84, 98]),
   midi.NoteOffEvent(tick=480, channel=7, data=[84, 0]),
   midi.NoteOnEvent(tick=0, channel=7, data=[84, 98]),
   midi.NoteOffEvent(tick=480, channel=7, data=[84, 0]),
   midi.NoteOnEvent(tick=0, channel=7, data=[84, 98]),
   midi.NoteOffEvent(tick=480, channel=7, data=[84, 0]),
   midi.NoteOnEvent(tick=0, channel=7, data=[84, 104]),
   midi.NoteOffEvent(tick=2400, channel=7, data=[84, 0]),
   midi.NoteOnEvent(tick=0, channel=7, data=[84, 98]),
   midi.NoteOffEvent(tick=480, channel=7, data=[84, 0]),
   midi.NoteOnEvent(tick=0, channel=7, data=[84, 98]),
   midi.NoteOffEvent(tick=480, channel=7, data=[84, 0]),
   midi.NoteOnEvent(tick=0, channel=7, data=[84, 98]),
   midi.NoteOffEvent(tick=480, channel=7, data=[84, 0]),
   midi.NoteOnEvent(tick=0, channel=7, data=[84, 104]),
   midi.NoteOffEvent(tick=2400, channel=7, data=[84, 0]),
   midi.NoteOnEvent(tick=0, channel=7, data=[84, 98]),
   midi.NoteOffEvent(tick=480, channel=7, data=[84, 0]),
   midi.NoteOnEvent(tick=0, channel=7, data=[84, 98]),
   midi.NoteOffEvent(tick=480, channel=7, data=[84, 0]),
   midi.NoteOnEvent(tick=0, channel=7, data=[84, 98]),
   midi.NoteOffEvent(tick=480, channel=7, data=[84, 0]),
   midi.NoteOnEvent(tick=0, channel=7, data=[85, 123]),
   midi.NoteOffEvent(tick=480, channel=7, data=[85, 0]),
   midi.NoteOnEvent(tick=0, channel=7, data=[85, 116]),
   midi.NoteOffEvent(tick=480, channel=7, data=[85, 0]),
   midi.NoteOnEvent(tick=0, channel=7, data=[85, 115]),
   midi.NoteOffEvent(tick=480, channel=7, data=[85, 0]),
   midi.NoteOnEvent(tick=0, channel=7, data=[85, 115]),
   midi.NoteOffEvent(tick=480, channel=7, data=[85, 0]),
   midi.NoteOnEvent(tick=0, channel=7, data=[85, 122]),
   midi.NoteOffEvent(tick=480, channel=7, data=[85, 0]),
   midi.NoteOnEvent(tick=0, channel=7, data=[85, 114]),
   midi.NoteOffEvent(tick=480, channel=7, data=[85, 0]),
   midi.NoteOnEvent(tick=0, channel=7, data=[85, 114]),
   midi.NoteOffEvent(tick=480, channel=7, data=[85, 0]),
   midi.NoteOnEvent(tick=0, channel=7, data=[85, 114]),
   midi.NoteOffEvent(tick=480, channel=7, data=[85, 0]),
   midi.NoteOnEvent(tick=0, channel=7, data=[85, 120]),
   midi.NoteOffEvent(tick=480, channel=7, data=[85, 0]),
   midi.NoteOnEvent(tick=0, channel=7, data=[85, 114]),
   midi.NoteOffEvent(tick=480, channel=7, data=[85, 0]),
   midi.NoteOnEvent(tick=0, channel=7, data=[85, 113]),
   midi.NoteOffEvent(tick=480, channel=7, data=[85, 0]),
   midi.NoteOnEvent(tick=0, channel=7, data=[85, 113]),
   midi.NoteOffEvent(tick=480, channel=7, data=[85, 0]),
   midi.NoteOnEvent(tick=0, channel=7, data=[85, 120]),
   midi.NoteOffEvent(tick=480, channel=7, data=[85, 0]),
   midi.NoteOnEvent(tick=0, channel=7, data=[85, 113]),
   midi.NoteOffEvent(tick=480, channel=7, data=[85, 0]),
   midi.NoteOnEvent(tick=0, channel=7, data=[85, 113]),
   midi.NoteOffEvent(tick=480, channel=7, data=[85, 0]),
   midi.NoteOnEvent(tick=0, channel=7, data=[85, 113]),
   midi.NoteOffEvent(tick=480, channel=7, data=[85, 0]),
   midi.NoteOnEvent(tick=0, channel=7, data=[85, 120]),
   midi.NoteOffEvent(tick=960, channel=7, data=[85, 0]),
   midi.NoteOnEvent(tick=7200, channel=7, data=[87, 113]),
   midi.NoteOnEvent(tick=0, channel=7, data=[75, 113]),
   midi.NoteOffEvent(tick=480, channel=7, data=[87, 0]),
   midi.NoteOffEvent(tick=0, channel=7, data=[75, 0]),
   midi.NoteOnEvent(tick=0, channel=7, data=[87, 113]),
   midi.NoteOnEvent(tick=0, channel=7, data=[75, 113]),
   midi.NoteOffEvent(tick=480, channel=7, data=[87, 0]),
   midi.NoteOffEvent(tick=0, channel=7, data=[75, 0]),
   midi.NoteOnEvent(tick=0, channel=7, data=[87, 113]),
   midi.NoteOnEvent(tick=0, channel=7, data=[75, 113]),
   midi.NoteOffEvent(tick=480, channel=7, data=[87, 0]),
   midi.NoteOffEvent(tick=0, channel=7, data=[75, 0]),
   midi.NoteOnEvent(tick=0, channel=7, data=[87, 120]),
   midi.NoteOnEvent(tick=0, channel=7, data=[75, 120]),
   midi.NoteOffEvent(tick=480, channel=7, data=[87, 0]),
   midi.NoteOffEvent(tick=0, channel=7, data=[75, 0]),
   midi.NoteOnEvent(tick=0, channel=7, data=[87, 113]),
   midi.NoteOnEvent(tick=0, channel=7, data=[75, 113]),
   midi.NoteOffEvent(tick=480, channel=7, data=[87, 0]),
   midi.NoteOffEvent(tick=0, channel=7, data=[75, 0]),
   midi.NoteOnEvent(tick=0, channel=7, data=[87, 113]),
   midi.NoteOnEvent(tick=0, channel=7, data=[75, 113]),
   midi.NoteOffEvent(tick=480, channel=7, data=[87, 0]),
   midi.NoteOffEvent(tick=0, channel=7, data=[75, 0]),
   midi.NoteOnEvent(tick=0, channel=7, data=[87, 113]),
   midi.NoteOnEvent(tick=0, channel=7, data=[75, 113]),
   midi.NoteOffEvent(tick=480, channel=7, data=[87, 0]),
   midi.NoteOffEvent(tick=0, channel=7, data=[75, 0]),
   midi.NoteOnEvent(tick=0, channel=7, data=[87, 120]),
   midi.NoteOnEvent(tick=0, channel=7, data=[75, 120]),
   midi.NoteOffEvent(tick=480, channel=7, data=[87, 0]),
   midi.NoteOffEvent(tick=0, channel=7, data=[75, 0]),
   midi.NoteOnEvent(tick=0, channel=7, data=[87, 113]),
   midi.NoteOnEvent(tick=0, channel=7, data=[75, 113]),
   midi.NoteOffEvent(tick=480, channel=7, data=[87, 0]),
   midi.NoteOffEvent(tick=0, channel=7, data=[75, 0]),
   midi.NoteOnEvent(tick=0, channel=7, data=[87, 113]),
   midi.NoteOnEvent(tick=0, channel=7, data=[75, 113]),
   midi.NoteOffEvent(tick=480, channel=7, data=[87, 0]),
   midi.NoteOffEvent(tick=0, channel=7, data=[75, 0]),
   midi.NoteOnEvent(tick=0, channel=7, data=[87, 113]),
   midi.NoteOnEvent(tick=0, channel=7, data=[75, 113]),
   midi.NoteOffEvent(tick=480, channel=7, data=[87, 0]),
   midi.NoteOffEvent(tick=0, channel=7, data=[75, 0]),
   midi.NoteOnEvent(tick=0, channel=7, data=[87, 120]),
   midi.NoteOnEvent(tick=0, channel=7, data=[75, 120]),
   midi.NoteOffEvent(tick=480, channel=7, data=[87, 0]),
   midi.NoteOffEvent(tick=0, channel=7, data=[75, 0]),
   midi.NoteOnEvent(tick=0, channel=7, data=[87, 113]),
   midi.NoteOnEvent(tick=0, channel=7, data=[75, 113]),
   midi.NoteOffEvent(tick=480, channel=7, data=[87, 0]),
   midi.NoteOffEvent(tick=0, channel=7, data=[75, 0]),
   midi.NoteOnEvent(tick=0, channel=7, data=[87, 113]),
   midi.NoteOnEvent(tick=0, channel=7, data=[75, 113]),
   midi.NoteOffEvent(tick=480, channel=7, data=[87, 0]),
   midi.NoteOffEvent(tick=0, channel=7, data=[75, 0]),
   midi.NoteOnEvent(tick=0, channel=7, data=[87, 113]),
   midi.NoteOnEvent(tick=0, channel=7, data=[75, 113]),
   midi.NoteOffEvent(tick=480, channel=7, data=[87, 0]),
   midi.NoteOffEvent(tick=0, channel=7, data=[75, 0]),
   midi.NoteOnEvent(tick=0, channel=7, data=[87, 120]),
   midi.NoteOnEvent(tick=0, channel=7, data=[75, 120]),
   midi.NoteOffEvent(tick=480, channel=7, data=[87, 0]),
   midi.NoteOffEvent(tick=0, channel=7, data=[75, 0]),
   midi.NoteOnEvent(tick=0, channel=7, data=[87, 113]),
   midi.NoteOnEvent(tick=0, channel=7, data=[75, 113]),
   midi.NoteOffEvent(tick=480, channel=7, data=[87, 0]),
   midi.NoteOffEvent(tick=0, channel=7, data=[75, 0]),
   midi.NoteOnEvent(tick=0, channel=7, data=[87, 113]),
   midi.NoteOnEvent(tick=0, channel=7, data=[75, 113]),
   midi.NoteOffEvent(tick=480, channel=7, data=[87, 0]),
   midi.NoteOffEvent(tick=0, channel=7, data=[75, 0]),
   midi.NoteOnEvent(tick=0, channel=7, data=[87, 113]),
   midi.NoteOnEvent(tick=0, channel=7, data=[75, 113]),
   midi.NoteOffEvent(tick=480, channel=7, data=[87, 0]),
   midi.NoteOffEvent(tick=0, channel=7, data=[75, 0]),
   midi.NoteOnEvent(tick=0, channel=7, data=[87, 120]),
   midi.NoteOnEvent(tick=0, channel=7, data=[75, 120]),
   midi.NoteOffEvent(tick=960, channel=7, data=[87, 0]),
   midi.NoteOffEvent(tick=0, channel=7, data=[75, 0]),
   midi.NoteOnEvent(tick=8640, channel=7, data=[71, 120]),
   midi.NoteOnEvent(tick=480, channel=7, data=[72, 114]),
   midi.NoteOffEvent(tick=8, channel=7, data=[71, 0]),
   midi.NoteOffEvent(tick=446, channel=7, data=[72, 0]),
   midi.NoteOnEvent(tick=26, channel=7, data=[74, 117]),
   midi.NoteOffEvent(tick=480, channel=7, data=[74, 0]),
   midi.NoteOnEvent(tick=0, channel=7, data=[75, 119]),
   midi.NoteOffEvent(tick=480, channel=7, data=[75, 0]),
   midi.NoteOnEvent(tick=0, channel=7, data=[77, 127]),
   midi.NoteOffEvent(tick=480, channel=7, data=[77, 0]),
   midi.NoteOnEvent(tick=0, channel=7, data=[79, 127]),
   midi.NoteOffEvent(tick=480, channel=7, data=[79, 0]),
   midi.NoteOnEvent(tick=0, channel=7, data=[80, 127]),
   midi.NoteOffEvent(tick=480, channel=7, data=[80, 0]),
   midi.NoteOnEvent(tick=0, channel=7, data=[79, 125]),
   midi.NoteOffEvent(tick=480, channel=7, data=[79, 0]),
   midi.NoteOnEvent(tick=0, channel=7, data=[80, 127]),
   midi.NoteOffEvent(tick=480, channel=7, data=[80, 0]),
   midi.NoteOnEvent(tick=0, channel=7, data=[79, 120]),
   midi.NoteOffEvent(tick=480, channel=7, data=[79, 0]),
   midi.NoteOnEvent(tick=0, channel=7, data=[80, 124]),
   midi.NoteOffEvent(tick=480, channel=7, data=[80, 0]),
   midi.NoteOnEvent(tick=0, channel=7, data=[79, 117]),
   midi.NoteOffEvent(tick=480, channel=7, data=[79, 0]),
   midi.NoteOnEvent(tick=1920, channel=7, data=[71, 103]),
   midi.NoteOnEvent(tick=480, channel=7, data=[72, 101]),
   midi.NoteOffEvent(tick=8, channel=7, data=[71, 0]),
   midi.NoteOffEvent(tick=446, channel=7, data=[72, 0]),
   midi.NoteOnEvent(tick=26, channel=7, data=[74, 109]),
   midi.NoteOffEvent(tick=480, channel=7, data=[74, 0]),
   midi.NoteOnEvent(tick=0, channel=7, data=[75, 114]),
   midi.NoteOffEvent(tick=480, channel=7, data=[75, 0]),
   midi.NoteOnEvent(tick=0, channel=7, data=[77, 127]),
   midi.NoteOffEvent(tick=480, channel=7, data=[77, 0]),
   midi.NoteOnEvent(tick=0, channel=7, data=[79, 127]),
   midi.NoteOffEvent(tick=480, channel=7, data=[79, 0]),
   midi.NoteOnEvent(tick=0, channel=7, data=[80, 127]),
   midi.NoteOffEvent(tick=480, channel=7, data=[80, 0]),
   midi.NoteOnEvent(tick=0, channel=7, data=[79, 125]),
   midi.NoteOffEvent(tick=480, channel=7, data=[79, 0]),
   midi.NoteOnEvent(tick=0, channel=7, data=[80, 127]),
   midi.NoteOffEvent(tick=480, channel=7, data=[80, 0]),
   midi.NoteOnEvent(tick=0, channel=7, data=[79, 120]),
   midi.NoteOffEvent(tick=480, channel=7, data=[79, 0]),
   midi.NoteOnEvent(tick=0, channel=7, data=[80, 124]),
   midi.NoteOffEvent(tick=480, channel=7, data=[80, 0]),
   midi.NoteOnEvent(tick=0, channel=7, data=[79, 117]),
   midi.NoteOffEvent(tick=480, channel=7, data=[79, 0]),
   midi.NoteOnEvent(tick=0, channel=7, data=[80, 127]),
   midi.NoteOffEvent(tick=480, channel=7, data=[80, 0]),
   midi.NoteOnEvent(tick=0, channel=7, data=[79, 114]),
   midi.NoteOffEvent(tick=480, channel=7, data=[79, 0]),
   midi.NoteOnEvent(tick=0, channel=7, data=[82, 127]),
   midi.NoteOffEvent(tick=480, channel=7, data=[82, 0]),
   midi.NoteOnEvent(tick=0, channel=7, data=[80, 116]),
   midi.NoteOffEvent(tick=480, channel=7, data=[80, 0]),
   midi.NoteOnEvent(tick=0, channel=7, data=[79, 116]),
   midi.NoteOffEvent(tick=480, channel=7, data=[79, 0]),
   midi.NoteOnEvent(tick=0, channel=7, data=[77, 100]),
   midi.NoteOffEvent(tick=480, channel=7, data=[77, 0]),
   midi.NoteOnEvent(tick=0, channel=7, data=[80, 117]),
   midi.NoteOffEvent(tick=480, channel=7, data=[80, 0]),
   midi.NoteOnEvent(tick=0, channel=7, data=[79, 111]),
   midi.NoteOffEvent(tick=480, channel=7, data=[79, 0]),
   midi.NoteOnEvent(tick=0, channel=7, data=[77, 107]),
   midi.NoteOffEvent(tick=480, channel=7, data=[77, 0]),
   midi.NoteOnEvent(tick=0, channel=7, data=[75, 96]),
   midi.NoteOffEvent(tick=480, channel=7, data=[75, 0]),
   midi.NoteOnEvent(tick=0, channel=7, data=[79, 117]),
   midi.NoteOffEvent(tick=480, channel=7, data=[79, 0]),
   midi.NoteOnEvent(tick=0, channel=7, data=[77, 105]),
   midi.NoteOffEvent(tick=480, channel=7, data=[77, 0]),
   midi.NoteOnEvent(tick=0, channel=7, data=[75, 105]),
   midi.NoteOffEvent(tick=480, channel=7, data=[75, 0]),
   midi.NoteOnEvent(tick=0, channel=7, data=[74, 97]),
   midi.NoteOffEvent(tick=480, channel=7, data=[74, 0]),
   midi.NoteOnEvent(tick=0, channel=7, data=[77, 114]),
   midi.NoteOffEvent(tick=480, channel=7, data=[77, 0]),
   midi.NoteOnEvent(tick=0, channel=7, data=[75, 103]),
   midi.NoteOffEvent(tick=480, channel=7, data=[75, 0]),
   midi.NoteOnEvent(tick=0, channel=7, data=[74, 107]),
   midi.NoteOffEvent(tick=480, channel=7, data=[74, 0]),
   midi.NoteOnEvent(tick=0, channel=7, data=[72, 96]),
   midi.NoteOffEvent(tick=480, channel=7, data=[72, 0]),
   midi.NoteOnEvent(tick=0, channel=7, data=[75, 112]),
   midi.NoteOffEvent(tick=480, channel=7, data=[75, 0]),
   midi.NoteOnEvent(tick=0, channel=7, data=[74, 107]),
   midi.NoteOffEvent(tick=480, channel=7, data=[74, 0]),
   midi.NoteOnEvent(tick=0, channel=7, data=[72, 105]),
   midi.NoteOffEvent(tick=480, channel=7, data=[72, 0]),
   midi.NoteOnEvent(tick=0, channel=7, data=[70, 96]),
   midi.NoteOffEvent(tick=480, channel=7, data=[70, 0]),
   midi.NoteOnEvent(tick=0, channel=7, data=[74, 116]),
   midi.NoteOffEvent(tick=480, channel=7, data=[74, 0]),
   midi.NoteOnEvent(tick=0, channel=7, data=[72, 105]),
   midi.NoteOffEvent(tick=480, channel=7, data=[72, 0]),
   midi.NoteOnEvent(tick=0, channel=7, data=[70, 104]),
   midi.NoteOffEvent(tick=480, channel=7, data=[70, 0]),
   midi.NoteOnEvent(tick=0, channel=7, data=[68, 96]),
   midi.NoteOffEvent(tick=480, channel=7, data=[68, 0]),
   midi.NoteOnEvent(tick=0, channel=7, data=[72, 114]),
   midi.NoteOffEvent(tick=480, channel=7, data=[72, 0]),
   midi.NoteOnEvent(tick=0, channel=7, data=[70, 104]),
   midi.NoteOffEvent(tick=480, channel=7, data=[70, 0]),
   midi.NoteOnEvent(tick=0, channel=7, data=[68, 104]),
   midi.NoteOffEvent(tick=480, channel=7, data=[68, 0]),
   midi.NoteOnEvent(tick=0, channel=7, data=[67, 97]),
   midi.NoteOffEvent(tick=480, channel=7, data=[67, 0]),
   midi.NoteOnEvent(tick=0, channel=7, data=[70, 113]),
   midi.NoteOffEvent(tick=480, channel=7, data=[70, 0]),
   midi.NoteOnEvent(tick=0, channel=7, data=[68, 102]),
   midi.NoteOffEvent(tick=480, channel=7, data=[68, 0]),
   midi.NoteOnEvent(tick=0, channel=7, data=[65, 102]),
   midi.NoteOffEvent(tick=480, channel=7, data=[65, 0]),
   midi.NoteOnEvent(tick=0, channel=7, data=[67, 104]),
   midi.NoteOffEvent(tick=480, channel=7, data=[67, 0]),
   midi.NoteOnEvent(tick=0, channel=7, data=[63, 96]),
   midi.NoteOffEvent(tick=480, channel=7, data=[63, 0]),
   midi.NoteOnEvent(tick=0, channel=7, data=[67, 111]),
   midi.NoteOffEvent(tick=480, channel=7, data=[67, 0]),
   midi.NoteOnEvent(tick=0, channel=7, data=[62, 102]),
   midi.NoteOffEvent(tick=480, channel=7, data=[62, 0]),
   midi.NoteOnEvent(tick=0, channel=7, data=[67, 117]),
   midi.NoteOffEvent(tick=480, channel=7, data=[67, 0]),
   midi.NoteOnEvent(tick=0, channel=7, data=[63, 98]),
   midi.NoteOffEvent(tick=480, channel=7, data=[63, 0]),
   midi.NoteOnEvent(tick=0, channel=7, data=[67, 121]),
   midi.NoteOffEvent(tick=480, channel=7, data=[67, 0]),
   midi.NoteOnEvent(tick=0, channel=7, data=[65, 116]),
   midi.NoteOffEvent(tick=480, channel=7, data=[65, 0]),
   midi.NoteOnEvent(tick=0, channel=7, data=[67, 121]),
   midi.NoteOffEvent(tick=480, channel=7, data=[67, 0]),
   midi.NoteOnEvent(tick=0, channel=7, data=[63, 100]),
   midi.NoteOffEvent(tick=480, channel=7, data=[63, 0]),
   midi.NoteOnEvent(tick=0, channel=7, data=[67, 123]),
   midi.NoteOffEvent(tick=480, channel=7, data=[67, 0]),
   midi.NoteOnEvent(tick=0, channel=7, data=[65, 117]),
   midi.NoteOffEvent(tick=480, channel=7, data=[65, 0]),
   midi.NoteOnEvent(tick=0, channel=7, data=[67, 122]),
   midi.NoteOffEvent(tick=480, channel=7, data=[67, 0]),
   midi.NoteOnEvent(tick=0, channel=7, data=[67, 121]),
   midi.NoteOffEvent(tick=480, channel=7, data=[67, 0]),
   midi.NoteOnEvent(tick=0, channel=7, data=[72, 127]),
   midi.NoteOffEvent(tick=480, channel=7, data=[72, 0]),
   midi.NoteOnEvent(tick=0, channel=7, data=[68, 127]),
   midi.NoteOffEvent(tick=480, channel=7, data=[68, 0]),
   midi.NoteOnEvent(tick=0, channel=7, data=[72, 127]),
   midi.NoteOffEvent(tick=480, channel=7, data=[72, 0]),
   midi.NoteOnEvent(tick=0, channel=7, data=[67, 107]),
   midi.NoteOffEvent(tick=480, channel=7, data=[67, 0]),
   midi.NoteOnEvent(tick=0, channel=7, data=[72, 127]),
   midi.NoteOffEvent(tick=480, channel=7, data=[72, 0]),
   midi.NoteOnEvent(tick=0, channel=7, data=[68, 116]),
   midi.NoteOffEvent(tick=480, channel=7, data=[68, 0]),
   midi.NoteOnEvent(tick=0, channel=7, data=[72, 127]),
   midi.NoteOffEvent(tick=480, channel=7, data=[72, 0]),
   midi.NoteOnEvent(tick=0, channel=7, data=[71, 123]),
   midi.NoteOffEvent(tick=480, channel=7, data=[71, 0]),
   midi.NoteOnEvent(tick=0, channel=7, data=[77, 127]),
   midi.NoteOffEvent(tick=480, channel=7, data=[77, 0]),
   midi.NoteOnEvent(tick=0, channel=7, data=[72, 126]),
   midi.NoteOffEvent(tick=480, channel=7, data=[72, 0]),
   midi.NoteOnEvent(tick=0, channel=7, data=[77, 127]),
   midi.NoteOffEvent(tick=480, channel=7, data=[77, 0]),
   midi.NoteOnEvent(tick=0, channel=7, data=[71, 106]),
   midi.NoteOffEvent(tick=480, channel=7, data=[71, 0]),
   midi.NoteOnEvent(tick=0, channel=7, data=[77, 127]),
   midi.NoteOffEvent(tick=480, channel=7, data=[77, 0]),
   midi.NoteOnEvent(tick=0, channel=7, data=[72, 113]),
   midi.NoteOffEvent(tick=480, channel=7, data=[72, 0]),
   midi.NoteOnEvent(tick=0, channel=7, data=[77, 127]),
   midi.NoteOffEvent(tick=480, channel=7, data=[77, 0]),
   midi.NoteOnEvent(tick=0, channel=7, data=[74, 114]),
   midi.NoteOffEvent(tick=480, channel=7, data=[74, 0]),
   midi.NoteOnEvent(tick=0, channel=7, data=[79, 127]),
   midi.NoteOffEvent(tick=480, channel=7, data=[79, 0]),
   midi.NoteOnEvent(tick=0, channel=7, data=[75, 104]),
   midi.NoteOnEvent(tick=960, channel=7, data=[72, 87]),
   midi.NoteOffEvent(tick=19, channel=7, data=[75, 0]),
   midi.NoteOffEvent(tick=892, channel=7, data=[72, 0]),
   midi.NoteOnEvent(tick=49, channel=7, data=[74, 101]),
   midi.NoteOffEvent(tick=480, channel=7, data=[74, 0]),
   midi.NoteOnEvent(tick=480, channel=7, data=[75, 99]),
   midi.NoteOffEvent(tick=480, channel=7, data=[75, 0]),
   midi.NoteOnEvent(tick=480, channel=7, data=[77, 110]),
   midi.NoteOnEvent(tick=960, channel=7, data=[74, 95]),
   midi.NoteOffEvent(tick=19, channel=7, data=[77, 0]),
   midi.NoteOffEvent(tick=892, channel=7, data=[74, 0]),
   midi.NoteOnEvent(tick=49, channel=7, data=[75, 104]),
   midi.NoteOffEvent(tick=480, channel=7, data=[75, 0]),
   midi.NoteOnEvent(tick=480, channel=7, data=[77, 102]),
   midi.NoteOffEvent(tick=480, channel=7, data=[77, 0]),
   midi.NoteOnEvent(tick=480, channel=7, data=[79, 112]),
   midi.NoteOnEvent(tick=960, channel=7, data=[75, 94]),
   midi.NoteOffEvent(tick=19, channel=7, data=[79, 0]),
   midi.NoteOffEvent(tick=892, channel=7, data=[75, 0]),
   midi.NoteOnEvent(tick=49, channel=7, data=[77, 105]),
   midi.NoteOffEvent(tick=480, channel=7, data=[77, 0]),
   midi.NoteOnEvent(tick=480, channel=7, data=[79, 103]),
   midi.NoteOffEvent(tick=480, channel=7, data=[79, 0]),
   midi.NoteOnEvent(tick=480, channel=7, data=[80, 110]),
   midi.NoteOnEvent(tick=960, channel=7, data=[77, 95]),
   midi.NoteOffEvent(tick=19, channel=7, data=[80, 0]),
   midi.NoteOffEvent(tick=892, channel=7, data=[77, 0]),
   midi.NoteOnEvent(tick=49, channel=7, data=[79, 106]),
   midi.NoteOffEvent(tick=480, channel=7, data=[79, 0]),
   midi.NoteOnEvent(tick=480, channel=7, data=[81, 104]),
   midi.NoteOffEvent(tick=480, channel=7, data=[81, 0]),
   midi.NoteOnEvent(tick=480, channel=7, data=[83, 113]),
   midi.NoteOnEvent(tick=960, channel=7, data=[79, 94]),
   midi.NoteOffEvent(tick=19, channel=7, data=[83, 0]),
   midi.NoteOffEvent(tick=892, channel=7, data=[79, 0]),
   midi.NoteOnEvent(tick=49, channel=7, data=[81, 106]),
   midi.NoteOffEvent(tick=480, channel=7, data=[81, 0]),
   midi.NoteOnEvent(tick=480, channel=7, data=[83, 103]),
   midi.NoteOffEvent(tick=480, channel=7, data=[83, 0]),
   midi.NoteOnEvent(tick=480, channel=7, data=[84, 110]),
   midi.NoteOnEvent(tick=960, channel=7, data=[79, 91]),
   midi.NoteOffEvent(tick=19, channel=7, data=[84, 0]),
   midi.NoteOffEvent(tick=892, channel=7, data=[79, 0]),
   midi.NoteOnEvent(tick=49, channel=7, data=[80, 100]),
   midi.NoteOffEvent(tick=480, channel=7, data=[80, 0]),
   midi.NoteOnEvent(tick=480, channel=7, data=[75, 86]),
   midi.NoteOffEvent(tick=480, channel=7, data=[75, 0]),
   midi.NoteOnEvent(tick=480, channel=7, data=[77, 99]),
   midi.NoteOffEvent(tick=480, channel=7, data=[77, 0]),
   midi.NoteOnEvent(tick=480, channel=7, data=[74, 88]),
   midi.NoteOffEvent(tick=480, channel=7, data=[74, 0]),
   midi.NoteOnEvent(tick=480, channel=7, data=[75, 100]),
   midi.NoteOffEvent(tick=480, channel=7, data=[75, 0]),
   midi.NoteOnEvent(tick=480, channel=7, data=[77, 100]),
   midi.NoteOffEvent(tick=480, channel=7, data=[77, 0]),
   midi.NoteOnEvent(tick=480, channel=7, data=[79, 111]),
   midi.NoteOffEvent(tick=480, channel=7, data=[79, 0]),
   midi.NoteOnEvent(tick=480, channel=7, data=[78, 100]),
   midi.NoteOffEvent(tick=480, channel=7, data=[78, 0]),
   midi.NoteOnEvent(tick=480, channel=7, data=[79, 108]),
   midi.NoteOffEvent(tick=480, channel=7, data=[79, 0]),
   midi.NoteOnEvent(tick=480, channel=7, data=[67, 83]),
   midi.NoteOffEvent(tick=480, channel=7, data=[67, 0]),
   midi.NoteOnEvent(tick=480, channel=7, data=[72, 98]),
   midi.NoteOffEvent(tick=480, channel=7, data=[72, 0]),
   midi.NoteOnEvent(tick=5280, channel=7, data=[63, 102]),
   midi.NoteOffEvent(tick=480, channel=7, data=[63, 0]),
   midi.NoteOnEvent(tick=480, channel=7, data=[65, 99]),
   midi.NoteOffEvent(tick=480, channel=7, data=[65, 0]),
   midi.NoteOnEvent(tick=480, channel=7, data=[67, 107]),
   midi.NoteOnEvent(tick=960, channel=7, data=[63, 94]),
   midi.NoteOffEvent(tick=19, channel=7, data=[67, 0]),
   midi.NoteOffEvent(tick=892, channel=7, data=[63, 0]),
   midi.NoteOnEvent(tick=3889, channel=7, data=[71, 106]),
   midi.NoteOffEvent(tick=480, channel=7, data=[71, 0]),
   midi.NoteOnEvent(tick=480, channel=7, data=[72, 100]),
   midi.NoteOffEvent(tick=480, channel=7, data=[72, 0]),
   midi.NoteOnEvent(tick=480, channel=7, data=[74, 107]),
   midi.NoteOnEvent(tick=960, channel=7, data=[71, 95]),
   midi.NoteOffEvent(tick=19, channel=7, data=[74, 0]),
   midi.NoteOffEvent(tick=892, channel=7, data=[71, 0]),
   midi.NoteOnEvent(tick=3889, channel=7, data=[71, 103]),
   midi.NoteOffEvent(tick=480, channel=7, data=[71, 0]),
   midi.NoteOnEvent(tick=480, channel=7, data=[72, 98]),
   midi.NoteOffEvent(tick=480, channel=7, data=[72, 0]),
   midi.NoteOnEvent(tick=480, channel=7, data=[74, 107]),
   midi.NoteOnEvent(tick=960, channel=7, data=[71, 95]),
   midi.NoteOffEvent(tick=19, channel=7, data=[74, 0]),
   midi.NoteOffEvent(tick=892, channel=7, data=[71, 0]),
   midi.NoteOnEvent(tick=7729, channel=7, data=[68, 104]),
   midi.NoteOnEvent(tick=960, channel=7, data=[67, 97]),
   midi.NoteOffEvent(tick=19, channel=7, data=[68, 0]),
   midi.NoteOffEvent(tick=892, channel=7, data=[67, 0]),
   midi.NoteOnEvent(tick=1969, channel=7, data=[80, 112]),
   midi.NoteOnEvent(tick=960, channel=7, data=[79, 102]),
   midi.NoteOffEvent(tick=19, channel=7, data=[80, 0]),
   midi.NoteOffEvent(tick=892, channel=7, data=[79, 0]),
   midi.NoteOnEvent(tick=49, channel=7, data=[55, 106]),
   midi.NoteOnEvent(tick=0, channel=7, data=[63, 106]),
   midi.NoteOnEvent(tick=0, channel=7, data=[72, 106]),
   midi.NoteOnEvent(tick=0, channel=7, data=[79, 106]),
   midi.NoteOffEvent(tick=960, channel=7, data=[55, 0]),
   midi.NoteOffEvent(tick=0, channel=7, data=[63, 0]),
   midi.NoteOffEvent(tick=0, channel=7, data=[72, 0]),
   midi.NoteOffEvent(tick=0, channel=7, data=[79, 0]),
   midi.NoteOnEvent(tick=960, channel=7, data=[55, 104]),
   midi.NoteOnEvent(tick=0, channel=7, data=[62, 104]),
   midi.NoteOnEvent(tick=0, channel=7, data=[71, 104]),
   midi.NoteOnEvent(tick=0, channel=7, data=[79, 104]),
   midi.NoteOffEvent(tick=960, channel=7, data=[55, 0]),
   midi.NoteOffEvent(tick=0, channel=7, data=[62, 0]),
   midi.NoteOffEvent(tick=0, channel=7, data=[71, 0]),
   midi.NoteOffEvent(tick=0, channel=7, data=[79, 0]),
   midi.NoteOnEvent(tick=960, channel=7, data=[75, 99]),
   midi.NoteOnEvent(tick=960, channel=7, data=[74, 94]),
   midi.NoteOffEvent(tick=19, channel=7, data=[75, 0]),
   midi.NoteOffEvent(tick=892, channel=7, data=[74, 0]),
   midi.NoteOnEvent(tick=49, channel=7, data=[72, 97]),
   midi.NoteOffEvent(tick=960, channel=7, data=[72, 0]),
   midi.NoteOnEvent(tick=0, channel=7, data=[70, 90]),
   midi.NoteOffEvent(tick=960, channel=7, data=[70, 0]),
   midi.NoteOnEvent(tick=0, channel=7, data=[68, 94]),
   midi.NoteOffEvent(tick=960, channel=7, data=[68, 0]),
   midi.NoteOnEvent(tick=0, channel=7, data=[67, 90]),
   midi.NoteOffEvent(tick=960, channel=7, data=[67, 0]),
   midi.NoteOnEvent(tick=1920, channel=7, data=[68, 103]),
   midi.NoteOnEvent(tick=960, channel=7, data=[67, 96]),
   midi.NoteOffEvent(tick=19, channel=7, data=[68, 0]),
   midi.NoteOffEvent(tick=892, channel=7, data=[67, 0]),
   midi.NoteOnEvent(tick=49, channel=7, data=[80, 119]),
   midi.NoteOnEvent(tick=960, channel=7, data=[79, 109]),
   midi.NoteOffEvent(tick=19, channel=7, data=[80, 0]),
   midi.NoteOffEvent(tick=892, channel=7, data=[79, 0]),
   midi.NoteOnEvent(tick=49, channel=7, data=[55, 112]),
   midi.NoteOnEvent(tick=0, channel=7, data=[63, 112]),
   midi.NoteOnEvent(tick=0, channel=7, data=[72, 112]),
   midi.NoteOnEvent(tick=0, channel=7, data=[79, 112]),
   midi.NoteOffEvent(tick=960, channel=7, data=[55, 0]),
   midi.NoteOffEvent(tick=0, channel=7, data=[63, 0]),
   midi.NoteOffEvent(tick=0, channel=7, data=[72, 0]),
   midi.NoteOffEvent(tick=0, channel=7, data=[79, 0]),
   midi.NoteOnEvent(tick=960, channel=7, data=[55, 107]),
   midi.NoteOnEvent(tick=0, channel=7, data=[62, 107]),
   midi.NoteOnEvent(tick=0, channel=7, data=[71, 107]),
   midi.NoteOnEvent(tick=0, channel=7, data=[79, 107]),
   midi.NoteOffEvent(tick=960, channel=7, data=[55, 0]),
   midi.NoteOffEvent(tick=0, channel=7, data=[62, 0]),
   midi.NoteOffEvent(tick=0, channel=7, data=[71, 0]),
   midi.NoteOffEvent(tick=0, channel=7, data=[79, 0]),
   midi.NoteOnEvent(tick=960, channel=7, data=[72, 96]),
   midi.NoteOnEvent(tick=0, channel=7, data=[63, 104]),
   midi.NoteOnEvent(tick=0, channel=7, data=[55, 104]),
   midi.NoteOffEvent(tick=480, channel=7, data=[72, 0]),
   midi.NoteOffEvent(tick=0, channel=7, data=[63, 0]),
   midi.NoteOffEvent(tick=0, channel=7, data=[55, 0]),
   midi.NoteOnEvent(tick=0, channel=7, data=[79, 104]),
   midi.NoteOnEvent(tick=0, channel=7, data=[79, 107]),
   midi.NoteOffEvent(tick=480, channel=7, data=[79, 0]),
   midi.NoteOffEvent(tick=0, channel=7, data=[79, 0]),
   midi.NoteOnEvent(tick=0, channel=7, data=[79, 103]),
   midi.NoteOnEvent(tick=0, channel=7, data=[79, 106]),
   midi.NoteOffEvent(tick=480, channel=7, data=[79, 0]),
   midi.NoteOffEvent(tick=0, channel=7, data=[79, 0]),
   midi.NoteOnEvent(tick=0, channel=7, data=[79, 102]),
   midi.NoteOnEvent(tick=0, channel=7, data=[79, 105]),
   midi.NoteOffEvent(tick=480, channel=7, data=[79, 0]),
   midi.NoteOffEvent(tick=0, channel=7, data=[79, 0]),
   midi.NoteOnEvent(tick=0, channel=7, data=[79, 108]),
   midi.NoteOffEvent(tick=8160, channel=7, data=[79, 0]),
   midi.NoteOnEvent(tick=0, channel=7, data=[79, 98]),
   midi.NoteOffEvent(tick=480, channel=7, data=[79, 0]),
   midi.NoteOnEvent(tick=0, channel=7, data=[79, 98]),
   midi.NoteOffEvent(tick=480, channel=7, data=[79, 0]),
   midi.NoteOnEvent(tick=0, channel=7, data=[79, 98]),
   midi.NoteOffEvent(tick=480, channel=7, data=[79, 0]),
   midi.NoteOnEvent(tick=0, channel=7, data=[72, 91]),
   midi.NoteOffEvent(tick=480, channel=7, data=[72, 0]),
   midi.NoteOnEvent(tick=0, channel=7, data=[79, 103]),
   midi.NoteOffEvent(tick=480, channel=7, data=[79, 0]),
   midi.NoteOnEvent(tick=0, channel=7, data=[79, 103]),
   midi.NoteOffEvent(tick=480, channel=7, data=[79, 0]),
   midi.NoteOnEvent(tick=0, channel=7, data=[79, 102]),
   midi.NoteOffEvent(tick=480, channel=7, data=[79, 0]),
   midi.NoteOnEvent(tick=0, channel=7, data=[79, 108]),
   midi.NoteOffEvent(tick=480, channel=7, data=[79, 0]),
   midi.NoteOnEvent(tick=0, channel=7, data=[79, 101]),
   midi.NoteOffEvent(tick=480, channel=7, data=[79, 0]),
   midi.NoteOnEvent(tick=0, channel=7, data=[79, 101]),
   midi.NoteOffEvent(tick=480, channel=7, data=[79, 0]),
   midi.NoteOnEvent(tick=0, channel=7, data=[79, 100]),
   midi.NoteOffEvent(tick=480, channel=7, data=[79, 0]),
   midi.NoteOnEvent(tick=0, channel=7, data=[79, 106]),
   midi.NoteOffEvent(tick=480, channel=7, data=[79, 0]),
   midi.NoteOnEvent(tick=0, channel=7, data=[79, 99]),
   midi.NoteOffEvent(tick=480, channel=7, data=[79, 0]),
   midi.NoteOnEvent(tick=0, channel=7, data=[79, 99]),
   midi.NoteOffEvent(tick=480, channel=7, data=[79, 0]),
   midi.NoteOnEvent(tick=0, channel=7, data=[79, 99]),
   midi.NoteOffEvent(tick=480, channel=7, data=[79, 0]),
   midi.NoteOnEvent(tick=0, channel=7, data=[79, 104]),
   midi.NoteOffEvent(tick=480, channel=7, data=[79, 0]),
   midi.NoteOnEvent(tick=0, channel=7, data=[79, 98]),
   midi.NoteOffEvent(tick=480, channel=7, data=[79, 0]),
   midi.NoteOnEvent(tick=0, channel=7, data=[79, 98]),
   midi.NoteOffEvent(tick=480, channel=7, data=[79, 0]),
   midi.NoteOnEvent(tick=0, channel=7, data=[79, 98]),
   midi.NoteOffEvent(tick=480, channel=7, data=[79, 0]),
   midi.NoteOnEvent(tick=0, channel=7, data=[75, 102]),
   midi.NoteOffEvent(tick=3840, channel=7, data=[75, 0]),
   midi.NoteOnEvent(tick=480, channel=7, data=[77, 112]),
   midi.NoteOffEvent(tick=480, channel=7, data=[77, 0]),
   midi.NoteOnEvent(tick=0, channel=7, data=[77, 113]),
   midi.NoteOffEvent(tick=480, channel=7, data=[77, 0]),
   midi.NoteOnEvent(tick=0, channel=7, data=[77, 113]),
   midi.NoteOffEvent(tick=480, channel=7, data=[77, 0]),
   midi.NoteOnEvent(tick=0, channel=7, data=[74, 111]),
   midi.NoteOffEvent(tick=7680, channel=7, data=[74, 0]),
   midi.NoteOnEvent(tick=2400, channel=7, data=[68, 39]),
   midi.NoteOffEvent(tick=480, channel=7, data=[68, 0]),
   midi.NoteOnEvent(tick=0, channel=7, data=[68, 39]),
   midi.NoteOffEvent(tick=480, channel=7, data=[68, 0]),
   midi.NoteOnEvent(tick=0, channel=7, data=[68, 39]),
   midi.NoteOffEvent(tick=480, channel=7, data=[68, 0]),
   midi.NoteOnEvent(tick=0, channel=7, data=[67, 41]),
   midi.NoteOffEvent(tick=480, channel=7, data=[67, 0]),
   midi.NoteOnEvent(tick=0, channel=7, data=[75, 45]),
   midi.NoteOffEvent(tick=480, channel=7, data=[75, 0]),
   midi.NoteOnEvent(tick=0, channel=7, data=[75, 45]),
   midi.NoteOffEvent(tick=480, channel=7, data=[75, 0]),
   midi.NoteOnEvent(tick=0, channel=7, data=[75, 44]),
   midi.NoteOffEvent(tick=480, channel=7, data=[75, 0]),
   midi.NoteOnEvent(tick=0, channel=7, data=[72, 42]),
   midi.NoteOffEvent(tick=2880, channel=7, data=[72, 0]),
   midi.NoteOnEvent(tick=1440, channel=7, data=[68, 38]),
   midi.NoteOffEvent(tick=480, channel=7, data=[68, 0]),
   midi.NoteOnEvent(tick=0, channel=7, data=[68, 38]),
   midi.NoteOffEvent(tick=480, channel=7, data=[68, 0]),
   midi.NoteOnEvent(tick=0, channel=7, data=[68, 39]),
   midi.NoteOffEvent(tick=480, channel=7, data=[68, 0]),
   midi.NoteOnEvent(tick=0, channel=7, data=[67, 40]),
   midi.NoteOffEvent(tick=480, channel=7, data=[67, 0]),
   midi.NoteOnEvent(tick=0, channel=7, data=[75, 45]),
   midi.NoteOffEvent(tick=480, channel=7, data=[75, 0]),
   midi.NoteOnEvent(tick=0, channel=7, data=[75, 45]),
   midi.NoteOffEvent(tick=480, channel=7, data=[75, 0]),
   midi.NoteOnEvent(tick=0, channel=7, data=[75, 44]),
   midi.NoteOffEvent(tick=480, channel=7, data=[75, 0]),
   midi.NoteOnEvent(tick=0, channel=7, data=[72, 42]),
   midi.NoteOffEvent(tick=2400, channel=7, data=[72, 0]),
   midi.NoteOnEvent(tick=0, channel=7, data=[79, 127]),
   midi.NoteOnEvent(tick=0, channel=7, data=[71, 113]),
   midi.NoteOffEvent(tick=480, channel=7, data=[79, 0]),
   midi.NoteOffEvent(tick=0, channel=7, data=[71, 0]),
   midi.NoteOnEvent(tick=0, channel=7, data=[79, 125]),
   midi.NoteOnEvent(tick=0, channel=7, data=[71, 113]),
   midi.NoteOffEvent(tick=480, channel=7, data=[79, 0]),
   midi.NoteOffEvent(tick=0, channel=7, data=[71, 0]),
   midi.NoteOnEvent(tick=0, channel=7, data=[79, 123]),
   midi.NoteOnEvent(tick=0, channel=7, data=[71, 113]),
   midi.NoteOffEvent(tick=480, channel=7, data=[79, 0]),
   midi.NoteOffEvent(tick=0, channel=7, data=[71, 0]),
   midi.NoteOnEvent(tick=0, channel=7, data=[79, 127]),
   midi.NoteOnEvent(tick=0, channel=7, data=[72, 122]),
   midi.NoteOffEvent(tick=960, channel=7, data=[79, 0]),
   midi.NoteOffEvent(tick=0, channel=7, data=[72, 0]),
   midi.NoteOnEvent(tick=1440, channel=7, data=[79, 114]),
   midi.NoteOnEvent(tick=0, channel=7, data=[71, 112]),
   midi.NoteOffEvent(tick=480, channel=7, data=[79, 0]),
   midi.NoteOffEvent(tick=0, channel=7, data=[71, 0]),
   midi.NoteOnEvent(tick=0, channel=7, data=[79, 114]),
   midi.NoteOnEvent(tick=0, channel=7, data=[71, 113]),
   midi.NoteOffEvent(tick=480, channel=7, data=[79, 0]),
   midi.NoteOffEvent(tick=0, channel=7, data=[71, 0]),
   midi.NoteOnEvent(tick=0, channel=7, data=[79, 113]),
   midi.NoteOnEvent(tick=0, channel=7, data=[71, 113]),
   midi.NoteOffEvent(tick=480, channel=7, data=[79, 0]),
   midi.NoteOffEvent(tick=0, channel=7, data=[71, 0]),
   midi.NoteOnEvent(tick=0, channel=7, data=[79, 120]),
   midi.NoteOnEvent(tick=0, channel=7, data=[72, 123]),
   midi.NoteOffEvent(tick=960, channel=7, data=[79, 0]),
   midi.NoteOffEvent(tick=0, channel=7, data=[72, 0]),
   midi.NoteOnEvent(tick=1440, channel=7, data=[79, 113]),
   midi.NoteOnEvent(tick=0, channel=7, data=[71, 112]),
   midi.NoteOffEvent(tick=480, channel=7, data=[79, 0]),
   midi.NoteOffEvent(tick=0, channel=7, data=[71, 0]),
   midi.NoteOnEvent(tick=0, channel=7, data=[79, 113]),
   midi.NoteOnEvent(tick=0, channel=7, data=[71, 113]),
   midi.NoteOffEvent(tick=480, channel=7, data=[79, 0]),
   midi.NoteOffEvent(tick=0, channel=7, data=[71, 0]),
   midi.NoteOnEvent(tick=0, channel=7, data=[79, 113]),
   midi.NoteOnEvent(tick=0, channel=7, data=[71, 113]),
   midi.NoteOffEvent(tick=480, channel=7, data=[79, 0]),
   midi.NoteOffEvent(tick=0, channel=7, data=[71, 0]),
   midi.NoteOnEvent(tick=0, channel=7, data=[72, 120]),
   midi.NoteOnEvent(tick=0, channel=7, data=[72, 120]),
   midi.NoteOnEvent(tick=0, channel=7, data=[79, 120]),
   midi.NoteOffEvent(tick=960, channel=7, data=[72, 0]),
   midi.NoteOffEvent(tick=0, channel=7, data=[72, 0]),
   midi.NoteOffEvent(tick=0, channel=7, data=[79, 0]),
   midi.NoteOnEvent(tick=0, channel=7, data=[62, 113]),
   midi.NoteOnEvent(tick=0, channel=7, data=[71, 113]),
   midi.NoteOnEvent(tick=0, channel=7, data=[79, 113]),
   midi.NoteOffEvent(tick=960, channel=7, data=[62, 0]),
   midi.NoteOffEvent(tick=0, channel=7, data=[71, 0]),
   midi.NoteOffEvent(tick=0, channel=7, data=[79, 0]),
   midi.NoteOnEvent(tick=0, channel=7, data=[63, 120]),
   midi.NoteOnEvent(tick=0, channel=7, data=[72, 120]),
   midi.NoteOnEvent(tick=0, channel=7, data=[79, 120]),
   midi.NoteOffEvent(tick=960, channel=7, data=[63, 0]),
   midi.NoteOffEvent(tick=0, channel=7, data=[72, 0]),
   midi.NoteOffEvent(tick=0, channel=7, data=[79, 0]),
   midi.NoteOnEvent(tick=0, channel=7, data=[62, 113]),
   midi.NoteOnEvent(tick=0, channel=7, data=[71, 113]),
   midi.NoteOnEvent(tick=0, channel=7, data=[79, 113]),
   midi.NoteOffEvent(tick=960, channel=7, data=[62, 0]),
   midi.NoteOffEvent(tick=0, channel=7, data=[71, 0]),
   midi.NoteOffEvent(tick=0, channel=7, data=[79, 0]),
   midi.NoteOnEvent(tick=0, channel=7, data=[63, 120]),
   midi.NoteOnEvent(tick=0, channel=7, data=[72, 120]),
   midi.NoteOnEvent(tick=0, channel=7, data=[79, 120]),
   midi.NoteOffEvent(tick=960, channel=7, data=[63, 0]),
   midi.NoteOffEvent(tick=0, channel=7, data=[72, 0]),
   midi.NoteOffEvent(tick=0, channel=7, data=[79, 0]),
   midi.NoteOnEvent(tick=0, channel=7, data=[67, 124]),
   midi.NoteOnEvent(tick=0, channel=7, data=[74, 124]),
   midi.NoteOnEvent(tick=0, channel=7, data=[83, 124]),
   midi.NoteOffEvent(tick=960, channel=7, data=[67, 0]),
   midi.NoteOffEvent(tick=0, channel=7, data=[74, 0]),
   midi.NoteOffEvent(tick=0, channel=7, data=[83, 0]),
   midi.NoteOnEvent(tick=0, channel=7, data=[67, 127]),
   midi.NoteOnEvent(tick=0, channel=7, data=[75, 127]),
   midi.NoteOnEvent(tick=0, channel=7, data=[84, 127]),
   midi.NoteOffEvent(tick=960, channel=7, data=[67, 0]),
   midi.NoteOffEvent(tick=0, channel=7, data=[75, 0]),
   midi.NoteOffEvent(tick=0, channel=7, data=[84, 0]),
   midi.NoteOnEvent(tick=0, channel=7, data=[67, 117]),
   midi.NoteOnEvent(tick=0, channel=7, data=[74, 117]),
   midi.NoteOnEvent(tick=0, channel=7, data=[83, 117]),
   midi.NoteOffEvent(tick=960, channel=7, data=[67, 0]),
   midi.NoteOffEvent(tick=0, channel=7, data=[74, 0]),
   midi.NoteOffEvent(tick=0, channel=7, data=[83, 0]),
   midi.NoteOnEvent(tick=0, channel=7, data=[67, 125]),
   midi.NoteOnEvent(tick=0, channel=7, data=[75, 125]),
   midi.NoteOnEvent(tick=0, channel=7, data=[84, 125]),
   midi.NoteOffEvent(tick=960, channel=7, data=[67, 0]),
   midi.NoteOffEvent(tick=0, channel=7, data=[75, 0]),
   midi.NoteOffEvent(tick=0, channel=7, data=[84, 0]),
   midi.NoteOnEvent(tick=960, channel=7, data=[55, 103]),
   midi.NoteOnEvent(tick=0, channel=7, data=[62, 103]),
   midi.NoteOnEvent(tick=0, channel=7, data=[71, 103]),
   midi.NoteOffEvent(tick=960, channel=7, data=[55, 0]),
   midi.NoteOffEvent(tick=0, channel=7, data=[62, 0]),
   midi.NoteOffEvent(tick=0, channel=7, data=[71, 0]),
   midi.NoteOnEvent(tick=960, channel=7, data=[55, 112]),
   midi.NoteOnEvent(tick=0, channel=7, data=[63, 112]),
   midi.NoteOnEvent(tick=0, channel=7, data=[72, 112]),
   midi.NoteOffEvent(tick=960, channel=7, data=[55, 0]),
   midi.NoteOffEvent(tick=0, channel=7, data=[63, 0]),
   midi.NoteOffEvent(tick=0, channel=7, data=[72, 0]),
   midi.EndOfTrackEvent(tick=1, data=[])]),
 midi.Track(\
  [midi.ProgramChangeEvent(tick=0, channel=8, data=[48]),
   midi.ControlChangeEvent(tick=0, channel=8, data=[121, 0]),
   midi.ControlChangeEvent(tick=0, channel=8, data=[64, 0]),
   midi.ControlChangeEvent(tick=0, channel=8, data=[91, 48]),
   midi.ControlChangeEvent(tick=0, channel=8, data=[10, 32]),
   midi.ControlChangeEvent(tick=0, channel=8, data=[7, 100]),
   midi.TrackNameEvent(tick=0, text='Violin II', data=[86, 105, 111, 108, 105, 110, 32, 73, 73]),
   midi.NoteOnEvent(tick=480, channel=8, data=[67, 113]),
   midi.NoteOffEvent(tick=480, channel=8, data=[67, 0]),
   midi.NoteOnEvent(tick=0, channel=8, data=[67, 113]),
   midi.NoteOffEvent(tick=480, channel=8, data=[67, 0]),
   midi.NoteOnEvent(tick=0, channel=8, data=[67, 113]),
   midi.NoteOffEvent(tick=480, channel=8, data=[67, 0]),
   midi.NoteOnEvent(tick=0, channel=8, data=[63, 110]),
   midi.NoteOffEvent(tick=2880, channel=8, data=[63, 0]),
   midi.NoteOnEvent(tick=480, channel=8, data=[65, 112]),
   midi.NoteOffEvent(tick=480, channel=8, data=[65, 0]),
   midi.NoteOnEvent(tick=0, channel=8, data=[65, 112]),
   midi.NoteOffEvent(tick=480, channel=8, data=[65, 0]),
   midi.NoteOnEvent(tick=0, channel=8, data=[65, 113]),
   midi.NoteOffEvent(tick=480, channel=8, data=[65, 0]),
   midi.NoteOnEvent(tick=0, channel=8, data=[62, 110]),
   midi.NoteOffEvent(tick=2880, channel=8, data=[62, 0]),
   midi.NoteOnEvent(tick=480, channel=8, data=[67, 63]),
   midi.NoteOffEvent(tick=480, channel=8, data=[67, 0]),
   midi.NoteOnEvent(tick=0, channel=8, data=[67, 62]),
   midi.NoteOffEvent(tick=480, channel=8, data=[67, 0]),
   midi.NoteOnEvent(tick=0, channel=8, data=[67, 62]),
   midi.NoteOffEvent(tick=480, channel=8, data=[67, 0]),
   midi.NoteOnEvent(tick=0, channel=8, data=[63, 59]),
   midi.NoteOffEvent(tick=6240, channel=8, data=[63, 0]),
   midi.NoteOnEvent(tick=0, channel=8, data=[67, 61]),
   midi.NoteOffEvent(tick=480, channel=8, data=[67, 0]),
   midi.NoteOnEvent(tick=0, channel=8, data=[67, 61]),
   midi.NoteOffEvent(tick=480, channel=8, data=[67, 0]),
   midi.NoteOnEvent(tick=0, channel=8, data=[67, 61]),
   midi.NoteOffEvent(tick=480, channel=8, data=[67, 0]),
   midi.NoteOnEvent(tick=0, channel=8, data=[62, 58]),
   midi.NoteOffEvent(tick=3840, channel=8, data=[62, 0]),
   midi.NoteOnEvent(tick=0, channel=8, data=[67, 66]),
   midi.NoteOffEvent(tick=4320, channel=8, data=[67, 0]),
   midi.NoteOnEvent(tick=0, channel=8, data=[63, 60]),
   midi.NoteOffEvent(tick=480, channel=8, data=[63, 0]),
   midi.NoteOnEvent(tick=0, channel=8, data=[63, 61]),
   midi.NoteOffEvent(tick=480, channel=8, data=[63, 0]),
   midi.NoteOnEvent(tick=0, channel=8, data=[65, 63]),
   midi.NoteOffEvent(tick=480, channel=8, data=[65, 0]),
   midi.NoteOnEvent(tick=0, channel=8, data=[67, 69]),
   midi.NoteOffEvent(tick=2400, channel=8, data=[67, 0]),
   midi.NoteOnEvent(tick=0, channel=8, data=[63, 59]),
   midi.NoteOffEvent(tick=480, channel=8, data=[63, 0]),
   midi.NoteOnEvent(tick=0, channel=8, data=[63, 60]),
   midi.NoteOffEvent(tick=480, channel=8, data=[63, 0]),
   midi.NoteOnEvent(tick=0, channel=8, data=[65, 63]),
   midi.NoteOffEvent(tick=480, channel=8, data=[65, 0]),
   midi.NoteOnEvent(tick=0, channel=8, data=[67, 70]),
   midi.NoteOffEvent(tick=480, channel=8, data=[67, 0]),
   midi.NoteOnEvent(tick=0, channel=8, data=[74, 70]),
   midi.NoteOffEvent(tick=480, channel=8, data=[74, 0]),
   midi.NoteOnEvent(tick=0, channel=8, data=[74, 70]),
   midi.NoteOffEvent(tick=480, channel=8, data=[74, 0]),
   midi.NoteOnEvent(tick=0, channel=8, data=[67, 74]),
   midi.NoteOffEvent(tick=480, channel=8, data=[67, 0]),
   midi.NoteOnEvent(tick=0, channel=8, data=[60, 119]),
   midi.NoteOnEvent(tick=229, channel=8, data=[67, 119]),
   midi.NoteOnEvent(tick=229, channel=8, data=[75, 119]),
   midi.NoteOffEvent(tick=502, channel=8, data=[60, 0]),
   midi.NoteOffEvent(tick=0, channel=8, data=[67, 0]),
   midi.NoteOffEvent(tick=0, channel=8, data=[75, 0]),
   midi.NoteOnEvent(tick=960, channel=8, data=[56, 108]),
   midi.NoteOnEvent(tick=229, channel=8, data=[66, 108]),
   midi.NoteOnEvent(tick=229, channel=8, data=[72, 108]),
   midi.NoteOffEvent(tick=502, channel=8, data=[56, 0]),
   midi.NoteOffEvent(tick=0, channel=8, data=[66, 0]),
   midi.NoteOffEvent(tick=0, channel=8, data=[72, 0]),
   midi.NoteOnEvent(tick=960, channel=8, data=[55, 103]),
   midi.NoteOnEvent(tick=229, channel=8, data=[62, 103]),
   midi.NoteOnEvent(tick=229, channel=8, data=[71, 103]),
   midi.NoteOffEvent(tick=502, channel=8, data=[55, 0]),
   midi.NoteOffEvent(tick=0, channel=8, data=[62, 0]),
   midi.NoteOffEvent(tick=0, channel=8, data=[71, 0]),
   midi.NoteOnEvent(tick=3360, channel=8, data=[68, 112]),
   midi.NoteOffEvent(tick=480, channel=8, data=[68, 0]),
   midi.NoteOnEvent(tick=0, channel=8, data=[68, 112]),
   midi.NoteOffEvent(tick=480, channel=8, data=[68, 0]),
   midi.NoteOnEvent(tick=0, channel=8, data=[68, 112]),
   midi.NoteOffEvent(tick=480, channel=8, data=[68, 0]),
   midi.NoteOnEvent(tick=0, channel=8, data=[65, 111]),
   midi.NoteOffEvent(tick=3840, channel=8, data=[65, 0]),
   midi.NoteOnEvent(tick=2400, channel=8, data=[62, 61]),
   midi.NoteOffEvent(tick=480, channel=8, data=[62, 0]),
   midi.NoteOnEvent(tick=0, channel=8, data=[62, 61]),
   midi.NoteOffEvent(tick=480, channel=8, data=[62, 0]),
   midi.NoteOnEvent(tick=0, channel=8, data=[62, 61]),
   midi.NoteOffEvent(tick=480, channel=8, data=[62, 0]),
   midi.NoteOnEvent(tick=0, channel=8, data=[59, 60]),
   midi.NoteOffEvent(tick=3840, channel=8, data=[59, 0]),
   midi.NoteOnEvent(tick=0, channel=8, data=[60, 64]),
   midi.NoteOffEvent(tick=960, channel=8, data=[60, 0]),
   midi.NoteOnEvent(tick=1440, channel=8, data=[62, 62]),
   midi.NoteOffEvent(tick=480, channel=8, data=[62, 0]),
   midi.NoteOnEvent(tick=0, channel=8, data=[62, 62]),
   midi.NoteOffEvent(tick=480, channel=8, data=[62, 0]),
   midi.NoteOnEvent(tick=0, channel=8, data=[62, 61]),
   midi.NoteOffEvent(tick=480, channel=8, data=[62, 0]),
   midi.NoteOnEvent(tick=0, channel=8, data=[59, 60]),
   midi.NoteOffEvent(tick=3840, channel=8, data=[59, 0]),
   midi.NoteOnEvent(tick=0, channel=8, data=[60, 64]),
   midi.NoteOffEvent(tick=480, channel=8, data=[60, 0]),
   midi.NoteOnEvent(tick=0, channel=8, data=[67, 67]),
   midi.NoteOffEvent(tick=480, channel=8, data=[67, 0]),
   midi.NoteOnEvent(tick=0, channel=8, data=[67, 66]),
   midi.NoteOffEvent(tick=480, channel=8, data=[67, 0]),
   midi.NoteOnEvent(tick=0, channel=8, data=[63, 59]),
   midi.NoteOffEvent(tick=480, channel=8, data=[63, 0]),
   midi.NoteOnEvent(tick=0, channel=8, data=[65, 91]),
   midi.NoteOffEvent(tick=2400, channel=8, data=[65, 0]),
   midi.NoteOnEvent(tick=0, channel=8, data=[68, 89]),
   midi.NoteOffEvent(tick=480, channel=8, data=[68, 0]),
   midi.NoteOnEvent(tick=0, channel=8, data=[68, 88]),
   midi.NoteOffEvent(tick=480, channel=8, data=[68, 0]),
   midi.NoteOnEvent(tick=0, channel=8, data=[65, 80]),
   midi.NoteOffEvent(tick=480, channel=8, data=[65, 0]),
   midi.NoteOnEvent(tick=0, channel=8, data=[67, 91]),
   midi.NoteOffEvent(tick=2400, channel=8, data=[67, 0]),
   midi.NoteOnEvent(tick=0, channel=8, data=[67, 84]),
   midi.NoteOffEvent(tick=480, channel=8, data=[67, 0]),
   midi.NoteOnEvent(tick=0, channel=8, data=[67, 84]),
   midi.NoteOffEvent(tick=480, channel=8, data=[67, 0]),
   midi.NoteOnEvent(tick=0, channel=8, data=[63, 75]),
   midi.NoteOffEvent(tick=480, channel=8, data=[63, 0]),
   midi.NoteOnEvent(tick=0, channel=8, data=[68, 110]),
   midi.NoteOffEvent(tick=480, channel=8, data=[68, 0]),
   midi.NoteOnEvent(tick=0, channel=8, data=[68, 103]),
   midi.NoteOffEvent(tick=480, channel=8, data=[68, 0]),
   midi.NoteOnEvent(tick=0, channel=8, data=[68, 102]),
   midi.NoteOffEvent(tick=480, channel=8, data=[68, 0]),
   midi.NoteOnEvent(tick=0, channel=8, data=[65, 90]),
   midi.NoteOffEvent(tick=480, channel=8, data=[65, 0]),
   midi.NoteOnEvent(tick=0, channel=8, data=[70, 116]),
   midi.NoteOffEvent(tick=480, channel=8, data=[70, 0]),
   midi.NoteOnEvent(tick=0, channel=8, data=[70, 109]),
   midi.NoteOffEvent(tick=480, channel=8, data=[70, 0]),
   midi.NoteOnEvent(tick=0, channel=8, data=[70, 108]),
   midi.NoteOffEvent(tick=480, channel=8, data=[70, 0]),
   midi.NoteOnEvent(tick=0, channel=8, data=[67, 93]),
   midi.NoteOffEvent(tick=480, channel=8, data=[67, 0]),
   midi.NoteOnEvent(tick=0, channel=8, data=[72, 119]),
   midi.NoteOffEvent(tick=480, channel=8, data=[72, 0]),
   midi.NoteOnEvent(tick=0, channel=8, data=[60, 83]),
   midi.NoteOffEvent(tick=480, channel=8, data=[60, 0]),
   midi.NoteOnEvent(tick=0, channel=8, data=[60, 83]),
   midi.NoteOffEvent(tick=480, channel=8, data=[60, 0]),
   midi.NoteOnEvent(tick=0, channel=8, data=[56, 83]),
   midi.NoteOffEvent(tick=480, channel=8, data=[56, 0]),
   midi.NoteOnEvent(tick=0, channel=8, data=[64, 101]),
   midi.NoteOffEvent(tick=480, channel=8, data=[64, 0]),
   midi.NoteOnEvent(tick=0, channel=8, data=[64, 97]),
   midi.NoteOffEvent(tick=480, channel=8, data=[64, 0]),
   midi.NoteOnEvent(tick=0, channel=8, data=[64, 98]),
   midi.NoteOffEvent(tick=480, channel=8, data=[64, 0]),
   midi.NoteOnEvent(tick=0, channel=8, data=[58, 83]),
   midi.NoteOffEvent(tick=480, channel=8, data=[58, 0]),
   midi.NoteOnEvent(tick=0, channel=8, data=[65, 114]),
   midi.NoteOffEvent(tick=480, channel=8, data=[65, 0]),
   midi.NoteOnEvent(tick=0, channel=8, data=[65, 107]),
   midi.NoteOffEvent(tick=480, channel=8, data=[65, 0]),
   midi.NoteOnEvent(tick=0, channel=8, data=[65, 106]),
   midi.NoteOffEvent(tick=480, channel=8, data=[65, 0]),
   midi.NoteOnEvent(tick=0, channel=8, data=[60, 85]),
   midi.NoteOffEvent(tick=480, channel=8, data=[60, 0]),
   midi.NoteOnEvent(tick=0, channel=8, data=[68, 119]),
   midi.NoteOffEvent(tick=480, channel=8, data=[68, 0]),
   midi.NoteOnEvent(tick=0, channel=8, data=[68, 112]),
   midi.NoteOffEvent(tick=480, channel=8, data=[68, 0]),
   midi.NoteOnEvent(tick=0, channel=8, data=[68, 112]),
   midi.NoteOffEvent(tick=480, channel=8, data=[68, 0]),
   midi.NoteOnEvent(tick=0, channel=8, data=[65, 98]),
   midi.NoteOffEvent(tick=480, channel=8, data=[65, 0]),
   midi.NoteOnEvent(tick=0, channel=8, data=[67, 114]),
   midi.NoteOffEvent(tick=480, channel=8, data=[67, 0]),
   midi.NoteOnEvent(tick=0, channel=8, data=[72, 112]),
   midi.NoteOnEvent(tick=0, channel=8, data=[60, 98]),
   midi.NoteOffEvent(tick=480, channel=8, data=[72, 0]),
   midi.NoteOffEvent(tick=0, channel=8, data=[60, 0]),
   midi.NoteOnEvent(tick=0, channel=8, data=[72, 112]),
   midi.NoteOnEvent(tick=0, channel=8, data=[60, 98]),
   midi.NoteOffEvent(tick=480, channel=8, data=[72, 0]),
   midi.NoteOffEvent(tick=0, channel=8, data=[60, 0]),
   midi.NoteOnEvent(tick=0, channel=8, data=[72, 112]),
   midi.NoteOnEvent(tick=0, channel=8, data=[60, 98]),
   midi.NoteOffEvent(tick=480, channel=8, data=[72, 0]),
   midi.NoteOffEvent(tick=0, channel=8, data=[60, 0]),
   midi.NoteOnEvent(tick=0, channel=8, data=[72, 118]),
   midi.NoteOnEvent(tick=0, channel=8, data=[60, 104]),
   midi.NoteOffEvent(tick=480, channel=8, data=[72, 0]),
   midi.NoteOffEvent(tick=0, channel=8, data=[60, 0]),
   midi.NoteOnEvent(tick=0, channel=8, data=[72, 109]),
   midi.NoteOnEvent(tick=0, channel=8, data=[60, 98]),
   midi.NoteOffEvent(tick=480, channel=8, data=[72, 0]),
   midi.NoteOffEvent(tick=0, channel=8, data=[60, 0]),
   midi.NoteOnEvent(tick=0, channel=8, data=[72, 108]),
   midi.NoteOnEvent(tick=0, channel=8, data=[60, 98]),
   midi.NoteOffEvent(tick=480, channel=8, data=[72, 0]),
   midi.NoteOffEvent(tick=0, channel=8, data=[60, 0]),
   midi.NoteOnEvent(tick=0, channel=8, data=[72, 106]),
   midi.NoteOnEvent(tick=0, channel=8, data=[60, 98]),
   midi.NoteOffEvent(tick=480, channel=8, data=[72, 0]),
   midi.NoteOffEvent(tick=0, channel=8, data=[60, 0]),
   midi.NoteOnEvent(tick=0, channel=8, data=[72, 110]),
   midi.NoteOnEvent(tick=0, channel=8, data=[60, 104]),
   midi.NoteOffEvent(tick=480, channel=8, data=[72, 0]),
   midi.NoteOffEvent(tick=0, channel=8, data=[60, 0]),
   midi.NoteOnEvent(tick=0, channel=8, data=[72, 102]),
   midi.NoteOnEvent(tick=0, channel=8, data=[60, 98]),
   midi.NoteOffEvent(tick=480, channel=8, data=[72, 0]),
   midi.NoteOffEvent(tick=0, channel=8, data=[60, 0]),
   midi.NoteOnEvent(tick=0, channel=8, data=[72, 101]),
   midi.NoteOnEvent(tick=0, channel=8, data=[60, 98]),
   midi.NoteOffEvent(tick=480, channel=8, data=[72, 0]),
   midi.NoteOffEvent(tick=0, channel=8, data=[60, 0]),
   midi.NoteOnEvent(tick=0, channel=8, data=[72, 100]),
   midi.NoteOnEvent(tick=0, channel=8, data=[60, 98]),
   midi.NoteOffEvent(tick=480, channel=8, data=[72, 0]),
   midi.NoteOffEvent(tick=0, channel=8, data=[60, 0]),
   midi.NoteOnEvent(tick=0, channel=8, data=[72, 105]),
   midi.NoteOnEvent(tick=0, channel=8, data=[60, 104]),
   midi.NoteOffEvent(tick=480, channel=8, data=[72, 0]),
   midi.NoteOffEvent(tick=0, channel=8, data=[60, 0]),
   midi.NoteOnEvent(tick=0, channel=8, data=[72, 99]),
   midi.NoteOnEvent(tick=0, channel=8, data=[60, 98]),
   midi.NoteOffEvent(tick=480, channel=8, data=[72, 0]),
   midi.NoteOffEvent(tick=0, channel=8, data=[60, 0]),
   midi.NoteOnEvent(tick=0, channel=8, data=[72, 98]),
   midi.NoteOnEvent(tick=0, channel=8, data=[60, 98]),
   midi.NoteOffEvent(tick=480, channel=8, data=[72, 0]),
   midi.NoteOffEvent(tick=0, channel=8, data=[60, 0]),
   midi.NoteOnEvent(tick=0, channel=8, data=[72, 98]),
   midi.NoteOnEvent(tick=0, channel=8, data=[60, 98]),
   midi.NoteOffEvent(tick=480, channel=8, data=[72, 0]),
   midi.NoteOffEvent(tick=0, channel=8, data=[60, 0]),
   midi.NoteOnEvent(tick=0, channel=8, data=[71, 99]),
   midi.NoteOnEvent(tick=0, channel=8, data=[62, 114]),
   midi.NoteOffEvent(tick=480, channel=8, data=[71, 0]),
   midi.NoteOffEvent(tick=0, channel=8, data=[62, 0]),
   midi.NoteOnEvent(tick=0, channel=8, data=[77, 112]),
   midi.NoteOffEvent(tick=480, channel=8, data=[77, 0]),
   midi.NoteOnEvent(tick=0, channel=8, data=[74, 104]),
   midi.NoteOffEvent(tick=480, channel=8, data=[74, 0]),
   midi.NoteOnEvent(tick=0, channel=8, data=[74, 103]),
   midi.NoteOffEvent(tick=480, channel=8, data=[74, 0]),
   midi.NoteOnEvent(tick=0, channel=8, data=[71, 93]),
   midi.NoteOffEvent(tick=480, channel=8, data=[71, 0]),
   midi.NoteOnEvent(tick=0, channel=8, data=[67, 83]),
   midi.NoteOffEvent(tick=480, channel=8, data=[67, 0]),
   midi.NoteOnEvent(tick=0, channel=8, data=[65, 83]),
   midi.NoteOffEvent(tick=480, channel=8, data=[65, 0]),
   midi.NoteOnEvent(tick=0, channel=8, data=[65, 83]),
   midi.NoteOffEvent(tick=480, channel=8, data=[65, 0]),
   midi.NoteOnEvent(tick=0, channel=8, data=[62, 88]),
   midi.NoteOffEvent(tick=480, channel=8, data=[62, 0]),
   midi.NoteOnEvent(tick=0, channel=8, data=[59, 83]),
   midi.NoteOffEvent(tick=480, channel=8, data=[59, 0]),
   midi.NoteOnEvent(tick=0, channel=8, data=[55, 83]),
   midi.NoteOffEvent(tick=480, channel=8, data=[55, 0]),
   midi.NoteOnEvent(tick=0, channel=8, data=[65, 100]),
   midi.NoteOffEvent(tick=480, channel=8, data=[65, 0]),
   midi.NoteOnEvent(tick=0, channel=8, data=[62, 93]),
   midi.NoteOffEvent(tick=480, channel=8, data=[62, 0]),
   midi.NoteOnEvent(tick=0, channel=8, data=[59, 83]),
   midi.NoteOffEvent(tick=480, channel=8, data=[59, 0]),
   midi.NoteOnEvent(tick=0, channel=8, data=[60, 87]),
   midi.NoteOffEvent(tick=480, channel=8, data=[60, 0]),
   midi.NoteOnEvent(tick=0, channel=8, data=[60, 89]),
   midi.NoteOffEvent(tick=480, channel=8, data=[60, 0]),
   midi.NoteOnEvent(tick=0, channel=8, data=[72, 127]),
   midi.NoteOffEvent(tick=480, channel=8, data=[72, 0]),
   midi.NoteOnEvent(tick=0, channel=8, data=[75, 127]),
   midi.NoteOffEvent(tick=480, channel=8, data=[75, 0]),
   midi.NoteOnEvent(tick=0, channel=8, data=[75, 127]),
   midi.NoteOffEvent(tick=480, channel=8, data=[75, 0]),
   midi.NoteOnEvent(tick=0, channel=8, data=[75, 127]),
   midi.NoteOffEvent(tick=480, channel=8, data=[75, 0]),
   midi.NoteOnEvent(tick=0, channel=8, data=[72, 127]),
   midi.NoteOffEvent(tick=480, channel=8, data=[72, 0]),
   midi.NoteOnEvent(tick=0, channel=8, data=[69, 113]),
   midi.NoteOffEvent(tick=480, channel=8, data=[69, 0]),
   midi.NoteOnEvent(tick=0, channel=8, data=[69, 112]),
   midi.NoteOffEvent(tick=480, channel=8, data=[69, 0]),
   midi.NoteOnEvent(tick=0, channel=8, data=[69, 111]),
   midi.NoteOffEvent(tick=480, channel=8, data=[69, 0]),
   midi.NoteOnEvent(tick=0, channel=8, data=[66, 103]),
   midi.NoteOffEvent(tick=480, channel=8, data=[66, 0]),
   midi.NoteOnEvent(tick=0, channel=8, data=[63, 96]),
   midi.NoteOffEvent(tick=480, channel=8, data=[63, 0]),
   midi.NoteOnEvent(tick=0, channel=8, data=[63, 96]),
   midi.NoteOffEvent(tick=480, channel=8, data=[63, 0]),
   midi.NoteOnEvent(tick=0, channel=8, data=[63, 96]),
   midi.NoteOffEvent(tick=480, channel=8, data=[63, 0]),
   midi.NoteOnEvent(tick=0, channel=8, data=[60, 102]),
   midi.NoteOffEvent(tick=480, channel=8, data=[60, 0]),
   midi.NoteOnEvent(tick=0, channel=8, data=[69, 127]),
   midi.NoteOnEvent(tick=0, channel=8, data=[57, 113]),
   midi.NoteOffEvent(tick=480, channel=8, data=[69, 0]),
   midi.NoteOffEvent(tick=0, channel=8, data=[57, 0]),
   midi.NoteOnEvent(tick=0, channel=8, data=[69, 127]),
   midi.NoteOnEvent(tick=0, channel=8, data=[57, 113]),
   midi.NoteOffEvent(tick=480, channel=8, data=[69, 0]),
   midi.NoteOffEvent(tick=0, channel=8, data=[57, 0]),
   midi.NoteOnEvent(tick=0, channel=8, data=[69, 126]),
   midi.NoteOnEvent(tick=0, channel=8, data=[57, 113]),
   midi.NoteOffEvent(tick=480, channel=8, data=[69, 0]),
   midi.NoteOffEvent(tick=0, channel=8, data=[57, 0]),
   midi.NoteOnEvent(tick=0, channel=8, data=[69, 127]),
   midi.NoteOnEvent(tick=0, channel=8, data=[57, 120]),
   midi.NoteOffEvent(tick=960, channel=8, data=[69, 0]),
   midi.NoteOffEvent(tick=0, channel=8, data=[57, 0]),
   midi.NoteOnEvent(tick=2880, channel=8, data=[65, 123]),
   midi.NoteOnEvent(tick=0, channel=8, data=[70, 123]),
   midi.NoteOnEvent(tick=0, channel=8, data=[58, 121]),
   midi.NoteOffEvent(tick=960, channel=8, data=[65, 0]),
   midi.NoteOffEvent(tick=0, channel=8, data=[70, 0]),
   midi.NoteOffEvent(tick=0, channel=8, data=[58, 0]),
   midi.NoteOnEvent(tick=8640, channel=8, data=[67, 65]),
   midi.NoteOnEvent(tick=1920, channel=8, data=[68, 65]),
   midi.NoteOffEvent(tick=38, channel=8, data=[67, 0]),
   midi.NoteOffEvent(tick=1785, channel=8, data=[68, 0]),
   midi.NoteOnEvent(tick=97, channel=8, data=[68, 65]),
   midi.NoteOnEvent(tick=1920, channel=8, data=[67, 64]),
   midi.NoteOffEvent(tick=38, channel=8, data=[68, 0]),
   midi.NoteOffEvent(tick=1785, channel=8, data=[67, 0]),
   midi.NoteOnEvent(tick=97, channel=8, data=[67, 64]),
   midi.NoteOnEvent(tick=1920, channel=8, data=[68, 65]),
   midi.NoteOffEvent(tick=38, channel=8, data=[67, 0]),
   midi.NoteOffEvent(tick=1785, channel=8, data=[68, 0]),
   midi.NoteOnEvent(tick=97, channel=8, data=[68, 65]),
   midi.NoteOnEvent(tick=1920, channel=8, data=[67, 64]),
   midi.NoteOffEvent(tick=38, channel=8, data=[68, 0]),
   midi.NoteOffEvent(tick=1785, channel=8, data=[67, 0]),
   midi.NoteOnEvent(tick=97, channel=8, data=[67, 64]),
   midi.NoteOnEvent(tick=1920, channel=8, data=[68, 65]),
   midi.NoteOffEvent(tick=38, channel=8, data=[67, 0]),
   midi.NoteOffEvent(tick=1785, channel=8, data=[68, 0]),
   midi.NoteOnEvent(tick=97, channel=8, data=[68, 65]),
   midi.NoteOnEvent(tick=1920, channel=8, data=[67, 64]),
   midi.NoteOffEvent(tick=38, channel=8, data=[68, 0]),
   midi.NoteOffEvent(tick=1785, channel=8, data=[67, 0]),
   midi.NoteOnEvent(tick=97, channel=8, data=[67, 64]),
   midi.NoteOffEvent(tick=3840, channel=8, data=[67, 0]),
   midi.NoteOnEvent(tick=0, channel=8, data=[67, 65]),
   midi.NoteOnEvent(tick=1920, channel=8, data=[65, 64]),
   midi.NoteOffEvent(tick=38, channel=8, data=[67, 0]),
   midi.NoteOffEvent(tick=1785, channel=8, data=[65, 0]),
   midi.NoteOnEvent(tick=97, channel=8, data=[68, 66]),
   midi.NoteOnEvent(tick=1920, channel=8, data=[70, 66]),
   midi.NoteOffEvent(tick=38, channel=8, data=[68, 0]),
   midi.NoteOffEvent(tick=1785, channel=8, data=[70, 0]),
   midi.NoteOnEvent(tick=97, channel=8, data=[70, 65]),
   midi.NoteOnEvent(tick=1920, channel=8, data=[68, 64]),
   midi.NoteOffEvent(tick=38, channel=8, data=[70, 0]),
   midi.NoteOffEvent(tick=1785, channel=8, data=[68, 0]),
   midi.NoteOnEvent(tick=97, channel=8, data=[63, 61]),
   midi.NoteOnEvent(tick=960, channel=8, data=[65, 60]),
   midi.NoteOffEvent(tick=19, channel=8, data=[63, 0]),
   midi.NoteOffEvent(tick=892, channel=8, data=[65, 0]),
   midi.NoteOnEvent(tick=49, channel=8, data=[66, 65]),
   midi.NoteOffEvent(tick=960, channel=8, data=[66, 0]),
   midi.NoteOnEvent(tick=0, channel=8, data=[65, 66]),
   midi.NoteOffEvent(tick=960, channel=8, data=[65, 0]),
   midi.NoteOnEvent(tick=0, channel=8, data=[63, 72]),
   midi.NoteOffEvent(tick=960, channel=8, data=[63, 0]),
   midi.NoteOnEvent(tick=0, channel=8, data=[65, 72]),
   midi.NoteOffEvent(tick=960, channel=8, data=[65, 0]),
   midi.NoteOnEvent(tick=0, channel=8, data=[66, 78]),
   midi.NoteOnEvent(tick=960, channel=8, data=[65, 71]),
   midi.NoteOffEvent(tick=19, channel=8, data=[66, 0]),
   midi.NoteOffEvent(tick=892, channel=8, data=[65, 0]),
   midi.NoteOnEvent(tick=49, channel=8, data=[63, 72]),
   midi.NoteOffEvent(tick=960, channel=8, data=[63, 0]),
   midi.NoteOnEvent(tick=0, channel=8, data=[65, 72]),
   midi.NoteOffEvent(tick=960, channel=8, data=[65, 0]),
   midi.NoteOnEvent(tick=0, channel=8, data=[66, 92]),
   midi.NoteOnEvent(tick=960, channel=8, data=[65, 84]),
   midi.NoteOffEvent(tick=19, channel=8, data=[66, 0]),
   midi.NoteOffEvent(tick=892, channel=8, data=[65, 0]),
   midi.NoteOnEvent(tick=49, channel=8, data=[63, 85]),
   midi.NoteOffEvent(tick=960, channel=8, data=[63, 0]),
   midi.NoteOnEvent(tick=0, channel=8, data=[65, 85]),
   midi.NoteOffEvent(tick=960, channel=8, data=[65, 0]),
   midi.NoteOnEvent(tick=0, channel=8, data=[66, 92]),
   midi.NoteOnEvent(tick=960, channel=8, data=[65, 84]),
   midi.NoteOffEvent(tick=19, channel=8, data=[66, 0]),
   midi.NoteOffEvent(tick=892, channel=8, data=[65, 0]),
   midi.NoteOnEvent(tick=49, channel=8, data=[63, 85]),
   midi.NoteOffEvent(tick=960, channel=8, data=[63, 0]),
   midi.NoteOnEvent(tick=0, channel=8, data=[65, 85]),
   midi.NoteOffEvent(tick=960, channel=8, data=[65, 0]),
   midi.NoteOnEvent(tick=0, channel=8, data=[66, 92]),
   midi.NoteOnEvent(tick=960, channel=8, data=[65, 84]),
   midi.NoteOffEvent(tick=19, channel=8, data=[66, 0]),
   midi.NoteOffEvent(tick=892, channel=8, data=[65, 0]),
   midi.NoteOnEvent(tick=49, channel=8, data=[66, 91]),
   midi.NoteOnEvent(tick=960, channel=8, data=[69, 91]),
   midi.NoteOffEvent(tick=19, channel=8, data=[66, 0]),
   midi.NoteOffEvent(tick=892, channel=8, data=[69, 0]),
   midi.NoteOnEvent(tick=49, channel=8, data=[82, 127]),
   midi.NoteOnEvent(tick=0, channel=8, data=[70, 120]),
   midi.NoteOffEvent(tick=2400, channel=8, data=[82, 0]),
   midi.NoteOffEvent(tick=0, channel=8, data=[70, 0]),
   midi.NoteOnEvent(tick=0, channel=8, data=[84, 125]),
   midi.NoteOffEvent(tick=480, channel=8, data=[84, 0]),
   midi.NoteOnEvent(tick=0, channel=8, data=[82, 120]),
   midi.NoteOffEvent(tick=480, channel=8, data=[82, 0]),
   midi.NoteOnEvent(tick=0, channel=8, data=[80, 113]),
   midi.NoteOffEvent(tick=480, channel=8, data=[80, 0]),
   midi.NoteOnEvent(tick=0, channel=8, data=[80, 119]),
   midi.NoteOnEvent(tick=480, channel=8, data=[79, 108]),
   midi.NoteOffEvent(tick=8, channel=8, data=[80, 0]),
   midi.NoteOffEvent(tick=446, channel=8, data=[79, 0]),
   midi.NoteOnEvent(tick=26, channel=8, data=[77, 101]),
   midi.NoteOffEvent(tick=240, channel=8, data=[77, 0]),
   midi.NoteOnEvent(tick=240, channel=8, data=[75, 98]),
   midi.NoteOffEvent(tick=240, channel=8, data=[75, 0]),
   midi.NoteOnEvent(tick=240, channel=8, data=[75, 105]),
   midi.NoteOnEvent(tick=480, channel=8, data=[74, 99]),
   midi.NoteOffEvent(tick=8, channel=8, data=[75, 0]),
   midi.NoteOffEvent(tick=446, channel=8, data=[74, 0]),
   midi.NoteOnEvent(tick=26, channel=8, data=[72, 96]),
   midi.NoteOffEvent(tick=240, channel=8, data=[72, 0]),
   midi.NoteOnEvent(tick=240, channel=8, data=[74, 102]),
   midi.NoteOffEvent(tick=240, channel=8, data=[74, 0]),
   midi.NoteOnEvent(tick=240, channel=8, data=[77, 121]),
   midi.NoteOnEvent(tick=480, channel=8, data=[75, 107]),
   midi.NoteOffEvent(tick=8, channel=8, data=[77, 0]),
   midi.NoteOffEvent(tick=446, channel=8, data=[75, 0]),
   midi.NoteOnEvent(tick=26, channel=8, data=[70, 96]),
   midi.NoteOffEvent(tick=240, channel=8, data=[70, 0]),
   midi.NoteOnEvent(tick=240, channel=8, data=[67, 96]),
   midi.NoteOffEvent(tick=240, channel=8, data=[67, 0]),
   midi.NoteOnEvent(tick=240, channel=8, data=[74, 117]),
   midi.NoteOnEvent(tick=480, channel=8, data=[72, 104]),
   midi.NoteOffEvent(tick=8, channel=8, data=[74, 0]),
   midi.NoteOffEvent(tick=446, channel=8, data=[72, 0]),
   midi.NoteOnEvent(tick=26, channel=8, data=[68, 96]),
   midi.NoteOffEvent(tick=240, channel=8, data=[68, 0]),
   midi.NoteOnEvent(tick=240, channel=8, data=[65, 96]),
   midi.NoteOffEvent(tick=240, channel=8, data=[65, 0]),
   midi.NoteOnEvent(tick=240, channel=8, data=[72, 118]),
   midi.NoteOnEvent(tick=480, channel=8, data=[70, 105]),
   midi.NoteOffEvent(tick=8, channel=8, data=[72, 0]),
   midi.NoteOffEvent(tick=446, channel=8, data=[70, 0]),
   midi.NoteOnEvent(tick=26, channel=8, data=[67, 98]),
   midi.NoteOffEvent(tick=240, channel=8, data=[67, 0]),
   midi.NoteOnEvent(tick=240, channel=8, data=[63, 96]),
   midi.NoteOffEvent(tick=240, channel=8, data=[63, 0]),
   midi.NoteOnEvent(tick=240, channel=8, data=[58, 102]),
   midi.NoteOffEvent(tick=480, channel=8, data=[58, 0]),
   midi.NoteOnEvent(tick=0, channel=8, data=[69, 119]),
   midi.NoteOnEvent(tick=480, channel=8, data=[70, 123]),
   midi.NoteOffEvent(tick=8, channel=8, data=[69, 0]),
   midi.NoteOffEvent(tick=446, channel=8, data=[70, 0]),
   midi.NoteOnEvent(tick=26, channel=8, data=[69, 118]),
   midi.NoteOffEvent(tick=480, channel=8, data=[69, 0]),
   midi.NoteOnEvent(tick=0, channel=8, data=[70, 127]),
   midi.NoteOffEvent(tick=480, channel=8, data=[70, 0]),
   midi.NoteOnEvent(tick=0, channel=8, data=[69, 117]),
   midi.NoteOffEvent(tick=480, channel=8, data=[69, 0]),
   midi.NoteOnEvent(tick=0, channel=8, data=[70, 121]),
   midi.NoteOffEvent(tick=480, channel=8, data=[70, 0]),
   midi.NoteOnEvent(tick=0, channel=8, data=[69, 115]),
   midi.NoteOffEvent(tick=480, channel=8, data=[69, 0]),
   midi.NoteOnEvent(tick=0, channel=8, data=[70, 127]),
   midi.NoteOffEvent(tick=240, channel=8, data=[70, 0]),
   midi.NoteOnEvent(tick=240, channel=8, data=[84, 127]),
   midi.NoteOffEvent(tick=240, channel=8, data=[84, 0]),
   midi.NoteOnEvent(tick=240, channel=8, data=[82, 127]),
   midi.NoteOffEvent(tick=240, channel=8, data=[82, 0]),
   midi.NoteOnEvent(tick=240, channel=8, data=[80, 127]),
   midi.NoteOffEvent(tick=240, channel=8, data=[80, 0]),
   midi.NoteOnEvent(tick=240, channel=8, data=[80, 127]),
   midi.NoteOnEvent(tick=480, channel=8, data=[79, 127]),
   midi.NoteOffEvent(tick=8, channel=8, data=[80, 0]),
   midi.NoteOffEvent(tick=446, channel=8, data=[79, 0]),
   midi.NoteOnEvent(tick=26, channel=8, data=[77, 119]),
   midi.NoteOffEvent(tick=240, channel=8, data=[77, 0]),
   midi.NoteOnEvent(tick=240, channel=8, data=[75, 110]),
   midi.NoteOffEvent(tick=240, channel=8, data=[75, 0]),
   midi.NoteOnEvent(tick=240, channel=8, data=[75, 116]),
   midi.NoteOnEvent(tick=480, channel=8, data=[74, 106]),
   midi.NoteOffEvent(tick=8, channel=8, data=[75, 0]),
   midi.NoteOffEvent(tick=446, channel=8, data=[74, 0]),
   midi.NoteOnEvent(tick=26, channel=8, data=[72, 100]),
   midi.NoteOffEvent(tick=240, channel=8, data=[72, 0]),
   midi.NoteOnEvent(tick=240, channel=8, data=[74, 108]),
   midi.NoteOffEvent(tick=240, channel=8, data=[74, 0]),
   midi.NoteOnEvent(tick=240, channel=8, data=[77, 125]),
   midi.NoteOnEvent(tick=480, channel=8, data=[75, 110]),
   midi.NoteOffEvent(tick=8, channel=8, data=[77, 0]),
   midi.NoteOffEvent(tick=446, channel=8, data=[75, 0]),
   midi.NoteOnEvent(tick=26, channel=8, data=[70, 96]),
   midi.NoteOffEvent(tick=240, channel=8, data=[70, 0]),
   midi.NoteOnEvent(tick=240, channel=8, data=[67, 96]),
   midi.NoteOffEvent(tick=240, channel=8, data=[67, 0]),
   midi.NoteOnEvent(tick=240, channel=8, data=[74, 118]),
   midi.NoteOnEvent(tick=480, channel=8, data=[72, 105]),
   midi.NoteOffEvent(tick=8, channel=8, data=[74, 0]),
   midi.NoteOffEvent(tick=446, channel=8, data=[72, 0]),
   midi.NoteOnEvent(tick=26, channel=8, data=[68, 96]),
   midi.NoteOffEvent(tick=240, channel=8, data=[68, 0]),
   midi.NoteOnEvent(tick=240, channel=8, data=[65, 96]),
   midi.NoteOffEvent(tick=240, channel=8, data=[65, 0]),
   midi.NoteOnEvent(tick=240, channel=8, data=[72, 118]),
   midi.NoteOnEvent(tick=480, channel=8, data=[70, 105]),
   midi.NoteOffEvent(tick=8, channel=8, data=[72, 0]),
   midi.NoteOffEvent(tick=446, channel=8, data=[70, 0]),
   midi.NoteOnEvent(tick=26, channel=8, data=[67, 98]),
   midi.NoteOffEvent(tick=240, channel=8, data=[67, 0]),
   midi.NoteOnEvent(tick=240, channel=8, data=[63, 96]),
   midi.NoteOffEvent(tick=240, channel=8, data=[63, 0]),
   midi.NoteOnEvent(tick=240, channel=8, data=[58, 102]),
   midi.NoteOffEvent(tick=480, channel=8, data=[58, 0]),
   midi.NoteOnEvent(tick=0, channel=8, data=[70, 123]),
   midi.NoteOffEvent(tick=480, channel=8, data=[70, 0]),
   midi.NoteOnEvent(tick=0, channel=8, data=[82, 127]),
   midi.NoteOffEvent(tick=480, channel=8, data=[82, 0]),
   midi.NoteOnEvent(tick=0, channel=8, data=[82, 127]),
   midi.NoteOffEvent(tick=480, channel=8, data=[82, 0]),
   midi.NoteOnEvent(tick=0, channel=8, data=[63, 102]),
   midi.NoteOffEvent(tick=6240, channel=8, data=[63, 0]),
   midi.NoteOnEvent(tick=0, channel=8, data=[62, 112]),
   midi.NoteOffEvent(tick=480, channel=8, data=[62, 0]),
   midi.NoteOnEvent(tick=0, channel=8, data=[62, 112]),
   midi.NoteOffEvent(tick=480, channel=8, data=[62, 0]),
   midi.NoteOnEvent(tick=0, channel=8, data=[62, 113]),
   midi.NoteOffEvent(tick=480, channel=8, data=[62, 0]),
   midi.NoteOnEvent(tick=0, channel=8, data=[63, 122]),
   midi.NoteOffEvent(tick=6240, channel=8, data=[63, 0]),
   midi.NoteOnEvent(tick=0, channel=8, data=[74, 115]),
   midi.NoteOnEvent(tick=0, channel=8, data=[65, 113]),
   midi.NoteOffEvent(tick=480, channel=8, data=[74, 0]),
   midi.NoteOffEvent(tick=0, channel=8, data=[65, 0]),
   midi.NoteOnEvent(tick=0, channel=8, data=[74, 114]),
   midi.NoteOnEvent(tick=0, channel=8, data=[65, 113]),
   midi.NoteOffEvent(tick=480, channel=8, data=[74, 0]),
   midi.NoteOffEvent(tick=0, channel=8, data=[65, 0]),
   midi.NoteOnEvent(tick=0, channel=8, data=[74, 114]),
   midi.NoteOnEvent(tick=0, channel=8, data=[65, 113]),
   midi.NoteOffEvent(tick=480, channel=8, data=[74, 0]),
   midi.NoteOffEvent(tick=0, channel=8, data=[65, 0]),
   midi.NoteOnEvent(tick=0, channel=8, data=[75, 123]),
   midi.NoteOnEvent(tick=0, channel=8, data=[67, 125]),
   midi.NoteOffEvent(tick=960, channel=8, data=[75, 0]),
   midi.NoteOffEvent(tick=0, channel=8, data=[67, 0]),
   midi.NoteOnEvent(tick=1440, channel=8, data=[74, 112]),
   midi.NoteOnEvent(tick=0, channel=8, data=[65, 112]),
   midi.NoteOffEvent(tick=480, channel=8, data=[74, 0]),
   midi.NoteOffEvent(tick=0, channel=8, data=[65, 0]),
   midi.NoteOnEvent(tick=0, channel=8, data=[74, 113]),
   midi.NoteOnEvent(tick=0, channel=8, data=[65, 112]),
   midi.NoteOffEvent(tick=480, channel=8, data=[74, 0]),
   midi.NoteOffEvent(tick=0, channel=8, data=[65, 0]),
   midi.NoteOnEvent(tick=0, channel=8, data=[74, 113]),
   midi.NoteOnEvent(tick=0, channel=8, data=[65, 112]),
   midi.NoteOffEvent(tick=480, channel=8, data=[74, 0]),
   midi.NoteOffEvent(tick=0, channel=8, data=[65, 0]),
   midi.NoteOnEvent(tick=0, channel=8, data=[75, 123]),
   midi.NoteOnEvent(tick=0, channel=8, data=[67, 126]),
   midi.NoteOffEvent(tick=960, channel=8, data=[75, 0]),
   midi.NoteOffEvent(tick=0, channel=8, data=[67, 0]),
   midi.NoteOnEvent(tick=1440, channel=8, data=[77, 118]),
   midi.NoteOnEvent(tick=0, channel=8, data=[70, 121]),
   midi.NoteOffEvent(tick=480, channel=8, data=[77, 0]),
   midi.NoteOffEvent(tick=0, channel=8, data=[70, 0]),
   midi.NoteOnEvent(tick=0, channel=8, data=[77, 117]),
   midi.NoteOnEvent(tick=0, channel=8, data=[70, 120]),
   midi.NoteOffEvent(tick=480, channel=8, data=[77, 0]),
   midi.NoteOffEvent(tick=0, channel=8, data=[70, 0]),
   midi.NoteOnEvent(tick=0, channel=8, data=[77, 116]),
   midi.NoteOnEvent(tick=0, channel=8, data=[70, 118]),
   midi.NoteOffEvent(tick=480, channel=8, data=[77, 0]),
   midi.NoteOffEvent(tick=0, channel=8, data=[70, 0]),
   midi.NoteOnEvent(tick=0, channel=8, data=[79, 127]),
   midi.NoteOnEvent(tick=0, channel=8, data=[70, 124]),
   midi.NoteOnEvent(tick=0, channel=8, data=[63, 120]),
   midi.NoteOffEvent(tick=960, channel=8, data=[79, 0]),
   midi.NoteOffEvent(tick=0, channel=8, data=[70, 0]),
   midi.NoteOffEvent(tick=0, channel=8, data=[63, 0]),
   midi.NoteOnEvent(tick=5280, channel=8, data=[67, 111]),
   midi.NoteOffEvent(tick=480, channel=8, data=[67, 0]),
   midi.NoteOnEvent(tick=0, channel=8, data=[67, 112]),
   midi.NoteOffEvent(tick=480, channel=8, data=[67, 0]),
   midi.NoteOnEvent(tick=0, channel=8, data=[67, 113]),
   midi.NoteOffEvent(tick=480, channel=8, data=[67, 0]),
   midi.NoteOnEvent(tick=0, channel=8, data=[63, 109]),
   midi.NoteOffEvent(tick=2880, channel=8, data=[63, 0]),
   midi.NoteOnEvent(tick=480, channel=8, data=[65, 112]),
   midi.NoteOffEvent(tick=480, channel=8, data=[65, 0]),
   midi.NoteOnEvent(tick=0, channel=8, data=[65, 112]),
   midi.NoteOffEvent(tick=480, channel=8, data=[65, 0]),
   midi.NoteOnEvent(tick=0, channel=8, data=[65, 113]),
   midi.NoteOffEvent(tick=480, channel=8, data=[65, 0]),
   midi.NoteOnEvent(tick=0, channel=8, data=[62, 110]),
   midi.NoteOffEvent(tick=2880, channel=8, data=[62, 0]),
   midi.NoteOnEvent(tick=480, channel=8, data=[67, 63]),
   midi.NoteOffEvent(tick=480, channel=8, data=[67, 0]),
   midi.NoteOnEvent(tick=0, channel=8, data=[67, 62]),
   midi.NoteOffEvent(tick=480, channel=8, data=[67, 0]),
   midi.NoteOnEvent(tick=0, channel=8, data=[67, 62]),
   midi.NoteOffEvent(tick=480, channel=8, data=[67, 0]),
   midi.NoteOnEvent(tick=0, channel=8, data=[63, 59]),
   midi.NoteOffEvent(tick=6240, channel=8, data=[63, 0]),
   midi.NoteOnEvent(tick=0, channel=8, data=[67, 61]),
   midi.NoteOffEvent(tick=480, channel=8, data=[67, 0]),
   midi.NoteOnEvent(tick=0, channel=8, data=[67, 61]),
   midi.NoteOffEvent(tick=480, channel=8, data=[67, 0]),
   midi.NoteOnEvent(tick=0, channel=8, data=[67, 61]),
   midi.NoteOffEvent(tick=480, channel=8, data=[67, 0]),
   midi.NoteOnEvent(tick=0, channel=8, data=[62, 58]),
   midi.NoteOffEvent(tick=3840, channel=8, data=[62, 0]),
   midi.NoteOnEvent(tick=0, channel=8, data=[67, 66]),
   midi.NoteOffEvent(tick=4320, channel=8, data=[67, 0]),
   midi.NoteOnEvent(tick=0, channel=8, data=[63, 60]),
   midi.NoteOffEvent(tick=480, channel=8, data=[63, 0]),
   midi.NoteOnEvent(tick=0, channel=8, data=[63, 61]),
   midi.NoteOffEvent(tick=480, channel=8, data=[63, 0]),
   midi.NoteOnEvent(tick=0, channel=8, data=[65, 63]),
   midi.NoteOffEvent(tick=480, channel=8, data=[65, 0]),
   midi.NoteOnEvent(tick=0, channel=8, data=[67, 69]),
   midi.NoteOffEvent(tick=2400, channel=8, data=[67, 0]),
   midi.NoteOnEvent(tick=0, channel=8, data=[63, 59]),
   midi.NoteOffEvent(tick=480, channel=8, data=[63, 0]),
   midi.NoteOnEvent(tick=0, channel=8, data=[63, 60]),
   midi.NoteOffEvent(tick=480, channel=8, data=[63, 0]),
   midi.NoteOnEvent(tick=0, channel=8, data=[65, 63]),
   midi.NoteOffEvent(tick=480, channel=8, data=[65, 0]),
   midi.NoteOnEvent(tick=0, channel=8, data=[67, 70]),
   midi.NoteOffEvent(tick=480, channel=8, data=[67, 0]),
   midi.NoteOnEvent(tick=0, channel=8, data=[74, 70]),
   midi.NoteOffEvent(tick=480, channel=8, data=[74, 0]),
   midi.NoteOnEvent(tick=0, channel=8, data=[74, 70]),
   midi.NoteOffEvent(tick=480, channel=8, data=[74, 0]),
   midi.NoteOnEvent(tick=0, channel=8, data=[67, 74]),
   midi.NoteOffEvent(tick=480, channel=8, data=[67, 0]),
   midi.NoteOnEvent(tick=0, channel=8, data=[60, 119]),
   midi.NoteOnEvent(tick=229, channel=8, data=[67, 119]),
   midi.NoteOnEvent(tick=229, channel=8, data=[75, 119]),
   midi.NoteOffEvent(tick=502, channel=8, data=[60, 0]),
   midi.NoteOffEvent(tick=0, channel=8, data=[67, 0]),
   midi.NoteOffEvent(tick=0, channel=8, data=[75, 0]),
   midi.NoteOnEvent(tick=960, channel=8, data=[56, 108]),
   midi.NoteOnEvent(tick=229, channel=8, data=[66, 108]),
   midi.NoteOnEvent(tick=229, channel=8, data=[72, 108]),
   midi.NoteOffEvent(tick=502, channel=8, data=[56, 0]),
   midi.NoteOffEvent(tick=0, channel=8, data=[66, 0]),
   midi.NoteOffEvent(tick=0, channel=8, data=[72, 0]),
   midi.NoteOnEvent(tick=960, channel=8, data=[55, 103]),
   midi.NoteOnEvent(tick=229, channel=8, data=[62, 103]),
   midi.NoteOnEvent(tick=229, channel=8, data=[71, 103]),
   midi.NoteOffEvent(tick=502, channel=8, data=[55, 0]),
   midi.NoteOffEvent(tick=0, channel=8, data=[62, 0]),
   midi.NoteOffEvent(tick=0, channel=8, data=[71, 0]),
   midi.NoteOnEvent(tick=3360, channel=8, data=[68, 112]),
   midi.NoteOffEvent(tick=480, channel=8, data=[68, 0]),
   midi.NoteOnEvent(tick=0, channel=8, data=[68, 112]),
   midi.NoteOffEvent(tick=480, channel=8, data=[68, 0]),
   midi.NoteOnEvent(tick=0, channel=8, data=[68, 112]),
   midi.NoteOffEvent(tick=480, channel=8, data=[68, 0]),
   midi.NoteOnEvent(tick=0, channel=8, data=[65, 111]),
   midi.NoteOffEvent(tick=3840, channel=8, data=[65, 0]),
   midi.NoteOnEvent(tick=2400, channel=8, data=[62, 61]),
   midi.NoteOffEvent(tick=480, channel=8, data=[62, 0]),
   midi.NoteOnEvent(tick=0, channel=8, data=[62, 61]),
   midi.NoteOffEvent(tick=480, channel=8, data=[62, 0]),
   midi.NoteOnEvent(tick=0, channel=8, data=[62, 61]),
   midi.NoteOffEvent(tick=480, channel=8, data=[62, 0]),
   midi.NoteOnEvent(tick=0, channel=8, data=[59, 60]),
   midi.NoteOffEvent(tick=3840, channel=8, data=[59, 0]),
   midi.NoteOnEvent(tick=0, channel=8, data=[60, 64]),
   midi.NoteOffEvent(tick=960, channel=8, data=[60, 0]),
   midi.NoteOnEvent(tick=1440, channel=8, data=[62, 62]),
   midi.NoteOffEvent(tick=480, channel=8, data=[62, 0]),
   midi.NoteOnEvent(tick=0, channel=8, data=[62, 62]),
   midi.NoteOffEvent(tick=480, channel=8, data=[62, 0]),
   midi.NoteOnEvent(tick=0, channel=8, data=[62, 61]),
   midi.NoteOffEvent(tick=480, channel=8, data=[62, 0]),
   midi.NoteOnEvent(tick=0, channel=8, data=[59, 60]),
   midi.NoteOffEvent(tick=3840, channel=8, data=[59, 0]),
   midi.NoteOnEvent(tick=0, channel=8, data=[60, 64]),
   midi.NoteOffEvent(tick=480, channel=8, data=[60, 0]),
   midi.NoteOnEvent(tick=0, channel=8, data=[67, 67]),
   midi.NoteOffEvent(tick=480, channel=8, data=[67, 0]),
   midi.NoteOnEvent(tick=0, channel=8, data=[67, 66]),
   midi.NoteOffEvent(tick=480, channel=8, data=[67, 0]),
   midi.NoteOnEvent(tick=0, channel=8, data=[63, 59]),
   midi.NoteOffEvent(tick=480, channel=8, data=[63, 0]),
   midi.NoteOnEvent(tick=0, channel=8, data=[65, 91]),
   midi.NoteOffEvent(tick=2400, channel=8, data=[65, 0]),
   midi.NoteOnEvent(tick=0, channel=8, data=[68, 89]),
   midi.NoteOffEvent(tick=480, channel=8, data=[68, 0]),
   midi.NoteOnEvent(tick=0, channel=8, data=[68, 88]),
   midi.NoteOffEvent(tick=480, channel=8, data=[68, 0]),
   midi.NoteOnEvent(tick=0, channel=8, data=[65, 80]),
   midi.NoteOffEvent(tick=480, channel=8, data=[65, 0]),
   midi.NoteOnEvent(tick=0, channel=8, data=[67, 91]),
   midi.NoteOffEvent(tick=2400, channel=8, data=[67, 0]),
   midi.NoteOnEvent(tick=0, channel=8, data=[67, 84]),
   midi.NoteOffEvent(tick=480, channel=8, data=[67, 0]),
   midi.NoteOnEvent(tick=0, channel=8, data=[67, 84]),
   midi.NoteOffEvent(tick=480, channel=8, data=[67, 0]),
   midi.NoteOnEvent(tick=0, channel=8, data=[63, 75]),
   midi.NoteOffEvent(tick=480, channel=8, data=[63, 0]),
   midi.NoteOnEvent(tick=0, channel=8, data=[68, 110]),
   midi.NoteOffEvent(tick=480, channel=8, data=[68, 0]),
   midi.NoteOnEvent(tick=0, channel=8, data=[68, 103]),
   midi.NoteOffEvent(tick=480, channel=8, data=[68, 0]),
   midi.NoteOnEvent(tick=0, channel=8, data=[68, 102]),
   midi.NoteOffEvent(tick=480, channel=8, data=[68, 0]),
   midi.NoteOnEvent(tick=0, channel=8, data=[65, 90]),
   midi.NoteOffEvent(tick=480, channel=8, data=[65, 0]),
   midi.NoteOnEvent(tick=0, channel=8, data=[70, 116]),
   midi.NoteOffEvent(tick=480, channel=8, data=[70, 0]),
   midi.NoteOnEvent(tick=0, channel=8, data=[70, 109]),
   midi.NoteOffEvent(tick=480, channel=8, data=[70, 0]),
   midi.NoteOnEvent(tick=0, channel=8, data=[70, 108]),
   midi.NoteOffEvent(tick=480, channel=8, data=[70, 0]),
   midi.NoteOnEvent(tick=0, channel=8, data=[67, 93]),
   midi.NoteOffEvent(tick=480, channel=8, data=[67, 0]),
   midi.NoteOnEvent(tick=0, channel=8, data=[72, 119]),
   midi.NoteOffEvent(tick=480, channel=8, data=[72, 0]),
   midi.NoteOnEvent(tick=0, channel=8, data=[60, 83]),
   midi.NoteOffEvent(tick=480, channel=8, data=[60, 0]),
   midi.NoteOnEvent(tick=0, channel=8, data=[60, 83]),
   midi.NoteOffEvent(tick=480, channel=8, data=[60, 0]),
   midi.NoteOnEvent(tick=0, channel=8, data=[56, 83]),
   midi.NoteOffEvent(tick=480, channel=8, data=[56, 0]),
   midi.NoteOnEvent(tick=0, channel=8, data=[64, 101]),
   midi.NoteOffEvent(tick=480, channel=8, data=[64, 0]),
   midi.NoteOnEvent(tick=0, channel=8, data=[64, 97]),
   midi.NoteOffEvent(tick=480, channel=8, data=[64, 0]),
   midi.NoteOnEvent(tick=0, channel=8, data=[64, 98]),
   midi.NoteOffEvent(tick=480, channel=8, data=[64, 0]),
   midi.NoteOnEvent(tick=0, channel=8, data=[58, 83]),
   midi.NoteOffEvent(tick=480, channel=8, data=[58, 0]),
   midi.NoteOnEvent(tick=0, channel=8, data=[65, 114]),
   midi.NoteOffEvent(tick=480, channel=8, data=[65, 0]),
   midi.NoteOnEvent(tick=0, channel=8, data=[65, 107]),
   midi.NoteOffEvent(tick=480, channel=8, data=[65, 0]),
   midi.NoteOnEvent(tick=0, channel=8, data=[65, 106]),
   midi.NoteOffEvent(tick=480, channel=8, data=[65, 0]),
   midi.NoteOnEvent(tick=0, channel=8, data=[60, 85]),
   midi.NoteOffEvent(tick=480, channel=8, data=[60, 0]),
   midi.NoteOnEvent(tick=0, channel=8, data=[68, 119]),
   midi.NoteOffEvent(tick=480, channel=8, data=[68, 0]),
   midi.NoteOnEvent(tick=0, channel=8, data=[68, 112]),
   midi.NoteOffEvent(tick=480, channel=8, data=[68, 0]),
   midi.NoteOnEvent(tick=0, channel=8, data=[68, 112]),
   midi.NoteOffEvent(tick=480, channel=8, data=[68, 0]),
   midi.NoteOnEvent(tick=0, channel=8, data=[65, 98]),
   midi.NoteOffEvent(tick=480, channel=8, data=[65, 0]),
   midi.NoteOnEvent(tick=0, channel=8, data=[67, 114]),
   midi.NoteOffEvent(tick=480, channel=8, data=[67, 0]),
   midi.NoteOnEvent(tick=0, channel=8, data=[72, 112]),
   midi.NoteOnEvent(tick=0, channel=8, data=[60, 98]),
   midi.NoteOffEvent(tick=480, channel=8, data=[72, 0]),
   midi.NoteOffEvent(tick=0, channel=8, data=[60, 0]),
   midi.NoteOnEvent(tick=0, channel=8, data=[72, 112]),
   midi.NoteOnEvent(tick=0, channel=8, data=[60, 98]),
   midi.NoteOffEvent(tick=480, channel=8, data=[72, 0]),
   midi.NoteOffEvent(tick=0, channel=8, data=[60, 0]),
   midi.NoteOnEvent(tick=0, channel=8, data=[72, 112]),
   midi.NoteOnEvent(tick=0, channel=8, data=[60, 98]),
   midi.NoteOffEvent(tick=480, channel=8, data=[72, 0]),
   midi.NoteOffEvent(tick=0, channel=8, data=[60, 0]),
   midi.NoteOnEvent(tick=0, channel=8, data=[72, 118]),
   midi.NoteOnEvent(tick=0, channel=8, data=[60, 104]),
   midi.NoteOffEvent(tick=480, channel=8, data=[72, 0]),
   midi.NoteOffEvent(tick=0, channel=8, data=[60, 0]),
   midi.NoteOnEvent(tick=0, channel=8, data=[72, 109]),
   midi.NoteOnEvent(tick=0, channel=8, data=[60, 98]),
   midi.NoteOffEvent(tick=480, channel=8, data=[72, 0]),
   midi.NoteOffEvent(tick=0, channel=8, data=[60, 0]),
   midi.NoteOnEvent(tick=0, channel=8, data=[72, 108]),
   midi.NoteOnEvent(tick=0, channel=8, data=[60, 98]),
   midi.NoteOffEvent(tick=480, channel=8, data=[72, 0]),
   midi.NoteOffEvent(tick=0, channel=8, data=[60, 0]),
   midi.NoteOnEvent(tick=0, channel=8, data=[72, 106]),
   midi.NoteOnEvent(tick=0, channel=8, data=[60, 98]),
   midi.NoteOffEvent(tick=480, channel=8, data=[72, 0]),
   midi.NoteOffEvent(tick=0, channel=8, data=[60, 0]),
   midi.NoteOnEvent(tick=0, channel=8, data=[72, 110]),
   midi.NoteOnEvent(tick=0, channel=8, data=[60, 104]),
   midi.NoteOffEvent(tick=480, channel=8, data=[72, 0]),
   midi.NoteOffEvent(tick=0, channel=8, data=[60, 0]),
   midi.NoteOnEvent(tick=0, channel=8, data=[72, 102]),
   midi.NoteOnEvent(tick=0, channel=8, data=[60, 98]),
   midi.NoteOffEvent(tick=480, channel=8, data=[72, 0]),
   midi.NoteOffEvent(tick=0, channel=8, data=[60, 0]),
   midi.NoteOnEvent(tick=0, channel=8, data=[72, 101]),
   midi.NoteOnEvent(tick=0, channel=8, data=[60, 98]),
   midi.NoteOffEvent(tick=480, channel=8, data=[72, 0]),
   midi.NoteOffEvent(tick=0, channel=8, data=[60, 0]),
   midi.NoteOnEvent(tick=0, channel=8, data=[72, 100]),
   midi.NoteOnEvent(tick=0, channel=8, data=[60, 98]),
   midi.NoteOffEvent(tick=480, channel=8, data=[72, 0]),
   midi.NoteOffEvent(tick=0, channel=8, data=[60, 0]),
   midi.NoteOnEvent(tick=0, channel=8, data=[72, 105]),
   midi.NoteOnEvent(tick=0, channel=8, data=[60, 104]),
   midi.NoteOffEvent(tick=480, channel=8, data=[72, 0]),
   midi.NoteOffEvent(tick=0, channel=8, data=[60, 0]),
   midi.NoteOnEvent(tick=0, channel=8, data=[72, 99]),
   midi.NoteOnEvent(tick=0, channel=8, data=[60, 98]),
   midi.NoteOffEvent(tick=480, channel=8, data=[72, 0]),
   midi.NoteOffEvent(tick=0, channel=8, data=[60, 0]),
   midi.NoteOnEvent(tick=0, channel=8, data=[72, 98]),
   midi.NoteOnEvent(tick=0, channel=8, data=[60, 98]),
   midi.NoteOffEvent(tick=480, channel=8, data=[72, 0]),
   midi.NoteOffEvent(tick=0, channel=8, data=[60, 0]),
   midi.NoteOnEvent(tick=0, channel=8, data=[72, 98]),
   midi.NoteOnEvent(tick=0, channel=8, data=[60, 98]),
   midi.NoteOffEvent(tick=480, channel=8, data=[72, 0]),
   midi.NoteOffEvent(tick=0, channel=8, data=[60, 0]),
   midi.NoteOnEvent(tick=0, channel=8, data=[71, 99]),
   midi.NoteOnEvent(tick=0, channel=8, data=[62, 114]),
   midi.NoteOffEvent(tick=480, channel=8, data=[71, 0]),
   midi.NoteOffEvent(tick=0, channel=8, data=[62, 0]),
   midi.NoteOnEvent(tick=0, channel=8, data=[77, 112]),
   midi.NoteOffEvent(tick=480, channel=8, data=[77, 0]),
   midi.NoteOnEvent(tick=0, channel=8, data=[74, 104]),
   midi.NoteOffEvent(tick=480, channel=8, data=[74, 0]),
   midi.NoteOnEvent(tick=0, channel=8, data=[74, 103]),
   midi.NoteOffEvent(tick=480, channel=8, data=[74, 0]),
   midi.NoteOnEvent(tick=0, channel=8, data=[71, 93]),
   midi.NoteOffEvent(tick=480, channel=8, data=[71, 0]),
   midi.NoteOnEvent(tick=0, channel=8, data=[67, 83]),
   midi.NoteOffEvent(tick=480, channel=8, data=[67, 0]),
   midi.NoteOnEvent(tick=0, channel=8, data=[65, 83]),
   midi.NoteOffEvent(tick=480, channel=8, data=[65, 0]),
   midi.NoteOnEvent(tick=0, channel=8, data=[65, 83]),
   midi.NoteOffEvent(tick=480, channel=8, data=[65, 0]),
   midi.NoteOnEvent(tick=0, channel=8, data=[62, 88]),
   midi.NoteOffEvent(tick=480, channel=8, data=[62, 0]),
   midi.NoteOnEvent(tick=0, channel=8, data=[59, 83]),
   midi.NoteOffEvent(tick=480, channel=8, data=[59, 0]),
   midi.NoteOnEvent(tick=0, channel=8, data=[55, 83]),
   midi.NoteOffEvent(tick=480, channel=8, data=[55, 0]),
   midi.NoteOnEvent(tick=0, channel=8, data=[65, 100]),
   midi.NoteOffEvent(tick=480, channel=8, data=[65, 0]),
   midi.NoteOnEvent(tick=0, channel=8, data=[62, 93]),
   midi.NoteOffEvent(tick=480, channel=8, data=[62, 0]),
   midi.NoteOnEvent(tick=0, channel=8, data=[59, 83]),
   midi.NoteOffEvent(tick=480, channel=8, data=[59, 0]),
   midi.NoteOnEvent(tick=0, channel=8, data=[60, 87]),
   midi.NoteOffEvent(tick=480, channel=8, data=[60, 0]),
   midi.NoteOnEvent(tick=0, channel=8, data=[60, 89]),
   midi.NoteOffEvent(tick=480, channel=8, data=[60, 0]),
   midi.NoteOnEvent(tick=0, channel=8, data=[72, 127]),
   midi.NoteOffEvent(tick=480, channel=8, data=[72, 0]),
   midi.NoteOnEvent(tick=0, channel=8, data=[75, 127]),
   midi.NoteOffEvent(tick=480, channel=8, data=[75, 0]),
   midi.NoteOnEvent(tick=0, channel=8, data=[75, 127]),
   midi.NoteOffEvent(tick=480, channel=8, data=[75, 0]),
   midi.NoteOnEvent(tick=0, channel=8, data=[75, 127]),
   midi.NoteOffEvent(tick=480, channel=8, data=[75, 0]),
   midi.NoteOnEvent(tick=0, channel=8, data=[72, 127]),
   midi.NoteOffEvent(tick=480, channel=8, data=[72, 0]),
   midi.NoteOnEvent(tick=0, channel=8, data=[69, 113]),
   midi.NoteOffEvent(tick=480, channel=8, data=[69, 0]),
   midi.NoteOnEvent(tick=0, channel=8, data=[69, 112]),
   midi.NoteOffEvent(tick=480, channel=8, data=[69, 0]),
   midi.NoteOnEvent(tick=0, channel=8, data=[69, 111]),
   midi.NoteOffEvent(tick=480, channel=8, data=[69, 0]),
   midi.NoteOnEvent(tick=0, channel=8, data=[66, 103]),
   midi.NoteOffEvent(tick=480, channel=8, data=[66, 0]),
   midi.NoteOnEvent(tick=0, channel=8, data=[63, 96]),
   midi.NoteOffEvent(tick=480, channel=8, data=[63, 0]),
   midi.NoteOnEvent(tick=0, channel=8, data=[63, 96]),
   midi.NoteOffEvent(tick=480, channel=8, data=[63, 0]),
   midi.NoteOnEvent(tick=0, channel=8, data=[63, 96]),
   midi.NoteOffEvent(tick=480, channel=8, data=[63, 0]),
   midi.NoteOnEvent(tick=0, channel=8, data=[60, 102]),
   midi.NoteOffEvent(tick=480, channel=8, data=[60, 0]),
   midi.NoteOnEvent(tick=0, channel=8, data=[69, 127]),
   midi.NoteOnEvent(tick=0, channel=8, data=[57, 113]),
   midi.NoteOffEvent(tick=480, channel=8, data=[69, 0]),
   midi.NoteOffEvent(tick=0, channel=8, data=[57, 0]),
   midi.NoteOnEvent(tick=0, channel=8, data=[69, 127]),
   midi.NoteOnEvent(tick=0, channel=8, data=[57, 113]),
   midi.NoteOffEvent(tick=480, channel=8, data=[69, 0]),
   midi.NoteOffEvent(tick=0, channel=8, data=[57, 0]),
   midi.NoteOnEvent(tick=0, channel=8, data=[69, 126]),
   midi.NoteOnEvent(tick=0, channel=8, data=[57, 113]),
   midi.NoteOffEvent(tick=480, channel=8, data=[69, 0]),
   midi.NoteOffEvent(tick=0, channel=8, data=[57, 0]),
   midi.NoteOnEvent(tick=0, channel=8, data=[69, 127]),
   midi.NoteOnEvent(tick=0, channel=8, data=[57, 120]),
   midi.NoteOffEvent(tick=960, channel=8, data=[69, 0]),
   midi.NoteOffEvent(tick=0, channel=8, data=[57, 0]),
   midi.NoteOnEvent(tick=2880, channel=8, data=[65, 123]),
   midi.NoteOnEvent(tick=0, channel=8, data=[70, 123]),
   midi.NoteOnEvent(tick=0, channel=8, data=[58, 121]),
   midi.NoteOffEvent(tick=960, channel=8, data=[65, 0]),
   midi.NoteOffEvent(tick=0, channel=8, data=[70, 0]),
   midi.NoteOffEvent(tick=0, channel=8, data=[58, 0]),
   midi.NoteOnEvent(tick=8640, channel=8, data=[67, 65]),
   midi.NoteOnEvent(tick=1920, channel=8, data=[68, 65]),
   midi.NoteOffEvent(tick=38, channel=8, data=[67, 0]),
   midi.NoteOffEvent(tick=1785, channel=8, data=[68, 0]),
   midi.NoteOnEvent(tick=97, channel=8, data=[68, 65]),
   midi.NoteOnEvent(tick=1920, channel=8, data=[67, 64]),
   midi.NoteOffEvent(tick=38, channel=8, data=[68, 0]),
   midi.NoteOffEvent(tick=1785, channel=8, data=[67, 0]),
   midi.NoteOnEvent(tick=97, channel=8, data=[67, 64]),
   midi.NoteOnEvent(tick=1920, channel=8, data=[68, 65]),
   midi.NoteOffEvent(tick=38, channel=8, data=[67, 0]),
   midi.NoteOffEvent(tick=1785, channel=8, data=[68, 0]),
   midi.NoteOnEvent(tick=97, channel=8, data=[68, 65]),
   midi.NoteOnEvent(tick=1920, channel=8, data=[67, 64]),
   midi.NoteOffEvent(tick=38, channel=8, data=[68, 0]),
   midi.NoteOffEvent(tick=1785, channel=8, data=[67, 0]),
   midi.NoteOnEvent(tick=97, channel=8, data=[67, 64]),
   midi.NoteOnEvent(tick=1920, channel=8, data=[68, 65]),
   midi.NoteOffEvent(tick=38, channel=8, data=[67, 0]),
   midi.NoteOffEvent(tick=1785, channel=8, data=[68, 0]),
   midi.NoteOnEvent(tick=97, channel=8, data=[68, 65]),
   midi.NoteOnEvent(tick=1920, channel=8, data=[67, 64]),
   midi.NoteOffEvent(tick=38, channel=8, data=[68, 0]),
   midi.NoteOffEvent(tick=1785, channel=8, data=[67, 0]),
   midi.NoteOnEvent(tick=97, channel=8, data=[67, 64]),
   midi.NoteOffEvent(tick=3840, channel=8, data=[67, 0]),
   midi.NoteOnEvent(tick=0, channel=8, data=[67, 65]),
   midi.NoteOnEvent(tick=1920, channel=8, data=[65, 64]),
   midi.NoteOffEvent(tick=38, channel=8, data=[67, 0]),
   midi.NoteOffEvent(tick=1785, channel=8, data=[65, 0]),
   midi.NoteOnEvent(tick=97, channel=8, data=[68, 66]),
   midi.NoteOnEvent(tick=1920, channel=8, data=[70, 66]),
   midi.NoteOffEvent(tick=38, channel=8, data=[68, 0]),
   midi.NoteOffEvent(tick=1785, channel=8, data=[70, 0]),
   midi.NoteOnEvent(tick=97, channel=8, data=[70, 65]),
   midi.NoteOnEvent(tick=1920, channel=8, data=[68, 64]),
   midi.NoteOffEvent(tick=38, channel=8, data=[70, 0]),
   midi.NoteOffEvent(tick=1785, channel=8, data=[68, 0]),
   midi.NoteOnEvent(tick=97, channel=8, data=[63, 61]),
   midi.NoteOnEvent(tick=960, channel=8, data=[65, 60]),
   midi.NoteOffEvent(tick=19, channel=8, data=[63, 0]),
   midi.NoteOffEvent(tick=892, channel=8, data=[65, 0]),
   midi.NoteOnEvent(tick=49, channel=8, data=[66, 65]),
   midi.NoteOffEvent(tick=960, channel=8, data=[66, 0]),
   midi.NoteOnEvent(tick=0, channel=8, data=[65, 66]),
   midi.NoteOffEvent(tick=960, channel=8, data=[65, 0]),
   midi.NoteOnEvent(tick=0, channel=8, data=[63, 72]),
   midi.NoteOffEvent(tick=960, channel=8, data=[63, 0]),
   midi.NoteOnEvent(tick=0, channel=8, data=[65, 72]),
   midi.NoteOffEvent(tick=960, channel=8, data=[65, 0]),
   midi.NoteOnEvent(tick=0, channel=8, data=[66, 78]),
   midi.NoteOnEvent(tick=960, channel=8, data=[65, 71]),
   midi.NoteOffEvent(tick=19, channel=8, data=[66, 0]),
   midi.NoteOffEvent(tick=892, channel=8, data=[65, 0]),
   midi.NoteOnEvent(tick=49, channel=8, data=[63, 72]),
   midi.NoteOffEvent(tick=960, channel=8, data=[63, 0]),
   midi.NoteOnEvent(tick=0, channel=8, data=[65, 72]),
   midi.NoteOffEvent(tick=960, channel=8, data=[65, 0]),
   midi.NoteOnEvent(tick=0, channel=8, data=[66, 92]),
   midi.NoteOnEvent(tick=960, channel=8, data=[65, 84]),
   midi.NoteOffEvent(tick=19, channel=8, data=[66, 0]),
   midi.NoteOffEvent(tick=892, channel=8, data=[65, 0]),
   midi.NoteOnEvent(tick=49, channel=8, data=[63, 85]),
   midi.NoteOffEvent(tick=960, channel=8, data=[63, 0]),
   midi.NoteOnEvent(tick=0, channel=8, data=[65, 85]),
   midi.NoteOffEvent(tick=960, channel=8, data=[65, 0]),
   midi.NoteOnEvent(tick=0, channel=8, data=[66, 92]),
   midi.NoteOnEvent(tick=960, channel=8, data=[65, 84]),
   midi.NoteOffEvent(tick=19, channel=8, data=[66, 0]),
   midi.NoteOffEvent(tick=892, channel=8, data=[65, 0]),
   midi.NoteOnEvent(tick=49, channel=8, data=[63, 85]),
   midi.NoteOffEvent(tick=960, channel=8, data=[63, 0]),
   midi.NoteOnEvent(tick=0, channel=8, data=[65, 85]),
   midi.NoteOffEvent(tick=960, channel=8, data=[65, 0]),
   midi.NoteOnEvent(tick=0, channel=8, data=[66, 92]),
   midi.NoteOnEvent(tick=960, channel=8, data=[65, 84]),
   midi.NoteOffEvent(tick=19, channel=8, data=[66, 0]),
   midi.NoteOffEvent(tick=892, channel=8, data=[65, 0]),
   midi.NoteOnEvent(tick=49, channel=8, data=[66, 91]),
   midi.NoteOnEvent(tick=960, channel=8, data=[69, 91]),
   midi.NoteOffEvent(tick=19, channel=8, data=[66, 0]),
   midi.NoteOffEvent(tick=892, channel=8, data=[69, 0]),
   midi.NoteOnEvent(tick=49, channel=8, data=[82, 127]),
   midi.NoteOnEvent(tick=0, channel=8, data=[70, 120]),
   midi.NoteOffEvent(tick=2400, channel=8, data=[82, 0]),
   midi.NoteOffEvent(tick=0, channel=8, data=[70, 0]),
   midi.NoteOnEvent(tick=0, channel=8, data=[84, 125]),
   midi.NoteOffEvent(tick=480, channel=8, data=[84, 0]),
   midi.NoteOnEvent(tick=0, channel=8, data=[82, 120]),
   midi.NoteOffEvent(tick=480, channel=8, data=[82, 0]),
   midi.NoteOnEvent(tick=0, channel=8, data=[80, 113]),
   midi.NoteOffEvent(tick=480, channel=8, data=[80, 0]),
   midi.NoteOnEvent(tick=0, channel=8, data=[80, 119]),
   midi.NoteOnEvent(tick=480, channel=8, data=[79, 108]),
   midi.NoteOffEvent(tick=8, channel=8, data=[80, 0]),
   midi.NoteOffEvent(tick=446, channel=8, data=[79, 0]),
   midi.NoteOnEvent(tick=26, channel=8, data=[77, 101]),
   midi.NoteOffEvent(tick=240, channel=8, data=[77, 0]),
   midi.NoteOnEvent(tick=240, channel=8, data=[75, 98]),
   midi.NoteOffEvent(tick=240, channel=8, data=[75, 0]),
   midi.NoteOnEvent(tick=240, channel=8, data=[75, 105]),
   midi.NoteOnEvent(tick=480, channel=8, data=[74, 99]),
   midi.NoteOffEvent(tick=8, channel=8, data=[75, 0]),
   midi.NoteOffEvent(tick=446, channel=8, data=[74, 0]),
   midi.NoteOnEvent(tick=26, channel=8, data=[72, 96]),
   midi.NoteOffEvent(tick=240, channel=8, data=[72, 0]),
   midi.NoteOnEvent(tick=240, channel=8, data=[74, 102]),
   midi.NoteOffEvent(tick=240, channel=8, data=[74, 0]),
   midi.NoteOnEvent(tick=240, channel=8, data=[77, 121]),
   midi.NoteOnEvent(tick=480, channel=8, data=[75, 107]),
   midi.NoteOffEvent(tick=8, channel=8, data=[77, 0]),
   midi.NoteOffEvent(tick=446, channel=8, data=[75, 0]),
   midi.NoteOnEvent(tick=26, channel=8, data=[70, 96]),
   midi.NoteOffEvent(tick=240, channel=8, data=[70, 0]),
   midi.NoteOnEvent(tick=240, channel=8, data=[67, 96]),
   midi.NoteOffEvent(tick=240, channel=8, data=[67, 0]),
   midi.NoteOnEvent(tick=240, channel=8, data=[74, 117]),
   midi.NoteOnEvent(tick=480, channel=8, data=[72, 104]),
   midi.NoteOffEvent(tick=8, channel=8, data=[74, 0]),
   midi.NoteOffEvent(tick=446, channel=8, data=[72, 0]),
   midi.NoteOnEvent(tick=26, channel=8, data=[68, 96]),
   midi.NoteOffEvent(tick=240, channel=8, data=[68, 0]),
   midi.NoteOnEvent(tick=240, channel=8, data=[65, 96]),
   midi.NoteOffEvent(tick=240, channel=8, data=[65, 0]),
   midi.NoteOnEvent(tick=240, channel=8, data=[72, 118]),
   midi.NoteOnEvent(tick=480, channel=8, data=[70, 105]),
   midi.NoteOffEvent(tick=8, channel=8, data=[72, 0]),
   midi.NoteOffEvent(tick=446, channel=8, data=[70, 0]),
   midi.NoteOnEvent(tick=26, channel=8, data=[67, 98]),
   midi.NoteOffEvent(tick=240, channel=8, data=[67, 0]),
   midi.NoteOnEvent(tick=240, channel=8, data=[63, 96]),
   midi.NoteOffEvent(tick=240, channel=8, data=[63, 0]),
   midi.NoteOnEvent(tick=240, channel=8, data=[58, 102]),
   midi.NoteOffEvent(tick=480, channel=8, data=[58, 0]),
   midi.NoteOnEvent(tick=0, channel=8, data=[69, 119]),
   midi.NoteOnEvent(tick=480, channel=8, data=[70, 123]),
   midi.NoteOffEvent(tick=8, channel=8, data=[69, 0]),
   midi.NoteOffEvent(tick=446, channel=8, data=[70, 0]),
   midi.NoteOnEvent(tick=26, channel=8, data=[69, 118]),
   midi.NoteOffEvent(tick=480, channel=8, data=[69, 0]),
   midi.NoteOnEvent(tick=0, channel=8, data=[70, 127]),
   midi.NoteOffEvent(tick=480, channel=8, data=[70, 0]),
   midi.NoteOnEvent(tick=0, channel=8, data=[69, 117]),
   midi.NoteOffEvent(tick=480, channel=8, data=[69, 0]),
   midi.NoteOnEvent(tick=0, channel=8, data=[70, 121]),
   midi.NoteOffEvent(tick=480, channel=8, data=[70, 0]),
   midi.NoteOnEvent(tick=0, channel=8, data=[69, 115]),
   midi.NoteOffEvent(tick=480, channel=8, data=[69, 0]),
   midi.NoteOnEvent(tick=0, channel=8, data=[70, 127]),
   midi.NoteOffEvent(tick=240, channel=8, data=[70, 0]),
   midi.NoteOnEvent(tick=240, channel=8, data=[84, 127]),
   midi.NoteOffEvent(tick=240, channel=8, data=[84, 0]),
   midi.NoteOnEvent(tick=240, channel=8, data=[82, 127]),
   midi.NoteOffEvent(tick=240, channel=8, data=[82, 0]),
   midi.NoteOnEvent(tick=240, channel=8, data=[80, 127]),
   midi.NoteOffEvent(tick=240, channel=8, data=[80, 0]),
   midi.NoteOnEvent(tick=240, channel=8, data=[80, 127]),
   midi.NoteOnEvent(tick=480, channel=8, data=[79, 127]),
   midi.NoteOffEvent(tick=8, channel=8, data=[80, 0]),
   midi.NoteOffEvent(tick=446, channel=8, data=[79, 0]),
   midi.NoteOnEvent(tick=26, channel=8, data=[77, 119]),
   midi.NoteOffEvent(tick=240, channel=8, data=[77, 0]),
   midi.NoteOnEvent(tick=240, channel=8, data=[75, 110]),
   midi.NoteOffEvent(tick=240, channel=8, data=[75, 0]),
   midi.NoteOnEvent(tick=240, channel=8, data=[75, 116]),
   midi.NoteOnEvent(tick=480, channel=8, data=[74, 106]),
   midi.NoteOffEvent(tick=8, channel=8, data=[75, 0]),
   midi.NoteOffEvent(tick=446, channel=8, data=[74, 0]),
   midi.NoteOnEvent(tick=26, channel=8, data=[72, 100]),
   midi.NoteOffEvent(tick=240, channel=8, data=[72, 0]),
   midi.NoteOnEvent(tick=240, channel=8, data=[74, 108]),
   midi.NoteOffEvent(tick=240, channel=8, data=[74, 0]),
   midi.NoteOnEvent(tick=240, channel=8, data=[77, 125]),
   midi.NoteOnEvent(tick=480, channel=8, data=[75, 110]),
   midi.NoteOffEvent(tick=8, channel=8, data=[77, 0]),
   midi.NoteOffEvent(tick=446, channel=8, data=[75, 0]),
   midi.NoteOnEvent(tick=26, channel=8, data=[70, 96]),
   midi.NoteOffEvent(tick=240, channel=8, data=[70, 0]),
   midi.NoteOnEvent(tick=240, channel=8, data=[67, 96]),
   midi.NoteOffEvent(tick=240, channel=8, data=[67, 0]),
   midi.NoteOnEvent(tick=240, channel=8, data=[74, 118]),
   midi.NoteOnEvent(tick=480, channel=8, data=[72, 105]),
   midi.NoteOffEvent(tick=8, channel=8, data=[74, 0]),
   midi.NoteOffEvent(tick=446, channel=8, data=[72, 0]),
   midi.NoteOnEvent(tick=26, channel=8, data=[68, 96]),
   midi.NoteOffEvent(tick=240, channel=8, data=[68, 0]),
   midi.NoteOnEvent(tick=240, channel=8, data=[65, 96]),
   midi.NoteOffEvent(tick=240, channel=8, data=[65, 0]),
   midi.NoteOnEvent(tick=240, channel=8, data=[72, 118]),
   midi.NoteOnEvent(tick=480, channel=8, data=[70, 105]),
   midi.NoteOffEvent(tick=8, channel=8, data=[72, 0]),
   midi.NoteOffEvent(tick=446, channel=8, data=[70, 0]),
   midi.NoteOnEvent(tick=26, channel=8, data=[67, 98]),
   midi.NoteOffEvent(tick=240, channel=8, data=[67, 0]),
   midi.NoteOnEvent(tick=240, channel=8, data=[63, 96]),
   midi.NoteOffEvent(tick=240, channel=8, data=[63, 0]),
   midi.NoteOnEvent(tick=240, channel=8, data=[58, 102]),
   midi.NoteOffEvent(tick=480, channel=8, data=[58, 0]),
   midi.NoteOnEvent(tick=0, channel=8, data=[70, 123]),
   midi.NoteOffEvent(tick=480, channel=8, data=[70, 0]),
   midi.NoteOnEvent(tick=0, channel=8, data=[82, 127]),
   midi.NoteOffEvent(tick=480, channel=8, data=[82, 0]),
   midi.NoteOnEvent(tick=0, channel=8, data=[82, 127]),
   midi.NoteOffEvent(tick=480, channel=8, data=[82, 0]),
   midi.NoteOnEvent(tick=0, channel=8, data=[63, 102]),
   midi.NoteOffEvent(tick=6240, channel=8, data=[63, 0]),
   midi.NoteOnEvent(tick=0, channel=8, data=[62, 112]),
   midi.NoteOffEvent(tick=480, channel=8, data=[62, 0]),
   midi.NoteOnEvent(tick=0, channel=8, data=[62, 112]),
   midi.NoteOffEvent(tick=480, channel=8, data=[62, 0]),
   midi.NoteOnEvent(tick=0, channel=8, data=[62, 113]),
   midi.NoteOffEvent(tick=480, channel=8, data=[62, 0]),
   midi.NoteOnEvent(tick=0, channel=8, data=[63, 122]),
   midi.NoteOffEvent(tick=6240, channel=8, data=[63, 0]),
   midi.NoteOnEvent(tick=0, channel=8, data=[74, 115]),
   midi.NoteOnEvent(tick=0, channel=8, data=[65, 113]),
   midi.NoteOffEvent(tick=480, channel=8, data=[74, 0]),
   midi.NoteOffEvent(tick=0, channel=8, data=[65, 0]),
   midi.NoteOnEvent(tick=0, channel=8, data=[74, 114]),
   midi.NoteOnEvent(tick=0, channel=8, data=[65, 113]),
   midi.NoteOffEvent(tick=480, channel=8, data=[74, 0]),
   midi.NoteOffEvent(tick=0, channel=8, data=[65, 0]),
   midi.NoteOnEvent(tick=0, channel=8, data=[74, 114]),
   midi.NoteOnEvent(tick=0, channel=8, data=[65, 113]),
   midi.NoteOffEvent(tick=480, channel=8, data=[74, 0]),
   midi.NoteOffEvent(tick=0, channel=8, data=[65, 0]),
   midi.NoteOnEvent(tick=0, channel=8, data=[75, 123]),
   midi.NoteOnEvent(tick=0, channel=8, data=[67, 125]),
   midi.NoteOffEvent(tick=960, channel=8, data=[75, 0]),
   midi.NoteOffEvent(tick=0, channel=8, data=[67, 0]),
   midi.NoteOnEvent(tick=1440, channel=8, data=[74, 112]),
   midi.NoteOnEvent(tick=0, channel=8, data=[65, 112]),
   midi.NoteOffEvent(tick=480, channel=8, data=[74, 0]),
   midi.NoteOffEvent(tick=0, channel=8, data=[65, 0]),
   midi.NoteOnEvent(tick=0, channel=8, data=[74, 113]),
   midi.NoteOnEvent(tick=0, channel=8, data=[65, 112]),
   midi.NoteOffEvent(tick=480, channel=8, data=[74, 0]),
   midi.NoteOffEvent(tick=0, channel=8, data=[65, 0]),
   midi.NoteOnEvent(tick=0, channel=8, data=[74, 113]),
   midi.NoteOnEvent(tick=0, channel=8, data=[65, 112]),
   midi.NoteOffEvent(tick=480, channel=8, data=[74, 0]),
   midi.NoteOffEvent(tick=0, channel=8, data=[65, 0]),
   midi.NoteOnEvent(tick=0, channel=8, data=[75, 123]),
   midi.NoteOnEvent(tick=0, channel=8, data=[67, 126]),
   midi.NoteOffEvent(tick=960, channel=8, data=[75, 0]),
   midi.NoteOffEvent(tick=0, channel=8, data=[67, 0]),
   midi.NoteOnEvent(tick=1440, channel=8, data=[77, 118]),
   midi.NoteOnEvent(tick=0, channel=8, data=[70, 121]),
   midi.NoteOffEvent(tick=480, channel=8, data=[77, 0]),
   midi.NoteOffEvent(tick=0, channel=8, data=[70, 0]),
   midi.NoteOnEvent(tick=0, channel=8, data=[77, 117]),
   midi.NoteOnEvent(tick=0, channel=8, data=[70, 119]),
   midi.NoteOffEvent(tick=480, channel=8, data=[77, 0]),
   midi.NoteOffEvent(tick=0, channel=8, data=[70, 0]),
   midi.NoteOnEvent(tick=0, channel=8, data=[77, 116]),
   midi.NoteOnEvent(tick=0, channel=8, data=[70, 118]),
   midi.NoteOffEvent(tick=480, channel=8, data=[77, 0]),
   midi.NoteOffEvent(tick=0, channel=8, data=[70, 0]),
   midi.NoteOnEvent(tick=0, channel=8, data=[79, 127]),
   midi.NoteOnEvent(tick=0, channel=8, data=[70, 124]),
   midi.NoteOnEvent(tick=0, channel=8, data=[63, 120]),
   midi.NoteOffEvent(tick=960, channel=8, data=[79, 0]),
   midi.NoteOffEvent(tick=0, channel=8, data=[70, 0]),
   midi.NoteOffEvent(tick=0, channel=8, data=[63, 0]),
   midi.NoteOnEvent(tick=7200, channel=8, data=[61, 113]),
   midi.NoteOffEvent(tick=480, channel=8, data=[61, 0]),
   midi.NoteOnEvent(tick=0, channel=8, data=[61, 113]),
   midi.NoteOffEvent(tick=480, channel=8, data=[61, 0]),
   midi.NoteOnEvent(tick=0, channel=8, data=[61, 113]),
   midi.NoteOffEvent(tick=480, channel=8, data=[61, 0]),
   midi.NoteOnEvent(tick=0, channel=8, data=[60, 117]),
   midi.NoteOffEvent(tick=3840, channel=8, data=[60, 0]),
   midi.NoteOnEvent(tick=480, channel=8, data=[72, 65]),
   midi.NoteOffEvent(tick=480, channel=8, data=[72, 0]),
   midi.NoteOnEvent(tick=0, channel=8, data=[72, 64]),
   midi.NoteOffEvent(tick=480, channel=8, data=[72, 0]),
   midi.NoteOnEvent(tick=0, channel=8, data=[72, 63]),
   midi.NoteOffEvent(tick=480, channel=8, data=[72, 0]),
   midi.NoteOnEvent(tick=0, channel=8, data=[68, 60]),
   midi.NoteOffEvent(tick=6240, channel=8, data=[68, 0]),
   midi.NoteOnEvent(tick=0, channel=8, data=[72, 61]),
   midi.NoteOffEvent(tick=480, channel=8, data=[72, 0]),
   midi.NoteOnEvent(tick=0, channel=8, data=[72, 61]),
   midi.NoteOffEvent(tick=480, channel=8, data=[72, 0]),
   midi.NoteOnEvent(tick=0, channel=8, data=[72, 61]),
   midi.NoteOffEvent(tick=480, channel=8, data=[72, 0]),
   midi.NoteOnEvent(tick=0, channel=8, data=[67, 58]),
   midi.NoteOffEvent(tick=7680, channel=8, data=[67, 0]),
   midi.NoteOnEvent(tick=0, channel=8, data=[68, 65]),
   midi.NoteOffEvent(tick=480, channel=8, data=[68, 0]),
   midi.NoteOnEvent(tick=0, channel=8, data=[68, 61]),
   midi.NoteOffEvent(tick=480, channel=8, data=[68, 0]),
   midi.NoteOnEvent(tick=0, channel=8, data=[68, 61]),
   midi.NoteOffEvent(tick=480, channel=8, data=[68, 0]),
   midi.NoteOnEvent(tick=0, channel=8, data=[70, 64]),
   midi.NoteOffEvent(tick=480, channel=8, data=[70, 0]),
   midi.NoteOnEvent(tick=0, channel=8, data=[72, 71]),
   midi.NoteOffEvent(tick=2400, channel=8, data=[72, 0]),
   midi.NoteOnEvent(tick=0, channel=8, data=[68, 59]),
   midi.NoteOffEvent(tick=480, channel=8, data=[68, 0]),
   midi.NoteOnEvent(tick=0, channel=8, data=[68, 60]),
   midi.NoteOffEvent(tick=480, channel=8, data=[68, 0]),
   midi.NoteOnEvent(tick=0, channel=8, data=[70, 63]),
   midi.NoteOffEvent(tick=480, channel=8, data=[70, 0]),
   midi.NoteOnEvent(tick=0, channel=8, data=[72, 70]),
   midi.NoteOffEvent(tick=2880, channel=8, data=[72, 0]),
   midi.NoteOnEvent(tick=7200, channel=8, data=[63, 61]),
   midi.NoteOffEvent(tick=480, channel=8, data=[63, 0]),
   midi.NoteOnEvent(tick=0, channel=8, data=[63, 61]),
   midi.NoteOffEvent(tick=480, channel=8, data=[63, 0]),
   midi.NoteOnEvent(tick=0, channel=8, data=[65, 63]),
   midi.NoteOffEvent(tick=480, channel=8, data=[65, 0]),
   midi.NoteOnEvent(tick=0, channel=8, data=[67, 69]),
   midi.NoteOffEvent(tick=2400, channel=8, data=[67, 0]),
   midi.NoteOnEvent(tick=0, channel=8, data=[63, 59]),
   midi.NoteOffEvent(tick=480, channel=8, data=[63, 0]),
   midi.NoteOnEvent(tick=0, channel=8, data=[63, 60]),
   midi.NoteOffEvent(tick=480, channel=8, data=[63, 0]),
   midi.NoteOnEvent(tick=0, channel=8, data=[65, 63]),
   midi.NoteOffEvent(tick=480, channel=8, data=[65, 0]),
   midi.NoteOnEvent(tick=0, channel=8, data=[67, 70]),
   midi.NoteOffEvent(tick=3840, channel=8, data=[67, 0]),
   midi.NoteOnEvent(tick=0, channel=8, data=[69, 67]),
   midi.NoteOffEvent(tick=960, channel=8, data=[69, 0]),
   midi.NoteOnEvent(tick=0, channel=8, data=[70, 63]),
   midi.NoteOffEvent(tick=960, channel=8, data=[70, 0]),
   midi.NoteOnEvent(tick=0, channel=8, data=[72, 68]),
   midi.NoteOffEvent(tick=960, channel=8, data=[72, 0]),
   midi.NoteOnEvent(tick=0, channel=8, data=[73, 64]),
   midi.NoteOffEvent(tick=960, channel=8, data=[73, 0]),
   midi.NoteOnEvent(tick=0, channel=8, data=[74, 68]),
   midi.NoteOffEvent(tick=2400, channel=8, data=[74, 0]),
   midi.NoteOnEvent(tick=0, channel=8, data=[67, 57]),
   midi.NoteOffEvent(tick=480, channel=8, data=[67, 0]),
   midi.NoteOnEvent(tick=0, channel=8, data=[67, 57]),
   midi.NoteOffEvent(tick=480, channel=8, data=[67, 0]),
   midi.NoteOnEvent(tick=0, channel=8, data=[69, 61]),
   midi.NoteOffEvent(tick=480, channel=8, data=[69, 0]),
   midi.NoteOnEvent(tick=0, channel=8, data=[66, 59]),
   midi.NoteOffEvent(tick=960, channel=8, data=[66, 0]),
   midi.NoteOnEvent(tick=1440, channel=8, data=[79, 69]),
   midi.NoteOffEvent(tick=480, channel=8, data=[79, 0]),
   midi.NoteOnEvent(tick=0, channel=8, data=[79, 68]),
   midi.NoteOffEvent(tick=480, channel=8, data=[79, 0]),
   midi.NoteOnEvent(tick=0, channel=8, data=[81, 69]),
   midi.NoteOffEvent(tick=480, channel=8, data=[81, 0]),
   midi.NoteOnEvent(tick=0, channel=8, data=[78, 68]),
   midi.NoteOffEvent(tick=960, channel=8, data=[78, 0]),
   midi.NoteOnEvent(tick=0, channel=8, data=[74, 55]),
   midi.NoteOffEvent(tick=1440, channel=8, data=[74, 0]),
   midi.NoteOnEvent(tick=0, channel=8, data=[67, 52]),
   midi.NoteOffEvent(tick=480, channel=8, data=[67, 0]),
   midi.NoteOnEvent(tick=0, channel=8, data=[67, 52]),
   midi.NoteOffEvent(tick=480, channel=8, data=[67, 0]),
   midi.NoteOnEvent(tick=0, channel=8, data=[69, 55]),
   midi.NoteOffEvent(tick=480, channel=8, data=[69, 0]),
   midi.NoteOnEvent(tick=0, channel=8, data=[70, 62]),
   midi.NoteOffEvent(tick=960, channel=8, data=[70, 0]),
   midi.NoteOnEvent(tick=1440, channel=8, data=[66, 57]),
   midi.NoteOffEvent(tick=480, channel=8, data=[66, 0]),
   midi.NoteOnEvent(tick=0, channel=8, data=[69, 62]),
   midi.NoteOffEvent(tick=480, channel=8, data=[69, 0]),
   midi.NoteOnEvent(tick=0, channel=8, data=[70, 64]),
   midi.NoteOffEvent(tick=480, channel=8, data=[70, 0]),
   midi.NoteOnEvent(tick=0, channel=8, data=[72, 71]),
   midi.NoteOffEvent(tick=960, channel=8, data=[72, 0]),
   midi.NoteOnEvent(tick=1440, channel=8, data=[66, 57]),
   midi.NoteOffEvent(tick=480, channel=8, data=[66, 0]),
   midi.NoteOnEvent(tick=0, channel=8, data=[69, 62]),
   midi.NoteOffEvent(tick=480, channel=8, data=[69, 0]),
   midi.NoteOnEvent(tick=0, channel=8, data=[70, 63]),
   midi.NoteOffEvent(tick=480, channel=8, data=[70, 0]),
   midi.NoteOnEvent(tick=0, channel=8, data=[72, 71]),
   midi.NoteOffEvent(tick=960, channel=8, data=[72, 0]),
   midi.NoteOnEvent(tick=1440, channel=8, data=[67, 58]),
   midi.NoteOffEvent(tick=480, channel=8, data=[67, 0]),
   midi.NoteOnEvent(tick=0, channel=8, data=[70, 63]),
   midi.NoteOffEvent(tick=480, channel=8, data=[70, 0]),
   midi.NoteOnEvent(tick=0, channel=8, data=[72, 66]),
   midi.NoteOffEvent(tick=480, channel=8, data=[72, 0]),
   midi.NoteOnEvent(tick=0, channel=8, data=[74, 72]),
   midi.NoteOffEvent(tick=960, channel=8, data=[74, 0]),
   midi.NoteOnEvent(tick=1440, channel=8, data=[67, 78]),
   midi.NoteOffEvent(tick=480, channel=8, data=[67, 0]),
   midi.NoteOnEvent(tick=0, channel=8, data=[70, 84]),
   midi.NoteOffEvent(tick=480, channel=8, data=[70, 0]),
   midi.NoteOnEvent(tick=0, channel=8, data=[72, 89]),
   midi.NoteOffEvent(tick=480, channel=8, data=[72, 0]),
   midi.NoteOnEvent(tick=0, channel=8, data=[74, 98]),
   midi.NoteOffEvent(tick=480, channel=8, data=[74, 0]),
   midi.NoteOnEvent(tick=0, channel=8, data=[70, 81]),
   midi.NoteOffEvent(tick=480, channel=8, data=[70, 0]),
   midi.NoteOnEvent(tick=0, channel=8, data=[72, 87]),
   midi.NoteOffEvent(tick=480, channel=8, data=[72, 0]),
   midi.NoteOnEvent(tick=0, channel=8, data=[74, 93]),
   midi.NoteOffEvent(tick=480, channel=8, data=[74, 0]),
   midi.NoteOnEvent(tick=0, channel=8, data=[69, 93]),
   midi.NoteOffEvent(tick=480, channel=8, data=[69, 0]),
   midi.NoteOnEvent(tick=0, channel=8, data=[78, 112]),
   midi.NoteOnEvent(tick=0, channel=8, data=[69, 98]),
   midi.NoteOffEvent(tick=480, channel=8, data=[78, 0]),
   midi.NoteOffEvent(tick=0, channel=8, data=[69, 0]),
   midi.NoteOnEvent(tick=0, channel=8, data=[78, 112]),
   midi.NoteOnEvent(tick=0, channel=8, data=[69, 98]),
   midi.NoteOffEvent(tick=480, channel=8, data=[78, 0]),
   midi.NoteOffEvent(tick=0, channel=8, data=[69, 0]),
   midi.NoteOnEvent(tick=0, channel=8, data=[78, 112]),
   midi.NoteOnEvent(tick=0, channel=8, data=[69, 98]),
   midi.NoteOffEvent(tick=480, channel=8, data=[78, 0]),
   midi.NoteOffEvent(tick=0, channel=8, data=[69, 0]),
   midi.NoteOnEvent(tick=0, channel=8, data=[78, 118]),
   midi.NoteOnEvent(tick=0, channel=8, data=[69, 104]),
   midi.NoteOffEvent(tick=480, channel=8, data=[78, 0]),
   midi.NoteOffEvent(tick=0, channel=8, data=[69, 0]),
   midi.NoteOnEvent(tick=0, channel=8, data=[78, 110]),
   midi.NoteOnEvent(tick=0, channel=8, data=[69, 98]),
   midi.NoteOffEvent(tick=480, channel=8, data=[78, 0]),
   midi.NoteOffEvent(tick=0, channel=8, data=[69, 0]),
   midi.NoteOnEvent(tick=0, channel=8, data=[78, 108]),
   midi.NoteOnEvent(tick=0, channel=8, data=[69, 98]),
   midi.NoteOffEvent(tick=480, channel=8, data=[78, 0]),
   midi.NoteOffEvent(tick=0, channel=8, data=[69, 0]),
   midi.NoteOnEvent(tick=0, channel=8, data=[78, 107]),
   midi.NoteOnEvent(tick=0, channel=8, data=[69, 98]),
   midi.NoteOffEvent(tick=480, channel=8, data=[78, 0]),
   midi.NoteOffEvent(tick=0, channel=8, data=[69, 0]),
   midi.NoteOnEvent(tick=0, channel=8, data=[78, 111]),
   midi.NoteOnEvent(tick=0, channel=8, data=[69, 104]),
   midi.NoteOffEvent(tick=960, channel=8, data=[78, 0]),
   midi.NoteOffEvent(tick=0, channel=8, data=[69, 0]),
   midi.NoteOnEvent(tick=1440, channel=8, data=[70, 85]),
   midi.NoteOnEvent(tick=0, channel=8, data=[67, 94]),
   midi.NoteOffEvent(tick=480, channel=8, data=[70, 0]),
   midi.NoteOffEvent(tick=0, channel=8, data=[67, 0]),
   midi.NoteOnEvent(tick=0, channel=8, data=[70, 86]),
   midi.NoteOnEvent(tick=0, channel=8, data=[67, 94]),
   midi.NoteOffEvent(tick=480, channel=8, data=[70, 0]),
   midi.NoteOffEvent(tick=0, channel=8, data=[67, 0]),
   midi.NoteOnEvent(tick=0, channel=8, data=[70, 88]),
   midi.NoteOnEvent(tick=0, channel=8, data=[67, 95]),
   midi.NoteOffEvent(tick=480, channel=8, data=[70, 0]),
   midi.NoteOffEvent(tick=0, channel=8, data=[67, 0]),
   midi.NoteOnEvent(tick=0, channel=8, data=[70, 95]),
   midi.NoteOnEvent(tick=0, channel=8, data=[67, 101]),
   midi.NoteOffEvent(tick=480, channel=8, data=[70, 0]),
   midi.NoteOffEvent(tick=0, channel=8, data=[67, 0]),
   midi.NoteOnEvent(tick=0, channel=8, data=[79, 112]),
   midi.NoteOnEvent(tick=0, channel=8, data=[70, 106]),
   midi.NoteOffEvent(tick=480, channel=8, data=[79, 0]),
   midi.NoteOffEvent(tick=0, channel=8, data=[70, 0]),
   midi.NoteOnEvent(tick=0, channel=8, data=[79, 112]),
   midi.NoteOnEvent(tick=0, channel=8, data=[70, 105]),
   midi.NoteOffEvent(tick=480, channel=8, data=[79, 0]),
   midi.NoteOffEvent(tick=0, channel=8, data=[70, 0]),
   midi.NoteOnEvent(tick=0, channel=8, data=[79, 112]),
   midi.NoteOnEvent(tick=0, channel=8, data=[70, 104]),
   midi.NoteOffEvent(tick=480, channel=8, data=[79, 0]),
   midi.NoteOffEvent(tick=0, channel=8, data=[70, 0]),
   midi.NoteOnEvent(tick=0, channel=8, data=[79, 117]),
   midi.NoteOnEvent(tick=0, channel=8, data=[70, 109]),
   midi.NoteOffEvent(tick=480, channel=8, data=[79, 0]),
   midi.NoteOffEvent(tick=0, channel=8, data=[70, 0]),
   midi.NoteOnEvent(tick=0, channel=8, data=[79, 109]),
   midi.NoteOnEvent(tick=0, channel=8, data=[70, 102]),
   midi.NoteOffEvent(tick=480, channel=8, data=[79, 0]),
   midi.NoteOffEvent(tick=0, channel=8, data=[70, 0]),
   midi.NoteOnEvent(tick=0, channel=8, data=[79, 108]),
   midi.NoteOnEvent(tick=0, channel=8, data=[70, 102]),
   midi.NoteOffEvent(tick=480, channel=8, data=[79, 0]),
   midi.NoteOffEvent(tick=0, channel=8, data=[70, 0]),
   midi.NoteOnEvent(tick=0, channel=8, data=[79, 107]),
   midi.NoteOnEvent(tick=0, channel=8, data=[70, 101]),
   midi.NoteOffEvent(tick=480, channel=8, data=[79, 0]),
   midi.NoteOffEvent(tick=0, channel=8, data=[70, 0]),
   midi.NoteOnEvent(tick=0, channel=8, data=[79, 111]),
   midi.NoteOnEvent(tick=0, channel=8, data=[70, 106]),
   midi.NoteOffEvent(tick=960, channel=8, data=[79, 0]),
   midi.NoteOffEvent(tick=0, channel=8, data=[70, 0]),
   midi.NoteOnEvent(tick=1440, channel=8, data=[79, 99]),
   midi.NoteOnEvent(tick=0, channel=8, data=[70, 98]),
   midi.NoteOffEvent(tick=480, channel=8, data=[79, 0]),
   midi.NoteOffEvent(tick=0, channel=8, data=[70, 0]),
   midi.NoteOnEvent(tick=0, channel=8, data=[79, 99]),
   midi.NoteOnEvent(tick=0, channel=8, data=[70, 98]),
   midi.NoteOffEvent(tick=480, channel=8, data=[79, 0]),
   midi.NoteOffEvent(tick=0, channel=8, data=[70, 0]),
   midi.NoteOnEvent(tick=0, channel=8, data=[79, 98]),
   midi.NoteOnEvent(tick=0, channel=8, data=[70, 98]),
   midi.NoteOffEvent(tick=480, channel=8, data=[79, 0]),
   midi.NoteOffEvent(tick=0, channel=8, data=[70, 0]),
   midi.NoteOnEvent(tick=0, channel=8, data=[79, 104]),
   midi.NoteOnEvent(tick=0, channel=8, data=[70, 104]),
   midi.NoteOffEvent(tick=960, channel=8, data=[79, 0]),
   midi.NoteOffEvent(tick=0, channel=8, data=[70, 0]),
   midi.NoteOnEvent(tick=1920, channel=8, data=[73, 90]),
   midi.NoteOffEvent(tick=480, channel=8, data=[73, 0]),
   midi.NoteOnEvent(tick=0, channel=8, data=[73, 92]),
   midi.NoteOffEvent(tick=480, channel=8, data=[73, 0]),
   midi.NoteOnEvent(tick=0, channel=8, data=[73, 98]),
   midi.NoteOffEvent(tick=960, channel=8, data=[73, 0]),
   midi.NoteOnEvent(tick=0, channel=8, data=[74, 97]),
   midi.NoteOffEvent(tick=480, channel=8, data=[74, 0]),
   midi.NoteOnEvent(tick=0, channel=8, data=[74, 98]),
   midi.NoteOffEvent(tick=480, channel=8, data=[74, 0]),
   midi.NoteOnEvent(tick=0, channel=8, data=[74, 104]),
   midi.NoteOffEvent(tick=480, channel=8, data=[74, 0]),
   midi.NoteOnEvent(tick=0, channel=8, data=[74, 114]),
   midi.NoteOffEvent(tick=480, channel=8, data=[74, 0]),
   midi.NoteOnEvent(tick=0, channel=8, data=[74, 114]),
   midi.NoteOffEvent(tick=480, channel=8, data=[74, 0]),
   midi.NoteOnEvent(tick=0, channel=8, data=[74, 114]),
   midi.NoteOffEvent(tick=480, channel=8, data=[74, 0]),
   midi.NoteOnEvent(tick=0, channel=8, data=[67, 88]),
   midi.NoteOffEvent(tick=1920, channel=8, data=[67, 0]),
   midi.NoteOnEvent(tick=0, channel=8, data=[69, 94]),
   midi.NoteOffEvent(tick=1920, channel=8, data=[69, 0]),
   midi.NoteOnEvent(tick=0, channel=8, data=[62, 57]),
   midi.NoteOffEvent(tick=6720, channel=8, data=[62, 0]),
   midi.NoteOnEvent(tick=0, channel=8, data=[66, 61]),
   midi.NoteOffEvent(tick=480, channel=8, data=[66, 0]),
   midi.NoteOnEvent(tick=0, channel=8, data=[66, 61]),
   midi.NoteOffEvent(tick=480, channel=8, data=[66, 0]),
   midi.NoteOnEvent(tick=0, channel=8, data=[69, 68]),
   midi.NoteOffEvent(tick=960, channel=8, data=[69, 0]),
   midi.NoteOnEvent(tick=0, channel=8, data=[74, 68]),
   midi.NoteOffEvent(tick=480, channel=8, data=[74, 0]),
   midi.NoteOnEvent(tick=0, channel=8, data=[74, 67]),
   midi.NoteOffEvent(tick=480, channel=8, data=[74, 0]),
   midi.NoteOnEvent(tick=0, channel=8, data=[71, 65]),
   midi.NoteOffEvent(tick=480, channel=8, data=[71, 0]),
   midi.NoteOnEvent(tick=0, channel=8, data=[67, 54]),
   midi.NoteOffEvent(tick=480, channel=8, data=[67, 0]),
   midi.NoteOnEvent(tick=0, channel=8, data=[67, 54]),
   midi.NoteOffEvent(tick=480, channel=8, data=[67, 0]),
   midi.NoteOnEvent(tick=0, channel=8, data=[67, 55]),
   midi.NoteOffEvent(tick=480, channel=8, data=[67, 0]),
   midi.NoteOnEvent(tick=0, channel=8, data=[60, 88]),
   midi.NoteOffEvent(tick=1920, channel=8, data=[60, 0]),
   midi.NoteOnEvent(tick=0, channel=8, data=[62, 92]),
   midi.NoteOffEvent(tick=1920, channel=8, data=[62, 0]),
   midi.NoteOnEvent(tick=0, channel=8, data=[55, 57]),
   midi.NoteOffEvent(tick=6720, channel=8, data=[55, 0]),
   midi.NoteOnEvent(tick=0, channel=8, data=[59, 61]),
   midi.NoteOffEvent(tick=480, channel=8, data=[59, 0]),
   midi.NoteOnEvent(tick=0, channel=8, data=[59, 61]),
   midi.NoteOffEvent(tick=480, channel=8, data=[59, 0]),
   midi.NoteOnEvent(tick=0, channel=8, data=[62, 68]),
   midi.NoteOffEvent(tick=960, channel=8, data=[62, 0]),
   midi.NoteOnEvent(tick=0, channel=8, data=[67, 68]),
   midi.NoteOffEvent(tick=480, channel=8, data=[67, 0]),
   midi.NoteOnEvent(tick=0, channel=8, data=[67, 67]),
   midi.NoteOffEvent(tick=480, channel=8, data=[67, 0]),
   midi.NoteOnEvent(tick=0, channel=8, data=[64, 65]),
   midi.NoteOffEvent(tick=960, channel=8, data=[64, 0]),
   midi.NoteOnEvent(tick=4800, channel=8, data=[58, 64]),
   midi.NoteOffEvent(tick=1920, channel=8, data=[58, 0]),
   midi.NoteOnEvent(tick=0, channel=8, data=[60, 65]),
   midi.NoteOffEvent(tick=1920, channel=8, data=[60, 0]),
   midi.NoteOnEvent(tick=3840, channel=8, data=[58, 64]),
   midi.NoteOffEvent(tick=1920, channel=8, data=[58, 0]),
   midi.NoteOnEvent(tick=0, channel=8, data=[60, 65]),
   midi.NoteOffEvent(tick=1920, channel=8, data=[60, 0]),
   midi.NoteOnEvent(tick=3840, channel=8, data=[61, 65]),
   midi.NoteOffEvent(tick=1920, channel=8, data=[61, 0]),
   midi.NoteOnEvent(tick=0, channel=8, data=[57, 63]),
   midi.NoteOffEvent(tick=1920, channel=8, data=[57, 0]),
   midi.NoteOnEvent(tick=3840, channel=8, data=[65, 65]),
   midi.NoteOffEvent(tick=1920, channel=8, data=[65, 0]),
   midi.NoteOnEvent(tick=1920, channel=8, data=[59, 74]),
   midi.NoteOffEvent(tick=1920, channel=8, data=[59, 0]),
   midi.NoteOnEvent(tick=1920, channel=8, data=[57, 75]),
   midi.NoteOffEvent(tick=1920, channel=8, data=[57, 0]),
   midi.NoteOnEvent(tick=1920, channel=8, data=[57, 65]),
   midi.NoteOffEvent(tick=1920, channel=8, data=[57, 0]),
   midi.NoteOnEvent(tick=1920, channel=8, data=[57, 65]),
   midi.NoteOffEvent(tick=1920, channel=8, data=[57, 0]),
   midi.NoteOnEvent(tick=1920, channel=8, data=[57, 65]),
   midi.NoteOffEvent(tick=1920, channel=8, data=[57, 0]),
   midi.NoteOnEvent(tick=1920, channel=8, data=[57, 42]),
   midi.NoteOffEvent(tick=1920, channel=8, data=[57, 0]),
   midi.NoteOnEvent(tick=1920, channel=8, data=[57, 42]),
   midi.NoteOffEvent(tick=1920, channel=8, data=[57, 0]),
   midi.NoteOnEvent(tick=1920, channel=8, data=[57, 42]),
   midi.NoteOffEvent(tick=1920, channel=8, data=[57, 0]),
   midi.NoteOnEvent(tick=1920, channel=8, data=[57, 120]),
   midi.NoteOffEvent(tick=480, channel=8, data=[57, 0]),
   midi.NoteOnEvent(tick=0, channel=8, data=[62, 119]),
   midi.NoteOffEvent(tick=480, channel=8, data=[62, 0]),
   midi.NoteOnEvent(tick=0, channel=8, data=[62, 118]),
   midi.NoteOffEvent(tick=480, channel=8, data=[62, 0]),
   midi.NoteOnEvent(tick=0, channel=8, data=[62, 117]),
   midi.NoteOffEvent(tick=480, channel=8, data=[62, 0]),
   midi.NoteOnEvent(tick=0, channel=8, data=[59, 114]),
   midi.NoteOffEvent(tick=1920, channel=8, data=[59, 0]),
   midi.NoteOnEvent(tick=0, channel=8, data=[60, 119]),
   midi.NoteOffEvent(tick=1920, channel=8, data=[60, 0]),
   midi.NoteOnEvent(tick=0, channel=8, data=[57, 114]),
   midi.NoteOffEvent(tick=3840, channel=8, data=[57, 0]),
   midi.NoteOnEvent(tick=1920, channel=8, data=[56, 42]),
   midi.NoteOffEvent(tick=1920, channel=8, data=[56, 0]),
   midi.NoteOnEvent(tick=1920, channel=8, data=[56, 42]),
   midi.NoteOffEvent(tick=1920, channel=8, data=[56, 0]),
   midi.NoteOnEvent(tick=1920, channel=8, data=[56, 42]),
   midi.NoteOffEvent(tick=1920, channel=8, data=[56, 0]),
   midi.NoteOnEvent(tick=1920, channel=8, data=[56, 104]),
   midi.NoteOffEvent(tick=960, channel=8, data=[56, 0]),
   midi.NoteOnEvent(tick=1440, channel=8, data=[68, 120]),
   midi.NoteOffEvent(tick=480, channel=8, data=[68, 0]),
   midi.NoteOnEvent(tick=0, channel=8, data=[68, 119]),
   midi.NoteOffEvent(tick=480, channel=8, data=[68, 0]),
   midi.NoteOnEvent(tick=0, channel=8, data=[68, 118]),
   midi.NoteOffEvent(tick=480, channel=8, data=[68, 0]),
   midi.NoteOnEvent(tick=0, channel=8, data=[65, 115]),
   midi.NoteOffEvent(tick=2400, channel=8, data=[65, 0]),
   midi.NoteOnEvent(tick=0, channel=8, data=[68, 116]),
   midi.NoteOffEvent(tick=480, channel=8, data=[68, 0]),
   midi.NoteOnEvent(tick=0, channel=8, data=[68, 115]),
   midi.NoteOffEvent(tick=480, channel=8, data=[68, 0]),
   midi.NoteOnEvent(tick=0, channel=8, data=[68, 115]),
   midi.NoteOffEvent(tick=480, channel=8, data=[68, 0]),
   midi.NoteOnEvent(tick=0, channel=8, data=[65, 110]),
   midi.NoteOffEvent(tick=2400, channel=8, data=[65, 0]),
   midi.NoteOnEvent(tick=0, channel=8, data=[68, 115]),
   midi.NoteOffEvent(tick=480, channel=8, data=[68, 0]),
   midi.NoteOnEvent(tick=0, channel=8, data=[68, 115]),
   midi.NoteOffEvent(tick=480, channel=8, data=[68, 0]),
   midi.NoteOnEvent(tick=0, channel=8, data=[68, 114]),
   midi.NoteOffEvent(tick=480, channel=8, data=[68, 0]),
   midi.NoteOnEvent(tick=0, channel=8, data=[65, 110]),
   midi.NoteOffEvent(tick=480, channel=8, data=[65, 0]),
   midi.NoteOnEvent(tick=0, channel=8, data=[68, 117]),
   midi.NoteOffEvent(tick=480, channel=8, data=[68, 0]),
   midi.NoteOnEvent(tick=0, channel=8, data=[68, 116]),
   midi.NoteOffEvent(tick=480, channel=8, data=[68, 0]),
   midi.NoteOnEvent(tick=0, channel=8, data=[68, 116]),
   midi.NoteOffEvent(tick=480, channel=8, data=[68, 0]),
   midi.NoteOnEvent(tick=0, channel=8, data=[65, 108]),
   midi.NoteOffEvent(tick=480, channel=8, data=[65, 0]),
   midi.NoteOnEvent(tick=0, channel=8, data=[68, 118]),
   midi.NoteOffEvent(tick=480, channel=8, data=[68, 0]),
   midi.NoteOnEvent(tick=0, channel=8, data=[68, 117]),
   midi.NoteOffEvent(tick=480, channel=8, data=[68, 0]),
   midi.NoteOnEvent(tick=0, channel=8, data=[68, 116]),
   midi.NoteOffEvent(tick=480, channel=8, data=[68, 0]),
   midi.NoteOnEvent(tick=0, channel=8, data=[65, 107]),
   midi.NoteOffEvent(tick=480, channel=8, data=[65, 0]),
   midi.NoteOnEvent(tick=0, channel=8, data=[67, 113]),
   midi.NoteOffEvent(tick=480, channel=8, data=[67, 0]),
   midi.NoteOnEvent(tick=0, channel=8, data=[67, 113]),
   midi.NoteOffEvent(tick=480, channel=8, data=[67, 0]),
   midi.NoteOnEvent(tick=0, channel=8, data=[67, 113]),
   midi.NoteOffEvent(tick=480, channel=8, data=[67, 0]),
   midi.NoteOnEvent(tick=0, channel=8, data=[63, 109]),
   midi.NoteOffEvent(tick=3840, channel=8, data=[63, 0]),
   midi.NoteOnEvent(tick=2400, channel=8, data=[65, 113]),
   midi.NoteOffEvent(tick=480, channel=8, data=[65, 0]),
   midi.NoteOnEvent(tick=0, channel=8, data=[65, 113]),
   midi.NoteOffEvent(tick=480, channel=8, data=[65, 0]),
   midi.NoteOnEvent(tick=0, channel=8, data=[65, 113]),
   midi.NoteOffEvent(tick=480, channel=8, data=[65, 0]),
   midi.NoteOnEvent(tick=0, channel=8, data=[62, 114]),
   midi.NoteOffEvent(tick=5760, channel=8, data=[62, 0]),
   midi.NoteOnEvent(tick=2400, channel=8, data=[67, 61]),
   midi.NoteOffEvent(tick=480, channel=8, data=[67, 0]),
   midi.NoteOnEvent(tick=0, channel=8, data=[67, 61]),
   midi.NoteOffEvent(tick=480, channel=8, data=[67, 0]),
   midi.NoteOnEvent(tick=0, channel=8, data=[67, 61]),
   midi.NoteOffEvent(tick=480, channel=8, data=[67, 0]),
   midi.NoteOnEvent(tick=0, channel=8, data=[63, 61]),
   midi.NoteOffEvent(tick=4800, channel=8, data=[63, 0]),
   midi.NoteOnEvent(tick=1440, channel=8, data=[67, 61]),
   midi.NoteOffEvent(tick=480, channel=8, data=[67, 0]),
   midi.NoteOnEvent(tick=0, channel=8, data=[67, 61]),
   midi.NoteOffEvent(tick=480, channel=8, data=[67, 0]),
   midi.NoteOnEvent(tick=0, channel=8, data=[67, 61]),
   midi.NoteOffEvent(tick=480, channel=8, data=[67, 0]),
   midi.NoteOnEvent(tick=0, channel=8, data=[62, 60]),
   midi.NoteOffEvent(tick=4800, channel=8, data=[62, 0]),
   midi.NoteOnEvent(tick=3360, channel=8, data=[63, 61]),
   midi.NoteOffEvent(tick=480, channel=8, data=[63, 0]),
   midi.NoteOnEvent(tick=0, channel=8, data=[63, 61]),
   midi.NoteOffEvent(tick=480, channel=8, data=[63, 0]),
   midi.NoteOnEvent(tick=0, channel=8, data=[65, 62]),
   midi.NoteOffEvent(tick=480, channel=8, data=[65, 0]),
   midi.NoteOnEvent(tick=0, channel=8, data=[67, 68]),
   midi.NoteOffEvent(tick=2400, channel=8, data=[67, 0]),
   midi.NoteOnEvent(tick=0, channel=8, data=[63, 61]),
   midi.NoteOffEvent(tick=480, channel=8, data=[63, 0]),
   midi.NoteOnEvent(tick=0, channel=8, data=[63, 61]),
   midi.NoteOffEvent(tick=480, channel=8, data=[63, 0]),
   midi.NoteOnEvent(tick=0, channel=8, data=[65, 62]),
   midi.NoteOffEvent(tick=480, channel=8, data=[65, 0]),
   midi.NoteOnEvent(tick=0, channel=8, data=[67, 68]),
   midi.NoteOffEvent(tick=480, channel=8, data=[67, 0]),
   midi.NoteOnEvent(tick=0, channel=8, data=[59, 55]),
   midi.NoteOffEvent(tick=480, channel=8, data=[59, 0]),
   midi.NoteOnEvent(tick=0, channel=8, data=[60, 58]),
   midi.NoteOffEvent(tick=480, channel=8, data=[60, 0]),
   midi.NoteOnEvent(tick=0, channel=8, data=[62, 61]),
   midi.NoteOffEvent(tick=480, channel=8, data=[62, 0]),
   midi.NoteOnEvent(tick=0, channel=8, data=[63, 77]),
   midi.NoteOffEvent(tick=960, channel=8, data=[63, 0]),
   midi.NoteOnEvent(tick=960, channel=8, data=[56, 92]),
   midi.NoteOnEvent(tick=0, channel=8, data=[66, 92]),
   midi.NoteOnEvent(tick=0, channel=8, data=[72, 92]),
   midi.NoteOffEvent(tick=960, channel=8, data=[56, 0]),
   midi.NoteOffEvent(tick=0, channel=8, data=[66, 0]),
   midi.NoteOffEvent(tick=0, channel=8, data=[72, 0]),
   midi.NoteOnEvent(tick=960, channel=8, data=[55, 122]),
   midi.NoteOnEvent(tick=0, channel=8, data=[62, 122]),
   midi.NoteOnEvent(tick=0, channel=8, data=[71, 122]),
   midi.NoteOnEvent(tick=0, channel=8, data=[79, 122]),
   midi.NoteOffEvent(tick=960, channel=8, data=[55, 0]),
   midi.NoteOffEvent(tick=0, channel=8, data=[62, 0]),
   midi.NoteOffEvent(tick=0, channel=8, data=[71, 0]),
   midi.NoteOffEvent(tick=0, channel=8, data=[79, 0]),
   midi.NoteOnEvent(tick=12960, channel=8, data=[62, 61]),
   midi.NoteOffEvent(tick=480, channel=8, data=[62, 0]),
   midi.NoteOnEvent(tick=0, channel=8, data=[62, 61]),
   midi.NoteOffEvent(tick=480, channel=8, data=[62, 0]),
   midi.NoteOnEvent(tick=0, channel=8, data=[62, 61]),
   midi.NoteOffEvent(tick=480, channel=8, data=[62, 0]),
   midi.NoteOnEvent(tick=0, channel=8, data=[59, 60]),
   midi.NoteOffEvent(tick=3840, channel=8, data=[59, 0]),
   midi.NoteOnEvent(tick=0, channel=8, data=[60, 64]),
   midi.NoteOffEvent(tick=480, channel=8, data=[60, 0]),
   midi.NoteOnEvent(tick=0, channel=8, data=[68, 67]),
   midi.NoteOffEvent(tick=480, channel=8, data=[68, 0]),
   midi.NoteOnEvent(tick=0, channel=8, data=[68, 67]),
   midi.NoteOffEvent(tick=480, channel=8, data=[68, 0]),
   midi.NoteOnEvent(tick=0, channel=8, data=[68, 66]),
   midi.NoteOffEvent(tick=480, channel=8, data=[68, 0]),
   midi.NoteOnEvent(tick=0, channel=8, data=[65, 63]),
   midi.NoteOffEvent(tick=480, channel=8, data=[65, 0]),
   midi.NoteOnEvent(tick=0, channel=8, data=[62, 54]),
   midi.NoteOffEvent(tick=480, channel=8, data=[62, 0]),
   midi.NoteOnEvent(tick=0, channel=8, data=[62, 55]),
   midi.NoteOffEvent(tick=480, channel=8, data=[62, 0]),
   midi.NoteOnEvent(tick=0, channel=8, data=[62, 55]),
   midi.NoteOffEvent(tick=480, channel=8, data=[62, 0]),
   midi.NoteOnEvent(tick=0, channel=8, data=[59, 76]),
   midi.NoteOffEvent(tick=480, channel=8, data=[59, 0]),
   midi.NoteOnEvent(tick=0, channel=8, data=[56, 71]),
   midi.NoteOffEvent(tick=480, channel=8, data=[56, 0]),
   midi.NoteOnEvent(tick=0, channel=8, data=[56, 71]),
   midi.NoteOffEvent(tick=480, channel=8, data=[56, 0]),
   midi.NoteOnEvent(tick=0, channel=8, data=[56, 71]),
   midi.NoteOffEvent(tick=480, channel=8, data=[56, 0]),
   midi.NoteOnEvent(tick=0, channel=8, data=[55, 76]),
   midi.NoteOffEvent(tick=480, channel=8, data=[55, 0]),
   midi.NoteOnEvent(tick=0, channel=8, data=[62, 94]),
   midi.NoteOffEvent(tick=480, channel=8, data=[62, 0]),
   midi.NoteOnEvent(tick=0, channel=8, data=[62, 94]),
   midi.NoteOffEvent(tick=480, channel=8, data=[62, 0]),
   midi.NoteOnEvent(tick=0, channel=8, data=[62, 93]),
   midi.NoteOffEvent(tick=480, channel=8, data=[62, 0]),
   midi.NoteOnEvent(tick=0, channel=8, data=[63, 117]),
   midi.NoteOffEvent(tick=480, channel=8, data=[63, 0]),
   midi.NoteOnEvent(tick=0, channel=8, data=[63, 109]),
   midi.NoteOffEvent(tick=480, channel=8, data=[63, 0]),
   midi.NoteOnEvent(tick=0, channel=8, data=[67, 112]),
   midi.NoteOffEvent(tick=480, channel=8, data=[67, 0]),
   midi.NoteOnEvent(tick=0, channel=8, data=[67, 112]),
   midi.NoteOffEvent(tick=480, channel=8, data=[67, 0]),
   midi.NoteOnEvent(tick=0, channel=8, data=[65, 115]),
   midi.NoteOffEvent(tick=2400, channel=8, data=[65, 0]),
   midi.NoteOnEvent(tick=0, channel=8, data=[68, 107]),
   midi.NoteOffEvent(tick=480, channel=8, data=[68, 0]),
   midi.NoteOnEvent(tick=0, channel=8, data=[68, 104]),
   midi.NoteOffEvent(tick=480, channel=8, data=[68, 0]),
   midi.NoteOnEvent(tick=0, channel=8, data=[65, 94]),
   midi.NoteOffEvent(tick=480, channel=8, data=[65, 0]),
   midi.NoteOnEvent(tick=0, channel=8, data=[67, 106]),
   midi.NoteOffEvent(tick=2400, channel=8, data=[67, 0]),
   midi.NoteOnEvent(tick=0, channel=8, data=[67, 98]),
   midi.NoteOffEvent(tick=480, channel=8, data=[67, 0]),
   midi.NoteOnEvent(tick=0, channel=8, data=[67, 98]),
   midi.NoteOffEvent(tick=480, channel=8, data=[67, 0]),
   midi.NoteOnEvent(tick=0, channel=8, data=[63, 88]),
   midi.NoteOffEvent(tick=480, channel=8, data=[63, 0]),
   midi.NoteOnEvent(tick=0, channel=8, data=[68, 110]),
   midi.NoteOffEvent(tick=480, channel=8, data=[68, 0]),
   midi.NoteOnEvent(tick=0, channel=8, data=[68, 103]),
   midi.NoteOffEvent(tick=480, channel=8, data=[68, 0]),
   midi.NoteOnEvent(tick=0, channel=8, data=[68, 102]),
   midi.NoteOffEvent(tick=480, channel=8, data=[68, 0]),
   midi.NoteOnEvent(tick=0, channel=8, data=[65, 90]),
   midi.NoteOffEvent(tick=480, channel=8, data=[65, 0]),
   midi.NoteOnEvent(tick=0, channel=8, data=[70, 116]),
   midi.NoteOffEvent(tick=480, channel=8, data=[70, 0]),
   midi.NoteOnEvent(tick=0, channel=8, data=[70, 109]),
   midi.NoteOffEvent(tick=480, channel=8, data=[70, 0]),
   midi.NoteOnEvent(tick=0, channel=8, data=[70, 108]),
   midi.NoteOffEvent(tick=480, channel=8, data=[70, 0]),
   midi.NoteOnEvent(tick=0, channel=8, data=[67, 93]),
   midi.NoteOffEvent(tick=480, channel=8, data=[67, 0]),
   midi.NoteOnEvent(tick=0, channel=8, data=[72, 119]),
   midi.NoteOffEvent(tick=480, channel=8, data=[72, 0]),
   midi.NoteOnEvent(tick=0, channel=8, data=[60, 83]),
   midi.NoteOffEvent(tick=480, channel=8, data=[60, 0]),
   midi.NoteOnEvent(tick=0, channel=8, data=[60, 83]),
   midi.NoteOffEvent(tick=480, channel=8, data=[60, 0]),
   midi.NoteOnEvent(tick=0, channel=8, data=[56, 83]),
   midi.NoteOffEvent(tick=480, channel=8, data=[56, 0]),
   midi.NoteOnEvent(tick=0, channel=8, data=[64, 101]),
   midi.NoteOffEvent(tick=480, channel=8, data=[64, 0]),
   midi.NoteOnEvent(tick=0, channel=8, data=[64, 97]),
   midi.NoteOffEvent(tick=480, channel=8, data=[64, 0]),
   midi.NoteOnEvent(tick=0, channel=8, data=[64, 98]),
   midi.NoteOffEvent(tick=480, channel=8, data=[64, 0]),
   midi.NoteOnEvent(tick=0, channel=8, data=[58, 83]),
   midi.NoteOffEvent(tick=480, channel=8, data=[58, 0]),
   midi.NoteOnEvent(tick=0, channel=8, data=[65, 114]),
   midi.NoteOffEvent(tick=480, channel=8, data=[65, 0]),
   midi.NoteOnEvent(tick=0, channel=8, data=[65, 107]),
   midi.NoteOffEvent(tick=480, channel=8, data=[65, 0]),
   midi.NoteOnEvent(tick=0, channel=8, data=[65, 106]),
   midi.NoteOffEvent(tick=480, channel=8, data=[65, 0]),
   midi.NoteOnEvent(tick=0, channel=8, data=[60, 85]),
   midi.NoteOffEvent(tick=480, channel=8, data=[60, 0]),
   midi.NoteOnEvent(tick=0, channel=8, data=[68, 119]),
   midi.NoteOffEvent(tick=480, channel=8, data=[68, 0]),
   midi.NoteOnEvent(tick=0, channel=8, data=[68, 112]),
   midi.NoteOffEvent(tick=480, channel=8, data=[68, 0]),
   midi.NoteOnEvent(tick=0, channel=8, data=[68, 112]),
   midi.NoteOffEvent(tick=480, channel=8, data=[68, 0]),
   midi.NoteOnEvent(tick=0, channel=8, data=[65, 98]),
   midi.NoteOffEvent(tick=480, channel=8, data=[65, 0]),
   midi.NoteOnEvent(tick=0, channel=8, data=[67, 114]),
   midi.NoteOffEvent(tick=480, channel=8, data=[67, 0]),
   midi.NoteOnEvent(tick=0, channel=8, data=[72, 112]),
   midi.NoteOnEvent(tick=0, channel=8, data=[63, 98]),
   midi.NoteOffEvent(tick=480, channel=8, data=[72, 0]),
   midi.NoteOffEvent(tick=0, channel=8, data=[63, 0]),
   midi.NoteOnEvent(tick=0, channel=8, data=[72, 112]),
   midi.NoteOnEvent(tick=0, channel=8, data=[63, 98]),
   midi.NoteOffEvent(tick=480, channel=8, data=[72, 0]),
   midi.NoteOffEvent(tick=0, channel=8, data=[63, 0]),
   midi.NoteOnEvent(tick=0, channel=8, data=[72, 112]),
   midi.NoteOnEvent(tick=0, channel=8, data=[63, 98]),
   midi.NoteOffEvent(tick=480, channel=8, data=[72, 0]),
   midi.NoteOffEvent(tick=0, channel=8, data=[63, 0]),
   midi.NoteOnEvent(tick=0, channel=8, data=[72, 118]),
   midi.NoteOnEvent(tick=0, channel=8, data=[63, 104]),
   midi.NoteOffEvent(tick=480, channel=8, data=[72, 0]),
   midi.NoteOffEvent(tick=0, channel=8, data=[63, 0]),
   midi.NoteOnEvent(tick=0, channel=8, data=[72, 109]),
   midi.NoteOnEvent(tick=0, channel=8, data=[63, 98]),
   midi.NoteOffEvent(tick=480, channel=8, data=[72, 0]),
   midi.NoteOffEvent(tick=0, channel=8, data=[63, 0]),
   midi.NoteOnEvent(tick=0, channel=8, data=[72, 108]),
   midi.NoteOnEvent(tick=0, channel=8, data=[63, 98]),
   midi.NoteOffEvent(tick=480, channel=8, data=[72, 0]),
   midi.NoteOffEvent(tick=0, channel=8, data=[63, 0]),
   midi.NoteOnEvent(tick=0, channel=8, data=[72, 106]),
   midi.NoteOnEvent(tick=0, channel=8, data=[63, 98]),
   midi.NoteOffEvent(tick=480, channel=8, data=[72, 0]),
   midi.NoteOffEvent(tick=0, channel=8, data=[63, 0]),
   midi.NoteOnEvent(tick=0, channel=8, data=[72, 110]),
   midi.NoteOnEvent(tick=0, channel=8, data=[63, 104]),
   midi.NoteOffEvent(tick=480, channel=8, data=[72, 0]),
   midi.NoteOffEvent(tick=0, channel=8, data=[63, 0]),
   midi.NoteOnEvent(tick=0, channel=8, data=[72, 102]),
   midi.NoteOnEvent(tick=0, channel=8, data=[63, 98]),
   midi.NoteOffEvent(tick=480, channel=8, data=[72, 0]),
   midi.NoteOffEvent(tick=0, channel=8, data=[63, 0]),
   midi.NoteOnEvent(tick=0, channel=8, data=[72, 101]),
   midi.NoteOnEvent(tick=0, channel=8, data=[63, 98]),
   midi.NoteOffEvent(tick=480, channel=8, data=[72, 0]),
   midi.NoteOffEvent(tick=0, channel=8, data=[63, 0]),
   midi.NoteOnEvent(tick=0, channel=8, data=[72, 100]),
   midi.NoteOnEvent(tick=0, channel=8, data=[63, 98]),
   midi.NoteOffEvent(tick=480, channel=8, data=[72, 0]),
   midi.NoteOffEvent(tick=0, channel=8, data=[63, 0]),
   midi.NoteOnEvent(tick=0, channel=8, data=[72, 105]),
   midi.NoteOnEvent(tick=0, channel=8, data=[63, 104]),
   midi.NoteOffEvent(tick=480, channel=8, data=[72, 0]),
   midi.NoteOffEvent(tick=0, channel=8, data=[63, 0]),
   midi.NoteOnEvent(tick=0, channel=8, data=[72, 99]),
   midi.NoteOnEvent(tick=0, channel=8, data=[63, 98]),
   midi.NoteOffEvent(tick=480, channel=8, data=[72, 0]),
   midi.NoteOffEvent(tick=0, channel=8, data=[63, 0]),
   midi.NoteOnEvent(tick=0, channel=8, data=[72, 98]),
   midi.NoteOnEvent(tick=0, channel=8, data=[63, 98]),
   midi.NoteOffEvent(tick=480, channel=8, data=[72, 0]),
   midi.NoteOffEvent(tick=0, channel=8, data=[63, 0]),
   midi.NoteOnEvent(tick=0, channel=8, data=[72, 98]),
   midi.NoteOnEvent(tick=0, channel=8, data=[63, 98]),
   midi.NoteOffEvent(tick=480, channel=8, data=[72, 0]),
   midi.NoteOffEvent(tick=0, channel=8, data=[63, 0]),
   midi.NoteOnEvent(tick=0, channel=8, data=[71, 99]),
   midi.NoteOnEvent(tick=0, channel=8, data=[62, 99]),
   midi.NoteOffEvent(tick=480, channel=8, data=[71, 0]),
   midi.NoteOffEvent(tick=0, channel=8, data=[62, 0]),
   midi.NoteOnEvent(tick=0, channel=8, data=[77, 112]),
   midi.NoteOffEvent(tick=480, channel=8, data=[77, 0]),
   midi.NoteOnEvent(tick=0, channel=8, data=[74, 104]),
   midi.NoteOffEvent(tick=480, channel=8, data=[74, 0]),
   midi.NoteOnEvent(tick=0, channel=8, data=[74, 103]),
   midi.NoteOffEvent(tick=480, channel=8, data=[74, 0]),
   midi.NoteOnEvent(tick=0, channel=8, data=[71, 93]),
   midi.NoteOffEvent(tick=480, channel=8, data=[71, 0]),
   midi.NoteOnEvent(tick=0, channel=8, data=[67, 83]),
   midi.NoteOffEvent(tick=480, channel=8, data=[67, 0]),
   midi.NoteOnEvent(tick=0, channel=8, data=[65, 83]),
   midi.NoteOffEvent(tick=480, channel=8, data=[65, 0]),
   midi.NoteOnEvent(tick=0, channel=8, data=[65, 83]),
   midi.NoteOffEvent(tick=480, channel=8, data=[65, 0]),
   midi.NoteOnEvent(tick=0, channel=8, data=[62, 88]),
   midi.NoteOffEvent(tick=480, channel=8, data=[62, 0]),
   midi.NoteOnEvent(tick=0, channel=8, data=[59, 83]),
   midi.NoteOffEvent(tick=480, channel=8, data=[59, 0]),
   midi.NoteOnEvent(tick=0, channel=8, data=[55, 83]),
   midi.NoteOffEvent(tick=480, channel=8, data=[55, 0]),
   midi.NoteOnEvent(tick=0, channel=8, data=[65, 100]),
   midi.NoteOffEvent(tick=480, channel=8, data=[65, 0]),
   midi.NoteOnEvent(tick=0, channel=8, data=[62, 93]),
   midi.NoteOffEvent(tick=480, channel=8, data=[62, 0]),
   midi.NoteOnEvent(tick=0, channel=8, data=[59, 83]),
   midi.NoteOffEvent(tick=480, channel=8, data=[59, 0]),
   midi.NoteOnEvent(tick=0, channel=8, data=[60, 87]),
   midi.NoteOffEvent(tick=480, channel=8, data=[60, 0]),
   midi.NoteOnEvent(tick=0, channel=8, data=[60, 89]),
   midi.NoteOffEvent(tick=480, channel=8, data=[60, 0]),
   midi.NoteOnEvent(tick=0, channel=8, data=[72, 127]),
   midi.NoteOffEvent(tick=480, channel=8, data=[72, 0]),
   midi.NoteOnEvent(tick=0, channel=8, data=[87, 127]),
   midi.NoteOffEvent(tick=480, channel=8, data=[87, 0]),
   midi.NoteOnEvent(tick=0, channel=8, data=[87, 127]),
   midi.NoteOffEvent(tick=480, channel=8, data=[87, 0]),
   midi.NoteOnEvent(tick=0, channel=8, data=[87, 127]),
   midi.NoteOffEvent(tick=480, channel=8, data=[87, 0]),
   midi.NoteOnEvent(tick=0, channel=8, data=[84, 127]),
   midi.NoteOffEvent(tick=480, channel=8, data=[84, 0]),
   midi.NoteOnEvent(tick=0, channel=8, data=[81, 126]),
   midi.NoteOffEvent(tick=480, channel=8, data=[81, 0]),
   midi.NoteOnEvent(tick=0, channel=8, data=[81, 123]),
   midi.NoteOffEvent(tick=480, channel=8, data=[81, 0]),
   midi.NoteOnEvent(tick=0, channel=8, data=[81, 119]),
   midi.NoteOffEvent(tick=480, channel=8, data=[81, 0]),
   midi.NoteOnEvent(tick=0, channel=8, data=[78, 109]),
   midi.NoteOffEvent(tick=480, channel=8, data=[78, 0]),
   midi.NoteOnEvent(tick=0, channel=8, data=[75, 96]),
   midi.NoteOffEvent(tick=480, channel=8, data=[75, 0]),
   midi.NoteOnEvent(tick=0, channel=8, data=[75, 96]),
   midi.NoteOffEvent(tick=480, channel=8, data=[75, 0]),
   midi.NoteOnEvent(tick=0, channel=8, data=[75, 97]),
   midi.NoteOffEvent(tick=480, channel=8, data=[75, 0]),
   midi.NoteOnEvent(tick=0, channel=8, data=[72, 102]),
   midi.NoteOffEvent(tick=480, channel=8, data=[72, 0]),
   midi.NoteOnEvent(tick=0, channel=8, data=[69, 96]),
   midi.NoteOffEvent(tick=480, channel=8, data=[69, 0]),
   midi.NoteOnEvent(tick=0, channel=8, data=[69, 96]),
   midi.NoteOffEvent(tick=480, channel=8, data=[69, 0]),
   midi.NoteOnEvent(tick=0, channel=8, data=[69, 96]),
   midi.NoteOffEvent(tick=480, channel=8, data=[69, 0]),
   midi.NoteOnEvent(tick=0, channel=8, data=[57, 102]),
   midi.NoteOffEvent(tick=960, channel=8, data=[57, 0]),
   midi.NoteOnEvent(tick=2880, channel=8, data=[67, 120]),
   midi.NoteOnEvent(tick=0, channel=8, data=[55, 120]),
   midi.NoteOffEvent(tick=960, channel=8, data=[67, 0]),
   midi.NoteOffEvent(tick=0, channel=8, data=[55, 0]),
   midi.NoteOnEvent(tick=8640, channel=8, data=[64, 65]),
   midi.NoteOnEvent(tick=1920, channel=8, data=[65, 65]),
   midi.NoteOffEvent(tick=38, channel=8, data=[64, 0]),
   midi.NoteOffEvent(tick=1785, channel=8, data=[65, 0]),
   midi.NoteOnEvent(tick=97, channel=8, data=[65, 65]),
   midi.NoteOnEvent(tick=1920, channel=8, data=[64, 64]),
   midi.NoteOffEvent(tick=38, channel=8, data=[65, 0]),
   midi.NoteOffEvent(tick=1785, channel=8, data=[64, 0]),
   midi.NoteOnEvent(tick=7777, channel=8, data=[64, 65]),
   midi.NoteOnEvent(tick=1920, channel=8, data=[65, 65]),
   midi.NoteOffEvent(tick=38, channel=8, data=[64, 0]),
   midi.NoteOffEvent(tick=1785, channel=8, data=[65, 0]),
   midi.NoteOnEvent(tick=97, channel=8, data=[65, 65]),
   midi.NoteOnEvent(tick=1920, channel=8, data=[64, 64]),
   midi.NoteOffEvent(tick=38, channel=8, data=[65, 0]),
   midi.NoteOffEvent(tick=1785, channel=8, data=[64, 0]),
   midi.NoteOnEvent(tick=7777, channel=8, data=[70, 65]),
   midi.NoteOnEvent(tick=1920, channel=8, data=[67, 64]),
   midi.NoteOffEvent(tick=38, channel=8, data=[70, 0]),
   midi.NoteOffEvent(tick=1785, channel=8, data=[67, 0]),
   midi.NoteOnEvent(tick=97, channel=8, data=[67, 64]),
   midi.NoteOnEvent(tick=1920, channel=8, data=[65, 63]),
   midi.NoteOffEvent(tick=38, channel=8, data=[67, 0]),
   midi.NoteOffEvent(tick=1785, channel=8, data=[65, 0]),
   midi.NoteOnEvent(tick=97, channel=8, data=[69, 67]),
   midi.NoteOffEvent(tick=3840, channel=8, data=[69, 0]),
   midi.NoteOnEvent(tick=0, channel=8, data=[69, 65]),
   midi.NoteOnEvent(tick=1920, channel=8, data=[67, 64]),
   midi.NoteOffEvent(tick=38, channel=8, data=[69, 0]),
   midi.NoteOffEvent(tick=1785, channel=8, data=[67, 0]),
   midi.NoteOnEvent(tick=97, channel=8, data=[65, 63]),
   midi.NoteOnEvent(tick=960, channel=8, data=[67, 62]),
   midi.NoteOffEvent(tick=19, channel=8, data=[65, 0]),
   midi.NoteOffEvent(tick=892, channel=8, data=[67, 0]),
   midi.NoteOnEvent(tick=49, channel=8, data=[68, 77]),
   midi.NoteOffEvent(tick=960, channel=8, data=[68, 0]),
   midi.NoteOnEvent(tick=0, channel=8, data=[67, 71]),
   midi.NoteOffEvent(tick=960, channel=8, data=[67, 0]),
   midi.NoteOnEvent(tick=0, channel=8, data=[65, 72]),
   midi.NoteOffEvent(tick=960, channel=8, data=[65, 0]),
   midi.NoteOnEvent(tick=0, channel=8, data=[67, 72]),
   midi.NoteOffEvent(tick=960, channel=8, data=[67, 0]),
   midi.NoteOnEvent(tick=0, channel=8, data=[68, 78]),
   midi.NoteOnEvent(tick=960, channel=8, data=[67, 71]),
   midi.NoteOffEvent(tick=19, channel=8, data=[68, 0]),
   midi.NoteOffEvent(tick=892, channel=8, data=[67, 0]),
   midi.NoteOnEvent(tick=49, channel=8, data=[65, 72]),
   midi.NoteOffEvent(tick=960, channel=8, data=[65, 0]),
   midi.NoteOnEvent(tick=0, channel=8, data=[67, 72]),
   midi.NoteOffEvent(tick=960, channel=8, data=[67, 0]),
   midi.NoteOnEvent(tick=0, channel=8, data=[68, 92]),
   midi.NoteOnEvent(tick=960, channel=8, data=[67, 84]),
   midi.NoteOffEvent(tick=19, channel=8, data=[68, 0]),
   midi.NoteOffEvent(tick=892, channel=8, data=[67, 0]),
   midi.NoteOnEvent(tick=49, channel=8, data=[65, 85]),
   midi.NoteOffEvent(tick=960, channel=8, data=[65, 0]),
   midi.NoteOnEvent(tick=0, channel=8, data=[67, 85]),
   midi.NoteOffEvent(tick=960, channel=8, data=[67, 0]),
   midi.NoteOnEvent(tick=0, channel=8, data=[68, 92]),
   midi.NoteOnEvent(tick=960, channel=8, data=[67, 84]),
   midi.NoteOffEvent(tick=19, channel=8, data=[68, 0]),
   midi.NoteOffEvent(tick=892, channel=8, data=[67, 0]),
   midi.NoteOnEvent(tick=49, channel=8, data=[66, 87]),
   midi.NoteOffEvent(tick=960, channel=8, data=[66, 0]),
   midi.NoteOnEvent(tick=0, channel=8, data=[67, 84]),
   midi.NoteOffEvent(tick=960, channel=8, data=[67, 0]),
   midi.NoteOnEvent(tick=0, channel=8, data=[69, 93]),
   midi.NoteOnEvent(tick=960, channel=8, data=[67, 83]),
   midi.NoteOffEvent(tick=19, channel=8, data=[69, 0]),
   midi.NoteOffEvent(tick=892, channel=8, data=[67, 0]),
   midi.NoteOnEvent(tick=49, channel=8, data=[66, 86]),
   midi.NoteOffEvent(tick=960, channel=8, data=[66, 0]),
   midi.NoteOnEvent(tick=0, channel=8, data=[67, 84]),
   midi.NoteOffEvent(tick=960, channel=8, data=[67, 0]),
   midi.NoteOnEvent(tick=0, channel=8, data=[69, 108]),
   midi.NoteOnEvent(tick=960, channel=8, data=[67, 96]),
   midi.NoteOffEvent(tick=19, channel=8, data=[69, 0]),
   midi.NoteOffEvent(tick=892, channel=8, data=[67, 0]),
   midi.NoteOnEvent(tick=49, channel=8, data=[66, 100]),
   midi.NoteOffEvent(tick=960, channel=8, data=[66, 0]),
   midi.NoteOnEvent(tick=0, channel=8, data=[67, 98]),
   midi.NoteOffEvent(tick=960, channel=8, data=[67, 0]),
   midi.NoteOnEvent(tick=0, channel=8, data=[66, 101]),
   midi.NoteOffEvent(tick=960, channel=8, data=[66, 0]),
   midi.NoteOnEvent(tick=0, channel=8, data=[67, 99]),
   midi.NoteOffEvent(tick=960, channel=8, data=[67, 0]),
   midi.NoteOnEvent(tick=0, channel=8, data=[66, 102]),
   midi.NoteOffEvent(tick=960, channel=8, data=[66, 0]),
   midi.NoteOnEvent(tick=0, channel=8, data=[67, 99]),
   midi.NoteOffEvent(tick=960, channel=8, data=[67, 0]),
   midi.NoteOnEvent(tick=0, channel=8, data=[79, 127]),
   midi.NoteOffEvent(tick=2400, channel=8, data=[79, 0]),
   midi.NoteOnEvent(tick=0, channel=8, data=[81, 125]),
   midi.NoteOffEvent(tick=240, channel=8, data=[81, 0]),
   midi.NoteOnEvent(tick=240, channel=8, data=[79, 121]),
   midi.NoteOffEvent(tick=240, channel=8, data=[79, 0]),
   midi.NoteOnEvent(tick=240, channel=8, data=[77, 116]),
   midi.NoteOffEvent(tick=240, channel=8, data=[77, 0]),
   midi.NoteOnEvent(tick=240, channel=8, data=[77, 122]),
   midi.NoteOnEvent(tick=480, channel=8, data=[76, 112]),
   midi.NoteOffEvent(tick=8, channel=8, data=[77, 0]),
   midi.NoteOffEvent(tick=446, channel=8, data=[76, 0]),
   midi.NoteOnEvent(tick=26, channel=8, data=[74, 107]),
   midi.NoteOffEvent(tick=240, channel=8, data=[74, 0]),
   midi.NoteOnEvent(tick=240, channel=8, data=[72, 102]),
   midi.NoteOffEvent(tick=240, channel=8, data=[72, 0]),
   midi.NoteOnEvent(tick=240, channel=8, data=[72, 110]),
   midi.NoteOnEvent(tick=480, channel=8, data=[71, 102]),
   midi.NoteOffEvent(tick=8, channel=8, data=[72, 0]),
   midi.NoteOffEvent(tick=446, channel=8, data=[71, 0]),
   midi.NoteOnEvent(tick=26, channel=8, data=[69, 99]),
   midi.NoteOffEvent(tick=240, channel=8, data=[69, 0]),
   midi.NoteOnEvent(tick=240, channel=8, data=[71, 106]),
   midi.NoteOffEvent(tick=240, channel=8, data=[71, 0]),
   midi.NoteOnEvent(tick=240, channel=8, data=[74, 123]),
   midi.NoteOnEvent(tick=480, channel=8, data=[72, 109]),
   midi.NoteOffEvent(tick=8, channel=8, data=[74, 0]),
   midi.NoteOffEvent(tick=446, channel=8, data=[72, 0]),
   midi.NoteOnEvent(tick=26, channel=8, data=[67, 96]),
   midi.NoteOffEvent(tick=240, channel=8, data=[67, 0]),
   midi.NoteOnEvent(tick=240, channel=8, data=[64, 96]),
   midi.NoteOffEvent(tick=240, channel=8, data=[64, 0]),
   midi.NoteOnEvent(tick=240, channel=8, data=[71, 118]),
   midi.NoteOnEvent(tick=480, channel=8, data=[69, 105]),
   midi.NoteOffEvent(tick=8, channel=8, data=[71, 0]),
   midi.NoteOffEvent(tick=446, channel=8, data=[69, 0]),
   midi.NoteOnEvent(tick=26, channel=8, data=[65, 96]),
   midi.NoteOffEvent(tick=240, channel=8, data=[65, 0]),
   midi.NoteOnEvent(tick=240, channel=8, data=[62, 96]),
   midi.NoteOffEvent(tick=240, channel=8, data=[62, 0]),
   midi.NoteOnEvent(tick=240, channel=8, data=[55, 102]),
   midi.NoteOffEvent(tick=480, channel=8, data=[55, 0]),
   midi.NoteOnEvent(tick=0, channel=8, data=[55, 96]),
   midi.NoteOffEvent(tick=480, channel=8, data=[55, 0]),
   midi.NoteOnEvent(tick=0, channel=8, data=[60, 102]),
   midi.NoteOffEvent(tick=480, channel=8, data=[60, 0]),
   midi.NoteOnEvent(tick=0, channel=8, data=[60, 105]),
   midi.NoteOffEvent(tick=480, channel=8, data=[60, 0]),
   midi.NoteOnEvent(tick=0, channel=8, data=[59, 109]),
   midi.NoteOffEvent(tick=480, channel=8, data=[59, 0]),
   midi.NoteOnEvent(tick=0, channel=8, data=[66, 127]),
   midi.NoteOnEvent(tick=480, channel=8, data=[67, 127]),
   midi.NoteOffEvent(tick=8, channel=8, data=[66, 0]),
   midi.NoteOffEvent(tick=446, channel=8, data=[67, 0]),
   midi.NoteOnEvent(tick=26, channel=8, data=[66, 127]),
   midi.NoteOffEvent(tick=480, channel=8, data=[66, 0]),
   midi.NoteOnEvent(tick=0, channel=8, data=[67, 127]),
   midi.NoteOffEvent(tick=480, channel=8, data=[67, 0]),
   midi.NoteOnEvent(tick=0, channel=8, data=[66, 125]),
   midi.NoteOffEvent(tick=480, channel=8, data=[66, 0]),
   midi.NoteOnEvent(tick=0, channel=8, data=[67, 127]),
   midi.NoteOffEvent(tick=480, channel=8, data=[67, 0]),
   midi.NoteOnEvent(tick=0, channel=8, data=[66, 121]),
   midi.NoteOffEvent(tick=480, channel=8, data=[66, 0]),
   midi.NoteOnEvent(tick=0, channel=8, data=[67, 127]),
   midi.NoteOffEvent(tick=480, channel=8, data=[67, 0]),
   midi.NoteOnEvent(tick=0, channel=8, data=[81, 127]),
   midi.NoteOffEvent(tick=240, channel=8, data=[81, 0]),
   midi.NoteOnEvent(tick=240, channel=8, data=[79, 127]),
   midi.NoteOffEvent(tick=240, channel=8, data=[79, 0]),
   midi.NoteOnEvent(tick=240, channel=8, data=[77, 127]),
   midi.NoteOffEvent(tick=240, channel=8, data=[77, 0]),
   midi.NoteOnEvent(tick=240, channel=8, data=[77, 127]),
   midi.NoteOnEvent(tick=480, channel=8, data=[76, 127]),
   midi.NoteOffEvent(tick=8, channel=8, data=[77, 0]),
   midi.NoteOffEvent(tick=446, channel=8, data=[76, 0]),
   midi.NoteOnEvent(tick=26, channel=8, data=[74, 122]),
   midi.NoteOffEvent(tick=240, channel=8, data=[74, 0]),
   midi.NoteOnEvent(tick=240, channel=8, data=[72, 112]),
   midi.NoteOffEvent(tick=240, channel=8, data=[72, 0]),
   midi.NoteOnEvent(tick=240, channel=8, data=[72, 117]),
   midi.NoteOnEvent(tick=480, channel=8, data=[71, 107]),
   midi.NoteOffEvent(tick=8, channel=8, data=[72, 0]),
   midi.NoteOffEvent(tick=446, channel=8, data=[71, 0]),
   midi.NoteOnEvent(tick=26, channel=8, data=[69, 100]),
   midi.NoteOffEvent(tick=240, channel=8, data=[69, 0]),
   midi.NoteOnEvent(tick=240, channel=8, data=[71, 108]),
   midi.NoteOffEvent(tick=240, channel=8, data=[71, 0]),
   midi.NoteOnEvent(tick=240, channel=8, data=[74, 125]),
   midi.NoteOnEvent(tick=480, channel=8, data=[72, 110]),
   midi.NoteOffEvent(tick=8, channel=8, data=[74, 0]),
   midi.NoteOffEvent(tick=446, channel=8, data=[72, 0]),
   midi.NoteOnEvent(tick=26, channel=8, data=[67, 96]),
   midi.NoteOffEvent(tick=240, channel=8, data=[67, 0]),
   midi.NoteOnEvent(tick=240, channel=8, data=[64, 96]),
   midi.NoteOffEvent(tick=240, channel=8, data=[64, 0]),
   midi.NoteOnEvent(tick=240, channel=8, data=[71, 118]),
   midi.NoteOnEvent(tick=480, channel=8, data=[69, 105]),
   midi.NoteOffEvent(tick=8, channel=8, data=[71, 0]),
   midi.NoteOffEvent(tick=446, channel=8, data=[69, 0]),
   midi.NoteOnEvent(tick=26, channel=8, data=[65, 96]),
   midi.NoteOffEvent(tick=240, channel=8, data=[65, 0]),
   midi.NoteOnEvent(tick=240, channel=8, data=[62, 96]),
   midi.NoteOffEvent(tick=240, channel=8, data=[62, 0]),
   midi.NoteOnEvent(tick=240, channel=8, data=[69, 118]),
   midi.NoteOnEvent(tick=480, channel=8, data=[67, 105]),
   midi.NoteOffEvent(tick=8, channel=8, data=[69, 0]),
   midi.NoteOffEvent(tick=446, channel=8, data=[67, 0]),
   midi.NoteOnEvent(tick=26, channel=8, data=[64, 98]),
   midi.NoteOffEvent(tick=240, channel=8, data=[64, 0]),
   midi.NoteOnEvent(tick=240, channel=8, data=[60, 96]),
   midi.NoteOffEvent(tick=240, channel=8, data=[60, 0]),
   midi.NoteOnEvent(tick=240, channel=8, data=[55, 102]),
   midi.NoteOffEvent(tick=480, channel=8, data=[55, 0]),
   midi.NoteOnEvent(tick=0, channel=8, data=[67, 123]),
   midi.NoteOffEvent(tick=480, channel=8, data=[67, 0]),
   midi.NoteOnEvent(tick=0, channel=8, data=[79, 127]),
   midi.NoteOffEvent(tick=480, channel=8, data=[79, 0]),
   midi.NoteOnEvent(tick=0, channel=8, data=[79, 127]),
   midi.NoteOffEvent(tick=480, channel=8, data=[79, 0]),
   midi.NoteOnEvent(tick=0, channel=8, data=[64, 103]),
   midi.NoteOffEvent(tick=6240, channel=8, data=[64, 0]),
   midi.NoteOnEvent(tick=0, channel=8, data=[59, 112]),
   midi.NoteOffEvent(tick=480, channel=8, data=[59, 0]),
   midi.NoteOnEvent(tick=0, channel=8, data=[59, 112]),
   midi.NoteOffEvent(tick=480, channel=8, data=[59, 0]),
   midi.NoteOnEvent(tick=0, channel=8, data=[59, 113]),
   midi.NoteOffEvent(tick=480, channel=8, data=[59, 0]),
   midi.NoteOnEvent(tick=0, channel=8, data=[60, 122]),
   midi.NoteOffEvent(tick=6240, channel=8, data=[60, 0]),
   midi.NoteOnEvent(tick=0, channel=8, data=[71, 115]),
   midi.NoteOnEvent(tick=0, channel=8, data=[62, 113]),
   midi.NoteOffEvent(tick=480, channel=8, data=[71, 0]),
   midi.NoteOffEvent(tick=0, channel=8, data=[62, 0]),
   midi.NoteOnEvent(tick=0, channel=8, data=[71, 114]),
   midi.NoteOnEvent(tick=0, channel=8, data=[62, 113]),
   midi.NoteOffEvent(tick=480, channel=8, data=[71, 0]),
   midi.NoteOffEvent(tick=0, channel=8, data=[62, 0]),
   midi.NoteOnEvent(tick=0, channel=8, data=[71, 114]),
   midi.NoteOnEvent(tick=0, channel=8, data=[62, 113]),
   midi.NoteOffEvent(tick=480, channel=8, data=[71, 0]),
   midi.NoteOffEvent(tick=0, channel=8, data=[62, 0]),
   midi.NoteOnEvent(tick=0, channel=8, data=[72, 123]),
   midi.NoteOnEvent(tick=0, channel=8, data=[64, 125]),
   midi.NoteOffEvent(tick=960, channel=8, data=[72, 0]),
   midi.NoteOffEvent(tick=0, channel=8, data=[64, 0]),
   midi.NoteOnEvent(tick=1440, channel=8, data=[71, 112]),
   midi.NoteOnEvent(tick=0, channel=8, data=[62, 112]),
   midi.NoteOffEvent(tick=480, channel=8, data=[71, 0]),
   midi.NoteOffEvent(tick=0, channel=8, data=[62, 0]),
   midi.NoteOnEvent(tick=0, channel=8, data=[71, 113]),
   midi.NoteOnEvent(tick=0, channel=8, data=[62, 112]),
   midi.NoteOffEvent(tick=480, channel=8, data=[71, 0]),
   midi.NoteOffEvent(tick=0, channel=8, data=[62, 0]),
   midi.NoteOnEvent(tick=0, channel=8, data=[71, 113]),
   midi.NoteOnEvent(tick=0, channel=8, data=[62, 112]),
   midi.NoteOffEvent(tick=480, channel=8, data=[71, 0]),
   midi.NoteOffEvent(tick=0, channel=8, data=[62, 0]),
   midi.NoteOnEvent(tick=0, channel=8, data=[72, 123]),
   midi.NoteOnEvent(tick=0, channel=8, data=[64, 126]),
   midi.NoteOffEvent(tick=960, channel=8, data=[72, 0]),
   midi.NoteOffEvent(tick=0, channel=8, data=[64, 0]),
   midi.NoteOnEvent(tick=1440, channel=8, data=[79, 126]),
   midi.NoteOnEvent(tick=0, channel=8, data=[71, 126]),
   midi.NoteOffEvent(tick=480, channel=8, data=[79, 0]),
   midi.NoteOffEvent(tick=0, channel=8, data=[71, 0]),
   midi.NoteOnEvent(tick=0, channel=8, data=[79, 124]),
   midi.NoteOnEvent(tick=0, channel=8, data=[71, 125]),
   midi.NoteOffEvent(tick=480, channel=8, data=[79, 0]),
   midi.NoteOffEvent(tick=0, channel=8, data=[71, 0]),
   midi.NoteOnEvent(tick=0, channel=8, data=[79, 122]),
   midi.NoteOnEvent(tick=0, channel=8, data=[71, 123]),
   midi.NoteOffEvent(tick=480, channel=8, data=[79, 0]),
   midi.NoteOffEvent(tick=0, channel=8, data=[71, 0]),
   midi.NoteOnEvent(tick=0, channel=8, data=[76, 101]),
   midi.NoteOffEvent(tick=2400, channel=8, data=[76, 0]),
   midi.NoteOnEvent(tick=0, channel=8, data=[76, 95]),
   midi.NoteOffEvent(tick=480, channel=8, data=[76, 0]),
   midi.NoteOnEvent(tick=0, channel=8, data=[76, 96]),
   midi.NoteOffEvent(tick=480, channel=8, data=[76, 0]),
   midi.NoteOnEvent(tick=0, channel=8, data=[76, 96]),
   midi.NoteOffEvent(tick=480, channel=8, data=[76, 0]),
   midi.NoteOnEvent(tick=0, channel=8, data=[77, 105]),
   midi.NoteOnEvent(tick=0, channel=8, data=[72, 104]),
   midi.NoteOffEvent(tick=2400, channel=8, data=[77, 0]),
   midi.NoteOffEvent(tick=0, channel=8, data=[72, 0]),
   midi.NoteOnEvent(tick=0, channel=8, data=[77, 99]),
   midi.NoteOnEvent(tick=0, channel=8, data=[72, 98]),
   midi.NoteOffEvent(tick=480, channel=8, data=[77, 0]),
   midi.NoteOffEvent(tick=0, channel=8, data=[72, 0]),
   midi.NoteOnEvent(tick=0, channel=8, data=[77, 99]),
   midi.NoteOnEvent(tick=0, channel=8, data=[72, 98]),
   midi.NoteOffEvent(tick=480, channel=8, data=[77, 0]),
   midi.NoteOffEvent(tick=0, channel=8, data=[72, 0]),
   midi.NoteOnEvent(tick=0, channel=8, data=[77, 98]),
   midi.NoteOnEvent(tick=0, channel=8, data=[72, 98]),
   midi.NoteOffEvent(tick=480, channel=8, data=[77, 0]),
   midi.NoteOffEvent(tick=0, channel=8, data=[72, 0]),
   midi.NoteOnEvent(tick=0, channel=8, data=[79, 110]),
   midi.NoteOnEvent(tick=0, channel=8, data=[72, 104]),
   midi.NoteOffEvent(tick=2400, channel=8, data=[79, 0]),
   midi.NoteOffEvent(tick=0, channel=8, data=[72, 0]),
   midi.NoteOnEvent(tick=0, channel=8, data=[79, 100]),
   midi.NoteOnEvent(tick=0, channel=8, data=[72, 98]),
   midi.NoteOffEvent(tick=480, channel=8, data=[79, 0]),
   midi.NoteOffEvent(tick=0, channel=8, data=[72, 0]),
   midi.NoteOnEvent(tick=0, channel=8, data=[79, 100]),
   midi.NoteOnEvent(tick=0, channel=8, data=[72, 98]),
   midi.NoteOffEvent(tick=480, channel=8, data=[79, 0]),
   midi.NoteOffEvent(tick=0, channel=8, data=[72, 0]),
   midi.NoteOnEvent(tick=0, channel=8, data=[79, 99]),
   midi.NoteOnEvent(tick=0, channel=8, data=[72, 98]),
   midi.NoteOffEvent(tick=480, channel=8, data=[79, 0]),
   midi.NoteOffEvent(tick=0, channel=8, data=[72, 0]),
   midi.NoteOnEvent(tick=0, channel=8, data=[80, 108]),
   midi.NoteOnEvent(tick=0, channel=8, data=[72, 104]),
   midi.NoteOffEvent(tick=2400, channel=8, data=[80, 0]),
   midi.NoteOffEvent(tick=0, channel=8, data=[72, 0]),
   midi.NoteOnEvent(tick=0, channel=8, data=[80, 99]),
   midi.NoteOnEvent(tick=0, channel=8, data=[72, 98]),
   midi.NoteOffEvent(tick=480, channel=8, data=[80, 0]),
   midi.NoteOffEvent(tick=0, channel=8, data=[72, 0]),
   midi.NoteOnEvent(tick=0, channel=8, data=[80, 99]),
   midi.NoteOnEvent(tick=0, channel=8, data=[72, 98]),
   midi.NoteOffEvent(tick=480, channel=8, data=[80, 0]),
   midi.NoteOffEvent(tick=0, channel=8, data=[72, 0]),
   midi.NoteOnEvent(tick=0, channel=8, data=[80, 99]),
   midi.NoteOnEvent(tick=0, channel=8, data=[72, 98]),
   midi.NoteOffEvent(tick=480, channel=8, data=[80, 0]),
   midi.NoteOffEvent(tick=0, channel=8, data=[72, 0]),
   midi.NoteOnEvent(tick=0, channel=8, data=[73, 102]),
   midi.NoteOffEvent(tick=480, channel=8, data=[73, 0]),
   midi.NoteOnEvent(tick=0, channel=8, data=[73, 98]),
   midi.NoteOffEvent(tick=480, channel=8, data=[73, 0]),
   midi.NoteOnEvent(tick=0, channel=8, data=[73, 99]),
   midi.NoteOffEvent(tick=480, channel=8, data=[73, 0]),
   midi.NoteOnEvent(tick=0, channel=8, data=[73, 101]),
   midi.NoteOffEvent(tick=480, channel=8, data=[73, 0]),
   midi.NoteOnEvent(tick=0, channel=8, data=[73, 108]),
   midi.NoteOffEvent(tick=480, channel=8, data=[73, 0]),
   midi.NoteOnEvent(tick=0, channel=8, data=[73, 104]),
   midi.NoteOffEvent(tick=480, channel=8, data=[73, 0]),
   midi.NoteOnEvent(tick=0, channel=8, data=[73, 106]),
   midi.NoteOffEvent(tick=480, channel=8, data=[73, 0]),
   midi.NoteOnEvent(tick=0, channel=8, data=[73, 107]),
   midi.NoteOffEvent(tick=480, channel=8, data=[73, 0]),
   midi.NoteOnEvent(tick=0, channel=8, data=[73, 115]),
   midi.NoteOffEvent(tick=480, channel=8, data=[73, 0]),
   midi.NoteOnEvent(tick=0, channel=8, data=[73, 110]),
   midi.NoteOffEvent(tick=480, channel=8, data=[73, 0]),
   midi.NoteOnEvent(tick=0, channel=8, data=[73, 111]),
   midi.NoteOffEvent(tick=480, channel=8, data=[73, 0]),
   midi.NoteOnEvent(tick=0, channel=8, data=[73, 111]),
   midi.NoteOffEvent(tick=480, channel=8, data=[73, 0]),
   midi.NoteOnEvent(tick=0, channel=8, data=[73, 119]),
   midi.NoteOffEvent(tick=480, channel=8, data=[73, 0]),
   midi.NoteOnEvent(tick=0, channel=8, data=[73, 112]),
   midi.NoteOffEvent(tick=480, channel=8, data=[73, 0]),
   midi.NoteOnEvent(tick=0, channel=8, data=[73, 113]),
   midi.NoteOffEvent(tick=480, channel=8, data=[73, 0]),
   midi.NoteOnEvent(tick=0, channel=8, data=[73, 113]),
   midi.NoteOffEvent(tick=480, channel=8, data=[73, 0]),
   midi.NoteOnEvent(tick=0, channel=8, data=[73, 120]),
   midi.NoteOffEvent(tick=960, channel=8, data=[73, 0]),
   midi.NoteOnEvent(tick=7200, channel=8, data=[84, 113]),
   midi.NoteOnEvent(tick=0, channel=8, data=[75, 113]),
   midi.NoteOffEvent(tick=480, channel=8, data=[84, 0]),
   midi.NoteOffEvent(tick=0, channel=8, data=[75, 0]),
   midi.NoteOnEvent(tick=0, channel=8, data=[84, 113]),
   midi.NoteOnEvent(tick=0, channel=8, data=[75, 113]),
   midi.NoteOffEvent(tick=480, channel=8, data=[84, 0]),
   midi.NoteOffEvent(tick=0, channel=8, data=[75, 0]),
   midi.NoteOnEvent(tick=0, channel=8, data=[84, 113]),
   midi.NoteOnEvent(tick=0, channel=8, data=[75, 113]),
   midi.NoteOffEvent(tick=480, channel=8, data=[84, 0]),
   midi.NoteOffEvent(tick=0, channel=8, data=[75, 0]),
   midi.NoteOnEvent(tick=0, channel=8, data=[84, 120]),
   midi.NoteOnEvent(tick=0, channel=8, data=[75, 120]),
   midi.NoteOffEvent(tick=480, channel=8, data=[84, 0]),
   midi.NoteOffEvent(tick=0, channel=8, data=[75, 0]),
   midi.NoteOnEvent(tick=0, channel=8, data=[84, 113]),
   midi.NoteOnEvent(tick=0, channel=8, data=[75, 113]),
   midi.NoteOffEvent(tick=480, channel=8, data=[84, 0]),
   midi.NoteOffEvent(tick=0, channel=8, data=[75, 0]),
   midi.NoteOnEvent(tick=0, channel=8, data=[84, 113]),
   midi.NoteOnEvent(tick=0, channel=8, data=[75, 113]),
   midi.NoteOffEvent(tick=480, channel=8, data=[84, 0]),
   midi.NoteOffEvent(tick=0, channel=8, data=[75, 0]),
   midi.NoteOnEvent(tick=0, channel=8, data=[84, 113]),
   midi.NoteOnEvent(tick=0, channel=8, data=[75, 113]),
   midi.NoteOffEvent(tick=480, channel=8, data=[84, 0]),
   midi.NoteOffEvent(tick=0, channel=8, data=[75, 0]),
   midi.NoteOnEvent(tick=0, channel=8, data=[84, 120]),
   midi.NoteOnEvent(tick=0, channel=8, data=[75, 120]),
   midi.NoteOffEvent(tick=480, channel=8, data=[84, 0]),
   midi.NoteOffEvent(tick=0, channel=8, data=[75, 0]),
   midi.NoteOnEvent(tick=0, channel=8, data=[84, 113]),
   midi.NoteOnEvent(tick=0, channel=8, data=[75, 113]),
   midi.NoteOffEvent(tick=480, channel=8, data=[84, 0]),
   midi.NoteOffEvent(tick=0, channel=8, data=[75, 0]),
   midi.NoteOnEvent(tick=0, channel=8, data=[84, 113]),
   midi.NoteOnEvent(tick=0, channel=8, data=[75, 113]),
   midi.NoteOffEvent(tick=480, channel=8, data=[84, 0]),
   midi.NoteOffEvent(tick=0, channel=8, data=[75, 0]),
   midi.NoteOnEvent(tick=0, channel=8, data=[84, 113]),
   midi.NoteOnEvent(tick=0, channel=8, data=[75, 113]),
   midi.NoteOffEvent(tick=480, channel=8, data=[84, 0]),
   midi.NoteOffEvent(tick=0, channel=8, data=[75, 0]),
   midi.NoteOnEvent(tick=0, channel=8, data=[84, 120]),
   midi.NoteOnEvent(tick=0, channel=8, data=[75, 120]),
   midi.NoteOffEvent(tick=480, channel=8, data=[84, 0]),
   midi.NoteOffEvent(tick=0, channel=8, data=[75, 0]),
   midi.NoteOnEvent(tick=0, channel=8, data=[84, 113]),
   midi.NoteOnEvent(tick=0, channel=8, data=[75, 113]),
   midi.NoteOffEvent(tick=480, channel=8, data=[84, 0]),
   midi.NoteOffEvent(tick=0, channel=8, data=[75, 0]),
   midi.NoteOnEvent(tick=0, channel=8, data=[84, 113]),
   midi.NoteOnEvent(tick=0, channel=8, data=[75, 113]),
   midi.NoteOffEvent(tick=480, channel=8, data=[84, 0]),
   midi.NoteOffEvent(tick=0, channel=8, data=[75, 0]),
   midi.NoteOnEvent(tick=0, channel=8, data=[84, 113]),
   midi.NoteOnEvent(tick=0, channel=8, data=[75, 113]),
   midi.NoteOffEvent(tick=480, channel=8, data=[84, 0]),
   midi.NoteOffEvent(tick=0, channel=8, data=[75, 0]),
   midi.NoteOnEvent(tick=0, channel=8, data=[84, 120]),
   midi.NoteOnEvent(tick=0, channel=8, data=[75, 120]),
   midi.NoteOffEvent(tick=480, channel=8, data=[84, 0]),
   midi.NoteOffEvent(tick=0, channel=8, data=[75, 0]),
   midi.NoteOnEvent(tick=0, channel=8, data=[84, 113]),
   midi.NoteOnEvent(tick=0, channel=8, data=[75, 113]),
   midi.NoteOffEvent(tick=480, channel=8, data=[84, 0]),
   midi.NoteOffEvent(tick=0, channel=8, data=[75, 0]),
   midi.NoteOnEvent(tick=0, channel=8, data=[84, 113]),
   midi.NoteOnEvent(tick=0, channel=8, data=[75, 113]),
   midi.NoteOffEvent(tick=480, channel=8, data=[84, 0]),
   midi.NoteOffEvent(tick=0, channel=8, data=[75, 0]),
   midi.NoteOnEvent(tick=0, channel=8, data=[84, 113]),
   midi.NoteOnEvent(tick=0, channel=8, data=[75, 113]),
   midi.NoteOffEvent(tick=480, channel=8, data=[84, 0]),
   midi.NoteOffEvent(tick=0, channel=8, data=[75, 0]),
   midi.NoteOnEvent(tick=0, channel=8, data=[84, 120]),
   midi.NoteOnEvent(tick=0, channel=8, data=[75, 120]),
   midi.NoteOffEvent(tick=960, channel=8, data=[84, 0]),
   midi.NoteOffEvent(tick=0, channel=8, data=[75, 0]),
   midi.NoteOnEvent(tick=8640, channel=8, data=[71, 120]),
   midi.NoteOnEvent(tick=480, channel=8, data=[72, 114]),
   midi.NoteOffEvent(tick=8, channel=8, data=[71, 0]),
   midi.NoteOffEvent(tick=446, channel=8, data=[72, 0]),
   midi.NoteOnEvent(tick=26, channel=8, data=[74, 117]),
   midi.NoteOffEvent(tick=480, channel=8, data=[74, 0]),
   midi.NoteOnEvent(tick=0, channel=8, data=[75, 119]),
   midi.NoteOffEvent(tick=480, channel=8, data=[75, 0]),
   midi.NoteOnEvent(tick=0, channel=8, data=[77, 127]),
   midi.NoteOffEvent(tick=480, channel=8, data=[77, 0]),
   midi.NoteOnEvent(tick=0, channel=8, data=[79, 127]),
   midi.NoteOffEvent(tick=480, channel=8, data=[79, 0]),
   midi.NoteOnEvent(tick=0, channel=8, data=[80, 127]),
   midi.NoteOffEvent(tick=480, channel=8, data=[80, 0]),
   midi.NoteOnEvent(tick=0, channel=8, data=[79, 125]),
   midi.NoteOffEvent(tick=480, channel=8, data=[79, 0]),
   midi.NoteOnEvent(tick=0, channel=8, data=[80, 127]),
   midi.NoteOffEvent(tick=480, channel=8, data=[80, 0]),
   midi.NoteOnEvent(tick=0, channel=8, data=[79, 120]),
   midi.NoteOffEvent(tick=480, channel=8, data=[79, 0]),
   midi.NoteOnEvent(tick=0, channel=8, data=[80, 124]),
   midi.NoteOffEvent(tick=480, channel=8, data=[80, 0]),
   midi.NoteOnEvent(tick=0, channel=8, data=[79, 117]),
   midi.NoteOffEvent(tick=480, channel=8, data=[79, 0]),
   midi.NoteOnEvent(tick=1920, channel=8, data=[71, 103]),
   midi.NoteOnEvent(tick=480, channel=8, data=[72, 101]),
   midi.NoteOffEvent(tick=8, channel=8, data=[71, 0]),
   midi.NoteOffEvent(tick=446, channel=8, data=[72, 0]),
   midi.NoteOnEvent(tick=26, channel=8, data=[74, 109]),
   midi.NoteOffEvent(tick=480, channel=8, data=[74, 0]),
   midi.NoteOnEvent(tick=0, channel=8, data=[75, 114]),
   midi.NoteOffEvent(tick=480, channel=8, data=[75, 0]),
   midi.NoteOnEvent(tick=0, channel=8, data=[77, 127]),
   midi.NoteOffEvent(tick=480, channel=8, data=[77, 0]),
   midi.NoteOnEvent(tick=0, channel=8, data=[79, 127]),
   midi.NoteOffEvent(tick=480, channel=8, data=[79, 0]),
   midi.NoteOnEvent(tick=0, channel=8, data=[80, 127]),
   midi.NoteOffEvent(tick=480, channel=8, data=[80, 0]),
   midi.NoteOnEvent(tick=0, channel=8, data=[79, 125]),
   midi.NoteOffEvent(tick=480, channel=8, data=[79, 0]),
   midi.NoteOnEvent(tick=0, channel=8, data=[80, 127]),
   midi.NoteOffEvent(tick=480, channel=8, data=[80, 0]),
   midi.NoteOnEvent(tick=0, channel=8, data=[79, 120]),
   midi.NoteOffEvent(tick=480, channel=8, data=[79, 0]),
   midi.NoteOnEvent(tick=0, channel=8, data=[80, 124]),
   midi.NoteOffEvent(tick=480, channel=8, data=[80, 0]),
   midi.NoteOnEvent(tick=0, channel=8, data=[79, 117]),
   midi.NoteOffEvent(tick=480, channel=8, data=[79, 0]),
   midi.NoteOnEvent(tick=0, channel=8, data=[80, 127]),
   midi.NoteOffEvent(tick=480, channel=8, data=[80, 0]),
   midi.NoteOnEvent(tick=0, channel=8, data=[79, 114]),
   midi.NoteOffEvent(tick=480, channel=8, data=[79, 0]),
   midi.NoteOnEvent(tick=0, channel=8, data=[82, 127]),
   midi.NoteOffEvent(tick=480, channel=8, data=[82, 0]),
   midi.NoteOnEvent(tick=0, channel=8, data=[80, 116]),
   midi.NoteOffEvent(tick=480, channel=8, data=[80, 0]),
   midi.NoteOnEvent(tick=0, channel=8, data=[79, 116]),
   midi.NoteOffEvent(tick=480, channel=8, data=[79, 0]),
   midi.NoteOnEvent(tick=0, channel=8, data=[77, 100]),
   midi.NoteOffEvent(tick=480, channel=8, data=[77, 0]),
   midi.NoteOnEvent(tick=0, channel=8, data=[80, 117]),
   midi.NoteOffEvent(tick=480, channel=8, data=[80, 0]),
   midi.NoteOnEvent(tick=0, channel=8, data=[79, 111]),
   midi.NoteOffEvent(tick=480, channel=8, data=[79, 0]),
   midi.NoteOnEvent(tick=0, channel=8, data=[77, 107]),
   midi.NoteOffEvent(tick=480, channel=8, data=[77, 0]),
   midi.NoteOnEvent(tick=0, channel=8, data=[75, 96]),
   midi.NoteOffEvent(tick=480, channel=8, data=[75, 0]),
   midi.NoteOnEvent(tick=0, channel=8, data=[79, 117]),
   midi.NoteOffEvent(tick=480, channel=8, data=[79, 0]),
   midi.NoteOnEvent(tick=0, channel=8, data=[77, 105]),
   midi.NoteOffEvent(tick=480, channel=8, data=[77, 0]),
   midi.NoteOnEvent(tick=0, channel=8, data=[75, 105]),
   midi.NoteOffEvent(tick=480, channel=8, data=[75, 0]),
   midi.NoteOnEvent(tick=0, channel=8, data=[74, 97]),
   midi.NoteOffEvent(tick=480, channel=8, data=[74, 0]),
   midi.NoteOnEvent(tick=0, channel=8, data=[77, 114]),
   midi.NoteOffEvent(tick=480, channel=8, data=[77, 0]),
   midi.NoteOnEvent(tick=0, channel=8, data=[75, 103]),
   midi.NoteOffEvent(tick=480, channel=8, data=[75, 0]),
   midi.NoteOnEvent(tick=0, channel=8, data=[74, 107]),
   midi.NoteOffEvent(tick=480, channel=8, data=[74, 0]),
   midi.NoteOnEvent(tick=0, channel=8, data=[72, 96]),
   midi.NoteOffEvent(tick=480, channel=8, data=[72, 0]),
   midi.NoteOnEvent(tick=0, channel=8, data=[75, 112]),
   midi.NoteOffEvent(tick=480, channel=8, data=[75, 0]),
   midi.NoteOnEvent(tick=0, channel=8, data=[74, 107]),
   midi.NoteOffEvent(tick=480, channel=8, data=[74, 0]),
   midi.NoteOnEvent(tick=0, channel=8, data=[72, 105]),
   midi.NoteOffEvent(tick=480, channel=8, data=[72, 0]),
   midi.NoteOnEvent(tick=0, channel=8, data=[70, 96]),
   midi.NoteOffEvent(tick=480, channel=8, data=[70, 0]),
   midi.NoteOnEvent(tick=0, channel=8, data=[74, 116]),
   midi.NoteOffEvent(tick=480, channel=8, data=[74, 0]),
   midi.NoteOnEvent(tick=0, channel=8, data=[72, 105]),
   midi.NoteOffEvent(tick=480, channel=8, data=[72, 0]),
   midi.NoteOnEvent(tick=0, channel=8, data=[70, 104]),
   midi.NoteOffEvent(tick=480, channel=8, data=[70, 0]),
   midi.NoteOnEvent(tick=0, channel=8, data=[68, 96]),
   midi.NoteOffEvent(tick=480, channel=8, data=[68, 0]),
   midi.NoteOnEvent(tick=0, channel=8, data=[72, 114]),
   midi.NoteOffEvent(tick=480, channel=8, data=[72, 0]),
   midi.NoteOnEvent(tick=0, channel=8, data=[70, 104]),
   midi.NoteOffEvent(tick=480, channel=8, data=[70, 0]),
   midi.NoteOnEvent(tick=0, channel=8, data=[68, 104]),
   midi.NoteOffEvent(tick=480, channel=8, data=[68, 0]),
   midi.NoteOnEvent(tick=0, channel=8, data=[67, 97]),
   midi.NoteOffEvent(tick=480, channel=8, data=[67, 0]),
   midi.NoteOnEvent(tick=0, channel=8, data=[70, 113]),
   midi.NoteOffEvent(tick=480, channel=8, data=[70, 0]),
   midi.NoteOnEvent(tick=0, channel=8, data=[68, 102]),
   midi.NoteOffEvent(tick=480, channel=8, data=[68, 0]),
   midi.NoteOnEvent(tick=0, channel=8, data=[65, 102]),
   midi.NoteOffEvent(tick=480, channel=8, data=[65, 0]),
   midi.NoteOnEvent(tick=0, channel=8, data=[67, 104]),
   midi.NoteOffEvent(tick=480, channel=8, data=[67, 0]),
   midi.NoteOnEvent(tick=0, channel=8, data=[63, 96]),
   midi.NoteOffEvent(tick=480, channel=8, data=[63, 0]),
   midi.NoteOnEvent(tick=0, channel=8, data=[67, 111]),
   midi.NoteOffEvent(tick=480, channel=8, data=[67, 0]),
   midi.NoteOnEvent(tick=0, channel=8, data=[62, 102]),
   midi.NoteOffEvent(tick=480, channel=8, data=[62, 0]),
   midi.NoteOnEvent(tick=0, channel=8, data=[67, 117]),
   midi.NoteOffEvent(tick=480, channel=8, data=[67, 0]),
   midi.NoteOnEvent(tick=0, channel=8, data=[63, 98]),
   midi.NoteOffEvent(tick=480, channel=8, data=[63, 0]),
   midi.NoteOnEvent(tick=0, channel=8, data=[67, 121]),
   midi.NoteOffEvent(tick=480, channel=8, data=[67, 0]),
   midi.NoteOnEvent(tick=0, channel=8, data=[65, 116]),
   midi.NoteOffEvent(tick=480, channel=8, data=[65, 0]),
   midi.NoteOnEvent(tick=0, channel=8, data=[67, 121]),
   midi.NoteOffEvent(tick=480, channel=8, data=[67, 0]),
   midi.NoteOnEvent(tick=0, channel=8, data=[63, 100]),
   midi.NoteOffEvent(tick=480, channel=8, data=[63, 0]),
   midi.NoteOnEvent(tick=0, channel=8, data=[67, 123]),
   midi.NoteOffEvent(tick=480, channel=8, data=[67, 0]),
   midi.NoteOnEvent(tick=0, channel=8, data=[65, 117]),
   midi.NoteOffEvent(tick=480, channel=8, data=[65, 0]),
   midi.NoteOnEvent(tick=0, channel=8, data=[67, 122]),
   midi.NoteOffEvent(tick=480, channel=8, data=[67, 0]),
   midi.NoteOnEvent(tick=0, channel=8, data=[67, 121]),
   midi.NoteOffEvent(tick=480, channel=8, data=[67, 0]),
   midi.NoteOnEvent(tick=0, channel=8, data=[72, 127]),
   midi.NoteOffEvent(tick=480, channel=8, data=[72, 0]),
   midi.NoteOnEvent(tick=0, channel=8, data=[68, 127]),
   midi.NoteOffEvent(tick=480, channel=8, data=[68, 0]),
   midi.NoteOnEvent(tick=0, channel=8, data=[72, 127]),
   midi.NoteOffEvent(tick=480, channel=8, data=[72, 0]),
   midi.NoteOnEvent(tick=0, channel=8, data=[67, 107]),
   midi.NoteOffEvent(tick=480, channel=8, data=[67, 0]),
   midi.NoteOnEvent(tick=0, channel=8, data=[72, 127]),
   midi.NoteOffEvent(tick=480, channel=8, data=[72, 0]),
   midi.NoteOnEvent(tick=0, channel=8, data=[68, 116]),
   midi.NoteOffEvent(tick=480, channel=8, data=[68, 0]),
   midi.NoteOnEvent(tick=0, channel=8, data=[72, 127]),
   midi.NoteOffEvent(tick=480, channel=8, data=[72, 0]),
   midi.NoteOnEvent(tick=0, channel=8, data=[71, 123]),
   midi.NoteOffEvent(tick=480, channel=8, data=[71, 0]),
   midi.NoteOnEvent(tick=0, channel=8, data=[77, 127]),
   midi.NoteOffEvent(tick=480, channel=8, data=[77, 0]),
   midi.NoteOnEvent(tick=0, channel=8, data=[72, 126]),
   midi.NoteOffEvent(tick=480, channel=8, data=[72, 0]),
   midi.NoteOnEvent(tick=0, channel=8, data=[77, 127]),
   midi.NoteOffEvent(tick=480, channel=8, data=[77, 0]),
   midi.NoteOnEvent(tick=0, channel=8, data=[71, 106]),
   midi.NoteOffEvent(tick=480, channel=8, data=[71, 0]),
   midi.NoteOnEvent(tick=0, channel=8, data=[77, 127]),
   midi.NoteOffEvent(tick=480, channel=8, data=[77, 0]),
   midi.NoteOnEvent(tick=0, channel=8, data=[72, 113]),
   midi.NoteOffEvent(tick=480, channel=8, data=[72, 0]),
   midi.NoteOnEvent(tick=0, channel=8, data=[77, 127]),
   midi.NoteOffEvent(tick=480, channel=8, data=[77, 0]),
   midi.NoteOnEvent(tick=0, channel=8, data=[74, 114]),
   midi.NoteOffEvent(tick=480, channel=8, data=[74, 0]),
   midi.NoteOnEvent(tick=0, channel=8, data=[79, 127]),
   midi.NoteOffEvent(tick=480, channel=8, data=[79, 0]),
   midi.NoteOnEvent(tick=0, channel=8, data=[75, 104]),
   midi.NoteOnEvent(tick=960, channel=8, data=[72, 87]),
   midi.NoteOffEvent(tick=19, channel=8, data=[75, 0]),
   midi.NoteOffEvent(tick=892, channel=8, data=[72, 0]),
   midi.NoteOnEvent(tick=49, channel=8, data=[74, 101]),
   midi.NoteOffEvent(tick=480, channel=8, data=[74, 0]),
   midi.NoteOnEvent(tick=480, channel=8, data=[75, 99]),
   midi.NoteOffEvent(tick=480, channel=8, data=[75, 0]),
   midi.NoteOnEvent(tick=480, channel=8, data=[77, 110]),
   midi.NoteOnEvent(tick=960, channel=8, data=[74, 95]),
   midi.NoteOffEvent(tick=19, channel=8, data=[77, 0]),
   midi.NoteOffEvent(tick=892, channel=8, data=[74, 0]),
   midi.NoteOnEvent(tick=49, channel=8, data=[75, 104]),
   midi.NoteOffEvent(tick=480, channel=8, data=[75, 0]),
   midi.NoteOnEvent(tick=480, channel=8, data=[77, 102]),
   midi.NoteOffEvent(tick=480, channel=8, data=[77, 0]),
   midi.NoteOnEvent(tick=480, channel=8, data=[79, 112]),
   midi.NoteOnEvent(tick=960, channel=8, data=[75, 94]),
   midi.NoteOffEvent(tick=19, channel=8, data=[79, 0]),
   midi.NoteOffEvent(tick=892, channel=8, data=[75, 0]),
   midi.NoteOnEvent(tick=49, channel=8, data=[77, 105]),
   midi.NoteOffEvent(tick=480, channel=8, data=[77, 0]),
   midi.NoteOnEvent(tick=480, channel=8, data=[79, 103]),
   midi.NoteOffEvent(tick=480, channel=8, data=[79, 0]),
   midi.NoteOnEvent(tick=480, channel=8, data=[80, 110]),
   midi.NoteOnEvent(tick=960, channel=8, data=[77, 95]),
   midi.NoteOffEvent(tick=19, channel=8, data=[80, 0]),
   midi.NoteOffEvent(tick=892, channel=8, data=[77, 0]),
   midi.NoteOnEvent(tick=49, channel=8, data=[79, 106]),
   midi.NoteOffEvent(tick=480, channel=8, data=[79, 0]),
   midi.NoteOnEvent(tick=480, channel=8, data=[81, 104]),
   midi.NoteOffEvent(tick=480, channel=8, data=[81, 0]),
   midi.NoteOnEvent(tick=480, channel=8, data=[83, 113]),
   midi.NoteOnEvent(tick=960, channel=8, data=[79, 94]),
   midi.NoteOffEvent(tick=19, channel=8, data=[83, 0]),
   midi.NoteOffEvent(tick=892, channel=8, data=[79, 0]),
   midi.NoteOnEvent(tick=49, channel=8, data=[81, 106]),
   midi.NoteOffEvent(tick=480, channel=8, data=[81, 0]),
   midi.NoteOnEvent(tick=480, channel=8, data=[83, 103]),
   midi.NoteOffEvent(tick=480, channel=8, data=[83, 0]),
   midi.NoteOnEvent(tick=480, channel=8, data=[84, 110]),
   midi.NoteOnEvent(tick=960, channel=8, data=[79, 91]),
   midi.NoteOffEvent(tick=19, channel=8, data=[84, 0]),
   midi.NoteOffEvent(tick=892, channel=8, data=[79, 0]),
   midi.NoteOnEvent(tick=49, channel=8, data=[80, 100]),
   midi.NoteOffEvent(tick=480, channel=8, data=[80, 0]),
   midi.NoteOnEvent(tick=480, channel=8, data=[75, 86]),
   midi.NoteOffEvent(tick=480, channel=8, data=[75, 0]),
   midi.NoteOnEvent(tick=480, channel=8, data=[77, 99]),
   midi.NoteOffEvent(tick=480, channel=8, data=[77, 0]),
   midi.NoteOnEvent(tick=480, channel=8, data=[74, 88]),
   midi.NoteOffEvent(tick=480, channel=8, data=[74, 0]),
   midi.NoteOnEvent(tick=480, channel=8, data=[75, 100]),
   midi.NoteOffEvent(tick=480, channel=8, data=[75, 0]),
   midi.NoteOnEvent(tick=480, channel=8, data=[77, 100]),
   midi.NoteOffEvent(tick=480, channel=8, data=[77, 0]),
   midi.NoteOnEvent(tick=480, channel=8, data=[79, 111]),
   midi.NoteOffEvent(tick=480, channel=8, data=[79, 0]),
   midi.NoteOnEvent(tick=480, channel=8, data=[78, 100]),
   midi.NoteOffEvent(tick=480, channel=8, data=[78, 0]),
   midi.NoteOnEvent(tick=480, channel=8, data=[79, 108]),
   midi.NoteOffEvent(tick=480, channel=8, data=[79, 0]),
   midi.NoteOnEvent(tick=480, channel=8, data=[67, 83]),
   midi.NoteOffEvent(tick=480, channel=8, data=[67, 0]),
   midi.NoteOnEvent(tick=480, channel=8, data=[72, 98]),
   midi.NoteOffEvent(tick=480, channel=8, data=[72, 0]),
   midi.NoteOnEvent(tick=5280, channel=8, data=[63, 102]),
   midi.NoteOffEvent(tick=480, channel=8, data=[63, 0]),
   midi.NoteOnEvent(tick=480, channel=8, data=[65, 99]),
   midi.NoteOffEvent(tick=480, channel=8, data=[65, 0]),
   midi.NoteOnEvent(tick=480, channel=8, data=[67, 107]),
   midi.NoteOnEvent(tick=960, channel=8, data=[63, 94]),
   midi.NoteOffEvent(tick=19, channel=8, data=[67, 0]),
   midi.NoteOffEvent(tick=892, channel=8, data=[63, 0]),
   midi.NoteOnEvent(tick=3889, channel=8, data=[59, 102]),
   midi.NoteOffEvent(tick=480, channel=8, data=[59, 0]),
   midi.NoteOnEvent(tick=480, channel=8, data=[60, 98]),
   midi.NoteOffEvent(tick=480, channel=8, data=[60, 0]),
   midi.NoteOnEvent(tick=480, channel=8, data=[62, 107]),
   midi.NoteOnEvent(tick=960, channel=8, data=[59, 95]),
   midi.NoteOffEvent(tick=19, channel=8, data=[62, 0]),
   midi.NoteOffEvent(tick=892, channel=8, data=[59, 0]),
   midi.NoteOnEvent(tick=3889, channel=8, data=[59, 103]),
   midi.NoteOffEvent(tick=480, channel=8, data=[59, 0]),
   midi.NoteOnEvent(tick=480, channel=8, data=[60, 98]),
   midi.NoteOffEvent(tick=480, channel=8, data=[60, 0]),
   midi.NoteOnEvent(tick=480, channel=8, data=[62, 107]),
   midi.NoteOnEvent(tick=960, channel=8, data=[59, 95]),
   midi.NoteOffEvent(tick=19, channel=8, data=[62, 0]),
   midi.NoteOffEvent(tick=892, channel=8, data=[59, 0]),
   midi.NoteOnEvent(tick=7729, channel=8, data=[65, 104]),
   midi.NoteOnEvent(tick=960, channel=8, data=[63, 96]),
   midi.NoteOffEvent(tick=19, channel=8, data=[65, 0]),
   midi.NoteOffEvent(tick=892, channel=8, data=[63, 0]),
   midi.NoteOnEvent(tick=1969, channel=8, data=[65, 104]),
   midi.NoteOnEvent(tick=960, channel=8, data=[63, 96]),
   midi.NoteOffEvent(tick=19, channel=8, data=[65, 0]),
   midi.NoteOffEvent(tick=892, channel=8, data=[63, 0]),
   midi.NoteOnEvent(tick=49, channel=8, data=[55, 118]),
   midi.NoteOnEvent(tick=0, channel=8, data=[63, 118]),
   midi.NoteOnEvent(tick=0, channel=8, data=[72, 118]),
   midi.NoteOnEvent(tick=0, channel=8, data=[79, 118]),
   midi.NoteOffEvent(tick=960, channel=8, data=[55, 0]),
   midi.NoteOffEvent(tick=0, channel=8, data=[63, 0]),
   midi.NoteOffEvent(tick=0, channel=8, data=[72, 0]),
   midi.NoteOffEvent(tick=0, channel=8, data=[79, 0]),
   midi.NoteOnEvent(tick=960, channel=8, data=[55, 113]),
   midi.NoteOnEvent(tick=0, channel=8, data=[62, 113]),
   midi.NoteOnEvent(tick=0, channel=8, data=[71, 113]),
   midi.NoteOnEvent(tick=0, channel=8, data=[79, 113]),
   midi.NoteOffEvent(tick=960, channel=8, data=[55, 0]),
   midi.NoteOffEvent(tick=0, channel=8, data=[62, 0]),
   midi.NoteOffEvent(tick=0, channel=8, data=[71, 0]),
   midi.NoteOffEvent(tick=0, channel=8, data=[79, 0]),
   midi.NoteOnEvent(tick=960, channel=8, data=[63, 93]),
   midi.NoteOnEvent(tick=960, channel=8, data=[70, 98]),
   midi.NoteOffEvent(tick=19, channel=8, data=[63, 0]),
   midi.NoteOffEvent(tick=892, channel=8, data=[70, 0]),
   midi.NoteOnEvent(tick=49, channel=8, data=[60, 91]),
   midi.NoteOffEvent(tick=960, channel=8, data=[60, 0]),
   midi.NoteOnEvent(tick=0, channel=8, data=[67, 100]),
   midi.NoteOffEvent(tick=960, channel=8, data=[67, 0]),
   midi.NoteOnEvent(tick=0, channel=8, data=[56, 89]),
   midi.NoteOffEvent(tick=960, channel=8, data=[56, 0]),
   midi.NoteOnEvent(tick=0, channel=8, data=[63, 99]),
   midi.NoteOffEvent(tick=960, channel=8, data=[63, 0]),
   midi.NoteOnEvent(tick=1920, channel=8, data=[65, 107]),
   midi.NoteOnEvent(tick=960, channel=8, data=[63, 97]),
   midi.NoteOffEvent(tick=19, channel=8, data=[65, 0]),
   midi.NoteOffEvent(tick=892, channel=8, data=[63, 0]),
   midi.NoteOnEvent(tick=49, channel=8, data=[77, 119]),
   midi.NoteOnEvent(tick=960, channel=8, data=[75, 108]),
   midi.NoteOffEvent(tick=19, channel=8, data=[77, 0]),
   midi.NoteOffEvent(tick=892, channel=8, data=[75, 0]),
   midi.NoteOnEvent(tick=49, channel=8, data=[55, 115]),
   midi.NoteOnEvent(tick=0, channel=8, data=[63, 115]),
   midi.NoteOnEvent(tick=0, channel=8, data=[72, 115]),
   midi.NoteOnEvent(tick=0, channel=8, data=[79, 115]),
   midi.NoteOffEvent(tick=960, channel=8, data=[55, 0]),
   midi.NoteOffEvent(tick=0, channel=8, data=[63, 0]),
   midi.NoteOffEvent(tick=0, channel=8, data=[72, 0]),
   midi.NoteOffEvent(tick=0, channel=8, data=[79, 0]),
   midi.NoteOnEvent(tick=960, channel=8, data=[55, 109]),
   midi.NoteOnEvent(tick=0, channel=8, data=[62, 109]),
   midi.NoteOnEvent(tick=0, channel=8, data=[71, 109]),
   midi.NoteOnEvent(tick=0, channel=8, data=[79, 109]),
   midi.NoteOffEvent(tick=960, channel=8, data=[55, 0]),
   midi.NoteOffEvent(tick=0, channel=8, data=[62, 0]),
   midi.NoteOffEvent(tick=0, channel=8, data=[71, 0]),
   midi.NoteOffEvent(tick=0, channel=8, data=[79, 0]),
   midi.NoteOnEvent(tick=960, channel=8, data=[72, 97]),
   midi.NoteOnEvent(tick=0, channel=8, data=[63, 104]),
   midi.NoteOnEvent(tick=0, channel=8, data=[55, 104]),
   midi.NoteOffEvent(tick=480, channel=8, data=[72, 0]),
   midi.NoteOffEvent(tick=0, channel=8, data=[63, 0]),
   midi.NoteOffEvent(tick=0, channel=8, data=[55, 0]),
   midi.NoteOnEvent(tick=0, channel=8, data=[67, 86]),
   midi.NoteOnEvent(tick=0, channel=8, data=[67, 107]),
   midi.NoteOffEvent(tick=480, channel=8, data=[67, 0]),
   midi.NoteOffEvent(tick=0, channel=8, data=[67, 0]),
   midi.NoteOnEvent(tick=0, channel=8, data=[67, 87]),
   midi.NoteOnEvent(tick=0, channel=8, data=[67, 106]),
   midi.NoteOffEvent(tick=480, channel=8, data=[67, 0]),
   midi.NoteOffEvent(tick=0, channel=8, data=[67, 0]),
   midi.NoteOnEvent(tick=0, channel=8, data=[67, 88]),
   midi.NoteOnEvent(tick=0, channel=8, data=[67, 105]),
   midi.NoteOffEvent(tick=480, channel=8, data=[67, 0]),
   midi.NoteOffEvent(tick=0, channel=8, data=[67, 0]),
   midi.NoteOnEvent(tick=0, channel=8, data=[67, 96]),
   midi.NoteOffEvent(tick=8160, channel=8, data=[67, 0]),
   midi.NoteOnEvent(tick=0, channel=8, data=[67, 98]),
   midi.NoteOffEvent(tick=480, channel=8, data=[67, 0]),
   midi.NoteOnEvent(tick=0, channel=8, data=[67, 98]),
   midi.NoteOffEvent(tick=480, channel=8, data=[67, 0]),
   midi.NoteOnEvent(tick=0, channel=8, data=[67, 98]),
   midi.NoteOffEvent(tick=480, channel=8, data=[67, 0]),
   midi.NoteOnEvent(tick=0, channel=8, data=[60, 91]),
   midi.NoteOffEvent(tick=480, channel=8, data=[60, 0]),
   midi.NoteOnEvent(tick=0, channel=8, data=[67, 103]),
   midi.NoteOffEvent(tick=480, channel=8, data=[67, 0]),
   midi.NoteOnEvent(tick=0, channel=8, data=[67, 103]),
   midi.NoteOffEvent(tick=480, channel=8, data=[67, 0]),
   midi.NoteOnEvent(tick=0, channel=8, data=[67, 102]),
   midi.NoteOffEvent(tick=480, channel=8, data=[67, 0]),
   midi.NoteOnEvent(tick=0, channel=8, data=[67, 108]),
   midi.NoteOffEvent(tick=480, channel=8, data=[67, 0]),
   midi.NoteOnEvent(tick=0, channel=8, data=[67, 101]),
   midi.NoteOffEvent(tick=480, channel=8, data=[67, 0]),
   midi.NoteOnEvent(tick=0, channel=8, data=[67, 101]),
   midi.NoteOffEvent(tick=480, channel=8, data=[67, 0]),
   midi.NoteOnEvent(tick=0, channel=8, data=[67, 100]),
   midi.NoteOffEvent(tick=480, channel=8, data=[67, 0]),
   midi.NoteOnEvent(tick=0, channel=8, data=[67, 106]),
   midi.NoteOffEvent(tick=480, channel=8, data=[67, 0]),
   midi.NoteOnEvent(tick=0, channel=8, data=[67, 99]),
   midi.NoteOffEvent(tick=480, channel=8, data=[67, 0]),
   midi.NoteOnEvent(tick=0, channel=8, data=[67, 99]),
   midi.NoteOffEvent(tick=480, channel=8, data=[67, 0]),
   midi.NoteOnEvent(tick=0, channel=8, data=[67, 99]),
   midi.NoteOffEvent(tick=480, channel=8, data=[67, 0]),
   midi.NoteOnEvent(tick=0, channel=8, data=[67, 104]),
   midi.NoteOffEvent(tick=480, channel=8, data=[67, 0]),
   midi.NoteOnEvent(tick=0, channel=8, data=[67, 98]),
   midi.NoteOffEvent(tick=480, channel=8, data=[67, 0]),
   midi.NoteOnEvent(tick=0, channel=8, data=[67, 98]),
   midi.NoteOffEvent(tick=480, channel=8, data=[67, 0]),
   midi.NoteOnEvent(tick=0, channel=8, data=[67, 98]),
   midi.NoteOffEvent(tick=480, channel=8, data=[67, 0]),
   midi.NoteOnEvent(tick=0, channel=8, data=[63, 102]),
   midi.NoteOffEvent(tick=3840, channel=8, data=[63, 0]),
   midi.NoteOnEvent(tick=480, channel=8, data=[65, 112]),
   midi.NoteOffEvent(tick=480, channel=8, data=[65, 0]),
   midi.NoteOnEvent(tick=0, channel=8, data=[65, 113]),
   midi.NoteOffEvent(tick=480, channel=8, data=[65, 0]),
   midi.NoteOnEvent(tick=0, channel=8, data=[65, 113]),
   midi.NoteOffEvent(tick=480, channel=8, data=[65, 0]),
   midi.NoteOnEvent(tick=0, channel=8, data=[62, 111]),
   midi.NoteOffEvent(tick=7680, channel=8, data=[62, 0]),
   midi.NoteOnEvent(tick=480, channel=8, data=[67, 39]),
   midi.NoteOffEvent(tick=480, channel=8, data=[67, 0]),
   midi.NoteOnEvent(tick=0, channel=8, data=[67, 39]),
   midi.NoteOffEvent(tick=480, channel=8, data=[67, 0]),
   midi.NoteOnEvent(tick=0, channel=8, data=[67, 39]),
   midi.NoteOffEvent(tick=480, channel=8, data=[67, 0]),
   midi.NoteOnEvent(tick=0, channel=8, data=[63, 38]),
   midi.NoteOffEvent(tick=6240, channel=8, data=[63, 0]),
   midi.NoteOnEvent(tick=0, channel=8, data=[67, 39]),
   midi.NoteOffEvent(tick=480, channel=8, data=[67, 0]),
   midi.NoteOnEvent(tick=0, channel=8, data=[67, 39]),
   midi.NoteOffEvent(tick=480, channel=8, data=[67, 0]),
   midi.NoteOnEvent(tick=0, channel=8, data=[67, 39]),
   midi.NoteOffEvent(tick=480, channel=8, data=[67, 0]),
   midi.NoteOnEvent(tick=0, channel=8, data=[63, 38]),
   midi.NoteOffEvent(tick=6240, channel=8, data=[63, 0]),
   midi.NoteOnEvent(tick=0, channel=8, data=[71, 114]),
   midi.NoteOnEvent(tick=0, channel=8, data=[62, 113]),
   midi.NoteOffEvent(tick=480, channel=8, data=[71, 0]),
   midi.NoteOffEvent(tick=0, channel=8, data=[62, 0]),
   midi.NoteOnEvent(tick=0, channel=8, data=[71, 114]),
   midi.NoteOnEvent(tick=0, channel=8, data=[62, 113]),
   midi.NoteOffEvent(tick=480, channel=8, data=[71, 0]),
   midi.NoteOffEvent(tick=0, channel=8, data=[62, 0]),
   midi.NoteOnEvent(tick=0, channel=8, data=[71, 113]),
   midi.NoteOnEvent(tick=0, channel=8, data=[62, 113]),
   midi.NoteOffEvent(tick=480, channel=8, data=[71, 0]),
   midi.NoteOffEvent(tick=0, channel=8, data=[62, 0]),
   midi.NoteOnEvent(tick=0, channel=8, data=[72, 123]),
   midi.NoteOnEvent(tick=0, channel=8, data=[63, 122]),
   midi.NoteOffEvent(tick=960, channel=8, data=[72, 0]),
   midi.NoteOffEvent(tick=0, channel=8, data=[63, 0]),
   midi.NoteOnEvent(tick=1440, channel=8, data=[71, 112]),
   midi.NoteOnEvent(tick=0, channel=8, data=[62, 112]),
   midi.NoteOffEvent(tick=480, channel=8, data=[71, 0]),
   midi.NoteOffEvent(tick=0, channel=8, data=[62, 0]),
   midi.NoteOnEvent(tick=0, channel=8, data=[71, 113]),
   midi.NoteOnEvent(tick=0, channel=8, data=[62, 113]),
   midi.NoteOffEvent(tick=480, channel=8, data=[71, 0]),
   midi.NoteOffEvent(tick=0, channel=8, data=[62, 0]),
   midi.NoteOnEvent(tick=0, channel=8, data=[71, 113]),
   midi.NoteOnEvent(tick=0, channel=8, data=[62, 113]),
   midi.NoteOffEvent(tick=480, channel=8, data=[71, 0]),
   midi.NoteOffEvent(tick=0, channel=8, data=[62, 0]),
   midi.NoteOnEvent(tick=0, channel=8, data=[72, 123]),
   midi.NoteOnEvent(tick=0, channel=8, data=[63, 123]),
   midi.NoteOffEvent(tick=960, channel=8, data=[72, 0]),
   midi.NoteOffEvent(tick=0, channel=8, data=[63, 0]),
   midi.NoteOnEvent(tick=1440, channel=8, data=[71, 112]),
   midi.NoteOnEvent(tick=0, channel=8, data=[62, 112]),
   midi.NoteOffEvent(tick=480, channel=8, data=[71, 0]),
   midi.NoteOffEvent(tick=0, channel=8, data=[62, 0]),
   midi.NoteOnEvent(tick=0, channel=8, data=[71, 113]),
   midi.NoteOnEvent(tick=0, channel=8, data=[62, 113]),
   midi.NoteOffEvent(tick=480, channel=8, data=[71, 0]),
   midi.NoteOffEvent(tick=0, channel=8, data=[62, 0]),
   midi.NoteOnEvent(tick=0, channel=8, data=[71, 113]),
   midi.NoteOnEvent(tick=0, channel=8, data=[62, 113]),
   midi.NoteOffEvent(tick=480, channel=8, data=[71, 0]),
   midi.NoteOffEvent(tick=0, channel=8, data=[62, 0]),
   midi.NoteOnEvent(tick=0, channel=8, data=[63, 123]),
   midi.NoteOnEvent(tick=0, channel=8, data=[63, 123]),
   midi.NoteOnEvent(tick=0, channel=8, data=[72, 123]),
   midi.NoteOffEvent(tick=960, channel=8, data=[63, 0]),
   midi.NoteOffEvent(tick=0, channel=8, data=[63, 0]),
   midi.NoteOffEvent(tick=0, channel=8, data=[72, 0]),
   midi.NoteOnEvent(tick=0, channel=8, data=[55, 112]),
   midi.NoteOnEvent(tick=0, channel=8, data=[62, 112]),
   midi.NoteOnEvent(tick=0, channel=8, data=[71, 112]),
   midi.NoteOffEvent(tick=960, channel=8, data=[55, 0]),
   midi.NoteOffEvent(tick=0, channel=8, data=[62, 0]),
   midi.NoteOffEvent(tick=0, channel=8, data=[71, 0]),
   midi.NoteOnEvent(tick=0, channel=8, data=[55, 122]),
   midi.NoteOnEvent(tick=0, channel=8, data=[63, 122]),
   midi.NoteOnEvent(tick=0, channel=8, data=[72, 122]),
   midi.NoteOffEvent(tick=960, channel=8, data=[55, 0]),
   midi.NoteOffEvent(tick=0, channel=8, data=[63, 0]),
   midi.NoteOffEvent(tick=0, channel=8, data=[72, 0]),
   midi.NoteOnEvent(tick=0, channel=8, data=[55, 112]),
   midi.NoteOnEvent(tick=0, channel=8, data=[62, 112]),
   midi.NoteOnEvent(tick=0, channel=8, data=[71, 112]),
   midi.NoteOffEvent(tick=960, channel=8, data=[55, 0]),
   midi.NoteOffEvent(tick=0, channel=8, data=[62, 0]),
   midi.NoteOffEvent(tick=0, channel=8, data=[71, 0]),
   midi.NoteOnEvent(tick=0, channel=8, data=[55, 122]),
   midi.NoteOnEvent(tick=0, channel=8, data=[63, 122]),
   midi.NoteOnEvent(tick=0, channel=8, data=[72, 122]),
   midi.NoteOffEvent(tick=960, channel=8, data=[55, 0]),
   midi.NoteOffEvent(tick=0, channel=8, data=[63, 0]),
   midi.NoteOffEvent(tick=0, channel=8, data=[72, 0]),
   midi.NoteOnEvent(tick=0, channel=8, data=[62, 127]),
   midi.NoteOnEvent(tick=0, channel=8, data=[71, 127]),
   midi.NoteOnEvent(tick=0, channel=8, data=[79, 127]),
   midi.NoteOffEvent(tick=960, channel=8, data=[62, 0]),
   midi.NoteOffEvent(tick=0, channel=8, data=[71, 0]),
   midi.NoteOffEvent(tick=0, channel=8, data=[79, 0]),
   midi.NoteOnEvent(tick=0, channel=8, data=[63, 127]),
   midi.NoteOnEvent(tick=0, channel=8, data=[72, 127]),
   midi.NoteOnEvent(tick=0, channel=8, data=[79, 127]),
   midi.NoteOffEvent(tick=960, channel=8, data=[63, 0]),
   midi.NoteOffEvent(tick=0, channel=8, data=[72, 0]),
   midi.NoteOffEvent(tick=0, channel=8, data=[79, 0]),
   midi.NoteOnEvent(tick=0, channel=8, data=[62, 122]),
   midi.NoteOnEvent(tick=0, channel=8, data=[71, 122]),
   midi.NoteOnEvent(tick=0, channel=8, data=[79, 122]),
   midi.NoteOffEvent(tick=960, channel=8, data=[62, 0]),
   midi.NoteOffEvent(tick=0, channel=8, data=[71, 0]),
   midi.NoteOffEvent(tick=0, channel=8, data=[79, 0]),
   midi.NoteOnEvent(tick=0, channel=8, data=[63, 125]),
   midi.NoteOnEvent(tick=0, channel=8, data=[72, 125]),
   midi.NoteOnEvent(tick=0, channel=8, data=[79, 125]),
   midi.NoteOffEvent(tick=960, channel=8, data=[63, 0]),
   midi.NoteOffEvent(tick=0, channel=8, data=[72, 0]),
   midi.NoteOffEvent(tick=0, channel=8, data=[79, 0]),
   midi.NoteOnEvent(tick=960, channel=8, data=[55, 107]),
   midi.NoteOnEvent(tick=0, channel=8, data=[62, 107]),
   midi.NoteOnEvent(tick=0, channel=8, data=[71, 107]),
   midi.NoteOffEvent(tick=960, channel=8, data=[55, 0]),
   midi.NoteOffEvent(tick=0, channel=8, data=[62, 0]),
   midi.NoteOffEvent(tick=0, channel=8, data=[71, 0]),
   midi.NoteOnEvent(tick=960, channel=8, data=[55, 115]),
   midi.NoteOnEvent(tick=0, channel=8, data=[63, 115]),
   midi.NoteOnEvent(tick=0, channel=8, data=[72, 115]),
   midi.NoteOffEvent(tick=960, channel=8, data=[55, 0]),
   midi.NoteOffEvent(tick=0, channel=8, data=[63, 0]),
   midi.NoteOffEvent(tick=0, channel=8, data=[72, 0]),
   midi.EndOfTrackEvent(tick=1, data=[])]),
 midi.Track(\
  [midi.ProgramChangeEvent(tick=0, channel=10, data=[48]),
   midi.ControlChangeEvent(tick=0, channel=10, data=[121, 0]),
   midi.ControlChangeEvent(tick=0, channel=10, data=[64, 0]),
   midi.ControlChangeEvent(tick=0, channel=10, data=[91, 60]),
   midi.ControlChangeEvent(tick=0, channel=10, data=[10, 32]),
   midi.ControlChangeEvent(tick=0, channel=10, data=[7, 104]),
   midi.TrackNameEvent(tick=0, text='Violas', data=[86, 105, 111, 108, 97, 115]),
   midi.NoteOnEvent(tick=480, channel=10, data=[55, 113]),
   midi.NoteOffEvent(tick=480, channel=10, data=[55, 0]),
   midi.NoteOnEvent(tick=0, channel=10, data=[55, 113]),
   midi.NoteOffEvent(tick=480, channel=10, data=[55, 0]),
   midi.NoteOnEvent(tick=0, channel=10, data=[55, 113]),
   midi.NoteOffEvent(tick=480, channel=10, data=[55, 0]),
   midi.NoteOnEvent(tick=0, channel=10, data=[51, 111]),
   midi.NoteOffEvent(tick=2880, channel=10, data=[51, 0]),
   midi.NoteOnEvent(tick=480, channel=10, data=[53, 112]),
   midi.NoteOffEvent(tick=480, channel=10, data=[53, 0]),
   midi.NoteOnEvent(tick=0, channel=10, data=[53, 112]),
   midi.NoteOffEvent(tick=480, channel=10, data=[53, 0]),
   midi.NoteOnEvent(tick=0, channel=10, data=[53, 113]),
   midi.NoteOffEvent(tick=480, channel=10, data=[53, 0]),
   midi.NoteOnEvent(tick=0, channel=10, data=[50, 112]),
   midi.NoteOffEvent(tick=2880, channel=10, data=[50, 0]),
   midi.NoteOnEvent(tick=2400, channel=10, data=[68, 64]),
   midi.NoteOffEvent(tick=480, channel=10, data=[68, 0]),
   midi.NoteOnEvent(tick=0, channel=10, data=[68, 63]),
   midi.NoteOffEvent(tick=480, channel=10, data=[68, 0]),
   midi.NoteOnEvent(tick=0, channel=10, data=[68, 62]),
   midi.NoteOffEvent(tick=480, channel=10, data=[68, 0]),
   midi.NoteOnEvent(tick=0, channel=10, data=[67, 64]),
   midi.NoteOffEvent(tick=4800, channel=10, data=[67, 0]),
   midi.NoteOnEvent(tick=1440, channel=10, data=[68, 61]),
   midi.NoteOffEvent(tick=480, channel=10, data=[68, 0]),
   midi.NoteOnEvent(tick=0, channel=10, data=[68, 61]),
   midi.NoteOffEvent(tick=480, channel=10, data=[68, 0]),
   midi.NoteOnEvent(tick=0, channel=10, data=[68, 61]),
   midi.NoteOffEvent(tick=480, channel=10, data=[68, 0]),
   midi.NoteOnEvent(tick=0, channel=10, data=[67, 63]),
   midi.NoteOffEvent(tick=1920, channel=10, data=[67, 0]),
   midi.NoteOnEvent(tick=0, channel=10, data=[62, 58]),
   midi.NoteOffEvent(tick=3840, channel=10, data=[62, 0]),
   midi.NoteOnEvent(tick=0, channel=10, data=[63, 64]),
   midi.NoteOffEvent(tick=480, channel=10, data=[63, 0]),
   midi.NoteOnEvent(tick=0, channel=10, data=[63, 61]),
   midi.NoteOffEvent(tick=480, channel=10, data=[63, 0]),
   midi.NoteOnEvent(tick=0, channel=10, data=[63, 61]),
   midi.NoteOffEvent(tick=480, channel=10, data=[63, 0]),
   midi.NoteOnEvent(tick=0, channel=10, data=[65, 64]),
   midi.NoteOffEvent(tick=480, channel=10, data=[65, 0]),
   midi.NoteOnEvent(tick=0, channel=10, data=[67, 71]),
   midi.NoteOffEvent(tick=2400, channel=10, data=[67, 0]),
   midi.NoteOnEvent(tick=0, channel=10, data=[63, 59]),
   midi.NoteOffEvent(tick=480, channel=10, data=[63, 0]),
   midi.NoteOnEvent(tick=0, channel=10, data=[63, 60]),
   midi.NoteOffEvent(tick=480, channel=10, data=[63, 0]),
   midi.NoteOnEvent(tick=0, channel=10, data=[65, 63]),
   midi.NoteOffEvent(tick=480, channel=10, data=[65, 0]),
   midi.NoteOnEvent(tick=0, channel=10, data=[67, 70]),
   midi.NoteOffEvent(tick=1440, channel=10, data=[67, 0]),
   midi.NoteOnEvent(tick=0, channel=10, data=[62, 88]),
   midi.NoteOffEvent(tick=480, channel=10, data=[62, 0]),
   midi.NoteOnEvent(tick=0, channel=10, data=[63, 104]),
   midi.NoteOffEvent(tick=960, channel=10, data=[63, 0]),
   midi.NoteOnEvent(tick=960, channel=10, data=[56, 91]),
   midi.NoteOffEvent(tick=960, channel=10, data=[56, 0]),
   midi.NoteOnEvent(tick=960, channel=10, data=[55, 97]),
   midi.NoteOffEvent(tick=960, channel=10, data=[55, 0]),
   midi.NoteOnEvent(tick=3360, channel=10, data=[56, 113]),
   midi.NoteOffEvent(tick=480, channel=10, data=[56, 0]),
   midi.NoteOnEvent(tick=0, channel=10, data=[56, 113]),
   midi.NoteOffEvent(tick=480, channel=10, data=[56, 0]),
   midi.NoteOnEvent(tick=0, channel=10, data=[56, 113]),
   midi.NoteOffEvent(tick=480, channel=10, data=[56, 0]),
   midi.NoteOnEvent(tick=0, channel=10, data=[53, 113]),
   midi.NoteOffEvent(tick=3840, channel=10, data=[53, 0]),
   midi.NoteOnEvent(tick=4320, channel=10, data=[56, 61]),
   midi.NoteOffEvent(tick=480, channel=10, data=[56, 0]),
   midi.NoteOnEvent(tick=0, channel=10, data=[56, 61]),
   midi.NoteOffEvent(tick=480, channel=10, data=[56, 0]),
   midi.NoteOnEvent(tick=0, channel=10, data=[56, 61]),
   midi.NoteOffEvent(tick=480, channel=10, data=[56, 0]),
   midi.NoteOnEvent(tick=0, channel=10, data=[55, 63]),
   midi.NoteOffEvent(tick=2880, channel=10, data=[55, 0]),
   midi.NoteOnEvent(tick=3360, channel=10, data=[56, 61]),
   midi.NoteOffEvent(tick=480, channel=10, data=[56, 0]),
   midi.NoteOnEvent(tick=0, channel=10, data=[56, 61]),
   midi.NoteOffEvent(tick=480, channel=10, data=[56, 0]),
   midi.NoteOnEvent(tick=0, channel=10, data=[56, 61]),
   midi.NoteOffEvent(tick=480, channel=10, data=[56, 0]),
   midi.NoteOnEvent(tick=0, channel=10, data=[55, 63]),
   midi.NoteOffEvent(tick=2400, channel=10, data=[55, 0]),
   midi.NoteOnEvent(tick=0, channel=10, data=[63, 67]),
   midi.NoteOffEvent(tick=480, channel=10, data=[63, 0]),
   midi.NoteOnEvent(tick=0, channel=10, data=[63, 66]),
   midi.NoteOffEvent(tick=480, channel=10, data=[63, 0]),
   midi.NoteOnEvent(tick=0, channel=10, data=[60, 61]),
   midi.NoteOffEvent(tick=480, channel=10, data=[60, 0]),
   midi.NoteOnEvent(tick=0, channel=10, data=[62, 94]),
   midi.NoteOffEvent(tick=2400, channel=10, data=[62, 0]),
   midi.NoteOnEvent(tick=0, channel=10, data=[65, 89]),
   midi.NoteOffEvent(tick=480, channel=10, data=[65, 0]),
   midi.NoteOnEvent(tick=0, channel=10, data=[65, 88]),
   midi.NoteOffEvent(tick=480, channel=10, data=[65, 0]),
   midi.NoteOnEvent(tick=0, channel=10, data=[62, 80]),
   midi.NoteOffEvent(tick=480, channel=10, data=[62, 0]),
   midi.NoteOnEvent(tick=0, channel=10, data=[63, 88]),
   midi.NoteOffEvent(tick=2400, channel=10, data=[63, 0]),
   midi.NoteOnEvent(tick=0, channel=10, data=[63, 83]),
   midi.NoteOffEvent(tick=480, channel=10, data=[63, 0]),
   midi.NoteOnEvent(tick=0, channel=10, data=[63, 83]),
   midi.NoteOffEvent(tick=480, channel=10, data=[63, 0]),
   midi.NoteOnEvent(tick=0, channel=10, data=[60, 77]),
   midi.NoteOffEvent(tick=480, channel=10, data=[60, 0]),
   midi.NoteOnEvent(tick=0, channel=10, data=[65, 112]),
   midi.NoteOffEvent(tick=480, channel=10, data=[65, 0]),
   midi.NoteOnEvent(tick=0, channel=10, data=[65, 105]),
   midi.NoteOffEvent(tick=480, channel=10, data=[65, 0]),
   midi.NoteOnEvent(tick=0, channel=10, data=[65, 104]),
   midi.NoteOffEvent(tick=480, channel=10, data=[65, 0]),
   midi.NoteOnEvent(tick=0, channel=10, data=[59, 84]),
   midi.NoteOffEvent(tick=480, channel=10, data=[59, 0]),
   midi.NoteOnEvent(tick=0, channel=10, data=[67, 118]),
   midi.NoteOffEvent(tick=480, channel=10, data=[67, 0]),
   midi.NoteOnEvent(tick=0, channel=10, data=[67, 110]),
   midi.NoteOffEvent(tick=480, channel=10, data=[67, 0]),
   midi.NoteOnEvent(tick=0, channel=10, data=[67, 109]),
   midi.NoteOffEvent(tick=480, channel=10, data=[67, 0]),
   midi.NoteOnEvent(tick=0, channel=10, data=[58, 83]),
   midi.NoteOffEvent(tick=480, channel=10, data=[58, 0]),
   midi.NoteOnEvent(tick=0, channel=10, data=[68, 119]),
   midi.NoteOffEvent(tick=480, channel=10, data=[68, 0]),
   midi.NoteOnEvent(tick=0, channel=10, data=[56, 83]),
   midi.NoteOffEvent(tick=480, channel=10, data=[56, 0]),
   midi.NoteOnEvent(tick=0, channel=10, data=[56, 83]),
   midi.NoteOffEvent(tick=480, channel=10, data=[56, 0]),
   midi.NoteOnEvent(tick=0, channel=10, data=[53, 83]),
   midi.NoteOffEvent(tick=480, channel=10, data=[53, 0]),
   midi.NoteOnEvent(tick=0, channel=10, data=[58, 93]),
   midi.NoteOffEvent(tick=480, channel=10, data=[58, 0]),
   midi.NoteOnEvent(tick=0, channel=10, data=[58, 89]),
   midi.NoteOffEvent(tick=480, channel=10, data=[58, 0]),
   midi.NoteOnEvent(tick=0, channel=10, data=[58, 91]),
   midi.NoteOffEvent(tick=480, channel=10, data=[58, 0]),
   midi.NoteOnEvent(tick=0, channel=10, data=[55, 83]),
   midi.NoteOffEvent(tick=480, channel=10, data=[55, 0]),
   midi.NoteOnEvent(tick=0, channel=10, data=[60, 113]),
   midi.NoteOffEvent(tick=480, channel=10, data=[60, 0]),
   midi.NoteOnEvent(tick=0, channel=10, data=[60, 106]),
   midi.NoteOffEvent(tick=480, channel=10, data=[60, 0]),
   midi.NoteOnEvent(tick=0, channel=10, data=[60, 105]),
   midi.NoteOffEvent(tick=480, channel=10, data=[60, 0]),
   midi.NoteOnEvent(tick=0, channel=10, data=[56, 87]),
   midi.NoteOffEvent(tick=480, channel=10, data=[56, 0]),
   midi.NoteOnEvent(tick=0, channel=10, data=[65, 119]),
   midi.NoteOffEvent(tick=480, channel=10, data=[65, 0]),
   midi.NoteOnEvent(tick=0, channel=10, data=[65, 112]),
   midi.NoteOffEvent(tick=480, channel=10, data=[65, 0]),
   midi.NoteOnEvent(tick=0, channel=10, data=[65, 112]),
   midi.NoteOffEvent(tick=480, channel=10, data=[65, 0]),
   midi.NoteOnEvent(tick=0, channel=10, data=[62, 103]),
   midi.NoteOffEvent(tick=480, channel=10, data=[62, 0]),
   midi.NoteOnEvent(tick=0, channel=10, data=[63, 112]),
   midi.NoteOffEvent(tick=480, channel=10, data=[63, 0]),
   midi.NoteOnEvent(tick=0, channel=10, data=[51, 83]),
   midi.NoteOnEvent(tick=0, channel=10, data=[48, 98]),
   midi.NoteOffEvent(tick=480, channel=10, data=[51, 0]),
   midi.NoteOffEvent(tick=0, channel=10, data=[48, 0]),
   midi.NoteOnEvent(tick=0, channel=10, data=[51, 83]),
   midi.NoteOnEvent(tick=0, channel=10, data=[48, 98]),
   midi.NoteOffEvent(tick=480, channel=10, data=[51, 0]),
   midi.NoteOffEvent(tick=0, channel=10, data=[48, 0]),
   midi.NoteOnEvent(tick=0, channel=10, data=[51, 83]),
   midi.NoteOnEvent(tick=0, channel=10, data=[48, 98]),
   midi.NoteOffEvent(tick=480, channel=10, data=[51, 0]),
   midi.NoteOffEvent(tick=0, channel=10, data=[48, 0]),
   midi.NoteOnEvent(tick=0, channel=10, data=[51, 88]),
   midi.NoteOnEvent(tick=0, channel=10, data=[48, 104]),
   midi.NoteOffEvent(tick=480, channel=10, data=[51, 0]),
   midi.NoteOffEvent(tick=0, channel=10, data=[48, 0]),
   midi.NoteOnEvent(tick=0, channel=10, data=[51, 83]),
   midi.NoteOnEvent(tick=0, channel=10, data=[48, 98]),
   midi.NoteOffEvent(tick=480, channel=10, data=[51, 0]),
   midi.NoteOffEvent(tick=0, channel=10, data=[48, 0]),
   midi.NoteOnEvent(tick=0, channel=10, data=[51, 85]),
   midi.NoteOnEvent(tick=0, channel=10, data=[48, 98]),
   midi.NoteOffEvent(tick=480, channel=10, data=[51, 0]),
   midi.NoteOffEvent(tick=0, channel=10, data=[48, 0]),
   midi.NoteOnEvent(tick=0, channel=10, data=[51, 87]),
   midi.NoteOnEvent(tick=0, channel=10, data=[48, 98]),
   midi.NoteOffEvent(tick=480, channel=10, data=[51, 0]),
   midi.NoteOffEvent(tick=0, channel=10, data=[48, 0]),
   midi.NoteOnEvent(tick=0, channel=10, data=[51, 93]),
   midi.NoteOnEvent(tick=0, channel=10, data=[48, 104]),
   midi.NoteOffEvent(tick=480, channel=10, data=[51, 0]),
   midi.NoteOffEvent(tick=0, channel=10, data=[48, 0]),
   midi.NoteOnEvent(tick=0, channel=10, data=[51, 91]),
   midi.NoteOnEvent(tick=0, channel=10, data=[48, 98]),
   midi.NoteOffEvent(tick=480, channel=10, data=[51, 0]),
   midi.NoteOffEvent(tick=0, channel=10, data=[48, 0]),
   midi.NoteOnEvent(tick=0, channel=10, data=[51, 93]),
   midi.NoteOnEvent(tick=0, channel=10, data=[48, 98]),
   midi.NoteOffEvent(tick=480, channel=10, data=[51, 0]),
   midi.NoteOffEvent(tick=0, channel=10, data=[48, 0]),
   midi.NoteOnEvent(tick=0, channel=10, data=[51, 94]),
   midi.NoteOnEvent(tick=0, channel=10, data=[48, 98]),
   midi.NoteOffEvent(tick=480, channel=10, data=[51, 0]),
   midi.NoteOffEvent(tick=0, channel=10, data=[48, 0]),
   midi.NoteOnEvent(tick=0, channel=10, data=[51, 101]),
   midi.NoteOnEvent(tick=0, channel=10, data=[48, 104]),
   midi.NoteOffEvent(tick=480, channel=10, data=[51, 0]),
   midi.NoteOffEvent(tick=0, channel=10, data=[48, 0]),
   midi.NoteOnEvent(tick=0, channel=10, data=[51, 96]),
   midi.NoteOnEvent(tick=0, channel=10, data=[48, 98]),
   midi.NoteOffEvent(tick=480, channel=10, data=[51, 0]),
   midi.NoteOffEvent(tick=0, channel=10, data=[48, 0]),
   midi.NoteOnEvent(tick=0, channel=10, data=[51, 97]),
   midi.NoteOnEvent(tick=0, channel=10, data=[48, 98]),
   midi.NoteOffEvent(tick=480, channel=10, data=[51, 0]),
   midi.NoteOffEvent(tick=0, channel=10, data=[48, 0]),
   midi.NoteOnEvent(tick=0, channel=10, data=[51, 97]),
   midi.NoteOnEvent(tick=0, channel=10, data=[48, 98]),
   midi.NoteOffEvent(tick=480, channel=10, data=[51, 0]),
   midi.NoteOffEvent(tick=0, channel=10, data=[48, 0]),
   midi.NoteOnEvent(tick=0, channel=10, data=[53, 113]),
   midi.NoteOnEvent(tick=0, channel=10, data=[50, 112]),
   midi.NoteOffEvent(tick=480, channel=10, data=[53, 0]),
   midi.NoteOffEvent(tick=0, channel=10, data=[50, 0]),
   midi.NoteOnEvent(tick=0, channel=10, data=[53, 105]),
   midi.NoteOnEvent(tick=0, channel=10, data=[50, 104]),
   midi.NoteOffEvent(tick=480, channel=10, data=[53, 0]),
   midi.NoteOffEvent(tick=0, channel=10, data=[50, 0]),
   midi.NoteOnEvent(tick=0, channel=10, data=[53, 104]),
   midi.NoteOnEvent(tick=0, channel=10, data=[50, 103]),
   midi.NoteOffEvent(tick=480, channel=10, data=[53, 0]),
   midi.NoteOffEvent(tick=0, channel=10, data=[50, 0]),
   midi.NoteOnEvent(tick=0, channel=10, data=[53, 103]),
   midi.NoteOnEvent(tick=0, channel=10, data=[50, 102]),
   midi.NoteOffEvent(tick=480, channel=10, data=[53, 0]),
   midi.NoteOffEvent(tick=0, channel=10, data=[50, 0]),
   midi.NoteOnEvent(tick=0, channel=10, data=[53, 108]),
   midi.NoteOnEvent(tick=0, channel=10, data=[50, 107]),
   midi.NoteOffEvent(tick=480, channel=10, data=[53, 0]),
   midi.NoteOffEvent(tick=0, channel=10, data=[50, 0]),
   midi.NoteOnEvent(tick=0, channel=10, data=[53, 101]),
   midi.NoteOnEvent(tick=0, channel=10, data=[50, 101]),
   midi.NoteOffEvent(tick=480, channel=10, data=[53, 0]),
   midi.NoteOffEvent(tick=0, channel=10, data=[50, 0]),
   midi.NoteOnEvent(tick=0, channel=10, data=[53, 100]),
   midi.NoteOnEvent(tick=0, channel=10, data=[50, 100]),
   midi.NoteOffEvent(tick=480, channel=10, data=[53, 0]),
   midi.NoteOffEvent(tick=0, channel=10, data=[50, 0]),
   midi.NoteOnEvent(tick=0, channel=10, data=[53, 100]),
   midi.NoteOnEvent(tick=0, channel=10, data=[50, 99]),
   midi.NoteOffEvent(tick=480, channel=10, data=[53, 0]),
   midi.NoteOffEvent(tick=0, channel=10, data=[50, 0]),
   midi.NoteOnEvent(tick=0, channel=10, data=[53, 105]),
   midi.NoteOnEvent(tick=0, channel=10, data=[50, 105]),
   midi.NoteOffEvent(tick=480, channel=10, data=[53, 0]),
   midi.NoteOffEvent(tick=0, channel=10, data=[50, 0]),
   midi.NoteOnEvent(tick=0, channel=10, data=[53, 99]),
   midi.NoteOnEvent(tick=0, channel=10, data=[50, 99]),
   midi.NoteOffEvent(tick=480, channel=10, data=[53, 0]),
   midi.NoteOffEvent(tick=0, channel=10, data=[50, 0]),
   midi.NoteOnEvent(tick=0, channel=10, data=[53, 98]),
   midi.NoteOnEvent(tick=0, channel=10, data=[50, 98]),
   midi.NoteOffEvent(tick=480, channel=10, data=[53, 0]),
   midi.NoteOffEvent(tick=0, channel=10, data=[50, 0]),
   midi.NoteOnEvent(tick=0, channel=10, data=[53, 98]),
   midi.NoteOnEvent(tick=0, channel=10, data=[50, 98]),
   midi.NoteOffEvent(tick=480, channel=10, data=[53, 0]),
   midi.NoteOffEvent(tick=0, channel=10, data=[50, 0]),
   midi.NoteOnEvent(tick=0, channel=10, data=[53, 104]),
   midi.NoteOnEvent(tick=0, channel=10, data=[50, 104]),
   midi.NoteOffEvent(tick=480, channel=10, data=[53, 0]),
   midi.NoteOffEvent(tick=0, channel=10, data=[50, 0]),
   midi.NoteOnEvent(tick=0, channel=10, data=[53, 98]),
   midi.NoteOnEvent(tick=0, channel=10, data=[50, 98]),
   midi.NoteOffEvent(tick=480, channel=10, data=[53, 0]),
   midi.NoteOffEvent(tick=0, channel=10, data=[50, 0]),
   midi.NoteOnEvent(tick=0, channel=10, data=[51, 90]),
   midi.NoteOnEvent(tick=0, channel=10, data=[48, 91]),
   midi.NoteOffEvent(tick=480, channel=10, data=[51, 0]),
   midi.NoteOffEvent(tick=0, channel=10, data=[48, 0]),
   midi.NoteOnEvent(tick=0, channel=10, data=[51, 91]),
   midi.NoteOnEvent(tick=0, channel=10, data=[48, 92]),
   midi.NoteOffEvent(tick=480, channel=10, data=[51, 0]),
   midi.NoteOffEvent(tick=0, channel=10, data=[48, 0]),
   midi.NoteOnEvent(tick=0, channel=10, data=[51, 113]),
   midi.NoteOnEvent(tick=0, channel=10, data=[48, 114]),
   midi.NoteOffEvent(tick=480, channel=10, data=[51, 0]),
   midi.NoteOffEvent(tick=0, channel=10, data=[48, 0]),
   midi.NoteOnEvent(tick=0, channel=10, data=[54, 123]),
   midi.NoteOnEvent(tick=0, channel=10, data=[51, 122]),
   midi.NoteOffEvent(tick=480, channel=10, data=[54, 0]),
   midi.NoteOffEvent(tick=0, channel=10, data=[51, 0]),
   midi.NoteOnEvent(tick=0, channel=10, data=[54, 122]),
   midi.NoteOnEvent(tick=0, channel=10, data=[51, 120]),
   midi.NoteOffEvent(tick=480, channel=10, data=[54, 0]),
   midi.NoteOffEvent(tick=0, channel=10, data=[51, 0]),
   midi.NoteOnEvent(tick=0, channel=10, data=[54, 120]),
   midi.NoteOnEvent(tick=0, channel=10, data=[51, 119]),
   midi.NoteOffEvent(tick=480, channel=10, data=[54, 0]),
   midi.NoteOffEvent(tick=0, channel=10, data=[51, 0]),
   midi.NoteOnEvent(tick=0, channel=10, data=[54, 126]),
   midi.NoteOnEvent(tick=0, channel=10, data=[51, 125]),
   midi.NoteOffEvent(tick=480, channel=10, data=[54, 0]),
   midi.NoteOffEvent(tick=0, channel=10, data=[51, 0]),
   midi.NoteOnEvent(tick=0, channel=10, data=[54, 118]),
   midi.NoteOnEvent(tick=0, channel=10, data=[51, 117]),
   midi.NoteOffEvent(tick=480, channel=10, data=[54, 0]),
   midi.NoteOffEvent(tick=0, channel=10, data=[51, 0]),
   midi.NoteOnEvent(tick=0, channel=10, data=[54, 117]),
   midi.NoteOnEvent(tick=0, channel=10, data=[51, 117]),
   midi.NoteOffEvent(tick=480, channel=10, data=[54, 0]),
   midi.NoteOffEvent(tick=0, channel=10, data=[51, 0]),
   midi.NoteOnEvent(tick=0, channel=10, data=[54, 116]),
   midi.NoteOnEvent(tick=0, channel=10, data=[51, 116]),
   midi.NoteOffEvent(tick=480, channel=10, data=[54, 0]),
   midi.NoteOffEvent(tick=0, channel=10, data=[51, 0]),
   midi.NoteOnEvent(tick=0, channel=10, data=[54, 123]),
   midi.NoteOnEvent(tick=0, channel=10, data=[51, 122]),
   midi.NoteOffEvent(tick=480, channel=10, data=[54, 0]),
   midi.NoteOffEvent(tick=0, channel=10, data=[51, 0]),
   midi.NoteOnEvent(tick=0, channel=10, data=[54, 115]),
   midi.NoteOnEvent(tick=0, channel=10, data=[51, 115]),
   midi.NoteOffEvent(tick=480, channel=10, data=[54, 0]),
   midi.NoteOffEvent(tick=0, channel=10, data=[51, 0]),
   midi.NoteOnEvent(tick=0, channel=10, data=[54, 115]),
   midi.NoteOnEvent(tick=0, channel=10, data=[51, 114]),
   midi.NoteOffEvent(tick=480, channel=10, data=[54, 0]),
   midi.NoteOffEvent(tick=0, channel=10, data=[51, 0]),
   midi.NoteOnEvent(tick=0, channel=10, data=[54, 114]),
   midi.NoteOnEvent(tick=0, channel=10, data=[51, 114]),
   midi.NoteOffEvent(tick=480, channel=10, data=[54, 0]),
   midi.NoteOffEvent(tick=0, channel=10, data=[51, 0]),
   midi.NoteOnEvent(tick=0, channel=10, data=[54, 121]),
   midi.NoteOnEvent(tick=0, channel=10, data=[51, 120]),
   midi.NoteOffEvent(tick=480, channel=10, data=[54, 0]),
   midi.NoteOffEvent(tick=0, channel=10, data=[51, 0]),
   midi.NoteOnEvent(tick=0, channel=10, data=[54, 113]),
   midi.NoteOnEvent(tick=0, channel=10, data=[51, 113]),
   midi.NoteOffEvent(tick=480, channel=10, data=[54, 0]),
   midi.NoteOffEvent(tick=0, channel=10, data=[51, 0]),
   midi.NoteOnEvent(tick=0, channel=10, data=[54, 113]),
   midi.NoteOnEvent(tick=0, channel=10, data=[51, 113]),
   midi.NoteOffEvent(tick=480, channel=10, data=[54, 0]),
   midi.NoteOffEvent(tick=0, channel=10, data=[51, 0]),
   midi.NoteOnEvent(tick=0, channel=10, data=[54, 113]),
   midi.NoteOnEvent(tick=0, channel=10, data=[51, 113]),
   midi.NoteOffEvent(tick=480, channel=10, data=[54, 0]),
   midi.NoteOffEvent(tick=0, channel=10, data=[51, 0]),
   midi.NoteOnEvent(tick=0, channel=10, data=[54, 120]),
   midi.NoteOnEvent(tick=0, channel=10, data=[51, 120]),
   midi.NoteOffEvent(tick=960, channel=10, data=[54, 0]),
   midi.NoteOffEvent(tick=0, channel=10, data=[51, 0]),
   midi.NoteOnEvent(tick=2880, channel=10, data=[53, 119]),
   midi.NoteOffEvent(tick=960, channel=10, data=[53, 0]),
   midi.NoteOnEvent(tick=8640, channel=10, data=[63, 65]),
   midi.NoteOnEvent(tick=1920, channel=10, data=[65, 65]),
   midi.NoteOffEvent(tick=38, channel=10, data=[63, 0]),
   midi.NoteOffEvent(tick=1785, channel=10, data=[65, 0]),
   midi.NoteOnEvent(tick=97, channel=10, data=[62, 63]),
   midi.NoteOnEvent(tick=1920, channel=10, data=[63, 65]),
   midi.NoteOffEvent(tick=38, channel=10, data=[62, 0]),
   midi.NoteOffEvent(tick=1785, channel=10, data=[63, 0]),
   midi.NoteOnEvent(tick=97, channel=10, data=[63, 65]),
   midi.NoteOnEvent(tick=1920, channel=10, data=[65, 66]),
   midi.NoteOffEvent(tick=38, channel=10, data=[63, 0]),
   midi.NoteOffEvent(tick=1785, channel=10, data=[65, 0]),
   midi.NoteOnEvent(tick=97, channel=10, data=[62, 63]),
   midi.NoteOnEvent(tick=1920, channel=10, data=[63, 65]),
   midi.NoteOffEvent(tick=38, channel=10, data=[62, 0]),
   midi.NoteOffEvent(tick=1785, channel=10, data=[63, 0]),
   midi.NoteOnEvent(tick=97, channel=10, data=[63, 65]),
   midi.NoteOnEvent(tick=1920, channel=10, data=[65, 66]),
   midi.NoteOffEvent(tick=38, channel=10, data=[63, 0]),
   midi.NoteOffEvent(tick=1785, channel=10, data=[65, 0]),
   midi.NoteOnEvent(tick=97, channel=10, data=[62, 63]),
   midi.NoteOnEvent(tick=1920, channel=10, data=[63, 65]),
   midi.NoteOffEvent(tick=38, channel=10, data=[62, 0]),
   midi.NoteOffEvent(tick=1785, channel=10, data=[63, 0]),
   midi.NoteOnEvent(tick=97, channel=10, data=[63, 65]),
   midi.NoteOnEvent(tick=1920, channel=10, data=[64, 65]),
   midi.NoteOffEvent(tick=38, channel=10, data=[63, 0]),
   midi.NoteOffEvent(tick=1785, channel=10, data=[64, 0]),
   midi.NoteOnEvent(tick=97, channel=10, data=[64, 65]),
   midi.NoteOnEvent(tick=1920, channel=10, data=[60, 62]),
   midi.NoteOffEvent(tick=38, channel=10, data=[64, 0]),
   midi.NoteOffEvent(tick=1785, channel=10, data=[60, 0]),
   midi.NoteOnEvent(tick=97, channel=10, data=[65, 67]),
   midi.NoteOnEvent(tick=1920, channel=10, data=[67, 67]),
   midi.NoteOffEvent(tick=38, channel=10, data=[65, 0]),
   midi.NoteOffEvent(tick=1785, channel=10, data=[67, 0]),
   midi.NoteOnEvent(tick=97, channel=10, data=[67, 65]),
   midi.NoteOnEvent(tick=1920, channel=10, data=[63, 62]),
   midi.NoteOffEvent(tick=38, channel=10, data=[67, 0]),
   midi.NoteOffEvent(tick=1785, channel=10, data=[63, 0]),
   midi.NoteOnEvent(tick=2497, channel=10, data=[57, 60]),
   midi.NoteOffEvent(tick=480, channel=10, data=[57, 0]),
   midi.NoteOnEvent(tick=0, channel=10, data=[57, 60]),
   midi.NoteOffEvent(tick=480, channel=10, data=[57, 0]),
   midi.NoteOnEvent(tick=0, channel=10, data=[57, 65]),
   midi.NoteOffEvent(tick=480, channel=10, data=[57, 0]),
   midi.NoteOnEvent(tick=0, channel=10, data=[57, 75]),
   midi.NoteOffEvent(tick=960, channel=10, data=[57, 0]),
   midi.NoteOnEvent(tick=1440, channel=10, data=[58, 72]),
   midi.NoteOffEvent(tick=480, channel=10, data=[58, 0]),
   midi.NoteOnEvent(tick=0, channel=10, data=[58, 72]),
   midi.NoteOffEvent(tick=480, channel=10, data=[58, 0]),
   midi.NoteOnEvent(tick=0, channel=10, data=[58, 72]),
   midi.NoteOffEvent(tick=480, channel=10, data=[58, 0]),
   midi.NoteOnEvent(tick=0, channel=10, data=[58, 76]),
   midi.NoteOffEvent(tick=960, channel=10, data=[58, 0]),
   midi.NoteOnEvent(tick=1440, channel=10, data=[59, 85]),
   midi.NoteOffEvent(tick=480, channel=10, data=[59, 0]),
   midi.NoteOnEvent(tick=0, channel=10, data=[59, 85]),
   midi.NoteOffEvent(tick=480, channel=10, data=[59, 0]),
   midi.NoteOnEvent(tick=0, channel=10, data=[59, 85]),
   midi.NoteOffEvent(tick=480, channel=10, data=[59, 0]),
   midi.NoteOnEvent(tick=0, channel=10, data=[59, 90]),
   midi.NoteOffEvent(tick=960, channel=10, data=[59, 0]),
   midi.NoteOnEvent(tick=1440, channel=10, data=[60, 85]),
   midi.NoteOffEvent(tick=480, channel=10, data=[60, 0]),
   midi.NoteOnEvent(tick=0, channel=10, data=[60, 85]),
   midi.NoteOffEvent(tick=480, channel=10, data=[60, 0]),
   midi.NoteOnEvent(tick=0, channel=10, data=[60, 85]),
   midi.NoteOffEvent(tick=480, channel=10, data=[60, 0]),
   midi.NoteOnEvent(tick=0, channel=10, data=[60, 90]),
   midi.NoteOffEvent(tick=960, channel=10, data=[60, 0]),
   midi.NoteOnEvent(tick=1440, channel=10, data=[60, 84]),
   midi.NoteOffEvent(tick=480, channel=10, data=[60, 0]),
   midi.NoteOnEvent(tick=0, channel=10, data=[60, 84]),
   midi.NoteOffEvent(tick=480, channel=10, data=[60, 0]),
   midi.NoteOnEvent(tick=0, channel=10, data=[60, 84]),
   midi.NoteOffEvent(tick=480, channel=10, data=[60, 0]),
   midi.NoteOnEvent(tick=0, channel=10, data=[60, 89]),
   midi.NoteOffEvent(tick=960, channel=10, data=[60, 0]),
   midi.NoteOnEvent(tick=0, channel=10, data=[60, 84]),
   midi.NoteOffEvent(tick=480, channel=10, data=[60, 0]),
   midi.NoteOnEvent(tick=0, channel=10, data=[60, 84]),
   midi.NoteOffEvent(tick=480, channel=10, data=[60, 0]),
   midi.NoteOnEvent(tick=0, channel=10, data=[62, 127]),
   midi.NoteOffEvent(tick=2880, channel=10, data=[62, 0]),
   midi.NoteOnEvent(tick=0, channel=10, data=[50, 100]),
   midi.NoteOffEvent(tick=960, channel=10, data=[50, 0]),
   midi.NoteOnEvent(tick=0, channel=10, data=[51, 112]),
   midi.NoteOffEvent(tick=960, channel=10, data=[51, 0]),
   midi.NoteOnEvent(tick=960, channel=10, data=[53, 120]),
   midi.NoteOffEvent(tick=960, channel=10, data=[53, 0]),
   midi.NoteOnEvent(tick=960, channel=10, data=[55, 123]),
   midi.NoteOffEvent(tick=960, channel=10, data=[55, 0]),
   midi.NoteOnEvent(tick=960, channel=10, data=[56, 122]),
   midi.NoteOffEvent(tick=960, channel=10, data=[56, 0]),
   midi.NoteOnEvent(tick=960, channel=10, data=[58, 123]),
   midi.NoteOffEvent(tick=960, channel=10, data=[58, 0]),
   midi.NoteOnEvent(tick=960, channel=10, data=[58, 121]),
   midi.NoteOffEvent(tick=960, channel=10, data=[58, 0]),
   midi.NoteOnEvent(tick=960, channel=10, data=[53, 115]),
   midi.NoteOffEvent(tick=480, channel=10, data=[53, 0]),
   midi.NoteOnEvent(tick=0, channel=10, data=[53, 109]),
   midi.NoteOffEvent(tick=480, channel=10, data=[53, 0]),
   midi.NoteOnEvent(tick=0, channel=10, data=[58, 122]),
   midi.NoteOffEvent(tick=480, channel=10, data=[58, 0]),
   midi.NoteOnEvent(tick=0, channel=10, data=[58, 121]),
   midi.NoteOffEvent(tick=480, channel=10, data=[58, 0]),
   midi.NoteOnEvent(tick=0, channel=10, data=[53, 109]),
   midi.NoteOffEvent(tick=480, channel=10, data=[53, 0]),
   midi.NoteOnEvent(tick=0, channel=10, data=[53, 105]),
   midi.NoteOffEvent(tick=480, channel=10, data=[53, 0]),
   midi.NoteOnEvent(tick=0, channel=10, data=[58, 125]),
   midi.NoteOffEvent(tick=480, channel=10, data=[58, 0]),
   midi.NoteOnEvent(tick=0, channel=10, data=[58, 125]),
   midi.NoteOffEvent(tick=480, channel=10, data=[58, 0]),
   midi.NoteOnEvent(tick=0, channel=10, data=[55, 115]),
   midi.NoteOffEvent(tick=480, channel=10, data=[55, 0]),
   midi.NoteOnEvent(tick=0, channel=10, data=[55, 109]),
   midi.NoteOffEvent(tick=480, channel=10, data=[55, 0]),
   midi.NoteOnEvent(tick=0, channel=10, data=[58, 125]),
   midi.NoteOffEvent(tick=480, channel=10, data=[58, 0]),
   midi.NoteOnEvent(tick=0, channel=10, data=[58, 123]),
   midi.NoteOffEvent(tick=480, channel=10, data=[58, 0]),
   midi.NoteOnEvent(tick=0, channel=10, data=[56, 118]),
   midi.NoteOffEvent(tick=480, channel=10, data=[56, 0]),
   midi.NoteOnEvent(tick=0, channel=10, data=[56, 111]),
   midi.NoteOffEvent(tick=480, channel=10, data=[56, 0]),
   midi.NoteOnEvent(tick=0, channel=10, data=[58, 122]),
   midi.NoteOffEvent(tick=480, channel=10, data=[58, 0]),
   midi.NoteOnEvent(tick=0, channel=10, data=[58, 121]),
   midi.NoteOffEvent(tick=480, channel=10, data=[58, 0]),
   midi.NoteOnEvent(tick=0, channel=10, data=[67, 127]),
   midi.NoteOnEvent(tick=480, channel=10, data=[65, 127]),
   midi.NoteOffEvent(tick=8, channel=10, data=[67, 0]),
   midi.NoteOffEvent(tick=446, channel=10, data=[65, 0]),
   midi.NoteOnEvent(tick=26, channel=10, data=[58, 103]),
   midi.NoteOffEvent(tick=240, channel=10, data=[58, 0]),
   midi.NoteOnEvent(tick=240, channel=10, data=[55, 96]),
   midi.NoteOffEvent(tick=240, channel=10, data=[55, 0]),
   midi.NoteOnEvent(tick=240, channel=10, data=[62, 127]),
   midi.NoteOnEvent(tick=480, channel=10, data=[60, 112]),
   midi.NoteOffEvent(tick=8, channel=10, data=[62, 0]),
   midi.NoteOffEvent(tick=446, channel=10, data=[60, 0]),
   midi.NoteOnEvent(tick=26, channel=10, data=[56, 97]),
   midi.NoteOffEvent(tick=240, channel=10, data=[56, 0]),
   midi.NoteOnEvent(tick=240, channel=10, data=[53, 96]),
   midi.NoteOffEvent(tick=240, channel=10, data=[53, 0]),
   midi.NoteOnEvent(tick=240, channel=10, data=[60, 121]),
   midi.NoteOnEvent(tick=480, channel=10, data=[58, 106]),
   midi.NoteOffEvent(tick=8, channel=10, data=[60, 0]),
   midi.NoteOffEvent(tick=446, channel=10, data=[58, 0]),
   midi.NoteOnEvent(tick=26, channel=10, data=[55, 98]),
   midi.NoteOffEvent(tick=240, channel=10, data=[55, 0]),
   midi.NoteOnEvent(tick=240, channel=10, data=[51, 96]),
   midi.NoteOffEvent(tick=240, channel=10, data=[51, 0]),
   midi.NoteOnEvent(tick=240, channel=10, data=[50, 102]),
   midi.NoteOffEvent(tick=480, channel=10, data=[50, 0]),
   midi.NoteOnEvent(tick=0, channel=10, data=[62, 127]),
   midi.NoteOnEvent(tick=0, channel=10, data=[53, 113]),
   midi.NoteOffEvent(tick=480, channel=10, data=[62, 0]),
   midi.NoteOffEvent(tick=0, channel=10, data=[53, 0]),
   midi.NoteOnEvent(tick=0, channel=10, data=[65, 127]),
   midi.NoteOnEvent(tick=0, channel=10, data=[56, 116]),
   midi.NoteOffEvent(tick=480, channel=10, data=[65, 0]),
   midi.NoteOffEvent(tick=0, channel=10, data=[56, 0]),
   midi.NoteOnEvent(tick=0, channel=10, data=[62, 125]),
   midi.NoteOnEvent(tick=0, channel=10, data=[53, 111]),
   midi.NoteOffEvent(tick=480, channel=10, data=[62, 0]),
   midi.NoteOffEvent(tick=0, channel=10, data=[53, 0]),
   midi.NoteOnEvent(tick=0, channel=10, data=[55, 103]),
   midi.NoteOffEvent(tick=6240, channel=10, data=[55, 0]),
   midi.NoteOnEvent(tick=0, channel=10, data=[58, 113]),
   midi.NoteOffEvent(tick=480, channel=10, data=[58, 0]),
   midi.NoteOnEvent(tick=0, channel=10, data=[58, 113]),
   midi.NoteOffEvent(tick=480, channel=10, data=[58, 0]),
   midi.NoteOnEvent(tick=0, channel=10, data=[58, 113]),
   midi.NoteOffEvent(tick=480, channel=10, data=[58, 0]),
   midi.NoteOnEvent(tick=0, channel=10, data=[58, 120]),
   midi.NoteOffEvent(tick=6240, channel=10, data=[58, 0]),
   midi.NoteOnEvent(tick=0, channel=10, data=[58, 113]),
   midi.NoteOffEvent(tick=480, channel=10, data=[58, 0]),
   midi.NoteOnEvent(tick=0, channel=10, data=[58, 113]),
   midi.NoteOffEvent(tick=480, channel=10, data=[58, 0]),
   midi.NoteOnEvent(tick=0, channel=10, data=[58, 113]),
   midi.NoteOffEvent(tick=480, channel=10, data=[58, 0]),
   midi.NoteOnEvent(tick=0, channel=10, data=[58, 120]),
   midi.NoteOffEvent(tick=960, channel=10, data=[58, 0]),
   midi.NoteOnEvent(tick=1440, channel=10, data=[58, 113]),
   midi.NoteOffEvent(tick=480, channel=10, data=[58, 0]),
   midi.NoteOnEvent(tick=0, channel=10, data=[58, 113]),
   midi.NoteOffEvent(tick=480, channel=10, data=[58, 0]),
   midi.NoteOnEvent(tick=0, channel=10, data=[58, 113]),
   midi.NoteOffEvent(tick=480, channel=10, data=[58, 0]),
   midi.NoteOnEvent(tick=0, channel=10, data=[58, 120]),
   midi.NoteOffEvent(tick=960, channel=10, data=[58, 0]),
   midi.NoteOnEvent(tick=1440, channel=10, data=[58, 113]),
   midi.NoteOffEvent(tick=480, channel=10, data=[58, 0]),
   midi.NoteOnEvent(tick=0, channel=10, data=[58, 113]),
   midi.NoteOffEvent(tick=480, channel=10, data=[58, 0]),
   midi.NoteOnEvent(tick=0, channel=10, data=[58, 113]),
   midi.NoteOffEvent(tick=480, channel=10, data=[58, 0]),
   midi.NoteOnEvent(tick=0, channel=10, data=[63, 127]),
   midi.NoteOffEvent(tick=960, channel=10, data=[63, 0]),
   midi.NoteOnEvent(tick=5280, channel=10, data=[55, 112]),
   midi.NoteOffEvent(tick=480, channel=10, data=[55, 0]),
   midi.NoteOnEvent(tick=0, channel=10, data=[55, 112]),
   midi.NoteOffEvent(tick=480, channel=10, data=[55, 0]),
   midi.NoteOnEvent(tick=0, channel=10, data=[55, 113]),
   midi.NoteOffEvent(tick=480, channel=10, data=[55, 0]),
   midi.NoteOnEvent(tick=0, channel=10, data=[51, 111]),
   midi.NoteOffEvent(tick=2880, channel=10, data=[51, 0]),
   midi.NoteOnEvent(tick=480, channel=10, data=[53, 112]),
   midi.NoteOffEvent(tick=480, channel=10, data=[53, 0]),
   midi.NoteOnEvent(tick=0, channel=10, data=[53, 112]),
   midi.NoteOffEvent(tick=480, channel=10, data=[53, 0]),
   midi.NoteOnEvent(tick=0, channel=10, data=[53, 113]),
   midi.NoteOffEvent(tick=480, channel=10, data=[53, 0]),
   midi.NoteOnEvent(tick=0, channel=10, data=[50, 112]),
   midi.NoteOffEvent(tick=2880, channel=10, data=[50, 0]),
   midi.NoteOnEvent(tick=2400, channel=10, data=[68, 64]),
   midi.NoteOffEvent(tick=480, channel=10, data=[68, 0]),
   midi.NoteOnEvent(tick=0, channel=10, data=[68, 63]),
   midi.NoteOffEvent(tick=480, channel=10, data=[68, 0]),
   midi.NoteOnEvent(tick=0, channel=10, data=[68, 62]),
   midi.NoteOffEvent(tick=480, channel=10, data=[68, 0]),
   midi.NoteOnEvent(tick=0, channel=10, data=[67, 64]),
   midi.NoteOffEvent(tick=4800, channel=10, data=[67, 0]),
   midi.NoteOnEvent(tick=1440, channel=10, data=[68, 61]),
   midi.NoteOffEvent(tick=480, channel=10, data=[68, 0]),
   midi.NoteOnEvent(tick=0, channel=10, data=[68, 61]),
   midi.NoteOffEvent(tick=480, channel=10, data=[68, 0]),
   midi.NoteOnEvent(tick=0, channel=10, data=[68, 61]),
   midi.NoteOffEvent(tick=480, channel=10, data=[68, 0]),
   midi.NoteOnEvent(tick=0, channel=10, data=[67, 63]),
   midi.NoteOffEvent(tick=1920, channel=10, data=[67, 0]),
   midi.NoteOnEvent(tick=0, channel=10, data=[62, 58]),
   midi.NoteOffEvent(tick=3840, channel=10, data=[62, 0]),
   midi.NoteOnEvent(tick=0, channel=10, data=[63, 64]),
   midi.NoteOffEvent(tick=480, channel=10, data=[63, 0]),
   midi.NoteOnEvent(tick=0, channel=10, data=[63, 61]),
   midi.NoteOffEvent(tick=480, channel=10, data=[63, 0]),
   midi.NoteOnEvent(tick=0, channel=10, data=[63, 61]),
   midi.NoteOffEvent(tick=480, channel=10, data=[63, 0]),
   midi.NoteOnEvent(tick=0, channel=10, data=[65, 64]),
   midi.NoteOffEvent(tick=480, channel=10, data=[65, 0]),
   midi.NoteOnEvent(tick=0, channel=10, data=[67, 71]),
   midi.NoteOffEvent(tick=2400, channel=10, data=[67, 0]),
   midi.NoteOnEvent(tick=0, channel=10, data=[63, 59]),
   midi.NoteOffEvent(tick=480, channel=10, data=[63, 0]),
   midi.NoteOnEvent(tick=0, channel=10, data=[63, 60]),
   midi.NoteOffEvent(tick=480, channel=10, data=[63, 0]),
   midi.NoteOnEvent(tick=0, channel=10, data=[65, 63]),
   midi.NoteOffEvent(tick=480, channel=10, data=[65, 0]),
   midi.NoteOnEvent(tick=0, channel=10, data=[67, 70]),
   midi.NoteOffEvent(tick=1440, channel=10, data=[67, 0]),
   midi.NoteOnEvent(tick=0, channel=10, data=[62, 88]),
   midi.NoteOffEvent(tick=480, channel=10, data=[62, 0]),
   midi.NoteOnEvent(tick=0, channel=10, data=[63, 104]),
   midi.NoteOffEvent(tick=960, channel=10, data=[63, 0]),
   midi.NoteOnEvent(tick=960, channel=10, data=[56, 91]),
   midi.NoteOffEvent(tick=960, channel=10, data=[56, 0]),
   midi.NoteOnEvent(tick=960, channel=10, data=[55, 97]),
   midi.NoteOffEvent(tick=960, channel=10, data=[55, 0]),
   midi.NoteOnEvent(tick=3360, channel=10, data=[56, 113]),
   midi.NoteOffEvent(tick=480, channel=10, data=[56, 0]),
   midi.NoteOnEvent(tick=0, channel=10, data=[56, 113]),
   midi.NoteOffEvent(tick=480, channel=10, data=[56, 0]),
   midi.NoteOnEvent(tick=0, channel=10, data=[56, 113]),
   midi.NoteOffEvent(tick=480, channel=10, data=[56, 0]),
   midi.NoteOnEvent(tick=0, channel=10, data=[53, 113]),
   midi.NoteOffEvent(tick=3840, channel=10, data=[53, 0]),
   midi.NoteOnEvent(tick=4320, channel=10, data=[56, 61]),
   midi.NoteOffEvent(tick=480, channel=10, data=[56, 0]),
   midi.NoteOnEvent(tick=0, channel=10, data=[56, 61]),
   midi.NoteOffEvent(tick=480, channel=10, data=[56, 0]),
   midi.NoteOnEvent(tick=0, channel=10, data=[56, 61]),
   midi.NoteOffEvent(tick=480, channel=10, data=[56, 0]),
   midi.NoteOnEvent(tick=0, channel=10, data=[55, 63]),
   midi.NoteOffEvent(tick=2880, channel=10, data=[55, 0]),
   midi.NoteOnEvent(tick=3360, channel=10, data=[56, 61]),
   midi.NoteOffEvent(tick=480, channel=10, data=[56, 0]),
   midi.NoteOnEvent(tick=0, channel=10, data=[56, 61]),
   midi.NoteOffEvent(tick=480, channel=10, data=[56, 0]),
   midi.NoteOnEvent(tick=0, channel=10, data=[56, 61]),
   midi.NoteOffEvent(tick=480, channel=10, data=[56, 0]),
   midi.NoteOnEvent(tick=0, channel=10, data=[55, 63]),
   midi.NoteOffEvent(tick=2400, channel=10, data=[55, 0]),
   midi.NoteOnEvent(tick=0, channel=10, data=[63, 67]),
   midi.NoteOffEvent(tick=480, channel=10, data=[63, 0]),
   midi.NoteOnEvent(tick=0, channel=10, data=[63, 66]),
   midi.NoteOffEvent(tick=480, channel=10, data=[63, 0]),
   midi.NoteOnEvent(tick=0, channel=10, data=[60, 61]),
   midi.NoteOffEvent(tick=480, channel=10, data=[60, 0]),
   midi.NoteOnEvent(tick=0, channel=10, data=[62, 94]),
   midi.NoteOffEvent(tick=2400, channel=10, data=[62, 0]),
   midi.NoteOnEvent(tick=0, channel=10, data=[65, 89]),
   midi.NoteOffEvent(tick=480, channel=10, data=[65, 0]),
   midi.NoteOnEvent(tick=0, channel=10, data=[65, 88]),
   midi.NoteOffEvent(tick=480, channel=10, data=[65, 0]),
   midi.NoteOnEvent(tick=0, channel=10, data=[62, 80]),
   midi.NoteOffEvent(tick=480, channel=10, data=[62, 0]),
   midi.NoteOnEvent(tick=0, channel=10, data=[63, 88]),
   midi.NoteOffEvent(tick=2400, channel=10, data=[63, 0]),
   midi.NoteOnEvent(tick=0, channel=10, data=[63, 83]),
   midi.NoteOffEvent(tick=480, channel=10, data=[63, 0]),
   midi.NoteOnEvent(tick=0, channel=10, data=[63, 83]),
   midi.NoteOffEvent(tick=480, channel=10, data=[63, 0]),
   midi.NoteOnEvent(tick=0, channel=10, data=[60, 77]),
   midi.NoteOffEvent(tick=480, channel=10, data=[60, 0]),
   midi.NoteOnEvent(tick=0, channel=10, data=[65, 112]),
   midi.NoteOffEvent(tick=480, channel=10, data=[65, 0]),
   midi.NoteOnEvent(tick=0, channel=10, data=[65, 105]),
   midi.NoteOffEvent(tick=480, channel=10, data=[65, 0]),
   midi.NoteOnEvent(tick=0, channel=10, data=[65, 104]),
   midi.NoteOffEvent(tick=480, channel=10, data=[65, 0]),
   midi.NoteOnEvent(tick=0, channel=10, data=[59, 84]),
   midi.NoteOffEvent(tick=480, channel=10, data=[59, 0]),
   midi.NoteOnEvent(tick=0, channel=10, data=[67, 118]),
   midi.NoteOffEvent(tick=480, channel=10, data=[67, 0]),
   midi.NoteOnEvent(tick=0, channel=10, data=[67, 110]),
   midi.NoteOffEvent(tick=480, channel=10, data=[67, 0]),
   midi.NoteOnEvent(tick=0, channel=10, data=[67, 109]),
   midi.NoteOffEvent(tick=480, channel=10, data=[67, 0]),
   midi.NoteOnEvent(tick=0, channel=10, data=[58, 83]),
   midi.NoteOffEvent(tick=480, channel=10, data=[58, 0]),
   midi.NoteOnEvent(tick=0, channel=10, data=[68, 119]),
   midi.NoteOffEvent(tick=480, channel=10, data=[68, 0]),
   midi.NoteOnEvent(tick=0, channel=10, data=[56, 83]),
   midi.NoteOffEvent(tick=480, channel=10, data=[56, 0]),
   midi.NoteOnEvent(tick=0, channel=10, data=[56, 83]),
   midi.NoteOffEvent(tick=480, channel=10, data=[56, 0]),
   midi.NoteOnEvent(tick=0, channel=10, data=[53, 83]),
   midi.NoteOffEvent(tick=480, channel=10, data=[53, 0]),
   midi.NoteOnEvent(tick=0, channel=10, data=[58, 93]),
   midi.NoteOffEvent(tick=480, channel=10, data=[58, 0]),
   midi.NoteOnEvent(tick=0, channel=10, data=[58, 89]),
   midi.NoteOffEvent(tick=480, channel=10, data=[58, 0]),
   midi.NoteOnEvent(tick=0, channel=10, data=[58, 91]),
   midi.NoteOffEvent(tick=480, channel=10, data=[58, 0]),
   midi.NoteOnEvent(tick=0, channel=10, data=[55, 83]),
   midi.NoteOffEvent(tick=480, channel=10, data=[55, 0]),
   midi.NoteOnEvent(tick=0, channel=10, data=[60, 113]),
   midi.NoteOffEvent(tick=480, channel=10, data=[60, 0]),
   midi.NoteOnEvent(tick=0, channel=10, data=[60, 106]),
   midi.NoteOffEvent(tick=480, channel=10, data=[60, 0]),
   midi.NoteOnEvent(tick=0, channel=10, data=[60, 105]),
   midi.NoteOffEvent(tick=480, channel=10, data=[60, 0]),
   midi.NoteOnEvent(tick=0, channel=10, data=[56, 87]),
   midi.NoteOffEvent(tick=480, channel=10, data=[56, 0]),
   midi.NoteOnEvent(tick=0, channel=10, data=[65, 119]),
   midi.NoteOffEvent(tick=480, channel=10, data=[65, 0]),
   midi.NoteOnEvent(tick=0, channel=10, data=[65, 112]),
   midi.NoteOffEvent(tick=480, channel=10, data=[65, 0]),
   midi.NoteOnEvent(tick=0, channel=10, data=[65, 112]),
   midi.NoteOffEvent(tick=480, channel=10, data=[65, 0]),
   midi.NoteOnEvent(tick=0, channel=10, data=[62, 103]),
   midi.NoteOffEvent(tick=480, channel=10, data=[62, 0]),
   midi.NoteOnEvent(tick=0, channel=10, data=[63, 112]),
   midi.NoteOffEvent(tick=480, channel=10, data=[63, 0]),
   midi.NoteOnEvent(tick=0, channel=10, data=[51, 83]),
   midi.NoteOnEvent(tick=0, channel=10, data=[48, 98]),
   midi.NoteOffEvent(tick=480, channel=10, data=[51, 0]),
   midi.NoteOffEvent(tick=0, channel=10, data=[48, 0]),
   midi.NoteOnEvent(tick=0, channel=10, data=[51, 83]),
   midi.NoteOnEvent(tick=0, channel=10, data=[48, 98]),
   midi.NoteOffEvent(tick=480, channel=10, data=[51, 0]),
   midi.NoteOffEvent(tick=0, channel=10, data=[48, 0]),
   midi.NoteOnEvent(tick=0, channel=10, data=[51, 83]),
   midi.NoteOnEvent(tick=0, channel=10, data=[48, 98]),
   midi.NoteOffEvent(tick=480, channel=10, data=[51, 0]),
   midi.NoteOffEvent(tick=0, channel=10, data=[48, 0]),
   midi.NoteOnEvent(tick=0, channel=10, data=[51, 88]),
   midi.NoteOnEvent(tick=0, channel=10, data=[48, 104]),
   midi.NoteOffEvent(tick=480, channel=10, data=[51, 0]),
   midi.NoteOffEvent(tick=0, channel=10, data=[48, 0]),
   midi.NoteOnEvent(tick=0, channel=10, data=[51, 83]),
   midi.NoteOnEvent(tick=0, channel=10, data=[48, 98]),
   midi.NoteOffEvent(tick=480, channel=10, data=[51, 0]),
   midi.NoteOffEvent(tick=0, channel=10, data=[48, 0]),
   midi.NoteOnEvent(tick=0, channel=10, data=[51, 85]),
   midi.NoteOnEvent(tick=0, channel=10, data=[48, 98]),
   midi.NoteOffEvent(tick=480, channel=10, data=[51, 0]),
   midi.NoteOffEvent(tick=0, channel=10, data=[48, 0]),
   midi.NoteOnEvent(tick=0, channel=10, data=[51, 87]),
   midi.NoteOnEvent(tick=0, channel=10, data=[48, 98]),
   midi.NoteOffEvent(tick=480, channel=10, data=[51, 0]),
   midi.NoteOffEvent(tick=0, channel=10, data=[48, 0]),
   midi.NoteOnEvent(tick=0, channel=10, data=[51, 93]),
   midi.NoteOnEvent(tick=0, channel=10, data=[48, 104]),
   midi.NoteOffEvent(tick=480, channel=10, data=[51, 0]),
   midi.NoteOffEvent(tick=0, channel=10, data=[48, 0]),
   midi.NoteOnEvent(tick=0, channel=10, data=[51, 91]),
   midi.NoteOnEvent(tick=0, channel=10, data=[48, 98]),
   midi.NoteOffEvent(tick=480, channel=10, data=[51, 0]),
   midi.NoteOffEvent(tick=0, channel=10, data=[48, 0]),
   midi.NoteOnEvent(tick=0, channel=10, data=[51, 93]),
   midi.NoteOnEvent(tick=0, channel=10, data=[48, 98]),
   midi.NoteOffEvent(tick=480, channel=10, data=[51, 0]),
   midi.NoteOffEvent(tick=0, channel=10, data=[48, 0]),
   midi.NoteOnEvent(tick=0, channel=10, data=[51, 94]),
   midi.NoteOnEvent(tick=0, channel=10, data=[48, 98]),
   midi.NoteOffEvent(tick=480, channel=10, data=[51, 0]),
   midi.NoteOffEvent(tick=0, channel=10, data=[48, 0]),
   midi.NoteOnEvent(tick=0, channel=10, data=[51, 101]),
   midi.NoteOnEvent(tick=0, channel=10, data=[48, 104]),
   midi.NoteOffEvent(tick=480, channel=10, data=[51, 0]),
   midi.NoteOffEvent(tick=0, channel=10, data=[48, 0]),
   midi.NoteOnEvent(tick=0, channel=10, data=[51, 96]),
   midi.NoteOnEvent(tick=0, channel=10, data=[48, 98]),
   midi.NoteOffEvent(tick=480, channel=10, data=[51, 0]),
   midi.NoteOffEvent(tick=0, channel=10, data=[48, 0]),
   midi.NoteOnEvent(tick=0, channel=10, data=[51, 97]),
   midi.NoteOnEvent(tick=0, channel=10, data=[48, 98]),
   midi.NoteOffEvent(tick=480, channel=10, data=[51, 0]),
   midi.NoteOffEvent(tick=0, channel=10, data=[48, 0]),
   midi.NoteOnEvent(tick=0, channel=10, data=[51, 97]),
   midi.NoteOnEvent(tick=0, channel=10, data=[48, 98]),
   midi.NoteOffEvent(tick=480, channel=10, data=[51, 0]),
   midi.NoteOffEvent(tick=0, channel=10, data=[48, 0]),
   midi.NoteOnEvent(tick=0, channel=10, data=[53, 113]),
   midi.NoteOnEvent(tick=0, channel=10, data=[50, 112]),
   midi.NoteOffEvent(tick=480, channel=10, data=[53, 0]),
   midi.NoteOffEvent(tick=0, channel=10, data=[50, 0]),
   midi.NoteOnEvent(tick=0, channel=10, data=[53, 105]),
   midi.NoteOnEvent(tick=0, channel=10, data=[50, 104]),
   midi.NoteOffEvent(tick=480, channel=10, data=[53, 0]),
   midi.NoteOffEvent(tick=0, channel=10, data=[50, 0]),
   midi.NoteOnEvent(tick=0, channel=10, data=[53, 104]),
   midi.NoteOnEvent(tick=0, channel=10, data=[50, 103]),
   midi.NoteOffEvent(tick=480, channel=10, data=[53, 0]),
   midi.NoteOffEvent(tick=0, channel=10, data=[50, 0]),
   midi.NoteOnEvent(tick=0, channel=10, data=[53, 103]),
   midi.NoteOnEvent(tick=0, channel=10, data=[50, 102]),
   midi.NoteOffEvent(tick=480, channel=10, data=[53, 0]),
   midi.NoteOffEvent(tick=0, channel=10, data=[50, 0]),
   midi.NoteOnEvent(tick=0, channel=10, data=[53, 108]),
   midi.NoteOnEvent(tick=0, channel=10, data=[50, 107]),
   midi.NoteOffEvent(tick=480, channel=10, data=[53, 0]),
   midi.NoteOffEvent(tick=0, channel=10, data=[50, 0]),
   midi.NoteOnEvent(tick=0, channel=10, data=[53, 101]),
   midi.NoteOnEvent(tick=0, channel=10, data=[50, 101]),
   midi.NoteOffEvent(tick=480, channel=10, data=[53, 0]),
   midi.NoteOffEvent(tick=0, channel=10, data=[50, 0]),
   midi.NoteOnEvent(tick=0, channel=10, data=[53, 100]),
   midi.NoteOnEvent(tick=0, channel=10, data=[50, 100]),
   midi.NoteOffEvent(tick=480, channel=10, data=[53, 0]),
   midi.NoteOffEvent(tick=0, channel=10, data=[50, 0]),
   midi.NoteOnEvent(tick=0, channel=10, data=[53, 100]),
   midi.NoteOnEvent(tick=0, channel=10, data=[50, 99]),
   midi.NoteOffEvent(tick=480, channel=10, data=[53, 0]),
   midi.NoteOffEvent(tick=0, channel=10, data=[50, 0]),
   midi.NoteOnEvent(tick=0, channel=10, data=[53, 105]),
   midi.NoteOnEvent(tick=0, channel=10, data=[50, 105]),
   midi.NoteOffEvent(tick=480, channel=10, data=[53, 0]),
   midi.NoteOffEvent(tick=0, channel=10, data=[50, 0]),
   midi.NoteOnEvent(tick=0, channel=10, data=[53, 99]),
   midi.NoteOnEvent(tick=0, channel=10, data=[50, 99]),
   midi.NoteOffEvent(tick=480, channel=10, data=[53, 0]),
   midi.NoteOffEvent(tick=0, channel=10, data=[50, 0]),
   midi.NoteOnEvent(tick=0, channel=10, data=[53, 98]),
   midi.NoteOnEvent(tick=0, channel=10, data=[50, 98]),
   midi.NoteOffEvent(tick=480, channel=10, data=[53, 0]),
   midi.NoteOffEvent(tick=0, channel=10, data=[50, 0]),
   midi.NoteOnEvent(tick=0, channel=10, data=[53, 98]),
   midi.NoteOnEvent(tick=0, channel=10, data=[50, 98]),
   midi.NoteOffEvent(tick=480, channel=10, data=[53, 0]),
   midi.NoteOffEvent(tick=0, channel=10, data=[50, 0]),
   midi.NoteOnEvent(tick=0, channel=10, data=[53, 104]),
   midi.NoteOnEvent(tick=0, channel=10, data=[50, 104]),
   midi.NoteOffEvent(tick=480, channel=10, data=[53, 0]),
   midi.NoteOffEvent(tick=0, channel=10, data=[50, 0]),
   midi.NoteOnEvent(tick=0, channel=10, data=[53, 98]),
   midi.NoteOnEvent(tick=0, channel=10, data=[50, 98]),
   midi.NoteOffEvent(tick=480, channel=10, data=[53, 0]),
   midi.NoteOffEvent(tick=0, channel=10, data=[50, 0]),
   midi.NoteOnEvent(tick=0, channel=10, data=[51, 90]),
   midi.NoteOnEvent(tick=0, channel=10, data=[48, 91]),
   midi.NoteOffEvent(tick=480, channel=10, data=[51, 0]),
   midi.NoteOffEvent(tick=0, channel=10, data=[48, 0]),
   midi.NoteOnEvent(tick=0, channel=10, data=[51, 91]),
   midi.NoteOnEvent(tick=0, channel=10, data=[48, 92]),
   midi.NoteOffEvent(tick=480, channel=10, data=[51, 0]),
   midi.NoteOffEvent(tick=0, channel=10, data=[48, 0]),
   midi.NoteOnEvent(tick=0, channel=10, data=[51, 113]),
   midi.NoteOnEvent(tick=0, channel=10, data=[48, 114]),
   midi.NoteOffEvent(tick=480, channel=10, data=[51, 0]),
   midi.NoteOffEvent(tick=0, channel=10, data=[48, 0]),
   midi.NoteOnEvent(tick=0, channel=10, data=[54, 123]),
   midi.NoteOnEvent(tick=0, channel=10, data=[51, 122]),
   midi.NoteOffEvent(tick=480, channel=10, data=[54, 0]),
   midi.NoteOffEvent(tick=0, channel=10, data=[51, 0]),
   midi.NoteOnEvent(tick=0, channel=10, data=[54, 122]),
   midi.NoteOnEvent(tick=0, channel=10, data=[51, 120]),
   midi.NoteOffEvent(tick=480, channel=10, data=[54, 0]),
   midi.NoteOffEvent(tick=0, channel=10, data=[51, 0]),
   midi.NoteOnEvent(tick=0, channel=10, data=[54, 120]),
   midi.NoteOnEvent(tick=0, channel=10, data=[51, 119]),
   midi.NoteOffEvent(tick=480, channel=10, data=[54, 0]),
   midi.NoteOffEvent(tick=0, channel=10, data=[51, 0]),
   midi.NoteOnEvent(tick=0, channel=10, data=[54, 126]),
   midi.NoteOnEvent(tick=0, channel=10, data=[51, 125]),
   midi.NoteOffEvent(tick=480, channel=10, data=[54, 0]),
   midi.NoteOffEvent(tick=0, channel=10, data=[51, 0]),
   midi.NoteOnEvent(tick=0, channel=10, data=[54, 118]),
   midi.NoteOnEvent(tick=0, channel=10, data=[51, 117]),
   midi.NoteOffEvent(tick=480, channel=10, data=[54, 0]),
   midi.NoteOffEvent(tick=0, channel=10, data=[51, 0]),
   midi.NoteOnEvent(tick=0, channel=10, data=[54, 117]),
   midi.NoteOnEvent(tick=0, channel=10, data=[51, 117]),
   midi.NoteOffEvent(tick=480, channel=10, data=[54, 0]),
   midi.NoteOffEvent(tick=0, channel=10, data=[51, 0]),
   midi.NoteOnEvent(tick=0, channel=10, data=[54, 116]),
   midi.NoteOnEvent(tick=0, channel=10, data=[51, 116]),
   midi.NoteOffEvent(tick=480, channel=10, data=[54, 0]),
   midi.NoteOffEvent(tick=0, channel=10, data=[51, 0]),
   midi.NoteOnEvent(tick=0, channel=10, data=[54, 123]),
   midi.NoteOnEvent(tick=0, channel=10, data=[51, 122]),
   midi.NoteOffEvent(tick=480, channel=10, data=[54, 0]),
   midi.NoteOffEvent(tick=0, channel=10, data=[51, 0]),
   midi.NoteOnEvent(tick=0, channel=10, data=[54, 115]),
   midi.NoteOnEvent(tick=0, channel=10, data=[51, 115]),
   midi.NoteOffEvent(tick=480, channel=10, data=[54, 0]),
   midi.NoteOffEvent(tick=0, channel=10, data=[51, 0]),
   midi.NoteOnEvent(tick=0, channel=10, data=[54, 115]),
   midi.NoteOnEvent(tick=0, channel=10, data=[51, 114]),
   midi.NoteOffEvent(tick=480, channel=10, data=[54, 0]),
   midi.NoteOffEvent(tick=0, channel=10, data=[51, 0]),
   midi.NoteOnEvent(tick=0, channel=10, data=[54, 114]),
   midi.NoteOnEvent(tick=0, channel=10, data=[51, 114]),
   midi.NoteOffEvent(tick=480, channel=10, data=[54, 0]),
   midi.NoteOffEvent(tick=0, channel=10, data=[51, 0]),
   midi.NoteOnEvent(tick=0, channel=10, data=[54, 121]),
   midi.NoteOnEvent(tick=0, channel=10, data=[51, 120]),
   midi.NoteOffEvent(tick=480, channel=10, data=[54, 0]),
   midi.NoteOffEvent(tick=0, channel=10, data=[51, 0]),
   midi.NoteOnEvent(tick=0, channel=10, data=[54, 113]),
   midi.NoteOnEvent(tick=0, channel=10, data=[51, 113]),
   midi.NoteOffEvent(tick=480, channel=10, data=[54, 0]),
   midi.NoteOffEvent(tick=0, channel=10, data=[51, 0]),
   midi.NoteOnEvent(tick=0, channel=10, data=[54, 113]),
   midi.NoteOnEvent(tick=0, channel=10, data=[51, 113]),
   midi.NoteOffEvent(tick=480, channel=10, data=[54, 0]),
   midi.NoteOffEvent(tick=0, channel=10, data=[51, 0]),
   midi.NoteOnEvent(tick=0, channel=10, data=[54, 113]),
   midi.NoteOnEvent(tick=0, channel=10, data=[51, 113]),
   midi.NoteOffEvent(tick=480, channel=10, data=[54, 0]),
   midi.NoteOffEvent(tick=0, channel=10, data=[51, 0]),
   midi.NoteOnEvent(tick=0, channel=10, data=[54, 120]),
   midi.NoteOnEvent(tick=0, channel=10, data=[51, 120]),
   midi.NoteOffEvent(tick=960, channel=10, data=[54, 0]),
   midi.NoteOffEvent(tick=0, channel=10, data=[51, 0]),
   midi.NoteOnEvent(tick=2880, channel=10, data=[53, 119]),
   midi.NoteOffEvent(tick=960, channel=10, data=[53, 0]),
   midi.NoteOnEvent(tick=8640, channel=10, data=[63, 65]),
   midi.NoteOnEvent(tick=1920, channel=10, data=[65, 65]),
   midi.NoteOffEvent(tick=38, channel=10, data=[63, 0]),
   midi.NoteOffEvent(tick=1785, channel=10, data=[65, 0]),
   midi.NoteOnEvent(tick=97, channel=10, data=[62, 63]),
   midi.NoteOnEvent(tick=1920, channel=10, data=[63, 65]),
   midi.NoteOffEvent(tick=38, channel=10, data=[62, 0]),
   midi.NoteOffEvent(tick=1785, channel=10, data=[63, 0]),
   midi.NoteOnEvent(tick=97, channel=10, data=[63, 65]),
   midi.NoteOnEvent(tick=1920, channel=10, data=[65, 66]),
   midi.NoteOffEvent(tick=38, channel=10, data=[63, 0]),
   midi.NoteOffEvent(tick=1785, channel=10, data=[65, 0]),
   midi.NoteOnEvent(tick=97, channel=10, data=[62, 63]),
   midi.NoteOnEvent(tick=1920, channel=10, data=[63, 65]),
   midi.NoteOffEvent(tick=38, channel=10, data=[62, 0]),
   midi.NoteOffEvent(tick=1785, channel=10, data=[63, 0]),
   midi.NoteOnEvent(tick=97, channel=10, data=[63, 65]),
   midi.NoteOnEvent(tick=1920, channel=10, data=[65, 66]),
   midi.NoteOffEvent(tick=38, channel=10, data=[63, 0]),
   midi.NoteOffEvent(tick=1785, channel=10, data=[65, 0]),
   midi.NoteOnEvent(tick=97, channel=10, data=[62, 63]),
   midi.NoteOnEvent(tick=1920, channel=10, data=[63, 65]),
   midi.NoteOffEvent(tick=38, channel=10, data=[62, 0]),
   midi.NoteOffEvent(tick=1785, channel=10, data=[63, 0]),
   midi.NoteOnEvent(tick=97, channel=10, data=[63, 65]),
   midi.NoteOnEvent(tick=1920, channel=10, data=[64, 65]),
   midi.NoteOffEvent(tick=38, channel=10, data=[63, 0]),
   midi.NoteOffEvent(tick=1785, channel=10, data=[64, 0]),
   midi.NoteOnEvent(tick=97, channel=10, data=[64, 65]),
   midi.NoteOnEvent(tick=1920, channel=10, data=[60, 62]),
   midi.NoteOffEvent(tick=38, channel=10, data=[64, 0]),
   midi.NoteOffEvent(tick=1785, channel=10, data=[60, 0]),
   midi.NoteOnEvent(tick=97, channel=10, data=[65, 67]),
   midi.NoteOnEvent(tick=1920, channel=10, data=[67, 67]),
   midi.NoteOffEvent(tick=38, channel=10, data=[65, 0]),
   midi.NoteOffEvent(tick=1785, channel=10, data=[67, 0]),
   midi.NoteOnEvent(tick=97, channel=10, data=[67, 65]),
   midi.NoteOnEvent(tick=1920, channel=10, data=[63, 62]),
   midi.NoteOffEvent(tick=38, channel=10, data=[67, 0]),
   midi.NoteOffEvent(tick=1785, channel=10, data=[63, 0]),
   midi.NoteOnEvent(tick=2497, channel=10, data=[57, 60]),
   midi.NoteOffEvent(tick=480, channel=10, data=[57, 0]),
   midi.NoteOnEvent(tick=0, channel=10, data=[57, 60]),
   midi.NoteOffEvent(tick=480, channel=10, data=[57, 0]),
   midi.NoteOnEvent(tick=0, channel=10, data=[57, 65]),
   midi.NoteOffEvent(tick=480, channel=10, data=[57, 0]),
   midi.NoteOnEvent(tick=0, channel=10, data=[57, 75]),
   midi.NoteOffEvent(tick=960, channel=10, data=[57, 0]),
   midi.NoteOnEvent(tick=1440, channel=10, data=[58, 72]),
   midi.NoteOffEvent(tick=480, channel=10, data=[58, 0]),
   midi.NoteOnEvent(tick=0, channel=10, data=[58, 72]),
   midi.NoteOffEvent(tick=480, channel=10, data=[58, 0]),
   midi.NoteOnEvent(tick=0, channel=10, data=[58, 72]),
   midi.NoteOffEvent(tick=480, channel=10, data=[58, 0]),
   midi.NoteOnEvent(tick=0, channel=10, data=[58, 76]),
   midi.NoteOffEvent(tick=960, channel=10, data=[58, 0]),
   midi.NoteOnEvent(tick=1440, channel=10, data=[59, 85]),
   midi.NoteOffEvent(tick=480, channel=10, data=[59, 0]),
   midi.NoteOnEvent(tick=0, channel=10, data=[59, 85]),
   midi.NoteOffEvent(tick=480, channel=10, data=[59, 0]),
   midi.NoteOnEvent(tick=0, channel=10, data=[59, 85]),
   midi.NoteOffEvent(tick=480, channel=10, data=[59, 0]),
   midi.NoteOnEvent(tick=0, channel=10, data=[59, 90]),
   midi.NoteOffEvent(tick=960, channel=10, data=[59, 0]),
   midi.NoteOnEvent(tick=1440, channel=10, data=[60, 85]),
   midi.NoteOffEvent(tick=480, channel=10, data=[60, 0]),
   midi.NoteOnEvent(tick=0, channel=10, data=[60, 85]),
   midi.NoteOffEvent(tick=480, channel=10, data=[60, 0]),
   midi.NoteOnEvent(tick=0, channel=10, data=[60, 85]),
   midi.NoteOffEvent(tick=480, channel=10, data=[60, 0]),
   midi.NoteOnEvent(tick=0, channel=10, data=[60, 90]),
   midi.NoteOffEvent(tick=960, channel=10, data=[60, 0]),
   midi.NoteOnEvent(tick=1440, channel=10, data=[60, 84]),
   midi.NoteOffEvent(tick=480, channel=10, data=[60, 0]),
   midi.NoteOnEvent(tick=0, channel=10, data=[60, 84]),
   midi.NoteOffEvent(tick=480, channel=10, data=[60, 0]),
   midi.NoteOnEvent(tick=0, channel=10, data=[60, 84]),
   midi.NoteOffEvent(tick=480, channel=10, data=[60, 0]),
   midi.NoteOnEvent(tick=0, channel=10, data=[60, 89]),
   midi.NoteOffEvent(tick=960, channel=10, data=[60, 0]),
   midi.NoteOnEvent(tick=0, channel=10, data=[60, 84]),
   midi.NoteOffEvent(tick=480, channel=10, data=[60, 0]),
   midi.NoteOnEvent(tick=0, channel=10, data=[60, 84]),
   midi.NoteOffEvent(tick=480, channel=10, data=[60, 0]),
   midi.NoteOnEvent(tick=0, channel=10, data=[62, 127]),
   midi.NoteOffEvent(tick=2880, channel=10, data=[62, 0]),
   midi.NoteOnEvent(tick=0, channel=10, data=[50, 100]),
   midi.NoteOffEvent(tick=960, channel=10, data=[50, 0]),
   midi.NoteOnEvent(tick=0, channel=10, data=[51, 112]),
   midi.NoteOffEvent(tick=960, channel=10, data=[51, 0]),
   midi.NoteOnEvent(tick=960, channel=10, data=[53, 120]),
   midi.NoteOffEvent(tick=960, channel=10, data=[53, 0]),
   midi.NoteOnEvent(tick=960, channel=10, data=[55, 123]),
   midi.NoteOffEvent(tick=960, channel=10, data=[55, 0]),
   midi.NoteOnEvent(tick=960, channel=10, data=[56, 122]),
   midi.NoteOffEvent(tick=960, channel=10, data=[56, 0]),
   midi.NoteOnEvent(tick=960, channel=10, data=[58, 123]),
   midi.NoteOffEvent(tick=960, channel=10, data=[58, 0]),
   midi.NoteOnEvent(tick=960, channel=10, data=[58, 121]),
   midi.NoteOffEvent(tick=960, channel=10, data=[58, 0]),
   midi.NoteOnEvent(tick=960, channel=10, data=[53, 115]),
   midi.NoteOffEvent(tick=480, channel=10, data=[53, 0]),
   midi.NoteOnEvent(tick=0, channel=10, data=[53, 109]),
   midi.NoteOffEvent(tick=480, channel=10, data=[53, 0]),
   midi.NoteOnEvent(tick=0, channel=10, data=[58, 122]),
   midi.NoteOffEvent(tick=480, channel=10, data=[58, 0]),
   midi.NoteOnEvent(tick=0, channel=10, data=[58, 121]),
   midi.NoteOffEvent(tick=480, channel=10, data=[58, 0]),
   midi.NoteOnEvent(tick=0, channel=10, data=[53, 109]),
   midi.NoteOffEvent(tick=480, channel=10, data=[53, 0]),
   midi.NoteOnEvent(tick=0, channel=10, data=[53, 105]),
   midi.NoteOffEvent(tick=480, channel=10, data=[53, 0]),
   midi.NoteOnEvent(tick=0, channel=10, data=[58, 125]),
   midi.NoteOffEvent(tick=480, channel=10, data=[58, 0]),
   midi.NoteOnEvent(tick=0, channel=10, data=[58, 125]),
   midi.NoteOffEvent(tick=480, channel=10, data=[58, 0]),
   midi.NoteOnEvent(tick=0, channel=10, data=[55, 115]),
   midi.NoteOffEvent(tick=480, channel=10, data=[55, 0]),
   midi.NoteOnEvent(tick=0, channel=10, data=[55, 109]),
   midi.NoteOffEvent(tick=480, channel=10, data=[55, 0]),
   midi.NoteOnEvent(tick=0, channel=10, data=[58, 125]),
   midi.NoteOffEvent(tick=480, channel=10, data=[58, 0]),
   midi.NoteOnEvent(tick=0, channel=10, data=[58, 123]),
   midi.NoteOffEvent(tick=480, channel=10, data=[58, 0]),
   midi.NoteOnEvent(tick=0, channel=10, data=[56, 118]),
   midi.NoteOffEvent(tick=480, channel=10, data=[56, 0]),
   midi.NoteOnEvent(tick=0, channel=10, data=[56, 111]),
   midi.NoteOffEvent(tick=480, channel=10, data=[56, 0]),
   midi.NoteOnEvent(tick=0, channel=10, data=[58, 122]),
   midi.NoteOffEvent(tick=480, channel=10, data=[58, 0]),
   midi.NoteOnEvent(tick=0, channel=10, data=[58, 121]),
   midi.NoteOffEvent(tick=480, channel=10, data=[58, 0]),
   midi.NoteOnEvent(tick=0, channel=10, data=[67, 127]),
   midi.NoteOnEvent(tick=480, channel=10, data=[65, 127]),
   midi.NoteOffEvent(tick=8, channel=10, data=[67, 0]),
   midi.NoteOffEvent(tick=446, channel=10, data=[65, 0]),
   midi.NoteOnEvent(tick=26, channel=10, data=[58, 103]),
   midi.NoteOffEvent(tick=240, channel=10, data=[58, 0]),
   midi.NoteOnEvent(tick=240, channel=10, data=[55, 96]),
   midi.NoteOffEvent(tick=240, channel=10, data=[55, 0]),
   midi.NoteOnEvent(tick=240, channel=10, data=[62, 127]),
   midi.NoteOnEvent(tick=480, channel=10, data=[60, 112]),
   midi.NoteOffEvent(tick=8, channel=10, data=[62, 0]),
   midi.NoteOffEvent(tick=446, channel=10, data=[60, 0]),
   midi.NoteOnEvent(tick=26, channel=10, data=[56, 97]),
   midi.NoteOffEvent(tick=240, channel=10, data=[56, 0]),
   midi.NoteOnEvent(tick=240, channel=10, data=[53, 96]),
   midi.NoteOffEvent(tick=240, channel=10, data=[53, 0]),
   midi.NoteOnEvent(tick=240, channel=10, data=[60, 121]),
   midi.NoteOnEvent(tick=480, channel=10, data=[58, 106]),
   midi.NoteOffEvent(tick=8, channel=10, data=[60, 0]),
   midi.NoteOffEvent(tick=446, channel=10, data=[58, 0]),
   midi.NoteOnEvent(tick=26, channel=10, data=[55, 98]),
   midi.NoteOffEvent(tick=240, channel=10, data=[55, 0]),
   midi.NoteOnEvent(tick=240, channel=10, data=[51, 96]),
   midi.NoteOffEvent(tick=240, channel=10, data=[51, 0]),
   midi.NoteOnEvent(tick=240, channel=10, data=[50, 102]),
   midi.NoteOffEvent(tick=480, channel=10, data=[50, 0]),
   midi.NoteOnEvent(tick=0, channel=10, data=[62, 127]),
   midi.NoteOnEvent(tick=0, channel=10, data=[53, 113]),
   midi.NoteOffEvent(tick=480, channel=10, data=[62, 0]),
   midi.NoteOffEvent(tick=0, channel=10, data=[53, 0]),
   midi.NoteOnEvent(tick=0, channel=10, data=[65, 127]),
   midi.NoteOnEvent(tick=0, channel=10, data=[56, 116]),
   midi.NoteOffEvent(tick=480, channel=10, data=[65, 0]),
   midi.NoteOffEvent(tick=0, channel=10, data=[56, 0]),
   midi.NoteOnEvent(tick=0, channel=10, data=[62, 125]),
   midi.NoteOnEvent(tick=0, channel=10, data=[53, 111]),
   midi.NoteOffEvent(tick=480, channel=10, data=[62, 0]),
   midi.NoteOffEvent(tick=0, channel=10, data=[53, 0]),
   midi.NoteOnEvent(tick=0, channel=10, data=[55, 103]),
   midi.NoteOffEvent(tick=6240, channel=10, data=[55, 0]),
   midi.NoteOnEvent(tick=0, channel=10, data=[58, 113]),
   midi.NoteOffEvent(tick=480, channel=10, data=[58, 0]),
   midi.NoteOnEvent(tick=0, channel=10, data=[58, 113]),
   midi.NoteOffEvent(tick=480, channel=10, data=[58, 0]),
   midi.NoteOnEvent(tick=0, channel=10, data=[58, 113]),
   midi.NoteOffEvent(tick=480, channel=10, data=[58, 0]),
   midi.NoteOnEvent(tick=0, channel=10, data=[58, 120]),
   midi.NoteOffEvent(tick=6240, channel=10, data=[58, 0]),
   midi.NoteOnEvent(tick=0, channel=10, data=[58, 113]),
   midi.NoteOffEvent(tick=480, channel=10, data=[58, 0]),
   midi.NoteOnEvent(tick=0, channel=10, data=[58, 113]),
   midi.NoteOffEvent(tick=480, channel=10, data=[58, 0]),
   midi.NoteOnEvent(tick=0, channel=10, data=[58, 113]),
   midi.NoteOffEvent(tick=480, channel=10, data=[58, 0]),
   midi.NoteOnEvent(tick=0, channel=10, data=[58, 120]),
   midi.NoteOffEvent(tick=960, channel=10, data=[58, 0]),
   midi.NoteOnEvent(tick=1440, channel=10, data=[58, 113]),
   midi.NoteOffEvent(tick=480, channel=10, data=[58, 0]),
   midi.NoteOnEvent(tick=0, channel=10, data=[58, 113]),
   midi.NoteOffEvent(tick=480, channel=10, data=[58, 0]),
   midi.NoteOnEvent(tick=0, channel=10, data=[58, 113]),
   midi.NoteOffEvent(tick=480, channel=10, data=[58, 0]),
   midi.NoteOnEvent(tick=0, channel=10, data=[58, 120]),
   midi.NoteOffEvent(tick=960, channel=10, data=[58, 0]),
   midi.NoteOnEvent(tick=1440, channel=10, data=[58, 113]),
   midi.NoteOffEvent(tick=480, channel=10, data=[58, 0]),
   midi.NoteOnEvent(tick=0, channel=10, data=[58, 113]),
   midi.NoteOffEvent(tick=480, channel=10, data=[58, 0]),
   midi.NoteOnEvent(tick=0, channel=10, data=[58, 113]),
   midi.NoteOffEvent(tick=480, channel=10, data=[58, 0]),
   midi.NoteOnEvent(tick=0, channel=10, data=[63, 127]),
   midi.NoteOffEvent(tick=960, channel=10, data=[63, 0]),
   midi.NoteOnEvent(tick=7200, channel=10, data=[49, 113]),
   midi.NoteOffEvent(tick=480, channel=10, data=[49, 0]),
   midi.NoteOnEvent(tick=0, channel=10, data=[49, 113]),
   midi.NoteOffEvent(tick=480, channel=10, data=[49, 0]),
   midi.NoteOnEvent(tick=0, channel=10, data=[49, 113]),
   midi.NoteOffEvent(tick=480, channel=10, data=[49, 0]),
   midi.NoteOnEvent(tick=0, channel=10, data=[48, 118]),
   midi.NoteOffEvent(tick=3840, channel=10, data=[48, 0]),
   midi.NoteOnEvent(tick=1920, channel=10, data=[60, 66]),
   midi.NoteOffEvent(tick=4320, channel=10, data=[60, 0]),
   midi.NoteOnEvent(tick=0, channel=10, data=[61, 61]),
   midi.NoteOffEvent(tick=480, channel=10, data=[61, 0]),
   midi.NoteOnEvent(tick=0, channel=10, data=[61, 61]),
   midi.NoteOffEvent(tick=480, channel=10, data=[61, 0]),
   midi.NoteOnEvent(tick=0, channel=10, data=[61, 61]),
   midi.NoteOffEvent(tick=480, channel=10, data=[61, 0]),
   midi.NoteOnEvent(tick=0, channel=10, data=[60, 63]),
   midi.NoteOffEvent(tick=6240, channel=10, data=[60, 0]),
   midi.NoteOnEvent(tick=0, channel=10, data=[61, 61]),
   midi.NoteOffEvent(tick=480, channel=10, data=[61, 0]),
   midi.NoteOnEvent(tick=0, channel=10, data=[61, 61]),
   midi.NoteOffEvent(tick=480, channel=10, data=[61, 0]),
   midi.NoteOnEvent(tick=0, channel=10, data=[61, 61]),
   midi.NoteOffEvent(tick=480, channel=10, data=[61, 0]),
   midi.NoteOnEvent(tick=0, channel=10, data=[60, 63]),
   midi.NoteOffEvent(tick=11520, channel=10, data=[60, 0]),
   midi.NoteOnEvent(tick=0, channel=10, data=[62, 65]),
   midi.NoteOffEvent(tick=911, channel=10, data=[62, 0]),
   midi.NoteOnEvent(tick=49, channel=10, data=[63, 61]),
   midi.NoteOffEvent(tick=960, channel=10, data=[63, 0]),
   midi.NoteOnEvent(tick=0, channel=10, data=[65, 67]),
   midi.NoteOffEvent(tick=960, channel=10, data=[65, 0]),
   midi.NoteOnEvent(tick=0, channel=10, data=[66, 63]),
   midi.NoteOffEvent(tick=960, channel=10, data=[66, 0]),
   midi.NoteOnEvent(tick=0, channel=10, data=[67, 68]),
   midi.NoteOffEvent(tick=480, channel=10, data=[67, 0]),
   midi.NoteOnEvent(tick=0, channel=10, data=[67, 63]),
   midi.NoteOffEvent(tick=480, channel=10, data=[67, 0]),
   midi.NoteOnEvent(tick=0, channel=10, data=[67, 63]),
   midi.NoteOffEvent(tick=480, channel=10, data=[67, 0]),
   midi.NoteOnEvent(tick=0, channel=10, data=[65, 59]),
   midi.NoteOffEvent(tick=480, channel=10, data=[65, 0]),
   midi.NoteOnEvent(tick=0, channel=10, data=[63, 58]),
   midi.NoteOffEvent(tick=1920, channel=10, data=[63, 0]),
   midi.NoteOnEvent(tick=0, channel=10, data=[62, 59]),
   midi.NoteOffEvent(tick=480, channel=10, data=[62, 0]),
   midi.NoteOnEvent(tick=0, channel=10, data=[67, 65]),
   midi.NoteOffEvent(tick=480, channel=10, data=[67, 0]),
   midi.NoteOnEvent(tick=0, channel=10, data=[67, 65]),
   midi.NoteOffEvent(tick=480, channel=10, data=[67, 0]),
   midi.NoteOnEvent(tick=0, channel=10, data=[65, 60]),
   midi.NoteOffEvent(tick=480, channel=10, data=[65, 0]),
   midi.NoteOnEvent(tick=0, channel=10, data=[63, 59]),
   midi.NoteOffEvent(tick=1920, channel=10, data=[63, 0]),
   midi.NoteOnEvent(tick=0, channel=10, data=[62, 61]),
   midi.NoteOffEvent(tick=480, channel=10, data=[62, 0]),
   midi.NoteOnEvent(tick=0, channel=10, data=[67, 66]),
   midi.NoteOffEvent(tick=480, channel=10, data=[67, 0]),
   midi.NoteOnEvent(tick=0, channel=10, data=[67, 65]),
   midi.NoteOffEvent(tick=480, channel=10, data=[67, 0]),
   midi.NoteOnEvent(tick=0, channel=10, data=[65, 60]),
   midi.NoteOffEvent(tick=480, channel=10, data=[65, 0]),
   midi.NoteOnEvent(tick=0, channel=10, data=[63, 59]),
   midi.NoteOffEvent(tick=480, channel=10, data=[63, 0]),
   midi.NoteOnEvent(tick=0, channel=10, data=[63, 57]),
   midi.NoteOffEvent(tick=480, channel=10, data=[63, 0]),
   midi.NoteOnEvent(tick=0, channel=10, data=[63, 57]),
   midi.NoteOffEvent(tick=480, channel=10, data=[63, 0]),
   midi.NoteOnEvent(tick=0, channel=10, data=[62, 55]),
   midi.NoteOffEvent(tick=480, channel=10, data=[62, 0]),
   midi.NoteOnEvent(tick=0, channel=10, data=[60, 56]),
   midi.NoteOffEvent(tick=480, channel=10, data=[60, 0]),
   midi.NoteOnEvent(tick=0, channel=10, data=[60, 54]),
   midi.NoteOffEvent(tick=480, channel=10, data=[60, 0]),
   midi.NoteOnEvent(tick=0, channel=10, data=[60, 54]),
   midi.NoteOffEvent(tick=480, channel=10, data=[60, 0]),
   midi.NoteOnEvent(tick=0, channel=10, data=[58, 52]),
   midi.NoteOffEvent(tick=480, channel=10, data=[58, 0]),
   midi.NoteOnEvent(tick=0, channel=10, data=[57, 55]),
   midi.NoteOffEvent(tick=480, channel=10, data=[57, 0]),
   midi.NoteOnEvent(tick=0, channel=10, data=[57, 53]),
   midi.NoteOffEvent(tick=480, channel=10, data=[57, 0]),
   midi.NoteOnEvent(tick=0, channel=10, data=[57, 54]),
   midi.NoteOffEvent(tick=480, channel=10, data=[57, 0]),
   midi.NoteOnEvent(tick=0, channel=10, data=[55, 52]),
   midi.NoteOffEvent(tick=480, channel=10, data=[55, 0]),
   midi.NoteOnEvent(tick=0, channel=10, data=[54, 55]),
   midi.NoteOffEvent(tick=960, channel=10, data=[54, 0]),
   midi.NoteOnEvent(tick=1440, channel=10, data=[58, 63]),
   midi.NoteOffEvent(tick=480, channel=10, data=[58, 0]),
   midi.NoteOnEvent(tick=0, channel=10, data=[58, 63]),
   midi.NoteOffEvent(tick=480, channel=10, data=[58, 0]),
   midi.NoteOnEvent(tick=0, channel=10, data=[60, 66]),
   midi.NoteOffEvent(tick=480, channel=10, data=[60, 0]),
   midi.NoteOnEvent(tick=0, channel=10, data=[62, 72]),
   midi.NoteOffEvent(tick=2400, channel=10, data=[62, 0]),
   midi.NoteOnEvent(tick=0, channel=10, data=[58, 60]),
   midi.NoteOffEvent(tick=480, channel=10, data=[58, 0]),
   midi.NoteOnEvent(tick=0, channel=10, data=[58, 60]),
   midi.NoteOffEvent(tick=480, channel=10, data=[58, 0]),
   midi.NoteOnEvent(tick=0, channel=10, data=[60, 63]),
   midi.NoteOffEvent(tick=480, channel=10, data=[60, 0]),
   midi.NoteOnEvent(tick=0, channel=10, data=[62, 70]),
   midi.NoteOffEvent(tick=480, channel=10, data=[62, 0]),
   midi.NoteOnEvent(tick=0, channel=10, data=[62, 65]),
   midi.NoteOffEvent(tick=480, channel=10, data=[62, 0]),
   midi.NoteOnEvent(tick=0, channel=10, data=[62, 65]),
   midi.NoteOffEvent(tick=480, channel=10, data=[62, 0]),
   midi.NoteOnEvent(tick=0, channel=10, data=[60, 59]),
   midi.NoteOffEvent(tick=480, channel=10, data=[60, 0]),
   midi.NoteOnEvent(tick=0, channel=10, data=[58, 58]),
   midi.NoteOffEvent(tick=480, channel=10, data=[58, 0]),
   midi.NoteOnEvent(tick=0, channel=10, data=[58, 55]),
   midi.NoteOffEvent(tick=480, channel=10, data=[58, 0]),
   midi.NoteOnEvent(tick=0, channel=10, data=[58, 56]),
   midi.NoteOffEvent(tick=480, channel=10, data=[58, 0]),
   midi.NoteOnEvent(tick=0, channel=10, data=[57, 54]),
   midi.NoteOffEvent(tick=480, channel=10, data=[57, 0]),
   midi.NoteOnEvent(tick=0, channel=10, data=[55, 55]),
   midi.NoteOffEvent(tick=480, channel=10, data=[55, 0]),
   midi.NoteOnEvent(tick=0, channel=10, data=[55, 53]),
   midi.NoteOffEvent(tick=480, channel=10, data=[55, 0]),
   midi.NoteOnEvent(tick=0, channel=10, data=[55, 54]),
   midi.NoteOffEvent(tick=480, channel=10, data=[55, 0]),
   midi.NoteOnEvent(tick=0, channel=10, data=[53, 52]),
   midi.NoteOffEvent(tick=480, channel=10, data=[53, 0]),
   midi.NoteOnEvent(tick=0, channel=10, data=[51, 55]),
   midi.NoteOffEvent(tick=480, channel=10, data=[51, 0]),
   midi.NoteOnEvent(tick=0, channel=10, data=[51, 52]),
   midi.NoteOffEvent(tick=480, channel=10, data=[51, 0]),
   midi.NoteOnEvent(tick=0, channel=10, data=[51, 53]),
   midi.NoteOffEvent(tick=480, channel=10, data=[51, 0]),
   midi.NoteOnEvent(tick=0, channel=10, data=[50, 53]),
   midi.NoteOffEvent(tick=480, channel=10, data=[50, 0]),
   midi.NoteOnEvent(tick=0, channel=10, data=[48, 56]),
   midi.NoteOffEvent(tick=480, channel=10, data=[48, 0]),
   midi.NoteOnEvent(tick=0, channel=10, data=[60, 70]),
   midi.NoteOffEvent(tick=480, channel=10, data=[60, 0]),
   midi.NoteOnEvent(tick=0, channel=10, data=[60, 70]),
   midi.NoteOffEvent(tick=480, channel=10, data=[60, 0]),
   midi.NoteOnEvent(tick=0, channel=10, data=[58, 70]),
   midi.NoteOffEvent(tick=480, channel=10, data=[58, 0]),
   midi.NoteOnEvent(tick=0, channel=10, data=[57, 71]),
   midi.NoteOffEvent(tick=480, channel=10, data=[57, 0]),
   midi.NoteOnEvent(tick=0, channel=10, data=[57, 67]),
   midi.NoteOffEvent(tick=480, channel=10, data=[57, 0]),
   midi.NoteOnEvent(tick=0, channel=10, data=[57, 65]),
   midi.NoteOffEvent(tick=480, channel=10, data=[57, 0]),
   midi.NoteOnEvent(tick=0, channel=10, data=[55, 58]),
   midi.NoteOffEvent(tick=480, channel=10, data=[55, 0]),
   midi.NoteOnEvent(tick=0, channel=10, data=[54, 59]),
   midi.NoteOffEvent(tick=480, channel=10, data=[54, 0]),
   midi.NoteOnEvent(tick=0, channel=10, data=[54, 56]),
   midi.NoteOffEvent(tick=480, channel=10, data=[54, 0]),
   midi.NoteOnEvent(tick=0, channel=10, data=[54, 57]),
   midi.NoteOffEvent(tick=480, channel=10, data=[54, 0]),
   midi.NoteOnEvent(tick=0, channel=10, data=[51, 53]),
   midi.NoteOffEvent(tick=480, channel=10, data=[51, 0]),
   midi.NoteOnEvent(tick=0, channel=10, data=[50, 56]),
   midi.NoteOffEvent(tick=480, channel=10, data=[50, 0]),
   midi.NoteOnEvent(tick=0, channel=10, data=[50, 53]),
   midi.NoteOffEvent(tick=480, channel=10, data=[50, 0]),
   midi.NoteOnEvent(tick=0, channel=10, data=[50, 54]),
   midi.NoteOffEvent(tick=480, channel=10, data=[50, 0]),
   midi.NoteOnEvent(tick=0, channel=10, data=[48, 53]),
   midi.NoteOffEvent(tick=480, channel=10, data=[48, 0]),
   midi.NoteOnEvent(tick=0, channel=10, data=[58, 74]),
   midi.NoteOffEvent(tick=480, channel=10, data=[58, 0]),
   midi.NoteOnEvent(tick=0, channel=10, data=[62, 70]),
   midi.NoteOffEvent(tick=480, channel=10, data=[62, 0]),
   midi.NoteOnEvent(tick=0, channel=10, data=[62, 70]),
   midi.NoteOffEvent(tick=480, channel=10, data=[62, 0]),
   midi.NoteOnEvent(tick=0, channel=10, data=[60, 70]),
   midi.NoteOffEvent(tick=480, channel=10, data=[60, 0]),
   midi.NoteOnEvent(tick=0, channel=10, data=[58, 97]),
   midi.NoteOffEvent(tick=480, channel=10, data=[58, 0]),
   midi.NoteOnEvent(tick=0, channel=10, data=[58, 90]),
   midi.NoteOffEvent(tick=480, channel=10, data=[58, 0]),
   midi.NoteOnEvent(tick=0, channel=10, data=[58, 88]),
   midi.NoteOffEvent(tick=480, channel=10, data=[58, 0]),
   midi.NoteOnEvent(tick=0, channel=10, data=[57, 83]),
   midi.NoteOffEvent(tick=480, channel=10, data=[57, 0]),
   midi.NoteOnEvent(tick=0, channel=10, data=[55, 79]),
   midi.NoteOffEvent(tick=480, channel=10, data=[55, 0]),
   midi.NoteOnEvent(tick=0, channel=10, data=[53, 72]),
   midi.NoteOffEvent(tick=480, channel=10, data=[53, 0]),
   midi.NoteOnEvent(tick=0, channel=10, data=[51, 71]),
   midi.NoteOffEvent(tick=480, channel=10, data=[51, 0]),
   midi.NoteOnEvent(tick=0, channel=10, data=[50, 71]),
   midi.NoteOffEvent(tick=480, channel=10, data=[50, 0]),
   midi.NoteOnEvent(tick=0, channel=10, data=[48, 88]),
   midi.NoteOffEvent(tick=480, channel=10, data=[48, 0]),
   midi.NoteOnEvent(tick=0, channel=10, data=[60, 112]),
   midi.NoteOnEvent(tick=0, channel=10, data=[48, 98]),
   midi.NoteOffEvent(tick=480, channel=10, data=[60, 0]),
   midi.NoteOffEvent(tick=0, channel=10, data=[48, 0]),
   midi.NoteOnEvent(tick=0, channel=10, data=[60, 112]),
   midi.NoteOnEvent(tick=0, channel=10, data=[48, 98]),
   midi.NoteOffEvent(tick=480, channel=10, data=[60, 0]),
   midi.NoteOffEvent(tick=0, channel=10, data=[48, 0]),
   midi.NoteOnEvent(tick=0, channel=10, data=[60, 112]),
   midi.NoteOnEvent(tick=0, channel=10, data=[48, 98]),
   midi.NoteOffEvent(tick=480, channel=10, data=[60, 0]),
   midi.NoteOffEvent(tick=0, channel=10, data=[48, 0]),
   midi.NoteOnEvent(tick=0, channel=10, data=[60, 119]),
   midi.NoteOnEvent(tick=0, channel=10, data=[48, 104]),
   midi.NoteOffEvent(tick=480, channel=10, data=[60, 0]),
   midi.NoteOffEvent(tick=0, channel=10, data=[48, 0]),
   midi.NoteOnEvent(tick=0, channel=10, data=[60, 111]),
   midi.NoteOnEvent(tick=0, channel=10, data=[48, 98]),
   midi.NoteOffEvent(tick=480, channel=10, data=[60, 0]),
   midi.NoteOffEvent(tick=0, channel=10, data=[48, 0]),
   midi.NoteOnEvent(tick=0, channel=10, data=[60, 109]),
   midi.NoteOnEvent(tick=0, channel=10, data=[48, 98]),
   midi.NoteOffEvent(tick=480, channel=10, data=[60, 0]),
   midi.NoteOffEvent(tick=0, channel=10, data=[48, 0]),
   midi.NoteOnEvent(tick=0, channel=10, data=[60, 108]),
   midi.NoteOnEvent(tick=0, channel=10, data=[48, 98]),
   midi.NoteOffEvent(tick=480, channel=10, data=[60, 0]),
   midi.NoteOffEvent(tick=0, channel=10, data=[48, 0]),
   midi.NoteOnEvent(tick=0, channel=10, data=[60, 113]),
   midi.NoteOnEvent(tick=0, channel=10, data=[48, 104]),
   midi.NoteOffEvent(tick=960, channel=10, data=[60, 0]),
   midi.NoteOffEvent(tick=0, channel=10, data=[48, 0]),
   midi.NoteOnEvent(tick=1440, channel=10, data=[49, 84]),
   midi.NoteOffEvent(tick=480, channel=10, data=[49, 0]),
   midi.NoteOnEvent(tick=0, channel=10, data=[49, 86]),
   midi.NoteOffEvent(tick=480, channel=10, data=[49, 0]),
   midi.NoteOnEvent(tick=0, channel=10, data=[49, 87]),
   midi.NoteOffEvent(tick=480, channel=10, data=[49, 0]),
   midi.NoteOnEvent(tick=0, channel=10, data=[49, 95]),
   midi.NoteOffEvent(tick=480, channel=10, data=[49, 0]),
   midi.NoteOnEvent(tick=0, channel=10, data=[61, 112]),
   midi.NoteOffEvent(tick=480, channel=10, data=[61, 0]),
   midi.NoteOnEvent(tick=0, channel=10, data=[61, 112]),
   midi.NoteOffEvent(tick=480, channel=10, data=[61, 0]),
   midi.NoteOnEvent(tick=0, channel=10, data=[61, 112]),
   midi.NoteOffEvent(tick=480, channel=10, data=[61, 0]),
   midi.NoteOnEvent(tick=0, channel=10, data=[61, 119]),
   midi.NoteOffEvent(tick=480, channel=10, data=[61, 0]),
   midi.NoteOnEvent(tick=0, channel=10, data=[61, 111]),
   midi.NoteOffEvent(tick=480, channel=10, data=[61, 0]),
   midi.NoteOnEvent(tick=0, channel=10, data=[61, 110]),
   midi.NoteOffEvent(tick=480, channel=10, data=[61, 0]),
   midi.NoteOnEvent(tick=0, channel=10, data=[61, 109]),
   midi.NoteOffEvent(tick=480, channel=10, data=[61, 0]),
   midi.NoteOnEvent(tick=0, channel=10, data=[61, 114]),
   midi.NoteOffEvent(tick=960, channel=10, data=[61, 0]),
   midi.NoteOnEvent(tick=1440, channel=10, data=[62, 102]),
   midi.NoteOffEvent(tick=480, channel=10, data=[62, 0]),
   midi.NoteOnEvent(tick=0, channel=10, data=[62, 100]),
   midi.NoteOffEvent(tick=480, channel=10, data=[62, 0]),
   midi.NoteOnEvent(tick=0, channel=10, data=[62, 100]),
   midi.NoteOffEvent(tick=480, channel=10, data=[62, 0]),
   midi.NoteOnEvent(tick=0, channel=10, data=[62, 105]),
   midi.NoteOffEvent(tick=960, channel=10, data=[62, 0]),
   midi.NoteOnEvent(tick=1920, channel=10, data=[64, 100]),
   midi.NoteOffEvent(tick=480, channel=10, data=[64, 0]),
   midi.NoteOnEvent(tick=0, channel=10, data=[64, 100]),
   midi.NoteOffEvent(tick=480, channel=10, data=[64, 0]),
   midi.NoteOnEvent(tick=0, channel=10, data=[64, 105]),
   midi.NoteOffEvent(tick=960, channel=10, data=[64, 0]),
   midi.NoteOnEvent(tick=0, channel=10, data=[54, 83]),
   midi.NoteOffEvent(tick=480, channel=10, data=[54, 0]),
   midi.NoteOnEvent(tick=0, channel=10, data=[54, 84]),
   midi.NoteOffEvent(tick=480, channel=10, data=[54, 0]),
   midi.NoteOnEvent(tick=0, channel=10, data=[54, 91]),
   midi.NoteOffEvent(tick=960, channel=10, data=[54, 0]),
   midi.NoteOnEvent(tick=5760, channel=10, data=[72, 99]),
   midi.NoteOffEvent(tick=1920, channel=10, data=[72, 0]),
   midi.NoteOnEvent(tick=0, channel=10, data=[69, 96]),
   midi.NoteOffEvent(tick=960, channel=10, data=[69, 0]),
   midi.NoteOnEvent(tick=0, channel=10, data=[66, 99]),
   midi.NoteOffEvent(tick=960, channel=10, data=[66, 0]),
   midi.NoteOnEvent(tick=0, channel=10, data=[62, 89]),
   midi.NoteOffEvent(tick=960, channel=10, data=[62, 0]),
   midi.NoteOnEvent(tick=0, channel=10, data=[60, 93]),
   midi.NoteOffEvent(tick=960, channel=10, data=[60, 0]),
   midi.NoteOnEvent(tick=0, channel=10, data=[57, 87]),
   midi.NoteOffEvent(tick=960, channel=10, data=[57, 0]),
   midi.NoteOnEvent(tick=0, channel=10, data=[54, 91]),
   midi.NoteOffEvent(tick=960, channel=10, data=[54, 0]),
   midi.NoteOnEvent(tick=0, channel=10, data=[50, 86]),
   midi.NoteOffEvent(tick=960, channel=10, data=[50, 0]),
   midi.NoteOnEvent(tick=0, channel=10, data=[55, 103]),
   midi.NoteOffEvent(tick=960, channel=10, data=[55, 0]),
   midi.NoteOnEvent(tick=5760, channel=10, data=[77, 98]),
   midi.NoteOffEvent(tick=1920, channel=10, data=[77, 0]),
   midi.NoteOnEvent(tick=0, channel=10, data=[74, 96]),
   midi.NoteOffEvent(tick=960, channel=10, data=[74, 0]),
   midi.NoteOnEvent(tick=0, channel=10, data=[71, 99]),
   midi.NoteOffEvent(tick=960, channel=10, data=[71, 0]),
   midi.NoteOnEvent(tick=0, channel=10, data=[67, 89]),
   midi.NoteOffEvent(tick=960, channel=10, data=[67, 0]),
   midi.NoteOnEvent(tick=0, channel=10, data=[63, 91]),
   midi.NoteOffEvent(tick=960, channel=10, data=[63, 0]),
   midi.NoteOnEvent(tick=0, channel=10, data=[62, 87]),
   midi.NoteOffEvent(tick=960, channel=10, data=[62, 0]),
   midi.NoteOnEvent(tick=0, channel=10, data=[59, 91]),
   midi.NoteOffEvent(tick=960, channel=10, data=[59, 0]),
   midi.NoteOnEvent(tick=0, channel=10, data=[55, 85]),
   midi.NoteOffEvent(tick=960, channel=10, data=[55, 0]),
   midi.NoteOnEvent(tick=0, channel=10, data=[60, 103]),
   midi.NoteOffEvent(tick=960, channel=10, data=[60, 0]),
   midi.NoteOnEvent(tick=4800, channel=10, data=[48, 104]),
   midi.NoteOnEvent(tick=0, channel=10, data=[60, 104]),
   midi.NoteOffEvent(tick=1920, channel=10, data=[48, 0]),
   midi.NoteOffEvent(tick=0, channel=10, data=[60, 0]),
   midi.NoteOnEvent(tick=0, channel=10, data=[60, 104]),
   midi.NoteOnEvent(tick=0, channel=10, data=[48, 104]),
   midi.NoteOffEvent(tick=1920, channel=10, data=[60, 0]),
   midi.NoteOffEvent(tick=0, channel=10, data=[48, 0]),
   midi.NoteOnEvent(tick=3840, channel=10, data=[55, 103]),
   midi.NoteOffEvent(tick=1920, channel=10, data=[55, 0]),
   midi.NoteOnEvent(tick=0, channel=10, data=[56, 104]),
   midi.NoteOffEvent(tick=1920, channel=10, data=[56, 0]),
   midi.NoteOnEvent(tick=3840, channel=10, data=[58, 104]),
   midi.NoteOffEvent(tick=1920, channel=10, data=[58, 0]),
   midi.NoteOnEvent(tick=0, channel=10, data=[51, 100]),
   midi.NoteOffEvent(tick=1920, channel=10, data=[51, 0]),
   midi.NoteOnEvent(tick=3840, channel=10, data=[53, 104]),
   midi.NoteOffEvent(tick=1920, channel=10, data=[53, 0]),
   midi.NoteOnEvent(tick=1920, channel=10, data=[54, 76]),
   midi.NoteOffEvent(tick=1920, channel=10, data=[54, 0]),
   midi.NoteOnEvent(tick=1920, channel=10, data=[53, 75]),
   midi.NoteOffEvent(tick=1920, channel=10, data=[53, 0]),
   midi.NoteOnEvent(tick=1920, channel=10, data=[54, 65]),
   midi.NoteOffEvent(tick=1920, channel=10, data=[54, 0]),
   midi.NoteOnEvent(tick=1920, channel=10, data=[54, 65]),
   midi.NoteOffEvent(tick=1920, channel=10, data=[54, 0]),
   midi.NoteOnEvent(tick=1920, channel=10, data=[54, 65]),
   midi.NoteOffEvent(tick=1920, channel=10, data=[54, 0]),
   midi.NoteOnEvent(tick=1920, channel=10, data=[50, 41]),
   midi.NoteOffEvent(tick=1920, channel=10, data=[50, 0]),
   midi.NoteOnEvent(tick=1920, channel=10, data=[50, 42]),
   midi.NoteOffEvent(tick=1920, channel=10, data=[50, 0]),
   midi.NoteOnEvent(tick=1920, channel=10, data=[50, 42]),
   midi.NoteOffEvent(tick=1920, channel=10, data=[50, 0]),
   midi.NoteOnEvent(tick=1920, channel=10, data=[50, 120]),
   midi.NoteOffEvent(tick=480, channel=10, data=[50, 0]),
   midi.NoteOnEvent(tick=0, channel=10, data=[62, 126]),
   midi.NoteOnEvent(tick=0, channel=10, data=[50, 113]),
   midi.NoteOffEvent(tick=480, channel=10, data=[62, 0]),
   midi.NoteOffEvent(tick=0, channel=10, data=[50, 0]),
   midi.NoteOnEvent(tick=0, channel=10, data=[62, 125]),
   midi.NoteOnEvent(tick=0, channel=10, data=[50, 113]),
   midi.NoteOffEvent(tick=480, channel=10, data=[62, 0]),
   midi.NoteOffEvent(tick=0, channel=10, data=[50, 0]),
   midi.NoteOnEvent(tick=0, channel=10, data=[62, 123]),
   midi.NoteOnEvent(tick=0, channel=10, data=[50, 113]),
   midi.NoteOffEvent(tick=480, channel=10, data=[62, 0]),
   midi.NoteOffEvent(tick=0, channel=10, data=[50, 0]),
   midi.NoteOnEvent(tick=0, channel=10, data=[62, 127]),
   midi.NoteOnEvent(tick=0, channel=10, data=[50, 120]),
   midi.NoteOffEvent(tick=1920, channel=10, data=[62, 0]),
   midi.NoteOffEvent(tick=0, channel=10, data=[50, 0]),
   midi.NoteOnEvent(tick=0, channel=10, data=[62, 124]),
   midi.NoteOnEvent(tick=0, channel=10, data=[50, 120]),
   midi.NoteOffEvent(tick=1920, channel=10, data=[62, 0]),
   midi.NoteOffEvent(tick=0, channel=10, data=[50, 0]),
   midi.NoteOnEvent(tick=0, channel=10, data=[62, 121]),
   midi.NoteOnEvent(tick=0, channel=10, data=[50, 120]),
   midi.NoteOffEvent(tick=3840, channel=10, data=[62, 0]),
   midi.NoteOffEvent(tick=0, channel=10, data=[50, 0]),
   midi.NoteOnEvent(tick=1920, channel=10, data=[53, 41]),
   midi.NoteOffEvent(tick=1920, channel=10, data=[53, 0]),
   midi.NoteOnEvent(tick=1920, channel=10, data=[53, 42]),
   midi.NoteOffEvent(tick=1920, channel=10, data=[53, 0]),
   midi.NoteOnEvent(tick=1920, channel=10, data=[53, 42]),
   midi.NoteOffEvent(tick=1920, channel=10, data=[53, 0]),
   midi.NoteOnEvent(tick=1920, channel=10, data=[53, 104]),
   midi.NoteOffEvent(tick=960, channel=10, data=[53, 0]),
   midi.NoteOnEvent(tick=1440, channel=10, data=[56, 115]),
   midi.NoteOffEvent(tick=480, channel=10, data=[56, 0]),
   midi.NoteOnEvent(tick=0, channel=10, data=[56, 115]),
   midi.NoteOffEvent(tick=480, channel=10, data=[56, 0]),
   midi.NoteOnEvent(tick=0, channel=10, data=[56, 114]),
   midi.NoteOffEvent(tick=480, channel=10, data=[56, 0]),
   midi.NoteOnEvent(tick=0, channel=10, data=[53, 113]),
   midi.NoteOffEvent(tick=2400, channel=10, data=[53, 0]),
   midi.NoteOnEvent(tick=0, channel=10, data=[56, 115]),
   midi.NoteOffEvent(tick=480, channel=10, data=[56, 0]),
   midi.NoteOnEvent(tick=0, channel=10, data=[56, 115]),
   midi.NoteOffEvent(tick=480, channel=10, data=[56, 0]),
   midi.NoteOnEvent(tick=0, channel=10, data=[56, 114]),
   midi.NoteOffEvent(tick=480, channel=10, data=[56, 0]),
   midi.NoteOnEvent(tick=0, channel=10, data=[53, 111]),
   midi.NoteOffEvent(tick=2400, channel=10, data=[53, 0]),
   midi.NoteOnEvent(tick=0, channel=10, data=[56, 115]),
   midi.NoteOffEvent(tick=480, channel=10, data=[56, 0]),
   midi.NoteOnEvent(tick=0, channel=10, data=[56, 115]),
   midi.NoteOffEvent(tick=480, channel=10, data=[56, 0]),
   midi.NoteOnEvent(tick=0, channel=10, data=[56, 114]),
   midi.NoteOffEvent(tick=480, channel=10, data=[56, 0]),
   midi.NoteOnEvent(tick=0, channel=10, data=[53, 111]),
   midi.NoteOffEvent(tick=480, channel=10, data=[53, 0]),
   midi.NoteOnEvent(tick=0, channel=10, data=[56, 117]),
   midi.NoteOffEvent(tick=480, channel=10, data=[56, 0]),
   midi.NoteOnEvent(tick=0, channel=10, data=[56, 116]),
   midi.NoteOffEvent(tick=480, channel=10, data=[56, 0]),
   midi.NoteOnEvent(tick=0, channel=10, data=[56, 116]),
   midi.NoteOffEvent(tick=480, channel=10, data=[56, 0]),
   midi.NoteOnEvent(tick=0, channel=10, data=[53, 108]),
   midi.NoteOffEvent(tick=480, channel=10, data=[53, 0]),
   midi.NoteOnEvent(tick=0, channel=10, data=[56, 118]),
   midi.NoteOffEvent(tick=480, channel=10, data=[56, 0]),
   midi.NoteOnEvent(tick=0, channel=10, data=[56, 117]),
   midi.NoteOffEvent(tick=480, channel=10, data=[56, 0]),
   midi.NoteOnEvent(tick=0, channel=10, data=[56, 116]),
   midi.NoteOffEvent(tick=480, channel=10, data=[56, 0]),
   midi.NoteOnEvent(tick=0, channel=10, data=[53, 107]),
   midi.NoteOffEvent(tick=480, channel=10, data=[53, 0]),
   midi.NoteOnEvent(tick=0, channel=10, data=[55, 113]),
   midi.NoteOffEvent(tick=480, channel=10, data=[55, 0]),
   midi.NoteOnEvent(tick=0, channel=10, data=[55, 113]),
   midi.NoteOffEvent(tick=480, channel=10, data=[55, 0]),
   midi.NoteOnEvent(tick=0, channel=10, data=[55, 113]),
   midi.NoteOffEvent(tick=480, channel=10, data=[55, 0]),
   midi.NoteOnEvent(tick=0, channel=10, data=[51, 111]),
   midi.NoteOffEvent(tick=3840, channel=10, data=[51, 0]),
   midi.NoteOnEvent(tick=2400, channel=10, data=[53, 113]),
   midi.NoteOffEvent(tick=480, channel=10, data=[53, 0]),
   midi.NoteOnEvent(tick=0, channel=10, data=[53, 113]),
   midi.NoteOffEvent(tick=480, channel=10, data=[53, 0]),
   midi.NoteOnEvent(tick=0, channel=10, data=[53, 113]),
   midi.NoteOffEvent(tick=480, channel=10, data=[53, 0]),
   midi.NoteOnEvent(tick=0, channel=10, data=[50, 115]),
   midi.NoteOffEvent(tick=5760, channel=10, data=[50, 0]),
   midi.NoteOnEvent(tick=3840, channel=10, data=[60, 65]),
   midi.NoteOffEvent(tick=480, channel=10, data=[60, 0]),
   midi.NoteOnEvent(tick=3360, channel=10, data=[60, 65]),
   midi.NoteOffEvent(tick=480, channel=10, data=[60, 0]),
   midi.NoteOnEvent(tick=3360, channel=10, data=[59, 65]),
   midi.NoteOffEvent(tick=480, channel=10, data=[59, 0]),
   midi.NoteOnEvent(tick=3360, channel=10, data=[59, 65]),
   midi.NoteOffEvent(tick=480, channel=10, data=[59, 0]),
   midi.NoteOnEvent(tick=3360, channel=10, data=[60, 65]),
   midi.NoteOffEvent(tick=480, channel=10, data=[60, 0]),
   midi.NoteOnEvent(tick=1440, channel=10, data=[59, 64]),
   midi.NoteOffEvent(tick=480, channel=10, data=[59, 0]),
   midi.NoteOnEvent(tick=1920, channel=10, data=[51, 60]),
   midi.NoteOffEvent(tick=480, channel=10, data=[51, 0]),
   midi.NoteOnEvent(tick=0, channel=10, data=[51, 61]),
   midi.NoteOffEvent(tick=480, channel=10, data=[51, 0]),
   midi.NoteOnEvent(tick=0, channel=10, data=[53, 62]),
   midi.NoteOffEvent(tick=480, channel=10, data=[53, 0]),
   midi.NoteOnEvent(tick=0, channel=10, data=[55, 68]),
   midi.NoteOffEvent(tick=480, channel=10, data=[55, 0]),
   midi.NoteOnEvent(tick=0, channel=10, data=[55, 63]),
   midi.NoteOffEvent(tick=480, channel=10, data=[55, 0]),
   midi.NoteOnEvent(tick=0, channel=10, data=[57, 64]),
   midi.NoteOffEvent(tick=480, channel=10, data=[57, 0]),
   midi.NoteOnEvent(tick=0, channel=10, data=[59, 66]),
   midi.NoteOffEvent(tick=480, channel=10, data=[59, 0]),
   midi.NoteOnEvent(tick=0, channel=10, data=[60, 80]),
   midi.NoteOffEvent(tick=960, channel=10, data=[60, 0]),
   midi.NoteOnEvent(tick=960, channel=10, data=[56, 88]),
   midi.NoteOffEvent(tick=960, channel=10, data=[56, 0]),
   midi.NoteOnEvent(tick=960, channel=10, data=[55, 120]),
   midi.NoteOffEvent(tick=960, channel=10, data=[55, 0]),
   midi.NoteOnEvent(tick=14880, channel=10, data=[56, 61]),
   midi.NoteOffEvent(tick=480, channel=10, data=[56, 0]),
   midi.NoteOnEvent(tick=0, channel=10, data=[56, 61]),
   midi.NoteOffEvent(tick=480, channel=10, data=[56, 0]),
   midi.NoteOnEvent(tick=0, channel=10, data=[56, 61]),
   midi.NoteOffEvent(tick=480, channel=10, data=[56, 0]),
   midi.NoteOnEvent(tick=0, channel=10, data=[55, 63]),
   midi.NoteOffEvent(tick=1920, channel=10, data=[55, 0]),
   midi.NoteOnEvent(tick=0, channel=10, data=[55, 64]),
   midi.NoteOffEvent(tick=480, channel=10, data=[55, 0]),
   midi.NoteOnEvent(tick=0, channel=10, data=[56, 62]),
   midi.NoteOffEvent(tick=480, channel=10, data=[56, 0]),
   midi.NoteOnEvent(tick=0, channel=10, data=[56, 62]),
   midi.NoteOffEvent(tick=480, channel=10, data=[56, 0]),
   midi.NoteOnEvent(tick=0, channel=10, data=[56, 62]),
   midi.NoteOffEvent(tick=480, channel=10, data=[56, 0]),
   midi.NoteOnEvent(tick=0, channel=10, data=[53, 59]),
   midi.NoteOffEvent(tick=480, channel=10, data=[53, 0]),
   midi.NoteOnEvent(tick=0, channel=10, data=[50, 53]),
   midi.NoteOffEvent(tick=480, channel=10, data=[50, 0]),
   midi.NoteOnEvent(tick=0, channel=10, data=[50, 54]),
   midi.NoteOffEvent(tick=480, channel=10, data=[50, 0]),
   midi.NoteOnEvent(tick=0, channel=10, data=[50, 55]),
   midi.NoteOffEvent(tick=480, channel=10, data=[50, 0]),
   midi.NoteOnEvent(tick=0, channel=10, data=[59, 102]),
   midi.NoteOffEvent(tick=480, channel=10, data=[59, 0]),
   midi.NoteOnEvent(tick=0, channel=10, data=[56, 92]),
   midi.NoteOffEvent(tick=480, channel=10, data=[56, 0]),
   midi.NoteOnEvent(tick=0, channel=10, data=[56, 91]),
   midi.NoteOffEvent(tick=480, channel=10, data=[56, 0]),
   midi.NoteOnEvent(tick=0, channel=10, data=[56, 90]),
   midi.NoteOffEvent(tick=480, channel=10, data=[56, 0]),
   midi.NoteOnEvent(tick=0, channel=10, data=[55, 90]),
   midi.NoteOffEvent(tick=480, channel=10, data=[55, 0]),
   midi.NoteOnEvent(tick=0, channel=10, data=[55, 85]),
   midi.NoteOffEvent(tick=480, channel=10, data=[55, 0]),
   midi.NoteOnEvent(tick=0, channel=10, data=[55, 85]),
   midi.NoteOffEvent(tick=480, channel=10, data=[55, 0]),
   midi.NoteOnEvent(tick=0, channel=10, data=[55, 84]),
   midi.NoteOffEvent(tick=480, channel=10, data=[55, 0]),
   midi.NoteOnEvent(tick=0, channel=10, data=[55, 104]),
   midi.NoteOffEvent(tick=480, channel=10, data=[55, 0]),
   midi.NoteOnEvent(tick=0, channel=10, data=[60, 112]),
   midi.NoteOffEvent(tick=480, channel=10, data=[60, 0]),
   midi.NoteOnEvent(tick=0, channel=10, data=[63, 112]),
   midi.NoteOffEvent(tick=480, channel=10, data=[63, 0]),
   midi.NoteOnEvent(tick=0, channel=10, data=[63, 112]),
   midi.NoteOffEvent(tick=480, channel=10, data=[63, 0]),
   midi.NoteOnEvent(tick=0, channel=10, data=[62, 119]),
   midi.NoteOffEvent(tick=2400, channel=10, data=[62, 0]),
   midi.NoteOnEvent(tick=0, channel=10, data=[65, 109]),
   midi.NoteOffEvent(tick=480, channel=10, data=[65, 0]),
   midi.NoteOnEvent(tick=0, channel=10, data=[65, 107]),
   midi.NoteOffEvent(tick=480, channel=10, data=[65, 0]),
   midi.NoteOnEvent(tick=0, channel=10, data=[62, 96]),
   midi.NoteOffEvent(tick=480, channel=10, data=[62, 0]),
   midi.NoteOnEvent(tick=0, channel=10, data=[63, 105]),
   midi.NoteOffEvent(tick=2400, channel=10, data=[63, 0]),
   midi.NoteOnEvent(tick=0, channel=10, data=[63, 97]),
   midi.NoteOffEvent(tick=480, channel=10, data=[63, 0]),
   midi.NoteOnEvent(tick=0, channel=10, data=[63, 97]),
   midi.NoteOffEvent(tick=480, channel=10, data=[63, 0]),
   midi.NoteOnEvent(tick=0, channel=10, data=[60, 90]),
   midi.NoteOffEvent(tick=480, channel=10, data=[60, 0]),
   midi.NoteOnEvent(tick=0, channel=10, data=[65, 112]),
   midi.NoteOffEvent(tick=480, channel=10, data=[65, 0]),
   midi.NoteOnEvent(tick=0, channel=10, data=[65, 105]),
   midi.NoteOffEvent(tick=480, channel=10, data=[65, 0]),
   midi.NoteOnEvent(tick=0, channel=10, data=[65, 104]),
   midi.NoteOffEvent(tick=480, channel=10, data=[65, 0]),
   midi.NoteOnEvent(tick=0, channel=10, data=[59, 84]),
   midi.NoteOffEvent(tick=480, channel=10, data=[59, 0]),
   midi.NoteOnEvent(tick=0, channel=10, data=[67, 118]),
   midi.NoteOffEvent(tick=480, channel=10, data=[67, 0]),
   midi.NoteOnEvent(tick=0, channel=10, data=[67, 110]),
   midi.NoteOffEvent(tick=480, channel=10, data=[67, 0]),
   midi.NoteOnEvent(tick=0, channel=10, data=[67, 109]),
   midi.NoteOffEvent(tick=480, channel=10, data=[67, 0]),
   midi.NoteOnEvent(tick=0, channel=10, data=[58, 83]),
   midi.NoteOffEvent(tick=480, channel=10, data=[58, 0]),
   midi.NoteOnEvent(tick=0, channel=10, data=[68, 119]),
   midi.NoteOffEvent(tick=480, channel=10, data=[68, 0]),
   midi.NoteOnEvent(tick=0, channel=10, data=[56, 83]),
   midi.NoteOffEvent(tick=480, channel=10, data=[56, 0]),
   midi.NoteOnEvent(tick=0, channel=10, data=[56, 83]),
   midi.NoteOffEvent(tick=480, channel=10, data=[56, 0]),
   midi.NoteOnEvent(tick=0, channel=10, data=[53, 83]),
   midi.NoteOffEvent(tick=480, channel=10, data=[53, 0]),
   midi.NoteOnEvent(tick=0, channel=10, data=[58, 93]),
   midi.NoteOffEvent(tick=480, channel=10, data=[58, 0]),
   midi.NoteOnEvent(tick=0, channel=10, data=[58, 89]),
   midi.NoteOffEvent(tick=480, channel=10, data=[58, 0]),
   midi.NoteOnEvent(tick=0, channel=10, data=[58, 91]),
   midi.NoteOffEvent(tick=480, channel=10, data=[58, 0]),
   midi.NoteOnEvent(tick=0, channel=10, data=[55, 83]),
   midi.NoteOffEvent(tick=480, channel=10, data=[55, 0]),
   midi.NoteOnEvent(tick=0, channel=10, data=[60, 113]),
   midi.NoteOffEvent(tick=480, channel=10, data=[60, 0]),
   midi.NoteOnEvent(tick=0, channel=10, data=[60, 106]),
   midi.NoteOffEvent(tick=480, channel=10, data=[60, 0]),
   midi.NoteOnEvent(tick=0, channel=10, data=[60, 105]),
   midi.NoteOffEvent(tick=480, channel=10, data=[60, 0]),
   midi.NoteOnEvent(tick=0, channel=10, data=[56, 87]),
   midi.NoteOffEvent(tick=480, channel=10, data=[56, 0]),
   midi.NoteOnEvent(tick=0, channel=10, data=[65, 119]),
   midi.NoteOffEvent(tick=480, channel=10, data=[65, 0]),
   midi.NoteOnEvent(tick=0, channel=10, data=[65, 112]),
   midi.NoteOffEvent(tick=480, channel=10, data=[65, 0]),
   midi.NoteOnEvent(tick=0, channel=10, data=[65, 112]),
   midi.NoteOffEvent(tick=480, channel=10, data=[65, 0]),
   midi.NoteOnEvent(tick=0, channel=10, data=[62, 103]),
   midi.NoteOffEvent(tick=480, channel=10, data=[62, 0]),
   midi.NoteOnEvent(tick=0, channel=10, data=[63, 112]),
   midi.NoteOffEvent(tick=480, channel=10, data=[63, 0]),
   midi.NoteOnEvent(tick=0, channel=10, data=[51, 83]),
   midi.NoteOnEvent(tick=0, channel=10, data=[48, 98]),
   midi.NoteOffEvent(tick=480, channel=10, data=[51, 0]),
   midi.NoteOffEvent(tick=0, channel=10, data=[48, 0]),
   midi.NoteOnEvent(tick=0, channel=10, data=[51, 83]),
   midi.NoteOnEvent(tick=0, channel=10, data=[48, 98]),
   midi.NoteOffEvent(tick=480, channel=10, data=[51, 0]),
   midi.NoteOffEvent(tick=0, channel=10, data=[48, 0]),
   midi.NoteOnEvent(tick=0, channel=10, data=[51, 83]),
   midi.NoteOnEvent(tick=0, channel=10, data=[48, 98]),
   midi.NoteOffEvent(tick=480, channel=10, data=[51, 0]),
   midi.NoteOffEvent(tick=0, channel=10, data=[48, 0]),
   midi.NoteOnEvent(tick=0, channel=10, data=[51, 88]),
   midi.NoteOnEvent(tick=0, channel=10, data=[48, 104]),
   midi.NoteOffEvent(tick=480, channel=10, data=[51, 0]),
   midi.NoteOffEvent(tick=0, channel=10, data=[48, 0]),
   midi.NoteOnEvent(tick=0, channel=10, data=[51, 83]),
   midi.NoteOnEvent(tick=0, channel=10, data=[48, 98]),
   midi.NoteOffEvent(tick=480, channel=10, data=[51, 0]),
   midi.NoteOffEvent(tick=0, channel=10, data=[48, 0]),
   midi.NoteOnEvent(tick=0, channel=10, data=[51, 85]),
   midi.NoteOnEvent(tick=0, channel=10, data=[48, 98]),
   midi.NoteOffEvent(tick=480, channel=10, data=[51, 0]),
   midi.NoteOffEvent(tick=0, channel=10, data=[48, 0]),
   midi.NoteOnEvent(tick=0, channel=10, data=[51, 87]),
   midi.NoteOnEvent(tick=0, channel=10, data=[48, 98]),
   midi.NoteOffEvent(tick=480, channel=10, data=[51, 0]),
   midi.NoteOffEvent(tick=0, channel=10, data=[48, 0]),
   midi.NoteOnEvent(tick=0, channel=10, data=[51, 93]),
   midi.NoteOnEvent(tick=0, channel=10, data=[48, 104]),
   midi.NoteOffEvent(tick=480, channel=10, data=[51, 0]),
   midi.NoteOffEvent(tick=0, channel=10, data=[48, 0]),
   midi.NoteOnEvent(tick=0, channel=10, data=[51, 91]),
   midi.NoteOnEvent(tick=0, channel=10, data=[48, 98]),
   midi.NoteOffEvent(tick=480, channel=10, data=[51, 0]),
   midi.NoteOffEvent(tick=0, channel=10, data=[48, 0]),
   midi.NoteOnEvent(tick=0, channel=10, data=[51, 93]),
   midi.NoteOnEvent(tick=0, channel=10, data=[48, 98]),
   midi.NoteOffEvent(tick=480, channel=10, data=[51, 0]),
   midi.NoteOffEvent(tick=0, channel=10, data=[48, 0]),
   midi.NoteOnEvent(tick=0, channel=10, data=[51, 94]),
   midi.NoteOnEvent(tick=0, channel=10, data=[48, 98]),
   midi.NoteOffEvent(tick=480, channel=10, data=[51, 0]),
   midi.NoteOffEvent(tick=0, channel=10, data=[48, 0]),
   midi.NoteOnEvent(tick=0, channel=10, data=[51, 101]),
   midi.NoteOnEvent(tick=0, channel=10, data=[48, 104]),
   midi.NoteOffEvent(tick=480, channel=10, data=[51, 0]),
   midi.NoteOffEvent(tick=0, channel=10, data=[48, 0]),
   midi.NoteOnEvent(tick=0, channel=10, data=[51, 96]),
   midi.NoteOnEvent(tick=0, channel=10, data=[48, 98]),
   midi.NoteOffEvent(tick=480, channel=10, data=[51, 0]),
   midi.NoteOffEvent(tick=0, channel=10, data=[48, 0]),
   midi.NoteOnEvent(tick=0, channel=10, data=[51, 97]),
   midi.NoteOnEvent(tick=0, channel=10, data=[48, 98]),
   midi.NoteOffEvent(tick=480, channel=10, data=[51, 0]),
   midi.NoteOffEvent(tick=0, channel=10, data=[48, 0]),
   midi.NoteOnEvent(tick=0, channel=10, data=[51, 97]),
   midi.NoteOnEvent(tick=0, channel=10, data=[48, 98]),
   midi.NoteOffEvent(tick=480, channel=10, data=[51, 0]),
   midi.NoteOffEvent(tick=0, channel=10, data=[48, 0]),
   midi.NoteOnEvent(tick=0, channel=10, data=[53, 113]),
   midi.NoteOnEvent(tick=0, channel=10, data=[50, 112]),
   midi.NoteOffEvent(tick=480, channel=10, data=[53, 0]),
   midi.NoteOffEvent(tick=0, channel=10, data=[50, 0]),
   midi.NoteOnEvent(tick=0, channel=10, data=[53, 105]),
   midi.NoteOnEvent(tick=0, channel=10, data=[50, 104]),
   midi.NoteOffEvent(tick=480, channel=10, data=[53, 0]),
   midi.NoteOffEvent(tick=0, channel=10, data=[50, 0]),
   midi.NoteOnEvent(tick=0, channel=10, data=[53, 104]),
   midi.NoteOnEvent(tick=0, channel=10, data=[50, 103]),
   midi.NoteOffEvent(tick=480, channel=10, data=[53, 0]),
   midi.NoteOffEvent(tick=0, channel=10, data=[50, 0]),
   midi.NoteOnEvent(tick=0, channel=10, data=[53, 103]),
   midi.NoteOnEvent(tick=0, channel=10, data=[50, 102]),
   midi.NoteOffEvent(tick=480, channel=10, data=[53, 0]),
   midi.NoteOffEvent(tick=0, channel=10, data=[50, 0]),
   midi.NoteOnEvent(tick=0, channel=10, data=[53, 108]),
   midi.NoteOnEvent(tick=0, channel=10, data=[50, 107]),
   midi.NoteOffEvent(tick=480, channel=10, data=[53, 0]),
   midi.NoteOffEvent(tick=0, channel=10, data=[50, 0]),
   midi.NoteOnEvent(tick=0, channel=10, data=[53, 101]),
   midi.NoteOnEvent(tick=0, channel=10, data=[50, 101]),
   midi.NoteOffEvent(tick=480, channel=10, data=[53, 0]),
   midi.NoteOffEvent(tick=0, channel=10, data=[50, 0]),
   midi.NoteOnEvent(tick=0, channel=10, data=[53, 100]),
   midi.NoteOnEvent(tick=0, channel=10, data=[50, 100]),
   midi.NoteOffEvent(tick=480, channel=10, data=[53, 0]),
   midi.NoteOffEvent(tick=0, channel=10, data=[50, 0]),
   midi.NoteOnEvent(tick=0, channel=10, data=[53, 100]),
   midi.NoteOnEvent(tick=0, channel=10, data=[50, 99]),
   midi.NoteOffEvent(tick=480, channel=10, data=[53, 0]),
   midi.NoteOffEvent(tick=0, channel=10, data=[50, 0]),
   midi.NoteOnEvent(tick=0, channel=10, data=[53, 105]),
   midi.NoteOnEvent(tick=0, channel=10, data=[50, 105]),
   midi.NoteOffEvent(tick=480, channel=10, data=[53, 0]),
   midi.NoteOffEvent(tick=0, channel=10, data=[50, 0]),
   midi.NoteOnEvent(tick=0, channel=10, data=[53, 99]),
   midi.NoteOnEvent(tick=0, channel=10, data=[50, 99]),
   midi.NoteOffEvent(tick=480, channel=10, data=[53, 0]),
   midi.NoteOffEvent(tick=0, channel=10, data=[50, 0]),
   midi.NoteOnEvent(tick=0, channel=10, data=[53, 98]),
   midi.NoteOnEvent(tick=0, channel=10, data=[50, 98]),
   midi.NoteOffEvent(tick=480, channel=10, data=[53, 0]),
   midi.NoteOffEvent(tick=0, channel=10, data=[50, 0]),
   midi.NoteOnEvent(tick=0, channel=10, data=[53, 98]),
   midi.NoteOnEvent(tick=0, channel=10, data=[50, 98]),
   midi.NoteOffEvent(tick=480, channel=10, data=[53, 0]),
   midi.NoteOffEvent(tick=0, channel=10, data=[50, 0]),
   midi.NoteOnEvent(tick=0, channel=10, data=[53, 104]),
   midi.NoteOnEvent(tick=0, channel=10, data=[50, 104]),
   midi.NoteOffEvent(tick=480, channel=10, data=[53, 0]),
   midi.NoteOffEvent(tick=0, channel=10, data=[50, 0]),
   midi.NoteOnEvent(tick=0, channel=10, data=[53, 98]),
   midi.NoteOnEvent(tick=0, channel=10, data=[50, 98]),
   midi.NoteOffEvent(tick=480, channel=10, data=[53, 0]),
   midi.NoteOffEvent(tick=0, channel=10, data=[50, 0]),
   midi.NoteOnEvent(tick=0, channel=10, data=[51, 90]),
   midi.NoteOnEvent(tick=0, channel=10, data=[48, 91]),
   midi.NoteOffEvent(tick=480, channel=10, data=[51, 0]),
   midi.NoteOffEvent(tick=0, channel=10, data=[48, 0]),
   midi.NoteOnEvent(tick=0, channel=10, data=[51, 91]),
   midi.NoteOnEvent(tick=0, channel=10, data=[48, 92]),
   midi.NoteOffEvent(tick=480, channel=10, data=[51, 0]),
   midi.NoteOffEvent(tick=0, channel=10, data=[48, 0]),
   midi.NoteOnEvent(tick=0, channel=10, data=[57, 127]),
   midi.NoteOnEvent(tick=0, channel=10, data=[51, 127]),
   midi.NoteOffEvent(tick=480, channel=10, data=[57, 0]),
   midi.NoteOffEvent(tick=0, channel=10, data=[51, 0]),
   midi.NoteOnEvent(tick=0, channel=10, data=[75, 127]),
   midi.NoteOffEvent(tick=480, channel=10, data=[75, 0]),
   midi.NoteOnEvent(tick=0, channel=10, data=[75, 127]),
   midi.NoteOffEvent(tick=480, channel=10, data=[75, 0]),
   midi.NoteOnEvent(tick=0, channel=10, data=[75, 127]),
   midi.NoteOffEvent(tick=480, channel=10, data=[75, 0]),
   midi.NoteOnEvent(tick=0, channel=10, data=[72, 127]),
   midi.NoteOffEvent(tick=480, channel=10, data=[72, 0]),
   midi.NoteOnEvent(tick=0, channel=10, data=[69, 126]),
   midi.NoteOffEvent(tick=480, channel=10, data=[69, 0]),
   midi.NoteOnEvent(tick=0, channel=10, data=[69, 124]),
   midi.NoteOffEvent(tick=480, channel=10, data=[69, 0]),
   midi.NoteOnEvent(tick=0, channel=10, data=[69, 120]),
   midi.NoteOffEvent(tick=480, channel=10, data=[69, 0]),
   midi.NoteOnEvent(tick=0, channel=10, data=[66, 110]),
   midi.NoteOffEvent(tick=480, channel=10, data=[66, 0]),
   midi.NoteOnEvent(tick=0, channel=10, data=[63, 96]),
   midi.NoteOffEvent(tick=480, channel=10, data=[63, 0]),
   midi.NoteOnEvent(tick=0, channel=10, data=[63, 96]),
   midi.NoteOffEvent(tick=480, channel=10, data=[63, 0]),
   midi.NoteOnEvent(tick=0, channel=10, data=[63, 97]),
   midi.NoteOffEvent(tick=480, channel=10, data=[63, 0]),
   midi.NoteOnEvent(tick=0, channel=10, data=[60, 102]),
   midi.NoteOffEvent(tick=480, channel=10, data=[60, 0]),
   midi.NoteOnEvent(tick=0, channel=10, data=[57, 96]),
   midi.NoteOffEvent(tick=480, channel=10, data=[57, 0]),
   midi.NoteOnEvent(tick=0, channel=10, data=[57, 96]),
   midi.NoteOffEvent(tick=480, channel=10, data=[57, 0]),
   midi.NoteOnEvent(tick=0, channel=10, data=[57, 96]),
   midi.NoteOffEvent(tick=480, channel=10, data=[57, 0]),
   midi.NoteOnEvent(tick=0, channel=10, data=[60, 112]),
   midi.NoteOffEvent(tick=960, channel=10, data=[60, 0]),
   midi.NoteOnEvent(tick=2880, channel=10, data=[62, 124]),
   midi.NoteOnEvent(tick=0, channel=10, data=[59, 120]),
   midi.NoteOffEvent(tick=480, channel=10, data=[59, 0]),
   midi.NoteOffEvent(tick=480, channel=10, data=[62, 0]),
   midi.NoteOnEvent(tick=8640, channel=10, data=[60, 65]),
   midi.NoteOnEvent(tick=1920, channel=10, data=[62, 65]),
   midi.NoteOffEvent(tick=38, channel=10, data=[60, 0]),
   midi.NoteOffEvent(tick=1785, channel=10, data=[62, 0]),
   midi.NoteOnEvent(tick=97, channel=10, data=[59, 63]),
   midi.NoteOnEvent(tick=1920, channel=10, data=[60, 65]),
   midi.NoteOffEvent(tick=38, channel=10, data=[59, 0]),
   midi.NoteOffEvent(tick=1785, channel=10, data=[60, 0]),
   midi.NoteOnEvent(tick=7777, channel=10, data=[60, 65]),
   midi.NoteOnEvent(tick=1920, channel=10, data=[62, 65]),
   midi.NoteOffEvent(tick=38, channel=10, data=[60, 0]),
   midi.NoteOffEvent(tick=1785, channel=10, data=[62, 0]),
   midi.NoteOnEvent(tick=97, channel=10, data=[59, 63]),
   midi.NoteOnEvent(tick=1920, channel=10, data=[60, 65]),
   midi.NoteOffEvent(tick=38, channel=10, data=[59, 0]),
   midi.NoteOffEvent(tick=1785, channel=10, data=[60, 0]),
   midi.NoteOnEvent(tick=7777, channel=10, data=[67, 65]),
   midi.NoteOnEvent(tick=1920, channel=10, data=[64, 64]),
   midi.NoteOffEvent(tick=38, channel=10, data=[67, 0]),
   midi.NoteOffEvent(tick=1785, channel=10, data=[64, 0]),
   midi.NoteOnEvent(tick=97, channel=10, data=[64, 64]),
   midi.NoteOnEvent(tick=1920, channel=10, data=[60, 62]),
   midi.NoteOffEvent(tick=38, channel=10, data=[64, 0]),
   midi.NoteOffEvent(tick=1785, channel=10, data=[60, 0]),
   midi.NoteOnEvent(tick=97, channel=10, data=[65, 67]),
   midi.NoteOnEvent(tick=1920, channel=10, data=[66, 66]),
   midi.NoteOffEvent(tick=38, channel=10, data=[65, 0]),
   midi.NoteOffEvent(tick=1785, channel=10, data=[66, 0]),
   midi.NoteOnEvent(tick=97, channel=10, data=[66, 65]),
   midi.NoteOnEvent(tick=1920, channel=10, data=[62, 62]),
   midi.NoteOffEvent(tick=38, channel=10, data=[66, 0]),
   midi.NoteOffEvent(tick=1785, channel=10, data=[62, 0]),
   midi.NoteOnEvent(tick=2497, channel=10, data=[56, 70]),
   midi.NoteOffEvent(tick=480, channel=10, data=[56, 0]),
   midi.NoteOnEvent(tick=0, channel=10, data=[56, 70]),
   midi.NoteOffEvent(tick=480, channel=10, data=[56, 0]),
   midi.NoteOnEvent(tick=0, channel=10, data=[56, 70]),
   midi.NoteOffEvent(tick=480, channel=10, data=[56, 0]),
   midi.NoteOnEvent(tick=0, channel=10, data=[56, 75]),
   midi.NoteOffEvent(tick=960, channel=10, data=[56, 0]),
   midi.NoteOnEvent(tick=1440, channel=10, data=[59, 74]),
   midi.NoteOffEvent(tick=480, channel=10, data=[59, 0]),
   midi.NoteOnEvent(tick=0, channel=10, data=[59, 74]),
   midi.NoteOffEvent(tick=480, channel=10, data=[59, 0]),
   midi.NoteOnEvent(tick=0, channel=10, data=[59, 73]),
   midi.NoteOffEvent(tick=480, channel=10, data=[59, 0]),
   midi.NoteOnEvent(tick=0, channel=10, data=[59, 77]),
   midi.NoteOffEvent(tick=960, channel=10, data=[59, 0]),
   midi.NoteOnEvent(tick=2880, channel=10, data=[53, 85]),
   midi.NoteOnEvent(tick=960, channel=10, data=[55, 83]),
   midi.NoteOffEvent(tick=19, channel=10, data=[53, 0]),
   midi.NoteOffEvent(tick=892, channel=10, data=[55, 0]),
   midi.NoteOnEvent(tick=49, channel=10, data=[56, 90]),
   midi.NoteOnEvent(tick=960, channel=10, data=[55, 84]),
   midi.NoteOffEvent(tick=19, channel=10, data=[56, 0]),
   midi.NoteOffEvent(tick=892, channel=10, data=[55, 0]),
   midi.NoteOnEvent(tick=49, channel=10, data=[54, 87]),
   midi.NoteOffEvent(tick=960, channel=10, data=[54, 0]),
   midi.NoteOnEvent(tick=0, channel=10, data=[55, 84]),
   midi.NoteOffEvent(tick=960, channel=10, data=[55, 0]),
   midi.NoteOnEvent(tick=0, channel=10, data=[57, 93]),
   midi.NoteOnEvent(tick=960, channel=10, data=[55, 83]),
   midi.NoteOffEvent(tick=19, channel=10, data=[57, 0]),
   midi.NoteOffEvent(tick=892, channel=10, data=[55, 0]),
   midi.NoteOnEvent(tick=49, channel=10, data=[54, 86]),
   midi.NoteOffEvent(tick=960, channel=10, data=[54, 0]),
   midi.NoteOnEvent(tick=0, channel=10, data=[55, 84]),
   midi.NoteOffEvent(tick=960, channel=10, data=[55, 0]),
   midi.NoteOnEvent(tick=0, channel=10, data=[57, 108]),
   midi.NoteOnEvent(tick=960, channel=10, data=[55, 96]),
   midi.NoteOffEvent(tick=19, channel=10, data=[57, 0]),
   midi.NoteOffEvent(tick=892, channel=10, data=[55, 0]),
   midi.NoteOnEvent(tick=49, channel=10, data=[54, 100]),
   midi.NoteOffEvent(tick=960, channel=10, data=[54, 0]),
   midi.NoteOnEvent(tick=0, channel=10, data=[55, 98]),
   midi.NoteOffEvent(tick=960, channel=10, data=[55, 0]),
   midi.NoteOnEvent(tick=0, channel=10, data=[54, 101]),
   midi.NoteOffEvent(tick=960, channel=10, data=[54, 0]),
   midi.NoteOnEvent(tick=0, channel=10, data=[55, 99]),
   midi.NoteOffEvent(tick=960, channel=10, data=[55, 0]),
   midi.NoteOnEvent(tick=0, channel=10, data=[54, 102]),
   midi.NoteOffEvent(tick=960, channel=10, data=[54, 0]),
   midi.NoteOnEvent(tick=0, channel=10, data=[55, 99]),
   midi.NoteOffEvent(tick=960, channel=10, data=[55, 0]),
   midi.NoteOnEvent(tick=0, channel=10, data=[65, 127]),
   midi.NoteOnEvent(tick=0, channel=10, data=[55, 120]),
   midi.NoteOffEvent(tick=2880, channel=10, data=[65, 0]),
   midi.NoteOffEvent(tick=0, channel=10, data=[55, 0]),
   midi.NoteOnEvent(tick=0, channel=10, data=[50, 106]),
   midi.NoteOffEvent(tick=480, channel=10, data=[50, 0]),
   midi.NoteOnEvent(tick=0, channel=10, data=[50, 108]),
   midi.NoteOffEvent(tick=480, channel=10, data=[50, 0]),
   midi.NoteOnEvent(tick=0, channel=10, data=[52, 119]),
   midi.NoteOffEvent(tick=480, channel=10, data=[52, 0]),
   midi.NoteOnEvent(tick=0, channel=10, data=[52, 112]),
   midi.NoteOffEvent(tick=480, channel=10, data=[52, 0]),
   midi.NoteOnEvent(tick=0, channel=10, data=[55, 123]),
   midi.NoteOffEvent(tick=480, channel=10, data=[55, 0]),
   midi.NoteOnEvent(tick=0, channel=10, data=[55, 122]),
   midi.NoteOffEvent(tick=480, channel=10, data=[55, 0]),
   midi.NoteOnEvent(tick=0, channel=10, data=[53, 119]),
   midi.NoteOffEvent(tick=480, channel=10, data=[53, 0]),
   midi.NoteOnEvent(tick=0, channel=10, data=[53, 113]),
   midi.NoteOffEvent(tick=480, channel=10, data=[53, 0]),
   midi.NoteOnEvent(tick=0, channel=10, data=[55, 122]),
   midi.NoteOffEvent(tick=480, channel=10, data=[55, 0]),
   midi.NoteOnEvent(tick=0, channel=10, data=[55, 121]),
   midi.NoteOffEvent(tick=480, channel=10, data=[55, 0]),
   midi.NoteOnEvent(tick=0, channel=10, data=[52, 112]),
   midi.NoteOffEvent(tick=480, channel=10, data=[52, 0]),
   midi.NoteOnEvent(tick=0, channel=10, data=[52, 106]),
   midi.NoteOffEvent(tick=480, channel=10, data=[52, 0]),
   midi.NoteOnEvent(tick=0, channel=10, data=[55, 123]),
   midi.NoteOffEvent(tick=480, channel=10, data=[55, 0]),
   midi.NoteOnEvent(tick=0, channel=10, data=[55, 121]),
   midi.NoteOffEvent(tick=480, channel=10, data=[55, 0]),
   midi.NoteOnEvent(tick=0, channel=10, data=[50, 105]),
   midi.NoteOffEvent(tick=480, channel=10, data=[50, 0]),
   midi.NoteOnEvent(tick=0, channel=10, data=[50, 100]),
   midi.NoteOffEvent(tick=480, channel=10, data=[50, 0]),
   midi.NoteOnEvent(tick=0, channel=10, data=[57, 127]),
   midi.NoteOffEvent(tick=480, channel=10, data=[57, 0]),
   midi.NoteOnEvent(tick=0, channel=10, data=[57, 127]),
   midi.NoteOffEvent(tick=480, channel=10, data=[57, 0]),
   midi.NoteOnEvent(tick=0, channel=10, data=[52, 110]),
   midi.NoteOffEvent(tick=480, channel=10, data=[52, 0]),
   midi.NoteOnEvent(tick=0, channel=10, data=[52, 105]),
   midi.NoteOffEvent(tick=480, channel=10, data=[52, 0]),
   midi.NoteOnEvent(tick=0, channel=10, data=[55, 122]),
   midi.NoteOffEvent(tick=480, channel=10, data=[55, 0]),
   midi.NoteOnEvent(tick=0, channel=10, data=[55, 121]),
   midi.NoteOffEvent(tick=480, channel=10, data=[55, 0]),
   midi.NoteOnEvent(tick=0, channel=10, data=[50, 105]),
   midi.NoteOffEvent(tick=960, channel=10, data=[50, 0]),
   midi.NoteOnEvent(tick=960, channel=10, data=[50, 111]),
   midi.NoteOffEvent(tick=480, channel=10, data=[50, 0]),
   midi.NoteOnEvent(tick=0, channel=10, data=[50, 107]),
   midi.NoteOffEvent(tick=480, channel=10, data=[50, 0]),
   midi.NoteOnEvent(tick=0, channel=10, data=[55, 125]),
   midi.NoteOffEvent(tick=480, channel=10, data=[55, 0]),
   midi.NoteOnEvent(tick=0, channel=10, data=[55, 124]),
   midi.NoteOffEvent(tick=480, channel=10, data=[55, 0]),
   midi.NoteOnEvent(tick=0, channel=10, data=[50, 110]),
   midi.NoteOffEvent(tick=480, channel=10, data=[50, 0]),
   midi.NoteOnEvent(tick=0, channel=10, data=[50, 105]),
   midi.NoteOffEvent(tick=480, channel=10, data=[50, 0]),
   midi.NoteOnEvent(tick=0, channel=10, data=[55, 126]),
   midi.NoteOffEvent(tick=480, channel=10, data=[55, 0]),
   midi.NoteOnEvent(tick=0, channel=10, data=[55, 125]),
   midi.NoteOffEvent(tick=480, channel=10, data=[55, 0]),
   midi.NoteOnEvent(tick=0, channel=10, data=[52, 116]),
   midi.NoteOffEvent(tick=480, channel=10, data=[52, 0]),
   midi.NoteOnEvent(tick=0, channel=10, data=[52, 110]),
   midi.NoteOffEvent(tick=480, channel=10, data=[52, 0]),
   midi.NoteOnEvent(tick=0, channel=10, data=[55, 125]),
   midi.NoteOffEvent(tick=480, channel=10, data=[55, 0]),
   midi.NoteOnEvent(tick=0, channel=10, data=[55, 124]),
   midi.NoteOffEvent(tick=480, channel=10, data=[55, 0]),
   midi.NoteOnEvent(tick=0, channel=10, data=[53, 118]),
   midi.NoteOffEvent(tick=480, channel=10, data=[53, 0]),
   midi.NoteOnEvent(tick=0, channel=10, data=[53, 111]),
   midi.NoteOffEvent(tick=480, channel=10, data=[53, 0]),
   midi.NoteOnEvent(tick=0, channel=10, data=[57, 127]),
   midi.NoteOffEvent(tick=480, channel=10, data=[57, 0]),
   midi.NoteOnEvent(tick=0, channel=10, data=[57, 127]),
   midi.NoteOffEvent(tick=480, channel=10, data=[57, 0]),
   midi.NoteOnEvent(tick=0, channel=10, data=[62, 127]),
   midi.NoteOffEvent(tick=480, channel=10, data=[62, 0]),
   midi.NoteOnEvent(tick=0, channel=10, data=[60, 127]),
   midi.NoteOffEvent(tick=480, channel=10, data=[60, 0]),
   midi.NoteOnEvent(tick=0, channel=10, data=[55, 104]),
   midi.NoteOffEvent(tick=480, channel=10, data=[55, 0]),
   midi.NoteOnEvent(tick=0, channel=10, data=[52, 96]),
   midi.NoteOffEvent(tick=480, channel=10, data=[52, 0]),
   midi.NoteOnEvent(tick=0, channel=10, data=[59, 127]),
   midi.NoteOffEvent(tick=480, channel=10, data=[59, 0]),
   midi.NoteOnEvent(tick=0, channel=10, data=[57, 116]),
   midi.NoteOffEvent(tick=480, channel=10, data=[57, 0]),
   midi.NoteOnEvent(tick=0, channel=10, data=[53, 98]),
   midi.NoteOffEvent(tick=480, channel=10, data=[53, 0]),
   midi.NoteOnEvent(tick=0, channel=10, data=[50, 96]),
   midi.NoteOffEvent(tick=480, channel=10, data=[50, 0]),
   midi.NoteOnEvent(tick=0, channel=10, data=[57, 127]),
   midi.NoteOffEvent(tick=480, channel=10, data=[57, 0]),
   midi.NoteOnEvent(tick=0, channel=10, data=[55, 111]),
   midi.NoteOffEvent(tick=480, channel=10, data=[55, 0]),
   midi.NoteOnEvent(tick=0, channel=10, data=[52, 99]),
   midi.NoteOffEvent(tick=480, channel=10, data=[52, 0]),
   midi.NoteOnEvent(tick=0, channel=10, data=[48, 96]),
   midi.NoteOffEvent(tick=480, channel=10, data=[48, 0]),
   midi.NoteOnEvent(tick=0, channel=10, data=[59, 127]),
   midi.NoteOnEvent(tick=0, channel=10, data=[50, 120]),
   midi.NoteOffEvent(tick=480, channel=10, data=[59, 0]),
   midi.NoteOffEvent(tick=0, channel=10, data=[50, 0]),
   midi.NoteOnEvent(tick=0, channel=10, data=[59, 127]),
   midi.NoteOnEvent(tick=0, channel=10, data=[50, 113]),
   midi.NoteOffEvent(tick=480, channel=10, data=[59, 0]),
   midi.NoteOffEvent(tick=0, channel=10, data=[50, 0]),
   midi.NoteOnEvent(tick=0, channel=10, data=[62, 127]),
   midi.NoteOnEvent(tick=0, channel=10, data=[53, 118]),
   midi.NoteOffEvent(tick=480, channel=10, data=[62, 0]),
   midi.NoteOffEvent(tick=0, channel=10, data=[53, 0]),
   midi.NoteOnEvent(tick=0, channel=10, data=[62, 127]),
   midi.NoteOnEvent(tick=0, channel=10, data=[53, 117]),
   midi.NoteOffEvent(tick=480, channel=10, data=[62, 0]),
   midi.NoteOffEvent(tick=0, channel=10, data=[53, 0]),
   midi.NoteOnEvent(tick=0, channel=10, data=[55, 108]),
   midi.NoteOffEvent(tick=6240, channel=10, data=[55, 0]),
   midi.NoteOnEvent(tick=0, channel=10, data=[55, 112]),
   midi.NoteOffEvent(tick=480, channel=10, data=[55, 0]),
   midi.NoteOnEvent(tick=0, channel=10, data=[55, 113]),
   midi.NoteOffEvent(tick=480, channel=10, data=[55, 0]),
   midi.NoteOnEvent(tick=0, channel=10, data=[55, 113]),
   midi.NoteOffEvent(tick=480, channel=10, data=[55, 0]),
   midi.NoteOnEvent(tick=0, channel=10, data=[55, 120]),
   midi.NoteOffEvent(tick=6240, channel=10, data=[55, 0]),
   midi.NoteOnEvent(tick=0, channel=10, data=[67, 115]),
   midi.NoteOffEvent(tick=480, channel=10, data=[67, 0]),
   midi.NoteOnEvent(tick=0, channel=10, data=[67, 114]),
   midi.NoteOffEvent(tick=480, channel=10, data=[67, 0]),
   midi.NoteOnEvent(tick=0, channel=10, data=[67, 114]),
   midi.NoteOffEvent(tick=480, channel=10, data=[67, 0]),
   midi.NoteOnEvent(tick=0, channel=10, data=[67, 120]),
   midi.NoteOffEvent(tick=960, channel=10, data=[67, 0]),
   midi.NoteOnEvent(tick=1440, channel=10, data=[67, 113]),
   midi.NoteOffEvent(tick=480, channel=10, data=[67, 0]),
   midi.NoteOnEvent(tick=0, channel=10, data=[67, 113]),
   midi.NoteOffEvent(tick=480, channel=10, data=[67, 0]),
   midi.NoteOnEvent(tick=0, channel=10, data=[67, 113]),
   midi.NoteOffEvent(tick=480, channel=10, data=[67, 0]),
   midi.NoteOnEvent(tick=0, channel=10, data=[67, 120]),
   midi.NoteOffEvent(tick=960, channel=10, data=[67, 0]),
   midi.NoteOnEvent(tick=1440, channel=10, data=[55, 96]),
   midi.NoteOffEvent(tick=480, channel=10, data=[55, 0]),
   midi.NoteOnEvent(tick=0, channel=10, data=[55, 98]),
   midi.NoteOffEvent(tick=480, channel=10, data=[55, 0]),
   midi.NoteOnEvent(tick=0, channel=10, data=[55, 100]),
   midi.NoteOffEvent(tick=480, channel=10, data=[55, 0]),
   midi.NoteOnEvent(tick=0, channel=10, data=[67, 119]),
   midi.NoteOffEvent(tick=2400, channel=10, data=[67, 0]),
   midi.NoteOnEvent(tick=0, channel=10, data=[67, 109]),
   midi.NoteOffEvent(tick=480, channel=10, data=[67, 0]),
   midi.NoteOnEvent(tick=0, channel=10, data=[67, 108]),
   midi.NoteOffEvent(tick=480, channel=10, data=[67, 0]),
   midi.NoteOnEvent(tick=0, channel=10, data=[67, 106]),
   midi.NoteOffEvent(tick=480, channel=10, data=[67, 0]),
   midi.NoteOnEvent(tick=0, channel=10, data=[65, 104]),
   midi.NoteOffEvent(tick=2400, channel=10, data=[65, 0]),
   midi.NoteOnEvent(tick=0, channel=10, data=[65, 96]),
   midi.NoteOffEvent(tick=480, channel=10, data=[65, 0]),
   midi.NoteOnEvent(tick=0, channel=10, data=[65, 96]),
   midi.NoteOffEvent(tick=480, channel=10, data=[65, 0]),
   midi.NoteOnEvent(tick=0, channel=10, data=[65, 97]),
   midi.NoteOffEvent(tick=480, channel=10, data=[65, 0]),
   midi.NoteOnEvent(tick=0, channel=10, data=[60, 90]),
   midi.NoteOffEvent(tick=2400, channel=10, data=[60, 0]),
   midi.NoteOnEvent(tick=0, channel=10, data=[60, 92]),
   midi.NoteOffEvent(tick=480, channel=10, data=[60, 0]),
   midi.NoteOnEvent(tick=0, channel=10, data=[60, 93]),
   midi.NoteOffEvent(tick=480, channel=10, data=[60, 0]),
   midi.NoteOnEvent(tick=0, channel=10, data=[60, 94]),
   midi.NoteOffEvent(tick=480, channel=10, data=[60, 0]),
   midi.NoteOnEvent(tick=0, channel=10, data=[56, 91]),
   midi.NoteOffEvent(tick=2400, channel=10, data=[56, 0]),
   midi.NoteOnEvent(tick=0, channel=10, data=[56, 93]),
   midi.NoteOffEvent(tick=480, channel=10, data=[56, 0]),
   midi.NoteOnEvent(tick=0, channel=10, data=[56, 94]),
   midi.NoteOffEvent(tick=480, channel=10, data=[56, 0]),
   midi.NoteOnEvent(tick=0, channel=10, data=[56, 95]),
   midi.NoteOffEvent(tick=480, channel=10, data=[56, 0]),
   midi.NoteOnEvent(tick=0, channel=10, data=[56, 117]),
   midi.NoteOffEvent(tick=480, channel=10, data=[56, 0]),
   midi.NoteOnEvent(tick=0, channel=10, data=[68, 127]),
   midi.NoteOffEvent(tick=480, channel=10, data=[68, 0]),
   midi.NoteOnEvent(tick=0, channel=10, data=[68, 127]),
   midi.NoteOffEvent(tick=480, channel=10, data=[68, 0]),
   midi.NoteOnEvent(tick=0, channel=10, data=[68, 127]),
   midi.NoteOffEvent(tick=480, channel=10, data=[68, 0]),
   midi.NoteOnEvent(tick=0, channel=10, data=[68, 127]),
   midi.NoteOffEvent(tick=480, channel=10, data=[68, 0]),
   midi.NoteOnEvent(tick=0, channel=10, data=[68, 127]),
   midi.NoteOffEvent(tick=480, channel=10, data=[68, 0]),
   midi.NoteOnEvent(tick=0, channel=10, data=[68, 127]),
   midi.NoteOffEvent(tick=480, channel=10, data=[68, 0]),
   midi.NoteOnEvent(tick=0, channel=10, data=[68, 126]),
   midi.NoteOffEvent(tick=480, channel=10, data=[68, 0]),
   midi.NoteOnEvent(tick=0, channel=10, data=[68, 127]),
   midi.NoteOffEvent(tick=480, channel=10, data=[68, 0]),
   midi.NoteOnEvent(tick=0, channel=10, data=[68, 122]),
   midi.NoteOffEvent(tick=480, channel=10, data=[68, 0]),
   midi.NoteOnEvent(tick=0, channel=10, data=[68, 120]),
   midi.NoteOffEvent(tick=480, channel=10, data=[68, 0]),
   midi.NoteOnEvent(tick=0, channel=10, data=[68, 118]),
   midi.NoteOffEvent(tick=480, channel=10, data=[68, 0]),
   midi.NoteOnEvent(tick=0, channel=10, data=[68, 123]),
   midi.NoteOffEvent(tick=480, channel=10, data=[68, 0]),
   midi.NoteOnEvent(tick=0, channel=10, data=[68, 115]),
   midi.NoteOffEvent(tick=480, channel=10, data=[68, 0]),
   midi.NoteOnEvent(tick=0, channel=10, data=[68, 114]),
   midi.NoteOffEvent(tick=480, channel=10, data=[68, 0]),
   midi.NoteOnEvent(tick=0, channel=10, data=[68, 114]),
   midi.NoteOffEvent(tick=480, channel=10, data=[68, 0]),
   midi.NoteOnEvent(tick=0, channel=10, data=[68, 120]),
   midi.NoteOffEvent(tick=960, channel=10, data=[68, 0]),
   midi.NoteOnEvent(tick=7200, channel=10, data=[57, 113]),
   midi.NoteOffEvent(tick=480, channel=10, data=[57, 0]),
   midi.NoteOnEvent(tick=0, channel=10, data=[57, 113]),
   midi.NoteOffEvent(tick=480, channel=10, data=[57, 0]),
   midi.NoteOnEvent(tick=0, channel=10, data=[57, 113]),
   midi.NoteOffEvent(tick=480, channel=10, data=[57, 0]),
   midi.NoteOnEvent(tick=0, channel=10, data=[57, 120]),
   midi.NoteOffEvent(tick=480, channel=10, data=[57, 0]),
   midi.NoteOnEvent(tick=0, channel=10, data=[69, 127]),
   midi.NoteOffEvent(tick=480, channel=10, data=[69, 0]),
   midi.NoteOnEvent(tick=0, channel=10, data=[69, 127]),
   midi.NoteOffEvent(tick=480, channel=10, data=[69, 0]),
   midi.NoteOnEvent(tick=0, channel=10, data=[69, 127]),
   midi.NoteOffEvent(tick=480, channel=10, data=[69, 0]),
   midi.NoteOnEvent(tick=0, channel=10, data=[69, 127]),
   midi.NoteOffEvent(tick=480, channel=10, data=[69, 0]),
   midi.NoteOnEvent(tick=0, channel=10, data=[69, 127]),
   midi.NoteOffEvent(tick=480, channel=10, data=[69, 0]),
   midi.NoteOnEvent(tick=0, channel=10, data=[69, 127]),
   midi.NoteOffEvent(tick=480, channel=10, data=[69, 0]),
   midi.NoteOnEvent(tick=0, channel=10, data=[69, 126]),
   midi.NoteOffEvent(tick=480, channel=10, data=[69, 0]),
   midi.NoteOnEvent(tick=0, channel=10, data=[69, 127]),
   midi.NoteOffEvent(tick=480, channel=10, data=[69, 0]),
   midi.NoteOnEvent(tick=0, channel=10, data=[69, 122]),
   midi.NoteOffEvent(tick=480, channel=10, data=[69, 0]),
   midi.NoteOnEvent(tick=0, channel=10, data=[69, 120]),
   midi.NoteOffEvent(tick=480, channel=10, data=[69, 0]),
   midi.NoteOnEvent(tick=0, channel=10, data=[69, 118]),
   midi.NoteOffEvent(tick=480, channel=10, data=[69, 0]),
   midi.NoteOnEvent(tick=0, channel=10, data=[69, 123]),
   midi.NoteOffEvent(tick=480, channel=10, data=[69, 0]),
   midi.NoteOnEvent(tick=0, channel=10, data=[69, 115]),
   midi.NoteOffEvent(tick=480, channel=10, data=[69, 0]),
   midi.NoteOnEvent(tick=0, channel=10, data=[69, 114]),
   midi.NoteOffEvent(tick=480, channel=10, data=[69, 0]),
   midi.NoteOnEvent(tick=0, channel=10, data=[69, 114]),
   midi.NoteOffEvent(tick=480, channel=10, data=[69, 0]),
   midi.NoteOnEvent(tick=0, channel=10, data=[69, 120]),
   midi.NoteOffEvent(tick=960, channel=10, data=[69, 0]),
   midi.NoteOnEvent(tick=5280, channel=10, data=[67, 97]),
   midi.NoteOffEvent(tick=480, channel=10, data=[67, 0]),
   midi.NoteOnEvent(tick=0, channel=10, data=[67, 98]),
   midi.NoteOffEvent(tick=480, channel=10, data=[67, 0]),
   midi.NoteOnEvent(tick=0, channel=10, data=[67, 98]),
   midi.NoteOffEvent(tick=480, channel=10, data=[67, 0]),
   midi.NoteOnEvent(tick=0, channel=10, data=[63, 95]),
   midi.NoteOffEvent(tick=1920, channel=10, data=[63, 0]),
   midi.NoteOnEvent(tick=0, channel=10, data=[65, 102]),
   midi.NoteOffEvent(tick=1920, channel=10, data=[65, 0]),
   midi.NoteOnEvent(tick=0, channel=10, data=[62, 99]),
   midi.NoteOffEvent(tick=2400, channel=10, data=[62, 0]),
   midi.NoteOnEvent(tick=0, channel=10, data=[67, 101]),
   midi.NoteOffEvent(tick=480, channel=10, data=[67, 0]),
   midi.NoteOnEvent(tick=0, channel=10, data=[67, 100]),
   midi.NoteOffEvent(tick=480, channel=10, data=[67, 0]),
   midi.NoteOnEvent(tick=0, channel=10, data=[67, 100]),
   midi.NoteOffEvent(tick=480, channel=10, data=[67, 0]),
   midi.NoteOnEvent(tick=0, channel=10, data=[63, 95]),
   midi.NoteOffEvent(tick=1920, channel=10, data=[63, 0]),
   midi.NoteOnEvent(tick=0, channel=10, data=[65, 103]),
   midi.NoteOffEvent(tick=1920, channel=10, data=[65, 0]),
   midi.NoteOnEvent(tick=0, channel=10, data=[62, 99]),
   midi.NoteOffEvent(tick=2400, channel=10, data=[62, 0]),
   midi.NoteOnEvent(tick=0, channel=10, data=[67, 101]),
   midi.NoteOffEvent(tick=480, channel=10, data=[67, 0]),
   midi.NoteOnEvent(tick=0, channel=10, data=[67, 100]),
   midi.NoteOffEvent(tick=480, channel=10, data=[67, 0]),
   midi.NoteOnEvent(tick=0, channel=10, data=[67, 100]),
   midi.NoteOffEvent(tick=480, channel=10, data=[67, 0]),
   midi.NoteOnEvent(tick=0, channel=10, data=[63, 95]),
   midi.NoteOffEvent(tick=960, channel=10, data=[63, 0]),
   midi.NoteOnEvent(tick=0, channel=10, data=[65, 96]),
   midi.NoteOffEvent(tick=960, channel=10, data=[65, 0]),
   midi.NoteOnEvent(tick=0, channel=10, data=[62, 95]),
   midi.NoteOffEvent(tick=960, channel=10, data=[62, 0]),
   midi.NoteOnEvent(tick=0, channel=10, data=[63, 94]),
   midi.NoteOffEvent(tick=960, channel=10, data=[63, 0]),
   midi.NoteOnEvent(tick=0, channel=10, data=[60, 93]),
   midi.NoteOffEvent(tick=960, channel=10, data=[60, 0]),
   midi.NoteOnEvent(tick=0, channel=10, data=[62, 96]),
   midi.NoteOffEvent(tick=960, channel=10, data=[62, 0]),
   midi.NoteOnEvent(tick=0, channel=10, data=[58, 93]),
   midi.NoteOffEvent(tick=960, channel=10, data=[58, 0]),
   midi.NoteOnEvent(tick=0, channel=10, data=[60, 96]),
   midi.NoteOffEvent(tick=960, channel=10, data=[60, 0]),
   midi.NoteOnEvent(tick=0, channel=10, data=[56, 94]),
   midi.NoteOffEvent(tick=960, channel=10, data=[56, 0]),
   midi.NoteOnEvent(tick=0, channel=10, data=[58, 96]),
   midi.NoteOffEvent(tick=960, channel=10, data=[58, 0]),
   midi.NoteOnEvent(tick=0, channel=10, data=[55, 96]),
   midi.NoteOffEvent(tick=960, channel=10, data=[55, 0]),
   midi.NoteOnEvent(tick=0, channel=10, data=[56, 95]),
   midi.NoteOffEvent(tick=960, channel=10, data=[56, 0]),
   midi.NoteOnEvent(tick=0, channel=10, data=[53, 96]),
   midi.NoteOffEvent(tick=960, channel=10, data=[53, 0]),
   midi.NoteOnEvent(tick=0, channel=10, data=[55, 97]),
   midi.NoteOffEvent(tick=960, channel=10, data=[55, 0]),
   midi.NoteOnEvent(tick=0, channel=10, data=[51, 96]),
   midi.NoteOffEvent(tick=960, channel=10, data=[51, 0]),
   midi.NoteOnEvent(tick=0, channel=10, data=[53, 96]),
   midi.NoteOffEvent(tick=960, channel=10, data=[53, 0]),
   midi.NoteOnEvent(tick=0, channel=10, data=[50, 98]),
   midi.NoteOffEvent(tick=960, channel=10, data=[50, 0]),
   midi.NoteOnEvent(tick=0, channel=10, data=[60, 111]),
   midi.NoteOffEvent(tick=960, channel=10, data=[60, 0]),
   midi.NoteOnEvent(tick=0, channel=10, data=[59, 114]),
   midi.NoteOffEvent(tick=960, channel=10, data=[59, 0]),
   midi.NoteOnEvent(tick=0, channel=10, data=[60, 107]),
   midi.NoteOffEvent(tick=960, channel=10, data=[60, 0]),
   midi.NoteOnEvent(tick=0, channel=10, data=[62, 114]),
   midi.NoteOffEvent(tick=960, channel=10, data=[62, 0]),
   midi.NoteOnEvent(tick=0, channel=10, data=[60, 100]),
   midi.NoteOffEvent(tick=960, channel=10, data=[60, 0]),
   midi.NoteOnEvent(tick=0, channel=10, data=[62, 109]),
   midi.NoteOffEvent(tick=960, channel=10, data=[62, 0]),
   midi.NoteOnEvent(tick=0, channel=10, data=[64, 105]),
   midi.NoteOffEvent(tick=960, channel=10, data=[64, 0]),
   midi.NoteOnEvent(tick=0, channel=10, data=[65, 111]),
   midi.NoteOffEvent(tick=960, channel=10, data=[65, 0]),
   midi.NoteOnEvent(tick=0, channel=10, data=[64, 100]),
   midi.NoteOffEvent(tick=960, channel=10, data=[64, 0]),
   midi.NoteOnEvent(tick=0, channel=10, data=[65, 107]),
   midi.NoteOffEvent(tick=960, channel=10, data=[65, 0]),
   midi.NoteOnEvent(tick=0, channel=10, data=[67, 104]),
   midi.NoteOffEvent(tick=960, channel=10, data=[67, 0]),
   midi.NoteOnEvent(tick=0, channel=10, data=[68, 110]),
   midi.NoteOffEvent(tick=960, channel=10, data=[68, 0]),
   midi.NoteOnEvent(tick=0, channel=10, data=[55, 83]),
   midi.NoteOffEvent(tick=960, channel=10, data=[55, 0]),
   midi.NoteOnEvent(tick=0, channel=10, data=[57, 92]),
   midi.NoteOffEvent(tick=960, channel=10, data=[57, 0]),
   midi.NoteOnEvent(tick=0, channel=10, data=[59, 94]),
   midi.NoteOffEvent(tick=960, channel=10, data=[59, 0]),
   midi.NoteOnEvent(tick=0, channel=10, data=[60, 104]),
   midi.NoteOffEvent(tick=1920, channel=10, data=[60, 0]),
   midi.NoteOnEvent(tick=0, channel=10, data=[62, 108]),
   midi.NoteOffEvent(tick=480, channel=10, data=[62, 0]),
   midi.NoteOnEvent(tick=480, channel=10, data=[63, 102]),
   midi.NoteOffEvent(tick=480, channel=10, data=[63, 0]),
   midi.NoteOnEvent(tick=480, channel=10, data=[65, 111]),
   midi.NoteOnEvent(tick=960, channel=10, data=[62, 96]),
   midi.NoteOffEvent(tick=19, channel=10, data=[65, 0]),
   midi.NoteOffEvent(tick=892, channel=10, data=[62, 0]),
   midi.NoteOnEvent(tick=49, channel=10, data=[63, 104]),
   midi.NoteOffEvent(tick=480, channel=10, data=[63, 0]),
   midi.NoteOnEvent(tick=480, channel=10, data=[65, 102]),
   midi.NoteOffEvent(tick=480, channel=10, data=[65, 0]),
   midi.NoteOnEvent(tick=480, channel=10, data=[67, 111]),
   midi.NoteOnEvent(tick=960, channel=10, data=[63, 94]),
   midi.NoteOffEvent(tick=19, channel=10, data=[67, 0]),
   midi.NoteOffEvent(tick=892, channel=10, data=[63, 0]),
   midi.NoteOnEvent(tick=49, channel=10, data=[65, 105]),
   midi.NoteOffEvent(tick=480, channel=10, data=[65, 0]),
   midi.NoteOnEvent(tick=480, channel=10, data=[67, 103]),
   midi.NoteOffEvent(tick=480, channel=10, data=[67, 0]),
   midi.NoteOnEvent(tick=480, channel=10, data=[68, 110]),
   midi.NoteOnEvent(tick=960, channel=10, data=[65, 95]),
   midi.NoteOffEvent(tick=19, channel=10, data=[68, 0]),
   midi.NoteOffEvent(tick=892, channel=10, data=[65, 0]),
   midi.NoteOnEvent(tick=49, channel=10, data=[67, 106]),
   midi.NoteOffEvent(tick=480, channel=10, data=[67, 0]),
   midi.NoteOnEvent(tick=480, channel=10, data=[69, 104]),
   midi.NoteOffEvent(tick=480, channel=10, data=[69, 0]),
   midi.NoteOnEvent(tick=480, channel=10, data=[71, 113]),
   midi.NoteOnEvent(tick=960, channel=10, data=[67, 94]),
   midi.NoteOffEvent(tick=19, channel=10, data=[71, 0]),
   midi.NoteOffEvent(tick=892, channel=10, data=[67, 0]),
   midi.NoteOnEvent(tick=49, channel=10, data=[69, 106]),
   midi.NoteOffEvent(tick=480, channel=10, data=[69, 0]),
   midi.NoteOnEvent(tick=480, channel=10, data=[71, 103]),
   midi.NoteOffEvent(tick=480, channel=10, data=[71, 0]),
   midi.NoteOnEvent(tick=480, channel=10, data=[72, 110]),
   midi.NoteOnEvent(tick=960, channel=10, data=[67, 91]),
   midi.NoteOffEvent(tick=19, channel=10, data=[72, 0]),
   midi.NoteOffEvent(tick=892, channel=10, data=[67, 0]),
   midi.NoteOnEvent(tick=49, channel=10, data=[68, 100]),
   midi.NoteOffEvent(tick=480, channel=10, data=[68, 0]),
   midi.NoteOnEvent(tick=480, channel=10, data=[63, 86]),
   midi.NoteOffEvent(tick=480, channel=10, data=[63, 0]),
   midi.NoteOnEvent(tick=480, channel=10, data=[65, 99]),
   midi.NoteOffEvent(tick=480, channel=10, data=[65, 0]),
   midi.NoteOnEvent(tick=480, channel=10, data=[62, 88]),
   midi.NoteOffEvent(tick=480, channel=10, data=[62, 0]),
   midi.NoteOnEvent(tick=480, channel=10, data=[63, 100]),
   midi.NoteOffEvent(tick=480, channel=10, data=[63, 0]),
   midi.NoteOnEvent(tick=480, channel=10, data=[65, 100]),
   midi.NoteOffEvent(tick=480, channel=10, data=[65, 0]),
   midi.NoteOnEvent(tick=480, channel=10, data=[67, 111]),
   midi.NoteOffEvent(tick=480, channel=10, data=[67, 0]),
   midi.NoteOnEvent(tick=480, channel=10, data=[66, 100]),
   midi.NoteOffEvent(tick=480, channel=10, data=[66, 0]),
   midi.NoteOnEvent(tick=480, channel=10, data=[67, 108]),
   midi.NoteOffEvent(tick=480, channel=10, data=[67, 0]),
   midi.NoteOnEvent(tick=480, channel=10, data=[55, 83]),
   midi.NoteOffEvent(tick=480, channel=10, data=[55, 0]),
   midi.NoteOnEvent(tick=480, channel=10, data=[60, 98]),
   midi.NoteOffEvent(tick=480, channel=10, data=[60, 0]),
   midi.NoteOnEvent(tick=5280, channel=10, data=[51, 103]),
   midi.NoteOffEvent(tick=480, channel=10, data=[51, 0]),
   midi.NoteOnEvent(tick=480, channel=10, data=[53, 99]),
   midi.NoteOffEvent(tick=480, channel=10, data=[53, 0]),
   midi.NoteOnEvent(tick=480, channel=10, data=[55, 107]),
   midi.NoteOnEvent(tick=960, channel=10, data=[51, 95]),
   midi.NoteOffEvent(tick=19, channel=10, data=[55, 0]),
   midi.NoteOffEvent(tick=892, channel=10, data=[51, 0]),
   midi.NoteOnEvent(tick=3889, channel=10, data=[55, 105]),
   midi.NoteOffEvent(tick=480, channel=10, data=[55, 0]),
   midi.NoteOnEvent(tick=480, channel=10, data=[57, 100]),
   midi.NoteOffEvent(tick=480, channel=10, data=[57, 0]),
   midi.NoteOnEvent(tick=480, channel=10, data=[59, 108]),
   midi.NoteOnEvent(tick=960, channel=10, data=[55, 94]),
   midi.NoteOffEvent(tick=19, channel=10, data=[59, 0]),
   midi.NoteOffEvent(tick=892, channel=10, data=[55, 0]),
   midi.NoteOnEvent(tick=3889, channel=10, data=[55, 103]),
   midi.NoteOffEvent(tick=480, channel=10, data=[55, 0]),
   midi.NoteOnEvent(tick=480, channel=10, data=[57, 99]),
   midi.NoteOffEvent(tick=480, channel=10, data=[57, 0]),
   midi.NoteOnEvent(tick=480, channel=10, data=[59, 108]),
   midi.NoteOnEvent(tick=960, channel=10, data=[55, 94]),
   midi.NoteOffEvent(tick=19, channel=10, data=[59, 0]),
   midi.NoteOffEvent(tick=892, channel=10, data=[55, 0]),
   midi.NoteOnEvent(tick=7729, channel=10, data=[56, 104]),
   midi.NoteOnEvent(tick=0, channel=10, data=[53, 104]),
   midi.NoteOnEvent(tick=960, channel=10, data=[55, 97]),
   midi.NoteOnEvent(tick=0, channel=10, data=[51, 97]),
   midi.NoteOffEvent(tick=38, channel=10, data=[56, 0]),
   midi.NoteOffEvent(tick=0, channel=10, data=[53, 0]),
   midi.NoteOffEvent(tick=825, channel=10, data=[55, 0]),
   midi.NoteOffEvent(tick=0, channel=10, data=[51, 0]),
   midi.NoteOnEvent(tick=2017, channel=10, data=[53, 102]),
   midi.NoteOnEvent(tick=960, channel=10, data=[60, 105]),
   midi.NoteOffEvent(tick=19, channel=10, data=[53, 0]),
   midi.NoteOffEvent(tick=892, channel=10, data=[60, 0]),
   midi.NoteOnEvent(tick=49, channel=10, data=[55, 116]),
   midi.NoteOnEvent(tick=0, channel=10, data=[67, 116]),
   midi.NoteOffEvent(tick=960, channel=10, data=[55, 0]),
   midi.NoteOffEvent(tick=0, channel=10, data=[67, 0]),
   midi.NoteOnEvent(tick=960, channel=10, data=[55, 95]),
   midi.NoteOffEvent(tick=960, channel=10, data=[55, 0]),
   midi.NoteOnEvent(tick=960, channel=10, data=[60, 105]),
   midi.NoteOnEvent(tick=960, channel=10, data=[58, 96]),
   midi.NoteOffEvent(tick=19, channel=10, data=[60, 0]),
   midi.NoteOffEvent(tick=892, channel=10, data=[58, 0]),
   midi.NoteOnEvent(tick=49, channel=10, data=[56, 99]),
   midi.NoteOffEvent(tick=960, channel=10, data=[56, 0]),
   midi.NoteOnEvent(tick=0, channel=10, data=[55, 93]),
   midi.NoteOffEvent(tick=960, channel=10, data=[55, 0]),
   midi.NoteOnEvent(tick=0, channel=10, data=[53, 97]),
   midi.NoteOffEvent(tick=960, channel=10, data=[53, 0]),
   midi.NoteOnEvent(tick=0, channel=10, data=[51, 90]),
   midi.NoteOffEvent(tick=960, channel=10, data=[51, 0]),
   midi.NoteOnEvent(tick=1920, channel=10, data=[56, 107]),
   midi.NoteOnEvent(tick=0, channel=10, data=[53, 104]),
   midi.NoteOnEvent(tick=960, channel=10, data=[55, 98]),
   midi.NoteOnEvent(tick=0, channel=10, data=[51, 97]),
   midi.NoteOffEvent(tick=38, channel=10, data=[56, 0]),
   midi.NoteOffEvent(tick=0, channel=10, data=[53, 0]),
   midi.NoteOffEvent(tick=825, channel=10, data=[55, 0]),
   midi.NoteOffEvent(tick=0, channel=10, data=[51, 0]),
   midi.NoteOnEvent(tick=97, channel=10, data=[65, 117]),
   midi.NoteOnEvent(tick=960, channel=10, data=[60, 100]),
   midi.NoteOffEvent(tick=19, channel=10, data=[65, 0]),
   midi.NoteOffEvent(tick=892, channel=10, data=[60, 0]),
   midi.NoteOnEvent(tick=49, channel=10, data=[55, 116]),
   midi.NoteOnEvent(tick=0, channel=10, data=[67, 116]),
   midi.NoteOffEvent(tick=960, channel=10, data=[55, 0]),
   midi.NoteOffEvent(tick=0, channel=10, data=[67, 0]),
   midi.NoteOnEvent(tick=960, channel=10, data=[55, 110]),
   midi.NoteOnEvent(tick=0, channel=10, data=[67, 110]),
   midi.NoteOffEvent(tick=960, channel=10, data=[55, 0]),
   midi.NoteOffEvent(tick=0, channel=10, data=[67, 0]),
   midi.NoteOnEvent(tick=960, channel=10, data=[60, 97]),
   midi.NoteOnEvent(tick=0, channel=10, data=[48, 104]),
   midi.NoteOffEvent(tick=480, channel=10, data=[60, 0]),
   midi.NoteOffEvent(tick=0, channel=10, data=[48, 0]),
   midi.NoteOnEvent(tick=0, channel=10, data=[55, 86]),
   midi.NoteOffEvent(tick=480, channel=10, data=[55, 0]),
   midi.NoteOnEvent(tick=0, channel=10, data=[55, 87]),
   midi.NoteOffEvent(tick=480, channel=10, data=[55, 0]),
   midi.NoteOnEvent(tick=0, channel=10, data=[55, 89]),
   midi.NoteOffEvent(tick=480, channel=10, data=[55, 0]),
   midi.NoteOnEvent(tick=0, channel=10, data=[55, 96]),
   midi.NoteOffEvent(tick=8160, channel=10, data=[55, 0]),
   midi.NoteOnEvent(tick=0, channel=10, data=[55, 98]),
   midi.NoteOffEvent(tick=480, channel=10, data=[55, 0]),
   midi.NoteOnEvent(tick=0, channel=10, data=[55, 98]),
   midi.NoteOffEvent(tick=480, channel=10, data=[55, 0]),
   midi.NoteOnEvent(tick=0, channel=10, data=[55, 98]),
   midi.NoteOffEvent(tick=480, channel=10, data=[55, 0]),
   midi.NoteOnEvent(tick=0, channel=10, data=[60, 114]),
   midi.NoteOffEvent(tick=480, channel=10, data=[60, 0]),
   midi.NoteOnEvent(tick=0, channel=10, data=[55, 94]),
   midi.NoteOffEvent(tick=480, channel=10, data=[55, 0]),
   midi.NoteOnEvent(tick=0, channel=10, data=[55, 94]),
   midi.NoteOffEvent(tick=480, channel=10, data=[55, 0]),
   midi.NoteOnEvent(tick=0, channel=10, data=[55, 95]),
   midi.NoteOffEvent(tick=480, channel=10, data=[55, 0]),
   midi.NoteOnEvent(tick=0, channel=10, data=[55, 101]),
   midi.NoteOffEvent(tick=480, channel=10, data=[55, 0]),
   midi.NoteOnEvent(tick=0, channel=10, data=[55, 95]),
   midi.NoteOffEvent(tick=480, channel=10, data=[55, 0]),
   midi.NoteOnEvent(tick=0, channel=10, data=[55, 96]),
   midi.NoteOffEvent(tick=480, channel=10, data=[55, 0]),
   midi.NoteOnEvent(tick=0, channel=10, data=[55, 96]),
   midi.NoteOffEvent(tick=480, channel=10, data=[55, 0]),
   midi.NoteOnEvent(tick=0, channel=10, data=[55, 102]),
   midi.NoteOffEvent(tick=480, channel=10, data=[55, 0]),
   midi.NoteOnEvent(tick=0, channel=10, data=[55, 97]),
   midi.NoteOffEvent(tick=480, channel=10, data=[55, 0]),
   midi.NoteOnEvent(tick=0, channel=10, data=[55, 97]),
   midi.NoteOffEvent(tick=480, channel=10, data=[55, 0]),
   midi.NoteOnEvent(tick=0, channel=10, data=[55, 97]),
   midi.NoteOffEvent(tick=480, channel=10, data=[55, 0]),
   midi.NoteOnEvent(tick=0, channel=10, data=[55, 103]),
   midi.NoteOffEvent(tick=480, channel=10, data=[55, 0]),
   midi.NoteOnEvent(tick=0, channel=10, data=[55, 97]),
   midi.NoteOffEvent(tick=480, channel=10, data=[55, 0]),
   midi.NoteOnEvent(tick=0, channel=10, data=[55, 98]),
   midi.NoteOffEvent(tick=480, channel=10, data=[55, 0]),
   midi.NoteOnEvent(tick=0, channel=10, data=[55, 98]),
   midi.NoteOffEvent(tick=480, channel=10, data=[55, 0]),
   midi.NoteOnEvent(tick=0, channel=10, data=[51, 104]),
   midi.NoteOffEvent(tick=3840, channel=10, data=[51, 0]),
   midi.NoteOnEvent(tick=480, channel=10, data=[53, 112]),
   midi.NoteOffEvent(tick=480, channel=10, data=[53, 0]),
   midi.NoteOnEvent(tick=0, channel=10, data=[53, 113]),
   midi.NoteOffEvent(tick=480, channel=10, data=[53, 0]),
   midi.NoteOnEvent(tick=0, channel=10, data=[53, 113]),
   midi.NoteOffEvent(tick=480, channel=10, data=[53, 0]),
   midi.NoteOnEvent(tick=0, channel=10, data=[50, 113]),
   midi.NoteOffEvent(tick=7680, channel=10, data=[50, 0]),
   midi.NoteOnEvent(tick=15840, channel=10, data=[55, 113]),
   midi.NoteOffEvent(tick=480, channel=10, data=[55, 0]),
   midi.NoteOnEvent(tick=0, channel=10, data=[55, 113]),
   midi.NoteOffEvent(tick=480, channel=10, data=[55, 0]),
   midi.NoteOnEvent(tick=0, channel=10, data=[55, 113]),
   midi.NoteOffEvent(tick=480, channel=10, data=[55, 0]),
   midi.NoteOnEvent(tick=0, channel=10, data=[60, 127]),
   midi.NoteOffEvent(tick=960, channel=10, data=[60, 0]),
   midi.NoteOnEvent(tick=1440, channel=10, data=[55, 110]),
   midi.NoteOffEvent(tick=480, channel=10, data=[55, 0]),
   midi.NoteOnEvent(tick=0, channel=10, data=[55, 111]),
   midi.NoteOffEvent(tick=480, channel=10, data=[55, 0]),
   midi.NoteOnEvent(tick=0, channel=10, data=[55, 111]),
   midi.NoteOffEvent(tick=480, channel=10, data=[55, 0]),
   midi.NoteOnEvent(tick=0, channel=10, data=[60, 127]),
   midi.NoteOffEvent(tick=960, channel=10, data=[60, 0]),
   midi.NoteOnEvent(tick=1440, channel=10, data=[55, 110]),
   midi.NoteOffEvent(tick=480, channel=10, data=[55, 0]),
   midi.NoteOnEvent(tick=0, channel=10, data=[55, 111]),
   midi.NoteOffEvent(tick=480, channel=10, data=[55, 0]),
   midi.NoteOnEvent(tick=0, channel=10, data=[55, 111]),
   midi.NoteOffEvent(tick=480, channel=10, data=[55, 0]),
   midi.NoteOnEvent(tick=0, channel=10, data=[60, 127]),
   midi.NoteOffEvent(tick=960, channel=10, data=[60, 0]),
   midi.NoteOnEvent(tick=0, channel=10, data=[55, 108]),
   midi.NoteOffEvent(tick=960, channel=10, data=[55, 0]),
   midi.NoteOnEvent(tick=0, channel=10, data=[60, 127]),
   midi.NoteOffEvent(tick=960, channel=10, data=[60, 0]),
   midi.NoteOnEvent(tick=0, channel=10, data=[55, 107]),
   midi.NoteOffEvent(tick=960, channel=10, data=[55, 0]),
   midi.NoteOnEvent(tick=0, channel=10, data=[60, 127]),
   midi.NoteOffEvent(tick=960, channel=10, data=[60, 0]),
   midi.NoteOnEvent(tick=0, channel=10, data=[67, 127]),
   midi.NoteOffEvent(tick=960, channel=10, data=[67, 0]),
   midi.NoteOnEvent(tick=0, channel=10, data=[72, 127]),
   midi.NoteOffEvent(tick=960, channel=10, data=[72, 0]),
   midi.NoteOnEvent(tick=0, channel=10, data=[67, 120]),
   midi.NoteOffEvent(tick=960, channel=10, data=[67, 0]),
   midi.NoteOnEvent(tick=0, channel=10, data=[72, 127]),
   midi.NoteOffEvent(tick=960, channel=10, data=[72, 0]),
   midi.NoteOnEvent(tick=960, channel=10, data=[55, 103]),
   midi.NoteOffEvent(tick=960, channel=10, data=[55, 0]),
   midi.NoteOnEvent(tick=960, channel=10, data=[48, 110]),
   midi.NoteOffEvent(tick=960, channel=10, data=[48, 0]),
   midi.EndOfTrackEvent(tick=1, data=[])]),
 midi.Track(\
  [midi.ProgramChangeEvent(tick=0, channel=11, data=[48]),
   midi.ControlChangeEvent(tick=0, channel=11, data=[121, 0]),
   midi.ControlChangeEvent(tick=0, channel=11, data=[64, 0]),
   midi.ControlChangeEvent(tick=0, channel=11, data=[91, 48]),
   midi.ControlChangeEvent(tick=0, channel=11, data=[10, 95]),
   midi.ControlChangeEvent(tick=0, channel=11, data=[7, 100]),
   midi.TrackNameEvent(tick=0, text='Violoncellos', data=[86, 105, 111, 108, 111, 110, 99, 101, 108, 108, 111, 115]),
   midi.NoteOnEvent(tick=480, channel=11, data=[43, 113]),
   midi.NoteOffEvent(tick=480, channel=11, data=[43, 0]),
   midi.NoteOnEvent(tick=0, channel=11, data=[43, 113]),
   midi.NoteOffEvent(tick=480, channel=11, data=[43, 0]),
   midi.NoteOnEvent(tick=0, channel=11, data=[43, 113]),
   midi.NoteOffEvent(tick=480, channel=11, data=[43, 0]),
   midi.NoteOnEvent(tick=0, channel=11, data=[39, 115]),
   midi.NoteOffEvent(tick=2880, channel=11, data=[39, 0]),
   midi.NoteOnEvent(tick=480, channel=11, data=[41, 113]),
   midi.NoteOffEvent(tick=480, channel=11, data=[41, 0]),
   midi.NoteOnEvent(tick=0, channel=11, data=[41, 113]),
   midi.NoteOffEvent(tick=480, channel=11, data=[41, 0]),
   midi.NoteOnEvent(tick=0, channel=11, data=[41, 113]),
   midi.NoteOffEvent(tick=480, channel=11, data=[41, 0]),
   midi.NoteOnEvent(tick=0, channel=11, data=[38, 115]),
   midi.NoteOffEvent(tick=2880, channel=11, data=[38, 0]),
   midi.NoteOnEvent(tick=1920, channel=11, data=[60, 68]),
   midi.NoteOffEvent(tick=7680, channel=11, data=[60, 0]),
   midi.NoteOnEvent(tick=0, channel=11, data=[59, 65]),
   midi.NoteOffEvent(tick=7680, channel=11, data=[59, 0]),
   midi.NoteOnEvent(tick=0, channel=11, data=[60, 65]),
   midi.NoteOffEvent(tick=1920, channel=11, data=[60, 0]),
   midi.NoteOnEvent(tick=0, channel=11, data=[59, 64]),
   midi.NoteOffEvent(tick=1920, channel=11, data=[59, 0]),
   midi.NoteOnEvent(tick=0, channel=11, data=[60, 65]),
   midi.NoteOffEvent(tick=1920, channel=11, data=[60, 0]),
   midi.NoteOnEvent(tick=0, channel=11, data=[59, 64]),
   midi.NoteOffEvent(tick=480, channel=11, data=[59, 0]),
   midi.NoteOnEvent(tick=0, channel=11, data=[59, 69]),
   midi.NoteOffEvent(tick=480, channel=11, data=[59, 0]),
   midi.NoteOnEvent(tick=0, channel=11, data=[59, 79]),
   midi.NoteOffEvent(tick=480, channel=11, data=[59, 0]),
   midi.NoteOnEvent(tick=0, channel=11, data=[59, 88]),
   midi.NoteOffEvent(tick=480, channel=11, data=[59, 0]),
   midi.NoteOnEvent(tick=0, channel=11, data=[60, 107]),
   midi.NoteOffEvent(tick=960, channel=11, data=[60, 0]),
   midi.NoteOnEvent(tick=960, channel=11, data=[44, 91]),
   midi.NoteOffEvent(tick=960, channel=11, data=[44, 0]),
   midi.NoteOnEvent(tick=960, channel=11, data=[43, 98]),
   midi.NoteOffEvent(tick=960, channel=11, data=[43, 0]),
   midi.NoteOnEvent(tick=3360, channel=11, data=[44, 113]),
   midi.NoteOffEvent(tick=480, channel=11, data=[44, 0]),
   midi.NoteOnEvent(tick=0, channel=11, data=[44, 113]),
   midi.NoteOffEvent(tick=480, channel=11, data=[44, 0]),
   midi.NoteOnEvent(tick=0, channel=11, data=[44, 113]),
   midi.NoteOffEvent(tick=480, channel=11, data=[44, 0]),
   midi.NoteOnEvent(tick=0, channel=11, data=[41, 116]),
   midi.NoteOffEvent(tick=3840, channel=11, data=[41, 0]),
   midi.NoteOnEvent(tick=6240, channel=11, data=[43, 61]),
   midi.NoteOffEvent(tick=480, channel=11, data=[43, 0]),
   midi.NoteOnEvent(tick=0, channel=11, data=[43, 61]),
   midi.NoteOffEvent(tick=480, channel=11, data=[43, 0]),
   midi.NoteOnEvent(tick=0, channel=11, data=[43, 61]),
   midi.NoteOffEvent(tick=480, channel=11, data=[43, 0]),
   midi.NoteOnEvent(tick=0, channel=11, data=[48, 70]),
   midi.NoteOffEvent(tick=960, channel=11, data=[48, 0]),
   midi.NoteOnEvent(tick=5280, channel=11, data=[43, 61]),
   midi.NoteOffEvent(tick=480, channel=11, data=[43, 0]),
   midi.NoteOnEvent(tick=0, channel=11, data=[43, 61]),
   midi.NoteOffEvent(tick=480, channel=11, data=[43, 0]),
   midi.NoteOnEvent(tick=0, channel=11, data=[43, 61]),
   midi.NoteOffEvent(tick=480, channel=11, data=[43, 0]),
   midi.NoteOnEvent(tick=0, channel=11, data=[48, 70]),
   midi.NoteOffEvent(tick=960, channel=11, data=[48, 0]),
   midi.NoteOnEvent(tick=1440, channel=11, data=[48, 87]),
   midi.NoteOffEvent(tick=480, channel=11, data=[48, 0]),
   midi.NoteOnEvent(tick=0, channel=11, data=[48, 86]),
   midi.NoteOffEvent(tick=480, channel=11, data=[48, 0]),
   midi.NoteOnEvent(tick=0, channel=11, data=[48, 86]),
   midi.NoteOffEvent(tick=480, channel=11, data=[48, 0]),
   midi.NoteOnEvent(tick=0, channel=11, data=[48, 91]),
   midi.NoteOffEvent(tick=960, channel=11, data=[48, 0]),
   midi.NoteOnEvent(tick=1440, channel=11, data=[48, 84]),
   midi.NoteOffEvent(tick=480, channel=11, data=[48, 0]),
   midi.NoteOnEvent(tick=0, channel=11, data=[48, 84]),
   midi.NoteOffEvent(tick=480, channel=11, data=[48, 0]),
   midi.NoteOnEvent(tick=0, channel=11, data=[48, 84]),
   midi.NoteOffEvent(tick=480, channel=11, data=[48, 0]),
   midi.NoteOnEvent(tick=0, channel=11, data=[48, 89]),
   midi.NoteOffEvent(tick=960, channel=11, data=[48, 0]),
   midi.NoteOnEvent(tick=960, channel=11, data=[48, 104]),
   midi.NoteOffEvent(tick=960, channel=11, data=[48, 0]),
   midi.NoteOnEvent(tick=960, channel=11, data=[48, 104]),
   midi.NoteOffEvent(tick=960, channel=11, data=[48, 0]),
   midi.NoteOnEvent(tick=960, channel=11, data=[48, 104]),
   midi.NoteOffEvent(tick=960, channel=11, data=[48, 0]),
   midi.NoteOnEvent(tick=960, channel=11, data=[48, 104]),
   midi.NoteOffEvent(tick=960, channel=11, data=[48, 0]),
   midi.NoteOnEvent(tick=960, channel=11, data=[48, 104]),
   midi.NoteOffEvent(tick=960, channel=11, data=[48, 0]),
   midi.NoteOnEvent(tick=960, channel=11, data=[48, 104]),
   midi.NoteOffEvent(tick=960, channel=11, data=[48, 0]),
   midi.NoteOnEvent(tick=960, channel=11, data=[48, 104]),
   midi.NoteOffEvent(tick=6240, channel=11, data=[48, 0]),
   midi.NoteOnEvent(tick=0, channel=11, data=[48, 98]),
   midi.NoteOffEvent(tick=480, channel=11, data=[48, 0]),
   midi.NoteOnEvent(tick=0, channel=11, data=[48, 98]),
   midi.NoteOffEvent(tick=480, channel=11, data=[48, 0]),
   midi.NoteOnEvent(tick=0, channel=11, data=[48, 98]),
   midi.NoteOffEvent(tick=480, channel=11, data=[48, 0]),
   midi.NoteOnEvent(tick=0, channel=11, data=[43, 98]),
   midi.NoteOffEvent(tick=6240, channel=11, data=[43, 0]),
   midi.NoteOnEvent(tick=0, channel=11, data=[43, 98]),
   midi.NoteOffEvent(tick=480, channel=11, data=[43, 0]),
   midi.NoteOnEvent(tick=0, channel=11, data=[48, 101]),
   midi.NoteOffEvent(tick=480, channel=11, data=[48, 0]),
   midi.NoteOnEvent(tick=0, channel=11, data=[48, 100]),
   midi.NoteOffEvent(tick=480, channel=11, data=[48, 0]),
   midi.NoteOnEvent(tick=0, channel=11, data=[48, 123]),
   midi.NoteOffEvent(tick=480, channel=11, data=[48, 0]),
   midi.NoteOnEvent(tick=0, channel=11, data=[48, 115]),
   midi.NoteOffEvent(tick=480, channel=11, data=[48, 0]),
   midi.NoteOnEvent(tick=0, channel=11, data=[48, 115]),
   midi.NoteOffEvent(tick=480, channel=11, data=[48, 0]),
   midi.NoteOnEvent(tick=0, channel=11, data=[48, 115]),
   midi.NoteOffEvent(tick=480, channel=11, data=[48, 0]),
   midi.NoteOnEvent(tick=0, channel=11, data=[48, 121]),
   midi.NoteOffEvent(tick=480, channel=11, data=[48, 0]),
   midi.NoteOnEvent(tick=0, channel=11, data=[48, 114]),
   midi.NoteOffEvent(tick=480, channel=11, data=[48, 0]),
   midi.NoteOnEvent(tick=0, channel=11, data=[48, 114]),
   midi.NoteOffEvent(tick=480, channel=11, data=[48, 0]),
   midi.NoteOnEvent(tick=0, channel=11, data=[48, 114]),
   midi.NoteOffEvent(tick=480, channel=11, data=[48, 0]),
   midi.NoteOnEvent(tick=0, channel=11, data=[48, 120]),
   midi.NoteOffEvent(tick=480, channel=11, data=[48, 0]),
   midi.NoteOnEvent(tick=0, channel=11, data=[48, 113]),
   midi.NoteOffEvent(tick=480, channel=11, data=[48, 0]),
   midi.NoteOnEvent(tick=0, channel=11, data=[48, 113]),
   midi.NoteOffEvent(tick=480, channel=11, data=[48, 0]),
   midi.NoteOnEvent(tick=0, channel=11, data=[48, 113]),
   midi.NoteOffEvent(tick=480, channel=11, data=[48, 0]),
   midi.NoteOnEvent(tick=0, channel=11, data=[48, 120]),
   midi.NoteOffEvent(tick=480, channel=11, data=[48, 0]),
   midi.NoteOnEvent(tick=0, channel=11, data=[48, 113]),
   midi.NoteOffEvent(tick=480, channel=11, data=[48, 0]),
   midi.NoteOnEvent(tick=0, channel=11, data=[48, 113]),
   midi.NoteOffEvent(tick=480, channel=11, data=[48, 0]),
   midi.NoteOnEvent(tick=0, channel=11, data=[48, 113]),
   midi.NoteOffEvent(tick=480, channel=11, data=[48, 0]),
   midi.NoteOnEvent(tick=0, channel=11, data=[48, 120]),
   midi.NoteOffEvent(tick=960, channel=11, data=[48, 0]),
   midi.NoteOnEvent(tick=2880, channel=11, data=[50, 122]),
   midi.NoteOffEvent(tick=960, channel=11, data=[50, 0]),
   midi.NoteOnEvent(tick=12960, channel=11, data=[46, 61]),
   midi.NoteOffEvent(tick=480, channel=11, data=[46, 0]),
   midi.NoteOnEvent(tick=0, channel=11, data=[46, 61]),
   midi.NoteOffEvent(tick=480, channel=11, data=[46, 0]),
   midi.NoteOnEvent(tick=0, channel=11, data=[46, 61]),
   midi.NoteOffEvent(tick=480, channel=11, data=[46, 0]),
   midi.NoteOnEvent(tick=0, channel=11, data=[51, 70]),
   midi.NoteOffEvent(tick=960, channel=11, data=[51, 0]),
   midi.NoteOnEvent(tick=5280, channel=11, data=[46, 61]),
   midi.NoteOffEvent(tick=480, channel=11, data=[46, 0]),
   midi.NoteOnEvent(tick=0, channel=11, data=[46, 61]),
   midi.NoteOffEvent(tick=480, channel=11, data=[46, 0]),
   midi.NoteOnEvent(tick=0, channel=11, data=[46, 61]),
   midi.NoteOffEvent(tick=480, channel=11, data=[46, 0]),
   midi.NoteOnEvent(tick=0, channel=11, data=[51, 70]),
   midi.NoteOffEvent(tick=960, channel=11, data=[51, 0]),
   midi.NoteOnEvent(tick=5280, channel=11, data=[46, 61]),
   midi.NoteOffEvent(tick=480, channel=11, data=[46, 0]),
   midi.NoteOnEvent(tick=0, channel=11, data=[46, 61]),
   midi.NoteOffEvent(tick=480, channel=11, data=[46, 0]),
   midi.NoteOnEvent(tick=0, channel=11, data=[46, 61]),
   midi.NoteOffEvent(tick=480, channel=11, data=[46, 0]),
   midi.NoteOnEvent(tick=0, channel=11, data=[51, 70]),
   midi.NoteOffEvent(tick=960, channel=11, data=[51, 0]),
   midi.NoteOnEvent(tick=5280, channel=11, data=[48, 61]),
   midi.NoteOffEvent(tick=480, channel=11, data=[48, 0]),
   midi.NoteOnEvent(tick=0, channel=11, data=[48, 61]),
   midi.NoteOffEvent(tick=480, channel=11, data=[48, 0]),
   midi.NoteOnEvent(tick=0, channel=11, data=[48, 61]),
   midi.NoteOffEvent(tick=480, channel=11, data=[48, 0]),
   midi.NoteOnEvent(tick=0, channel=11, data=[53, 71]),
   midi.NoteOffEvent(tick=960, channel=11, data=[53, 0]),
   midi.NoteOnEvent(tick=5280, channel=11, data=[51, 61]),
   midi.NoteOffEvent(tick=480, channel=11, data=[51, 0]),
   midi.NoteOnEvent(tick=0, channel=11, data=[51, 61]),
   midi.NoteOffEvent(tick=480, channel=11, data=[51, 0]),
   midi.NoteOnEvent(tick=0, channel=11, data=[51, 61]),
   midi.NoteOffEvent(tick=480, channel=11, data=[51, 0]),
   midi.NoteOnEvent(tick=0, channel=11, data=[56, 71]),
   midi.NoteOffEvent(tick=960, channel=11, data=[56, 0]),
   midi.NoteOnEvent(tick=960, channel=11, data=[63, 74]),
   midi.NoteOffEvent(tick=960, channel=11, data=[63, 0]),
   midi.NoteOnEvent(tick=0, channel=11, data=[65, 69]),
   midi.NoteOffEvent(tick=960, channel=11, data=[65, 0]),
   midi.NoteOnEvent(tick=0, channel=11, data=[66, 72]),
   midi.NoteOffEvent(tick=960, channel=11, data=[66, 0]),
   midi.NoteOnEvent(tick=0, channel=11, data=[65, 69]),
   midi.NoteOffEvent(tick=960, channel=11, data=[65, 0]),
   midi.NoteOnEvent(tick=0, channel=11, data=[63, 74]),
   midi.NoteOffEvent(tick=960, channel=11, data=[63, 0]),
   midi.NoteOnEvent(tick=0, channel=11, data=[65, 73]),
   midi.NoteOffEvent(tick=960, channel=11, data=[65, 0]),
   midi.NoteOnEvent(tick=0, channel=11, data=[66, 78]),
   midi.NoteOffEvent(tick=960, channel=11, data=[66, 0]),
   midi.NoteOnEvent(tick=0, channel=11, data=[65, 71]),
   midi.NoteOffEvent(tick=960, channel=11, data=[65, 0]),
   midi.NoteOnEvent(tick=0, channel=11, data=[63, 72]),
   midi.NoteOffEvent(tick=960, channel=11, data=[63, 0]),
   midi.NoteOnEvent(tick=0, channel=11, data=[65, 72]),
   midi.NoteOffEvent(tick=960, channel=11, data=[65, 0]),
   midi.NoteOnEvent(tick=0, channel=11, data=[66, 92]),
   midi.NoteOffEvent(tick=960, channel=11, data=[66, 0]),
   midi.NoteOnEvent(tick=0, channel=11, data=[65, 84]),
   midi.NoteOffEvent(tick=960, channel=11, data=[65, 0]),
   midi.NoteOnEvent(tick=0, channel=11, data=[63, 85]),
   midi.NoteOffEvent(tick=960, channel=11, data=[63, 0]),
   midi.NoteOnEvent(tick=0, channel=11, data=[65, 85]),
   midi.NoteOffEvent(tick=960, channel=11, data=[65, 0]),
   midi.NoteOnEvent(tick=0, channel=11, data=[66, 92]),
   midi.NoteOffEvent(tick=960, channel=11, data=[66, 0]),
   midi.NoteOnEvent(tick=0, channel=11, data=[65, 84]),
   midi.NoteOffEvent(tick=960, channel=11, data=[65, 0]),
   midi.NoteOnEvent(tick=0, channel=11, data=[63, 85]),
   midi.NoteOffEvent(tick=960, channel=11, data=[63, 0]),
   midi.NoteOnEvent(tick=0, channel=11, data=[65, 85]),
   midi.NoteOffEvent(tick=960, channel=11, data=[65, 0]),
   midi.NoteOnEvent(tick=0, channel=11, data=[66, 92]),
   midi.NoteOffEvent(tick=960, channel=11, data=[66, 0]),
   midi.NoteOnEvent(tick=0, channel=11, data=[65, 84]),
   midi.NoteOffEvent(tick=960, channel=11, data=[65, 0]),
   midi.NoteOnEvent(tick=0, channel=11, data=[66, 91]),
   midi.NoteOffEvent(tick=960, channel=11, data=[66, 0]),
   midi.NoteOnEvent(tick=0, channel=11, data=[60, 75]),
   midi.NoteOffEvent(tick=960, channel=11, data=[60, 0]),
   midi.NoteOnEvent(tick=0, channel=11, data=[62, 115]),
   midi.NoteOffEvent(tick=2880, channel=11, data=[62, 0]),
   midi.NoteOnEvent(tick=0, channel=11, data=[50, 103]),
   midi.NoteOffEvent(tick=960, channel=11, data=[50, 0]),
   midi.NoteOnEvent(tick=0, channel=11, data=[51, 114]),
   midi.NoteOffEvent(tick=960, channel=11, data=[51, 0]),
   midi.NoteOnEvent(tick=960, channel=11, data=[53, 121]),
   midi.NoteOffEvent(tick=960, channel=11, data=[53, 0]),
   midi.NoteOnEvent(tick=960, channel=11, data=[55, 123]),
   midi.NoteOffEvent(tick=960, channel=11, data=[55, 0]),
   midi.NoteOnEvent(tick=960, channel=11, data=[56, 122]),
   midi.NoteOffEvent(tick=960, channel=11, data=[56, 0]),
   midi.NoteOnEvent(tick=960, channel=11, data=[58, 123]),
   midi.NoteOffEvent(tick=960, channel=11, data=[58, 0]),
   midi.NoteOnEvent(tick=960, channel=11, data=[46, 112]),
   midi.NoteOffEvent(tick=960, channel=11, data=[46, 0]),
   midi.NoteOnEvent(tick=960, channel=11, data=[50, 119]),
   midi.NoteOffEvent(tick=960, channel=11, data=[50, 0]),
   midi.NoteOnEvent(tick=0, channel=11, data=[53, 117]),
   midi.NoteOffEvent(tick=960, channel=11, data=[53, 0]),
   midi.NoteOnEvent(tick=0, channel=11, data=[50, 118]),
   midi.NoteOffEvent(tick=960, channel=11, data=[50, 0]),
   midi.NoteOnEvent(tick=0, channel=11, data=[53, 118]),
   midi.NoteOffEvent(tick=960, channel=11, data=[53, 0]),
   midi.NoteOnEvent(tick=0, channel=11, data=[51, 119]),
   midi.NoteOffEvent(tick=960, channel=11, data=[51, 0]),
   midi.NoteOnEvent(tick=0, channel=11, data=[55, 122]),
   midi.NoteOffEvent(tick=960, channel=11, data=[55, 0]),
   midi.NoteOnEvent(tick=0, channel=11, data=[53, 121]),
   midi.NoteOffEvent(tick=960, channel=11, data=[53, 0]),
   midi.NoteOnEvent(tick=0, channel=11, data=[56, 121]),
   midi.NoteOffEvent(tick=960, channel=11, data=[56, 0]),
   midi.NoteOnEvent(tick=0, channel=11, data=[55, 123]),
   midi.NoteOffEvent(tick=960, channel=11, data=[55, 0]),
   midi.NoteOnEvent(tick=0, channel=11, data=[58, 122]),
   midi.NoteOffEvent(tick=960, channel=11, data=[58, 0]),
   midi.NoteOnEvent(tick=0, channel=11, data=[56, 121]),
   midi.NoteOffEvent(tick=960, channel=11, data=[56, 0]),
   midi.NoteOnEvent(tick=0, channel=11, data=[60, 124]),
   midi.NoteOffEvent(tick=960, channel=11, data=[60, 0]),
   midi.NoteOnEvent(tick=0, channel=11, data=[58, 122]),
   midi.NoteOffEvent(tick=960, channel=11, data=[58, 0]),
   midi.NoteOnEvent(tick=0, channel=11, data=[46, 98]),
   midi.NoteOffEvent(tick=960, channel=11, data=[46, 0]),
   midi.NoteOnEvent(tick=0, channel=11, data=[58, 127]),
   midi.NoteOffEvent(tick=960, channel=11, data=[58, 0]),
   midi.NoteOnEvent(tick=0, channel=11, data=[46, 100]),
   midi.NoteOffEvent(tick=960, channel=11, data=[46, 0]),
   midi.NoteOnEvent(tick=0, channel=11, data=[51, 117]),
   midi.NoteOffEvent(tick=6240, channel=11, data=[51, 0]),
   midi.NoteOnEvent(tick=0, channel=11, data=[46, 113]),
   midi.NoteOffEvent(tick=480, channel=11, data=[46, 0]),
   midi.NoteOnEvent(tick=0, channel=11, data=[46, 113]),
   midi.NoteOffEvent(tick=480, channel=11, data=[46, 0]),
   midi.NoteOnEvent(tick=0, channel=11, data=[46, 113]),
   midi.NoteOffEvent(tick=480, channel=11, data=[46, 0]),
   midi.NoteOnEvent(tick=0, channel=11, data=[51, 127]),
   midi.NoteOffEvent(tick=6240, channel=11, data=[51, 0]),
   midi.NoteOnEvent(tick=0, channel=11, data=[46, 113]),
   midi.NoteOffEvent(tick=480, channel=11, data=[46, 0]),
   midi.NoteOnEvent(tick=0, channel=11, data=[46, 113]),
   midi.NoteOffEvent(tick=480, channel=11, data=[46, 0]),
   midi.NoteOnEvent(tick=0, channel=11, data=[46, 113]),
   midi.NoteOffEvent(tick=480, channel=11, data=[46, 0]),
   midi.NoteOnEvent(tick=0, channel=11, data=[51, 127]),
   midi.NoteOffEvent(tick=960, channel=11, data=[51, 0]),
   midi.NoteOnEvent(tick=1440, channel=11, data=[46, 111]),
   midi.NoteOffEvent(tick=480, channel=11, data=[46, 0]),
   midi.NoteOnEvent(tick=0, channel=11, data=[46, 112]),
   midi.NoteOffEvent(tick=480, channel=11, data=[46, 0]),
   midi.NoteOnEvent(tick=0, channel=11, data=[46, 112]),
   midi.NoteOffEvent(tick=480, channel=11, data=[46, 0]),
   midi.NoteOnEvent(tick=0, channel=11, data=[51, 127]),
   midi.NoteOffEvent(tick=960, channel=11, data=[51, 0]),
   midi.NoteOnEvent(tick=1440, channel=11, data=[46, 111]),
   midi.NoteOffEvent(tick=480, channel=11, data=[46, 0]),
   midi.NoteOnEvent(tick=0, channel=11, data=[46, 111]),
   midi.NoteOffEvent(tick=480, channel=11, data=[46, 0]),
   midi.NoteOnEvent(tick=0, channel=11, data=[46, 112]),
   midi.NoteOffEvent(tick=480, channel=11, data=[46, 0]),
   midi.NoteOnEvent(tick=0, channel=11, data=[51, 127]),
   midi.NoteOffEvent(tick=960, channel=11, data=[51, 0]),
   midi.NoteOnEvent(tick=5280, channel=11, data=[43, 113]),
   midi.NoteOffEvent(tick=480, channel=11, data=[43, 0]),
   midi.NoteOnEvent(tick=0, channel=11, data=[43, 113]),
   midi.NoteOffEvent(tick=480, channel=11, data=[43, 0]),
   midi.NoteOnEvent(tick=0, channel=11, data=[43, 113]),
   midi.NoteOffEvent(tick=480, channel=11, data=[43, 0]),
   midi.NoteOnEvent(tick=0, channel=11, data=[39, 115]),
   midi.NoteOffEvent(tick=2880, channel=11, data=[39, 0]),
   midi.NoteOnEvent(tick=480, channel=11, data=[41, 113]),
   midi.NoteOffEvent(tick=480, channel=11, data=[41, 0]),
   midi.NoteOnEvent(tick=0, channel=11, data=[41, 113]),
   midi.NoteOffEvent(tick=480, channel=11, data=[41, 0]),
   midi.NoteOnEvent(tick=0, channel=11, data=[41, 113]),
   midi.NoteOffEvent(tick=480, channel=11, data=[41, 0]),
   midi.NoteOnEvent(tick=0, channel=11, data=[38, 115]),
   midi.NoteOffEvent(tick=2880, channel=11, data=[38, 0]),
   midi.NoteOnEvent(tick=1920, channel=11, data=[60, 68]),
   midi.NoteOffEvent(tick=7680, channel=11, data=[60, 0]),
   midi.NoteOnEvent(tick=0, channel=11, data=[59, 65]),
   midi.NoteOffEvent(tick=7680, channel=11, data=[59, 0]),
   midi.NoteOnEvent(tick=0, channel=11, data=[60, 65]),
   midi.NoteOffEvent(tick=1920, channel=11, data=[60, 0]),
   midi.NoteOnEvent(tick=0, channel=11, data=[59, 64]),
   midi.NoteOffEvent(tick=1920, channel=11, data=[59, 0]),
   midi.NoteOnEvent(tick=0, channel=11, data=[60, 65]),
   midi.NoteOffEvent(tick=1920, channel=11, data=[60, 0]),
   midi.NoteOnEvent(tick=0, channel=11, data=[59, 64]),
   midi.NoteOffEvent(tick=480, channel=11, data=[59, 0]),
   midi.NoteOnEvent(tick=0, channel=11, data=[59, 69]),
   midi.NoteOffEvent(tick=480, channel=11, data=[59, 0]),
   midi.NoteOnEvent(tick=0, channel=11, data=[59, 79]),
   midi.NoteOffEvent(tick=480, channel=11, data=[59, 0]),
   midi.NoteOnEvent(tick=0, channel=11, data=[59, 88]),
   midi.NoteOffEvent(tick=480, channel=11, data=[59, 0]),
   midi.NoteOnEvent(tick=0, channel=11, data=[60, 107]),
   midi.NoteOffEvent(tick=960, channel=11, data=[60, 0]),
   midi.NoteOnEvent(tick=960, channel=11, data=[44, 91]),
   midi.NoteOffEvent(tick=960, channel=11, data=[44, 0]),
   midi.NoteOnEvent(tick=960, channel=11, data=[43, 98]),
   midi.NoteOffEvent(tick=960, channel=11, data=[43, 0]),
   midi.NoteOnEvent(tick=3360, channel=11, data=[44, 113]),
   midi.NoteOffEvent(tick=480, channel=11, data=[44, 0]),
   midi.NoteOnEvent(tick=0, channel=11, data=[44, 113]),
   midi.NoteOffEvent(tick=480, channel=11, data=[44, 0]),
   midi.NoteOnEvent(tick=0, channel=11, data=[44, 113]),
   midi.NoteOffEvent(tick=480, channel=11, data=[44, 0]),
   midi.NoteOnEvent(tick=0, channel=11, data=[41, 116]),
   midi.NoteOffEvent(tick=3840, channel=11, data=[41, 0]),
   midi.NoteOnEvent(tick=6240, channel=11, data=[43, 61]),
   midi.NoteOffEvent(tick=480, channel=11, data=[43, 0]),
   midi.NoteOnEvent(tick=0, channel=11, data=[43, 61]),
   midi.NoteOffEvent(tick=480, channel=11, data=[43, 0]),
   midi.NoteOnEvent(tick=0, channel=11, data=[43, 61]),
   midi.NoteOffEvent(tick=480, channel=11, data=[43, 0]),
   midi.NoteOnEvent(tick=0, channel=11, data=[48, 70]),
   midi.NoteOffEvent(tick=960, channel=11, data=[48, 0]),
   midi.NoteOnEvent(tick=5280, channel=11, data=[43, 61]),
   midi.NoteOffEvent(tick=480, channel=11, data=[43, 0]),
   midi.NoteOnEvent(tick=0, channel=11, data=[43, 61]),
   midi.NoteOffEvent(tick=480, channel=11, data=[43, 0]),
   midi.NoteOnEvent(tick=0, channel=11, data=[43, 61]),
   midi.NoteOffEvent(tick=480, channel=11, data=[43, 0]),
   midi.NoteOnEvent(tick=0, channel=11, data=[48, 70]),
   midi.NoteOffEvent(tick=960, channel=11, data=[48, 0]),
   midi.NoteOnEvent(tick=1440, channel=11, data=[48, 87]),
   midi.NoteOffEvent(tick=480, channel=11, data=[48, 0]),
   midi.NoteOnEvent(tick=0, channel=11, data=[48, 86]),
   midi.NoteOffEvent(tick=480, channel=11, data=[48, 0]),
   midi.NoteOnEvent(tick=0, channel=11, data=[48, 86]),
   midi.NoteOffEvent(tick=480, channel=11, data=[48, 0]),
   midi.NoteOnEvent(tick=0, channel=11, data=[48, 91]),
   midi.NoteOffEvent(tick=960, channel=11, data=[48, 0]),
   midi.NoteOnEvent(tick=1440, channel=11, data=[48, 84]),
   midi.NoteOffEvent(tick=480, channel=11, data=[48, 0]),
   midi.NoteOnEvent(tick=0, channel=11, data=[48, 84]),
   midi.NoteOffEvent(tick=480, channel=11, data=[48, 0]),
   midi.NoteOnEvent(tick=0, channel=11, data=[48, 84]),
   midi.NoteOffEvent(tick=480, channel=11, data=[48, 0]),
   midi.NoteOnEvent(tick=0, channel=11, data=[48, 89]),
   midi.NoteOffEvent(tick=960, channel=11, data=[48, 0]),
   midi.NoteOnEvent(tick=960, channel=11, data=[48, 104]),
   midi.NoteOffEvent(tick=960, channel=11, data=[48, 0]),
   midi.NoteOnEvent(tick=960, channel=11, data=[48, 104]),
   midi.NoteOffEvent(tick=960, channel=11, data=[48, 0]),
   midi.NoteOnEvent(tick=960, channel=11, data=[48, 104]),
   midi.NoteOffEvent(tick=960, channel=11, data=[48, 0]),
   midi.NoteOnEvent(tick=960, channel=11, data=[48, 104]),
   midi.NoteOffEvent(tick=960, channel=11, data=[48, 0]),
   midi.NoteOnEvent(tick=960, channel=11, data=[48, 104]),
   midi.NoteOffEvent(tick=960, channel=11, data=[48, 0]),
   midi.NoteOnEvent(tick=960, channel=11, data=[48, 104]),
   midi.NoteOffEvent(tick=960, channel=11, data=[48, 0]),
   midi.NoteOnEvent(tick=960, channel=11, data=[48, 104]),
   midi.NoteOffEvent(tick=6240, channel=11, data=[48, 0]),
   midi.NoteOnEvent(tick=0, channel=11, data=[48, 98]),
   midi.NoteOffEvent(tick=480, channel=11, data=[48, 0]),
   midi.NoteOnEvent(tick=0, channel=11, data=[48, 98]),
   midi.NoteOffEvent(tick=480, channel=11, data=[48, 0]),
   midi.NoteOnEvent(tick=0, channel=11, data=[48, 98]),
   midi.NoteOffEvent(tick=480, channel=11, data=[48, 0]),
   midi.NoteOnEvent(tick=0, channel=11, data=[43, 98]),
   midi.NoteOffEvent(tick=6240, channel=11, data=[43, 0]),
   midi.NoteOnEvent(tick=0, channel=11, data=[43, 98]),
   midi.NoteOffEvent(tick=480, channel=11, data=[43, 0]),
   midi.NoteOnEvent(tick=0, channel=11, data=[48, 101]),
   midi.NoteOffEvent(tick=480, channel=11, data=[48, 0]),
   midi.NoteOnEvent(tick=0, channel=11, data=[48, 100]),
   midi.NoteOffEvent(tick=480, channel=11, data=[48, 0]),
   midi.NoteOnEvent(tick=0, channel=11, data=[48, 123]),
   midi.NoteOffEvent(tick=480, channel=11, data=[48, 0]),
   midi.NoteOnEvent(tick=0, channel=11, data=[48, 115]),
   midi.NoteOffEvent(tick=480, channel=11, data=[48, 0]),
   midi.NoteOnEvent(tick=0, channel=11, data=[48, 115]),
   midi.NoteOffEvent(tick=480, channel=11, data=[48, 0]),
   midi.NoteOnEvent(tick=0, channel=11, data=[48, 115]),
   midi.NoteOffEvent(tick=480, channel=11, data=[48, 0]),
   midi.NoteOnEvent(tick=0, channel=11, data=[48, 121]),
   midi.NoteOffEvent(tick=480, channel=11, data=[48, 0]),
   midi.NoteOnEvent(tick=0, channel=11, data=[48, 114]),
   midi.NoteOffEvent(tick=480, channel=11, data=[48, 0]),
   midi.NoteOnEvent(tick=0, channel=11, data=[48, 114]),
   midi.NoteOffEvent(tick=480, channel=11, data=[48, 0]),
   midi.NoteOnEvent(tick=0, channel=11, data=[48, 114]),
   midi.NoteOffEvent(tick=480, channel=11, data=[48, 0]),
   midi.NoteOnEvent(tick=0, channel=11, data=[48, 120]),
   midi.NoteOffEvent(tick=480, channel=11, data=[48, 0]),
   midi.NoteOnEvent(tick=0, channel=11, data=[48, 113]),
   midi.NoteOffEvent(tick=480, channel=11, data=[48, 0]),
   midi.NoteOnEvent(tick=0, channel=11, data=[48, 113]),
   midi.NoteOffEvent(tick=480, channel=11, data=[48, 0]),
   midi.NoteOnEvent(tick=0, channel=11, data=[48, 113]),
   midi.NoteOffEvent(tick=480, channel=11, data=[48, 0]),
   midi.NoteOnEvent(tick=0, channel=11, data=[48, 120]),
   midi.NoteOffEvent(tick=480, channel=11, data=[48, 0]),
   midi.NoteOnEvent(tick=0, channel=11, data=[48, 113]),
   midi.NoteOffEvent(tick=480, channel=11, data=[48, 0]),
   midi.NoteOnEvent(tick=0, channel=11, data=[48, 113]),
   midi.NoteOffEvent(tick=480, channel=11, data=[48, 0]),
   midi.NoteOnEvent(tick=0, channel=11, data=[48, 113]),
   midi.NoteOffEvent(tick=480, channel=11, data=[48, 0]),
   midi.NoteOnEvent(tick=0, channel=11, data=[48, 120]),
   midi.NoteOffEvent(tick=960, channel=11, data=[48, 0]),
   midi.NoteOnEvent(tick=2880, channel=11, data=[50, 122]),
   midi.NoteOffEvent(tick=960, channel=11, data=[50, 0]),
   midi.NoteOnEvent(tick=12960, channel=11, data=[46, 61]),
   midi.NoteOffEvent(tick=480, channel=11, data=[46, 0]),
   midi.NoteOnEvent(tick=0, channel=11, data=[46, 61]),
   midi.NoteOffEvent(tick=480, channel=11, data=[46, 0]),
   midi.NoteOnEvent(tick=0, channel=11, data=[46, 61]),
   midi.NoteOffEvent(tick=480, channel=11, data=[46, 0]),
   midi.NoteOnEvent(tick=0, channel=11, data=[51, 70]),
   midi.NoteOffEvent(tick=960, channel=11, data=[51, 0]),
   midi.NoteOnEvent(tick=5280, channel=11, data=[46, 61]),
   midi.NoteOffEvent(tick=480, channel=11, data=[46, 0]),
   midi.NoteOnEvent(tick=0, channel=11, data=[46, 61]),
   midi.NoteOffEvent(tick=480, channel=11, data=[46, 0]),
   midi.NoteOnEvent(tick=0, channel=11, data=[46, 61]),
   midi.NoteOffEvent(tick=480, channel=11, data=[46, 0]),
   midi.NoteOnEvent(tick=0, channel=11, data=[51, 70]),
   midi.NoteOffEvent(tick=960, channel=11, data=[51, 0]),
   midi.NoteOnEvent(tick=5280, channel=11, data=[46, 61]),
   midi.NoteOffEvent(tick=480, channel=11, data=[46, 0]),
   midi.NoteOnEvent(tick=0, channel=11, data=[46, 61]),
   midi.NoteOffEvent(tick=480, channel=11, data=[46, 0]),
   midi.NoteOnEvent(tick=0, channel=11, data=[46, 61]),
   midi.NoteOffEvent(tick=480, channel=11, data=[46, 0]),
   midi.NoteOnEvent(tick=0, channel=11, data=[51, 70]),
   midi.NoteOffEvent(tick=960, channel=11, data=[51, 0]),
   midi.NoteOnEvent(tick=5280, channel=11, data=[48, 61]),
   midi.NoteOffEvent(tick=480, channel=11, data=[48, 0]),
   midi.NoteOnEvent(tick=0, channel=11, data=[48, 61]),
   midi.NoteOffEvent(tick=480, channel=11, data=[48, 0]),
   midi.NoteOnEvent(tick=0, channel=11, data=[48, 61]),
   midi.NoteOffEvent(tick=480, channel=11, data=[48, 0]),
   midi.NoteOnEvent(tick=0, channel=11, data=[53, 71]),
   midi.NoteOffEvent(tick=960, channel=11, data=[53, 0]),
   midi.NoteOnEvent(tick=5280, channel=11, data=[51, 61]),
   midi.NoteOffEvent(tick=480, channel=11, data=[51, 0]),
   midi.NoteOnEvent(tick=0, channel=11, data=[51, 61]),
   midi.NoteOffEvent(tick=480, channel=11, data=[51, 0]),
   midi.NoteOnEvent(tick=0, channel=11, data=[51, 61]),
   midi.NoteOffEvent(tick=480, channel=11, data=[51, 0]),
   midi.NoteOnEvent(tick=0, channel=11, data=[56, 71]),
   midi.NoteOffEvent(tick=960, channel=11, data=[56, 0]),
   midi.NoteOnEvent(tick=960, channel=11, data=[63, 74]),
   midi.NoteOffEvent(tick=960, channel=11, data=[63, 0]),
   midi.NoteOnEvent(tick=0, channel=11, data=[65, 69]),
   midi.NoteOffEvent(tick=960, channel=11, data=[65, 0]),
   midi.NoteOnEvent(tick=0, channel=11, data=[66, 72]),
   midi.NoteOffEvent(tick=960, channel=11, data=[66, 0]),
   midi.NoteOnEvent(tick=0, channel=11, data=[65, 69]),
   midi.NoteOffEvent(tick=960, channel=11, data=[65, 0]),
   midi.NoteOnEvent(tick=0, channel=11, data=[63, 74]),
   midi.NoteOffEvent(tick=960, channel=11, data=[63, 0]),
   midi.NoteOnEvent(tick=0, channel=11, data=[65, 73]),
   midi.NoteOffEvent(tick=960, channel=11, data=[65, 0]),
   midi.NoteOnEvent(tick=0, channel=11, data=[66, 78]),
   midi.NoteOffEvent(tick=960, channel=11, data=[66, 0]),
   midi.NoteOnEvent(tick=0, channel=11, data=[65, 71]),
   midi.NoteOffEvent(tick=960, channel=11, data=[65, 0]),
   midi.NoteOnEvent(tick=0, channel=11, data=[63, 72]),
   midi.NoteOffEvent(tick=960, channel=11, data=[63, 0]),
   midi.NoteOnEvent(tick=0, channel=11, data=[65, 72]),
   midi.NoteOffEvent(tick=960, channel=11, data=[65, 0]),
   midi.NoteOnEvent(tick=0, channel=11, data=[66, 92]),
   midi.NoteOffEvent(tick=960, channel=11, data=[66, 0]),
   midi.NoteOnEvent(tick=0, channel=11, data=[65, 84]),
   midi.NoteOffEvent(tick=960, channel=11, data=[65, 0]),
   midi.NoteOnEvent(tick=0, channel=11, data=[63, 85]),
   midi.NoteOffEvent(tick=960, channel=11, data=[63, 0]),
   midi.NoteOnEvent(tick=0, channel=11, data=[65, 85]),
   midi.NoteOffEvent(tick=960, channel=11, data=[65, 0]),
   midi.NoteOnEvent(tick=0, channel=11, data=[66, 92]),
   midi.NoteOffEvent(tick=960, channel=11, data=[66, 0]),
   midi.NoteOnEvent(tick=0, channel=11, data=[65, 84]),
   midi.NoteOffEvent(tick=960, channel=11, data=[65, 0]),
   midi.NoteOnEvent(tick=0, channel=11, data=[63, 85]),
   midi.NoteOffEvent(tick=960, channel=11, data=[63, 0]),
   midi.NoteOnEvent(tick=0, channel=11, data=[65, 85]),
   midi.NoteOffEvent(tick=960, channel=11, data=[65, 0]),
   midi.NoteOnEvent(tick=0, channel=11, data=[66, 92]),
   midi.NoteOffEvent(tick=960, channel=11, data=[66, 0]),
   midi.NoteOnEvent(tick=0, channel=11, data=[65, 84]),
   midi.NoteOffEvent(tick=960, channel=11, data=[65, 0]),
   midi.NoteOnEvent(tick=0, channel=11, data=[66, 91]),
   midi.NoteOffEvent(tick=960, channel=11, data=[66, 0]),
   midi.NoteOnEvent(tick=0, channel=11, data=[60, 75]),
   midi.NoteOffEvent(tick=960, channel=11, data=[60, 0]),
   midi.NoteOnEvent(tick=0, channel=11, data=[62, 115]),
   midi.NoteOffEvent(tick=2880, channel=11, data=[62, 0]),
   midi.NoteOnEvent(tick=0, channel=11, data=[50, 103]),
   midi.NoteOffEvent(tick=960, channel=11, data=[50, 0]),
   midi.NoteOnEvent(tick=0, channel=11, data=[51, 114]),
   midi.NoteOffEvent(tick=960, channel=11, data=[51, 0]),
   midi.NoteOnEvent(tick=960, channel=11, data=[53, 121]),
   midi.NoteOffEvent(tick=960, channel=11, data=[53, 0]),
   midi.NoteOnEvent(tick=960, channel=11, data=[55, 123]),
   midi.NoteOffEvent(tick=960, channel=11, data=[55, 0]),
   midi.NoteOnEvent(tick=960, channel=11, data=[56, 122]),
   midi.NoteOffEvent(tick=960, channel=11, data=[56, 0]),
   midi.NoteOnEvent(tick=960, channel=11, data=[58, 123]),
   midi.NoteOffEvent(tick=960, channel=11, data=[58, 0]),
   midi.NoteOnEvent(tick=960, channel=11, data=[46, 112]),
   midi.NoteOffEvent(tick=960, channel=11, data=[46, 0]),
   midi.NoteOnEvent(tick=960, channel=11, data=[50, 119]),
   midi.NoteOffEvent(tick=960, channel=11, data=[50, 0]),
   midi.NoteOnEvent(tick=0, channel=11, data=[53, 117]),
   midi.NoteOffEvent(tick=960, channel=11, data=[53, 0]),
   midi.NoteOnEvent(tick=0, channel=11, data=[50, 118]),
   midi.NoteOffEvent(tick=960, channel=11, data=[50, 0]),
   midi.NoteOnEvent(tick=0, channel=11, data=[53, 118]),
   midi.NoteOffEvent(tick=960, channel=11, data=[53, 0]),
   midi.NoteOnEvent(tick=0, channel=11, data=[51, 119]),
   midi.NoteOffEvent(tick=960, channel=11, data=[51, 0]),
   midi.NoteOnEvent(tick=0, channel=11, data=[55, 122]),
   midi.NoteOffEvent(tick=960, channel=11, data=[55, 0]),
   midi.NoteOnEvent(tick=0, channel=11, data=[53, 121]),
   midi.NoteOffEvent(tick=960, channel=11, data=[53, 0]),
   midi.NoteOnEvent(tick=0, channel=11, data=[56, 121]),
   midi.NoteOffEvent(tick=960, channel=11, data=[56, 0]),
   midi.NoteOnEvent(tick=0, channel=11, data=[55, 123]),
   midi.NoteOffEvent(tick=960, channel=11, data=[55, 0]),
   midi.NoteOnEvent(tick=0, channel=11, data=[58, 122]),
   midi.NoteOffEvent(tick=960, channel=11, data=[58, 0]),
   midi.NoteOnEvent(tick=0, channel=11, data=[56, 121]),
   midi.NoteOffEvent(tick=960, channel=11, data=[56, 0]),
   midi.NoteOnEvent(tick=0, channel=11, data=[60, 124]),
   midi.NoteOffEvent(tick=960, channel=11, data=[60, 0]),
   midi.NoteOnEvent(tick=0, channel=11, data=[58, 122]),
   midi.NoteOffEvent(tick=960, channel=11, data=[58, 0]),
   midi.NoteOnEvent(tick=0, channel=11, data=[46, 98]),
   midi.NoteOffEvent(tick=960, channel=11, data=[46, 0]),
   midi.NoteOnEvent(tick=0, channel=11, data=[58, 127]),
   midi.NoteOffEvent(tick=960, channel=11, data=[58, 0]),
   midi.NoteOnEvent(tick=0, channel=11, data=[46, 100]),
   midi.NoteOffEvent(tick=960, channel=11, data=[46, 0]),
   midi.NoteOnEvent(tick=0, channel=11, data=[51, 117]),
   midi.NoteOffEvent(tick=6240, channel=11, data=[51, 0]),
   midi.NoteOnEvent(tick=0, channel=11, data=[46, 113]),
   midi.NoteOffEvent(tick=480, channel=11, data=[46, 0]),
   midi.NoteOnEvent(tick=0, channel=11, data=[46, 113]),
   midi.NoteOffEvent(tick=480, channel=11, data=[46, 0]),
   midi.NoteOnEvent(tick=0, channel=11, data=[46, 113]),
   midi.NoteOffEvent(tick=480, channel=11, data=[46, 0]),
   midi.NoteOnEvent(tick=0, channel=11, data=[51, 127]),
   midi.NoteOffEvent(tick=6240, channel=11, data=[51, 0]),
   midi.NoteOnEvent(tick=0, channel=11, data=[46, 113]),
   midi.NoteOffEvent(tick=480, channel=11, data=[46, 0]),
   midi.NoteOnEvent(tick=0, channel=11, data=[46, 113]),
   midi.NoteOffEvent(tick=480, channel=11, data=[46, 0]),
   midi.NoteOnEvent(tick=0, channel=11, data=[46, 113]),
   midi.NoteOffEvent(tick=480, channel=11, data=[46, 0]),
   midi.NoteOnEvent(tick=0, channel=11, data=[51, 127]),
   midi.NoteOffEvent(tick=960, channel=11, data=[51, 0]),
   midi.NoteOnEvent(tick=1440, channel=11, data=[46, 111]),
   midi.NoteOffEvent(tick=480, channel=11, data=[46, 0]),
   midi.NoteOnEvent(tick=0, channel=11, data=[46, 112]),
   midi.NoteOffEvent(tick=480, channel=11, data=[46, 0]),
   midi.NoteOnEvent(tick=0, channel=11, data=[46, 112]),
   midi.NoteOffEvent(tick=480, channel=11, data=[46, 0]),
   midi.NoteOnEvent(tick=0, channel=11, data=[51, 127]),
   midi.NoteOffEvent(tick=960, channel=11, data=[51, 0]),
   midi.NoteOnEvent(tick=1440, channel=11, data=[46, 111]),
   midi.NoteOffEvent(tick=480, channel=11, data=[46, 0]),
   midi.NoteOnEvent(tick=0, channel=11, data=[46, 111]),
   midi.NoteOffEvent(tick=480, channel=11, data=[46, 0]),
   midi.NoteOnEvent(tick=0, channel=11, data=[46, 112]),
   midi.NoteOffEvent(tick=480, channel=11, data=[46, 0]),
   midi.NoteOnEvent(tick=0, channel=11, data=[51, 127]),
   midi.NoteOffEvent(tick=960, channel=11, data=[51, 0]),
   midi.NoteOnEvent(tick=7200, channel=11, data=[37, 113]),
   midi.NoteOffEvent(tick=480, channel=11, data=[37, 0]),
   midi.NoteOnEvent(tick=0, channel=11, data=[37, 113]),
   midi.NoteOffEvent(tick=480, channel=11, data=[37, 0]),
   midi.NoteOnEvent(tick=0, channel=11, data=[37, 113]),
   midi.NoteOffEvent(tick=480, channel=11, data=[37, 0]),
   midi.NoteOnEvent(tick=0, channel=11, data=[36, 119]),
   midi.NoteOffEvent(tick=3840, channel=11, data=[36, 0]),
   midi.NoteOnEvent(tick=1920, channel=11, data=[60, 66]),
   midi.NoteOffEvent(tick=4320, channel=11, data=[60, 0]),
   midi.NoteOnEvent(tick=0, channel=11, data=[61, 61]),
   midi.NoteOffEvent(tick=480, channel=11, data=[61, 0]),
   midi.NoteOnEvent(tick=0, channel=11, data=[61, 61]),
   midi.NoteOffEvent(tick=480, channel=11, data=[61, 0]),
   midi.NoteOnEvent(tick=0, channel=11, data=[61, 61]),
   midi.NoteOffEvent(tick=480, channel=11, data=[61, 0]),
   midi.NoteOnEvent(tick=0, channel=11, data=[60, 63]),
   midi.NoteOffEvent(tick=6240, channel=11, data=[60, 0]),
   midi.NoteOnEvent(tick=0, channel=11, data=[61, 61]),
   midi.NoteOffEvent(tick=480, channel=11, data=[61, 0]),
   midi.NoteOnEvent(tick=0, channel=11, data=[61, 61]),
   midi.NoteOffEvent(tick=480, channel=11, data=[61, 0]),
   midi.NoteOnEvent(tick=0, channel=11, data=[61, 61]),
   midi.NoteOffEvent(tick=480, channel=11, data=[61, 0]),
   midi.NoteOnEvent(tick=0, channel=11, data=[60, 63]),
   midi.NoteOffEvent(tick=11520, channel=11, data=[60, 0]),
   midi.NoteOnEvent(tick=0, channel=11, data=[62, 65]),
   midi.NoteOffEvent(tick=911, channel=11, data=[62, 0]),
   midi.NoteOnEvent(tick=49, channel=11, data=[63, 61]),
   midi.NoteOffEvent(tick=960, channel=11, data=[63, 0]),
   midi.NoteOnEvent(tick=0, channel=11, data=[65, 67]),
   midi.NoteOffEvent(tick=960, channel=11, data=[65, 0]),
   midi.NoteOnEvent(tick=0, channel=11, data=[66, 63]),
   midi.NoteOffEvent(tick=960, channel=11, data=[66, 0]),
   midi.NoteOnEvent(tick=0, channel=11, data=[67, 68]),
   midi.NoteOffEvent(tick=480, channel=11, data=[67, 0]),
   midi.NoteOnEvent(tick=0, channel=11, data=[67, 63]),
   midi.NoteOffEvent(tick=480, channel=11, data=[67, 0]),
   midi.NoteOnEvent(tick=0, channel=11, data=[67, 63]),
   midi.NoteOffEvent(tick=480, channel=11, data=[67, 0]),
   midi.NoteOnEvent(tick=0, channel=11, data=[65, 59]),
   midi.NoteOffEvent(tick=480, channel=11, data=[65, 0]),
   midi.NoteOnEvent(tick=0, channel=11, data=[63, 58]),
   midi.NoteOffEvent(tick=1920, channel=11, data=[63, 0]),
   midi.NoteOnEvent(tick=0, channel=11, data=[62, 59]),
   midi.NoteOffEvent(tick=480, channel=11, data=[62, 0]),
   midi.NoteOnEvent(tick=0, channel=11, data=[67, 65]),
   midi.NoteOffEvent(tick=480, channel=11, data=[67, 0]),
   midi.NoteOnEvent(tick=0, channel=11, data=[67, 65]),
   midi.NoteOffEvent(tick=480, channel=11, data=[67, 0]),
   midi.NoteOnEvent(tick=0, channel=11, data=[65, 60]),
   midi.NoteOffEvent(tick=480, channel=11, data=[65, 0]),
   midi.NoteOnEvent(tick=0, channel=11, data=[63, 59]),
   midi.NoteOffEvent(tick=1920, channel=11, data=[63, 0]),
   midi.NoteOnEvent(tick=0, channel=11, data=[62, 61]),
   midi.NoteOffEvent(tick=480, channel=11, data=[62, 0]),
   midi.NoteOnEvent(tick=0, channel=11, data=[67, 66]),
   midi.NoteOffEvent(tick=480, channel=11, data=[67, 0]),
   midi.NoteOnEvent(tick=0, channel=11, data=[67, 65]),
   midi.NoteOffEvent(tick=480, channel=11, data=[67, 0]),
   midi.NoteOnEvent(tick=0, channel=11, data=[65, 60]),
   midi.NoteOffEvent(tick=480, channel=11, data=[65, 0]),
   midi.NoteOnEvent(tick=0, channel=11, data=[63, 59]),
   midi.NoteOffEvent(tick=480, channel=11, data=[63, 0]),
   midi.NoteOnEvent(tick=0, channel=11, data=[63, 57]),
   midi.NoteOffEvent(tick=480, channel=11, data=[63, 0]),
   midi.NoteOnEvent(tick=0, channel=11, data=[63, 57]),
   midi.NoteOffEvent(tick=480, channel=11, data=[63, 0]),
   midi.NoteOnEvent(tick=0, channel=11, data=[62, 55]),
   midi.NoteOffEvent(tick=480, channel=11, data=[62, 0]),
   midi.NoteOnEvent(tick=0, channel=11, data=[60, 56]),
   midi.NoteOffEvent(tick=480, channel=11, data=[60, 0]),
   midi.NoteOnEvent(tick=0, channel=11, data=[60, 54]),
   midi.NoteOffEvent(tick=480, channel=11, data=[60, 0]),
   midi.NoteOnEvent(tick=0, channel=11, data=[60, 54]),
   midi.NoteOffEvent(tick=480, channel=11, data=[60, 0]),
   midi.NoteOnEvent(tick=0, channel=11, data=[58, 52]),
   midi.NoteOffEvent(tick=480, channel=11, data=[58, 0]),
   midi.NoteOnEvent(tick=0, channel=11, data=[57, 55]),
   midi.NoteOffEvent(tick=480, channel=11, data=[57, 0]),
   midi.NoteOnEvent(tick=0, channel=11, data=[57, 53]),
   midi.NoteOffEvent(tick=480, channel=11, data=[57, 0]),
   midi.NoteOnEvent(tick=0, channel=11, data=[57, 54]),
   midi.NoteOffEvent(tick=480, channel=11, data=[57, 0]),
   midi.NoteOnEvent(tick=0, channel=11, data=[55, 52]),
   midi.NoteOffEvent(tick=480, channel=11, data=[55, 0]),
   midi.NoteOnEvent(tick=0, channel=11, data=[54, 55]),
   midi.NoteOffEvent(tick=960, channel=11, data=[54, 0]),
   midi.NoteOnEvent(tick=1440, channel=11, data=[58, 63]),
   midi.NoteOffEvent(tick=480, channel=11, data=[58, 0]),
   midi.NoteOnEvent(tick=0, channel=11, data=[58, 63]),
   midi.NoteOffEvent(tick=480, channel=11, data=[58, 0]),
   midi.NoteOnEvent(tick=0, channel=11, data=[60, 66]),
   midi.NoteOffEvent(tick=480, channel=11, data=[60, 0]),
   midi.NoteOnEvent(tick=0, channel=11, data=[62, 72]),
   midi.NoteOffEvent(tick=2400, channel=11, data=[62, 0]),
   midi.NoteOnEvent(tick=0, channel=11, data=[58, 60]),
   midi.NoteOffEvent(tick=480, channel=11, data=[58, 0]),
   midi.NoteOnEvent(tick=0, channel=11, data=[58, 60]),
   midi.NoteOffEvent(tick=480, channel=11, data=[58, 0]),
   midi.NoteOnEvent(tick=0, channel=11, data=[60, 63]),
   midi.NoteOffEvent(tick=480, channel=11, data=[60, 0]),
   midi.NoteOnEvent(tick=0, channel=11, data=[62, 70]),
   midi.NoteOffEvent(tick=480, channel=11, data=[62, 0]),
   midi.NoteOnEvent(tick=0, channel=11, data=[62, 65]),
   midi.NoteOffEvent(tick=480, channel=11, data=[62, 0]),
   midi.NoteOnEvent(tick=0, channel=11, data=[62, 65]),
   midi.NoteOffEvent(tick=480, channel=11, data=[62, 0]),
   midi.NoteOnEvent(tick=0, channel=11, data=[60, 59]),
   midi.NoteOffEvent(tick=480, channel=11, data=[60, 0]),
   midi.NoteOnEvent(tick=0, channel=11, data=[58, 58]),
   midi.NoteOffEvent(tick=480, channel=11, data=[58, 0]),
   midi.NoteOnEvent(tick=0, channel=11, data=[58, 55]),
   midi.NoteOffEvent(tick=480, channel=11, data=[58, 0]),
   midi.NoteOnEvent(tick=0, channel=11, data=[58, 56]),
   midi.NoteOffEvent(tick=480, channel=11, data=[58, 0]),
   midi.NoteOnEvent(tick=0, channel=11, data=[57, 54]),
   midi.NoteOffEvent(tick=480, channel=11, data=[57, 0]),
   midi.NoteOnEvent(tick=0, channel=11, data=[55, 55]),
   midi.NoteOffEvent(tick=480, channel=11, data=[55, 0]),
   midi.NoteOnEvent(tick=0, channel=11, data=[55, 53]),
   midi.NoteOffEvent(tick=480, channel=11, data=[55, 0]),
   midi.NoteOnEvent(tick=0, channel=11, data=[55, 54]),
   midi.NoteOffEvent(tick=480, channel=11, data=[55, 0]),
   midi.NoteOnEvent(tick=0, channel=11, data=[53, 52]),
   midi.NoteOffEvent(tick=480, channel=11, data=[53, 0]),
   midi.NoteOnEvent(tick=0, channel=11, data=[51, 55]),
   midi.NoteOffEvent(tick=480, channel=11, data=[51, 0]),
   midi.NoteOnEvent(tick=0, channel=11, data=[51, 52]),
   midi.NoteOffEvent(tick=480, channel=11, data=[51, 0]),
   midi.NoteOnEvent(tick=0, channel=11, data=[51, 53]),
   midi.NoteOffEvent(tick=480, channel=11, data=[51, 0]),
   midi.NoteOnEvent(tick=0, channel=11, data=[50, 53]),
   midi.NoteOffEvent(tick=480, channel=11, data=[50, 0]),
   midi.NoteOnEvent(tick=0, channel=11, data=[48, 56]),
   midi.NoteOffEvent(tick=480, channel=11, data=[48, 0]),
   midi.NoteOnEvent(tick=0, channel=11, data=[60, 70]),
   midi.NoteOffEvent(tick=480, channel=11, data=[60, 0]),
   midi.NoteOnEvent(tick=0, channel=11, data=[60, 70]),
   midi.NoteOffEvent(tick=480, channel=11, data=[60, 0]),
   midi.NoteOnEvent(tick=0, channel=11, data=[58, 70]),
   midi.NoteOffEvent(tick=480, channel=11, data=[58, 0]),
   midi.NoteOnEvent(tick=0, channel=11, data=[57, 71]),
   midi.NoteOffEvent(tick=480, channel=11, data=[57, 0]),
   midi.NoteOnEvent(tick=0, channel=11, data=[57, 67]),
   midi.NoteOffEvent(tick=480, channel=11, data=[57, 0]),
   midi.NoteOnEvent(tick=0, channel=11, data=[57, 65]),
   midi.NoteOffEvent(tick=480, channel=11, data=[57, 0]),
   midi.NoteOnEvent(tick=0, channel=11, data=[55, 58]),
   midi.NoteOffEvent(tick=480, channel=11, data=[55, 0]),
   midi.NoteOnEvent(tick=0, channel=11, data=[54, 59]),
   midi.NoteOffEvent(tick=480, channel=11, data=[54, 0]),
   midi.NoteOnEvent(tick=0, channel=11, data=[54, 56]),
   midi.NoteOffEvent(tick=480, channel=11, data=[54, 0]),
   midi.NoteOnEvent(tick=0, channel=11, data=[54, 57]),
   midi.NoteOffEvent(tick=480, channel=11, data=[54, 0]),
   midi.NoteOnEvent(tick=0, channel=11, data=[51, 53]),
   midi.NoteOffEvent(tick=480, channel=11, data=[51, 0]),
   midi.NoteOnEvent(tick=0, channel=11, data=[50, 56]),
   midi.NoteOffEvent(tick=480, channel=11, data=[50, 0]),
   midi.NoteOnEvent(tick=0, channel=11, data=[50, 53]),
   midi.NoteOffEvent(tick=480, channel=11, data=[50, 0]),
   midi.NoteOnEvent(tick=0, channel=11, data=[50, 54]),
   midi.NoteOffEvent(tick=480, channel=11, data=[50, 0]),
   midi.NoteOnEvent(tick=0, channel=11, data=[48, 53]),
   midi.NoteOffEvent(tick=480, channel=11, data=[48, 0]),
   midi.NoteOnEvent(tick=0, channel=11, data=[46, 56]),
   midi.NoteOffEvent(tick=480, channel=11, data=[46, 0]),
   midi.NoteOnEvent(tick=0, channel=11, data=[62, 70]),
   midi.NoteOffEvent(tick=480, channel=11, data=[62, 0]),
   midi.NoteOnEvent(tick=0, channel=11, data=[62, 70]),
   midi.NoteOffEvent(tick=480, channel=11, data=[62, 0]),
   midi.NoteOnEvent(tick=0, channel=11, data=[60, 70]),
   midi.NoteOffEvent(tick=480, channel=11, data=[60, 0]),
   midi.NoteOnEvent(tick=0, channel=11, data=[58, 100]),
   midi.NoteOffEvent(tick=480, channel=11, data=[58, 0]),
   midi.NoteOnEvent(tick=0, channel=11, data=[58, 93]),
   midi.NoteOffEvent(tick=480, channel=11, data=[58, 0]),
   midi.NoteOnEvent(tick=0, channel=11, data=[58, 92]),
   midi.NoteOffEvent(tick=480, channel=11, data=[58, 0]),
   midi.NoteOnEvent(tick=0, channel=11, data=[57, 86]),
   midi.NoteOffEvent(tick=480, channel=11, data=[57, 0]),
   midi.NoteOnEvent(tick=0, channel=11, data=[55, 82]),
   midi.NoteOffEvent(tick=480, channel=11, data=[55, 0]),
   midi.NoteOnEvent(tick=0, channel=11, data=[53, 73]),
   midi.NoteOffEvent(tick=480, channel=11, data=[53, 0]),
   midi.NoteOnEvent(tick=0, channel=11, data=[51, 71]),
   midi.NoteOffEvent(tick=480, channel=11, data=[51, 0]),
   midi.NoteOnEvent(tick=0, channel=11, data=[50, 71]),
   midi.NoteOffEvent(tick=480, channel=11, data=[50, 0]),
   midi.NoteOnEvent(tick=0, channel=11, data=[48, 88]),
   midi.NoteOnEvent(tick=0, channel=11, data=[36, 104]),
   midi.NoteOffEvent(tick=480, channel=11, data=[48, 0]),
   midi.NoteOffEvent(tick=0, channel=11, data=[36, 0]),
   midi.NoteOnEvent(tick=0, channel=11, data=[48, 84]),
   midi.NoteOnEvent(tick=0, channel=11, data=[36, 98]),
   midi.NoteOffEvent(tick=480, channel=11, data=[48, 0]),
   midi.NoteOffEvent(tick=0, channel=11, data=[36, 0]),
   midi.NoteOnEvent(tick=0, channel=11, data=[48, 85]),
   midi.NoteOnEvent(tick=0, channel=11, data=[36, 98]),
   midi.NoteOffEvent(tick=480, channel=11, data=[48, 0]),
   midi.NoteOffEvent(tick=0, channel=11, data=[36, 0]),
   midi.NoteOnEvent(tick=0, channel=11, data=[48, 87]),
   midi.NoteOnEvent(tick=0, channel=11, data=[36, 98]),
   midi.NoteOffEvent(tick=480, channel=11, data=[48, 0]),
   midi.NoteOffEvent(tick=0, channel=11, data=[36, 0]),
   midi.NoteOnEvent(tick=0, channel=11, data=[48, 94]),
   midi.NoteOnEvent(tick=0, channel=11, data=[36, 104]),
   midi.NoteOffEvent(tick=480, channel=11, data=[48, 0]),
   midi.NoteOffEvent(tick=0, channel=11, data=[36, 0]),
   midi.NoteOnEvent(tick=0, channel=11, data=[48, 91]),
   midi.NoteOnEvent(tick=0, channel=11, data=[36, 98]),
   midi.NoteOffEvent(tick=480, channel=11, data=[48, 0]),
   midi.NoteOffEvent(tick=0, channel=11, data=[36, 0]),
   midi.NoteOnEvent(tick=0, channel=11, data=[48, 92]),
   midi.NoteOnEvent(tick=0, channel=11, data=[36, 98]),
   midi.NoteOffEvent(tick=480, channel=11, data=[48, 0]),
   midi.NoteOffEvent(tick=0, channel=11, data=[36, 0]),
   midi.NoteOnEvent(tick=0, channel=11, data=[48, 94]),
   midi.NoteOnEvent(tick=0, channel=11, data=[36, 98]),
   midi.NoteOffEvent(tick=480, channel=11, data=[48, 0]),
   midi.NoteOffEvent(tick=0, channel=11, data=[36, 0]),
   midi.NoteOnEvent(tick=0, channel=11, data=[48, 101]),
   midi.NoteOnEvent(tick=0, channel=11, data=[36, 104]),
   midi.NoteOffEvent(tick=960, channel=11, data=[48, 0]),
   midi.NoteOffEvent(tick=0, channel=11, data=[36, 0]),
   midi.NoteOnEvent(tick=1440, channel=11, data=[49, 99]),
   midi.NoteOffEvent(tick=480, channel=11, data=[49, 0]),
   midi.NoteOnEvent(tick=0, channel=11, data=[49, 99]),
   midi.NoteOffEvent(tick=480, channel=11, data=[49, 0]),
   midi.NoteOnEvent(tick=0, channel=11, data=[49, 99]),
   midi.NoteOffEvent(tick=480, channel=11, data=[49, 0]),
   midi.NoteOnEvent(tick=0, channel=11, data=[49, 104]),
   midi.NoteOffEvent(tick=480, channel=11, data=[49, 0]),
   midi.NoteOnEvent(tick=0, channel=11, data=[49, 98]),
   midi.NoteOffEvent(tick=480, channel=11, data=[49, 0]),
   midi.NoteOnEvent(tick=0, channel=11, data=[49, 98]),
   midi.NoteOffEvent(tick=480, channel=11, data=[49, 0]),
   midi.NoteOnEvent(tick=0, channel=11, data=[49, 98]),
   midi.NoteOffEvent(tick=480, channel=11, data=[49, 0]),
   midi.NoteOnEvent(tick=0, channel=11, data=[49, 104]),
   midi.NoteOffEvent(tick=480, channel=11, data=[49, 0]),
   midi.NoteOnEvent(tick=0, channel=11, data=[49, 98]),
   midi.NoteOffEvent(tick=480, channel=11, data=[49, 0]),
   midi.NoteOnEvent(tick=0, channel=11, data=[49, 98]),
   midi.NoteOffEvent(tick=480, channel=11, data=[49, 0]),
   midi.NoteOnEvent(tick=0, channel=11, data=[49, 98]),
   midi.NoteOffEvent(tick=480, channel=11, data=[49, 0]),
   midi.NoteOnEvent(tick=0, channel=11, data=[49, 104]),
   midi.NoteOffEvent(tick=960, channel=11, data=[49, 0]),
   midi.NoteOnEvent(tick=1440, channel=11, data=[50, 100]),
   midi.NoteOffEvent(tick=480, channel=11, data=[50, 0]),
   midi.NoteOnEvent(tick=0, channel=11, data=[50, 99]),
   midi.NoteOffEvent(tick=480, channel=11, data=[50, 0]),
   midi.NoteOnEvent(tick=0, channel=11, data=[50, 99]),
   midi.NoteOffEvent(tick=480, channel=11, data=[50, 0]),
   midi.NoteOnEvent(tick=0, channel=11, data=[50, 105]),
   midi.NoteOffEvent(tick=960, channel=11, data=[50, 0]),
   midi.NoteOnEvent(tick=1920, channel=11, data=[52, 100]),
   midi.NoteOffEvent(tick=480, channel=11, data=[52, 0]),
   midi.NoteOnEvent(tick=0, channel=11, data=[52, 100]),
   midi.NoteOffEvent(tick=480, channel=11, data=[52, 0]),
   midi.NoteOnEvent(tick=0, channel=11, data=[52, 105]),
   midi.NoteOffEvent(tick=960, channel=11, data=[52, 0]),
   midi.NoteOnEvent(tick=0, channel=11, data=[54, 103]),
   midi.NoteOffEvent(tick=480, channel=11, data=[54, 0]),
   midi.NoteOnEvent(tick=0, channel=11, data=[54, 102]),
   midi.NoteOffEvent(tick=480, channel=11, data=[54, 0]),
   midi.NoteOnEvent(tick=0, channel=11, data=[54, 107]),
   midi.NoteOffEvent(tick=960, channel=11, data=[54, 0]),
   midi.NoteOnEvent(tick=5760, channel=11, data=[60, 98]),
   midi.NoteOffEvent(tick=1920, channel=11, data=[60, 0]),
   midi.NoteOnEvent(tick=0, channel=11, data=[57, 96]),
   midi.NoteOffEvent(tick=960, channel=11, data=[57, 0]),
   midi.NoteOnEvent(tick=0, channel=11, data=[54, 99]),
   midi.NoteOffEvent(tick=960, channel=11, data=[54, 0]),
   midi.NoteOnEvent(tick=0, channel=11, data=[50, 90]),
   midi.NoteOffEvent(tick=960, channel=11, data=[50, 0]),
   midi.NoteOnEvent(tick=0, channel=11, data=[48, 96]),
   midi.NoteOffEvent(tick=960, channel=11, data=[48, 0]),
   midi.NoteOnEvent(tick=0, channel=11, data=[45, 90]),
   midi.NoteOffEvent(tick=960, channel=11, data=[45, 0]),
   midi.NoteOnEvent(tick=0, channel=11, data=[42, 96]),
   midi.NoteOffEvent(tick=960, channel=11, data=[42, 0]),
   midi.NoteOnEvent(tick=0, channel=11, data=[38, 89]),
   midi.NoteOffEvent(tick=960, channel=11, data=[38, 0]),
   midi.NoteOnEvent(tick=0, channel=11, data=[43, 103]),
   midi.NoteOffEvent(tick=960, channel=11, data=[43, 0]),
   midi.NoteOnEvent(tick=5760, channel=11, data=[65, 98]),
   midi.NoteOffEvent(tick=1920, channel=11, data=[65, 0]),
   midi.NoteOnEvent(tick=0, channel=11, data=[62, 96]),
   midi.NoteOffEvent(tick=960, channel=11, data=[62, 0]),
   midi.NoteOnEvent(tick=0, channel=11, data=[59, 99]),
   midi.NoteOffEvent(tick=960, channel=11, data=[59, 0]),
   midi.NoteOnEvent(tick=0, channel=11, data=[55, 89]),
   midi.NoteOffEvent(tick=960, channel=11, data=[55, 0]),
   midi.NoteOnEvent(tick=0, channel=11, data=[51, 93]),
   midi.NoteOffEvent(tick=960, channel=11, data=[51, 0]),
   midi.NoteOnEvent(tick=0, channel=11, data=[50, 89]),
   midi.NoteOffEvent(tick=960, channel=11, data=[50, 0]),
   midi.NoteOnEvent(tick=0, channel=11, data=[47, 94]),
   midi.NoteOffEvent(tick=960, channel=11, data=[47, 0]),
   midi.NoteOnEvent(tick=0, channel=11, data=[43, 90]),
   midi.NoteOffEvent(tick=960, channel=11, data=[43, 0]),
   midi.NoteOnEvent(tick=0, channel=11, data=[48, 103]),
   midi.NoteOffEvent(tick=960, channel=11, data=[48, 0]),
   midi.NoteOnEvent(tick=4800, channel=11, data=[43, 103]),
   midi.NoteOffEvent(tick=1920, channel=11, data=[43, 0]),
   midi.NoteOnEvent(tick=0, channel=11, data=[44, 104]),
   midi.NoteOffEvent(tick=1920, channel=11, data=[44, 0]),
   midi.NoteOnEvent(tick=3840, channel=11, data=[43, 104]),
   midi.NoteOffEvent(tick=1920, channel=11, data=[43, 0]),
   midi.NoteOnEvent(tick=0, channel=11, data=[44, 104]),
   midi.NoteOffEvent(tick=1920, channel=11, data=[44, 0]),
   midi.NoteOnEvent(tick=3840, channel=11, data=[46, 104]),
   midi.NoteOffEvent(tick=1920, channel=11, data=[46, 0]),
   midi.NoteOnEvent(tick=0, channel=11, data=[48, 104]),
   midi.NoteOffEvent(tick=1920, channel=11, data=[48, 0]),
   midi.NoteOnEvent(tick=3840, channel=11, data=[49, 104]),
   midi.NoteOffEvent(tick=1920, channel=11, data=[49, 0]),
   midi.NoteOnEvent(tick=1920, channel=11, data=[51, 76]),
   midi.NoteOffEvent(tick=1920, channel=11, data=[51, 0]),
   midi.NoteOnEvent(tick=1920, channel=11, data=[53, 76]),
   midi.NoteOffEvent(tick=1920, channel=11, data=[53, 0]),
   midi.NoteOnEvent(tick=1920, channel=11, data=[42, 64]),
   midi.NoteOffEvent(tick=1920, channel=11, data=[42, 0]),
   midi.NoteOnEvent(tick=1920, channel=11, data=[42, 65]),
   midi.NoteOffEvent(tick=1920, channel=11, data=[42, 0]),
   midi.NoteOnEvent(tick=1920, channel=11, data=[42, 65]),
   midi.NoteOffEvent(tick=1920, channel=11, data=[42, 0]),
   midi.NoteOnEvent(tick=1920, channel=11, data=[42, 42]),
   midi.NoteOffEvent(tick=1920, channel=11, data=[42, 0]),
   midi.NoteOnEvent(tick=1920, channel=11, data=[42, 42]),
   midi.NoteOffEvent(tick=1920, channel=11, data=[42, 0]),
   midi.NoteOnEvent(tick=1920, channel=11, data=[42, 42]),
   midi.NoteOffEvent(tick=1920, channel=11, data=[42, 0]),
   midi.NoteOnEvent(tick=1920, channel=11, data=[42, 120]),
   midi.NoteOffEvent(tick=480, channel=11, data=[42, 0]),
   midi.NoteOnEvent(tick=0, channel=11, data=[50, 120]),
   midi.NoteOffEvent(tick=480, channel=11, data=[50, 0]),
   midi.NoteOnEvent(tick=0, channel=11, data=[50, 119]),
   midi.NoteOffEvent(tick=480, channel=11, data=[50, 0]),
   midi.NoteOnEvent(tick=0, channel=11, data=[50, 118]),
   midi.NoteOffEvent(tick=480, channel=11, data=[50, 0]),
   midi.NoteOnEvent(tick=0, channel=11, data=[47, 117]),
   midi.NoteOffEvent(tick=1920, channel=11, data=[47, 0]),
   midi.NoteOnEvent(tick=0, channel=11, data=[48, 120]),
   midi.NoteOffEvent(tick=1920, channel=11, data=[48, 0]),
   midi.NoteOnEvent(tick=0, channel=11, data=[45, 117]),
   midi.NoteOffEvent(tick=3840, channel=11, data=[45, 0]),
   midi.NoteOnEvent(tick=1920, channel=11, data=[47, 42]),
   midi.NoteOffEvent(tick=1920, channel=11, data=[47, 0]),
   midi.NoteOnEvent(tick=1920, channel=11, data=[47, 42]),
   midi.NoteOffEvent(tick=1920, channel=11, data=[47, 0]),
   midi.NoteOnEvent(tick=1920, channel=11, data=[47, 42]),
   midi.NoteOffEvent(tick=1920, channel=11, data=[47, 0]),
   midi.NoteOnEvent(tick=1920, channel=11, data=[47, 120]),
   midi.NoteOffEvent(tick=480, channel=11, data=[47, 0]),
   midi.NoteOnEvent(tick=0, channel=11, data=[44, 111]),
   midi.NoteOffEvent(tick=480, channel=11, data=[44, 0]),
   midi.NoteOnEvent(tick=0, channel=11, data=[44, 111]),
   midi.NoteOffEvent(tick=480, channel=11, data=[44, 0]),
   midi.NoteOnEvent(tick=0, channel=11, data=[44, 112]),
   midi.NoteOffEvent(tick=480, channel=11, data=[44, 0]),
   midi.NoteOnEvent(tick=0, channel=11, data=[41, 114]),
   midi.NoteOffEvent(tick=2400, channel=11, data=[41, 0]),
   midi.NoteOnEvent(tick=0, channel=11, data=[44, 113]),
   midi.NoteOffEvent(tick=480, channel=11, data=[44, 0]),
   midi.NoteOnEvent(tick=0, channel=11, data=[44, 113]),
   midi.NoteOffEvent(tick=480, channel=11, data=[44, 0]),
   midi.NoteOnEvent(tick=0, channel=11, data=[44, 113]),
   midi.NoteOffEvent(tick=480, channel=11, data=[44, 0]),
   midi.NoteOnEvent(tick=0, channel=11, data=[41, 115]),
   midi.NoteOffEvent(tick=2400, channel=11, data=[41, 0]),
   midi.NoteOnEvent(tick=0, channel=11, data=[44, 114]),
   midi.NoteOffEvent(tick=480, channel=11, data=[44, 0]),
   midi.NoteOnEvent(tick=0, channel=11, data=[44, 114]),
   midi.NoteOffEvent(tick=480, channel=11, data=[44, 0]),
   midi.NoteOnEvent(tick=0, channel=11, data=[44, 114]),
   midi.NoteOffEvent(tick=480, channel=11, data=[44, 0]),
   midi.NoteOnEvent(tick=0, channel=11, data=[41, 115]),
   midi.NoteOffEvent(tick=480, channel=11, data=[41, 0]),
   midi.NoteOnEvent(tick=0, channel=11, data=[44, 115]),
   midi.NoteOffEvent(tick=480, channel=11, data=[44, 0]),
   midi.NoteOnEvent(tick=0, channel=11, data=[44, 115]),
   midi.NoteOffEvent(tick=480, channel=11, data=[44, 0]),
   midi.NoteOnEvent(tick=0, channel=11, data=[44, 114]),
   midi.NoteOffEvent(tick=480, channel=11, data=[44, 0]),
   midi.NoteOnEvent(tick=0, channel=11, data=[41, 114]),
   midi.NoteOffEvent(tick=480, channel=11, data=[41, 0]),
   midi.NoteOnEvent(tick=0, channel=11, data=[44, 115]),
   midi.NoteOffEvent(tick=480, channel=11, data=[44, 0]),
   midi.NoteOnEvent(tick=0, channel=11, data=[44, 115]),
   midi.NoteOffEvent(tick=480, channel=11, data=[44, 0]),
   midi.NoteOnEvent(tick=0, channel=11, data=[44, 115]),
   midi.NoteOffEvent(tick=480, channel=11, data=[44, 0]),
   midi.NoteOnEvent(tick=0, channel=11, data=[41, 113]),
   midi.NoteOffEvent(tick=480, channel=11, data=[41, 0]),
   midi.NoteOnEvent(tick=0, channel=11, data=[44, 116]),
   midi.NoteOffEvent(tick=480, channel=11, data=[44, 0]),
   midi.NoteOnEvent(tick=0, channel=11, data=[44, 115]),
   midi.NoteOffEvent(tick=480, channel=11, data=[44, 0]),
   midi.NoteOnEvent(tick=0, channel=11, data=[44, 115]),
   midi.NoteOffEvent(tick=480, channel=11, data=[44, 0]),
   midi.NoteOnEvent(tick=0, channel=11, data=[41, 113]),
   midi.NoteOffEvent(tick=480, channel=11, data=[41, 0]),
   midi.NoteOnEvent(tick=0, channel=11, data=[43, 113]),
   midi.NoteOffEvent(tick=480, channel=11, data=[43, 0]),
   midi.NoteOnEvent(tick=0, channel=11, data=[43, 113]),
   midi.NoteOffEvent(tick=480, channel=11, data=[43, 0]),
   midi.NoteOnEvent(tick=0, channel=11, data=[43, 113]),
   midi.NoteOffEvent(tick=480, channel=11, data=[43, 0]),
   midi.NoteOnEvent(tick=0, channel=11, data=[39, 114]),
   midi.NoteOffEvent(tick=3840, channel=11, data=[39, 0]),
   midi.NoteOnEvent(tick=2400, channel=11, data=[41, 113]),
   midi.NoteOffEvent(tick=480, channel=11, data=[41, 0]),
   midi.NoteOnEvent(tick=0, channel=11, data=[41, 113]),
   midi.NoteOffEvent(tick=480, channel=11, data=[41, 0]),
   midi.NoteOnEvent(tick=0, channel=11, data=[41, 113]),
   midi.NoteOffEvent(tick=480, channel=11, data=[41, 0]),
   midi.NoteOnEvent(tick=0, channel=11, data=[38, 117]),
   midi.NoteOffEvent(tick=5760, channel=11, data=[38, 0]),
   midi.NoteOnEvent(tick=3840, channel=11, data=[48, 65]),
   midi.NoteOffEvent(tick=480, channel=11, data=[48, 0]),
   midi.NoteOnEvent(tick=3360, channel=11, data=[48, 65]),
   midi.NoteOffEvent(tick=480, channel=11, data=[48, 0]),
   midi.NoteOnEvent(tick=3360, channel=11, data=[47, 65]),
   midi.NoteOffEvent(tick=480, channel=11, data=[47, 0]),
   midi.NoteOnEvent(tick=3360, channel=11, data=[47, 65]),
   midi.NoteOffEvent(tick=480, channel=11, data=[47, 0]),
   midi.NoteOnEvent(tick=3360, channel=11, data=[48, 65]),
   midi.NoteOffEvent(tick=480, channel=11, data=[48, 0]),
   midi.NoteOnEvent(tick=1440, channel=11, data=[47, 65]),
   midi.NoteOffEvent(tick=480, channel=11, data=[47, 0]),
   midi.NoteOnEvent(tick=1440, channel=11, data=[48, 65]),
   midi.NoteOffEvent(tick=480, channel=11, data=[48, 0]),
   midi.NoteOnEvent(tick=1440, channel=11, data=[43, 64]),
   midi.NoteOffEvent(tick=480, channel=11, data=[43, 0]),
   midi.NoteOnEvent(tick=1440, channel=11, data=[48, 76]),
   midi.NoteOffEvent(tick=480, channel=11, data=[48, 0]),
   midi.NoteOnEvent(tick=1440, channel=11, data=[44, 88]),
   midi.NoteOffEvent(tick=480, channel=11, data=[44, 0]),
   midi.NoteOnEvent(tick=1440, channel=11, data=[43, 120]),
   midi.NoteOffEvent(tick=960, channel=11, data=[43, 0]),
   midi.NoteOnEvent(tick=16800, channel=11, data=[43, 61]),
   midi.NoteOffEvent(tick=480, channel=11, data=[43, 0]),
   midi.NoteOnEvent(tick=0, channel=11, data=[43, 61]),
   midi.NoteOffEvent(tick=480, channel=11, data=[43, 0]),
   midi.NoteOnEvent(tick=0, channel=11, data=[43, 61]),
   midi.NoteOffEvent(tick=480, channel=11, data=[43, 0]),
   midi.NoteOnEvent(tick=0, channel=11, data=[48, 70]),
   midi.NoteOffEvent(tick=480, channel=11, data=[48, 0]),
   midi.NoteOnEvent(tick=0, channel=11, data=[56, 70]),
   midi.NoteOffEvent(tick=480, channel=11, data=[56, 0]),
   midi.NoteOnEvent(tick=0, channel=11, data=[56, 70]),
   midi.NoteOffEvent(tick=480, channel=11, data=[56, 0]),
   midi.NoteOnEvent(tick=0, channel=11, data=[56, 70]),
   midi.NoteOffEvent(tick=480, channel=11, data=[56, 0]),
   midi.NoteOnEvent(tick=0, channel=11, data=[53, 70]),
   midi.NoteOffEvent(tick=480, channel=11, data=[53, 0]),
   midi.NoteOnEvent(tick=0, channel=11, data=[50, 58]),
   midi.NoteOffEvent(tick=480, channel=11, data=[50, 0]),
   midi.NoteOnEvent(tick=0, channel=11, data=[50, 58]),
   midi.NoteOffEvent(tick=480, channel=11, data=[50, 0]),
   midi.NoteOnEvent(tick=0, channel=11, data=[50, 59]),
   midi.NoteOffEvent(tick=480, channel=11, data=[50, 0]),
   midi.NoteOnEvent(tick=0, channel=11, data=[47, 79]),
   midi.NoteOffEvent(tick=480, channel=11, data=[47, 0]),
   midi.NoteOnEvent(tick=0, channel=11, data=[44, 73]),
   midi.NoteOffEvent(tick=480, channel=11, data=[44, 0]),
   midi.NoteOnEvent(tick=0, channel=11, data=[44, 74]),
   midi.NoteOffEvent(tick=480, channel=11, data=[44, 0]),
   midi.NoteOnEvent(tick=0, channel=11, data=[44, 75]),
   midi.NoteOffEvent(tick=480, channel=11, data=[44, 0]),
   midi.NoteOnEvent(tick=0, channel=11, data=[43, 79]),
   midi.NoteOffEvent(tick=480, channel=11, data=[43, 0]),
   midi.NoteOnEvent(tick=0, channel=11, data=[55, 96]),
   midi.NoteOffEvent(tick=480, channel=11, data=[55, 0]),
   midi.NoteOnEvent(tick=0, channel=11, data=[55, 96]),
   midi.NoteOffEvent(tick=480, channel=11, data=[55, 0]),
   midi.NoteOnEvent(tick=0, channel=11, data=[55, 96]),
   midi.NoteOffEvent(tick=480, channel=11, data=[55, 0]),
   midi.NoteOnEvent(tick=0, channel=11, data=[48, 96]),
   midi.NoteOffEvent(tick=480, channel=11, data=[48, 0]),
   midi.NoteOnEvent(tick=0, channel=11, data=[48, 92]),
   midi.NoteOffEvent(tick=480, channel=11, data=[48, 0]),
   midi.NoteOnEvent(tick=0, channel=11, data=[48, 93]),
   midi.NoteOffEvent(tick=480, channel=11, data=[48, 0]),
   midi.NoteOnEvent(tick=0, channel=11, data=[48, 94]),
   midi.NoteOffEvent(tick=480, channel=11, data=[48, 0]),
   midi.NoteOnEvent(tick=0, channel=11, data=[48, 100]),
   midi.NoteOffEvent(tick=2400, channel=11, data=[48, 0]),
   midi.NoteOnEvent(tick=0, channel=11, data=[48, 96]),
   midi.NoteOffEvent(tick=480, channel=11, data=[48, 0]),
   midi.NoteOnEvent(tick=0, channel=11, data=[48, 97]),
   midi.NoteOffEvent(tick=480, channel=11, data=[48, 0]),
   midi.NoteOnEvent(tick=0, channel=11, data=[48, 97]),
   midi.NoteOffEvent(tick=480, channel=11, data=[48, 0]),
   midi.NoteOnEvent(tick=0, channel=11, data=[48, 103]),
   midi.NoteOffEvent(tick=2400, channel=11, data=[48, 0]),
   midi.NoteOnEvent(tick=0, channel=11, data=[48, 98]),
   midi.NoteOffEvent(tick=480, channel=11, data=[48, 0]),
   midi.NoteOnEvent(tick=0, channel=11, data=[48, 98]),
   midi.NoteOffEvent(tick=480, channel=11, data=[48, 0]),
   midi.NoteOnEvent(tick=0, channel=11, data=[48, 98]),
   midi.NoteOffEvent(tick=480, channel=11, data=[48, 0]),
   midi.NoteOnEvent(tick=0, channel=11, data=[48, 104]),
   midi.NoteOffEvent(tick=960, channel=11, data=[48, 0]),
   midi.NoteOnEvent(tick=960, channel=11, data=[48, 104]),
   midi.NoteOffEvent(tick=960, channel=11, data=[48, 0]),
   midi.NoteOnEvent(tick=960, channel=11, data=[48, 104]),
   midi.NoteOffEvent(tick=960, channel=11, data=[48, 0]),
   midi.NoteOnEvent(tick=960, channel=11, data=[48, 104]),
   midi.NoteOffEvent(tick=960, channel=11, data=[48, 0]),
   midi.NoteOnEvent(tick=960, channel=11, data=[48, 104]),
   midi.NoteOffEvent(tick=960, channel=11, data=[48, 0]),
   midi.NoteOnEvent(tick=960, channel=11, data=[48, 104]),
   midi.NoteOffEvent(tick=960, channel=11, data=[48, 0]),
   midi.NoteOnEvent(tick=960, channel=11, data=[48, 104]),
   midi.NoteOffEvent(tick=6240, channel=11, data=[48, 0]),
   midi.NoteOnEvent(tick=0, channel=11, data=[48, 98]),
   midi.NoteOffEvent(tick=480, channel=11, data=[48, 0]),
   midi.NoteOnEvent(tick=0, channel=11, data=[48, 98]),
   midi.NoteOffEvent(tick=480, channel=11, data=[48, 0]),
   midi.NoteOnEvent(tick=0, channel=11, data=[48, 98]),
   midi.NoteOffEvent(tick=480, channel=11, data=[48, 0]),
   midi.NoteOnEvent(tick=0, channel=11, data=[43, 98]),
   midi.NoteOffEvent(tick=6240, channel=11, data=[43, 0]),
   midi.NoteOnEvent(tick=0, channel=11, data=[43, 98]),
   midi.NoteOffEvent(tick=480, channel=11, data=[43, 0]),
   midi.NoteOnEvent(tick=0, channel=11, data=[48, 101]),
   midi.NoteOffEvent(tick=480, channel=11, data=[48, 0]),
   midi.NoteOnEvent(tick=0, channel=11, data=[48, 100]),
   midi.NoteOffEvent(tick=480, channel=11, data=[48, 0]),
   midi.NoteOnEvent(tick=0, channel=11, data=[48, 123]),
   midi.NoteOffEvent(tick=480, channel=11, data=[48, 0]),
   midi.NoteOnEvent(tick=0, channel=11, data=[63, 127]),
   midi.NoteOffEvent(tick=480, channel=11, data=[63, 0]),
   midi.NoteOnEvent(tick=0, channel=11, data=[63, 127]),
   midi.NoteOffEvent(tick=480, channel=11, data=[63, 0]),
   midi.NoteOnEvent(tick=0, channel=11, data=[63, 127]),
   midi.NoteOffEvent(tick=480, channel=11, data=[63, 0]),
   midi.NoteOnEvent(tick=0, channel=11, data=[60, 127]),
   midi.NoteOffEvent(tick=480, channel=11, data=[60, 0]),
   midi.NoteOnEvent(tick=0, channel=11, data=[57, 114]),
   midi.NoteOffEvent(tick=480, channel=11, data=[57, 0]),
   midi.NoteOnEvent(tick=0, channel=11, data=[57, 113]),
   midi.NoteOffEvent(tick=480, channel=11, data=[57, 0]),
   midi.NoteOnEvent(tick=0, channel=11, data=[57, 112]),
   midi.NoteOffEvent(tick=480, channel=11, data=[57, 0]),
   midi.NoteOnEvent(tick=0, channel=11, data=[54, 105]),
   midi.NoteOffEvent(tick=480, channel=11, data=[54, 0]),
   midi.NoteOnEvent(tick=0, channel=11, data=[51, 96]),
   midi.NoteOffEvent(tick=480, channel=11, data=[51, 0]),
   midi.NoteOnEvent(tick=0, channel=11, data=[51, 96]),
   midi.NoteOffEvent(tick=480, channel=11, data=[51, 0]),
   midi.NoteOnEvent(tick=0, channel=11, data=[51, 98]),
   midi.NoteOffEvent(tick=480, channel=11, data=[51, 0]),
   midi.NoteOnEvent(tick=0, channel=11, data=[48, 102]),
   midi.NoteOffEvent(tick=480, channel=11, data=[48, 0]),
   midi.NoteOnEvent(tick=0, channel=11, data=[45, 96]),
   midi.NoteOffEvent(tick=480, channel=11, data=[45, 0]),
   midi.NoteOnEvent(tick=0, channel=11, data=[45, 97]),
   midi.NoteOffEvent(tick=480, channel=11, data=[45, 0]),
   midi.NoteOnEvent(tick=0, channel=11, data=[45, 99]),
   midi.NoteOffEvent(tick=480, channel=11, data=[45, 0]),
   midi.NoteOnEvent(tick=0, channel=11, data=[48, 114]),
   midi.NoteOffEvent(tick=960, channel=11, data=[48, 0]),
   midi.NoteOnEvent(tick=2880, channel=11, data=[47, 120]),
   midi.NoteOffEvent(tick=960, channel=11, data=[47, 0]),
   midi.NoteOnEvent(tick=12960, channel=11, data=[43, 61]),
   midi.NoteOffEvent(tick=480, channel=11, data=[43, 0]),
   midi.NoteOnEvent(tick=0, channel=11, data=[43, 61]),
   midi.NoteOffEvent(tick=480, channel=11, data=[43, 0]),
   midi.NoteOnEvent(tick=0, channel=11, data=[43, 61]),
   midi.NoteOffEvent(tick=480, channel=11, data=[43, 0]),
   midi.NoteOnEvent(tick=0, channel=11, data=[48, 70]),
   midi.NoteOffEvent(tick=960, channel=11, data=[48, 0]),
   midi.NoteOnEvent(tick=12960, channel=11, data=[43, 61]),
   midi.NoteOffEvent(tick=480, channel=11, data=[43, 0]),
   midi.NoteOnEvent(tick=0, channel=11, data=[43, 61]),
   midi.NoteOffEvent(tick=480, channel=11, data=[43, 0]),
   midi.NoteOnEvent(tick=0, channel=11, data=[43, 61]),
   midi.NoteOffEvent(tick=480, channel=11, data=[43, 0]),
   midi.NoteOnEvent(tick=0, channel=11, data=[48, 70]),
   midi.NoteOffEvent(tick=960, channel=11, data=[48, 0]),
   midi.NoteOnEvent(tick=12960, channel=11, data=[48, 61]),
   midi.NoteOffEvent(tick=480, channel=11, data=[48, 0]),
   midi.NoteOnEvent(tick=0, channel=11, data=[48, 61]),
   midi.NoteOffEvent(tick=480, channel=11, data=[48, 0]),
   midi.NoteOnEvent(tick=0, channel=11, data=[48, 61]),
   midi.NoteOffEvent(tick=480, channel=11, data=[48, 0]),
   midi.NoteOnEvent(tick=0, channel=11, data=[53, 71]),
   midi.NoteOffEvent(tick=960, channel=11, data=[53, 0]),
   midi.NoteOnEvent(tick=5280, channel=11, data=[50, 61]),
   midi.NoteOffEvent(tick=480, channel=11, data=[50, 0]),
   midi.NoteOnEvent(tick=0, channel=11, data=[50, 61]),
   midi.NoteOffEvent(tick=480, channel=11, data=[50, 0]),
   midi.NoteOnEvent(tick=0, channel=11, data=[50, 61]),
   midi.NoteOffEvent(tick=480, channel=11, data=[50, 0]),
   midi.NoteOnEvent(tick=0, channel=11, data=[55, 71]),
   midi.NoteOffEvent(tick=960, channel=11, data=[55, 0]),
   midi.NoteOnEvent(tick=960, channel=11, data=[65, 74]),
   midi.NoteOnEvent(tick=960, channel=11, data=[67, 69]),
   midi.NoteOffEvent(tick=19, channel=11, data=[65, 0]),
   midi.NoteOffEvent(tick=892, channel=11, data=[67, 0]),
   midi.NoteOnEvent(tick=49, channel=11, data=[68, 84]),
   midi.NoteOffEvent(tick=960, channel=11, data=[68, 0]),
   midi.NoteOnEvent(tick=0, channel=11, data=[67, 75]),
   midi.NoteOffEvent(tick=960, channel=11, data=[67, 0]),
   midi.NoteOnEvent(tick=0, channel=11, data=[65, 74]),
   midi.NoteOffEvent(tick=960, channel=11, data=[65, 0]),
   midi.NoteOnEvent(tick=0, channel=11, data=[67, 73]),
   midi.NoteOffEvent(tick=960, channel=11, data=[67, 0]),
   midi.NoteOnEvent(tick=0, channel=11, data=[68, 78]),
   midi.NoteOnEvent(tick=960, channel=11, data=[67, 71]),
   midi.NoteOffEvent(tick=19, channel=11, data=[68, 0]),
   midi.NoteOffEvent(tick=892, channel=11, data=[67, 0]),
   midi.NoteOnEvent(tick=49, channel=11, data=[65, 72]),
   midi.NoteOffEvent(tick=960, channel=11, data=[65, 0]),
   midi.NoteOnEvent(tick=0, channel=11, data=[67, 72]),
   midi.NoteOffEvent(tick=960, channel=11, data=[67, 0]),
   midi.NoteOnEvent(tick=0, channel=11, data=[68, 92]),
   midi.NoteOnEvent(tick=960, channel=11, data=[67, 84]),
   midi.NoteOffEvent(tick=19, channel=11, data=[68, 0]),
   midi.NoteOffEvent(tick=892, channel=11, data=[67, 0]),
   midi.NoteOnEvent(tick=49, channel=11, data=[65, 85]),
   midi.NoteOffEvent(tick=960, channel=11, data=[65, 0]),
   midi.NoteOnEvent(tick=0, channel=11, data=[67, 85]),
   midi.NoteOffEvent(tick=960, channel=11, data=[67, 0]),
   midi.NoteOnEvent(tick=0, channel=11, data=[68, 92]),
   midi.NoteOnEvent(tick=960, channel=11, data=[67, 84]),
   midi.NoteOffEvent(tick=19, channel=11, data=[68, 0]),
   midi.NoteOffEvent(tick=892, channel=11, data=[67, 0]),
   midi.NoteOnEvent(tick=49, channel=11, data=[66, 87]),
   midi.NoteOffEvent(tick=960, channel=11, data=[66, 0]),
   midi.NoteOnEvent(tick=0, channel=11, data=[67, 84]),
   midi.NoteOffEvent(tick=960, channel=11, data=[67, 0]),
   midi.NoteOnEvent(tick=0, channel=11, data=[69, 93]),
   midi.NoteOnEvent(tick=960, channel=11, data=[67, 83]),
   midi.NoteOffEvent(tick=19, channel=11, data=[69, 0]),
   midi.NoteOffEvent(tick=892, channel=11, data=[67, 0]),
   midi.NoteOnEvent(tick=49, channel=11, data=[66, 86]),
   midi.NoteOffEvent(tick=960, channel=11, data=[66, 0]),
   midi.NoteOnEvent(tick=0, channel=11, data=[67, 84]),
   midi.NoteOffEvent(tick=960, channel=11, data=[67, 0]),
   midi.NoteOnEvent(tick=0, channel=11, data=[69, 108]),
   midi.NoteOnEvent(tick=960, channel=11, data=[67, 96]),
   midi.NoteOffEvent(tick=19, channel=11, data=[69, 0]),
   midi.NoteOffEvent(tick=892, channel=11, data=[67, 0]),
   midi.NoteOnEvent(tick=49, channel=11, data=[66, 100]),
   midi.NoteOffEvent(tick=960, channel=11, data=[66, 0]),
   midi.NoteOnEvent(tick=0, channel=11, data=[67, 98]),
   midi.NoteOffEvent(tick=960, channel=11, data=[67, 0]),
   midi.NoteOnEvent(tick=0, channel=11, data=[66, 101]),
   midi.NoteOffEvent(tick=960, channel=11, data=[66, 0]),
   midi.NoteOnEvent(tick=0, channel=11, data=[67, 99]),
   midi.NoteOffEvent(tick=960, channel=11, data=[67, 0]),
   midi.NoteOnEvent(tick=0, channel=11, data=[66, 102]),
   midi.NoteOffEvent(tick=960, channel=11, data=[66, 0]),
   midi.NoteOnEvent(tick=0, channel=11, data=[67, 99]),
   midi.NoteOffEvent(tick=960, channel=11, data=[67, 0]),
   midi.NoteOnEvent(tick=0, channel=11, data=[62, 108]),
   midi.NoteOffEvent(tick=2880, channel=11, data=[62, 0]),
   midi.NoteOnEvent(tick=0, channel=11, data=[59, 106]),
   midi.NoteOffEvent(tick=960, channel=11, data=[59, 0]),
   midi.NoteOnEvent(tick=0, channel=11, data=[60, 117]),
   midi.NoteOffEvent(tick=960, channel=11, data=[60, 0]),
   midi.NoteOnEvent(tick=960, channel=11, data=[62, 122]),
   midi.NoteOffEvent(tick=960, channel=11, data=[62, 0]),
   midi.NoteOnEvent(tick=960, channel=11, data=[64, 124]),
   midi.NoteOffEvent(tick=960, channel=11, data=[64, 0]),
   midi.NoteOnEvent(tick=960, channel=11, data=[65, 122]),
   midi.NoteOffEvent(tick=960, channel=11, data=[65, 0]),
   midi.NoteOnEvent(tick=960, channel=11, data=[67, 123]),
   midi.NoteOffEvent(tick=960, channel=11, data=[67, 0]),
   midi.NoteOnEvent(tick=960, channel=11, data=[55, 108]),
   midi.NoteOffEvent(tick=960, channel=11, data=[55, 0]),
   midi.NoteOnEvent(tick=960, channel=11, data=[47, 113]),
   midi.NoteOffEvent(tick=960, channel=11, data=[47, 0]),
   midi.NoteOnEvent(tick=0, channel=11, data=[50, 111]),
   midi.NoteOffEvent(tick=960, channel=11, data=[50, 0]),
   midi.NoteOnEvent(tick=0, channel=11, data=[47, 115]),
   midi.NoteOffEvent(tick=960, channel=11, data=[47, 0]),
   midi.NoteOnEvent(tick=0, channel=11, data=[50, 115]),
   midi.NoteOffEvent(tick=960, channel=11, data=[50, 0]),
   midi.NoteOnEvent(tick=0, channel=11, data=[48, 118]),
   midi.NoteOffEvent(tick=960, channel=11, data=[48, 0]),
   midi.NoteOnEvent(tick=0, channel=11, data=[52, 120]),
   midi.NoteOffEvent(tick=960, channel=11, data=[52, 0]),
   midi.NoteOnEvent(tick=0, channel=11, data=[50, 121]),
   midi.NoteOffEvent(tick=960, channel=11, data=[50, 0]),
   midi.NoteOnEvent(tick=0, channel=11, data=[53, 120]),
   midi.NoteOffEvent(tick=960, channel=11, data=[53, 0]),
   midi.NoteOnEvent(tick=0, channel=11, data=[52, 122]),
   midi.NoteOffEvent(tick=960, channel=11, data=[52, 0]),
   midi.NoteOnEvent(tick=0, channel=11, data=[55, 122]),
   midi.NoteOffEvent(tick=960, channel=11, data=[55, 0]),
   midi.NoteOnEvent(tick=0, channel=11, data=[53, 121]),
   midi.NoteOffEvent(tick=960, channel=11, data=[53, 0]),
   midi.NoteOnEvent(tick=0, channel=11, data=[57, 124]),
   midi.NoteOffEvent(tick=960, channel=11, data=[57, 0]),
   midi.NoteOnEvent(tick=0, channel=11, data=[55, 122]),
   midi.NoteOffEvent(tick=960, channel=11, data=[55, 0]),
   midi.NoteOnEvent(tick=0, channel=11, data=[43, 100]),
   midi.NoteOffEvent(tick=960, channel=11, data=[43, 0]),
   midi.NoteOnEvent(tick=0, channel=11, data=[55, 127]),
   midi.NoteOffEvent(tick=960, channel=11, data=[55, 0]),
   midi.NoteOnEvent(tick=0, channel=11, data=[43, 102]),
   midi.NoteOffEvent(tick=960, channel=11, data=[43, 0]),
   midi.NoteOnEvent(tick=0, channel=11, data=[48, 118]),
   midi.NoteOffEvent(tick=6240, channel=11, data=[48, 0]),
   midi.NoteOnEvent(tick=0, channel=11, data=[43, 113]),
   midi.NoteOffEvent(tick=480, channel=11, data=[43, 0]),
   midi.NoteOnEvent(tick=0, channel=11, data=[43, 113]),
   midi.NoteOffEvent(tick=480, channel=11, data=[43, 0]),
   midi.NoteOnEvent(tick=0, channel=11, data=[43, 113]),
   midi.NoteOffEvent(tick=480, channel=11, data=[43, 0]),
   midi.NoteOnEvent(tick=0, channel=11, data=[48, 127]),
   midi.NoteOffEvent(tick=6240, channel=11, data=[48, 0]),
   midi.NoteOnEvent(tick=0, channel=11, data=[43, 113]),
   midi.NoteOffEvent(tick=480, channel=11, data=[43, 0]),
   midi.NoteOnEvent(tick=0, channel=11, data=[43, 113]),
   midi.NoteOffEvent(tick=480, channel=11, data=[43, 0]),
   midi.NoteOnEvent(tick=0, channel=11, data=[43, 113]),
   midi.NoteOffEvent(tick=480, channel=11, data=[43, 0]),
   midi.NoteOnEvent(tick=0, channel=11, data=[48, 127]),
   midi.NoteOffEvent(tick=960, channel=11, data=[48, 0]),
   midi.NoteOnEvent(tick=1440, channel=11, data=[43, 112]),
   midi.NoteOffEvent(tick=480, channel=11, data=[43, 0]),
   midi.NoteOnEvent(tick=0, channel=11, data=[43, 112]),
   midi.NoteOffEvent(tick=480, channel=11, data=[43, 0]),
   midi.NoteOnEvent(tick=0, channel=11, data=[43, 112]),
   midi.NoteOffEvent(tick=480, channel=11, data=[43, 0]),
   midi.NoteOnEvent(tick=0, channel=11, data=[48, 127]),
   midi.NoteOffEvent(tick=960, channel=11, data=[48, 0]),
   midi.NoteOnEvent(tick=1440, channel=11, data=[43, 112]),
   midi.NoteOffEvent(tick=480, channel=11, data=[43, 0]),
   midi.NoteOnEvent(tick=0, channel=11, data=[43, 112]),
   midi.NoteOffEvent(tick=480, channel=11, data=[43, 0]),
   midi.NoteOnEvent(tick=0, channel=11, data=[43, 112]),
   midi.NoteOffEvent(tick=480, channel=11, data=[43, 0]),
   midi.NoteOnEvent(tick=0, channel=11, data=[48, 114]),
   midi.NoteOffEvent(tick=2400, channel=11, data=[48, 0]),
   midi.NoteOnEvent(tick=0, channel=11, data=[48, 102]),
   midi.NoteOffEvent(tick=480, channel=11, data=[48, 0]),
   midi.NoteOnEvent(tick=0, channel=11, data=[48, 101]),
   midi.NoteOffEvent(tick=480, channel=11, data=[48, 0]),
   midi.NoteOnEvent(tick=0, channel=11, data=[48, 100]),
   midi.NoteOffEvent(tick=480, channel=11, data=[48, 0]),
   midi.NoteOnEvent(tick=0, channel=11, data=[44, 99]),
   midi.NoteOffEvent(tick=2400, channel=11, data=[44, 0]),
   midi.NoteOnEvent(tick=0, channel=11, data=[44, 96]),
   midi.NoteOffEvent(tick=480, channel=11, data=[44, 0]),
   midi.NoteOnEvent(tick=0, channel=11, data=[44, 96]),
   midi.NoteOffEvent(tick=480, channel=11, data=[44, 0]),
   midi.NoteOnEvent(tick=0, channel=11, data=[44, 96]),
   midi.NoteOffEvent(tick=480, channel=11, data=[44, 0]),
   midi.NoteOnEvent(tick=0, channel=11, data=[52, 119]),
   midi.NoteOffEvent(tick=2400, channel=11, data=[52, 0]),
   midi.NoteOnEvent(tick=0, channel=11, data=[52, 105]),
   midi.NoteOffEvent(tick=480, channel=11, data=[52, 0]),
   midi.NoteOnEvent(tick=0, channel=11, data=[52, 104]),
   midi.NoteOffEvent(tick=480, channel=11, data=[52, 0]),
   midi.NoteOnEvent(tick=0, channel=11, data=[52, 103]),
   midi.NoteOffEvent(tick=480, channel=11, data=[52, 0]),
   midi.NoteOnEvent(tick=0, channel=11, data=[53, 111]),
   midi.NoteOffEvent(tick=2400, channel=11, data=[53, 0]),
   midi.NoteOnEvent(tick=0, channel=11, data=[53, 99]),
   midi.NoteOffEvent(tick=480, channel=11, data=[53, 0]),
   midi.NoteOnEvent(tick=0, channel=11, data=[53, 99]),
   midi.NoteOffEvent(tick=480, channel=11, data=[53, 0]),
   midi.NoteOnEvent(tick=0, channel=11, data=[53, 99]),
   midi.NoteOffEvent(tick=480, channel=11, data=[53, 0]),
   midi.NoteOnEvent(tick=0, channel=11, data=[41, 103]),
   midi.NoteOffEvent(tick=480, channel=11, data=[41, 0]),
   midi.NoteOnEvent(tick=0, channel=11, data=[53, 123]),
   midi.NoteOffEvent(tick=480, channel=11, data=[53, 0]),
   midi.NoteOnEvent(tick=0, channel=11, data=[53, 122]),
   midi.NoteOffEvent(tick=480, channel=11, data=[53, 0]),
   midi.NoteOnEvent(tick=0, channel=11, data=[53, 121]),
   midi.NoteOffEvent(tick=480, channel=11, data=[53, 0]),
   midi.NoteOnEvent(tick=0, channel=11, data=[53, 127]),
   midi.NoteOffEvent(tick=480, channel=11, data=[53, 0]),
   midi.NoteOnEvent(tick=0, channel=11, data=[53, 119]),
   midi.NoteOffEvent(tick=480, channel=11, data=[53, 0]),
   midi.NoteOnEvent(tick=0, channel=11, data=[53, 118]),
   midi.NoteOffEvent(tick=480, channel=11, data=[53, 0]),
   midi.NoteOnEvent(tick=0, channel=11, data=[53, 117]),
   midi.NoteOffEvent(tick=480, channel=11, data=[53, 0]),
   midi.NoteOnEvent(tick=0, channel=11, data=[53, 123]),
   midi.NoteOffEvent(tick=480, channel=11, data=[53, 0]),
   midi.NoteOnEvent(tick=0, channel=11, data=[53, 116]),
   midi.NoteOffEvent(tick=480, channel=11, data=[53, 0]),
   midi.NoteOnEvent(tick=0, channel=11, data=[53, 115]),
   midi.NoteOffEvent(tick=480, channel=11, data=[53, 0]),
   midi.NoteOnEvent(tick=0, channel=11, data=[53, 115]),
   midi.NoteOffEvent(tick=480, channel=11, data=[53, 0]),
   midi.NoteOnEvent(tick=0, channel=11, data=[53, 121]),
   midi.NoteOffEvent(tick=480, channel=11, data=[53, 0]),
   midi.NoteOnEvent(tick=0, channel=11, data=[53, 114]),
   midi.NoteOffEvent(tick=480, channel=11, data=[53, 0]),
   midi.NoteOnEvent(tick=0, channel=11, data=[53, 114]),
   midi.NoteOffEvent(tick=480, channel=11, data=[53, 0]),
   midi.NoteOnEvent(tick=0, channel=11, data=[53, 113]),
   midi.NoteOffEvent(tick=480, channel=11, data=[53, 0]),
   midi.NoteOnEvent(tick=0, channel=11, data=[53, 120]),
   midi.NoteOffEvent(tick=960, channel=11, data=[53, 0]),
   midi.NoteOnEvent(tick=7200, channel=11, data=[42, 113]),
   midi.NoteOffEvent(tick=480, channel=11, data=[42, 0]),
   midi.NoteOnEvent(tick=0, channel=11, data=[42, 113]),
   midi.NoteOffEvent(tick=480, channel=11, data=[42, 0]),
   midi.NoteOnEvent(tick=0, channel=11, data=[42, 113]),
   midi.NoteOffEvent(tick=480, channel=11, data=[42, 0]),
   midi.NoteOnEvent(tick=0, channel=11, data=[42, 120]),
   midi.NoteOffEvent(tick=480, channel=11, data=[42, 0]),
   midi.NoteOnEvent(tick=0, channel=11, data=[54, 127]),
   midi.NoteOffEvent(tick=480, channel=11, data=[54, 0]),
   midi.NoteOnEvent(tick=0, channel=11, data=[54, 127]),
   midi.NoteOffEvent(tick=480, channel=11, data=[54, 0]),
   midi.NoteOnEvent(tick=0, channel=11, data=[54, 127]),
   midi.NoteOffEvent(tick=480, channel=11, data=[54, 0]),
   midi.NoteOnEvent(tick=0, channel=11, data=[54, 127]),
   midi.NoteOffEvent(tick=480, channel=11, data=[54, 0]),
   midi.NoteOnEvent(tick=0, channel=11, data=[54, 127]),
   midi.NoteOffEvent(tick=480, channel=11, data=[54, 0]),
   midi.NoteOnEvent(tick=0, channel=11, data=[54, 127]),
   midi.NoteOffEvent(tick=480, channel=11, data=[54, 0]),
   midi.NoteOnEvent(tick=0, channel=11, data=[54, 125]),
   midi.NoteOffEvent(tick=480, channel=11, data=[54, 0]),
   midi.NoteOnEvent(tick=0, channel=11, data=[54, 127]),
   midi.NoteOffEvent(tick=480, channel=11, data=[54, 0]),
   midi.NoteOnEvent(tick=0, channel=11, data=[54, 121]),
   midi.NoteOffEvent(tick=480, channel=11, data=[54, 0]),
   midi.NoteOnEvent(tick=0, channel=11, data=[54, 119]),
   midi.NoteOffEvent(tick=480, channel=11, data=[54, 0]),
   midi.NoteOnEvent(tick=0, channel=11, data=[54, 118]),
   midi.NoteOffEvent(tick=480, channel=11, data=[54, 0]),
   midi.NoteOnEvent(tick=0, channel=11, data=[54, 123]),
   midi.NoteOffEvent(tick=480, channel=11, data=[54, 0]),
   midi.NoteOnEvent(tick=0, channel=11, data=[54, 115]),
   midi.NoteOffEvent(tick=480, channel=11, data=[54, 0]),
   midi.NoteOnEvent(tick=0, channel=11, data=[54, 114]),
   midi.NoteOffEvent(tick=480, channel=11, data=[54, 0]),
   midi.NoteOnEvent(tick=0, channel=11, data=[54, 114]),
   midi.NoteOffEvent(tick=480, channel=11, data=[54, 0]),
   midi.NoteOnEvent(tick=0, channel=11, data=[54, 120]),
   midi.NoteOffEvent(tick=960, channel=11, data=[54, 0]),
   midi.NoteOnEvent(tick=5280, channel=11, data=[67, 100]),
   midi.NoteOffEvent(tick=480, channel=11, data=[67, 0]),
   midi.NoteOnEvent(tick=0, channel=11, data=[67, 99]),
   midi.NoteOffEvent(tick=480, channel=11, data=[67, 0]),
   midi.NoteOnEvent(tick=0, channel=11, data=[67, 98]),
   midi.NoteOffEvent(tick=480, channel=11, data=[67, 0]),
   midi.NoteOnEvent(tick=0, channel=11, data=[63, 95]),
   midi.NoteOffEvent(tick=1920, channel=11, data=[63, 0]),
   midi.NoteOnEvent(tick=0, channel=11, data=[65, 102]),
   midi.NoteOffEvent(tick=1920, channel=11, data=[65, 0]),
   midi.NoteOnEvent(tick=0, channel=11, data=[62, 99]),
   midi.NoteOffEvent(tick=2400, channel=11, data=[62, 0]),
   midi.NoteOnEvent(tick=0, channel=11, data=[67, 101]),
   midi.NoteOffEvent(tick=480, channel=11, data=[67, 0]),
   midi.NoteOnEvent(tick=0, channel=11, data=[67, 100]),
   midi.NoteOffEvent(tick=480, channel=11, data=[67, 0]),
   midi.NoteOnEvent(tick=0, channel=11, data=[67, 100]),
   midi.NoteOffEvent(tick=480, channel=11, data=[67, 0]),
   midi.NoteOnEvent(tick=0, channel=11, data=[63, 95]),
   midi.NoteOffEvent(tick=1920, channel=11, data=[63, 0]),
   midi.NoteOnEvent(tick=0, channel=11, data=[65, 103]),
   midi.NoteOffEvent(tick=1920, channel=11, data=[65, 0]),
   midi.NoteOnEvent(tick=0, channel=11, data=[62, 99]),
   midi.NoteOffEvent(tick=2400, channel=11, data=[62, 0]),
   midi.NoteOnEvent(tick=0, channel=11, data=[67, 101]),
   midi.NoteOffEvent(tick=480, channel=11, data=[67, 0]),
   midi.NoteOnEvent(tick=0, channel=11, data=[67, 100]),
   midi.NoteOffEvent(tick=480, channel=11, data=[67, 0]),
   midi.NoteOnEvent(tick=0, channel=11, data=[67, 100]),
   midi.NoteOffEvent(tick=480, channel=11, data=[67, 0]),
   midi.NoteOnEvent(tick=0, channel=11, data=[63, 95]),
   midi.NoteOffEvent(tick=960, channel=11, data=[63, 0]),
   midi.NoteOnEvent(tick=0, channel=11, data=[65, 96]),
   midi.NoteOffEvent(tick=960, channel=11, data=[65, 0]),
   midi.NoteOnEvent(tick=0, channel=11, data=[62, 95]),
   midi.NoteOffEvent(tick=960, channel=11, data=[62, 0]),
   midi.NoteOnEvent(tick=0, channel=11, data=[63, 94]),
   midi.NoteOffEvent(tick=960, channel=11, data=[63, 0]),
   midi.NoteOnEvent(tick=0, channel=11, data=[60, 93]),
   midi.NoteOffEvent(tick=960, channel=11, data=[60, 0]),
   midi.NoteOnEvent(tick=0, channel=11, data=[62, 96]),
   midi.NoteOffEvent(tick=960, channel=11, data=[62, 0]),
   midi.NoteOnEvent(tick=0, channel=11, data=[58, 93]),
   midi.NoteOffEvent(tick=960, channel=11, data=[58, 0]),
   midi.NoteOnEvent(tick=0, channel=11, data=[60, 96]),
   midi.NoteOffEvent(tick=960, channel=11, data=[60, 0]),
   midi.NoteOnEvent(tick=0, channel=11, data=[56, 94]),
   midi.NoteOffEvent(tick=960, channel=11, data=[56, 0]),
   midi.NoteOnEvent(tick=0, channel=11, data=[58, 96]),
   midi.NoteOffEvent(tick=960, channel=11, data=[58, 0]),
   midi.NoteOnEvent(tick=0, channel=11, data=[55, 96]),
   midi.NoteOffEvent(tick=960, channel=11, data=[55, 0]),
   midi.NoteOnEvent(tick=0, channel=11, data=[56, 95]),
   midi.NoteOffEvent(tick=960, channel=11, data=[56, 0]),
   midi.NoteOnEvent(tick=0, channel=11, data=[53, 96]),
   midi.NoteOffEvent(tick=960, channel=11, data=[53, 0]),
   midi.NoteOnEvent(tick=0, channel=11, data=[55, 97]),
   midi.NoteOffEvent(tick=960, channel=11, data=[55, 0]),
   midi.NoteOnEvent(tick=0, channel=11, data=[51, 96]),
   midi.NoteOffEvent(tick=960, channel=11, data=[51, 0]),
   midi.NoteOnEvent(tick=0, channel=11, data=[53, 96]),
   midi.NoteOffEvent(tick=960, channel=11, data=[53, 0]),
   midi.NoteOnEvent(tick=0, channel=11, data=[50, 98]),
   midi.NoteOffEvent(tick=960, channel=11, data=[50, 0]),
   midi.NoteOnEvent(tick=0, channel=11, data=[48, 91]),
   midi.NoteOffEvent(tick=960, channel=11, data=[48, 0]),
   midi.NoteOnEvent(tick=0, channel=11, data=[47, 98]),
   midi.NoteOffEvent(tick=960, channel=11, data=[47, 0]),
   midi.NoteOnEvent(tick=0, channel=11, data=[48, 96]),
   midi.NoteOffEvent(tick=960, channel=11, data=[48, 0]),
   midi.NoteOnEvent(tick=0, channel=11, data=[50, 106]),
   midi.NoteOffEvent(tick=960, channel=11, data=[50, 0]),
   midi.NoteOnEvent(tick=0, channel=11, data=[48, 96]),
   midi.NoteOffEvent(tick=960, channel=11, data=[48, 0]),
   midi.NoteOnEvent(tick=0, channel=11, data=[50, 106]),
   midi.NoteOffEvent(tick=960, channel=11, data=[50, 0]),
   midi.NoteOnEvent(tick=0, channel=11, data=[52, 104]),
   midi.NoteOffEvent(tick=960, channel=11, data=[52, 0]),
   midi.NoteOnEvent(tick=0, channel=11, data=[53, 110]),
   midi.NoteOffEvent(tick=960, channel=11, data=[53, 0]),
   midi.NoteOnEvent(tick=0, channel=11, data=[52, 100]),
   midi.NoteOffEvent(tick=960, channel=11, data=[52, 0]),
   midi.NoteOnEvent(tick=0, channel=11, data=[53, 107]),
   midi.NoteOffEvent(tick=960, channel=11, data=[53, 0]),
   midi.NoteOnEvent(tick=0, channel=11, data=[55, 104]),
   midi.NoteOffEvent(tick=960, channel=11, data=[55, 0]),
   midi.NoteOnEvent(tick=0, channel=11, data=[56, 110]),
   midi.NoteOffEvent(tick=960, channel=11, data=[56, 0]),
   midi.NoteOnEvent(tick=0, channel=11, data=[55, 100]),
   midi.NoteOffEvent(tick=960, channel=11, data=[55, 0]),
   midi.NoteOnEvent(tick=0, channel=11, data=[57, 109]),
   midi.NoteOffEvent(tick=960, channel=11, data=[57, 0]),
   midi.NoteOnEvent(tick=0, channel=11, data=[59, 106]),
   midi.NoteOffEvent(tick=960, channel=11, data=[59, 0]),
   midi.NoteOnEvent(tick=0, channel=11, data=[60, 111]),
   midi.NoteOffEvent(tick=3840, channel=11, data=[60, 0]),
   midi.NoteOnEvent(tick=0, channel=11, data=[56, 102]),
   midi.NoteOffEvent(tick=3840, channel=11, data=[56, 0]),
   midi.NoteOnEvent(tick=0, channel=11, data=[51, 102]),
   midi.NoteOffEvent(tick=3840, channel=11, data=[51, 0]),
   midi.NoteOnEvent(tick=0, channel=11, data=[53, 104]),
   midi.NoteOffEvent(tick=1920, channel=11, data=[53, 0]),
   midi.NoteOnEvent(tick=0, channel=11, data=[51, 103]),
   midi.NoteOffEvent(tick=1920, channel=11, data=[51, 0]),
   midi.NoteOnEvent(tick=0, channel=11, data=[50, 103]),
   midi.NoteOffEvent(tick=1920, channel=11, data=[50, 0]),
   midi.NoteOnEvent(tick=0, channel=11, data=[53, 106]),
   midi.NoteOffEvent(tick=1920, channel=11, data=[53, 0]),
   midi.NoteOnEvent(tick=0, channel=11, data=[51, 103]),
   midi.NoteOffEvent(tick=480, channel=11, data=[51, 0]),
   midi.NoteOnEvent(tick=1440, channel=11, data=[48, 101]),
   midi.NoteOffEvent(tick=480, channel=11, data=[48, 0]),
   midi.NoteOnEvent(tick=1440, channel=11, data=[53, 107]),
   midi.NoteOffEvent(tick=480, channel=11, data=[53, 0]),
   midi.NoteOnEvent(tick=1440, channel=11, data=[50, 103]),
   midi.NoteOffEvent(tick=480, channel=11, data=[50, 0]),
   midi.NoteOnEvent(tick=1440, channel=11, data=[55, 108]),
   midi.NoteOffEvent(tick=480, channel=11, data=[55, 0]),
   midi.NoteOnEvent(tick=1440, channel=11, data=[43, 99]),
   midi.NoteOffEvent(tick=480, channel=11, data=[43, 0]),
   midi.NoteOnEvent(tick=1440, channel=11, data=[48, 104]),
   midi.NoteOffEvent(tick=480, channel=11, data=[48, 0]),
   midi.NoteOnEvent(tick=5280, channel=11, data=[51, 104]),
   midi.NoteOffEvent(tick=480, channel=11, data=[51, 0]),
   midi.NoteOnEvent(tick=480, channel=11, data=[53, 99]),
   midi.NoteOffEvent(tick=480, channel=11, data=[53, 0]),
   midi.NoteOnEvent(tick=480, channel=11, data=[55, 107]),
   midi.NoteOnEvent(tick=960, channel=11, data=[51, 95]),
   midi.NoteOffEvent(tick=19, channel=11, data=[55, 0]),
   midi.NoteOffEvent(tick=892, channel=11, data=[51, 0]),
   midi.NoteOnEvent(tick=3889, channel=11, data=[43, 102]),
   midi.NoteOffEvent(tick=480, channel=11, data=[43, 0]),
   midi.NoteOnEvent(tick=480, channel=11, data=[45, 98]),
   midi.NoteOffEvent(tick=480, channel=11, data=[45, 0]),
   midi.NoteOnEvent(tick=480, channel=11, data=[47, 106]),
   midi.NoteOnEvent(tick=960, channel=11, data=[43, 96]),
   midi.NoteOffEvent(tick=19, channel=11, data=[47, 0]),
   midi.NoteOffEvent(tick=892, channel=11, data=[43, 0]),
   midi.NoteOnEvent(tick=3889, channel=11, data=[43, 103]),
   midi.NoteOffEvent(tick=480, channel=11, data=[43, 0]),
   midi.NoteOnEvent(tick=480, channel=11, data=[45, 99]),
   midi.NoteOffEvent(tick=480, channel=11, data=[45, 0]),
   midi.NoteOnEvent(tick=480, channel=11, data=[47, 106]),
   midi.NoteOnEvent(tick=960, channel=11, data=[43, 96]),
   midi.NoteOffEvent(tick=19, channel=11, data=[47, 0]),
   midi.NoteOffEvent(tick=892, channel=11, data=[43, 0]),
   midi.NoteOnEvent(tick=7729, channel=11, data=[53, 104]),
   midi.NoteOnEvent(tick=960, channel=11, data=[48, 95]),
   midi.NoteOffEvent(tick=19, channel=11, data=[53, 0]),
   midi.NoteOffEvent(tick=892, channel=11, data=[48, 0]),
   midi.NoteOnEvent(tick=1969, channel=11, data=[53, 106]),
   midi.NoteOnEvent(tick=960, channel=11, data=[48, 95]),
   midi.NoteOffEvent(tick=19, channel=11, data=[53, 0]),
   midi.NoteOffEvent(tick=892, channel=11, data=[48, 0]),
   midi.NoteOnEvent(tick=49, channel=11, data=[55, 111]),
   midi.NoteOffEvent(tick=960, channel=11, data=[55, 0]),
   midi.NoteOnEvent(tick=960, channel=11, data=[43, 98]),
   midi.NoteOffEvent(tick=960, channel=11, data=[43, 0]),
   midi.NoteOnEvent(tick=960, channel=11, data=[60, 114]),
   midi.NoteOnEvent(tick=960, channel=11, data=[55, 100]),
   midi.NoteOffEvent(tick=19, channel=11, data=[60, 0]),
   midi.NoteOffEvent(tick=892, channel=11, data=[55, 0]),
   midi.NoteOnEvent(tick=49, channel=11, data=[56, 106]),
   midi.NoteOffEvent(tick=960, channel=11, data=[56, 0]),
   midi.NoteOnEvent(tick=0, channel=11, data=[51, 91]),
   midi.NoteOffEvent(tick=960, channel=11, data=[51, 0]),
   midi.NoteOnEvent(tick=0, channel=11, data=[53, 102]),
   midi.NoteOffEvent(tick=960, channel=11, data=[53, 0]),
   midi.NoteOnEvent(tick=0, channel=11, data=[48, 89]),
   midi.NoteOffEvent(tick=960, channel=11, data=[48, 0]),
   midi.NoteOnEvent(tick=1920, channel=11, data=[53, 105]),
   midi.NoteOnEvent(tick=960, channel=11, data=[48, 94]),
   midi.NoteOffEvent(tick=19, channel=11, data=[53, 0]),
   midi.NoteOffEvent(tick=892, channel=11, data=[48, 0]),
   midi.NoteOnEvent(tick=49, channel=11, data=[53, 108]),
   midi.NoteOnEvent(tick=960, channel=11, data=[48, 94]),
   midi.NoteOffEvent(tick=19, channel=11, data=[53, 0]),
   midi.NoteOffEvent(tick=892, channel=11, data=[48, 0]),
   midi.NoteOnEvent(tick=49, channel=11, data=[55, 114]),
   midi.NoteOffEvent(tick=960, channel=11, data=[55, 0]),
   midi.NoteOnEvent(tick=960, channel=11, data=[43, 97]),
   midi.NoteOffEvent(tick=960, channel=11, data=[43, 0]),
   midi.NoteOnEvent(tick=960, channel=11, data=[48, 104]),
   midi.NoteOffEvent(tick=960, channel=11, data=[48, 0]),
   midi.NoteOnEvent(tick=9120, channel=11, data=[43, 98]),
   midi.NoteOffEvent(tick=480, channel=11, data=[43, 0]),
   midi.NoteOnEvent(tick=0, channel=11, data=[43, 98]),
   midi.NoteOffEvent(tick=480, channel=11, data=[43, 0]),
   midi.NoteOnEvent(tick=0, channel=11, data=[43, 98]),
   midi.NoteOffEvent(tick=480, channel=11, data=[43, 0]),
   midi.NoteOnEvent(tick=0, channel=11, data=[48, 112]),
   midi.NoteOffEvent(tick=480, channel=11, data=[48, 0]),
   midi.NoteOnEvent(tick=0, channel=11, data=[43, 96]),
   midi.NoteOffEvent(tick=480, channel=11, data=[43, 0]),
   midi.NoteOnEvent(tick=0, channel=11, data=[43, 96]),
   midi.NoteOffEvent(tick=480, channel=11, data=[43, 0]),
   midi.NoteOnEvent(tick=0, channel=11, data=[43, 96]),
   midi.NoteOffEvent(tick=480, channel=11, data=[43, 0]),
   midi.NoteOnEvent(tick=0, channel=11, data=[43, 102]),
   midi.NoteOffEvent(tick=480, channel=11, data=[43, 0]),
   midi.NoteOnEvent(tick=0, channel=11, data=[43, 97]),
   midi.NoteOffEvent(tick=480, channel=11, data=[43, 0]),
   midi.NoteOnEvent(tick=0, channel=11, data=[43, 97]),
   midi.NoteOffEvent(tick=480, channel=11, data=[43, 0]),
   midi.NoteOnEvent(tick=0, channel=11, data=[43, 97]),
   midi.NoteOffEvent(tick=480, channel=11, data=[43, 0]),
   midi.NoteOnEvent(tick=0, channel=11, data=[43, 103]),
   midi.NoteOffEvent(tick=480, channel=11, data=[43, 0]),
   midi.NoteOnEvent(tick=0, channel=11, data=[43, 97]),
   midi.NoteOffEvent(tick=480, channel=11, data=[43, 0]),
   midi.NoteOnEvent(tick=0, channel=11, data=[43, 97]),
   midi.NoteOffEvent(tick=480, channel=11, data=[43, 0]),
   midi.NoteOnEvent(tick=0, channel=11, data=[43, 97]),
   midi.NoteOffEvent(tick=480, channel=11, data=[43, 0]),
   midi.NoteOnEvent(tick=0, channel=11, data=[43, 103]),
   midi.NoteOffEvent(tick=480, channel=11, data=[43, 0]),
   midi.NoteOnEvent(tick=0, channel=11, data=[43, 98]),
   midi.NoteOffEvent(tick=480, channel=11, data=[43, 0]),
   midi.NoteOnEvent(tick=0, channel=11, data=[43, 98]),
   midi.NoteOffEvent(tick=480, channel=11, data=[43, 0]),
   midi.NoteOnEvent(tick=0, channel=11, data=[43, 98]),
   midi.NoteOffEvent(tick=480, channel=11, data=[43, 0]),
   midi.NoteOnEvent(tick=0, channel=11, data=[39, 108]),
   midi.NoteOffEvent(tick=3840, channel=11, data=[39, 0]),
   midi.NoteOnEvent(tick=480, channel=11, data=[41, 113]),
   midi.NoteOffEvent(tick=480, channel=11, data=[41, 0]),
   midi.NoteOnEvent(tick=0, channel=11, data=[41, 113]),
   midi.NoteOffEvent(tick=480, channel=11, data=[41, 0]),
   midi.NoteOnEvent(tick=0, channel=11, data=[41, 113]),
   midi.NoteOffEvent(tick=480, channel=11, data=[41, 0]),
   midi.NoteOnEvent(tick=0, channel=11, data=[38, 115]),
   midi.NoteOffEvent(tick=7680, channel=11, data=[38, 0]),
   midi.NoteOnEvent(tick=1920, channel=11, data=[43, 120]),
   midi.NoteOnEvent(tick=0, channel=11, data=[36, 120]),
   midi.NoteOffEvent(tick=13920, channel=11, data=[43, 0]),
   midi.NoteOffEvent(tick=0, channel=11, data=[36, 0]),
   midi.NoteOnEvent(tick=0, channel=11, data=[43, 113]),
   midi.NoteOffEvent(tick=480, channel=11, data=[43, 0]),
   midi.NoteOnEvent(tick=0, channel=11, data=[43, 113]),
   midi.NoteOffEvent(tick=480, channel=11, data=[43, 0]),
   midi.NoteOnEvent(tick=0, channel=11, data=[43, 113]),
   midi.NoteOffEvent(tick=480, channel=11, data=[43, 0]),
   midi.NoteOnEvent(tick=0, channel=11, data=[48, 127]),
   midi.NoteOffEvent(tick=960, channel=11, data=[48, 0]),
   midi.NoteOnEvent(tick=1440, channel=11, data=[43, 112]),
   midi.NoteOffEvent(tick=480, channel=11, data=[43, 0]),
   midi.NoteOnEvent(tick=0, channel=11, data=[43, 112]),
   midi.NoteOffEvent(tick=480, channel=11, data=[43, 0]),
   midi.NoteOnEvent(tick=0, channel=11, data=[43, 112]),
   midi.NoteOffEvent(tick=480, channel=11, data=[43, 0]),
   midi.NoteOnEvent(tick=0, channel=11, data=[48, 127]),
   midi.NoteOffEvent(tick=960, channel=11, data=[48, 0]),
   midi.NoteOnEvent(tick=1440, channel=11, data=[43, 112]),
   midi.NoteOffEvent(tick=480, channel=11, data=[43, 0]),
   midi.NoteOnEvent(tick=0, channel=11, data=[43, 112]),
   midi.NoteOffEvent(tick=480, channel=11, data=[43, 0]),
   midi.NoteOnEvent(tick=0, channel=11, data=[43, 112]),
   midi.NoteOffEvent(tick=480, channel=11, data=[43, 0]),
   midi.NoteOnEvent(tick=0, channel=11, data=[48, 127]),
   midi.NoteOffEvent(tick=960, channel=11, data=[48, 0]),
   midi.NoteOnEvent(tick=0, channel=11, data=[43, 111]),
   midi.NoteOffEvent(tick=960, channel=11, data=[43, 0]),
   midi.NoteOnEvent(tick=0, channel=11, data=[48, 127]),
   midi.NoteOffEvent(tick=960, channel=11, data=[48, 0]),
   midi.NoteOnEvent(tick=0, channel=11, data=[43, 110]),
   midi.NoteOffEvent(tick=960, channel=11, data=[43, 0]),
   midi.NoteOnEvent(tick=0, channel=11, data=[48, 127]),
   midi.NoteOffEvent(tick=960, channel=11, data=[48, 0]),
   midi.NoteOnEvent(tick=0, channel=11, data=[55, 127]),
   midi.NoteOffEvent(tick=960, channel=11, data=[55, 0]),
   midi.NoteOnEvent(tick=0, channel=11, data=[60, 127]),
   midi.NoteOffEvent(tick=960, channel=11, data=[60, 0]),
   midi.NoteOnEvent(tick=0, channel=11, data=[55, 120]),
   midi.NoteOffEvent(tick=960, channel=11, data=[55, 0]),
   midi.NoteOnEvent(tick=0, channel=11, data=[60, 127]),
   midi.NoteOffEvent(tick=960, channel=11, data=[60, 0]),
   midi.NoteOnEvent(tick=960, channel=11, data=[43, 109]),
   midi.NoteOffEvent(tick=960, channel=11, data=[43, 0]),
   midi.NoteOnEvent(tick=960, channel=11, data=[48, 117]),
   midi.NoteOnEvent(tick=0, channel=11, data=[36, 120]),
   midi.NoteOffEvent(tick=960, channel=11, data=[48, 0]),
   midi.NoteOffEvent(tick=0, channel=11, data=[36, 0]),
   midi.EndOfTrackEvent(tick=1, data=[])]),
 midi.Track(\
  [midi.ProgramChangeEvent(tick=0, channel=12, data=[48]),
   midi.ControlChangeEvent(tick=0, channel=12, data=[121, 0]),
   midi.ControlChangeEvent(tick=0, channel=12, data=[64, 0]),
   midi.ControlChangeEvent(tick=0, channel=12, data=[91, 72]),
   midi.ControlChangeEvent(tick=0, channel=12, data=[10, 95]),
   midi.ControlChangeEvent(tick=0, channel=12, data=[7, 90]),
   midi.TrackNameEvent(tick=0, text='Contrabass', data=[67, 111, 110, 116, 114, 97, 98, 97, 115, 115]),
   midi.NoteOnEvent(tick=480, channel=12, data=[31, 113]),
   midi.NoteOffEvent(tick=480, channel=12, data=[31, 0]),
   midi.NoteOnEvent(tick=0, channel=12, data=[31, 113]),
   midi.NoteOffEvent(tick=480, channel=12, data=[31, 0]),
   midi.NoteOnEvent(tick=0, channel=12, data=[31, 113]),
   midi.NoteOffEvent(tick=480, channel=12, data=[31, 0]),
   midi.NoteOnEvent(tick=0, channel=12, data=[27, 115]),
   midi.NoteOffEvent(tick=2880, channel=12, data=[27, 0]),
   midi.NoteOnEvent(tick=480, channel=12, data=[29, 113]),
   midi.NoteOffEvent(tick=480, channel=12, data=[29, 0]),
   midi.NoteOnEvent(tick=0, channel=12, data=[29, 113]),
   midi.NoteOffEvent(tick=480, channel=12, data=[29, 0]),
   midi.NoteOnEvent(tick=0, channel=12, data=[29, 113]),
   midi.NoteOffEvent(tick=480, channel=12, data=[29, 0]),
   midi.NoteOnEvent(tick=0, channel=12, data=[26, 115]),
   midi.NoteOffEvent(tick=2880, channel=12, data=[26, 0]),
   midi.NoteOnEvent(tick=23520, channel=12, data=[35, 61]),
   midi.NoteOffEvent(tick=480, channel=12, data=[35, 0]),
   midi.NoteOnEvent(tick=0, channel=12, data=[35, 61]),
   midi.NoteOffEvent(tick=480, channel=12, data=[35, 0]),
   midi.NoteOnEvent(tick=0, channel=12, data=[35, 78]),
   midi.NoteOffEvent(tick=480, channel=12, data=[35, 0]),
   midi.NoteOnEvent(tick=0, channel=12, data=[36, 105]),
   midi.NoteOffEvent(tick=960, channel=12, data=[36, 0]),
   midi.NoteOnEvent(tick=960, channel=12, data=[32, 101]),
   midi.NoteOffEvent(tick=960, channel=12, data=[32, 0]),
   midi.NoteOnEvent(tick=960, channel=12, data=[31, 102]),
   midi.NoteOffEvent(tick=960, channel=12, data=[31, 0]),
   midi.NoteOnEvent(tick=3360, channel=12, data=[32, 113]),
   midi.NoteOffEvent(tick=480, channel=12, data=[32, 0]),
   midi.NoteOnEvent(tick=0, channel=12, data=[32, 113]),
   midi.NoteOffEvent(tick=480, channel=12, data=[32, 0]),
   midi.NoteOnEvent(tick=0, channel=12, data=[32, 113]),
   midi.NoteOffEvent(tick=480, channel=12, data=[32, 0]),
   midi.NoteOnEvent(tick=0, channel=12, data=[29, 116]),
   midi.NoteOffEvent(tick=3840, channel=12, data=[29, 0]),
   midi.NoteOnEvent(tick=6240, channel=12, data=[31, 61]),
   midi.NoteOffEvent(tick=480, channel=12, data=[31, 0]),
   midi.NoteOnEvent(tick=0, channel=12, data=[31, 61]),
   midi.NoteOffEvent(tick=480, channel=12, data=[31, 0]),
   midi.NoteOnEvent(tick=0, channel=12, data=[31, 61]),
   midi.NoteOffEvent(tick=480, channel=12, data=[31, 0]),
   midi.NoteOnEvent(tick=0, channel=12, data=[36, 68]),
   midi.NoteOffEvent(tick=960, channel=12, data=[36, 0]),
   midi.NoteOnEvent(tick=5280, channel=12, data=[31, 61]),
   midi.NoteOffEvent(tick=480, channel=12, data=[31, 0]),
   midi.NoteOnEvent(tick=0, channel=12, data=[31, 61]),
   midi.NoteOffEvent(tick=480, channel=12, data=[31, 0]),
   midi.NoteOnEvent(tick=0, channel=12, data=[31, 61]),
   midi.NoteOffEvent(tick=480, channel=12, data=[31, 0]),
   midi.NoteOnEvent(tick=0, channel=12, data=[36, 68]),
   midi.NoteOffEvent(tick=960, channel=12, data=[36, 0]),
   midi.NoteOnEvent(tick=1440, channel=12, data=[36, 86]),
   midi.NoteOffEvent(tick=480, channel=12, data=[36, 0]),
   midi.NoteOnEvent(tick=0, channel=12, data=[36, 86]),
   midi.NoteOffEvent(tick=480, channel=12, data=[36, 0]),
   midi.NoteOnEvent(tick=0, channel=12, data=[36, 85]),
   midi.NoteOffEvent(tick=480, channel=12, data=[36, 0]),
   midi.NoteOnEvent(tick=0, channel=12, data=[36, 90]),
   midi.NoteOffEvent(tick=960, channel=12, data=[36, 0]),
   midi.NoteOnEvent(tick=1440, channel=12, data=[36, 84]),
   midi.NoteOffEvent(tick=480, channel=12, data=[36, 0]),
   midi.NoteOnEvent(tick=0, channel=12, data=[36, 84]),
   midi.NoteOffEvent(tick=480, channel=12, data=[36, 0]),
   midi.NoteOnEvent(tick=0, channel=12, data=[36, 84]),
   midi.NoteOffEvent(tick=480, channel=12, data=[36, 0]),
   midi.NoteOnEvent(tick=0, channel=12, data=[36, 89]),
   midi.NoteOffEvent(tick=960, channel=12, data=[36, 0]),
   midi.NoteOnEvent(tick=960, channel=12, data=[36, 104]),
   midi.NoteOffEvent(tick=960, channel=12, data=[36, 0]),
   midi.NoteOnEvent(tick=960, channel=12, data=[36, 104]),
   midi.NoteOffEvent(tick=960, channel=12, data=[36, 0]),
   midi.NoteOnEvent(tick=960, channel=12, data=[36, 104]),
   midi.NoteOffEvent(tick=960, channel=12, data=[36, 0]),
   midi.NoteOnEvent(tick=960, channel=12, data=[36, 104]),
   midi.NoteOffEvent(tick=960, channel=12, data=[36, 0]),
   midi.NoteOnEvent(tick=960, channel=12, data=[36, 104]),
   midi.NoteOffEvent(tick=960, channel=12, data=[36, 0]),
   midi.NoteOnEvent(tick=960, channel=12, data=[36, 104]),
   midi.NoteOffEvent(tick=960, channel=12, data=[36, 0]),
   midi.NoteOnEvent(tick=960, channel=12, data=[36, 104]),
   midi.NoteOffEvent(tick=6240, channel=12, data=[36, 0]),
   midi.NoteOnEvent(tick=0, channel=12, data=[36, 98]),
   midi.NoteOffEvent(tick=480, channel=12, data=[36, 0]),
   midi.NoteOnEvent(tick=0, channel=12, data=[36, 98]),
   midi.NoteOffEvent(tick=480, channel=12, data=[36, 0]),
   midi.NoteOnEvent(tick=0, channel=12, data=[36, 98]),
   midi.NoteOffEvent(tick=480, channel=12, data=[36, 0]),
   midi.NoteOnEvent(tick=0, channel=12, data=[31, 98]),
   midi.NoteOffEvent(tick=6240, channel=12, data=[31, 0]),
   midi.NoteOnEvent(tick=0, channel=12, data=[31, 98]),
   midi.NoteOffEvent(tick=480, channel=12, data=[31, 0]),
   midi.NoteOnEvent(tick=0, channel=12, data=[36, 100]),
   midi.NoteOffEvent(tick=480, channel=12, data=[36, 0]),
   midi.NoteOnEvent(tick=0, channel=12, data=[36, 100]),
   midi.NoteOffEvent(tick=480, channel=12, data=[36, 0]),
   midi.NoteOnEvent(tick=0, channel=12, data=[36, 122]),
   midi.NoteOffEvent(tick=480, channel=12, data=[36, 0]),
   midi.NoteOnEvent(tick=0, channel=12, data=[36, 115]),
   midi.NoteOffEvent(tick=480, channel=12, data=[36, 0]),
   midi.NoteOnEvent(tick=0, channel=12, data=[36, 114]),
   midi.NoteOffEvent(tick=480, channel=12, data=[36, 0]),
   midi.NoteOnEvent(tick=0, channel=12, data=[36, 114]),
   midi.NoteOffEvent(tick=480, channel=12, data=[36, 0]),
   midi.NoteOnEvent(tick=0, channel=12, data=[36, 121]),
   midi.NoteOffEvent(tick=480, channel=12, data=[36, 0]),
   midi.NoteOnEvent(tick=0, channel=12, data=[36, 114]),
   midi.NoteOffEvent(tick=480, channel=12, data=[36, 0]),
   midi.NoteOnEvent(tick=0, channel=12, data=[36, 114]),
   midi.NoteOffEvent(tick=480, channel=12, data=[36, 0]),
   midi.NoteOnEvent(tick=0, channel=12, data=[36, 114]),
   midi.NoteOffEvent(tick=480, channel=12, data=[36, 0]),
   midi.NoteOnEvent(tick=0, channel=12, data=[36, 120]),
   midi.NoteOffEvent(tick=480, channel=12, data=[36, 0]),
   midi.NoteOnEvent(tick=0, channel=12, data=[36, 113]),
   midi.NoteOffEvent(tick=480, channel=12, data=[36, 0]),
   midi.NoteOnEvent(tick=0, channel=12, data=[36, 113]),
   midi.NoteOffEvent(tick=480, channel=12, data=[36, 0]),
   midi.NoteOnEvent(tick=0, channel=12, data=[36, 113]),
   midi.NoteOffEvent(tick=480, channel=12, data=[36, 0]),
   midi.NoteOnEvent(tick=0, channel=12, data=[36, 120]),
   midi.NoteOffEvent(tick=480, channel=12, data=[36, 0]),
   midi.NoteOnEvent(tick=0, channel=12, data=[36, 113]),
   midi.NoteOffEvent(tick=480, channel=12, data=[36, 0]),
   midi.NoteOnEvent(tick=0, channel=12, data=[36, 113]),
   midi.NoteOffEvent(tick=480, channel=12, data=[36, 0]),
   midi.NoteOnEvent(tick=480, channel=12, data=[36, 120]),
   midi.NoteOffEvent(tick=960, channel=12, data=[36, 0]),
   midi.NoteOnEvent(tick=2880, channel=12, data=[38, 121]),
   midi.NoteOffEvent(tick=960, channel=12, data=[38, 0]),
   midi.NoteOnEvent(tick=12960, channel=12, data=[34, 61]),
   midi.NoteOffEvent(tick=480, channel=12, data=[34, 0]),
   midi.NoteOnEvent(tick=0, channel=12, data=[34, 61]),
   midi.NoteOffEvent(tick=480, channel=12, data=[34, 0]),
   midi.NoteOnEvent(tick=0, channel=12, data=[34, 61]),
   midi.NoteOffEvent(tick=480, channel=12, data=[34, 0]),
   midi.NoteOnEvent(tick=0, channel=12, data=[39, 68]),
   midi.NoteOffEvent(tick=960, channel=12, data=[39, 0]),
   midi.NoteOnEvent(tick=5280, channel=12, data=[34, 61]),
   midi.NoteOffEvent(tick=480, channel=12, data=[34, 0]),
   midi.NoteOnEvent(tick=0, channel=12, data=[34, 61]),
   midi.NoteOffEvent(tick=480, channel=12, data=[34, 0]),
   midi.NoteOnEvent(tick=0, channel=12, data=[34, 61]),
   midi.NoteOffEvent(tick=480, channel=12, data=[34, 0]),
   midi.NoteOnEvent(tick=0, channel=12, data=[39, 68]),
   midi.NoteOffEvent(tick=960, channel=12, data=[39, 0]),
   midi.NoteOnEvent(tick=5280, channel=12, data=[34, 61]),
   midi.NoteOffEvent(tick=480, channel=12, data=[34, 0]),
   midi.NoteOnEvent(tick=0, channel=12, data=[34, 61]),
   midi.NoteOffEvent(tick=480, channel=12, data=[34, 0]),
   midi.NoteOnEvent(tick=0, channel=12, data=[34, 61]),
   midi.NoteOffEvent(tick=480, channel=12, data=[34, 0]),
   midi.NoteOnEvent(tick=0, channel=12, data=[39, 68]),
   midi.NoteOffEvent(tick=960, channel=12, data=[39, 0]),
   midi.NoteOnEvent(tick=5280, channel=12, data=[36, 61]),
   midi.NoteOffEvent(tick=480, channel=12, data=[36, 0]),
   midi.NoteOnEvent(tick=0, channel=12, data=[36, 61]),
   midi.NoteOffEvent(tick=480, channel=12, data=[36, 0]),
   midi.NoteOnEvent(tick=0, channel=12, data=[36, 61]),
   midi.NoteOffEvent(tick=480, channel=12, data=[36, 0]),
   midi.NoteOnEvent(tick=0, channel=12, data=[41, 68]),
   midi.NoteOffEvent(tick=960, channel=12, data=[41, 0]),
   midi.NoteOnEvent(tick=5280, channel=12, data=[39, 61]),
   midi.NoteOffEvent(tick=480, channel=12, data=[39, 0]),
   midi.NoteOnEvent(tick=0, channel=12, data=[39, 61]),
   midi.NoteOffEvent(tick=480, channel=12, data=[39, 0]),
   midi.NoteOnEvent(tick=0, channel=12, data=[39, 61]),
   midi.NoteOffEvent(tick=480, channel=12, data=[39, 0]),
   midi.NoteOnEvent(tick=0, channel=12, data=[44, 68]),
   midi.NoteOffEvent(tick=960, channel=12, data=[44, 0]),
   midi.NoteOnEvent(tick=3360, channel=12, data=[45, 62]),
   midi.NoteOffEvent(tick=480, channel=12, data=[45, 0]),
   midi.NoteOnEvent(tick=0, channel=12, data=[45, 62]),
   midi.NoteOffEvent(tick=480, channel=12, data=[45, 0]),
   midi.NoteOnEvent(tick=0, channel=12, data=[45, 67]),
   midi.NoteOffEvent(tick=480, channel=12, data=[45, 0]),
   midi.NoteOnEvent(tick=0, channel=12, data=[45, 76]),
   midi.NoteOffEvent(tick=960, channel=12, data=[45, 0]),
   midi.NoteOnEvent(tick=1440, channel=12, data=[46, 72]),
   midi.NoteOffEvent(tick=480, channel=12, data=[46, 0]),
   midi.NoteOnEvent(tick=0, channel=12, data=[46, 72]),
   midi.NoteOffEvent(tick=480, channel=12, data=[46, 0]),
   midi.NoteOnEvent(tick=0, channel=12, data=[46, 72]),
   midi.NoteOffEvent(tick=480, channel=12, data=[46, 0]),
   midi.NoteOnEvent(tick=0, channel=12, data=[46, 76]),
   midi.NoteOffEvent(tick=960, channel=12, data=[46, 0]),
   midi.NoteOnEvent(tick=1440, channel=12, data=[47, 85]),
   midi.NoteOffEvent(tick=480, channel=12, data=[47, 0]),
   midi.NoteOnEvent(tick=0, channel=12, data=[47, 85]),
   midi.NoteOffEvent(tick=480, channel=12, data=[47, 0]),
   midi.NoteOnEvent(tick=0, channel=12, data=[47, 84]),
   midi.NoteOffEvent(tick=480, channel=12, data=[47, 0]),
   midi.NoteOnEvent(tick=0, channel=12, data=[47, 89]),
   midi.NoteOffEvent(tick=960, channel=12, data=[47, 0]),
   midi.NoteOnEvent(tick=1440, channel=12, data=[48, 85]),
   midi.NoteOffEvent(tick=480, channel=12, data=[48, 0]),
   midi.NoteOnEvent(tick=0, channel=12, data=[48, 85]),
   midi.NoteOffEvent(tick=480, channel=12, data=[48, 0]),
   midi.NoteOnEvent(tick=0, channel=12, data=[48, 84]),
   midi.NoteOffEvent(tick=480, channel=12, data=[48, 0]),
   midi.NoteOnEvent(tick=0, channel=12, data=[48, 89]),
   midi.NoteOffEvent(tick=960, channel=12, data=[48, 0]),
   midi.NoteOnEvent(tick=1440, channel=12, data=[48, 84]),
   midi.NoteOffEvent(tick=480, channel=12, data=[48, 0]),
   midi.NoteOnEvent(tick=0, channel=12, data=[48, 84]),
   midi.NoteOffEvent(tick=480, channel=12, data=[48, 0]),
   midi.NoteOnEvent(tick=0, channel=12, data=[48, 84]),
   midi.NoteOffEvent(tick=480, channel=12, data=[48, 0]),
   midi.NoteOnEvent(tick=0, channel=12, data=[48, 89]),
   midi.NoteOffEvent(tick=960, channel=12, data=[48, 0]),
   midi.NoteOnEvent(tick=0, channel=12, data=[48, 84]),
   midi.NoteOffEvent(tick=480, channel=12, data=[48, 0]),
   midi.NoteOnEvent(tick=0, channel=12, data=[48, 84]),
   midi.NoteOffEvent(tick=480, channel=12, data=[48, 0]),
   midi.NoteOnEvent(tick=0, channel=12, data=[50, 126]),
   midi.NoteOffEvent(tick=2880, channel=12, data=[50, 0]),
   midi.NoteOnEvent(tick=0, channel=12, data=[38, 104]),
   midi.NoteOffEvent(tick=960, channel=12, data=[38, 0]),
   midi.NoteOnEvent(tick=0, channel=12, data=[39, 115]),
   midi.NoteOffEvent(tick=960, channel=12, data=[39, 0]),
   midi.NoteOnEvent(tick=960, channel=12, data=[41, 120]),
   midi.NoteOffEvent(tick=960, channel=12, data=[41, 0]),
   midi.NoteOnEvent(tick=960, channel=12, data=[43, 122]),
   midi.NoteOffEvent(tick=960, channel=12, data=[43, 0]),
   midi.NoteOnEvent(tick=960, channel=12, data=[44, 121]),
   midi.NoteOffEvent(tick=960, channel=12, data=[44, 0]),
   midi.NoteOnEvent(tick=960, channel=12, data=[46, 122]),
   midi.NoteOffEvent(tick=960, channel=12, data=[46, 0]),
   midi.NoteOnEvent(tick=960, channel=12, data=[34, 114]),
   midi.NoteOffEvent(tick=960, channel=12, data=[34, 0]),
   midi.NoteOnEvent(tick=960, channel=12, data=[38, 119]),
   midi.NoteOffEvent(tick=960, channel=12, data=[38, 0]),
   midi.NoteOnEvent(tick=0, channel=12, data=[41, 115]),
   midi.NoteOffEvent(tick=960, channel=12, data=[41, 0]),
   midi.NoteOnEvent(tick=0, channel=12, data=[38, 119]),
   midi.NoteOffEvent(tick=960, channel=12, data=[38, 0]),
   midi.NoteOnEvent(tick=0, channel=12, data=[41, 115]),
   midi.NoteOffEvent(tick=960, channel=12, data=[41, 0]),
   midi.NoteOnEvent(tick=0, channel=12, data=[39, 119]),
   midi.NoteOffEvent(tick=960, channel=12, data=[39, 0]),
   midi.NoteOnEvent(tick=0, channel=12, data=[43, 117]),
   midi.NoteOffEvent(tick=960, channel=12, data=[43, 0]),
   midi.NoteOnEvent(tick=0, channel=12, data=[41, 120]),
   midi.NoteOffEvent(tick=960, channel=12, data=[41, 0]),
   midi.NoteOnEvent(tick=0, channel=12, data=[44, 117]),
   midi.NoteOffEvent(tick=960, channel=12, data=[44, 0]),
   midi.NoteOnEvent(tick=0, channel=12, data=[43, 121]),
   midi.NoteOffEvent(tick=960, channel=12, data=[43, 0]),
   midi.NoteOnEvent(tick=0, channel=12, data=[46, 119]),
   midi.NoteOffEvent(tick=960, channel=12, data=[46, 0]),
   midi.NoteOnEvent(tick=0, channel=12, data=[44, 120]),
   midi.NoteOffEvent(tick=960, channel=12, data=[44, 0]),
   midi.NoteOnEvent(tick=0, channel=12, data=[48, 120]),
   midi.NoteOffEvent(tick=960, channel=12, data=[48, 0]),
   midi.NoteOnEvent(tick=0, channel=12, data=[46, 121]),
   midi.NoteOffEvent(tick=960, channel=12, data=[46, 0]),
   midi.NoteOnEvent(tick=0, channel=12, data=[34, 100]),
   midi.NoteOffEvent(tick=960, channel=12, data=[34, 0]),
   midi.NoteOnEvent(tick=0, channel=12, data=[46, 126]),
   midi.NoteOffEvent(tick=960, channel=12, data=[46, 0]),
   midi.NoteOnEvent(tick=0, channel=12, data=[34, 102]),
   midi.NoteOffEvent(tick=960, channel=12, data=[34, 0]),
   midi.NoteOnEvent(tick=0, channel=12, data=[39, 118]),
   midi.NoteOffEvent(tick=6240, channel=12, data=[39, 0]),
   midi.NoteOnEvent(tick=0, channel=12, data=[34, 113]),
   midi.NoteOffEvent(tick=480, channel=12, data=[34, 0]),
   midi.NoteOnEvent(tick=0, channel=12, data=[34, 113]),
   midi.NoteOffEvent(tick=480, channel=12, data=[34, 0]),
   midi.NoteOnEvent(tick=0, channel=12, data=[34, 113]),
   midi.NoteOffEvent(tick=480, channel=12, data=[34, 0]),
   midi.NoteOnEvent(tick=0, channel=12, data=[39, 126]),
   midi.NoteOffEvent(tick=6240, channel=12, data=[39, 0]),
   midi.NoteOnEvent(tick=0, channel=12, data=[34, 113]),
   midi.NoteOffEvent(tick=480, channel=12, data=[34, 0]),
   midi.NoteOnEvent(tick=0, channel=12, data=[34, 113]),
   midi.NoteOffEvent(tick=480, channel=12, data=[34, 0]),
   midi.NoteOnEvent(tick=0, channel=12, data=[34, 113]),
   midi.NoteOffEvent(tick=480, channel=12, data=[34, 0]),
   midi.NoteOnEvent(tick=0, channel=12, data=[39, 126]),
   midi.NoteOffEvent(tick=960, channel=12, data=[39, 0]),
   midi.NoteOnEvent(tick=1440, channel=12, data=[34, 112]),
   midi.NoteOffEvent(tick=480, channel=12, data=[34, 0]),
   midi.NoteOnEvent(tick=0, channel=12, data=[34, 112]),
   midi.NoteOffEvent(tick=480, channel=12, data=[34, 0]),
   midi.NoteOnEvent(tick=0, channel=12, data=[34, 112]),
   midi.NoteOffEvent(tick=480, channel=12, data=[34, 0]),
   midi.NoteOnEvent(tick=0, channel=12, data=[39, 127]),
   midi.NoteOffEvent(tick=960, channel=12, data=[39, 0]),
   midi.NoteOnEvent(tick=1440, channel=12, data=[34, 112]),
   midi.NoteOffEvent(tick=480, channel=12, data=[34, 0]),
   midi.NoteOnEvent(tick=0, channel=12, data=[34, 112]),
   midi.NoteOffEvent(tick=480, channel=12, data=[34, 0]),
   midi.NoteOnEvent(tick=0, channel=12, data=[34, 112]),
   midi.NoteOffEvent(tick=480, channel=12, data=[34, 0]),
   midi.NoteOnEvent(tick=0, channel=12, data=[39, 127]),
   midi.NoteOffEvent(tick=960, channel=12, data=[39, 0]),
   midi.NoteOnEvent(tick=5280, channel=12, data=[31, 113]),
   midi.NoteOffEvent(tick=480, channel=12, data=[31, 0]),
   midi.NoteOnEvent(tick=0, channel=12, data=[31, 113]),
   midi.NoteOffEvent(tick=480, channel=12, data=[31, 0]),
   midi.NoteOnEvent(tick=0, channel=12, data=[31, 113]),
   midi.NoteOffEvent(tick=480, channel=12, data=[31, 0]),
   midi.NoteOnEvent(tick=0, channel=12, data=[27, 115]),
   midi.NoteOffEvent(tick=2880, channel=12, data=[27, 0]),
   midi.NoteOnEvent(tick=480, channel=12, data=[29, 113]),
   midi.NoteOffEvent(tick=480, channel=12, data=[29, 0]),
   midi.NoteOnEvent(tick=0, channel=12, data=[29, 113]),
   midi.NoteOffEvent(tick=480, channel=12, data=[29, 0]),
   midi.NoteOnEvent(tick=0, channel=12, data=[29, 113]),
   midi.NoteOffEvent(tick=480, channel=12, data=[29, 0]),
   midi.NoteOnEvent(tick=0, channel=12, data=[26, 115]),
   midi.NoteOffEvent(tick=2880, channel=12, data=[26, 0]),
   midi.NoteOnEvent(tick=23520, channel=12, data=[35, 61]),
   midi.NoteOffEvent(tick=480, channel=12, data=[35, 0]),
   midi.NoteOnEvent(tick=0, channel=12, data=[35, 61]),
   midi.NoteOffEvent(tick=480, channel=12, data=[35, 0]),
   midi.NoteOnEvent(tick=0, channel=12, data=[35, 78]),
   midi.NoteOffEvent(tick=480, channel=12, data=[35, 0]),
   midi.NoteOnEvent(tick=0, channel=12, data=[36, 105]),
   midi.NoteOffEvent(tick=960, channel=12, data=[36, 0]),
   midi.NoteOnEvent(tick=960, channel=12, data=[32, 101]),
   midi.NoteOffEvent(tick=960, channel=12, data=[32, 0]),
   midi.NoteOnEvent(tick=960, channel=12, data=[31, 102]),
   midi.NoteOffEvent(tick=960, channel=12, data=[31, 0]),
   midi.NoteOnEvent(tick=3360, channel=12, data=[32, 113]),
   midi.NoteOffEvent(tick=480, channel=12, data=[32, 0]),
   midi.NoteOnEvent(tick=0, channel=12, data=[32, 113]),
   midi.NoteOffEvent(tick=480, channel=12, data=[32, 0]),
   midi.NoteOnEvent(tick=0, channel=12, data=[32, 113]),
   midi.NoteOffEvent(tick=480, channel=12, data=[32, 0]),
   midi.NoteOnEvent(tick=0, channel=12, data=[29, 116]),
   midi.NoteOffEvent(tick=3840, channel=12, data=[29, 0]),
   midi.NoteOnEvent(tick=6240, channel=12, data=[31, 61]),
   midi.NoteOffEvent(tick=480, channel=12, data=[31, 0]),
   midi.NoteOnEvent(tick=0, channel=12, data=[31, 61]),
   midi.NoteOffEvent(tick=480, channel=12, data=[31, 0]),
   midi.NoteOnEvent(tick=0, channel=12, data=[31, 61]),
   midi.NoteOffEvent(tick=480, channel=12, data=[31, 0]),
   midi.NoteOnEvent(tick=0, channel=12, data=[36, 68]),
   midi.NoteOffEvent(tick=960, channel=12, data=[36, 0]),
   midi.NoteOnEvent(tick=5280, channel=12, data=[31, 61]),
   midi.NoteOffEvent(tick=480, channel=12, data=[31, 0]),
   midi.NoteOnEvent(tick=0, channel=12, data=[31, 61]),
   midi.NoteOffEvent(tick=480, channel=12, data=[31, 0]),
   midi.NoteOnEvent(tick=0, channel=12, data=[31, 61]),
   midi.NoteOffEvent(tick=480, channel=12, data=[31, 0]),
   midi.NoteOnEvent(tick=0, channel=12, data=[36, 68]),
   midi.NoteOffEvent(tick=960, channel=12, data=[36, 0]),
   midi.NoteOnEvent(tick=1440, channel=12, data=[36, 86]),
   midi.NoteOffEvent(tick=480, channel=12, data=[36, 0]),
   midi.NoteOnEvent(tick=0, channel=12, data=[36, 86]),
   midi.NoteOffEvent(tick=480, channel=12, data=[36, 0]),
   midi.NoteOnEvent(tick=0, channel=12, data=[36, 85]),
   midi.NoteOffEvent(tick=480, channel=12, data=[36, 0]),
   midi.NoteOnEvent(tick=0, channel=12, data=[36, 90]),
   midi.NoteOffEvent(tick=960, channel=12, data=[36, 0]),
   midi.NoteOnEvent(tick=1440, channel=12, data=[36, 84]),
   midi.NoteOffEvent(tick=480, channel=12, data=[36, 0]),
   midi.NoteOnEvent(tick=0, channel=12, data=[36, 84]),
   midi.NoteOffEvent(tick=480, channel=12, data=[36, 0]),
   midi.NoteOnEvent(tick=0, channel=12, data=[36, 84]),
   midi.NoteOffEvent(tick=480, channel=12, data=[36, 0]),
   midi.NoteOnEvent(tick=0, channel=12, data=[36, 89]),
   midi.NoteOffEvent(tick=960, channel=12, data=[36, 0]),
   midi.NoteOnEvent(tick=960, channel=12, data=[36, 104]),
   midi.NoteOffEvent(tick=960, channel=12, data=[36, 0]),
   midi.NoteOnEvent(tick=960, channel=12, data=[36, 104]),
   midi.NoteOffEvent(tick=960, channel=12, data=[36, 0]),
   midi.NoteOnEvent(tick=960, channel=12, data=[36, 104]),
   midi.NoteOffEvent(tick=960, channel=12, data=[36, 0]),
   midi.NoteOnEvent(tick=960, channel=12, data=[36, 104]),
   midi.NoteOffEvent(tick=960, channel=12, data=[36, 0]),
   midi.NoteOnEvent(tick=960, channel=12, data=[36, 104]),
   midi.NoteOffEvent(tick=960, channel=12, data=[36, 0]),
   midi.NoteOnEvent(tick=960, channel=12, data=[36, 104]),
   midi.NoteOffEvent(tick=960, channel=12, data=[36, 0]),
   midi.NoteOnEvent(tick=960, channel=12, data=[36, 104]),
   midi.NoteOffEvent(tick=6240, channel=12, data=[36, 0]),
   midi.NoteOnEvent(tick=0, channel=12, data=[36, 98]),
   midi.NoteOffEvent(tick=480, channel=12, data=[36, 0]),
   midi.NoteOnEvent(tick=0, channel=12, data=[36, 98]),
   midi.NoteOffEvent(tick=480, channel=12, data=[36, 0]),
   midi.NoteOnEvent(tick=0, channel=12, data=[36, 98]),
   midi.NoteOffEvent(tick=480, channel=12, data=[36, 0]),
   midi.NoteOnEvent(tick=0, channel=12, data=[31, 98]),
   midi.NoteOffEvent(tick=6240, channel=12, data=[31, 0]),
   midi.NoteOnEvent(tick=0, channel=12, data=[31, 98]),
   midi.NoteOffEvent(tick=480, channel=12, data=[31, 0]),
   midi.NoteOnEvent(tick=0, channel=12, data=[36, 100]),
   midi.NoteOffEvent(tick=480, channel=12, data=[36, 0]),
   midi.NoteOnEvent(tick=0, channel=12, data=[36, 100]),
   midi.NoteOffEvent(tick=480, channel=12, data=[36, 0]),
   midi.NoteOnEvent(tick=0, channel=12, data=[36, 122]),
   midi.NoteOffEvent(tick=480, channel=12, data=[36, 0]),
   midi.NoteOnEvent(tick=0, channel=12, data=[36, 115]),
   midi.NoteOffEvent(tick=480, channel=12, data=[36, 0]),
   midi.NoteOnEvent(tick=0, channel=12, data=[36, 114]),
   midi.NoteOffEvent(tick=480, channel=12, data=[36, 0]),
   midi.NoteOnEvent(tick=0, channel=12, data=[36, 114]),
   midi.NoteOffEvent(tick=480, channel=12, data=[36, 0]),
   midi.NoteOnEvent(tick=0, channel=12, data=[36, 121]),
   midi.NoteOffEvent(tick=480, channel=12, data=[36, 0]),
   midi.NoteOnEvent(tick=0, channel=12, data=[36, 114]),
   midi.NoteOffEvent(tick=480, channel=12, data=[36, 0]),
   midi.NoteOnEvent(tick=0, channel=12, data=[36, 114]),
   midi.NoteOffEvent(tick=480, channel=12, data=[36, 0]),
   midi.NoteOnEvent(tick=0, channel=12, data=[36, 114]),
   midi.NoteOffEvent(tick=480, channel=12, data=[36, 0]),
   midi.NoteOnEvent(tick=0, channel=12, data=[36, 120]),
   midi.NoteOffEvent(tick=480, channel=12, data=[36, 0]),
   midi.NoteOnEvent(tick=0, channel=12, data=[36, 113]),
   midi.NoteOffEvent(tick=480, channel=12, data=[36, 0]),
   midi.NoteOnEvent(tick=0, channel=12, data=[36, 113]),
   midi.NoteOffEvent(tick=480, channel=12, data=[36, 0]),
   midi.NoteOnEvent(tick=0, channel=12, data=[36, 113]),
   midi.NoteOffEvent(tick=480, channel=12, data=[36, 0]),
   midi.NoteOnEvent(tick=0, channel=12, data=[36, 120]),
   midi.NoteOffEvent(tick=480, channel=12, data=[36, 0]),
   midi.NoteOnEvent(tick=0, channel=12, data=[36, 113]),
   midi.NoteOffEvent(tick=480, channel=12, data=[36, 0]),
   midi.NoteOnEvent(tick=0, channel=12, data=[36, 113]),
   midi.NoteOffEvent(tick=480, channel=12, data=[36, 0]),
   midi.NoteOnEvent(tick=480, channel=12, data=[36, 120]),
   midi.NoteOffEvent(tick=960, channel=12, data=[36, 0]),
   midi.NoteOnEvent(tick=2880, channel=12, data=[38, 121]),
   midi.NoteOffEvent(tick=960, channel=12, data=[38, 0]),
   midi.NoteOnEvent(tick=12960, channel=12, data=[34, 61]),
   midi.NoteOffEvent(tick=480, channel=12, data=[34, 0]),
   midi.NoteOnEvent(tick=0, channel=12, data=[34, 61]),
   midi.NoteOffEvent(tick=480, channel=12, data=[34, 0]),
   midi.NoteOnEvent(tick=0, channel=12, data=[34, 61]),
   midi.NoteOffEvent(tick=480, channel=12, data=[34, 0]),
   midi.NoteOnEvent(tick=0, channel=12, data=[39, 68]),
   midi.NoteOffEvent(tick=960, channel=12, data=[39, 0]),
   midi.NoteOnEvent(tick=5280, channel=12, data=[34, 61]),
   midi.NoteOffEvent(tick=480, channel=12, data=[34, 0]),
   midi.NoteOnEvent(tick=0, channel=12, data=[34, 61]),
   midi.NoteOffEvent(tick=480, channel=12, data=[34, 0]),
   midi.NoteOnEvent(tick=0, channel=12, data=[34, 61]),
   midi.NoteOffEvent(tick=480, channel=12, data=[34, 0]),
   midi.NoteOnEvent(tick=0, channel=12, data=[39, 68]),
   midi.NoteOffEvent(tick=960, channel=12, data=[39, 0]),
   midi.NoteOnEvent(tick=5280, channel=12, data=[34, 61]),
   midi.NoteOffEvent(tick=480, channel=12, data=[34, 0]),
   midi.NoteOnEvent(tick=0, channel=12, data=[34, 61]),
   midi.NoteOffEvent(tick=480, channel=12, data=[34, 0]),
   midi.NoteOnEvent(tick=0, channel=12, data=[34, 61]),
   midi.NoteOffEvent(tick=480, channel=12, data=[34, 0]),
   midi.NoteOnEvent(tick=0, channel=12, data=[39, 68]),
   midi.NoteOffEvent(tick=960, channel=12, data=[39, 0]),
   midi.NoteOnEvent(tick=5280, channel=12, data=[36, 61]),
   midi.NoteOffEvent(tick=480, channel=12, data=[36, 0]),
   midi.NoteOnEvent(tick=0, channel=12, data=[36, 61]),
   midi.NoteOffEvent(tick=480, channel=12, data=[36, 0]),
   midi.NoteOnEvent(tick=0, channel=12, data=[36, 61]),
   midi.NoteOffEvent(tick=480, channel=12, data=[36, 0]),
   midi.NoteOnEvent(tick=0, channel=12, data=[41, 68]),
   midi.NoteOffEvent(tick=960, channel=12, data=[41, 0]),
   midi.NoteOnEvent(tick=5280, channel=12, data=[39, 61]),
   midi.NoteOffEvent(tick=480, channel=12, data=[39, 0]),
   midi.NoteOnEvent(tick=0, channel=12, data=[39, 61]),
   midi.NoteOffEvent(tick=480, channel=12, data=[39, 0]),
   midi.NoteOnEvent(tick=0, channel=12, data=[39, 61]),
   midi.NoteOffEvent(tick=480, channel=12, data=[39, 0]),
   midi.NoteOnEvent(tick=0, channel=12, data=[44, 68]),
   midi.NoteOffEvent(tick=960, channel=12, data=[44, 0]),
   midi.NoteOnEvent(tick=3360, channel=12, data=[45, 62]),
   midi.NoteOffEvent(tick=480, channel=12, data=[45, 0]),
   midi.NoteOnEvent(tick=0, channel=12, data=[45, 62]),
   midi.NoteOffEvent(tick=480, channel=12, data=[45, 0]),
   midi.NoteOnEvent(tick=0, channel=12, data=[45, 67]),
   midi.NoteOffEvent(tick=480, channel=12, data=[45, 0]),
   midi.NoteOnEvent(tick=0, channel=12, data=[45, 76]),
   midi.NoteOffEvent(tick=960, channel=12, data=[45, 0]),
   midi.NoteOnEvent(tick=1440, channel=12, data=[46, 72]),
   midi.NoteOffEvent(tick=480, channel=12, data=[46, 0]),
   midi.NoteOnEvent(tick=0, channel=12, data=[46, 72]),
   midi.NoteOffEvent(tick=480, channel=12, data=[46, 0]),
   midi.NoteOnEvent(tick=0, channel=12, data=[46, 72]),
   midi.NoteOffEvent(tick=480, channel=12, data=[46, 0]),
   midi.NoteOnEvent(tick=0, channel=12, data=[46, 76]),
   midi.NoteOffEvent(tick=960, channel=12, data=[46, 0]),
   midi.NoteOnEvent(tick=1440, channel=12, data=[47, 85]),
   midi.NoteOffEvent(tick=480, channel=12, data=[47, 0]),
   midi.NoteOnEvent(tick=0, channel=12, data=[47, 85]),
   midi.NoteOffEvent(tick=480, channel=12, data=[47, 0]),
   midi.NoteOnEvent(tick=0, channel=12, data=[47, 84]),
   midi.NoteOffEvent(tick=480, channel=12, data=[47, 0]),
   midi.NoteOnEvent(tick=0, channel=12, data=[47, 89]),
   midi.NoteOffEvent(tick=960, channel=12, data=[47, 0]),
   midi.NoteOnEvent(tick=1440, channel=12, data=[48, 85]),
   midi.NoteOffEvent(tick=480, channel=12, data=[48, 0]),
   midi.NoteOnEvent(tick=0, channel=12, data=[48, 85]),
   midi.NoteOffEvent(tick=480, channel=12, data=[48, 0]),
   midi.NoteOnEvent(tick=0, channel=12, data=[48, 84]),
   midi.NoteOffEvent(tick=480, channel=12, data=[48, 0]),
   midi.NoteOnEvent(tick=0, channel=12, data=[48, 89]),
   midi.NoteOffEvent(tick=960, channel=12, data=[48, 0]),
   midi.NoteOnEvent(tick=1440, channel=12, data=[48, 84]),
   midi.NoteOffEvent(tick=480, channel=12, data=[48, 0]),
   midi.NoteOnEvent(tick=0, channel=12, data=[48, 84]),
   midi.NoteOffEvent(tick=480, channel=12, data=[48, 0]),
   midi.NoteOnEvent(tick=0, channel=12, data=[48, 84]),
   midi.NoteOffEvent(tick=480, channel=12, data=[48, 0]),
   midi.NoteOnEvent(tick=0, channel=12, data=[48, 89]),
   midi.NoteOffEvent(tick=960, channel=12, data=[48, 0]),
   midi.NoteOnEvent(tick=0, channel=12, data=[48, 84]),
   midi.NoteOffEvent(tick=480, channel=12, data=[48, 0]),
   midi.NoteOnEvent(tick=0, channel=12, data=[48, 84]),
   midi.NoteOffEvent(tick=480, channel=12, data=[48, 0]),
   midi.NoteOnEvent(tick=0, channel=12, data=[50, 126]),
   midi.NoteOffEvent(tick=2880, channel=12, data=[50, 0]),
   midi.NoteOnEvent(tick=0, channel=12, data=[38, 104]),
   midi.NoteOffEvent(tick=960, channel=12, data=[38, 0]),
   midi.NoteOnEvent(tick=0, channel=12, data=[39, 115]),
   midi.NoteOffEvent(tick=960, channel=12, data=[39, 0]),
   midi.NoteOnEvent(tick=960, channel=12, data=[41, 120]),
   midi.NoteOffEvent(tick=960, channel=12, data=[41, 0]),
   midi.NoteOnEvent(tick=960, channel=12, data=[43, 122]),
   midi.NoteOffEvent(tick=960, channel=12, data=[43, 0]),
   midi.NoteOnEvent(tick=960, channel=12, data=[44, 121]),
   midi.NoteOffEvent(tick=960, channel=12, data=[44, 0]),
   midi.NoteOnEvent(tick=960, channel=12, data=[46, 122]),
   midi.NoteOffEvent(tick=960, channel=12, data=[46, 0]),
   midi.NoteOnEvent(tick=960, channel=12, data=[34, 114]),
   midi.NoteOffEvent(tick=960, channel=12, data=[34, 0]),
   midi.NoteOnEvent(tick=960, channel=12, data=[38, 119]),
   midi.NoteOffEvent(tick=960, channel=12, data=[38, 0]),
   midi.NoteOnEvent(tick=0, channel=12, data=[41, 115]),
   midi.NoteOffEvent(tick=960, channel=12, data=[41, 0]),
   midi.NoteOnEvent(tick=0, channel=12, data=[38, 119]),
   midi.NoteOffEvent(tick=960, channel=12, data=[38, 0]),
   midi.NoteOnEvent(tick=0, channel=12, data=[41, 115]),
   midi.NoteOffEvent(tick=960, channel=12, data=[41, 0]),
   midi.NoteOnEvent(tick=0, channel=12, data=[39, 119]),
   midi.NoteOffEvent(tick=960, channel=12, data=[39, 0]),
   midi.NoteOnEvent(tick=0, channel=12, data=[43, 117]),
   midi.NoteOffEvent(tick=960, channel=12, data=[43, 0]),
   midi.NoteOnEvent(tick=0, channel=12, data=[41, 120]),
   midi.NoteOffEvent(tick=960, channel=12, data=[41, 0]),
   midi.NoteOnEvent(tick=0, channel=12, data=[44, 117]),
   midi.NoteOffEvent(tick=960, channel=12, data=[44, 0]),
   midi.NoteOnEvent(tick=0, channel=12, data=[43, 121]),
   midi.NoteOffEvent(tick=960, channel=12, data=[43, 0]),
   midi.NoteOnEvent(tick=0, channel=12, data=[46, 119]),
   midi.NoteOffEvent(tick=960, channel=12, data=[46, 0]),
   midi.NoteOnEvent(tick=0, channel=12, data=[44, 120]),
   midi.NoteOffEvent(tick=960, channel=12, data=[44, 0]),
   midi.NoteOnEvent(tick=0, channel=12, data=[48, 120]),
   midi.NoteOffEvent(tick=960, channel=12, data=[48, 0]),
   midi.NoteOnEvent(tick=0, channel=12, data=[46, 121]),
   midi.NoteOffEvent(tick=960, channel=12, data=[46, 0]),
   midi.NoteOnEvent(tick=0, channel=12, data=[34, 100]),
   midi.NoteOffEvent(tick=960, channel=12, data=[34, 0]),
   midi.NoteOnEvent(tick=0, channel=12, data=[46, 126]),
   midi.NoteOffEvent(tick=960, channel=12, data=[46, 0]),
   midi.NoteOnEvent(tick=0, channel=12, data=[34, 102]),
   midi.NoteOffEvent(tick=960, channel=12, data=[34, 0]),
   midi.NoteOnEvent(tick=0, channel=12, data=[39, 118]),
   midi.NoteOffEvent(tick=6240, channel=12, data=[39, 0]),
   midi.NoteOnEvent(tick=0, channel=12, data=[34, 113]),
   midi.NoteOffEvent(tick=480, channel=12, data=[34, 0]),
   midi.NoteOnEvent(tick=0, channel=12, data=[34, 113]),
   midi.NoteOffEvent(tick=480, channel=12, data=[34, 0]),
   midi.NoteOnEvent(tick=0, channel=12, data=[34, 113]),
   midi.NoteOffEvent(tick=480, channel=12, data=[34, 0]),
   midi.NoteOnEvent(tick=0, channel=12, data=[39, 126]),
   midi.NoteOffEvent(tick=6240, channel=12, data=[39, 0]),
   midi.NoteOnEvent(tick=0, channel=12, data=[34, 113]),
   midi.NoteOffEvent(tick=480, channel=12, data=[34, 0]),
   midi.NoteOnEvent(tick=0, channel=12, data=[34, 113]),
   midi.NoteOffEvent(tick=480, channel=12, data=[34, 0]),
   midi.NoteOnEvent(tick=0, channel=12, data=[34, 113]),
   midi.NoteOffEvent(tick=480, channel=12, data=[34, 0]),
   midi.NoteOnEvent(tick=0, channel=12, data=[39, 126]),
   midi.NoteOffEvent(tick=960, channel=12, data=[39, 0]),
   midi.NoteOnEvent(tick=1440, channel=12, data=[34, 112]),
   midi.NoteOffEvent(tick=480, channel=12, data=[34, 0]),
   midi.NoteOnEvent(tick=0, channel=12, data=[34, 112]),
   midi.NoteOffEvent(tick=480, channel=12, data=[34, 0]),
   midi.NoteOnEvent(tick=0, channel=12, data=[34, 112]),
   midi.NoteOffEvent(tick=480, channel=12, data=[34, 0]),
   midi.NoteOnEvent(tick=0, channel=12, data=[39, 127]),
   midi.NoteOffEvent(tick=960, channel=12, data=[39, 0]),
   midi.NoteOnEvent(tick=1440, channel=12, data=[34, 112]),
   midi.NoteOffEvent(tick=480, channel=12, data=[34, 0]),
   midi.NoteOnEvent(tick=0, channel=12, data=[34, 112]),
   midi.NoteOffEvent(tick=480, channel=12, data=[34, 0]),
   midi.NoteOnEvent(tick=0, channel=12, data=[34, 112]),
   midi.NoteOffEvent(tick=480, channel=12, data=[34, 0]),
   midi.NoteOnEvent(tick=0, channel=12, data=[39, 127]),
   midi.NoteOffEvent(tick=960, channel=12, data=[39, 0]),
   midi.NoteOnEvent(tick=7200, channel=12, data=[37, 113]),
   midi.NoteOffEvent(tick=480, channel=12, data=[37, 0]),
   midi.NoteOnEvent(tick=0, channel=12, data=[37, 113]),
   midi.NoteOffEvent(tick=480, channel=12, data=[37, 0]),
   midi.NoteOnEvent(tick=0, channel=12, data=[37, 113]),
   midi.NoteOffEvent(tick=480, channel=12, data=[37, 0]),
   midi.NoteOnEvent(tick=0, channel=12, data=[36, 119]),
   midi.NoteOffEvent(tick=3840, channel=12, data=[36, 0]),
   midi.NoteOnEvent(tick=31680, channel=12, data=[31, 61]),
   midi.NoteOffEvent(tick=480, channel=12, data=[31, 0]),
   midi.NoteOnEvent(tick=480, channel=12, data=[36, 66]),
   midi.NoteOffEvent(tick=480, channel=12, data=[36, 0]),
   midi.NoteOnEvent(tick=1440, channel=12, data=[31, 64]),
   midi.NoteOffEvent(tick=480, channel=12, data=[31, 0]),
   midi.NoteOnEvent(tick=1440, channel=12, data=[36, 66]),
   midi.NoteOffEvent(tick=480, channel=12, data=[36, 0]),
   midi.NoteOnEvent(tick=1440, channel=12, data=[31, 64]),
   midi.NoteOffEvent(tick=480, channel=12, data=[31, 0]),
   midi.NoteOnEvent(tick=1440, channel=12, data=[36, 66]),
   midi.NoteOffEvent(tick=480, channel=12, data=[36, 0]),
   midi.NoteOnEvent(tick=3360, channel=12, data=[33, 64]),
   midi.NoteOffEvent(tick=480, channel=12, data=[33, 0]),
   midi.NoteOnEvent(tick=1440, channel=12, data=[38, 66]),
   midi.NoteOffEvent(tick=480, channel=12, data=[38, 0]),
   midi.NoteOnEvent(tick=1440, channel=12, data=[43, 66]),
   midi.NoteOffEvent(tick=480, channel=12, data=[43, 0]),
   midi.NoteOnEvent(tick=1440, channel=12, data=[38, 64]),
   midi.NoteOffEvent(tick=480, channel=12, data=[38, 0]),
   midi.NoteOnEvent(tick=1440, channel=12, data=[43, 66]),
   midi.NoteOffEvent(tick=480, channel=12, data=[43, 0]),
   midi.NoteOnEvent(tick=1440, channel=12, data=[38, 64]),
   midi.NoteOffEvent(tick=480, channel=12, data=[38, 0]),
   midi.NoteOnEvent(tick=1440, channel=12, data=[31, 62]),
   midi.NoteOffEvent(tick=2400, channel=12, data=[31, 0]),
   midi.NoteOnEvent(tick=0, channel=12, data=[31, 60]),
   midi.NoteOffEvent(tick=480, channel=12, data=[31, 0]),
   midi.NoteOnEvent(tick=0, channel=12, data=[31, 60]),
   midi.NoteOffEvent(tick=480, channel=12, data=[31, 0]),
   midi.NoteOnEvent(tick=0, channel=12, data=[31, 61]),
   midi.NoteOffEvent(tick=480, channel=12, data=[31, 0]),
   midi.NoteOnEvent(tick=0, channel=12, data=[33, 66]),
   midi.NoteOffEvent(tick=2400, channel=12, data=[33, 0]),
   midi.NoteOnEvent(tick=0, channel=12, data=[33, 62]),
   midi.NoteOffEvent(tick=480, channel=12, data=[33, 0]),
   midi.NoteOnEvent(tick=0, channel=12, data=[33, 61]),
   midi.NoteOffEvent(tick=480, channel=12, data=[33, 0]),
   midi.NoteOnEvent(tick=0, channel=12, data=[33, 61]),
   midi.NoteOffEvent(tick=480, channel=12, data=[33, 0]),
   midi.NoteOnEvent(tick=0, channel=12, data=[33, 65]),
   midi.NoteOffEvent(tick=2400, channel=12, data=[33, 0]),
   midi.NoteOnEvent(tick=0, channel=12, data=[33, 61]),
   midi.NoteOffEvent(tick=480, channel=12, data=[33, 0]),
   midi.NoteOnEvent(tick=0, channel=12, data=[33, 61]),
   midi.NoteOffEvent(tick=480, channel=12, data=[33, 0]),
   midi.NoteOnEvent(tick=0, channel=12, data=[33, 61]),
   midi.NoteOffEvent(tick=480, channel=12, data=[33, 0]),
   midi.NoteOnEvent(tick=0, channel=12, data=[34, 66]),
   midi.NoteOffEvent(tick=2400, channel=12, data=[34, 0]),
   midi.NoteOnEvent(tick=0, channel=12, data=[34, 61]),
   midi.NoteOffEvent(tick=480, channel=12, data=[34, 0]),
   midi.NoteOnEvent(tick=0, channel=12, data=[34, 61]),
   midi.NoteOffEvent(tick=480, channel=12, data=[34, 0]),
   midi.NoteOnEvent(tick=0, channel=12, data=[34, 61]),
   midi.NoteOffEvent(tick=480, channel=12, data=[34, 0]),
   midi.NoteOnEvent(tick=0, channel=12, data=[34, 89]),
   midi.NoteOffEvent(tick=2400, channel=12, data=[34, 0]),
   midi.NoteOnEvent(tick=0, channel=12, data=[34, 84]),
   midi.NoteOffEvent(tick=480, channel=12, data=[34, 0]),
   midi.NoteOnEvent(tick=0, channel=12, data=[34, 84]),
   midi.NoteOffEvent(tick=480, channel=12, data=[34, 0]),
   midi.NoteOnEvent(tick=0, channel=12, data=[34, 84]),
   midi.NoteOffEvent(tick=480, channel=12, data=[34, 0]),
   midi.NoteOnEvent(tick=0, channel=12, data=[36, 107]),
   midi.NoteOffEvent(tick=480, channel=12, data=[36, 0]),
   midi.NoteOnEvent(tick=0, channel=12, data=[36, 100]),
   midi.NoteOffEvent(tick=480, channel=12, data=[36, 0]),
   midi.NoteOnEvent(tick=0, channel=12, data=[36, 100]),
   midi.NoteOffEvent(tick=480, channel=12, data=[36, 0]),
   midi.NoteOnEvent(tick=0, channel=12, data=[36, 100]),
   midi.NoteOffEvent(tick=480, channel=12, data=[36, 0]),
   midi.NoteOnEvent(tick=0, channel=12, data=[36, 105]),
   midi.NoteOffEvent(tick=480, channel=12, data=[36, 0]),
   midi.NoteOnEvent(tick=0, channel=12, data=[36, 99]),
   midi.NoteOffEvent(tick=480, channel=12, data=[36, 0]),
   midi.NoteOnEvent(tick=0, channel=12, data=[36, 99]),
   midi.NoteOffEvent(tick=480, channel=12, data=[36, 0]),
   midi.NoteOnEvent(tick=0, channel=12, data=[36, 98]),
   midi.NoteOffEvent(tick=480, channel=12, data=[36, 0]),
   midi.NoteOnEvent(tick=0, channel=12, data=[36, 104]),
   midi.NoteOffEvent(tick=960, channel=12, data=[36, 0]),
   midi.NoteOnEvent(tick=1440, channel=12, data=[37, 99]),
   midi.NoteOffEvent(tick=480, channel=12, data=[37, 0]),
   midi.NoteOnEvent(tick=0, channel=12, data=[37, 99]),
   midi.NoteOffEvent(tick=480, channel=12, data=[37, 0]),
   midi.NoteOnEvent(tick=0, channel=12, data=[37, 98]),
   midi.NoteOffEvent(tick=480, channel=12, data=[37, 0]),
   midi.NoteOnEvent(tick=0, channel=12, data=[37, 104]),
   midi.NoteOffEvent(tick=480, channel=12, data=[37, 0]),
   midi.NoteOnEvent(tick=0, channel=12, data=[37, 98]),
   midi.NoteOffEvent(tick=480, channel=12, data=[37, 0]),
   midi.NoteOnEvent(tick=0, channel=12, data=[37, 98]),
   midi.NoteOffEvent(tick=480, channel=12, data=[37, 0]),
   midi.NoteOnEvent(tick=0, channel=12, data=[37, 98]),
   midi.NoteOffEvent(tick=480, channel=12, data=[37, 0]),
   midi.NoteOnEvent(tick=0, channel=12, data=[37, 104]),
   midi.NoteOffEvent(tick=480, channel=12, data=[37, 0]),
   midi.NoteOnEvent(tick=0, channel=12, data=[37, 98]),
   midi.NoteOffEvent(tick=480, channel=12, data=[37, 0]),
   midi.NoteOnEvent(tick=0, channel=12, data=[37, 98]),
   midi.NoteOffEvent(tick=480, channel=12, data=[37, 0]),
   midi.NoteOnEvent(tick=0, channel=12, data=[37, 98]),
   midi.NoteOffEvent(tick=480, channel=12, data=[37, 0]),
   midi.NoteOnEvent(tick=0, channel=12, data=[37, 104]),
   midi.NoteOffEvent(tick=960, channel=12, data=[37, 0]),
   midi.NoteOnEvent(tick=1440, channel=12, data=[38, 99]),
   midi.NoteOffEvent(tick=480, channel=12, data=[38, 0]),
   midi.NoteOnEvent(tick=0, channel=12, data=[38, 99]),
   midi.NoteOffEvent(tick=480, channel=12, data=[38, 0]),
   midi.NoteOnEvent(tick=0, channel=12, data=[38, 98]),
   midi.NoteOffEvent(tick=480, channel=12, data=[38, 0]),
   midi.NoteOnEvent(tick=0, channel=12, data=[38, 104]),
   midi.NoteOffEvent(tick=960, channel=12, data=[38, 0]),
   midi.NoteOnEvent(tick=1920, channel=12, data=[40, 99]),
   midi.NoteOffEvent(tick=480, channel=12, data=[40, 0]),
   midi.NoteOnEvent(tick=0, channel=12, data=[40, 99]),
   midi.NoteOffEvent(tick=480, channel=12, data=[40, 0]),
   midi.NoteOnEvent(tick=0, channel=12, data=[40, 105]),
   midi.NoteOffEvent(tick=960, channel=12, data=[40, 0]),
   midi.NoteOnEvent(tick=0, channel=12, data=[42, 101]),
   midi.NoteOffEvent(tick=480, channel=12, data=[42, 0]),
   midi.NoteOnEvent(tick=0, channel=12, data=[42, 100]),
   midi.NoteOffEvent(tick=480, channel=12, data=[42, 0]),
   midi.NoteOnEvent(tick=0, channel=12, data=[42, 106]),
   midi.NoteOffEvent(tick=960, channel=12, data=[42, 0]),
   midi.NoteOnEvent(tick=5760, channel=12, data=[48, 98]),
   midi.NoteOffEvent(tick=1920, channel=12, data=[48, 0]),
   midi.NoteOnEvent(tick=0, channel=12, data=[45, 97]),
   midi.NoteOffEvent(tick=960, channel=12, data=[45, 0]),
   midi.NoteOnEvent(tick=0, channel=12, data=[42, 101]),
   midi.NoteOffEvent(tick=960, channel=12, data=[42, 0]),
   midi.NoteOnEvent(tick=0, channel=12, data=[38, 93]),
   midi.NoteOffEvent(tick=960, channel=12, data=[38, 0]),
   midi.NoteOnEvent(tick=0, channel=12, data=[36, 98]),
   midi.NoteOffEvent(tick=960, channel=12, data=[36, 0]),
   midi.NoteOnEvent(tick=0, channel=12, data=[33, 91]),
   midi.NoteOffEvent(tick=960, channel=12, data=[33, 0]),
   midi.NoteOnEvent(tick=0, channel=12, data=[30, 96]),
   midi.NoteOffEvent(tick=960, channel=12, data=[30, 0]),
   midi.NoteOnEvent(tick=0, channel=12, data=[26, 89]),
   midi.NoteOffEvent(tick=960, channel=12, data=[26, 0]),
   midi.NoteOnEvent(tick=0, channel=12, data=[31, 103]),
   midi.NoteOffEvent(tick=960, channel=12, data=[31, 0]),
   midi.NoteOnEvent(tick=5760, channel=12, data=[53, 98]),
   midi.NoteOffEvent(tick=1920, channel=12, data=[53, 0]),
   midi.NoteOnEvent(tick=0, channel=12, data=[50, 97]),
   midi.NoteOffEvent(tick=960, channel=12, data=[50, 0]),
   midi.NoteOnEvent(tick=0, channel=12, data=[47, 101]),
   midi.NoteOffEvent(tick=960, channel=12, data=[47, 0]),
   midi.NoteOnEvent(tick=0, channel=12, data=[43, 93]),
   midi.NoteOffEvent(tick=960, channel=12, data=[43, 0]),
   midi.NoteOnEvent(tick=0, channel=12, data=[39, 97]),
   midi.NoteOffEvent(tick=960, channel=12, data=[39, 0]),
   midi.NoteOnEvent(tick=0, channel=12, data=[38, 92]),
   midi.NoteOffEvent(tick=960, channel=12, data=[38, 0]),
   midi.NoteOnEvent(tick=0, channel=12, data=[35, 97]),
   midi.NoteOffEvent(tick=960, channel=12, data=[35, 0]),
   midi.NoteOnEvent(tick=0, channel=12, data=[31, 90]),
   midi.NoteOffEvent(tick=960, channel=12, data=[31, 0]),
   midi.NoteOnEvent(tick=0, channel=12, data=[36, 103]),
   midi.NoteOffEvent(tick=960, channel=12, data=[36, 0]),
   midi.NoteOnEvent(tick=4800, channel=12, data=[31, 103]),
   midi.NoteOffEvent(tick=1920, channel=12, data=[31, 0]),
   midi.NoteOnEvent(tick=0, channel=12, data=[32, 104]),
   midi.NoteOffEvent(tick=1920, channel=12, data=[32, 0]),
   midi.NoteOnEvent(tick=3840, channel=12, data=[31, 104]),
   midi.NoteOffEvent(tick=1920, channel=12, data=[31, 0]),
   midi.NoteOnEvent(tick=0, channel=12, data=[32, 104]),
   midi.NoteOffEvent(tick=1920, channel=12, data=[32, 0]),
   midi.NoteOnEvent(tick=3840, channel=12, data=[34, 104]),
   midi.NoteOffEvent(tick=1920, channel=12, data=[34, 0]),
   midi.NoteOnEvent(tick=0, channel=12, data=[36, 104]),
   midi.NoteOffEvent(tick=1920, channel=12, data=[36, 0]),
   midi.NoteOnEvent(tick=3840, channel=12, data=[37, 104]),
   midi.NoteOffEvent(tick=1920, channel=12, data=[37, 0]),
   midi.NoteOnEvent(tick=1920, channel=12, data=[39, 76]),
   midi.NoteOffEvent(tick=1920, channel=12, data=[39, 0]),
   midi.NoteOnEvent(tick=1920, channel=12, data=[41, 76]),
   midi.NoteOffEvent(tick=1920, channel=12, data=[41, 0]),
   midi.NoteOnEvent(tick=1920, channel=12, data=[30, 64]),
   midi.NoteOffEvent(tick=1920, channel=12, data=[30, 0]),
   midi.NoteOnEvent(tick=1920, channel=12, data=[30, 65]),
   midi.NoteOffEvent(tick=1920, channel=12, data=[30, 0]),
   midi.NoteOnEvent(tick=1920, channel=12, data=[30, 65]),
   midi.NoteOffEvent(tick=1920, channel=12, data=[30, 0]),
   midi.NoteOnEvent(tick=1920, channel=12, data=[30, 42]),
   midi.NoteOffEvent(tick=1920, channel=12, data=[30, 0]),
   midi.NoteOnEvent(tick=1920, channel=12, data=[30, 42]),
   midi.NoteOffEvent(tick=1920, channel=12, data=[30, 0]),
   midi.NoteOnEvent(tick=1920, channel=12, data=[30, 42]),
   midi.NoteOffEvent(tick=1920, channel=12, data=[30, 0]),
   midi.NoteOnEvent(tick=1920, channel=12, data=[30, 120]),
   midi.NoteOffEvent(tick=480, channel=12, data=[30, 0]),
   midi.NoteOnEvent(tick=0, channel=12, data=[38, 118]),
   midi.NoteOffEvent(tick=480, channel=12, data=[38, 0]),
   midi.NoteOnEvent(tick=0, channel=12, data=[38, 117]),
   midi.NoteOffEvent(tick=480, channel=12, data=[38, 0]),
   midi.NoteOnEvent(tick=0, channel=12, data=[38, 116]),
   midi.NoteOffEvent(tick=480, channel=12, data=[38, 0]),
   midi.NoteOnEvent(tick=0, channel=12, data=[35, 118]),
   midi.NoteOffEvent(tick=1920, channel=12, data=[35, 0]),
   midi.NoteOnEvent(tick=0, channel=12, data=[36, 120]),
   midi.NoteOffEvent(tick=1920, channel=12, data=[36, 0]),
   midi.NoteOnEvent(tick=0, channel=12, data=[33, 117]),
   midi.NoteOffEvent(tick=3840, channel=12, data=[33, 0]),
   midi.NoteOnEvent(tick=1920, channel=12, data=[35, 42]),
   midi.NoteOffEvent(tick=1920, channel=12, data=[35, 0]),
   midi.NoteOnEvent(tick=1920, channel=12, data=[35, 42]),
   midi.NoteOffEvent(tick=1920, channel=12, data=[35, 0]),
   midi.NoteOnEvent(tick=1920, channel=12, data=[35, 42]),
   midi.NoteOffEvent(tick=1920, channel=12, data=[35, 0]),
   midi.NoteOnEvent(tick=1920, channel=12, data=[35, 120]),
   midi.NoteOffEvent(tick=480, channel=12, data=[35, 0]),
   midi.NoteOnEvent(tick=0, channel=12, data=[44, 119]),
   midi.NoteOffEvent(tick=480, channel=12, data=[44, 0]),
   midi.NoteOnEvent(tick=0, channel=12, data=[44, 118]),
   midi.NoteOffEvent(tick=480, channel=12, data=[44, 0]),
   midi.NoteOnEvent(tick=0, channel=12, data=[44, 117]),
   midi.NoteOffEvent(tick=480, channel=12, data=[44, 0]),
   midi.NoteOnEvent(tick=0, channel=12, data=[41, 118]),
   midi.NoteOffEvent(tick=2400, channel=12, data=[41, 0]),
   midi.NoteOnEvent(tick=0, channel=12, data=[44, 115]),
   midi.NoteOffEvent(tick=480, channel=12, data=[44, 0]),
   midi.NoteOnEvent(tick=0, channel=12, data=[44, 115]),
   midi.NoteOffEvent(tick=480, channel=12, data=[44, 0]),
   midi.NoteOnEvent(tick=0, channel=12, data=[44, 114]),
   midi.NoteOffEvent(tick=480, channel=12, data=[44, 0]),
   midi.NoteOnEvent(tick=0, channel=12, data=[41, 115]),
   midi.NoteOffEvent(tick=2400, channel=12, data=[41, 0]),
   midi.NoteOnEvent(tick=0, channel=12, data=[44, 114]),
   midi.NoteOffEvent(tick=480, channel=12, data=[44, 0]),
   midi.NoteOnEvent(tick=0, channel=12, data=[44, 114]),
   midi.NoteOffEvent(tick=480, channel=12, data=[44, 0]),
   midi.NoteOnEvent(tick=0, channel=12, data=[44, 114]),
   midi.NoteOffEvent(tick=480, channel=12, data=[44, 0]),
   midi.NoteOnEvent(tick=0, channel=12, data=[41, 115]),
   midi.NoteOffEvent(tick=480, channel=12, data=[41, 0]),
   midi.NoteOnEvent(tick=0, channel=12, data=[44, 115]),
   midi.NoteOffEvent(tick=480, channel=12, data=[44, 0]),
   midi.NoteOnEvent(tick=0, channel=12, data=[44, 115]),
   midi.NoteOffEvent(tick=480, channel=12, data=[44, 0]),
   midi.NoteOnEvent(tick=0, channel=12, data=[44, 114]),
   midi.NoteOffEvent(tick=480, channel=12, data=[44, 0]),
   midi.NoteOnEvent(tick=0, channel=12, data=[41, 114]),
   midi.NoteOffEvent(tick=480, channel=12, data=[41, 0]),
   midi.NoteOnEvent(tick=0, channel=12, data=[44, 115]),
   midi.NoteOffEvent(tick=480, channel=12, data=[44, 0]),
   midi.NoteOnEvent(tick=0, channel=12, data=[44, 115]),
   midi.NoteOffEvent(tick=480, channel=12, data=[44, 0]),
   midi.NoteOnEvent(tick=0, channel=12, data=[44, 115]),
   midi.NoteOffEvent(tick=480, channel=12, data=[44, 0]),
   midi.NoteOnEvent(tick=0, channel=12, data=[41, 113]),
   midi.NoteOffEvent(tick=480, channel=12, data=[41, 0]),
   midi.NoteOnEvent(tick=0, channel=12, data=[44, 116]),
   midi.NoteOffEvent(tick=480, channel=12, data=[44, 0]),
   midi.NoteOnEvent(tick=0, channel=12, data=[44, 115]),
   midi.NoteOffEvent(tick=480, channel=12, data=[44, 0]),
   midi.NoteOnEvent(tick=0, channel=12, data=[44, 115]),
   midi.NoteOffEvent(tick=480, channel=12, data=[44, 0]),
   midi.NoteOnEvent(tick=0, channel=12, data=[41, 113]),
   midi.NoteOffEvent(tick=480, channel=12, data=[41, 0]),
   midi.NoteOnEvent(tick=0, channel=12, data=[43, 113]),
   midi.NoteOffEvent(tick=480, channel=12, data=[43, 0]),
   midi.NoteOnEvent(tick=0, channel=12, data=[43, 113]),
   midi.NoteOffEvent(tick=480, channel=12, data=[43, 0]),
   midi.NoteOnEvent(tick=0, channel=12, data=[43, 113]),
   midi.NoteOffEvent(tick=480, channel=12, data=[43, 0]),
   midi.NoteOnEvent(tick=0, channel=12, data=[39, 114]),
   midi.NoteOffEvent(tick=3840, channel=12, data=[39, 0]),
   midi.NoteOnEvent(tick=2400, channel=12, data=[41, 113]),
   midi.NoteOffEvent(tick=480, channel=12, data=[41, 0]),
   midi.NoteOnEvent(tick=0, channel=12, data=[41, 113]),
   midi.NoteOffEvent(tick=480, channel=12, data=[41, 0]),
   midi.NoteOnEvent(tick=0, channel=12, data=[41, 113]),
   midi.NoteOffEvent(tick=480, channel=12, data=[41, 0]),
   midi.NoteOnEvent(tick=0, channel=12, data=[38, 117]),
   midi.NoteOffEvent(tick=5760, channel=12, data=[38, 0]),
   midi.NoteOnEvent(tick=3840, channel=12, data=[36, 65]),
   midi.NoteOffEvent(tick=480, channel=12, data=[36, 0]),
   midi.NoteOnEvent(tick=3360, channel=12, data=[36, 65]),
   midi.NoteOffEvent(tick=480, channel=12, data=[36, 0]),
   midi.NoteOnEvent(tick=3360, channel=12, data=[35, 65]),
   midi.NoteOffEvent(tick=480, channel=12, data=[35, 0]),
   midi.NoteOnEvent(tick=3360, channel=12, data=[35, 65]),
   midi.NoteOffEvent(tick=480, channel=12, data=[35, 0]),
   midi.NoteOnEvent(tick=3360, channel=12, data=[36, 65]),
   midi.NoteOffEvent(tick=480, channel=12, data=[36, 0]),
   midi.NoteOnEvent(tick=1440, channel=12, data=[35, 65]),
   midi.NoteOffEvent(tick=480, channel=12, data=[35, 0]),
   midi.NoteOnEvent(tick=1440, channel=12, data=[36, 65]),
   midi.NoteOffEvent(tick=480, channel=12, data=[36, 0]),
   midi.NoteOnEvent(tick=1440, channel=12, data=[31, 64]),
   midi.NoteOffEvent(tick=480, channel=12, data=[31, 0]),
   midi.NoteOnEvent(tick=1440, channel=12, data=[36, 76]),
   midi.NoteOffEvent(tick=480, channel=12, data=[36, 0]),
   midi.NoteOnEvent(tick=1440, channel=12, data=[32, 88]),
   midi.NoteOffEvent(tick=960, channel=12, data=[32, 0]),
   midi.NoteOnEvent(tick=960, channel=12, data=[31, 120]),
   midi.NoteOffEvent(tick=960, channel=12, data=[31, 0]),
   midi.NoteOnEvent(tick=16800, channel=12, data=[31, 113]),
   midi.NoteOffEvent(tick=480, channel=12, data=[31, 0]),
   midi.NoteOnEvent(tick=0, channel=12, data=[31, 113]),
   midi.NoteOffEvent(tick=480, channel=12, data=[31, 0]),
   midi.NoteOnEvent(tick=0, channel=12, data=[31, 113]),
   midi.NoteOffEvent(tick=480, channel=12, data=[31, 0]),
   midi.NoteOnEvent(tick=0, channel=12, data=[36, 126]),
   midi.NoteOffEvent(tick=480, channel=12, data=[36, 0]),
   midi.NoteOnEvent(tick=0, channel=12, data=[44, 127]),
   midi.NoteOffEvent(tick=480, channel=12, data=[44, 0]),
   midi.NoteOnEvent(tick=0, channel=12, data=[44, 126]),
   midi.NoteOffEvent(tick=480, channel=12, data=[44, 0]),
   midi.NoteOnEvent(tick=0, channel=12, data=[44, 125]),
   midi.NoteOffEvent(tick=480, channel=12, data=[44, 0]),
   midi.NoteOnEvent(tick=0, channel=12, data=[41, 125]),
   midi.NoteOffEvent(tick=480, channel=12, data=[41, 0]),
   midi.NoteOnEvent(tick=0, channel=12, data=[38, 110]),
   midi.NoteOffEvent(tick=480, channel=12, data=[38, 0]),
   midi.NoteOnEvent(tick=0, channel=12, data=[38, 110]),
   midi.NoteOffEvent(tick=480, channel=12, data=[38, 0]),
   midi.NoteOnEvent(tick=0, channel=12, data=[38, 110]),
   midi.NoteOffEvent(tick=480, channel=12, data=[38, 0]),
   midi.NoteOnEvent(tick=0, channel=12, data=[35, 81]),
   midi.NoteOffEvent(tick=480, channel=12, data=[35, 0]),
   midi.NoteOnEvent(tick=0, channel=12, data=[32, 73]),
   midi.NoteOffEvent(tick=480, channel=12, data=[32, 0]),
   midi.NoteOnEvent(tick=0, channel=12, data=[32, 74]),
   midi.NoteOffEvent(tick=480, channel=12, data=[32, 0]),
   midi.NoteOnEvent(tick=0, channel=12, data=[32, 75]),
   midi.NoteOffEvent(tick=480, channel=12, data=[32, 0]),
   midi.NoteOnEvent(tick=0, channel=12, data=[31, 79]),
   midi.NoteOffEvent(tick=480, channel=12, data=[31, 0]),
   midi.NoteOnEvent(tick=0, channel=12, data=[43, 96]),
   midi.NoteOffEvent(tick=480, channel=12, data=[43, 0]),
   midi.NoteOnEvent(tick=0, channel=12, data=[43, 95]),
   midi.NoteOffEvent(tick=480, channel=12, data=[43, 0]),
   midi.NoteOnEvent(tick=0, channel=12, data=[43, 94]),
   midi.NoteOffEvent(tick=480, channel=12, data=[43, 0]),
   midi.NoteOnEvent(tick=0, channel=12, data=[36, 99]),
   midi.NoteOffEvent(tick=480, channel=12, data=[36, 0]),
   midi.NoteOnEvent(tick=0, channel=12, data=[36, 94]),
   midi.NoteOffEvent(tick=480, channel=12, data=[36, 0]),
   midi.NoteOnEvent(tick=0, channel=12, data=[36, 94]),
   midi.NoteOffEvent(tick=480, channel=12, data=[36, 0]),
   midi.NoteOnEvent(tick=0, channel=12, data=[36, 95]),
   midi.NoteOffEvent(tick=480, channel=12, data=[36, 0]),
   midi.NoteOnEvent(tick=0, channel=12, data=[36, 101]),
   midi.NoteOffEvent(tick=2400, channel=12, data=[36, 0]),
   midi.NoteOnEvent(tick=0, channel=12, data=[36, 97]),
   midi.NoteOffEvent(tick=480, channel=12, data=[36, 0]),
   midi.NoteOnEvent(tick=0, channel=12, data=[36, 97]),
   midi.NoteOffEvent(tick=480, channel=12, data=[36, 0]),
   midi.NoteOnEvent(tick=0, channel=12, data=[36, 97]),
   midi.NoteOffEvent(tick=480, channel=12, data=[36, 0]),
   midi.NoteOnEvent(tick=0, channel=12, data=[36, 103]),
   midi.NoteOffEvent(tick=2400, channel=12, data=[36, 0]),
   midi.NoteOnEvent(tick=0, channel=12, data=[36, 98]),
   midi.NoteOffEvent(tick=480, channel=12, data=[36, 0]),
   midi.NoteOnEvent(tick=0, channel=12, data=[36, 98]),
   midi.NoteOffEvent(tick=480, channel=12, data=[36, 0]),
   midi.NoteOnEvent(tick=0, channel=12, data=[36, 98]),
   midi.NoteOffEvent(tick=480, channel=12, data=[36, 0]),
   midi.NoteOnEvent(tick=0, channel=12, data=[36, 104]),
   midi.NoteOffEvent(tick=960, channel=12, data=[36, 0]),
   midi.NoteOnEvent(tick=960, channel=12, data=[36, 104]),
   midi.NoteOffEvent(tick=960, channel=12, data=[36, 0]),
   midi.NoteOnEvent(tick=960, channel=12, data=[36, 104]),
   midi.NoteOffEvent(tick=960, channel=12, data=[36, 0]),
   midi.NoteOnEvent(tick=960, channel=12, data=[36, 104]),
   midi.NoteOffEvent(tick=960, channel=12, data=[36, 0]),
   midi.NoteOnEvent(tick=960, channel=12, data=[36, 104]),
   midi.NoteOffEvent(tick=960, channel=12, data=[36, 0]),
   midi.NoteOnEvent(tick=960, channel=12, data=[36, 104]),
   midi.NoteOffEvent(tick=960, channel=12, data=[36, 0]),
   midi.NoteOnEvent(tick=960, channel=12, data=[36, 104]),
   midi.NoteOffEvent(tick=6240, channel=12, data=[36, 0]),
   midi.NoteOnEvent(tick=0, channel=12, data=[36, 98]),
   midi.NoteOffEvent(tick=480, channel=12, data=[36, 0]),
   midi.NoteOnEvent(tick=0, channel=12, data=[36, 98]),
   midi.NoteOffEvent(tick=480, channel=12, data=[36, 0]),
   midi.NoteOnEvent(tick=0, channel=12, data=[36, 98]),
   midi.NoteOffEvent(tick=480, channel=12, data=[36, 0]),
   midi.NoteOnEvent(tick=0, channel=12, data=[31, 98]),
   midi.NoteOffEvent(tick=6240, channel=12, data=[31, 0]),
   midi.NoteOnEvent(tick=0, channel=12, data=[31, 98]),
   midi.NoteOffEvent(tick=480, channel=12, data=[31, 0]),
   midi.NoteOnEvent(tick=0, channel=12, data=[36, 100]),
   midi.NoteOffEvent(tick=480, channel=12, data=[36, 0]),
   midi.NoteOnEvent(tick=0, channel=12, data=[36, 100]),
   midi.NoteOffEvent(tick=480, channel=12, data=[36, 0]),
   midi.NoteOnEvent(tick=0, channel=12, data=[36, 122]),
   midi.NoteOffEvent(tick=480, channel=12, data=[36, 0]),
   midi.NoteOnEvent(tick=0, channel=12, data=[51, 127]),
   midi.NoteOffEvent(tick=480, channel=12, data=[51, 0]),
   midi.NoteOnEvent(tick=0, channel=12, data=[51, 127]),
   midi.NoteOffEvent(tick=480, channel=12, data=[51, 0]),
   midi.NoteOnEvent(tick=0, channel=12, data=[51, 127]),
   midi.NoteOffEvent(tick=480, channel=12, data=[51, 0]),
   midi.NoteOnEvent(tick=0, channel=12, data=[48, 127]),
   midi.NoteOffEvent(tick=480, channel=12, data=[48, 0]),
   midi.NoteOnEvent(tick=0, channel=12, data=[45, 113]),
   midi.NoteOffEvent(tick=480, channel=12, data=[45, 0]),
   midi.NoteOnEvent(tick=0, channel=12, data=[45, 113]),
   midi.NoteOffEvent(tick=480, channel=12, data=[45, 0]),
   midi.NoteOnEvent(tick=0, channel=12, data=[45, 113]),
   midi.NoteOffEvent(tick=480, channel=12, data=[45, 0]),
   midi.NoteOnEvent(tick=0, channel=12, data=[42, 111]),
   midi.NoteOffEvent(tick=480, channel=12, data=[42, 0]),
   midi.NoteOnEvent(tick=0, channel=12, data=[39, 100]),
   midi.NoteOffEvent(tick=480, channel=12, data=[39, 0]),
   midi.NoteOnEvent(tick=0, channel=12, data=[39, 101]),
   midi.NoteOffEvent(tick=480, channel=12, data=[39, 0]),
   midi.NoteOnEvent(tick=0, channel=12, data=[39, 102]),
   midi.NoteOffEvent(tick=480, channel=12, data=[39, 0]),
   midi.NoteOnEvent(tick=0, channel=12, data=[36, 105]),
   midi.NoteOffEvent(tick=480, channel=12, data=[36, 0]),
   midi.NoteOnEvent(tick=0, channel=12, data=[33, 97]),
   midi.NoteOffEvent(tick=480, channel=12, data=[33, 0]),
   midi.NoteOnEvent(tick=0, channel=12, data=[33, 98]),
   midi.NoteOffEvent(tick=480, channel=12, data=[33, 0]),
   midi.NoteOnEvent(tick=0, channel=12, data=[33, 100]),
   midi.NoteOffEvent(tick=480, channel=12, data=[33, 0]),
   midi.NoteOnEvent(tick=0, channel=12, data=[36, 116]),
   midi.NoteOffEvent(tick=960, channel=12, data=[36, 0]),
   midi.NoteOnEvent(tick=2880, channel=12, data=[35, 120]),
   midi.NoteOffEvent(tick=960, channel=12, data=[35, 0]),
   midi.NoteOnEvent(tick=12960, channel=12, data=[31, 61]),
   midi.NoteOffEvent(tick=480, channel=12, data=[31, 0]),
   midi.NoteOnEvent(tick=0, channel=12, data=[31, 61]),
   midi.NoteOffEvent(tick=480, channel=12, data=[31, 0]),
   midi.NoteOnEvent(tick=0, channel=12, data=[31, 61]),
   midi.NoteOffEvent(tick=480, channel=12, data=[31, 0]),
   midi.NoteOnEvent(tick=0, channel=12, data=[36, 68]),
   midi.NoteOffEvent(tick=960, channel=12, data=[36, 0]),
   midi.NoteOnEvent(tick=12960, channel=12, data=[31, 61]),
   midi.NoteOffEvent(tick=480, channel=12, data=[31, 0]),
   midi.NoteOnEvent(tick=0, channel=12, data=[31, 61]),
   midi.NoteOffEvent(tick=480, channel=12, data=[31, 0]),
   midi.NoteOnEvent(tick=0, channel=12, data=[31, 61]),
   midi.NoteOffEvent(tick=480, channel=12, data=[31, 0]),
   midi.NoteOnEvent(tick=0, channel=12, data=[36, 68]),
   midi.NoteOffEvent(tick=960, channel=12, data=[36, 0]),
   midi.NoteOnEvent(tick=12960, channel=12, data=[36, 61]),
   midi.NoteOffEvent(tick=480, channel=12, data=[36, 0]),
   midi.NoteOnEvent(tick=0, channel=12, data=[36, 61]),
   midi.NoteOffEvent(tick=480, channel=12, data=[36, 0]),
   midi.NoteOnEvent(tick=0, channel=12, data=[36, 61]),
   midi.NoteOffEvent(tick=480, channel=12, data=[36, 0]),
   midi.NoteOnEvent(tick=0, channel=12, data=[41, 68]),
   midi.NoteOffEvent(tick=960, channel=12, data=[41, 0]),
   midi.NoteOnEvent(tick=5280, channel=12, data=[38, 61]),
   midi.NoteOffEvent(tick=480, channel=12, data=[38, 0]),
   midi.NoteOnEvent(tick=0, channel=12, data=[38, 61]),
   midi.NoteOffEvent(tick=480, channel=12, data=[38, 0]),
   midi.NoteOnEvent(tick=0, channel=12, data=[38, 61]),
   midi.NoteOffEvent(tick=480, channel=12, data=[38, 0]),
   midi.NoteOnEvent(tick=0, channel=12, data=[43, 68]),
   midi.NoteOffEvent(tick=960, channel=12, data=[43, 0]),
   midi.NoteOnEvent(tick=3360, channel=12, data=[44, 72]),
   midi.NoteOffEvent(tick=480, channel=12, data=[44, 0]),
   midi.NoteOnEvent(tick=0, channel=12, data=[44, 72]),
   midi.NoteOffEvent(tick=480, channel=12, data=[44, 0]),
   midi.NoteOnEvent(tick=0, channel=12, data=[44, 72]),
   midi.NoteOffEvent(tick=480, channel=12, data=[44, 0]),
   midi.NoteOnEvent(tick=0, channel=12, data=[44, 76]),
   midi.NoteOffEvent(tick=960, channel=12, data=[44, 0]),
   midi.NoteOnEvent(tick=1440, channel=12, data=[47, 73]),
   midi.NoteOffEvent(tick=480, channel=12, data=[47, 0]),
   midi.NoteOnEvent(tick=0, channel=12, data=[47, 73]),
   midi.NoteOffEvent(tick=480, channel=12, data=[47, 0]),
   midi.NoteOnEvent(tick=0, channel=12, data=[47, 73]),
   midi.NoteOffEvent(tick=480, channel=12, data=[47, 0]),
   midi.NoteOnEvent(tick=0, channel=12, data=[47, 77]),
   midi.NoteOffEvent(tick=960, channel=12, data=[47, 0]),
   midi.NoteOnEvent(tick=1440, channel=12, data=[50, 87]),
   midi.NoteOffEvent(tick=480, channel=12, data=[50, 0]),
   midi.NoteOnEvent(tick=0, channel=12, data=[50, 87]),
   midi.NoteOffEvent(tick=480, channel=12, data=[50, 0]),
   midi.NoteOnEvent(tick=0, channel=12, data=[50, 86]),
   midi.NoteOffEvent(tick=480, channel=12, data=[50, 0]),
   midi.NoteOnEvent(tick=0, channel=12, data=[50, 91]),
   midi.NoteOffEvent(tick=960, channel=12, data=[50, 0]),
   midi.NoteOnEvent(tick=1440, channel=12, data=[50, 84]),
   midi.NoteOffEvent(tick=480, channel=12, data=[50, 0]),
   midi.NoteOnEvent(tick=0, channel=12, data=[50, 84]),
   midi.NoteOffEvent(tick=480, channel=12, data=[50, 0]),
   midi.NoteOnEvent(tick=0, channel=12, data=[50, 84]),
   midi.NoteOffEvent(tick=480, channel=12, data=[50, 0]),
   midi.NoteOnEvent(tick=0, channel=12, data=[50, 89]),
   midi.NoteOffEvent(tick=960, channel=12, data=[50, 0]),
   midi.NoteOnEvent(tick=1440, channel=12, data=[50, 84]),
   midi.NoteOffEvent(tick=480, channel=12, data=[50, 0]),
   midi.NoteOnEvent(tick=0, channel=12, data=[50, 84]),
   midi.NoteOffEvent(tick=480, channel=12, data=[50, 0]),
   midi.NoteOnEvent(tick=0, channel=12, data=[50, 84]),
   midi.NoteOffEvent(tick=480, channel=12, data=[50, 0]),
   midi.NoteOnEvent(tick=0, channel=12, data=[50, 89]),
   midi.NoteOffEvent(tick=960, channel=12, data=[50, 0]),
   midi.NoteOnEvent(tick=1920, channel=12, data=[50, 98]),
   midi.NoteOffEvent(tick=960, channel=12, data=[50, 0]),
   midi.NoteOnEvent(tick=960, channel=12, data=[50, 98]),
   midi.NoteOffEvent(tick=960, channel=12, data=[50, 0]),
   midi.NoteOnEvent(tick=960, channel=12, data=[50, 98]),
   midi.NoteOffEvent(tick=960, channel=12, data=[50, 0]),
   midi.NoteOnEvent(tick=960, channel=12, data=[50, 98]),
   midi.NoteOffEvent(tick=960, channel=12, data=[50, 0]),
   midi.NoteOnEvent(tick=0, channel=12, data=[50, 120]),
   midi.NoteOffEvent(tick=2880, channel=12, data=[50, 0]),
   midi.NoteOnEvent(tick=0, channel=12, data=[47, 111]),
   midi.NoteOffEvent(tick=960, channel=12, data=[47, 0]),
   midi.NoteOnEvent(tick=0, channel=12, data=[48, 120]),
   midi.NoteOffEvent(tick=960, channel=12, data=[48, 0]),
   midi.NoteOnEvent(tick=960, channel=12, data=[50, 122]),
   midi.NoteOffEvent(tick=960, channel=12, data=[50, 0]),
   midi.NoteOnEvent(tick=960, channel=12, data=[52, 123]),
   midi.NoteOffEvent(tick=960, channel=12, data=[52, 0]),
   midi.NoteOnEvent(tick=960, channel=12, data=[53, 122]),
   midi.NoteOffEvent(tick=960, channel=12, data=[53, 0]),
   midi.NoteOnEvent(tick=960, channel=12, data=[55, 123]),
   midi.NoteOffEvent(tick=960, channel=12, data=[55, 0]),
   midi.NoteOnEvent(tick=960, channel=12, data=[43, 114]),
   midi.NoteOffEvent(tick=960, channel=12, data=[43, 0]),
   midi.NoteOnEvent(tick=960, channel=12, data=[35, 114]),
   midi.NoteOffEvent(tick=960, channel=12, data=[35, 0]),
   midi.NoteOnEvent(tick=0, channel=12, data=[38, 112]),
   midi.NoteOffEvent(tick=960, channel=12, data=[38, 0]),
   midi.NoteOnEvent(tick=0, channel=12, data=[35, 116]),
   midi.NoteOffEvent(tick=960, channel=12, data=[35, 0]),
   midi.NoteOnEvent(tick=0, channel=12, data=[38, 114]),
   midi.NoteOffEvent(tick=960, channel=12, data=[38, 0]),
   midi.NoteOnEvent(tick=0, channel=12, data=[36, 118]),
   midi.NoteOffEvent(tick=960, channel=12, data=[36, 0]),
   midi.NoteOnEvent(tick=0, channel=12, data=[40, 117]),
   midi.NoteOffEvent(tick=960, channel=12, data=[40, 0]),
   midi.NoteOnEvent(tick=0, channel=12, data=[38, 120]),
   midi.NoteOffEvent(tick=960, channel=12, data=[38, 0]),
   midi.NoteOnEvent(tick=0, channel=12, data=[41, 117]),
   midi.NoteOffEvent(tick=960, channel=12, data=[41, 0]),
   midi.NoteOnEvent(tick=0, channel=12, data=[40, 121]),
   midi.NoteOffEvent(tick=960, channel=12, data=[40, 0]),
   midi.NoteOnEvent(tick=0, channel=12, data=[43, 118]),
   midi.NoteOffEvent(tick=960, channel=12, data=[43, 0]),
   midi.NoteOnEvent(tick=0, channel=12, data=[41, 120]),
   midi.NoteOffEvent(tick=960, channel=12, data=[41, 0]),
   midi.NoteOnEvent(tick=0, channel=12, data=[45, 119]),
   midi.NoteOffEvent(tick=960, channel=12, data=[45, 0]),
   midi.NoteOnEvent(tick=0, channel=12, data=[43, 121]),
   midi.NoteOffEvent(tick=960, channel=12, data=[43, 0]),
   midi.NoteOnEvent(tick=0, channel=12, data=[31, 100]),
   midi.NoteOffEvent(tick=960, channel=12, data=[31, 0]),
   midi.NoteOnEvent(tick=0, channel=12, data=[44, 126]),
   midi.NoteOffEvent(tick=960, channel=12, data=[44, 0]),
   midi.NoteOnEvent(tick=0, channel=12, data=[31, 102]),
   midi.NoteOffEvent(tick=960, channel=12, data=[31, 0]),
   midi.NoteOnEvent(tick=0, channel=12, data=[36, 118]),
   midi.NoteOffEvent(tick=6240, channel=12, data=[36, 0]),
   midi.NoteOnEvent(tick=0, channel=12, data=[31, 113]),
   midi.NoteOffEvent(tick=480, channel=12, data=[31, 0]),
   midi.NoteOnEvent(tick=0, channel=12, data=[31, 113]),
   midi.NoteOffEvent(tick=480, channel=12, data=[31, 0]),
   midi.NoteOnEvent(tick=0, channel=12, data=[31, 113]),
   midi.NoteOffEvent(tick=480, channel=12, data=[31, 0]),
   midi.NoteOnEvent(tick=0, channel=12, data=[36, 126]),
   midi.NoteOffEvent(tick=6240, channel=12, data=[36, 0]),
   midi.NoteOnEvent(tick=0, channel=12, data=[31, 113]),
   midi.NoteOffEvent(tick=480, channel=12, data=[31, 0]),
   midi.NoteOnEvent(tick=0, channel=12, data=[31, 113]),
   midi.NoteOffEvent(tick=480, channel=12, data=[31, 0]),
   midi.NoteOnEvent(tick=0, channel=12, data=[31, 113]),
   midi.NoteOffEvent(tick=480, channel=12, data=[31, 0]),
   midi.NoteOnEvent(tick=0, channel=12, data=[36, 126]),
   midi.NoteOffEvent(tick=960, channel=12, data=[36, 0]),
   midi.NoteOnEvent(tick=1440, channel=12, data=[31, 112]),
   midi.NoteOffEvent(tick=480, channel=12, data=[31, 0]),
   midi.NoteOnEvent(tick=0, channel=12, data=[31, 112]),
   midi.NoteOffEvent(tick=480, channel=12, data=[31, 0]),
   midi.NoteOnEvent(tick=0, channel=12, data=[31, 112]),
   midi.NoteOffEvent(tick=480, channel=12, data=[31, 0]),
   midi.NoteOnEvent(tick=0, channel=12, data=[36, 127]),
   midi.NoteOffEvent(tick=960, channel=12, data=[36, 0]),
   midi.NoteOnEvent(tick=1440, channel=12, data=[31, 112]),
   midi.NoteOffEvent(tick=480, channel=12, data=[31, 0]),
   midi.NoteOnEvent(tick=0, channel=12, data=[31, 112]),
   midi.NoteOffEvent(tick=480, channel=12, data=[31, 0]),
   midi.NoteOnEvent(tick=0, channel=12, data=[31, 112]),
   midi.NoteOffEvent(tick=480, channel=12, data=[31, 0]),
   midi.NoteOnEvent(tick=0, channel=12, data=[36, 111]),
   midi.NoteOffEvent(tick=2400, channel=12, data=[36, 0]),
   midi.NoteOnEvent(tick=0, channel=12, data=[36, 100]),
   midi.NoteOffEvent(tick=480, channel=12, data=[36, 0]),
   midi.NoteOnEvent(tick=0, channel=12, data=[36, 100]),
   midi.NoteOffEvent(tick=480, channel=12, data=[36, 0]),
   midi.NoteOnEvent(tick=0, channel=12, data=[36, 99]),
   midi.NoteOffEvent(tick=480, channel=12, data=[36, 0]),
   midi.NoteOnEvent(tick=0, channel=12, data=[32, 99]),
   midi.NoteOffEvent(tick=2400, channel=12, data=[32, 0]),
   midi.NoteOnEvent(tick=0, channel=12, data=[32, 96]),
   midi.NoteOffEvent(tick=480, channel=12, data=[32, 0]),
   midi.NoteOnEvent(tick=0, channel=12, data=[32, 96]),
   midi.NoteOffEvent(tick=480, channel=12, data=[32, 0]),
   midi.NoteOnEvent(tick=0, channel=12, data=[32, 96]),
   midi.NoteOffEvent(tick=480, channel=12, data=[32, 0]),
   midi.NoteOnEvent(tick=0, channel=12, data=[40, 114]),
   midi.NoteOffEvent(tick=2400, channel=12, data=[40, 0]),
   midi.NoteOnEvent(tick=0, channel=12, data=[40, 102]),
   midi.NoteOffEvent(tick=480, channel=12, data=[40, 0]),
   midi.NoteOnEvent(tick=0, channel=12, data=[40, 101]),
   midi.NoteOffEvent(tick=480, channel=12, data=[40, 0]),
   midi.NoteOnEvent(tick=0, channel=12, data=[40, 101]),
   midi.NoteOffEvent(tick=480, channel=12, data=[40, 0]),
   midi.NoteOnEvent(tick=0, channel=12, data=[41, 107]),
   midi.NoteOffEvent(tick=2400, channel=12, data=[41, 0]),
   midi.NoteOnEvent(tick=0, channel=12, data=[41, 99]),
   midi.NoteOffEvent(tick=480, channel=12, data=[41, 0]),
   midi.NoteOnEvent(tick=0, channel=12, data=[41, 98]),
   midi.NoteOffEvent(tick=480, channel=12, data=[41, 0]),
   midi.NoteOnEvent(tick=0, channel=12, data=[41, 98]),
   midi.NoteOffEvent(tick=480, channel=12, data=[41, 0]),
   midi.NoteOnEvent(tick=0, channel=12, data=[29, 103]),
   midi.NoteOffEvent(tick=480, channel=12, data=[29, 0]),
   midi.NoteOnEvent(tick=0, channel=12, data=[41, 119]),
   midi.NoteOffEvent(tick=480, channel=12, data=[41, 0]),
   midi.NoteOnEvent(tick=0, channel=12, data=[41, 118]),
   midi.NoteOffEvent(tick=480, channel=12, data=[41, 0]),
   midi.NoteOnEvent(tick=0, channel=12, data=[41, 117]),
   midi.NoteOffEvent(tick=480, channel=12, data=[41, 0]),
   midi.NoteOnEvent(tick=0, channel=12, data=[41, 124]),
   midi.NoteOffEvent(tick=480, channel=12, data=[41, 0]),
   midi.NoteOnEvent(tick=0, channel=12, data=[41, 116]),
   midi.NoteOffEvent(tick=480, channel=12, data=[41, 0]),
   midi.NoteOnEvent(tick=0, channel=12, data=[41, 116]),
   midi.NoteOffEvent(tick=480, channel=12, data=[41, 0]),
   midi.NoteOnEvent(tick=0, channel=12, data=[41, 115]),
   midi.NoteOffEvent(tick=480, channel=12, data=[41, 0]),
   midi.NoteOnEvent(tick=0, channel=12, data=[41, 122]),
   midi.NoteOffEvent(tick=480, channel=12, data=[41, 0]),
   midi.NoteOnEvent(tick=0, channel=12, data=[41, 115]),
   midi.NoteOffEvent(tick=480, channel=12, data=[41, 0]),
   midi.NoteOnEvent(tick=0, channel=12, data=[41, 114]),
   midi.NoteOffEvent(tick=480, channel=12, data=[41, 0]),
   midi.NoteOnEvent(tick=0, channel=12, data=[41, 114]),
   midi.NoteOffEvent(tick=480, channel=12, data=[41, 0]),
   midi.NoteOnEvent(tick=0, channel=12, data=[41, 121]),
   midi.NoteOffEvent(tick=480, channel=12, data=[41, 0]),
   midi.NoteOnEvent(tick=0, channel=12, data=[41, 114]),
   midi.NoteOffEvent(tick=480, channel=12, data=[41, 0]),
   midi.NoteOnEvent(tick=0, channel=12, data=[41, 113]),
   midi.NoteOffEvent(tick=480, channel=12, data=[41, 0]),
   midi.NoteOnEvent(tick=0, channel=12, data=[41, 113]),
   midi.NoteOffEvent(tick=480, channel=12, data=[41, 0]),
   midi.NoteOnEvent(tick=0, channel=12, data=[41, 120]),
   midi.NoteOffEvent(tick=960, channel=12, data=[41, 0]),
   midi.NoteOnEvent(tick=7200, channel=12, data=[30, 113]),
   midi.NoteOffEvent(tick=480, channel=12, data=[30, 0]),
   midi.NoteOnEvent(tick=0, channel=12, data=[30, 113]),
   midi.NoteOffEvent(tick=480, channel=12, data=[30, 0]),
   midi.NoteOnEvent(tick=0, channel=12, data=[30, 113]),
   midi.NoteOffEvent(tick=480, channel=12, data=[30, 0]),
   midi.NoteOnEvent(tick=0, channel=12, data=[30, 120]),
   midi.NoteOffEvent(tick=480, channel=12, data=[30, 0]),
   midi.NoteOnEvent(tick=0, channel=12, data=[42, 127]),
   midi.NoteOffEvent(tick=480, channel=12, data=[42, 0]),
   midi.NoteOnEvent(tick=0, channel=12, data=[42, 127]),
   midi.NoteOffEvent(tick=480, channel=12, data=[42, 0]),
   midi.NoteOnEvent(tick=0, channel=12, data=[42, 126]),
   midi.NoteOffEvent(tick=480, channel=12, data=[42, 0]),
   midi.NoteOnEvent(tick=0, channel=12, data=[42, 127]),
   midi.NoteOffEvent(tick=480, channel=12, data=[42, 0]),
   midi.NoteOnEvent(tick=0, channel=12, data=[42, 123]),
   midi.NoteOffEvent(tick=480, channel=12, data=[42, 0]),
   midi.NoteOnEvent(tick=0, channel=12, data=[42, 121]),
   midi.NoteOffEvent(tick=480, channel=12, data=[42, 0]),
   midi.NoteOnEvent(tick=0, channel=12, data=[42, 120]),
   midi.NoteOffEvent(tick=480, channel=12, data=[42, 0]),
   midi.NoteOnEvent(tick=0, channel=12, data=[42, 126]),
   midi.NoteOffEvent(tick=480, channel=12, data=[42, 0]),
   midi.NoteOnEvent(tick=0, channel=12, data=[42, 117]),
   midi.NoteOffEvent(tick=480, channel=12, data=[42, 0]),
   midi.NoteOnEvent(tick=0, channel=12, data=[42, 116]),
   midi.NoteOffEvent(tick=480, channel=12, data=[42, 0]),
   midi.NoteOnEvent(tick=0, channel=12, data=[42, 115]),
   midi.NoteOffEvent(tick=480, channel=12, data=[42, 0]),
   midi.NoteOnEvent(tick=0, channel=12, data=[42, 122]),
   midi.NoteOffEvent(tick=480, channel=12, data=[42, 0]),
   midi.NoteOnEvent(tick=0, channel=12, data=[42, 114]),
   midi.NoteOffEvent(tick=480, channel=12, data=[42, 0]),
   midi.NoteOnEvent(tick=0, channel=12, data=[42, 114]),
   midi.NoteOffEvent(tick=480, channel=12, data=[42, 0]),
   midi.NoteOnEvent(tick=0, channel=12, data=[42, 113]),
   midi.NoteOffEvent(tick=480, channel=12, data=[42, 0]),
   midi.NoteOnEvent(tick=0, channel=12, data=[42, 120]),
   midi.NoteOffEvent(tick=960, channel=12, data=[42, 0]),
   midi.NoteOnEvent(tick=6720, channel=12, data=[31, 104]),
   midi.NoteOffEvent(tick=960, channel=12, data=[31, 0]),
   midi.NoteOnEvent(tick=6720, channel=12, data=[31, 104]),
   midi.NoteOffEvent(tick=960, channel=12, data=[31, 0]),
   midi.NoteOnEvent(tick=14400, channel=12, data=[44, 104]),
   midi.NoteOffEvent(tick=960, channel=12, data=[44, 0]),
   midi.NoteOnEvent(tick=0, channel=12, data=[46, 99]),
   midi.NoteOffEvent(tick=960, channel=12, data=[46, 0]),
   midi.NoteOnEvent(tick=0, channel=12, data=[43, 102]),
   midi.NoteOffEvent(tick=960, channel=12, data=[43, 0]),
   midi.NoteOnEvent(tick=0, channel=12, data=[44, 98]),
   midi.NoteOffEvent(tick=960, channel=12, data=[44, 0]),
   midi.NoteOnEvent(tick=0, channel=12, data=[41, 101]),
   midi.NoteOffEvent(tick=960, channel=12, data=[41, 0]),
   midi.NoteOnEvent(tick=0, channel=12, data=[43, 98]),
   midi.NoteOffEvent(tick=960, channel=12, data=[43, 0]),
   midi.NoteOnEvent(tick=0, channel=12, data=[39, 99]),
   midi.NoteOffEvent(tick=960, channel=12, data=[39, 0]),
   midi.NoteOnEvent(tick=0, channel=12, data=[41, 97]),
   midi.NoteOffEvent(tick=960, channel=12, data=[41, 0]),
   midi.NoteOnEvent(tick=0, channel=12, data=[38, 100]),
   midi.NoteOffEvent(tick=960, channel=12, data=[38, 0]),
   midi.NoteOnEvent(tick=0, channel=12, data=[36, 93]),
   midi.NoteOffEvent(tick=960, channel=12, data=[36, 0]),
   midi.NoteOnEvent(tick=0, channel=12, data=[35, 99]),
   midi.NoteOffEvent(tick=960, channel=12, data=[35, 0]),
   midi.NoteOnEvent(tick=0, channel=12, data=[36, 96]),
   midi.NoteOffEvent(tick=960, channel=12, data=[36, 0]),
   midi.NoteOnEvent(tick=0, channel=12, data=[38, 105]),
   midi.NoteOffEvent(tick=960, channel=12, data=[38, 0]),
   midi.NoteOnEvent(tick=0, channel=12, data=[36, 97]),
   midi.NoteOffEvent(tick=960, channel=12, data=[36, 0]),
   midi.NoteOnEvent(tick=0, channel=12, data=[38, 105]),
   midi.NoteOffEvent(tick=960, channel=12, data=[38, 0]),
   midi.NoteOnEvent(tick=0, channel=12, data=[40, 101]),
   midi.NoteOffEvent(tick=960, channel=12, data=[40, 0]),
   midi.NoteOnEvent(tick=0, channel=12, data=[41, 107]),
   midi.NoteOffEvent(tick=960, channel=12, data=[41, 0]),
   midi.NoteOnEvent(tick=0, channel=12, data=[40, 99]),
   midi.NoteOffEvent(tick=960, channel=12, data=[40, 0]),
   midi.NoteOnEvent(tick=0, channel=12, data=[41, 105]),
   midi.NoteOffEvent(tick=960, channel=12, data=[41, 0]),
   midi.NoteOnEvent(tick=0, channel=12, data=[43, 101]),
   midi.NoteOffEvent(tick=960, channel=12, data=[43, 0]),
   midi.NoteOnEvent(tick=0, channel=12, data=[44, 107]),
   midi.NoteOffEvent(tick=960, channel=12, data=[44, 0]),
   midi.NoteOnEvent(tick=0, channel=12, data=[43, 99]),
   midi.NoteOffEvent(tick=960, channel=12, data=[43, 0]),
   midi.NoteOnEvent(tick=0, channel=12, data=[45, 107]),
   midi.NoteOffEvent(tick=960, channel=12, data=[45, 0]),
   midi.NoteOnEvent(tick=0, channel=12, data=[47, 103]),
   midi.NoteOffEvent(tick=960, channel=12, data=[47, 0]),
   midi.NoteOnEvent(tick=0, channel=12, data=[48, 109]),
   midi.NoteOffEvent(tick=3840, channel=12, data=[48, 0]),
   midi.NoteOnEvent(tick=0, channel=12, data=[44, 103]),
   midi.NoteOffEvent(tick=3840, channel=12, data=[44, 0]),
   midi.NoteOnEvent(tick=0, channel=12, data=[39, 103]),
   midi.NoteOffEvent(tick=3840, channel=12, data=[39, 0]),
   midi.NoteOnEvent(tick=0, channel=12, data=[41, 104]),
   midi.NoteOffEvent(tick=1920, channel=12, data=[41, 0]),
   midi.NoteOnEvent(tick=0, channel=12, data=[39, 103]),
   midi.NoteOffEvent(tick=1920, channel=12, data=[39, 0]),
   midi.NoteOnEvent(tick=0, channel=12, data=[38, 103]),
   midi.NoteOffEvent(tick=1920, channel=12, data=[38, 0]),
   midi.NoteOnEvent(tick=0, channel=12, data=[41, 105]),
   midi.NoteOffEvent(tick=1920, channel=12, data=[41, 0]),
   midi.NoteOnEvent(tick=0, channel=12, data=[39, 103]),
   midi.NoteOffEvent(tick=480, channel=12, data=[39, 0]),
   midi.NoteOnEvent(tick=1440, channel=12, data=[36, 102]),
   midi.NoteOffEvent(tick=480, channel=12, data=[36, 0]),
   midi.NoteOnEvent(tick=1440, channel=12, data=[41, 105]),
   midi.NoteOffEvent(tick=480, channel=12, data=[41, 0]),
   midi.NoteOnEvent(tick=1440, channel=12, data=[38, 103]),
   midi.NoteOffEvent(tick=480, channel=12, data=[38, 0]),
   midi.NoteOnEvent(tick=1440, channel=12, data=[43, 106]),
   midi.NoteOffEvent(tick=480, channel=12, data=[43, 0]),
   midi.NoteOnEvent(tick=1440, channel=12, data=[31, 99]),
   midi.NoteOffEvent(tick=480, channel=12, data=[31, 0]),
   midi.NoteOnEvent(tick=1440, channel=12, data=[36, 104]),
   midi.NoteOffEvent(tick=480, channel=12, data=[36, 0]),
   midi.NoteOnEvent(tick=5280, channel=12, data=[39, 104]),
   midi.NoteOffEvent(tick=480, channel=12, data=[39, 0]),
   midi.NoteOnEvent(tick=480, channel=12, data=[41, 99]),
   midi.NoteOffEvent(tick=480, channel=12, data=[41, 0]),
   midi.NoteOnEvent(tick=480, channel=12, data=[43, 106]),
   midi.NoteOnEvent(tick=960, channel=12, data=[39, 96]),
   midi.NoteOffEvent(tick=19, channel=12, data=[43, 0]),
   midi.NoteOffEvent(tick=892, channel=12, data=[39, 0]),
   midi.NoteOnEvent(tick=3889, channel=12, data=[31, 102]),
   midi.NoteOffEvent(tick=480, channel=12, data=[31, 0]),
   midi.NoteOnEvent(tick=480, channel=12, data=[33, 98]),
   midi.NoteOffEvent(tick=480, channel=12, data=[33, 0]),
   midi.NoteOnEvent(tick=480, channel=12, data=[35, 105]),
   midi.NoteOnEvent(tick=960, channel=12, data=[31, 96]),
   midi.NoteOffEvent(tick=19, channel=12, data=[35, 0]),
   midi.NoteOffEvent(tick=892, channel=12, data=[31, 0]),
   midi.NoteOnEvent(tick=3889, channel=12, data=[31, 103]),
   midi.NoteOffEvent(tick=480, channel=12, data=[31, 0]),
   midi.NoteOnEvent(tick=480, channel=12, data=[33, 99]),
   midi.NoteOffEvent(tick=480, channel=12, data=[33, 0]),
   midi.NoteOnEvent(tick=480, channel=12, data=[35, 106]),
   midi.NoteOnEvent(tick=960, channel=12, data=[31, 96]),
   midi.NoteOffEvent(tick=19, channel=12, data=[35, 0]),
   midi.NoteOffEvent(tick=892, channel=12, data=[31, 0]),
   midi.NoteOnEvent(tick=7729, channel=12, data=[41, 104]),
   midi.NoteOnEvent(tick=960, channel=12, data=[36, 96]),
   midi.NoteOffEvent(tick=19, channel=12, data=[41, 0]),
   midi.NoteOffEvent(tick=892, channel=12, data=[36, 0]),
   midi.NoteOnEvent(tick=1969, channel=12, data=[41, 105]),
   midi.NoteOnEvent(tick=960, channel=12, data=[36, 96]),
   midi.NoteOffEvent(tick=19, channel=12, data=[41, 0]),
   midi.NoteOffEvent(tick=892, channel=12, data=[36, 0]),
   midi.NoteOnEvent(tick=49, channel=12, data=[43, 108]),
   midi.NoteOffEvent(tick=960, channel=12, data=[43, 0]),
   midi.NoteOnEvent(tick=960, channel=12, data=[31, 98]),
   midi.NoteOffEvent(tick=960, channel=12, data=[31, 0]),
   midi.NoteOnEvent(tick=960, channel=12, data=[48, 112]),
   midi.NoteOnEvent(tick=960, channel=12, data=[43, 99]),
   midi.NoteOffEvent(tick=19, channel=12, data=[48, 0]),
   midi.NoteOffEvent(tick=892, channel=12, data=[43, 0]),
   midi.NoteOnEvent(tick=49, channel=12, data=[44, 105]),
   midi.NoteOffEvent(tick=960, channel=12, data=[44, 0]),
   midi.NoteOnEvent(tick=0, channel=12, data=[39, 94]),
   midi.NoteOffEvent(tick=960, channel=12, data=[39, 0]),
   midi.NoteOnEvent(tick=0, channel=12, data=[41, 103]),
   midi.NoteOffEvent(tick=960, channel=12, data=[41, 0]),
   midi.NoteOnEvent(tick=0, channel=12, data=[36, 92]),
   midi.NoteOffEvent(tick=960, channel=12, data=[36, 0]),
   midi.NoteOnEvent(tick=1920, channel=12, data=[41, 105]),
   midi.NoteOnEvent(tick=960, channel=12, data=[36, 95]),
   midi.NoteOffEvent(tick=19, channel=12, data=[41, 0]),
   midi.NoteOffEvent(tick=892, channel=12, data=[36, 0]),
   midi.NoteOnEvent(tick=49, channel=12, data=[41, 106]),
   midi.NoteOnEvent(tick=960, channel=12, data=[36, 95]),
   midi.NoteOffEvent(tick=19, channel=12, data=[41, 0]),
   midi.NoteOffEvent(tick=892, channel=12, data=[36, 0]),
   midi.NoteOnEvent(tick=49, channel=12, data=[43, 109]),
   midi.NoteOffEvent(tick=960, channel=12, data=[43, 0]),
   midi.NoteOnEvent(tick=960, channel=12, data=[31, 97]),
   midi.NoteOffEvent(tick=960, channel=12, data=[31, 0]),
   midi.NoteOnEvent(tick=960, channel=12, data=[36, 104]),
   midi.NoteOffEvent(tick=960, channel=12, data=[36, 0]),
   midi.NoteOnEvent(tick=9120, channel=12, data=[31, 98]),
   midi.NoteOffEvent(tick=480, channel=12, data=[31, 0]),
   midi.NoteOnEvent(tick=0, channel=12, data=[31, 98]),
   midi.NoteOffEvent(tick=480, channel=12, data=[31, 0]),
   midi.NoteOnEvent(tick=0, channel=12, data=[31, 98]),
   midi.NoteOffEvent(tick=480, channel=12, data=[31, 0]),
   midi.NoteOnEvent(tick=0, channel=12, data=[36, 109]),
   midi.NoteOffEvent(tick=480, channel=12, data=[36, 0]),
   midi.NoteOnEvent(tick=0, channel=12, data=[31, 96]),
   midi.NoteOffEvent(tick=480, channel=12, data=[31, 0]),
   midi.NoteOnEvent(tick=0, channel=12, data=[31, 96]),
   midi.NoteOffEvent(tick=480, channel=12, data=[31, 0]),
   midi.NoteOnEvent(tick=0, channel=12, data=[31, 96]),
   midi.NoteOffEvent(tick=480, channel=12, data=[31, 0]),
   midi.NoteOnEvent(tick=0, channel=12, data=[31, 102]),
   midi.NoteOffEvent(tick=480, channel=12, data=[31, 0]),
   midi.NoteOnEvent(tick=0, channel=12, data=[31, 97]),
   midi.NoteOffEvent(tick=480, channel=12, data=[31, 0]),
   midi.NoteOnEvent(tick=0, channel=12, data=[31, 97]),
   midi.NoteOffEvent(tick=480, channel=12, data=[31, 0]),
   midi.NoteOnEvent(tick=0, channel=12, data=[31, 97]),
   midi.NoteOffEvent(tick=480, channel=12, data=[31, 0]),
   midi.NoteOnEvent(tick=0, channel=12, data=[31, 103]),
   midi.NoteOffEvent(tick=480, channel=12, data=[31, 0]),
   midi.NoteOnEvent(tick=0, channel=12, data=[31, 97]),
   midi.NoteOffEvent(tick=480, channel=12, data=[31, 0]),
   midi.NoteOnEvent(tick=0, channel=12, data=[31, 97]),
   midi.NoteOffEvent(tick=480, channel=12, data=[31, 0]),
   midi.NoteOnEvent(tick=0, channel=12, data=[31, 97]),
   midi.NoteOffEvent(tick=480, channel=12, data=[31, 0]),
   midi.NoteOnEvent(tick=0, channel=12, data=[31, 103]),
   midi.NoteOffEvent(tick=480, channel=12, data=[31, 0]),
   midi.NoteOnEvent(tick=0, channel=12, data=[31, 98]),
   midi.NoteOffEvent(tick=480, channel=12, data=[31, 0]),
   midi.NoteOnEvent(tick=0, channel=12, data=[31, 98]),
   midi.NoteOffEvent(tick=480, channel=12, data=[31, 0]),
   midi.NoteOnEvent(tick=0, channel=12, data=[31, 98]),
   midi.NoteOffEvent(tick=480, channel=12, data=[31, 0]),
   midi.NoteOnEvent(tick=0, channel=12, data=[27, 108]),
   midi.NoteOffEvent(tick=3840, channel=12, data=[27, 0]),
   midi.NoteOnEvent(tick=480, channel=12, data=[29, 113]),
   midi.NoteOffEvent(tick=480, channel=12, data=[29, 0]),
   midi.NoteOnEvent(tick=0, channel=12, data=[29, 113]),
   midi.NoteOffEvent(tick=480, channel=12, data=[29, 0]),
   midi.NoteOnEvent(tick=0, channel=12, data=[29, 113]),
   midi.NoteOffEvent(tick=480, channel=12, data=[29, 0]),
   midi.NoteOnEvent(tick=0, channel=12, data=[26, 115]),
   midi.NoteOffEvent(tick=7680, channel=12, data=[26, 0]),
   midi.NoteOnEvent(tick=15840, channel=12, data=[31, 113]),
   midi.NoteOffEvent(tick=480, channel=12, data=[31, 0]),
   midi.NoteOnEvent(tick=0, channel=12, data=[31, 113]),
   midi.NoteOffEvent(tick=480, channel=12, data=[31, 0]),
   midi.NoteOnEvent(tick=0, channel=12, data=[31, 113]),
   midi.NoteOffEvent(tick=480, channel=12, data=[31, 0]),
   midi.NoteOnEvent(tick=0, channel=12, data=[36, 126]),
   midi.NoteOffEvent(tick=960, channel=12, data=[36, 0]),
   midi.NoteOnEvent(tick=1440, channel=12, data=[31, 112]),
   midi.NoteOffEvent(tick=480, channel=12, data=[31, 0]),
   midi.NoteOnEvent(tick=0, channel=12, data=[31, 112]),
   midi.NoteOffEvent(tick=480, channel=12, data=[31, 0]),
   midi.NoteOnEvent(tick=0, channel=12, data=[31, 112]),
   midi.NoteOffEvent(tick=480, channel=12, data=[31, 0]),
   midi.NoteOnEvent(tick=0, channel=12, data=[36, 127]),
   midi.NoteOffEvent(tick=960, channel=12, data=[36, 0]),
   midi.NoteOnEvent(tick=1440, channel=12, data=[31, 112]),
   midi.NoteOffEvent(tick=480, channel=12, data=[31, 0]),
   midi.NoteOnEvent(tick=0, channel=12, data=[31, 112]),
   midi.NoteOffEvent(tick=480, channel=12, data=[31, 0]),
   midi.NoteOnEvent(tick=0, channel=12, data=[31, 112]),
   midi.NoteOffEvent(tick=480, channel=12, data=[31, 0]),
   midi.NoteOnEvent(tick=0, channel=12, data=[36, 127]),
   midi.NoteOffEvent(tick=960, channel=12, data=[36, 0]),
   midi.NoteOnEvent(tick=0, channel=12, data=[31, 111]),
   midi.NoteOffEvent(tick=960, channel=12, data=[31, 0]),
   midi.NoteOnEvent(tick=0, channel=12, data=[36, 126]),
   midi.NoteOffEvent(tick=960, channel=12, data=[36, 0]),
   midi.NoteOnEvent(tick=0, channel=12, data=[31, 110]),
   midi.NoteOffEvent(tick=960, channel=12, data=[31, 0]),
   midi.NoteOnEvent(tick=0, channel=12, data=[36, 125]),
   midi.NoteOffEvent(tick=960, channel=12, data=[36, 0]),
   midi.NoteOnEvent(tick=0, channel=12, data=[43, 125]),
   midi.NoteOffEvent(tick=960, channel=12, data=[43, 0]),
   midi.NoteOnEvent(tick=0, channel=12, data=[48, 127]),
   midi.NoteOffEvent(tick=960, channel=12, data=[48, 0]),
   midi.NoteOnEvent(tick=0, channel=12, data=[43, 116]),
   midi.NoteOffEvent(tick=960, channel=12, data=[43, 0]),
   midi.NoteOnEvent(tick=0, channel=12, data=[48, 127]),
   midi.NoteOffEvent(tick=960, channel=12, data=[48, 0]),
   midi.NoteOnEvent(tick=960, channel=12, data=[31, 109]),
   midi.NoteOffEvent(tick=960, channel=12, data=[31, 0]),
   midi.NoteOnEvent(tick=960, channel=12, data=[36, 118]),
   midi.NoteOffEvent(tick=960, channel=12, data=[36, 0]),
   midi.EndOfTrackEvent(tick=1, data=[])])])
