midi.Pattern(format=1, resolution=256, tracks=\
[midi.Track(\
  [midi.TimeSignatureEvent(tick=0, data=[4, 2, 24, 8]),
   midi.KeySignatureEvent(tick=0, data=[3, 0]),
   midi.SetTempoEvent(tick=0, data=[13, 20, 54]),
   midi.TrackNameEvent(tick=0, text='Ode to Joy', data=[79, 100, 101, 32, 116, 111, 32, 74, 111, 121]),
   midi.TextMetaEvent(tick=0, text='Beethoven', data=[66, 101, 101, 116, 104, 111, 118, 101, 110]),
   midi.EndOfTrackEvent(tick=1, data=[])]),
 midi.Track(\
  [midi.ControlChangeEvent(tick=0, channel=1, data=[121, 0]),
   midi.ControlChangeEvent(tick=0, channel=1, data=[64, 0]),
   midi.ControlChangeEvent(tick=0, channel=1, data=[91, 48]),
   midi.ControlChangeEvent(tick=0, channel=1, data=[10, 32]),
   midi.ControlChangeEvent(tick=0, channel=1, data=[7, 100]),
   midi.TrackNameEvent(tick=0, text='Violin', data=[86, 105, 111, 108, 105, 110]),
   midi.NoteOnEvent(tick=0, channel=1, data=[73, 69]),
   midi.NoteOffEvent(tick=256, channel=1, data=[73, 0]),
   midi.NoteOnEvent(tick=0, channel=1, data=[73, 75]),
   midi.NoteOffEvent(tick=256, channel=1, data=[73, 0]),
   midi.NoteOnEvent(tick=0, channel=1, data=[74, 81]),
   midi.NoteOffEvent(tick=256, channel=1, data=[74, 0]),
   midi.NoteOnEvent(tick=0, channel=1, data=[76, 85]),
   midi.NoteOffEvent(tick=256, channel=1, data=[76, 0]),
   midi.NoteOnEvent(tick=0, channel=1, data=[76, 73]),
   midi.NoteOffEvent(tick=256, channel=1, data=[76, 0]),
   midi.NoteOnEvent(tick=0, channel=1, data=[74, 69]),
   midi.NoteOffEvent(tick=256, channel=1, data=[74, 0]),
   midi.NoteOnEvent(tick=0, channel=1, data=[73, 71]),
   midi.NoteOffEvent(tick=256, channel=1, data=[73, 0]),
   midi.NoteOnEvent(tick=0, channel=1, data=[71, 72]),
   midi.NoteOffEvent(tick=256, channel=1, data=[71, 0]),
   midi.NoteOnEvent(tick=0, channel=1, data=[69, 72]),
   midi.NoteOffEvent(tick=256, channel=1, data=[69, 0]),
   midi.NoteOnEvent(tick=0, channel=1, data=[69, 72]),
   midi.NoteOffEvent(tick=256, channel=1, data=[69, 0]),
   midi.NoteOnEvent(tick=0, channel=1, data=[71, 85]),
   midi.NoteOffEvent(tick=256, channel=1, data=[71, 0]),
   midi.NoteOnEvent(tick=0, channel=1, data=[73, 81]),
   midi.NoteOffEvent(tick=256, channel=1, data=[73, 0]),
   midi.NoteOnEvent(tick=0, channel=1, data=[73, 77]),
   midi.NoteOffEvent(tick=384, channel=1, data=[73, 0]),
   midi.NoteOnEvent(tick=0, channel=1, data=[71, 73]),
   midi.NoteOffEvent(tick=128, channel=1, data=[71, 0]),
   midi.NoteOnEvent(tick=0, channel=1, data=[71, 74]),
   midi.NoteOffEvent(tick=512, channel=1, data=[71, 0]),
   midi.NoteOnEvent(tick=0, channel=1, data=[73, 76]),
   midi.NoteOffEvent(tick=256, channel=1, data=[73, 0]),
   midi.NoteOnEvent(tick=0, channel=1, data=[73, 72]),
   midi.NoteOffEvent(tick=256, channel=1, data=[73, 0]),
   midi.NoteOnEvent(tick=0, channel=1, data=[74, 78]),
   midi.NoteOffEvent(tick=256, channel=1, data=[74, 0]),
   midi.NoteOnEvent(tick=0, channel=1, data=[76, 87]),
   midi.NoteOffEvent(tick=256, channel=1, data=[76, 0]),
   midi.NoteOnEvent(tick=0, channel=1, data=[76, 72]),
   midi.NoteOffEvent(tick=256, channel=1, data=[76, 0]),
   midi.NoteOnEvent(tick=0, channel=1, data=[74, 75]),
   midi.NoteOffEvent(tick=256, channel=1, data=[74, 0]),
   midi.NoteOnEvent(tick=0, channel=1, data=[73, 72]),
   midi.NoteOffEvent(tick=256, channel=1, data=[73, 0]),
   midi.NoteOnEvent(tick=0, channel=1, data=[71, 67]),
   midi.NoteOffEvent(tick=256, channel=1, data=[71, 0]),
   midi.NoteOnEvent(tick=0, channel=1, data=[69, 74]),
   midi.NoteOffEvent(tick=256, channel=1, data=[69, 0]),
   midi.NoteOnEvent(tick=0, channel=1, data=[69, 76]),
   midi.NoteOffEvent(tick=256, channel=1, data=[69, 0]),
   midi.NoteOnEvent(tick=0, channel=1, data=[71, 82]),
   midi.NoteOffEvent(tick=256, channel=1, data=[71, 0]),
   midi.NoteOnEvent(tick=0, channel=1, data=[73, 81]),
   midi.NoteOffEvent(tick=256, channel=1, data=[73, 0]),
   midi.NoteOnEvent(tick=0, channel=1, data=[71, 70]),
   midi.NoteOffEvent(tick=384, channel=1, data=[71, 0]),
   midi.NoteOnEvent(tick=0, channel=1, data=[69, 71]),
   midi.NoteOffEvent(tick=128, channel=1, data=[69, 0]),
   midi.NoteOnEvent(tick=0, channel=1, data=[69, 78]),
   midi.NoteOffEvent(tick=512, channel=1, data=[69, 0]),
   midi.NoteOnEvent(tick=0, channel=1, data=[71, 82]),
   midi.NoteOffEvent(tick=256, channel=1, data=[71, 0]),
   midi.NoteOnEvent(tick=0, channel=1, data=[71, 75]),
   midi.NoteOffEvent(tick=256, channel=1, data=[71, 0]),
   midi.NoteOnEvent(tick=0, channel=1, data=[73, 76]),
   midi.NoteOffEvent(tick=256, channel=1, data=[73, 0]),
   midi.NoteOnEvent(tick=0, channel=1, data=[69, 69]),
   midi.NoteOffEvent(tick=256, channel=1, data=[69, 0]),
   midi.NoteOnEvent(tick=0, channel=1, data=[71, 78]),
   midi.NoteOffEvent(tick=256, channel=1, data=[71, 0]),
   midi.NoteOnEvent(tick=0, channel=1, data=[73, 81]),
   midi.NoteOffEvent(tick=128, channel=1, data=[73, 0]),
   midi.NoteOnEvent(tick=0, channel=1, data=[74, 81]),
   midi.NoteOffEvent(tick=128, channel=1, data=[74, 0]),
   midi.NoteOnEvent(tick=0, channel=1, data=[73, 74]),
   midi.NoteOffEvent(tick=256, channel=1, data=[73, 0]),
   midi.NoteOnEvent(tick=0, channel=1, data=[69, 63]),
   midi.NoteOffEvent(tick=256, channel=1, data=[69, 0]),
   midi.NoteOnEvent(tick=0, channel=1, data=[71, 81]),
   midi.NoteOffEvent(tick=256, channel=1, data=[71, 0]),
   midi.NoteOnEvent(tick=0, channel=1, data=[73, 82]),
   midi.NoteOffEvent(tick=128, channel=1, data=[73, 0]),
   midi.NoteOnEvent(tick=0, channel=1, data=[74, 78]),
   midi.NoteOffEvent(tick=128, channel=1, data=[74, 0]),
   midi.NoteOnEvent(tick=0, channel=1, data=[73, 71]),
   midi.NoteOffEvent(tick=256, channel=1, data=[73, 0]),
   midi.NoteOnEvent(tick=0, channel=1, data=[71, 72]),
   midi.NoteOffEvent(tick=256, channel=1, data=[71, 0]),
   midi.NoteOnEvent(tick=0, channel=1, data=[69, 71]),
   midi.NoteOffEvent(tick=256, channel=1, data=[69, 0]),
   midi.NoteOnEvent(tick=0, channel=1, data=[71, 86]),
   midi.NoteOffEvent(tick=256, channel=1, data=[71, 0]),
   midi.NoteOnEvent(tick=0, channel=1, data=[64, 66]),
   midi.NoteOffEvent(tick=256, channel=1, data=[64, 0]),
   midi.NoteOnEvent(tick=0, channel=1, data=[73, 90]),
   midi.NoteOffEvent(tick=512, channel=1, data=[73, 0]),
   midi.NoteOnEvent(tick=0, channel=1, data=[73, 72]),
   midi.NoteOffEvent(tick=256, channel=1, data=[73, 0]),
   midi.NoteOnEvent(tick=0, channel=1, data=[74, 78]),
   midi.NoteOffEvent(tick=256, channel=1, data=[74, 0]),
   midi.NoteOnEvent(tick=0, channel=1, data=[76, 79]),
   midi.NoteOffEvent(tick=256, channel=1, data=[76, 0]),
   midi.NoteOnEvent(tick=0, channel=1, data=[76, 76]),
   midi.NoteOffEvent(tick=256, channel=1, data=[76, 0]),
   midi.NoteOnEvent(tick=0, channel=1, data=[74, 71]),
   midi.NoteOffEvent(tick=256, channel=1, data=[74, 0]),
   midi.NoteOnEvent(tick=0, channel=1, data=[73, 70]),
   midi.NoteOffEvent(tick=256, channel=1, data=[73, 0]),
   midi.NoteOnEvent(tick=0, channel=1, data=[71, 70]),
   midi.NoteOffEvent(tick=256, channel=1, data=[71, 0]),
   midi.NoteOnEvent(tick=0, channel=1, data=[69, 75]),
   midi.NoteOffEvent(tick=256, channel=1, data=[69, 0]),
   midi.NoteOnEvent(tick=0, channel=1, data=[69, 76]),
   midi.NoteOffEvent(tick=256, channel=1, data=[69, 0]),
   midi.NoteOnEvent(tick=0, channel=1, data=[71, 88]),
   midi.NoteOffEvent(tick=256, channel=1, data=[71, 0]),
   midi.NoteOnEvent(tick=0, channel=1, data=[73, 81]),
   midi.NoteOffEvent(tick=256, channel=1, data=[73, 0]),
   midi.NoteOnEvent(tick=0, channel=1, data=[71, 75]),
   midi.NoteOffEvent(tick=384, channel=1, data=[71, 0]),
   midi.NoteOnEvent(tick=0, channel=1, data=[69, 69]),
   midi.NoteOffEvent(tick=128, channel=1, data=[69, 0]),
   midi.NoteOnEvent(tick=0, channel=1, data=[69, 81]),
   midi.NoteOffEvent(tick=512, channel=1, data=[69, 0]),
   midi.EndOfTrackEvent(tick=1, data=[])]),
 midi.Track(\
  [midi.ControlChangeEvent(tick=0, channel=0, data=[121, 0]),
   midi.ControlChangeEvent(tick=0, channel=0, data=[64, 0]),
   midi.ControlChangeEvent(tick=0, channel=0, data=[91, 43]),
   midi.ControlChangeEvent(tick=0, channel=0, data=[10, 48]),
   midi.ControlChangeEvent(tick=0, channel=0, data=[7, 107]),
   midi.NoteOnEvent(tick=0, channel=0, data=[69, 85]),
   midi.NoteOnEvent(tick=0, channel=0, data=[61, 82]),
   midi.ControlChangeEvent(tick=0, channel=0, data=[121, 0]),
   midi.ControlChangeEvent(tick=0, channel=0, data=[64, 0]),
   midi.ControlChangeEvent(tick=0, channel=0, data=[91, 43]),
   midi.ControlChangeEvent(tick=0, channel=0, data=[10, 48]),
   midi.ControlChangeEvent(tick=0, channel=0, data=[7, 107]),
   midi.NoteOnEvent(tick=0, channel=0, data=[45, 86]),
   midi.NoteOnEvent(tick=0, channel=0, data=[52, 86]),
   midi.NoteOffEvent(tick=256, channel=0, data=[69, 0]),
   midi.NoteOffEvent(tick=0, channel=0, data=[61, 0]),
   midi.NoteOnEvent(tick=0, channel=0, data=[69, 94]),
   midi.NoteOnEvent(tick=0, channel=0, data=[61, 93]),
   midi.NoteOffEvent(tick=256, channel=0, data=[69, 0]),
   midi.NoteOffEvent(tick=0, channel=0, data=[61, 0]),
   midi.NoteOnEvent(tick=0, channel=0, data=[71, 103]),
   midi.NoteOnEvent(tick=0, channel=0, data=[62, 99]),
   midi.NoteOffEvent(tick=256, channel=0, data=[71, 0]),
   midi.NoteOffEvent(tick=0, channel=0, data=[62, 0]),
   midi.NoteOnEvent(tick=0, channel=0, data=[64, 79]),
   midi.NoteOffEvent(tick=256, channel=0, data=[64, 0]),
   midi.NoteOnEvent(tick=0, channel=0, data=[73, 118]),
   midi.NoteOnEvent(tick=0, channel=0, data=[64, 100]),
   midi.NoteOffEvent(tick=0, channel=0, data=[45, 0]),
   midi.NoteOffEvent(tick=0, channel=0, data=[52, 0]),
   midi.NoteOnEvent(tick=0, channel=0, data=[52, 93]),
   midi.NoteOffEvent(tick=256, channel=0, data=[73, 0]),
   midi.NoteOffEvent(tick=0, channel=0, data=[64, 0]),
   midi.NoteOnEvent(tick=0, channel=0, data=[71, 95]),
   midi.NoteOnEvent(tick=0, channel=0, data=[62, 89]),
   midi.NoteOffEvent(tick=256, channel=0, data=[71, 0]),
   midi.NoteOffEvent(tick=0, channel=0, data=[62, 0]),
   midi.NoteOnEvent(tick=0, channel=0, data=[69, 93]),
   midi.NoteOnEvent(tick=0, channel=0, data=[61, 93]),
   midi.NoteOffEvent(tick=0, channel=0, data=[52, 0]),
   midi.NoteOnEvent(tick=0, channel=0, data=[52, 96]),
   midi.NoteOffEvent(tick=256, channel=0, data=[69, 0]),
   midi.NoteOffEvent(tick=0, channel=0, data=[61, 0]),
   midi.NoteOnEvent(tick=0, channel=0, data=[64, 85]),
   midi.NoteOnEvent(tick=0, channel=0, data=[59, 94]),
   midi.NoteOffEvent(tick=256, channel=0, data=[64, 0]),
   midi.NoteOffEvent(tick=0, channel=0, data=[59, 0]),
   midi.NoteOnEvent(tick=0, channel=0, data=[61, 88]),
   midi.NoteOnEvent(tick=0, channel=0, data=[57, 96]),
   midi.NoteOffEvent(tick=0, channel=0, data=[52, 0]),
   midi.NoteOnEvent(tick=0, channel=0, data=[45, 93]),
   midi.NoteOnEvent(tick=0, channel=0, data=[49, 93]),
   midi.NoteOnEvent(tick=0, channel=0, data=[52, 93]),
   midi.NoteOffEvent(tick=256, channel=0, data=[61, 0]),
   midi.NoteOffEvent(tick=0, channel=0, data=[57, 0]),
   midi.NoteOnEvent(tick=0, channel=0, data=[61, 94]),
   midi.NoteOnEvent(tick=0, channel=0, data=[57, 91]),
   midi.NoteOffEvent(tick=256, channel=0, data=[61, 0]),
   midi.NoteOffEvent(tick=0, channel=0, data=[57, 0]),
   midi.NoteOnEvent(tick=0, channel=0, data=[64, 106]),
   midi.NoteOnEvent(tick=0, channel=0, data=[59, 95]),
   midi.NoteOffEvent(tick=256, channel=0, data=[64, 0]),
   midi.NoteOffEvent(tick=0, channel=0, data=[59, 0]),
   midi.NoteOnEvent(tick=0, channel=0, data=[69, 110]),
   midi.NoteOnEvent(tick=0, channel=0, data=[61, 103]),
   midi.NoteOffEvent(tick=256, channel=0, data=[69, 0]),
   midi.NoteOffEvent(tick=0, channel=0, data=[61, 0]),
   midi.NoteOnEvent(tick=0, channel=0, data=[69, 98]),
   midi.NoteOnEvent(tick=0, channel=0, data=[61, 96]),
   midi.NoteOffEvent(tick=0, channel=0, data=[45, 0]),
   midi.NoteOffEvent(tick=0, channel=0, data=[49, 0]),
   midi.NoteOffEvent(tick=0, channel=0, data=[52, 0]),
   midi.NoteOnEvent(tick=0, channel=0, data=[52, 92]),
   midi.NoteOffEvent(tick=384, channel=0, data=[69, 0]),
   midi.NoteOffEvent(tick=0, channel=0, data=[61, 0]),
   midi.NoteOnEvent(tick=0, channel=0, data=[64, 83]),
   midi.NoteOnEvent(tick=0, channel=0, data=[59, 95]),
   midi.NoteOffEvent(tick=128, channel=0, data=[64, 0]),
   midi.NoteOffEvent(tick=0, channel=0, data=[59, 0]),
   midi.NoteOnEvent(tick=0, channel=0, data=[64, 95]),
   midi.NoteOnEvent(tick=0, channel=0, data=[59, 99]),
   midi.NoteOffEvent(tick=0, channel=0, data=[52, 0]),
   midi.NoteOnEvent(tick=0, channel=0, data=[52, 92]),
   midi.NoteOffEvent(tick=512, channel=0, data=[64, 0]),
   midi.NoteOffEvent(tick=0, channel=0, data=[59, 0]),
   midi.NoteOnEvent(tick=0, channel=0, data=[69, 105]),
   midi.NoteOnEvent(tick=0, channel=0, data=[61, 99]),
   midi.NoteOffEvent(tick=0, channel=0, data=[52, 0]),
   midi.NoteOnEvent(tick=0, channel=0, data=[45, 98]),
   midi.NoteOnEvent(tick=0, channel=0, data=[52, 98]),
   midi.NoteOffEvent(tick=256, channel=0, data=[69, 0]),
   midi.NoteOffEvent(tick=0, channel=0, data=[61, 0]),
   midi.NoteOnEvent(tick=0, channel=0, data=[69, 95]),
   midi.NoteOnEvent(tick=0, channel=0, data=[61, 99]),
   midi.NoteOffEvent(tick=256, channel=0, data=[69, 0]),
   midi.NoteOffEvent(tick=0, channel=0, data=[61, 0]),
   midi.NoteOnEvent(tick=0, channel=0, data=[71, 99]),
   midi.NoteOnEvent(tick=0, channel=0, data=[62, 106]),
   midi.NoteOffEvent(tick=256, channel=0, data=[71, 0]),
   midi.NoteOffEvent(tick=0, channel=0, data=[62, 0]),
   midi.NoteOnEvent(tick=0, channel=0, data=[64, 79]),
   midi.NoteOffEvent(tick=256, channel=0, data=[64, 0]),
   midi.NoteOnEvent(tick=0, channel=0, data=[73, 121]),
   midi.NoteOnEvent(tick=0, channel=0, data=[64, 98]),
   midi.NoteOffEvent(tick=0, channel=0, data=[45, 0]),
   midi.NoteOffEvent(tick=0, channel=0, data=[52, 0]),
   midi.NoteOnEvent(tick=0, channel=0, data=[52, 96]),
   midi.NoteOffEvent(tick=256, channel=0, data=[73, 0]),
   midi.NoteOffEvent(tick=0, channel=0, data=[64, 0]),
   midi.NoteOnEvent(tick=0, channel=0, data=[71, 94]),
   midi.NoteOnEvent(tick=0, channel=0, data=[62, 88]),
   midi.NoteOffEvent(tick=256, channel=0, data=[71, 0]),
   midi.NoteOffEvent(tick=0, channel=0, data=[62, 0]),
   midi.NoteOnEvent(tick=0, channel=0, data=[69, 88]),
   midi.NoteOnEvent(tick=0, channel=0, data=[61, 93]),
   midi.NoteOffEvent(tick=0, channel=0, data=[52, 0]),
   midi.NoteOnEvent(tick=0, channel=0, data=[52, 94]),
   midi.NoteOffEvent(tick=256, channel=0, data=[69, 0]),
   midi.NoteOffEvent(tick=0, channel=0, data=[61, 0]),
   midi.NoteOnEvent(tick=0, channel=0, data=[64, 80]),
   midi.NoteOnEvent(tick=0, channel=0, data=[59, 93]),
   midi.NoteOffEvent(tick=256, channel=0, data=[64, 0]),
   midi.NoteOffEvent(tick=0, channel=0, data=[59, 0]),
   midi.NoteOnEvent(tick=0, channel=0, data=[61, 85]),
   midi.NoteOnEvent(tick=0, channel=0, data=[57, 92]),
   midi.NoteOffEvent(tick=0, channel=0, data=[52, 0]),
   midi.NoteOnEvent(tick=0, channel=0, data=[45, 97]),
   midi.NoteOnEvent(tick=0, channel=0, data=[49, 97]),
   midi.NoteOnEvent(tick=0, channel=0, data=[52, 97]),
   midi.NoteOffEvent(tick=256, channel=0, data=[61, 0]),
   midi.NoteOffEvent(tick=0, channel=0, data=[57, 0]),
   midi.NoteOnEvent(tick=0, channel=0, data=[61, 95]),
   midi.NoteOnEvent(tick=0, channel=0, data=[57, 95]),
   midi.NoteOffEvent(tick=256, channel=0, data=[61, 0]),
   midi.NoteOffEvent(tick=0, channel=0, data=[57, 0]),
   midi.NoteOnEvent(tick=0, channel=0, data=[64, 104]),
   midi.NoteOnEvent(tick=0, channel=0, data=[59, 99]),
   midi.NoteOffEvent(tick=256, channel=0, data=[64, 0]),
   midi.NoteOffEvent(tick=0, channel=0, data=[59, 0]),
   midi.NoteOnEvent(tick=0, channel=0, data=[69, 109]),
   midi.NoteOnEvent(tick=0, channel=0, data=[61, 104]),
   midi.NoteOffEvent(tick=256, channel=0, data=[69, 0]),
   midi.NoteOffEvent(tick=0, channel=0, data=[61, 0]),
   midi.NoteOnEvent(tick=0, channel=0, data=[68, 99]),
   midi.NoteOnEvent(tick=0, channel=0, data=[59, 94]),
   midi.NoteOffEvent(tick=0, channel=0, data=[45, 0]),
   midi.NoteOffEvent(tick=0, channel=0, data=[49, 0]),
   midi.NoteOffEvent(tick=0, channel=0, data=[52, 0]),
   midi.NoteOnEvent(tick=0, channel=0, data=[52, 100]),
   midi.NoteOffEvent(tick=256, channel=0, data=[68, 0]),
   midi.NoteOnEvent(tick=0, channel=0, data=[64, 84]),
   midi.NoteOffEvent(tick=128, channel=0, data=[59, 0]),
   midi.NoteOnEvent(tick=0, channel=0, data=[57, 94]),
   midi.NoteOffEvent(tick=128, channel=0, data=[64, 0]),
   midi.NoteOffEvent(tick=0, channel=0, data=[57, 0]),
   midi.NoteOnEvent(tick=0, channel=0, data=[69, 106]),
   midi.NoteOnEvent(tick=0, channel=0, data=[57, 98]),
   midi.NoteOffEvent(tick=0, channel=0, data=[52, 0]),
   midi.NoteOnEvent(tick=0, channel=0, data=[45, 90]),
   midi.NoteOffEvent(tick=512, channel=0, data=[69, 0]),
   midi.NoteOffEvent(tick=0, channel=0, data=[57, 0]),
   midi.NoteOnEvent(tick=0, channel=0, data=[64, 40]),
   midi.NoteOnEvent(tick=0, channel=0, data=[59, 51]),
   midi.NoteOffEvent(tick=0, channel=0, data=[45, 0]),
   midi.NoteOnEvent(tick=0, channel=0, data=[52, 51]),
   midi.NoteOffEvent(tick=256, channel=0, data=[64, 0]),
   midi.NoteOffEvent(tick=0, channel=0, data=[59, 0]),
   midi.NoteOnEvent(tick=0, channel=0, data=[64, 48]),
   midi.NoteOnEvent(tick=0, channel=0, data=[59, 51]),
   midi.NoteOffEvent(tick=256, channel=0, data=[64, 0]),
   midi.NoteOffEvent(tick=0, channel=0, data=[59, 0]),
   midi.NoteOnEvent(tick=0, channel=0, data=[64, 48]),
   midi.NoteOnEvent(tick=0, channel=0, data=[61, 49]),
   midi.NoteOffEvent(tick=256, channel=0, data=[64, 0]),
   midi.NoteOffEvent(tick=0, channel=0, data=[61, 0]),
   midi.NoteOnEvent(tick=0, channel=0, data=[64, 49]),
   midi.NoteOnEvent(tick=0, channel=0, data=[57, 50]),
   midi.NoteOffEvent(tick=256, channel=0, data=[64, 0]),
   midi.NoteOffEvent(tick=0, channel=0, data=[57, 0]),
   midi.NoteOnEvent(tick=0, channel=0, data=[64, 52]),
   midi.NoteOnEvent(tick=0, channel=0, data=[59, 50]),
   midi.NoteOffEvent(tick=0, channel=0, data=[52, 0]),
   midi.NoteOnEvent(tick=0, channel=0, data=[52, 49]),
   midi.NoteOffEvent(tick=256, channel=0, data=[64, 0]),
   midi.NoteOffEvent(tick=0, channel=0, data=[59, 0]),
   midi.NoteOnEvent(tick=0, channel=0, data=[64, 51]),
   midi.NoteOnEvent(tick=0, channel=0, data=[61, 51]),
   midi.NoteOffEvent(tick=128, channel=0, data=[61, 0]),
   midi.NoteOnEvent(tick=0, channel=0, data=[62, 52]),
   midi.NoteOffEvent(tick=128, channel=0, data=[64, 0]),
   midi.NoteOffEvent(tick=0, channel=0, data=[62, 0]),
   midi.NoteOnEvent(tick=0, channel=0, data=[64, 47]),
   midi.NoteOnEvent(tick=0, channel=0, data=[61, 51]),
   midi.NoteOffEvent(tick=0, channel=0, data=[52, 0]),
   midi.NoteOnEvent(tick=0, channel=0, data=[52, 46]),
   midi.NoteOffEvent(tick=256, channel=0, data=[64, 0]),
   midi.NoteOffEvent(tick=0, channel=0, data=[61, 0]),
   midi.NoteOnEvent(tick=0, channel=0, data=[64, 48]),
   midi.NoteOnEvent(tick=0, channel=0, data=[57, 40]),
   midi.NoteOffEvent(tick=256, channel=0, data=[64, 0]),
   midi.NoteOffEvent(tick=0, channel=0, data=[57, 0]),
   midi.NoteOnEvent(tick=0, channel=0, data=[64, 51]),
   midi.NoteOnEvent(tick=0, channel=0, data=[59, 51]),
   midi.NoteOffEvent(tick=0, channel=0, data=[52, 0]),
   midi.NoteOnEvent(tick=0, channel=0, data=[52, 50]),
   midi.NoteOffEvent(tick=256, channel=0, data=[64, 0]),
   midi.NoteOffEvent(tick=0, channel=0, data=[59, 0]),
   midi.NoteOnEvent(tick=0, channel=0, data=[64, 49]),
   midi.NoteOnEvent(tick=0, channel=0, data=[61, 49]),
   midi.NoteOffEvent(tick=128, channel=0, data=[61, 0]),
   midi.NoteOnEvent(tick=0, channel=0, data=[62, 54]),
   midi.NoteOffEvent(tick=128, channel=0, data=[64, 0]),
   midi.NoteOffEvent(tick=0, channel=0, data=[62, 0]),
   midi.NoteOnEvent(tick=0, channel=0, data=[65, 50]),
   midi.NoteOnEvent(tick=0, channel=0, data=[61, 44]),
   midi.NoteOffEvent(tick=0, channel=0, data=[52, 0]),
   midi.NoteOnEvent(tick=0, channel=0, data=[53, 48]),
   midi.NoteOffEvent(tick=256, channel=0, data=[65, 0]),
   midi.NoteOffEvent(tick=0, channel=0, data=[61, 0]),
   midi.NoteOnEvent(tick=0, channel=0, data=[65, 42]),
   midi.NoteOnEvent(tick=0, channel=0, data=[59, 47]),
   midi.NoteOffEvent(tick=256, channel=0, data=[65, 0]),
   midi.NoteOffEvent(tick=0, channel=0, data=[59, 0]),
   midi.NoteOnEvent(tick=0, channel=0, data=[66, 55]),
   midi.NoteOnEvent(tick=0, channel=0, data=[57, 47]),
   midi.NoteOffEvent(tick=0, channel=0, data=[53, 0]),
   midi.NoteOnEvent(tick=0, channel=0, data=[54, 48]),
   midi.NoteOffEvent(tick=256, channel=0, data=[66, 0]),
   midi.NoteOffEvent(tick=0, channel=0, data=[57, 0]),
   midi.NoteOnEvent(tick=0, channel=0, data=[63, 43]),
   midi.NoteOnEvent(tick=0, channel=0, data=[59, 51]),
   midi.NoteOffEvent(tick=0, channel=0, data=[54, 0]),
   midi.NoteOnEvent(tick=0, channel=0, data=[51, 42]),
   midi.NoteOffEvent(tick=256, channel=0, data=[63, 0]),
   midi.NoteOffEvent(tick=0, channel=0, data=[59, 0]),
   midi.NoteOnEvent(tick=0, channel=0, data=[64, 52]),
   midi.NoteOnEvent(tick=0, channel=0, data=[52, 45]),
   midi.NoteOffEvent(tick=0, channel=0, data=[51, 0]),
   midi.NoteOnEvent(tick=0, channel=0, data=[52, 45]),
   midi.NoteOffEvent(tick=256, channel=0, data=[64, 0]),
   midi.NoteOffEvent(tick=0, channel=0, data=[52, 0]),
   midi.NoteOnEvent(tick=0, channel=0, data=[69, 57]),
   midi.NoteOnEvent(tick=0, channel=0, data=[61, 58]),
   midi.NoteOffEvent(tick=256, channel=0, data=[52, 0]),
   midi.NoteOnEvent(tick=0, channel=0, data=[57, 51]),
   midi.NoteOffEvent(tick=256, channel=0, data=[69, 0]),
   midi.NoteOffEvent(tick=0, channel=0, data=[61, 0]),
   midi.NoteOnEvent(tick=0, channel=0, data=[69, 47]),
   midi.NoteOnEvent(tick=0, channel=0, data=[61, 49]),
   midi.NoteOffEvent(tick=256, channel=0, data=[69, 0]),
   midi.NoteOffEvent(tick=0, channel=0, data=[61, 0]),
   midi.NoteOnEvent(tick=0, channel=0, data=[67, 45]),
   midi.NoteOnEvent(tick=0, channel=0, data=[62, 48]),
   midi.NoteOffEvent(tick=0, channel=0, data=[57, 0]),
   midi.NoteOnEvent(tick=0, channel=0, data=[55, 47]),
   midi.NoteOffEvent(tick=256, channel=0, data=[67, 0]),
   midi.NoteOffEvent(tick=0, channel=0, data=[62, 0]),
   midi.NoteOnEvent(tick=0, channel=0, data=[67, 45]),
   midi.NoteOnEvent(tick=0, channel=0, data=[64, 52]),
   midi.NoteOffEvent(tick=256, channel=0, data=[67, 0]),
   midi.NoteOffEvent(tick=0, channel=0, data=[64, 0]),
   midi.NoteOnEvent(tick=0, channel=0, data=[66, 42]),
   midi.NoteOnEvent(tick=0, channel=0, data=[64, 47]),
   midi.NoteOffEvent(tick=0, channel=0, data=[55, 0]),
   midi.NoteOnEvent(tick=0, channel=0, data=[54, 48]),
   midi.NoteOffEvent(tick=256, channel=0, data=[66, 0]),
   midi.NoteOffEvent(tick=0, channel=0, data=[64, 0]),
   midi.NoteOnEvent(tick=0, channel=0, data=[66, 51]),
   midi.NoteOnEvent(tick=0, channel=0, data=[62, 45]),
   midi.NoteOffEvent(tick=256, channel=0, data=[66, 0]),
   midi.NoteOffEvent(tick=0, channel=0, data=[62, 0]),
   midi.NoteOnEvent(tick=0, channel=0, data=[62, 44]),
   midi.NoteOnEvent(tick=0, channel=0, data=[61, 47]),
   midi.NoteOffEvent(tick=0, channel=0, data=[54, 0]),
   midi.NoteOnEvent(tick=0, channel=0, data=[50, 45]),
   midi.NoteOffEvent(tick=256, channel=0, data=[62, 0]),
   midi.NoteOffEvent(tick=0, channel=0, data=[61, 0]),
   midi.NoteOnEvent(tick=0, channel=0, data=[62, 48]),
   midi.NoteOnEvent(tick=0, channel=0, data=[59, 47]),
   midi.NoteOffEvent(tick=256, channel=0, data=[62, 0]),
   midi.NoteOffEvent(tick=0, channel=0, data=[59, 0]),
   midi.NoteOnEvent(tick=0, channel=0, data=[61, 50]),
   midi.NoteOnEvent(tick=0, channel=0, data=[57, 46]),
   midi.NoteOffEvent(tick=0, channel=0, data=[50, 0]),
   midi.NoteOnEvent(tick=0, channel=0, data=[49, 47]),
   midi.NoteOffEvent(tick=256, channel=0, data=[61, 0]),
   midi.NoteOffEvent(tick=0, channel=0, data=[57, 0]),
   midi.NoteOnEvent(tick=0, channel=0, data=[61, 44]),
   midi.NoteOnEvent(tick=0, channel=0, data=[57, 49]),
   midi.NoteOffEvent(tick=0, channel=0, data=[49, 0]),
   midi.NoteOnEvent(tick=0, channel=0, data=[49, 51]),
   midi.NoteOffEvent(tick=256, channel=0, data=[61, 0]),
   midi.NoteOffEvent(tick=0, channel=0, data=[57, 0]),
   midi.NoteOnEvent(tick=0, channel=0, data=[64, 51]),
   midi.NoteOnEvent(tick=0, channel=0, data=[59, 55]),
   midi.NoteOffEvent(tick=0, channel=0, data=[49, 0]),
   midi.NoteOnEvent(tick=0, channel=0, data=[52, 52]),
   midi.NoteOffEvent(tick=256, channel=0, data=[64, 0]),
   midi.NoteOffEvent(tick=0, channel=0, data=[59, 0]),
   midi.NoteOnEvent(tick=0, channel=0, data=[69, 56]),
   midi.NoteOnEvent(tick=0, channel=0, data=[61, 49]),
   midi.NoteOffEvent(tick=0, channel=0, data=[52, 0]),
   midi.NoteOnEvent(tick=0, channel=0, data=[57, 51]),
   midi.NoteOffEvent(tick=256, channel=0, data=[69, 0]),
   midi.NoteOffEvent(tick=0, channel=0, data=[61, 0]),
   midi.NoteOnEvent(tick=0, channel=0, data=[68, 49]),
   midi.NoteOnEvent(tick=0, channel=0, data=[59, 48]),
   midi.NoteOffEvent(tick=0, channel=0, data=[57, 0]),
   midi.NoteOnEvent(tick=0, channel=0, data=[52, 46]),
   midi.NoteOffEvent(tick=256, channel=0, data=[68, 0]),
   midi.NoteOnEvent(tick=0, channel=0, data=[64, 45]),
   midi.NoteOffEvent(tick=128, channel=0, data=[59, 0]),
   midi.NoteOnEvent(tick=0, channel=0, data=[57, 50]),
   midi.NoteOffEvent(tick=128, channel=0, data=[64, 0]),
   midi.NoteOffEvent(tick=0, channel=0, data=[57, 0]),
   midi.NoteOnEvent(tick=0, channel=0, data=[69, 50]),
   midi.NoteOnEvent(tick=0, channel=0, data=[57, 46]),
   midi.NoteOffEvent(tick=0, channel=0, data=[52, 0]),
   midi.NoteOnEvent(tick=0, channel=0, data=[45, 47]),
   midi.NoteOnEvent(tick=0, channel=0, data=[49, 47]),
   midi.NoteOnEvent(tick=0, channel=0, data=[52, 47]),
   midi.NoteOffEvent(tick=512, channel=0, data=[69, 0]),
   midi.NoteOffEvent(tick=0, channel=0, data=[57, 0]),
   midi.NoteOffEvent(tick=0, channel=0, data=[45, 0]),
   midi.NoteOffEvent(tick=0, channel=0, data=[49, 0]),
   midi.NoteOffEvent(tick=0, channel=0, data=[52, 0]),
   midi.EndOfTrackEvent(tick=1, data=[])])])
